<svg width="20" height="12" viewBox="0 0 20 12" fill="none" xmlns="http://www.w3.org/2000/svg">
<path fill-rule="evenodd" clip-rule="evenodd" d="M8.6513 0.568242L0.564188 8.71349C0.203104 9.07419 2.90346e-08 9.56521 2.29264e-08 10.0774C1.68182e-08 10.5897 0.203104 11.0807 0.564188 11.4414C1.30812 12.1862 2.5096 12.1862 3.25354 11.4414L10.0055 4.64086L16.7575 11.4414C17.5014 12.1862 18.7029 12.1862 19.4468 11.4414C19.8039 11.0788 20.0029 10.588 20 10.0774C20.0029 9.56681 19.8039 9.07602 19.4468 8.71349L11.3597 0.568242C11.0016 0.204563 10.5141 1.25379e-07 10.0055 1.19315e-07C9.49695 1.1325e-07 9.00944 0.204563 8.6513 0.568242Z" fill="#ECB971"/>
</svg>
