<svg width="90" height="92" viewBox="0 0 90 92" fill="none" xmlns="http://www.w3.org/2000/svg">
<path d="M43.6085 1.34792C44.3841 0.596647 45.6159 0.596646 46.3915 1.34792L52.7271 7.48502C53.2625 8.00359 54.0418 8.18145 54.7491 7.94652L63.1201 5.16611C64.1448 4.82574 65.2547 5.36024 65.6275 6.37363L68.6729 14.6519C68.9303 15.3514 69.5552 15.8498 70.2944 15.945L79.0428 17.0719C80.1137 17.2099 80.8818 18.173 80.778 19.2478L79.93 28.0276C79.8584 28.7695 80.2052 29.4897 80.8299 29.8962L88.2229 34.7073C89.1279 35.2963 89.4021 36.4973 88.8422 37.4206L84.2688 44.963C83.8823 45.6003 83.8823 46.3997 84.2688 47.037L88.8422 54.5794C89.4021 55.5027 89.1279 56.7037 88.2229 57.2927L80.8299 62.1038C80.2052 62.5103 79.8584 63.2305 79.93 63.9724L80.778 72.7522C80.8818 73.827 80.1137 74.7901 79.0428 74.928L70.2944 76.055C69.5552 76.1503 68.9303 76.6486 68.6729 77.3481L65.6275 85.6264C65.2547 86.6398 64.1448 87.1743 63.1201 86.8339L54.7491 84.0535C54.0418 83.8186 53.2625 83.9964 52.7271 84.515L46.3915 90.6521C45.6159 91.4034 44.3841 91.4034 43.6085 90.6521L37.2729 84.515C36.7375 83.9964 35.9582 83.8186 35.2509 84.0535L26.8799 86.8339C25.8552 87.1743 24.7453 86.6398 24.3725 85.6264L21.3271 77.3481C21.0697 76.6486 20.4448 76.1503 19.7056 76.055L10.9572 74.928C9.88627 74.7901 9.11819 73.827 9.222 72.7522L10.07 63.9724C10.1416 63.2305 9.79482 62.5103 9.17012 62.1038L1.77709 57.2927C0.872065 56.7037 0.597943 55.5027 1.1578 54.5794L5.73122 47.037C6.11766 46.3997 6.11766 45.6003 5.73122 44.963L1.1578 37.4206C0.597943 36.4973 0.872065 35.2963 1.77709 34.7073L9.17012 29.8962C9.79482 29.4897 10.1416 28.7695 10.07 28.0276L9.222 19.2478C9.11819 18.173 9.88626 17.2099 10.9572 17.0719L19.7056 15.945C20.4448 15.8498 21.0697 15.3514 21.3271 14.6519L24.3725 6.37363C24.7453 5.36024 25.8552 4.82574 26.8799 5.16611L35.2509 7.94652C35.9582 8.18145 36.7375 8.00359 37.2729 7.48502L43.6085 1.34792Z" fill="url(#paint0_linear_141_43631)"/>
<defs>
<linearGradient id="paint0_linear_141_43631" x1="45" y1="0" x2="45" y2="92" gradientUnits="userSpaceOnUse">
<stop stop-color="#88F462"/>
<stop offset="1" stop-color="#478830"/>
</linearGradient>
</defs>
</svg>
