<svg width="472" height="669" viewBox="0 0 472 669" fill="none" xmlns="http://www.w3.org/2000/svg">
<path d="M383.274 187.624C383.274 178.092 367.965 178.075 367.965 187.624C367.966 197.157 383.274 197.173 383.274 187.624Z" fill="#FAEAD3"/>
<path d="M284.469 616.202L250.541 621.188L247.427 641.61L242.098 621.571L205.775 617.573L241.599 612.863L247.427 590.795L250.763 612.48L284.469 616.202Z" fill="#FAEAD3"/>
<path d="M341.789 396.477C342.708 396.477 343.463 380.356 343.547 360.706C351.685 368.471 358.446 374.418 358.818 374.057C359.191 373.696 353.046 367.154 345.021 359.277C365.326 359.197 381.985 358.467 381.985 357.576C381.985 356.686 365.33 355.956 345.027 355.875C353.182 347.886 359.197 341.462 358.818 341.096C358.44 340.729 351.802 346.549 343.55 354.439C343.486 334.458 342.722 318.676 341.789 318.676C340.855 318.676 340.091 334.458 340.028 354.439C331.774 346.549 325.138 340.729 324.759 341.096C324.381 341.462 330.394 347.885 338.547 355.872C317.901 355.934 301.592 356.673 301.592 357.576C301.592 358.48 317.904 359.219 338.552 359.28C330.529 367.155 324.387 373.696 324.759 374.057C325.132 374.418 331.892 368.471 340.031 360.706C340.113 380.356 340.869 396.477 341.789 396.477Z" fill="#FAEAD3"/>
<path d="M161.092 205.559C161.886 205.559 162.537 191.649 162.609 174.693C169.632 181.393 175.464 186.525 175.786 186.213C176.107 185.903 170.805 180.257 163.881 173.461C181.402 173.391 195.775 172.761 195.775 171.993C195.775 171.224 181.404 170.594 163.885 170.525C170.922 163.632 176.111 158.088 175.785 157.772C175.458 157.457 169.732 162.478 162.611 169.286C162.556 152.046 161.897 138.427 161.091 138.427C160.285 138.427 159.626 152.046 159.572 169.285C152.45 162.477 146.723 157.456 146.398 157.771C146.071 158.087 151.26 163.63 158.295 170.521C140.48 170.574 126.407 171.212 126.407 171.992C126.407 172.771 140.482 173.41 158.299 173.463C151.376 180.257 146.076 185.902 146.397 186.212C146.718 186.523 152.551 181.392 159.574 174.692C159.647 191.649 160.298 205.559 161.092 205.559Z" fill="#FAEAD3"/>
<path d="M250.849 39.927C251.321 39.927 251.709 31.654 251.751 21.569C255.927 25.5546 259.397 28.6057 259.588 28.4214C259.78 28.2361 256.626 24.879 252.509 20.8366C262.93 20.7954 271.478 20.4209 271.478 19.964C271.478 19.5071 262.931 19.1326 252.512 19.0914C256.696 14.9911 259.784 11.6949 259.589 11.5066C259.395 11.3184 255.989 14.3048 251.754 18.3541C251.721 8.10051 251.329 -8.80755e-07 250.85 -9.01712e-07C250.37 -9.22669e-07 249.978 8.09953 249.946 18.3541C245.71 14.3048 242.304 11.3184 242.11 11.5066C241.916 11.6949 245.001 14.9902 249.186 19.0894C238.59 19.1208 230.22 19.5003 230.22 19.964C230.22 20.4278 238.591 20.8072 249.188 20.8386C245.071 24.88 241.918 28.2371 242.109 28.4214C242.3 28.6067 245.769 25.5546 249.947 21.569C249.989 31.653 250.376 39.927 250.849 39.927Z" fill="#FAEAD3"/>
<path d="M354.709 155.451L345.466 159.865L343.984 169.736L336.789 162.594L326.631 164.279L331.427 155.451L326.631 146.622L336.789 148.309L343.984 141.166L345.466 151.036L354.709 155.451Z" fill="#FAEAD3"/>
<path d="M225.728 428.468L216.485 432.882L215.002 442.753L207.809 435.61L197.65 437.297L202.446 428.468L197.65 419.64L207.809 421.325L215.002 414.184L216.485 424.054L225.728 428.468Z" fill="#FAEAD3"/>
<path d="M65.3242 110.8L60.3425 113.18L59.5435 118.501L55.6657 114.65L50.1899 115.559L52.7754 110.8L50.1899 106.041L55.6657 106.95L59.5435 103.1L60.3425 108.421L65.3242 110.8Z" fill="#FAEAD3"/>
<path d="M208.039 358.256C209.07 357.872 209.674 356.812 209.813 355.918C209.895 355.397 209.834 354.888 209.646 354.415C209.513 353.998 209.289 353.601 208.988 353.254C208.846 353.015 208.658 352.786 208.413 352.573C207.617 351.877 206.531 351.62 205.432 351.746C203.778 351.937 202.465 353.023 202.027 354.4C201.768 355.215 201.883 356.297 202.425 357.021C203.015 357.809 203.777 358.241 204.785 358.584C205.874 358.954 207.042 358.628 208.039 358.256Z" fill="#FAEAD3"/>
<path d="M263.883 568.93C264.929 568.337 265.302 567.405 265.442 566.301C265.325 567.223 265.416 566.724 265.496 566.463C265.63 566.025 265.695 565.565 265.694 565.107C265.696 565.038 265.697 564.969 265.699 564.901C265.716 564.778 265.735 564.64 265.758 564.477C265.725 563.781 265.566 563.044 265.136 562.472C264.582 561.735 263.903 561.048 262.936 560.835C261.997 560.628 260.932 560.669 260.1 561.194C259.045 561.858 258.317 562.762 258.148 563.983C258.049 564.689 258.052 565.378 258.245 566.082C258.587 567.339 259.498 568.36 260.708 568.93C261.74 569.418 262.855 569.513 263.883 568.93Z" fill="#FAEAD3"/>
<path d="M328.486 46.7757C328.486 44.9344 326.813 43.1706 324.849 43.2559C322.878 43.3412 321.211 44.8031 321.211 46.7757C321.211 48.617 322.885 50.3809 324.849 50.2965C326.82 50.2103 328.486 48.7494 328.486 46.7757Z" fill="#FAEAD3"/>
<path d="M163.714 55.1357C163.714 53.118 161.88 51.1845 159.727 51.2776C157.567 51.3718 155.741 52.9729 155.741 55.1357C155.741 57.1535 157.574 59.087 159.727 58.9938C161.887 58.8997 163.714 57.2976 163.714 55.1357Z" fill="#FAEAD3"/>
<path d="M424.435 250.555C424.473 250.495 424.509 250.436 424.546 250.377C424.856 249.879 424.874 249.177 424.546 248.681C424.47 248.564 424.392 248.448 424.315 248.33C423.71 247.413 422.384 247.413 421.778 248.33C421.701 248.447 421.624 248.563 421.547 248.681C421.219 249.177 421.238 249.879 421.547 250.377C421.584 250.437 421.621 250.496 421.658 250.555C422.283 251.563 423.809 251.563 424.435 250.555Z" fill="#FAEAD3"/>
<path d="M443.332 206.475C443.332 204.647 440.395 204.643 440.395 206.475C440.395 208.304 443.332 208.308 443.332 206.475Z" fill="#FAEAD3"/>
<path d="M335.945 291.063C336.751 289.586 336.63 287.855 335.597 286.545C335.073 284.988 333.871 284.088 332.334 283.499C332.281 283.479 332.229 283.459 332.176 283.439C329.481 282.405 325.993 285.068 326.25 287.808C326.255 287.862 326.26 287.917 326.265 287.973C326.422 289.646 327.08 291.096 328.64 291.979C329.034 292.202 329.467 292.363 329.917 292.47C330.35 292.652 330.794 292.808 331.247 292.913C332.981 293.314 335.072 292.664 335.945 291.063Z" fill="#FAEAD3"/>
<path d="M319.911 283.989C320.003 283.918 320.094 283.846 320.185 283.774C320.705 283.369 320.702 282.36 320.185 281.956C320.093 281.884 320.002 281.813 319.911 281.741C318.85 280.911 317.106 281.381 317.106 282.866C317.106 284.342 318.849 284.82 319.911 283.989Z" fill="#FAEAD3"/>
<path d="M381.185 136.608C382.25 136.005 382.49 134.754 381.963 133.738C381.532 132.909 381.154 132.269 380.26 131.835C379.308 131.373 377.805 131.694 377.589 132.887C377.478 133.5 377.391 134.027 377.626 134.637C377.788 135.057 378.012 135.455 378.219 135.855C378.745 136.867 380.221 137.154 381.185 136.608Z" fill="#FAEAD3"/>
<path d="M327.773 605.114C329.162 603.651 329.308 601.79 328.451 600.03C328.342 599.805 328.232 599.581 328.123 599.357C326.839 596.718 322.846 596.563 320.89 598.455C318.93 600.353 319.099 604.213 321.823 605.454C322.054 605.56 322.287 605.664 322.518 605.77C324.217 606.544 326.401 606.561 327.773 605.114Z" fill="#FAEAD3"/>
<path d="M461.353 283.498C462.465 283.202 463.409 282.103 463.355 280.953C463.232 278.29 459.784 277.427 458.273 279.62C458.225 279.688 458.179 279.755 458.133 279.822C457.702 280.449 457.702 281.456 458.133 282.082C458.179 282.15 458.226 282.217 458.273 282.284C458.949 283.266 460.131 283.823 461.353 283.498Z" fill="#FAEAD3"/>
<path d="M177.142 329.924C177.142 328.431 175.617 327 173.826 327.069C172.03 327.138 170.51 328.324 170.51 329.924C170.51 331.417 172.034 332.848 173.826 332.779C175.623 332.709 177.142 331.524 177.142 329.924Z" fill="#FAEAD3"/>
<path d="M410.49 569.154C410.49 567.661 408.966 566.231 407.174 566.299C405.378 566.369 403.858 567.554 403.858 569.154C403.858 570.648 405.383 572.078 407.174 572.009C408.972 571.94 410.49 570.754 410.49 569.154Z" fill="#FAEAD3"/>
<path d="M162.104 310.187C162.104 308.9 159.781 308.898 159.781 310.187C159.78 311.473 162.104 311.476 162.104 310.187Z" fill="#FAEAD3"/>
<path d="M217.673 546.144C217.673 544.586 216.257 543.094 214.595 543.167C212.929 543.239 211.519 544.475 211.519 546.144C211.519 547.702 212.935 549.194 214.595 549.122C216.263 549.05 217.673 547.814 217.673 546.144Z" fill="#FAEAD3"/>
<path d="M201.839 542.87C201.231 542.434 200.407 541.934 199.73 542.589C199.06 543.238 199.571 544.042 200.022 544.629C201.3 546.298 203.575 544.116 201.839 542.87Z" fill="#FAEAD3"/>
<path d="M97.9116 666.405C97.3038 665.969 96.4792 665.469 95.8027 666.124C95.132 666.773 95.6429 667.577 96.0939 668.164C97.3724 669.833 99.647 667.652 97.9116 666.405Z" fill="#FAEAD3"/>
<path d="M202.335 525.211C202.335 521.901 197.02 521.896 197.02 525.211C197.02 528.52 202.335 528.526 202.335 525.211Z" fill="#FAEAD3"/>
<path d="M219.003 664.436C219.003 661.126 213.688 661.121 213.688 664.436C213.688 667.745 219.003 667.75 219.003 664.436Z" fill="#FAEAD3"/>
<path d="M176.925 536.761C176.925 535.368 174.686 535.365 174.686 536.761C174.686 538.154 176.925 538.156 176.925 536.761Z" fill="#FAEAD3"/>
<path d="M43.1523 29.4459C43.1523 27.889 41.7366 26.3967 40.0747 26.4683C38.4079 26.5408 36.9981 27.7772 36.9981 29.4459C36.9981 31.0039 38.4138 32.4961 40.0747 32.4236C41.7425 32.352 43.1523 31.1157 43.1523 29.4459Z" fill="#FAEAD3"/>
<path d="M27.3189 26.1701C26.711 25.7338 25.8864 25.2338 25.2099 25.8888C24.5393 26.5378 25.0501 27.3418 25.5011 27.9291C26.7796 29.5978 29.0543 27.4163 27.3189 26.1701Z" fill="#FAEAD3"/>
<path d="M27.8135 8.51169C27.8135 5.20168 22.4984 5.19678 22.4984 8.51169C22.4984 11.8207 27.8135 11.8266 27.8135 8.51169Z" fill="#FAEAD3"/>
<path d="M2.40454 20.0618C2.40454 18.6676 0.166204 18.6656 0.166204 20.0618C0.166204 21.455 2.40454 21.457 2.40454 20.0618Z" fill="#FAEAD3"/>
<path d="M231.904 258.534C231.819 258.422 231.734 258.31 231.647 258.198C230.599 256.829 228.861 256.829 227.814 258.198C227.728 258.31 227.642 258.422 227.557 258.534C226.383 260.068 227.979 262.2 229.73 262.2C231.482 262.2 233.078 260.068 231.904 258.534Z" fill="#FAEAD3"/>
<path d="M82.8748 572.279C82.7895 572.167 82.7042 572.055 82.6179 571.943C81.5698 570.574 79.8315 570.574 78.7844 571.943C78.6991 572.055 78.6128 572.167 78.5275 572.279C77.3539 573.813 78.95 575.945 80.7011 575.945C82.4522 575.945 84.0484 573.813 82.8748 572.279Z" fill="#FAEAD3"/>
<path d="M262.762 220.78C262.762 214.945 253.391 214.936 253.391 220.78C253.391 226.616 262.762 226.626 262.762 220.78Z" fill="#FAEAD3"/>
<path d="M404.928 84.4976C404.928 78.6619 395.557 78.6521 395.557 84.4976C395.557 90.3333 404.928 90.3431 404.928 84.4976Z" fill="#FAEAD3"/>
<path d="M273.843 231.366C273.963 231.193 274.084 231.02 274.204 230.848C274.812 229.981 274.003 228.812 272.996 228.812C271.99 228.812 271.181 229.981 271.789 230.848C271.909 231.02 272.03 231.193 272.15 231.366C272.578 231.974 273.416 231.974 273.843 231.366Z" fill="#FAEAD3"/>
<path d="M107.387 503.648C107.301 503.536 107.216 503.424 107.13 503.312C106.082 501.943 104.343 501.943 103.296 503.312C103.211 503.424 103.125 503.536 103.039 503.648C101.866 505.182 103.462 507.314 105.213 507.314C106.964 507.314 108.56 505.182 107.387 503.648Z" fill="#FAEAD3"/>
<path d="M138.244 465.896C138.244 460.06 128.873 460.051 128.873 465.896C128.873 471.731 138.244 471.741 138.244 465.896Z" fill="#FAEAD3"/>
<path d="M149.324 476.48C149.445 476.307 149.565 476.135 149.686 475.962C150.294 475.094 149.485 473.926 148.478 473.926C147.472 473.926 146.662 475.095 147.27 475.962C147.391 476.135 147.511 476.307 147.633 476.48C148.059 477.089 148.897 477.089 149.324 476.48Z" fill="#FAEAD3"/>
<path d="M472 397.35C472 395.679 469.316 395.676 469.316 397.35C469.316 399.021 472 399.023 472 397.35Z" fill="#FAEAD3"/>
<path d="M222.281 32.0985C223.061 31.673 223.381 30.9798 223.464 30.1768C223.467 30.1533 223.469 30.1288 223.472 30.1053C223.554 29.8886 223.622 29.665 223.656 29.4278C223.707 29.0719 223.733 28.7228 223.754 28.365C223.912 25.7442 220.543 24.1755 218.252 25.4236C217.14 26.0295 216.441 27.1639 216.441 28.365C216.441 29.617 217.16 30.6337 218.252 31.3053C218.666 31.5593 219.118 31.8005 219.597 31.9475C219.687 31.9975 219.779 32.0485 219.869 32.0985C220.599 32.5064 221.55 32.4966 222.281 32.0985Z" fill="#FAEAD3"/>
<path d="M214.804 16.2785C214.804 12.4586 208.431 12.4527 208.431 16.2785C208.431 20.0973 214.804 20.1042 214.804 16.2785Z" fill="#FAEAD3"/>
<path d="M204.465 29.1387C204.465 27.5278 201.776 27.5249 201.776 29.1387C201.776 30.7506 204.465 30.7525 204.465 29.1387Z" fill="#FAEAD3"/>
<path d="M5.43262 656.629C5.43262 655.018 2.74421 655.015 2.74421 656.629C2.74421 658.241 5.43262 658.243 5.43262 656.629Z" fill="#FAEAD3"/>
<path d="M398.1 209.188C398.588 208.624 399.049 208.04 399.509 207.454C400.136 206.652 400.002 205.334 399.509 204.518C398.974 203.634 397.974 203.078 396.915 203.078C395.855 203.078 394.855 203.634 394.321 204.518C393.828 205.334 393.693 206.652 394.321 207.454C394.78 208.04 395.241 208.624 395.73 209.188C396.275 209.821 397.557 209.819 398.1 209.188Z" fill="#FAEAD3"/>
<path d="M425.034 462.911C425.651 462.262 425.915 461.244 425.515 460.422C425.51 460.389 425.506 460.363 425.501 460.326C425.316 459.675 424.888 459.252 424.327 458.882C424.194 458.794 424.054 458.726 423.909 458.675C423.713 458.291 423.112 458.268 422.853 458.595C422.14 458.706 421.462 459.123 421.086 459.705C421.073 459.724 421.061 459.744 421.048 459.764C420.609 460.44 420.584 461.469 421.048 462.143C421.358 462.594 421.717 463.017 422.232 463.261C423.13 463.686 424.312 463.675 425.034 462.911Z" fill="#FAEAD3"/>
<path d="M400.786 492.507C401.304 492.01 401.626 491.548 401.611 490.797C401.591 489.9 400.81 489.039 399.838 489.082C398.861 489.124 398.086 489.836 398.065 490.797C398.049 491.548 398.372 492.01 398.89 492.507C399.405 493.002 400.269 493.003 400.786 492.507Z" fill="#FAEAD3"/>
<path d="M382.11 433.613L382.736 433.521C383.347 433.431 383.924 432.935 384.279 432.49C384.586 432.106 384.871 431.55 384.908 431.027C385.498 429.215 383.492 427.287 381.621 427.89C381.556 427.909 381.52 427.921 381.493 427.931C381.38 427.946 381.268 427.961 381.156 427.975C380.769 428.065 380.433 428.236 380.146 428.49C379.683 428.836 379.173 429.401 379.081 429.983L378.986 430.589C378.845 431.485 378.942 432.305 379.639 432.981C380.338 433.656 381.185 433.749 382.11 433.613Z" fill="#FAEAD3"/>
<path d="M193.303 95.7467C194.553 94.4289 195.341 92.8102 195.341 90.9866C195.341 89.26 194.564 87.4471 193.303 86.2255C192.097 85.0577 190.117 84.1783 188.384 84.2538C186.585 84.3322 184.719 84.9038 183.466 86.2255C182.215 87.5422 181.428 89.1619 181.428 90.9866C181.428 92.7132 182.205 94.526 183.466 95.7467C184.672 96.9144 186.652 97.7939 188.384 97.7184C190.184 97.6409 192.049 97.0693 193.303 95.7467Z" fill="#FAEAD3"/>
<path d="M58.9812 593.818C60.2303 592.5 61.0186 590.881 61.0186 589.058C61.0186 587.331 60.242 585.518 58.9812 584.297C57.7752 583.129 55.7947 582.249 54.0622 582.325C52.2631 582.403 50.3963 582.975 49.1433 584.297C47.8932 585.613 47.1059 587.233 47.1059 589.058C47.1059 590.784 47.8824 592.597 49.1433 593.818C50.3502 594.985 52.3298 595.865 54.0622 595.789C55.8614 595.712 57.7272 595.14 58.9812 593.818Z" fill="#FAEAD3"/>
<path d="M430.857 360.014C430.857 357.029 426.065 357.024 426.065 360.014C426.066 362.997 430.857 363.002 430.857 360.014Z" fill="#FAEAD3"/>
<path d="M325.892 202.322C325.892 201.228 325.4 200.079 324.6 199.306C323.836 198.565 322.581 198.008 321.484 198.056C319.095 198.159 317.074 199.93 317.074 202.321C317.074 203.416 317.567 204.565 318.366 205.338C319.131 206.079 320.385 206.635 321.484 206.588C323.872 206.484 325.892 204.714 325.892 202.322Z" fill="#FAEAD3"/>
<path d="M263.384 318.74L263.486 318.641C264.822 317.333 265.188 315.352 264.457 313.677C263.761 312.083 262.028 310.802 260.165 310.882C258.528 310.953 256.955 311.736 256.11 313.134C255.053 314.882 255.38 317.207 256.844 318.641L256.946 318.74C258.667 320.425 261.658 320.428 263.384 318.74Z" fill="#FAEAD3"/>
<path d="M75.1369 563.854L75.2389 563.755C76.5753 562.447 76.941 560.467 76.2095 558.791C75.5144 557.197 73.781 555.916 71.9181 555.998C70.2808 556.068 68.7081 556.852 67.8629 558.249C66.806 559.997 67.1325 562.323 68.5973 563.756L68.6993 563.855C70.42 565.54 73.4113 565.543 75.1369 563.854Z" fill="#FAEAD3"/>
<path d="M116.316 136.377L116.418 136.278C117.754 134.97 118.12 132.989 117.388 131.314C116.693 129.719 114.96 128.439 113.097 128.519C111.459 128.59 109.887 129.373 109.042 130.77C107.985 132.519 108.311 134.844 109.776 136.278L109.878 136.377C111.599 138.062 114.59 138.065 116.316 136.377Z" fill="#FAEAD3"/>
<path d="M74.1565 645.231L74.2584 645.132C75.5948 643.824 75.9605 641.844 75.2291 640.168C74.5339 638.574 72.8005 637.293 70.9376 637.375C69.3003 637.445 67.7276 638.229 66.8825 639.626C65.8255 641.374 66.152 643.7 67.6168 645.133L67.7188 645.232C69.4395 646.917 72.4309 646.919 74.1565 645.231Z" fill="#FAEAD3"/>
</svg>
