<svg width="65" height="81" viewBox="0 0 65 81" fill="none" xmlns="http://www.w3.org/2000/svg">
<path d="M51.5883 73.1773C50.6761 73.7399 45.6238 70.3551 45.2432 69.4251C44.863 68.4947 46.2178 66.8348 47.2732 66.1831C48.3293 65.5313 50.4204 65.0665 51.0808 65.8236C51.7416 66.5803 52.5006 72.6139 51.5883 73.1773Z" fill="white" stroke="#31344E" stroke-width="1.9666" stroke-miterlimit="10" stroke-linecap="round" stroke-linejoin="round"/>
<path d="M13.3759 73.1773C14.2882 73.7399 19.3404 70.3551 19.7206 69.4251C20.1005 68.4947 18.7464 66.8348 17.6911 66.1831C16.6345 65.5313 14.5438 65.0665 13.8838 65.8236C13.2222 66.5803 12.4636 72.6139 13.3759 73.1773Z" fill="white" stroke="#31344E" stroke-width="1.9666" stroke-miterlimit="10" stroke-linecap="round" stroke-linejoin="round"/>
<path d="M51.7916 37.5028C53.3979 35.2467 57.6406 33.9081 60.1335 35.2878C61.9984 36.3206 61.7368 39.1446 61.0088 40.7837C60.4684 41.9981 59.5867 43.0444 58.4388 43.7097C57.3129 44.3626 56.0173 44.6983 54.8619 45.3021C53.4753 46.0263 54.7018 48.1193 56.0857 47.3962C57.4529 46.6814 58.9614 46.2853 60.26 45.4369C61.676 44.5102 62.7823 42.9213 63.3838 41.36C64.3981 38.7281 64.2108 35.1863 61.7164 33.4327C58.0915 30.8854 52.0952 32.9116 49.6975 36.2794C48.789 37.5553 50.893 38.7651 51.7916 37.5028Z" fill="white" stroke="#31344E" stroke-width="1.9666" stroke-miterlimit="10" stroke-linecap="round" stroke-linejoin="round"/>
<path d="M58.4402 43.7096C57.3142 44.3625 56.0187 44.6982 54.8632 45.302C53.4767 46.0262 54.7031 48.1192 56.087 47.3961C57.4358 46.6911 58.9216 46.2943 60.2085 45.4677C59.9627 44.6094 59.684 43.7946 59.3812 43.0239C59.0912 43.2811 58.7793 43.5133 58.4402 43.7096Z" fill="#31344E"/>
<path d="M49.6997 36.2785C48.7905 37.5551 50.8948 38.765 51.7931 37.5027C52.46 36.5658 53.5837 35.7918 54.8456 35.2998C54.1327 34.4181 53.552 33.7852 53.2359 33.4065C51.7931 34.1168 50.5289 35.1132 49.6997 36.2785Z" fill="#31344E"/>
<path d="M13.169 37.5026C11.5627 35.2464 7.32 33.9079 4.82711 35.2876C2.96216 36.3203 3.22383 39.1444 3.95184 40.7835C4.49218 41.9978 5.37387 43.0442 6.52213 43.7095C7.64813 44.3624 8.94366 44.698 10.0991 45.3018C11.4856 46.026 10.2592 48.1191 8.87494 47.396C7.50804 46.6812 5.99917 46.2851 4.70061 45.4366C3.285 44.51 2.17827 42.9211 1.57676 41.3597C0.562536 38.7279 0.749447 35.186 3.24385 33.4325C6.86877 30.8852 12.865 32.9114 15.2631 36.2792C16.172 37.5551 14.0676 38.7649 13.169 37.5026Z" fill="white" stroke="#31344E" stroke-width="1.9666" stroke-miterlimit="10" stroke-linecap="round" stroke-linejoin="round"/>
<path d="M6.52061 43.7096C7.6466 44.3625 8.94214 44.6982 10.0976 45.302C11.4841 46.0262 10.2577 48.1192 8.87341 47.3961C7.52464 46.6911 6.03918 46.2943 4.75195 45.4677C4.99777 44.6094 5.27681 43.7946 5.57964 43.0239C5.86964 43.2811 6.18191 43.5133 6.52061 43.7096Z" fill="#31344E"/>
<path d="M15.2605 36.2785C16.1701 37.5551 14.0658 38.765 13.1667 37.5027C12.4999 36.5658 11.3762 35.7918 10.1143 35.2998C10.8272 34.4181 11.4079 33.7852 11.724 33.4065C13.1675 34.1168 14.4309 35.1132 15.2605 36.2785Z" fill="#31344E"/>
<path d="M53.03 27.0327C53.03 27.0327 51.5627 33.1917 51.5042 33.6769C51.4453 34.1621 58.9001 40.286 59.7218 51.6845C60.5431 63.0826 49.0332 74.239 32.4828 74.239C15.9331 74.239 4.42247 63.0826 5.24449 51.6845C6.06614 40.286 13.521 34.1621 13.4625 33.6769C13.4036 33.1917 11.9363 27.0327 11.9363 27.0327H53.03Z" fill="#31344E" stroke="#31344E" stroke-width="1.9666" stroke-miterlimit="10" stroke-linecap="round" stroke-linejoin="round"/>
<path d="M10.1204 42.7769C5.60096 47.3764 5.15125 55.5971 8.78372 60.9219C9.0454 61.3048 9.67674 61.0752 9.54949 60.5991C7.93715 54.5742 6.56383 48.4428 10.2601 42.8845C10.3164 42.7992 10.1903 42.7063 10.1204 42.7769Z" fill="white"/>
<path d="M10.1367 61.8604C9.89843 62.1478 9.97092 62.5122 10.0929 62.8339C10.193 63.0982 10.3066 63.2598 10.5483 63.4135C10.7862 63.5645 11.1354 63.5717 11.345 63.3625C11.5096 63.1971 11.5568 62.9124 11.4749 62.7017C11.4394 62.61 11.4205 62.5156 11.3692 62.4287C11.3061 62.3215 11.2132 62.2479 11.126 62.1633C10.978 62.019 10.8609 61.8854 10.6604 61.8114C10.4962 61.751 10.2696 61.6996 10.1367 61.8604Z" fill="white"/>
<path d="M45.946 64.2586C47.763 62.9819 49.418 61.5433 50.4957 59.5677C50.5629 59.4438 50.3831 59.34 50.3076 59.4582C49.1567 61.2533 47.3986 62.6787 45.7319 63.981C45.5741 64.1045 45.7825 64.3733 45.946 64.2586Z" fill="white"/>
<path d="M50.9073 61.2947C50.9685 61.2071 50.8288 61.1308 50.7669 61.2127C49.3037 63.1298 47.3979 64.5748 45.4367 65.947C45.2668 66.066 45.4212 66.3435 45.6013 66.2287C47.6732 64.9196 49.5019 63.3171 50.9073 61.2947Z" fill="white"/>
<path d="M51.3795 62.7136C49.6732 64.264 47.9687 65.808 46.0936 67.1546C45.9818 67.235 46.0815 67.417 46.2031 67.3426C48.196 66.1162 49.7989 64.4219 51.4566 62.7907C51.5068 62.7416 51.4316 62.6672 51.3795 62.7136Z" fill="white"/>
<path d="M51.4628 64.9337C51.538 64.8367 51.3688 64.7064 51.2914 64.8019C49.9373 66.4864 48.2419 67.6815 46.3826 68.7493C46.278 68.8094 46.3502 68.9959 46.4665 68.9483C48.4538 68.1301 50.1582 66.6227 51.4628 64.9337Z" fill="white"/>
<path d="M51.7077 66.4754C50.4352 67.5342 49.088 68.4691 47.7158 69.392C47.5568 69.4981 47.6988 69.7488 47.8664 69.6503C49.307 68.8037 50.581 67.7045 51.8032 66.5721C51.8693 66.5109 51.7742 66.4207 51.7077 66.4754Z" fill="white"/>
<path d="M32.4829 80C31.411 80 28.8886 74.4667 29.0536 73.4759C29.2183 72.4843 31.2425 71.7827 32.4829 71.7827C33.7233 71.7827 35.7473 72.4843 35.9123 73.4759C36.0773 74.4667 33.5549 80 32.4829 80Z" fill="white" stroke="#31344E" stroke-width="1.9666" stroke-miterlimit="10" stroke-linecap="round" stroke-linejoin="round"/>
<path d="M33.7289 42.5571C40.1552 42.5571 44.9594 48.8883 43.3527 55.079C42.2652 59.3786 38.0762 61.9508 33.7289 61.7892C29.3816 61.9508 25.1922 59.3786 24.1051 55.079C22.4984 48.8883 27.3026 42.5571 33.7289 42.5571Z" fill="white"/>
<path d="M49.5115 49.3546C49.1109 53.7053 52.5693 57.5088 56.7652 57.7369C56.2799 57.9306 55.7676 58.0775 55.2283 58.1655C50.3574 58.9622 45.9308 54.7592 46.3813 49.8667C46.6709 46.4721 49.5282 44.0037 52.8431 43.5876C53.3683 43.4808 53.8977 43.4351 54.4252 43.4351C51.8107 44.313 49.7551 46.5053 49.5115 49.3546Z" fill="white"/>
<path d="M17.9454 49.3546C18.346 53.7053 14.8876 57.5088 10.6914 57.7369C11.177 57.9306 11.6894 58.0775 12.2286 58.1655C17.0992 58.9622 21.5258 54.7592 21.0757 49.8667C20.7857 46.4721 17.9288 44.0037 14.6139 43.5876C14.0886 43.4808 13.5592 43.4351 13.0314 43.4351C15.6458 44.313 17.7015 46.5053 17.9454 49.3546Z" fill="white"/>
<path d="M33.8261 50.2888C32.972 50.2888 32.972 51.6134 33.8261 51.6134C34.6799 51.6134 34.6799 50.2888 33.8261 50.2888Z" fill="#31344E"/>
<path d="M36.2026 48.813C35.9312 48.813 35.9312 49.2367 36.2026 49.2367C36.4753 49.2363 36.4753 48.813 36.2026 48.813Z" fill="#31344E"/>
<path d="M32.1401 51.5988C32.1439 51.5954 32.1488 51.5912 32.1511 51.5878C32.2828 51.4511 32.2606 51.2144 32.0903 51.1185C32.0861 51.1162 32.0827 51.114 32.0786 51.1109C31.8735 50.9973 31.6104 51.1408 31.6104 51.379C31.6104 51.646 31.9513 51.7932 32.1401 51.5988Z" fill="#31344E"/>
<path d="M32.5422 48.1078C32.8515 48.1078 32.8515 47.6287 32.5422 47.6287C32.2333 47.6287 32.2333 48.1078 32.5422 48.1078Z" fill="#31344E"/>
<path d="M30.9998 44.761C31.3823 44.761 31.3823 44.1682 30.9998 44.1682C30.6173 44.1678 30.6173 44.761 30.9998 44.761Z" fill="#31344E"/>
<path d="M29.3301 45.6853C29.338 45.6785 29.3452 45.6717 29.3524 45.6638C29.4249 45.6011 29.4249 45.4671 29.3524 45.4055C29.3456 45.3987 29.338 45.3923 29.3301 45.3851C29.1949 45.2673 28.9688 45.3417 28.9688 45.5339C28.9684 45.7291 29.1949 45.8024 29.3301 45.6853Z" fill="#31344E"/>
<path d="M33.1629 44.7979C33.3993 44.7979 33.3993 44.4316 33.1629 44.4316C32.9262 44.4316 32.9262 44.7979 33.1629 44.7979Z" fill="#31344E"/>
<path d="M26.7255 47.2975C26.6553 47.1472 26.4706 47.0732 26.3366 47.2072C26.1935 47.3485 26.2932 47.6271 26.5061 47.6158C26.5609 47.6124 26.6032 47.6026 26.6556 47.5807C26.7648 47.5312 26.7761 47.3945 26.7255 47.2975Z" fill="#31344E"/>
<path d="M26.6973 47.248C26.709 47.2609 26.7165 47.2805 26.7248 47.2975C26.7282 47.3035 26.7343 47.3058 26.7365 47.3126C26.7229 47.2907 26.7101 47.2703 26.6973 47.248Z" fill="#31344E"/>
<path d="M27.678 54.3182C28.0287 54.0954 27.8849 53.5667 27.4714 53.5516C27.4642 53.5516 27.4574 53.5501 27.4518 53.5501C27.1773 53.5388 26.9779 53.8261 27.047 54.0795C27.1165 54.3321 27.4325 54.4764 27.6621 54.3291C27.6666 54.3261 27.6738 54.3234 27.678 54.3182Z" fill="#31344E"/>
<path d="M25.2629 51.4346C24.6988 51.4346 24.6988 52.3087 25.2629 52.3087C25.8267 52.3091 25.8267 51.4346 25.2629 51.4346Z" fill="#31344E"/>
<path d="M26.2055 56.1343C25.8781 56.1343 25.8781 56.6421 26.2055 56.6421C26.5325 56.6425 26.5325 56.1343 26.2055 56.1343Z" fill="#31344E"/>
<path d="M27.7677 58.0759C27.4056 58.0759 27.4056 58.6401 27.7677 58.6401C28.1324 58.6401 28.1324 58.0759 27.7677 58.0759Z" fill="#31344E"/>
<path d="M32.8009 59.9585C32.1315 59.9585 32.1315 60.9969 32.8009 60.9969C33.47 60.9969 33.47 59.9585 32.8009 59.9585Z" fill="#31344E"/>
<path d="M34.896 59.1392C34.5516 59.1392 34.5516 59.675 34.896 59.675C35.2407 59.6753 35.2407 59.1392 34.896 59.1392Z" fill="#31344E"/>
<path d="M35.2821 53.1382C34.9008 53.1382 34.9008 53.7306 35.2821 53.7306C35.6646 53.7306 35.6646 53.1382 35.2821 53.1382Z" fill="#31344E"/>
<path d="M41.2831 54.3443C41.2499 54.3572 41.2159 54.3707 41.1842 54.3874C41.1366 54.4149 41.0988 54.4519 41.0709 54.4991C41.0316 54.5928 41.0316 54.5969 41.0686 54.5101C40.9769 54.7185 41.0392 54.9707 41.2827 55.0383C41.5089 55.1006 41.7389 54.9258 41.7389 54.6906C41.7392 54.4746 41.5059 54.2582 41.2831 54.3443Z" fill="#31344E"/>
<path d="M40.4415 47.6085C40.7678 47.6085 40.7678 47.1006 40.4415 47.1006C40.1145 47.1006 40.1145 47.6085 40.4415 47.6085Z" fill="#31344E"/>
<path d="M41.9582 51.197C41.8049 51.0875 41.5708 51.1189 41.3899 51.1098C40.9742 51.0883 40.5513 51.0494 40.1318 51.0445C40.2069 50.9199 40.2805 50.7919 40.361 50.6699C40.5173 50.4332 40.6868 50.2036 40.8424 49.9668C40.87 49.923 40.8107 49.8834 40.7759 49.9147C40.5094 50.1583 40.1725 50.3935 39.9086 50.6711C39.8686 50.3467 39.8131 50.0208 39.7689 49.6984C39.7402 49.4862 39.7587 49.2105 39.613 49.0413C39.5684 48.9892 39.4925 49.0123 39.4578 49.061C39.3475 49.2139 39.3792 49.4476 39.3698 49.6293C39.3532 49.9612 39.3248 50.2961 39.312 50.631C39.0526 50.3712 38.7358 50.1469 38.4824 49.9151C38.4473 49.8838 38.3877 49.9234 38.4148 49.9672C38.5549 50.1802 38.7029 50.3879 38.8476 50.5985C38.9586 50.7594 39.0556 50.9305 39.1572 51.097C38.5496 51.1578 37.9564 51.2605 37.344 51.3806C37.2273 51.404 37.2688 51.5633 37.3708 51.5743C37.8522 51.6264 38.3231 51.669 38.7973 51.6894C38.541 51.9439 38.3227 52.2536 38.0946 52.4997C38.0637 52.5337 38.1056 52.5941 38.1471 52.5658C38.362 52.4269 38.5693 52.2789 38.7804 52.1357C38.9654 52.01 39.1602 51.9024 39.3501 51.7846C39.4087 52.4204 39.5155 53.0374 39.6413 53.6741C39.6624 53.793 39.8225 53.7507 39.8346 53.6488C39.9007 53.031 39.9554 52.4307 39.9634 51.8201C40.1106 51.9081 40.2609 51.9934 40.4048 52.0878C40.6427 52.2434 40.8715 52.4114 41.109 52.5662C41.1524 52.5945 41.1924 52.5341 41.1615 52.5001C40.9198 52.2373 40.6846 51.9032 40.4078 51.6411C40.7136 51.6007 41.0172 51.5501 41.3197 51.5093C41.5338 51.481 41.809 51.4984 41.9775 51.3534C42.0303 51.3073 42.0062 51.2333 41.9582 51.197Z" fill="#31344E"/>
<path d="M34.1581 55.6376C33.9799 55.5379 33.736 55.6017 33.54 55.6126C33.0918 55.6406 32.633 55.6504 32.1833 55.6961C32.249 55.5526 32.3128 55.4069 32.3849 55.266C32.5235 54.993 32.676 54.7276 32.8142 54.4561C32.8384 54.4074 32.7686 54.3707 32.7368 54.4074C32.4805 54.7004 32.1489 54.993 31.8986 55.3234C31.817 54.9794 31.7185 54.6385 31.6316 54.2986C31.5754 54.0739 31.5618 53.7768 31.3847 53.6121C31.3307 53.5627 31.2521 53.5974 31.2212 53.6526C31.1211 53.8315 31.1845 54.0762 31.1959 54.2722C31.2185 54.6298 31.2291 54.993 31.2548 55.3536C30.9485 55.1044 30.5777 54.9024 30.2802 54.686C30.2379 54.6573 30.1794 54.7083 30.2137 54.7498C30.3901 54.9605 30.5751 55.1652 30.7552 55.3736C30.8919 55.5334 31.0173 55.704 31.1453 55.8702C30.5022 56.0087 29.8796 56.1915 29.2384 56.3943C29.1161 56.4335 29.1795 56.5993 29.2913 56.5986C29.8142 56.5963 30.3225 56.5834 30.8319 56.5483C30.5895 56.8519 30.3939 57.2091 30.1794 57.5014C30.1499 57.5418 30.2013 57.6007 30.2421 57.566C30.4562 57.3911 30.6593 57.2069 30.8681 57.0283C31.0513 56.8719 31.2476 56.7322 31.4349 56.5819C31.5765 57.2552 31.766 57.9039 31.9767 58.5722C32.0153 58.6953 32.181 58.6312 32.181 58.5201C32.1776 57.8492 32.1633 57.2016 32.0983 56.5468C32.2664 56.6238 32.4374 56.6967 32.6035 56.7802C32.8762 56.9169 33.142 57.0683 33.4165 57.2065C33.4645 57.2299 33.5018 57.1619 33.463 57.1287C33.1722 56.8768 32.8807 56.5487 32.5522 56.301C32.8739 56.2228 33.1937 56.1303 33.5132 56.0484C33.7375 55.9936 34.0343 55.9789 34.1978 55.803C34.2495 55.7474 34.2136 55.6685 34.1581 55.6376Z" fill="#31344E"/>
<path d="M29.6289 50.6021C29.6656 50.6157 29.6844 50.564 29.6561 50.5436C29.4281 50.3869 29.1921 50.1773 28.9372 50.0278C29.1619 49.9447 29.382 49.8545 29.6021 49.7703C29.7573 49.7118 29.9676 49.6767 30.07 49.5377C30.1009 49.495 30.07 49.4418 30.0284 49.4244C29.8933 49.3674 29.7241 49.4327 29.5863 49.4576C29.2687 49.5131 28.9432 49.5577 28.6268 49.6276C28.6619 49.52 28.6951 49.412 28.7333 49.3047C28.8096 49.0989 28.8983 48.8969 28.9738 48.6911C28.987 48.6553 28.9357 48.6349 28.9149 48.6654C28.7567 48.8931 28.5449 49.1299 28.3938 49.3851C28.307 49.1473 28.2088 48.9113 28.1204 48.6768C28.0608 48.522 28.0257 48.3116 27.8871 48.2082C27.8444 48.1776 27.7916 48.2097 27.7742 48.2505C27.7172 48.3864 27.7829 48.5563 27.807 48.6938C27.8531 48.9468 27.8905 49.2039 27.9373 49.4584C27.699 49.3074 27.4185 49.1941 27.1874 49.0649C27.1564 49.0468 27.1179 49.0884 27.1466 49.1144C27.2894 49.2511 27.437 49.381 27.582 49.5139C27.6941 49.6174 27.7972 49.7272 27.9037 49.8352C27.4559 49.9878 27.0265 50.169 26.5885 50.3661C26.504 50.4035 26.5617 50.5168 26.6414 50.5074C27.0133 50.462 27.3751 50.4118 27.7349 50.345C27.5884 50.5806 27.4763 50.8521 27.349 51.0779C27.3305 51.1085 27.3728 51.1462 27.3989 51.1187C27.5367 50.9763 27.6662 50.8295 27.8014 50.6837C27.9169 50.5568 28.0468 50.4417 28.1665 50.3193C28.3232 50.7887 28.512 51.2339 28.7163 51.6926C28.7548 51.7768 28.867 51.7176 28.8579 51.6386C28.8001 51.1617 28.7371 50.7014 28.637 50.2396C28.7635 50.2816 28.8904 50.3193 29.0153 50.365C29.2189 50.4413 29.4213 50.5281 29.6289 50.6021Z" fill="#31344E"/>
<path d="M37.0521 46.2973C36.932 46.0688 36.8304 45.7936 36.6869 45.5598C36.9074 45.5889 37.1276 45.6108 37.3455 45.638C37.4999 45.6573 37.6879 45.7207 37.8333 45.6516C37.8779 45.6293 37.8749 45.5727 37.8469 45.5398C37.7616 45.4337 37.5932 45.413 37.4693 45.3733C37.1831 45.28 36.8969 45.1747 36.6065 45.0935C36.682 45.0203 36.7568 44.9459 36.8357 44.8753C36.9883 44.7389 37.148 44.6113 37.3017 44.4761C37.327 44.4527 37.2937 44.4131 37.2647 44.4274C37.0343 44.5468 36.7568 44.6491 36.5193 44.7918C36.5529 44.5592 36.5752 44.3232 36.6054 44.0895C36.6254 43.9377 36.6873 43.7489 36.619 43.6039C36.5967 43.5586 36.5397 43.5624 36.5068 43.5892C36.4011 43.676 36.3803 43.8433 36.3403 43.9683C36.2663 44.196 36.1847 44.4244 36.1126 44.654C35.9823 44.4244 35.8015 44.2099 35.6686 44.0019C35.6508 43.9736 35.6013 43.9909 35.6138 44.0253C35.6704 44.2001 35.7354 44.3715 35.7969 44.5452C35.8426 44.6774 35.8793 44.8137 35.9193 44.9481C35.4847 44.8783 35.0542 44.8401 34.6064 44.8096C34.5199 44.8031 34.5199 44.9221 34.5883 44.9489C34.9134 45.0746 35.2332 45.1909 35.5575 45.294C35.3344 45.4232 35.1241 45.5972 34.9194 45.7271C34.8926 45.7445 34.9088 45.794 34.9432 45.7826C35.1188 45.7256 35.2906 45.6618 35.4639 45.6006C35.6149 45.5489 35.7716 45.51 35.9246 45.462C35.8483 45.9148 35.8079 46.3634 35.7766 46.8312C35.7701 46.9181 35.8891 46.9181 35.9151 46.849C36.0779 46.4313 36.2266 46.0247 36.3452 45.6014C36.4309 45.6901 36.5197 45.7781 36.602 45.8695C36.7398 46.0213 36.8674 46.1825 37.0037 46.3328C37.0279 46.3603 37.0675 46.3264 37.0521 46.2973Z" fill="#31344E"/>
<path d="M39.4282 57.223C39.1635 57.137 38.8992 57.0392 38.6299 56.9648C38.7002 56.8957 38.7693 56.8269 38.8433 56.7624C38.9837 56.6351 39.1318 56.5181 39.273 56.3919C39.2968 56.37 39.2673 56.3342 39.2386 56.3474C39.0264 56.4577 38.7689 56.5517 38.5503 56.6846C38.5808 56.469 38.6012 56.2504 38.6288 56.0351C38.6465 55.8932 38.7066 55.7187 38.6409 55.5839C38.6212 55.5431 38.5688 55.5458 38.537 55.5707C38.4408 55.6496 38.4211 55.8052 38.3853 55.9211C38.3169 56.1322 38.2403 56.344 38.1734 56.5555C38.0518 56.3444 37.8853 56.1446 37.763 55.9524C37.7467 55.9268 37.6999 55.9434 37.7109 55.9747C37.7645 56.1356 37.8245 56.2957 37.8804 56.4558C37.9253 56.5785 37.9582 56.705 37.9948 56.8281C37.5931 56.7635 37.1932 56.7284 36.7797 56.7004C36.6989 56.6944 36.6989 56.8039 36.7627 56.8288C37.0637 56.9455 37.3593 57.0527 37.6603 57.1483C37.4526 57.2691 37.2585 57.4292 37.0697 57.5493C37.0425 57.5651 37.0591 57.6108 37.0909 57.5999C37.2521 57.5485 37.4118 57.4885 37.573 57.4322C37.7143 57.3835 37.8577 57.3476 38.0001 57.3038C37.9287 57.7245 37.8921 58.1391 37.8623 58.5711C37.8566 58.6515 37.9665 58.6515 37.9922 58.5877C38.1406 58.2003 38.2788 57.8257 38.3905 57.433C38.4698 57.5157 38.5506 57.5961 38.6273 57.6814C38.7538 57.8227 38.8731 57.9703 38.9992 58.1096C39.0204 58.1353 39.0581 58.1047 39.0438 58.0764C38.9328 57.8661 38.8391 57.6108 38.7073 57.3945C38.9105 57.4217 39.1148 57.4409 39.3156 57.4666C39.4576 57.4855 39.6324 57.5444 39.7661 57.4798C39.8077 57.4605 39.8039 57.4069 39.7805 57.3763C39.7 57.2786 39.5445 57.2593 39.4282 57.223Z" fill="#31344E"/>
<path d="M44.077 1.99539C43.6156 1.90892 43.1069 1.91006 42.587 1.96028C42.9 1.56003 43.2191 1.16619 43.5506 0.78029C43.622 0.697219 43.5128 0.587341 43.4298 0.660217C42.9778 1.05669 42.5405 1.4694 42.1105 1.88853C42.087 1.27985 42.078 0.669275 42.1188 0.0654987C42.1241 -0.0134188 42.0066 -0.0232325 41.9847 0.0481331C41.7876 0.690424 41.6668 1.31233 41.6154 1.96406C41.3149 1.67595 41.0173 1.39426 40.7368 1.11823C40.6699 1.05253 40.5419 1.14316 40.6027 1.22208C40.8342 1.52076 41.057 1.8436 41.2794 2.17249C40.7315 2.29483 40.2017 2.44474 39.7327 2.58558C39.6225 2.61881 39.6429 2.78608 39.7599 2.78683C40.281 2.78759 40.7915 2.7453 41.3043 2.6947C40.8878 3.13762 40.4709 3.64323 40.2519 4.15978C40.1885 4.30931 40.3369 4.54153 40.5087 4.41692C40.8969 4.13297 41.2499 3.72138 41.5599 3.31736C41.5486 3.85656 41.5663 4.40257 41.7219 4.89836C41.7823 5.09131 42.058 5.09508 42.1165 4.89836C42.2498 4.44864 42.2377 3.98155 42.2037 3.51484C42.6636 4.1492 43.1598 4.74354 43.7534 5.19552C43.9671 5.35788 44.2235 5.05204 44.1038 4.84474C43.6367 4.04348 42.9695 3.30527 42.2706 2.60634C42.8747 2.56556 43.4875 2.58444 44.077 2.45644C44.302 2.40773 44.3092 2.03957 44.077 1.99539Z" fill="#31344E"/>
<path d="M52.4152 9.27463C52.317 9.1791 52.2158 9.08659 52.1165 8.99219C52.1059 8.92687 52.0972 8.86154 52.0874 8.79622C52.8724 8.91591 53.662 8.97671 54.3571 8.82114C54.6041 8.76563 54.5996 8.38539 54.3571 8.32724C53.7062 8.17167 53.0231 8.2506 52.3574 8.24531C52.3551 8.24531 52.3529 8.24531 52.3506 8.24531C52.6058 7.8477 52.8962 7.47841 53.2731 7.16538C53.3931 7.06532 53.2372 6.86935 53.1077 6.95091C52.667 7.22995 52.3045 7.57243 51.9756 7.96097C51.9043 7.33794 51.8544 6.71264 51.825 6.08659C51.8155 5.88986 51.524 5.88835 51.518 6.08659C51.4976 6.74247 51.4629 7.47992 51.4685 8.22378C51.4153 8.22341 51.3617 8.22264 51.3084 8.22113C51.1064 8.02894 50.9033 7.83864 50.7084 7.63813C50.5993 7.52561 50.4437 7.69024 50.54 7.80692C50.6514 7.94285 50.7688 8.07274 50.8836 8.20528C50.6227 8.19622 50.3622 8.18564 50.1009 8.17544C49.9495 8.16902 49.9113 8.42013 50.0646 8.44317C50.4449 8.49943 50.8538 8.5791 51.2729 8.65651C51.3058 8.69313 51.3386 8.72938 51.3707 8.76525C51.245 8.94801 51.1208 9.13039 50.9935 9.31126C50.7628 9.64053 50.4694 9.93693 50.4101 10.347C50.3879 10.5014 50.5049 10.6774 50.6831 10.6196C51.1041 10.4829 51.3552 10.1069 51.5595 9.71151C51.6283 10.2624 51.7396 10.7926 51.9318 11.2638C52.0417 11.5334 52.4699 11.5221 52.4676 11.1917C52.4646 10.7269 52.3687 10.2654 52.2713 9.80515C52.6209 10.2654 52.9517 10.7688 53.409 11.0916C53.5487 11.1902 53.7254 11.0286 53.6846 10.8802C53.506 10.2258 52.8856 9.73265 52.4152 9.27463Z" fill="#31344E"/>
<path d="M20.4558 7.7918C19.8448 7.8054 19.2407 7.95342 18.6271 8.0312C18.9042 7.60112 19.1788 7.1699 19.4612 6.74473C19.5469 6.61559 19.3498 6.4638 19.2471 6.57896C18.8548 7.01886 18.4704 7.46519 18.0826 7.90924C18.0422 7.24693 18.0214 6.58577 18.1173 5.93064C18.1453 5.73995 17.8802 5.65536 17.8213 5.84945C17.6518 6.41282 17.5188 7.01811 17.4309 7.63775C17.1069 7.38325 16.7723 7.14234 16.4106 6.93579C16.2365 6.83649 16.0949 7.08948 16.2558 7.20163C16.633 7.46217 16.9744 7.76348 17.3025 8.07953C16.6727 8.06405 16.0428 8.01534 15.4168 7.9621C15.2446 7.94775 15.2064 8.23246 15.3764 8.26342C16.0281 8.385 16.6817 8.48168 17.3384 8.5621C17.335 8.61912 17.3327 8.67614 17.33 8.73278C16.8762 9.1806 16.3536 9.64845 16.1357 10.2028C16.0609 10.3934 16.286 10.6038 16.4714 10.5377C16.8056 10.4206 17.0903 10.1714 17.3402 9.87991C17.3648 10.2435 17.4067 10.6022 17.4769 10.9455C17.5366 11.237 18.0131 11.2415 18.069 10.9455C18.1944 10.2794 18.1849 9.60276 18.1464 8.92157C18.1608 8.93592 18.1747 8.9499 18.1891 8.96424C18.6463 9.42114 19.2063 10.0113 19.8558 10.1616C20.1144 10.2216 20.3799 9.87161 20.1379 9.67715C19.6968 9.32409 19.2154 9.03032 18.754 8.70068C19.4008 8.73618 20.1031 8.70974 20.62 8.3952C20.8885 8.23208 20.7858 7.78425 20.4558 7.7918Z" fill="#31344E"/>
<path d="M30.359 6.31812C29.7609 6.31812 29.2617 6.81692 29.2617 7.41541C29.2617 8.0139 29.7609 8.51271 30.359 8.51271C30.9571 8.51271 31.4563 8.0139 31.4563 7.41541C31.4563 6.81692 30.9571 6.31812 30.359 6.31812Z" fill="#31344E"/>
<path d="M33.3277 3.89746C32.9187 3.89746 32.5781 4.23842 32.5781 4.64698C32.5781 5.05554 32.9187 5.39727 33.3277 5.39727C33.7362 5.39727 34.0772 5.05554 34.0772 4.64698C34.0776 4.23842 33.7362 3.89746 33.3277 3.89746Z" fill="#31344E"/>
<path d="M55.4081 15.8923C54.9467 15.8923 54.5615 16.2775 54.5615 16.7389C54.5615 17.2 54.9463 17.5851 55.4081 17.5851C55.8695 17.5851 56.2547 17.2 56.2547 16.7389C56.2547 16.2771 55.8695 15.8923 55.4081 15.8923Z" fill="#31344E"/>
<path d="M9.34781 18.1416C8.60281 18.1416 8.60281 19.297 9.34781 19.297C10.0924 19.297 10.0924 18.1416 9.34781 18.1416Z" fill="#31344E"/>
<path d="M7.36737 20.9517C6.61973 20.9517 6.61973 22.1113 7.36737 22.1113C8.11501 22.1113 8.11501 20.9517 7.36737 20.9517Z" fill="#31344E"/>
<path d="M10.966 19.8391C10.2184 19.8391 10.2184 20.998 10.966 20.998C11.7136 20.998 11.7136 19.8391 10.966 19.8391Z" fill="#31344E"/>
<path d="M23.9894 5.89697C23.6598 5.89697 23.6598 6.40824 23.9894 6.40824C24.3191 6.40824 24.3191 5.89697 23.9894 5.89697Z" fill="#31344E"/>
<path d="M27.2168 3.46124C27.2225 3.46049 27.2278 3.45973 27.2334 3.45935C27.6133 3.40007 27.6133 2.75325 27.2334 2.69473C27.2278 2.69397 27.2225 2.69321 27.2168 2.69246C27.0446 2.66527 26.8547 2.70417 26.7664 2.8756C26.6995 3.00473 26.6874 3.12556 26.7554 3.2581C26.7588 3.26414 26.7626 3.27169 26.7664 3.2781C26.8547 3.44953 27.045 3.48843 27.2168 3.46124Z" fill="#31344E"/>
<path d="M27.2614 8.80225C26.9254 8.80225 26.7872 9.14284 26.9087 9.41773C26.9182 9.43925 26.9276 9.46078 26.9374 9.48306C27.0466 9.72812 27.4766 9.72812 27.5854 9.48306C27.5952 9.46078 27.6046 9.43925 27.6145 9.41773C27.7357 9.14284 27.5975 8.80225 27.2614 8.80225Z" fill="#31344E"/>
<path d="M55.7078 14.0052C55.7078 13.6242 55.3899 13.3066 55.0089 13.3066C54.6275 13.3066 54.3096 13.6242 54.3096 14.0052C54.3096 14.3869 54.6279 14.7045 55.0089 14.7045C55.3895 14.7049 55.7078 14.3869 55.7078 14.0052Z" fill="#31344E"/>
<path d="M56.2522 12.0312C55.9003 12.0312 55.9003 12.5776 56.2522 12.5776C56.6038 12.5776 56.6038 12.0312 56.2522 12.0312Z" fill="#31344E"/>
<path d="M47.303 3.6958C46.7506 3.6958 46.7506 4.55219 47.303 4.55219C47.855 4.55219 47.855 3.6958 47.303 3.6958Z" fill="#31344E"/>
<path d="M55.4077 26.4168C55.4077 29.1759 45.1427 31.4131 32.4812 31.4131C19.8193 31.4131 9.55469 29.1759 9.55469 26.4168C9.55469 23.6577 19.8196 21.4204 32.4812 21.4204C45.1427 21.4208 55.4077 23.6581 55.4077 26.4168Z" fill="white" stroke="#31344E" stroke-width="1.9666" stroke-miterlimit="10" stroke-linecap="round" stroke-linejoin="round"/>
<path d="M51.7097 25.8299C51.7097 27.4574 43.102 28.7763 32.4833 28.7763C21.8645 28.7763 13.2568 27.4574 13.2568 25.8299C13.2568 24.2025 21.8645 22.8828 32.4833 22.8828C43.102 22.8828 51.7097 24.2025 51.7097 25.8299Z" fill="white" stroke="#31344E" stroke-width="1.9666" stroke-miterlimit="10" stroke-linecap="round" stroke-linejoin="round"/>
<path d="M14.2988 26.5804C13.4341 26.0801 13.0678 24.6502 13.172 23.6643C13.3329 22.3506 15.0215 21.8469 16.2004 21.8809C13.766 21.4229 11.0163 16.5874 12.924 14.5064C15.2752 11.8897 17.7085 14.7039 19.3242 16.3627C18.7355 13.9563 20.4449 11.8145 22.7909 11.4241C24.8122 11.1077 26.1009 12.7744 26.6069 14.528C27.6445 11.75 31.9994 13.0078 32.0103 15.8216C32.5756 14.9554 32.6802 13.9714 33.1151 13.1082C33.6721 11.9146 34.5595 10.843 35.5846 10.0297C37.766 8.3992 40.7668 7.99026 43.399 8.5087C48.2685 9.424 51.6298 15.0943 49.6006 19.928C52.0882 17.5042 56.3033 20.8595 54.5513 23.8531C53.4868 25.6493 51.4221 26.7519 49.396 26.8727L30.3613 28.7762L14.2988 26.5804Z" fill="white"/>
<path d="M14.4871 26.2599C14.031 25.9838 13.7904 25.4575 13.656 24.9609C13.5265 24.4833 13.4223 23.8546 13.6269 23.383C14.0211 22.4752 15.3261 22.2332 16.2014 22.2524C16.6115 22.2615 16.7172 21.6056 16.2999 21.5229C15.4447 21.3534 14.7337 20.7145 14.1797 20.0522C13.5314 19.2766 13.0349 18.3375 12.7917 17.355C12.5893 16.5375 12.5568 15.5701 13.0945 14.8765C13.4502 14.4173 13.9653 14.0095 14.5373 13.8656C15.0357 13.7403 15.5568 13.843 16.0175 14.0544C17.2315 14.6114 18.149 15.686 19.0624 16.6251C19.329 16.8993 19.7659 16.6153 19.6832 16.2638C19.346 14.8357 19.9154 13.3548 21.1154 12.5071C21.7173 12.0819 22.4608 11.7772 23.2043 11.7575C23.9047 11.739 24.5493 12.0207 25.05 12.5044C25.6439 13.078 26.0196 13.8422 26.25 14.6265C26.3599 14.9999 26.8394 14.9565 26.9659 14.6265C27.661 12.8174 30.1354 13.0893 31.1723 14.4539C31.4699 14.8455 31.633 15.3235 31.6398 15.8216C31.6447 16.1969 32.1356 16.3174 32.3315 16.0089C32.9312 15.0668 33.0886 13.9302 33.6097 12.9481C34.1093 12.0067 34.7987 11.1779 35.6094 10.4884C37.1765 9.15513 39.3775 8.64009 41.3942 8.66992C43.1988 8.69673 44.9315 9.15437 46.3985 10.2283C47.7401 11.21 48.783 12.6317 49.3438 14.1941C50.003 16.03 49.9928 18.0222 49.2433 19.8294C49.0926 20.1926 49.619 20.4249 49.8637 20.1908C50.6933 19.3967 51.8695 19.2687 52.8814 19.7924C53.8168 20.2765 54.5689 21.2291 54.5942 22.3121C54.6267 23.7122 53.4146 24.905 52.3018 25.5798C51.3809 26.1383 50.381 26.4083 49.3169 26.5094C48.2982 26.6065 47.2806 26.713 46.2622 26.8149C44.3534 27.006 42.4447 27.1967 40.5359 27.3877C38.5494 27.5863 36.5629 27.785 34.576 27.9836C33.2978 28.1116 32.0193 28.2392 30.7407 28.3672C30.6331 28.3782 30.5164 28.3778 30.4103 28.4001C30.2819 28.4273 30.5402 28.4295 30.4118 28.4118C30.0569 28.3627 29.702 28.3147 29.347 28.266C27.6814 28.0383 26.0155 27.8106 24.3499 27.5829C22.3385 27.3081 20.3266 27.0328 18.3152 26.7579C17.0702 26.5876 15.8257 26.4177 14.5807 26.2474C14.5196 26.2391 14.4588 26.2308 14.3976 26.2225C14.1994 26.1953 13.9989 26.2704 13.9407 26.4819C13.8931 26.6552 14 26.9112 14.2001 26.9388C15.132 27.066 16.0639 27.1936 16.9958 27.3209C18.9745 27.5913 20.9527 27.862 22.9313 28.1324C24.7902 28.3865 26.6491 28.6406 28.508 28.8947C29.0102 28.9634 29.5124 29.0322 30.0146 29.1009C30.1766 29.1232 30.3291 29.1515 30.4919 29.1352C31.6092 29.0235 32.7265 28.9117 33.8438 28.7999C35.8322 28.6009 37.8203 28.4023 39.8087 28.2033C41.8066 28.0036 43.804 27.8038 45.8019 27.6041C46.9475 27.4897 48.0932 27.3749 49.2388 27.2605C50.1726 27.1672 51.0505 27.0037 51.9148 26.6197C53.3051 26.002 54.7177 24.8163 55.192 23.3225C55.9796 20.8398 53.4376 18.3213 50.9704 18.7872C50.3497 18.9043 49.7912 19.2328 49.3385 19.6659C49.5454 19.7864 49.7523 19.9068 49.9589 20.0272C51.3937 16.5681 50.1696 12.4693 47.3761 10.0655C46.6738 9.46136 45.8903 8.97124 45.035 8.61442C44.1393 8.24097 43.184 8.05633 42.2204 7.97099C40.0496 7.77879 37.7481 8.1949 35.8908 9.37074C34.8172 10.0504 33.9091 11.0246 33.2404 12.1011C32.9077 12.6366 32.6381 13.209 32.4361 13.806C32.2232 14.4351 32.0498 15.069 31.69 15.6351C31.9207 15.6974 32.1514 15.76 32.3818 15.8223C32.3663 14.6401 31.6617 13.6047 30.6312 13.0523C29.6767 12.5407 28.4702 12.4179 27.4934 12.9405C26.8949 13.2607 26.489 13.806 26.2492 14.4301C26.4879 14.4301 26.7265 14.4301 26.9651 14.4301C26.4867 12.8023 25.3509 11.1866 23.5305 11.0257C21.8151 10.8739 20.0113 12.0377 19.2724 13.5549C18.8287 14.4656 18.7343 15.4787 18.9665 16.4624C19.1734 16.3419 19.3804 16.2215 19.5873 16.101C18.6739 15.1619 17.762 14.1315 16.5877 13.5118C16.0318 13.2184 15.3979 13.0172 14.7627 13.0802C14.0434 13.1516 13.4162 13.5039 12.8993 13.9989C12.0576 14.8051 11.8084 15.8658 11.9685 16.9986C12.129 18.1325 12.6418 19.229 13.3173 20.1466C13.9951 21.0675 14.9368 22.0085 16.1025 22.2396C16.1353 21.9964 16.1682 21.7532 16.201 21.5104C15.22 21.4889 14.0906 21.7502 13.3773 22.4658C12.6044 23.2413 12.6848 24.4704 13.025 25.4337C13.2323 26.0201 13.5688 26.5729 14.1118 26.9014C14.5222 27.1487 14.896 26.5072 14.4871 26.2599Z" fill="#31344E"/>
<path d="M31.7677 16.1133C29.6959 16.9252 29.1068 18.8294 29.478 20.7404C28.6824 20.2253 27.7384 19.9731 26.7449 20.205C25.8568 20.4111 25.25 20.7404 24.5726 21.334C24.1641 21.6919 23.8254 22.1651 23.4731 22.5759C23.3485 22.7111 23.2235 22.8466 23.0989 22.9822C21.0376 24.499 20.0638 23.848 20.1786 21.03C20.2375 20.9484 20.1079 20.8665 20.0415 20.9303C18.9434 21.9899 18.7278 24.343 20.7955 24.5885C24.3431 25.0084 26.6298 18.1327 29.9923 22.3055C30.3298 22.7254 30.928 22.3569 30.6991 21.8668C29.7366 19.8055 30.0512 17.8476 31.9494 16.514C32.1457 16.3769 32.0132 16.017 31.7677 16.1133Z" fill="#31344E"/>
<path d="M21.9151 19.0199C22.016 19.1026 22.1224 19.1788 22.2357 19.2476C24.4673 20.5903 27.1328 17.7119 26.5033 15.506C26.4202 15.2145 25.9377 15.2828 25.9698 15.5928C26.1291 17.1417 23.9885 19.0422 22.5382 17.9196C21.4764 17.0972 21.0637 15.5747 21.5976 14.332C21.6474 14.2169 21.4926 14.0753 21.4069 14.1923C20.4618 15.4697 20.5203 17.4842 21.5693 18.6812C20.7106 20.0518 18.6252 20.1678 17.1839 19.8476C16.1342 19.6157 15.4201 18.9666 15.3227 17.872C15.254 17.0998 15.8147 16.0686 16.7466 16.5043C17.4002 16.8098 17.6657 17.8372 16.9101 18.2526C16.8221 18.3006 16.8893 18.4286 16.9803 18.4059C18.1656 18.1091 18.1343 16.3895 17.1023 15.8564C15.4888 15.0241 14.1903 16.7668 14.5286 18.3024C15.214 21.407 20.3874 21.5112 21.9151 19.0199Z" fill="#31344E"/>
<path d="M47.5379 13.9225C46.4564 13.3916 45.1813 13.8334 44.2422 14.4383C42.0227 15.8702 41.8139 18.7478 43.1389 20.8582C44.5598 23.1215 48.0827 22.2693 49.188 20.1419C49.3511 19.8281 48.8934 19.5823 48.7092 19.8795C47.7029 21.5039 45.0072 22.0831 43.7914 20.4527C42.7254 19.0235 42.8708 16.9829 43.987 15.6674C45.2685 14.1578 47.744 13.898 48.5574 16.0254C49.3103 17.9945 46.0177 18.8622 44.7455 18.5209C44.6349 18.4911 44.5647 18.6625 44.6715 18.7097C46.5304 19.5483 49.1139 18.695 49.3265 16.4649C49.4315 15.3683 48.4305 14.3613 47.5379 13.9225Z" fill="#31344E"/>
<path d="M38.2621 10.955C35.1163 12.1199 33.1551 15.6017 34.0073 18.9136C34.0828 19.2059 34.4974 19.1085 34.508 18.8321C34.6258 15.6705 35.2016 12.6504 38.3602 11.1706C38.4826 11.1132 38.3882 10.9086 38.2621 10.955Z" fill="#31344E"/>
<path d="M36.5866 14.4606C35.3118 15.2675 34.5302 17.1113 35.316 18.4896C35.4697 18.7584 35.9096 18.5579 35.8088 18.2657C35.3681 16.9826 35.6252 15.4794 36.6719 14.5656C36.7316 14.5142 36.6504 14.4206 36.5866 14.4606Z" fill="#31344E"/>
<path d="M50.8992 20.8439C50.7863 20.7517 50.5896 20.8846 50.6896 21.0145C51.2847 21.786 51.0997 22.7201 50.7938 23.5682C50.7308 23.743 50.9781 23.9284 51.1261 23.8099C52.0977 23.0237 51.7782 21.5609 50.8992 20.8439Z" fill="#31344E"/>
<path d="M52.351 21.797C52.243 21.6471 51.9727 21.7456 52.0429 21.9367C52.3046 22.6439 52.0474 23.2877 51.566 23.8307C51.3572 24.0652 51.6827 24.3556 51.913 24.1585C52.2173 23.8983 52.6218 23.5215 52.7037 23.1046C52.7977 22.6247 52.6289 22.1825 52.351 21.797Z" fill="#31344E"/>
<path d="M15.0163 23.4587C15.076 23.2948 14.803 23.1902 14.7327 23.348C14.4628 23.9567 14.0074 25.216 14.8404 25.5992C14.9842 25.6657 15.173 25.5105 15.0673 25.3595C14.6349 24.7474 14.7724 24.1281 15.0163 23.4587Z" fill="#31344E"/>
<path d="M15.7285 23.6143C15.4321 24.1981 15.2184 24.8846 15.5828 25.4793C15.69 25.6549 16.0261 25.5831 15.9925 25.3554C15.9113 24.8026 15.9347 24.3001 16.1386 23.7737C16.23 23.5381 15.8403 23.3949 15.7285 23.6143Z" fill="#31344E"/>
<path d="M37.5337 26.7366C34.033 28.0313 30.3069 28.9221 26.8477 27.1459C25.0628 26.203 23.3104 24.9638 21.237 24.7636C19.4974 24.5971 17.7246 24.8758 16.0651 25.3731C15.578 25.5298 14.1744 25.8447 13.417 26.2C13.4921 27.855 22.8841 29.0478 33.7022 28.9334C41.0582 28.8549 47.4592 28.1677 50.8175 27.2154C49.9585 26.4749 48.9805 25.8511 48.2468 25.4388C44.4882 23.3344 41.1442 25.4407 37.5337 26.7366Z" fill="#31344E" stroke="#31344E" stroke-width="0.9833" stroke-miterlimit="10" stroke-linecap="round" stroke-linejoin="round"/>
<path d="M46.279 26.6842C46.296 28.2746 40.0558 28.3411 40.0392 26.751C40.0222 25.1594 41.4054 23.8556 43.1283 23.8371C44.8521 23.819 46.2624 25.093 46.279 26.6842Z" fill="white" stroke="#31344E" stroke-width="1.9666" stroke-miterlimit="10" stroke-linecap="round" stroke-linejoin="round"/>
<path d="M38.9576 27.6048C38.9678 28.5646 35.2017 28.6039 35.1915 27.6444C35.1817 26.6842 36.0162 25.8973 37.0561 25.8864C38.0963 25.875 38.9474 26.6446 38.9576 27.6048Z" fill="white" stroke="#31344E" stroke-width="1.9666" stroke-miterlimit="10" stroke-linecap="round" stroke-linejoin="round"/>
<path d="M23.7391 26.2774C23.7493 27.238 19.9839 27.278 19.9737 26.3178C19.9635 25.3575 20.798 24.571 21.8379 24.5597C22.8782 24.5487 23.7289 25.3171 23.7391 26.2774Z" fill="white" stroke="#31344E" stroke-width="1.9666" stroke-miterlimit="10" stroke-linecap="round" stroke-linejoin="round"/>
<path d="M19.1054 26.0266C19.1126 26.7248 16.3758 26.7539 16.3682 26.0561C16.3611 25.3579 16.9675 24.7862 17.723 24.7779C18.4794 24.7696 19.0979 25.3288 19.1054 26.0266Z" fill="white" stroke="#31344E" stroke-width="1.9666" stroke-miterlimit="10" stroke-linecap="round" stroke-linejoin="round"/>
<path d="M14.3609 33.7946C17.3847 35.4734 20.9216 35.8148 24.3098 36.0964C28.537 36.4487 32.8125 36.4997 37.0446 36.2214C37.1987 36.2116 37.1983 35.993 37.0446 35.9824C29.6739 35.4772 21.5752 35.7683 14.4659 33.5447C14.3171 33.4993 14.2257 33.7199 14.3609 33.7946Z" fill="#31344E"/>
</svg>
