<svg width="64" height="60" viewBox="0 0 64 60" fill="none" xmlns="http://www.w3.org/2000/svg">
<path d="M37.5209 14.4897C37.0052 14.7043 36.6611 15.1778 36.6611 15.7372V30.8644C36.6611 31.6391 37.2634 32.1978 37.9937 32.1978C38.1224 32.1978 38.2512 32.1978 38.3822 32.1541C44.3983 30.6936 50.373 30.5211 56.3477 32.1541C57.0351 32.3694 57.7661 31.9403 57.9807 31.2522C57.9807 31.1234 58.0236 30.9932 58.0236 30.8637V15.738C58.0236 15.1365 57.5952 14.62 57.078 14.4476C50.5876 12.2552 44.0542 12.1694 37.5209 14.4897ZM55.3584 16.6836V29.1901C49.986 27.987 44.6558 28.1165 39.3255 29.233V16.6836C44.6558 14.9633 49.986 15.0077 55.3584 16.6836Z" fill="#FFFDFA"/>
<path d="M23.6373 28.2843C23.2511 27.941 22.6924 27.9847 22.3062 28.2843L19.7277 30.5204L17.1476 28.2843C16.7606 27.9847 16.2028 27.941 15.8166 28.2843L13.2373 30.5204L10.6572 28.2843C10.2702 27.941 9.71236 27.9847 9.36677 28.2843L6.10087 31.0774C5.67175 31.4644 5.62807 32.0667 6.01505 32.4974C6.36141 32.9265 7.00432 32.9702 7.39052 32.5832L10.0135 30.3487L12.5921 32.5832V32.6269H12.635L12.6779 32.6698H12.72L12.7637 32.7127H12.8066V32.7556C12.8924 32.7978 13.0204 32.7977 13.107 32.8422H13.1514C13.1936 32.8422 13.2373 32.8422 13.2373 32.8422H13.3223H13.3652C13.4518 32.7977 13.5806 32.7978 13.6664 32.7556L13.7085 32.7127L13.7514 32.6698H13.7944L13.838 32.6269H13.8802V32.5832L16.4595 30.3487L19.0832 32.5832V32.6269H19.1254L19.1675 32.6698L19.2112 32.7127H19.2541L19.297 32.7556C19.3829 32.7978 19.5116 32.7977 19.5974 32.8422H19.6411H19.7269H19.8127H19.8549C19.9415 32.7977 20.0702 32.7978 20.156 32.7556V32.7127H20.199H20.2419L20.2855 32.6698L20.3292 32.6269H20.3721V32.5832L22.9514 30.3487L25.5737 32.5832C25.9606 32.9702 26.6051 32.9265 26.9476 32.4974C27.3361 32.0667 27.2924 31.4652 26.8626 31.0774L23.6373 28.2843Z" fill="#FFFDFA"/>
<path d="M63.3962 5.80529C58.1096 2.02292 52.7364 0.0014618 47.3218 0.0014618C42.2069 -0.0399175 37.092 1.67886 32.0215 5.28958C26.9057 1.67962 21.79 -0.0399175 16.6766 0.0014618C11.2605 0.0014618 5.88812 2.02292 0.600767 5.80529C0.21456 6.06276 0 6.4505 0 6.9233V58.5432C0 58.7578 0.0429119 58.9723 0.171647 59.1877C0.515709 59.8329 1.33103 60.0482 1.97625 59.6612C11.7333 54.1164 21.5333 54.7187 31.3326 59.6612V59.7041H31.3762H31.4176V59.7486H31.4613H31.5042H31.5479V59.7915H31.59H31.6329H31.6766V59.8336H31.718H31.7609H31.8046H31.849H31.892H31.9356H31.977H32.0215H32.0644H32.1073H32.1502H32.1923H32.236H32.2797H32.3218V59.7915H32.3655H32.4084H32.4513L32.4943 59.7486H32.5372H32.5808V59.7041H32.623L32.6667 59.6612C37.6092 57.167 42.4667 55.7923 47.3663 55.7064C52.223 55.6628 57.1234 56.8674 62.0238 59.6612C62.669 60.0482 63.4843 59.8329 63.8276 59.1877C63.9571 58.9731 64 58.7586 64 58.5432V6.9233C63.9977 6.4505 63.7824 6.06276 63.3962 5.80529ZM30.6881 56.4375C21.3609 52.1823 11.99 51.708 2.6636 56.308V7.60912C7.34789 4.34399 12.0337 2.66736 16.6759 2.62522C21.318 2.58154 25.9602 4.21449 30.6881 7.56698V56.4375ZM61.3341 56.3087C56.6912 54.0298 52.0054 52.9992 47.3211 53.0858C42.6353 53.1279 37.9931 54.3302 33.308 56.4375V7.56621C38.036 4.21372 42.6789 2.58077 47.3211 2.62445C51.9632 2.6666 56.6475 4.34399 61.3341 7.60836V56.3087Z" fill="#FFFDFA"/>
<path d="M15.8166 15.0896L13.2373 17.3241L10.6572 15.0896C10.2702 14.7455 9.71236 14.7455 9.36677 15.0896L6.10087 17.8842C5.67175 18.2275 5.62807 18.8704 6.01505 19.3018C6.36141 19.6888 7.00432 19.7317 7.39052 19.3877L10.0135 17.1524L12.5921 19.3877L12.635 19.4314L12.6779 19.4743H12.72L12.7637 19.5172H12.8066C12.8924 19.5601 13.0204 19.6022 13.107 19.6022L13.1514 19.6459C13.1936 19.6459 13.2373 19.6459 13.2373 19.6459H13.3223L13.3652 19.6022C13.4518 19.6022 13.5806 19.5601 13.6664 19.5172H13.7085L13.7514 19.4743H13.7944L13.838 19.4314L13.8802 19.3877L16.4595 17.1524L19.0832 19.3877L19.1254 19.4314L19.1675 19.4743H19.2112L19.2541 19.5172H19.297C19.3829 19.6022 19.5116 19.6022 19.5974 19.6459H19.6411H19.7269H19.8127H19.8549C19.9415 19.6022 20.0702 19.6022 20.156 19.5172H20.199L20.2419 19.4743H20.2855L20.3292 19.4314L20.3721 19.3877L22.9514 17.1524L25.5737 19.3877C25.9606 19.7317 26.6051 19.6888 26.9476 19.3018C27.3361 18.8704 27.2924 18.2268 26.8626 17.8842L23.638 15.0896C23.2518 14.7455 22.6932 14.7455 22.307 15.0896L19.7285 17.3241L17.1484 15.0896C16.7606 14.7455 16.202 14.7455 15.8166 15.0896Z" fill="#FFFDFA"/>
<path d="M23.6373 41.4788C23.2511 41.1776 22.6924 41.1776 22.3062 41.4788L19.7277 43.7577L17.1476 41.4788C16.7606 41.1776 16.2028 41.1776 15.8166 41.4788L13.2373 43.7577L10.6572 41.4788C10.2702 41.1776 9.71236 41.1776 9.36677 41.4788L6.10087 44.3163C5.67175 44.6596 5.62807 45.3064 6.01505 45.6918C6.36141 46.1209 7.00432 46.1631 7.39052 45.8206L10.0135 43.5424L12.5921 45.7776V45.8213L12.635 45.8642H12.6779L12.72 45.9064H12.7645L12.8074 45.9501C12.8932 45.9922 13.0212 46.0359 13.1078 46.0359H13.1522C13.1944 46.0359 13.238 46.0359 13.238 46.0359H13.3231H13.366C13.4526 46.0359 13.5813 45.9922 13.6672 45.9501H13.7093V45.9064H13.7522L13.7951 45.8642H13.8388L13.8809 45.8213V45.7776L16.4603 43.5424L19.084 45.8206L19.1262 45.8635H19.1683L19.212 45.9056H19.2549V45.9493H19.2978C19.3836 45.9914 19.5124 46.0351 19.5982 46.0351H19.6419H19.7277H19.8135H19.8557C19.9422 46.0351 20.071 45.9914 20.1568 45.9493L20.1997 45.9056H20.2426L20.2863 45.8635H20.33L20.3729 45.8206L22.9522 43.5424L25.5744 45.7776C25.9614 46.1631 26.6059 46.1209 26.9484 45.6918C27.3369 45.2627 27.2932 44.6604 26.8633 44.3163L23.6373 41.4788Z" fill="#FFFDFA"/>
</svg>
