<svg width="83" height="80" viewBox="0 0 83 80" fill="none" xmlns="http://www.w3.org/2000/svg">
<path d="M24.8176 60.8987C24.1073 62.8947 23.3586 65.0008 25.9055 65.7795L58.7712 77.4742C61.2371 78.4802 61.9867 76.3737 62.697 74.3781L80.958 23.0628C81.6683 21.0668 82.4171 18.9607 79.8702 18.182L47.0048 6.4865C44.5385 5.48132 43.789 7.58741 43.0795 9.58299L24.8176 60.8987Z" fill="white"/>
<path d="M24.4111 60.7865C23.8868 62.2632 23.0419 64.5288 24.6785 65.65C25.2007 66.0081 25.8043 66.1899 26.3952 66.3999C28.3052 67.0795 30.2156 67.7594 32.1251 68.439C38.3612 70.6581 44.5972 72.8768 50.8337 75.096C53.0313 75.878 55.2285 76.66 57.4257 77.4421C57.8285 77.5855 58.2314 77.7289 58.6342 77.8723C60.2295 78.4401 61.4439 77.9685 62.2757 76.5044C62.8949 75.4157 63.2496 74.0807 63.6723 72.8924C64.3303 71.0436 64.9879 69.1948 65.6459 67.3465C69.9345 55.2954 74.223 43.2442 78.5116 31.1931C79.5513 28.2713 80.6278 25.3603 81.6267 22.4241C82.2286 20.6546 82.3484 18.7801 80.3848 17.9221C80.0027 17.7551 79.5855 17.634 79.1932 17.4944C77.1833 16.7795 75.1742 16.0641 73.1647 15.3491C66.9207 13.127 60.6774 10.9053 54.4334 8.68323C52.3281 7.93409 50.2229 7.18454 48.1172 6.43582C47.7844 6.31729 47.4516 6.19877 47.1188 6.08024C45.1696 5.38636 43.9485 6.36877 43.1795 8.13742C41.9276 11.0158 41.0274 14.0938 39.9767 17.0469C37.8318 23.0741 35.6869 29.1014 33.542 35.1282C30.4978 43.6817 27.4544 52.2339 24.4111 60.7865C24.228 61.3003 25.0433 61.5192 25.2243 61.0105C28.4094 52.0613 31.5941 43.1118 34.7787 34.1631C36.8836 28.2481 38.9888 22.3322 41.0941 16.4171C41.7281 14.6367 42.3616 12.8562 42.9952 11.0757C43.4883 9.69009 43.8708 7.70294 45.0789 6.86312C46.0444 6.19159 48.6268 7.51102 49.6083 7.86028C52.2079 8.78531 54.8075 9.71034 57.4072 10.6354C63.4901 12.8001 69.573 14.9648 75.6555 17.1296C77.0099 17.6117 78.3644 18.0934 79.7188 18.5755C82.1602 19.4444 80.9374 21.8661 80.2979 23.6626C78.8528 27.7237 77.4077 31.7849 75.9626 35.8461C71.809 47.5176 67.6559 59.1891 63.5023 70.861C63.1126 71.956 62.7228 73.0506 62.333 74.1456C61.9336 75.2689 61.5219 76.9401 60.213 77.2898C59.6107 77.4505 58.8164 77.0443 58.2212 76.833C53.1954 75.0445 48.1695 73.256 43.1432 71.4676C38.802 69.9225 34.4607 68.3778 30.1198 66.8331C28.9341 66.4113 27.7484 65.9895 26.5623 65.5673C26.3809 65.5032 26.2004 65.4382 26.019 65.3741C23.88 64.6127 24.6405 62.6551 25.2239 61.0113C25.4065 60.4967 24.5912 60.2774 24.4111 60.7865Z" fill="#31344E"/>
<path d="M54.7547 42.6625C60.9216 43.3429 67.0897 44.0242 73.2566 44.7054L73.416 44.2578C67.1235 43.5631 60.8301 42.868 54.5379 42.1737C60.8895 41.1634 67.2416 40.1545 73.5928 39.1446C74.1728 39.0523 74.7532 38.9599 75.3332 38.8679L75.5099 38.3711C68.4589 39.4914 61.4071 40.6121 54.3561 41.7337C60.1965 38.9595 66.0365 36.1848 71.8769 33.4106C74.0433 32.3813 76.2089 31.3521 78.3744 30.3238L78.5938 29.7071C77.0668 30.4326 75.5382 31.1581 74.0104 31.8836C67.5073 34.9738 61.0034 38.0631 54.4991 41.1537C59.4486 37.1887 64.3973 33.2241 69.3464 29.2595C73.4009 26.0107 77.4553 22.7632 81.5089 19.5149C81.4562 19.3681 81.384 19.2276 81.2912 19.0964C77.8822 21.8281 74.4727 24.5585 71.064 27.2901C65.3772 31.8461 59.6899 36.4025 54.0022 40.9593C57.7791 35.7554 61.5552 30.5515 65.3321 25.3477C67.7035 22.0791 70.0753 18.8109 72.4467 15.5423L71.9929 15.3807C70.1512 17.9179 68.3105 20.4542 66.4688 22.9923C62.166 28.9204 57.8643 34.8494 53.5614 40.7775C55.7295 34.6865 57.8972 28.5948 60.0653 22.5034C61.262 19.1395 62.4587 15.7768 63.6554 12.4137L63.2196 12.2581C62.3115 14.8108 61.4033 17.3624 60.4952 19.9152C58.0803 26.6987 55.6667 33.4823 53.2527 40.2667C53.9478 33.9627 54.6451 27.6575 55.3402 21.354C55.7629 17.5366 56.1838 13.7209 56.6048 9.90393L56.1573 9.74449C55.8261 12.7474 55.4942 15.7502 55.1622 18.7527C54.3629 25.9951 53.5635 33.2376 52.7642 40.4793C51.754 34.1281 50.7442 27.7777 49.7352 21.4269C48.9511 16.4918 48.1661 11.557 47.3819 6.62183L47.0044 6.48727C46.9639 6.47124 46.9247 6.45732 46.8846 6.44214C47.5473 10.6155 48.2116 14.7898 48.8751 18.9623C50.0246 26.1959 51.1744 33.4291 52.3243 40.6619C49.55 34.8219 46.7754 28.982 44.0007 23.1429C42.9057 20.8368 41.8102 18.5316 40.7148 16.2269L40.495 16.8436C41.1547 18.2309 41.8149 19.6199 42.4746 21.0081C45.5639 27.512 48.6541 34.0167 51.7439 40.5202C47.7789 35.5715 43.8138 30.622 39.8497 25.672C39.2735 24.9533 38.6981 24.2354 38.1215 23.5153L37.9384 24.0287C42.4754 29.6915 47.0116 35.3538 51.549 41.0162C46.3455 37.2402 41.1408 33.4641 35.9378 29.6877C35.9344 29.6851 35.9315 29.6822 35.9277 29.6801L35.7661 30.1348C40.9675 33.9091 46.168 37.6843 51.3685 41.4579C45.5597 39.391 39.7518 37.3237 33.9435 35.2568L33.7882 35.6934C39.4776 37.7181 45.1678 39.7424 50.8564 41.7666C44.6895 41.0858 38.5214 40.4046 32.3537 39.7234L32.1942 40.1718C38.4868 40.8665 44.7794 41.5608 51.0711 42.2551C44.7199 43.2649 38.3695 44.2739 32.0179 45.2837C31.4375 45.3761 30.8575 45.4684 30.2763 45.5604L30.0995 46.0573C37.1513 44.9361 44.2023 43.8158 51.2537 42.695C45.4138 45.4697 39.5738 48.2439 33.733 51.0186C31.5674 52.0474 29.4018 53.0754 27.2358 54.105L27.0165 54.7213C28.5443 53.9962 30.0713 53.2702 31.5986 52.5439C38.1025 49.4545 44.6064 46.3652 51.1099 43.2746C46.1608 47.2396 41.2117 51.2046 36.2626 55.1696C32.3005 58.3433 28.3385 61.5183 24.376 64.6928C24.4481 64.8249 24.5388 64.9493 24.6493 65.0666C27.9479 62.4239 31.2464 59.7817 34.5445 57.1391C40.2331 52.5814 45.9204 48.0246 51.6089 43.4678C47.832 48.6725 44.0551 53.8768 40.2782 59.0815C38.0072 62.2105 35.7366 65.3403 33.4656 68.4693L33.9207 68.6309C35.6602 66.2333 37.4002 63.8353 39.141 61.4373C43.4426 55.5088 47.7447 49.5807 52.0476 43.6525C49.8803 49.7435 47.7126 55.8344 45.5454 61.9258C44.4039 65.1328 43.2617 68.3411 42.1203 71.549L42.556 71.7042C43.4097 69.3066 44.2622 66.9103 45.1147 64.5127C47.5287 57.73 49.9432 50.9465 52.3563 44.1629C51.6603 50.4669 50.9648 56.7717 50.2688 63.0748C49.8664 66.723 49.4636 70.3704 49.0607 74.0186L49.5083 74.1777C49.8208 71.3435 50.1338 68.5094 50.4472 65.6757C51.2474 58.4323 52.0467 51.189 52.8469 43.9461C53.8559 50.2977 54.8657 56.6498 55.8747 63.0014C56.6301 67.7505 57.3843 72.5006 58.1398 77.2489L58.6362 77.4265C58.0027 73.4391 57.3695 69.4526 56.7356 65.4652C55.5853 58.2316 54.4354 50.9975 53.286 43.7635C56.0607 49.6051 58.8358 55.4447 61.6096 61.2855C62.7046 63.5907 63.7996 65.8958 64.8946 68.2002L65.114 67.5835C64.4547 66.1962 63.7958 64.808 63.1361 63.4198C60.0468 56.9168 56.9566 50.4129 53.8668 43.9086C57.8318 48.8581 61.7969 53.8068 65.761 58.7559C66.3364 59.4738 66.9126 60.1938 67.4883 60.9126L67.6714 60.3992C63.1336 54.7364 58.597 49.0724 54.0604 43.4092C59.2652 47.1869 64.4694 50.9629 69.6733 54.7398C69.6767 54.7424 69.6801 54.7449 69.6826 54.747L69.8446 54.2923C64.6445 50.5188 59.444 46.7453 54.2443 42.9709C60.0522 45.0378 65.8593 47.1042 71.6681 49.1711L71.8224 48.7353C66.1335 46.7111 60.4437 44.6868 54.7547 42.6625Z" fill="#31344E"/>
<path d="M59.0212 75.2221C58.9756 75.2056 58.9271 75.1875 58.8794 75.1677C58.8668 75.1622 58.8533 75.1576 58.8406 75.1529L27.3175 63.9345C27.304 63.9298 27.2909 63.9256 27.277 63.9214C27.2272 63.9066 27.1796 63.8906 27.1327 63.8741C26.0225 63.4793 25.9698 62.869 26.8354 60.4372L44.3506 11.2171C44.6535 10.368 44.966 9.48889 45.3895 8.99411C45.6346 8.70728 45.9417 8.45293 46.7524 8.74018C46.7988 8.75663 46.8465 8.77477 46.8941 8.7946C46.9076 8.8005 46.9207 8.80472 46.9338 8.80979L78.456 20.027C78.4691 20.0325 78.483 20.0363 78.4961 20.0401C78.5459 20.0561 78.5936 20.0717 78.6404 20.0881C79.7506 20.483 79.8033 21.0933 78.9378 23.525L61.4225 72.7452C61.1209 73.5943 60.8079 74.4734 60.3836 74.9686C60.1394 75.2542 59.8319 75.5098 59.0212 75.2221Z" fill="white"/>
<path d="M59.1318 74.8152C55.2326 73.3187 51.2532 72.0064 47.319 70.6064C41.4794 68.5282 35.6399 66.4499 29.8004 64.3721C29.1297 64.1333 28.459 63.8946 27.7883 63.6563C27.0632 63.3981 26.5448 63.2328 26.7136 62.2896C26.9308 61.0782 27.5032 59.8119 27.9178 58.6464C29.6397 53.8083 31.3611 48.9709 33.0825 44.1332C36.8796 33.4631 40.6763 22.7934 44.4735 12.1233C44.5667 11.8618 44.6595 11.6003 44.7527 11.3383C45.1032 10.3538 45.431 8.68301 46.7812 9.20099C46.871 9.23558 46.9626 9.26681 47.0532 9.29887C48.7434 9.90037 50.4336 10.5019 52.1238 11.1029C58.3337 13.3128 64.5432 15.5227 70.7531 17.7325C72.9342 18.5087 75.1154 19.2848 77.297 20.0609C77.645 20.1849 77.993 20.309 78.3419 20.433C79.145 20.719 79.188 21.0939 79.0049 21.9055C78.8843 22.4416 78.6903 22.9638 78.5059 23.4801C77.3232 26.8036 76.1408 30.1266 74.9585 33.45C70.7695 45.2215 66.5805 56.9925 62.3915 68.7644C62.0271 69.7894 61.6622 70.814 61.2974 71.839C60.8962 72.9665 60.5221 75.2151 59.1318 74.8152C58.6079 74.6647 58.386 75.4783 58.9078 75.6285C61.0907 76.2566 61.5779 73.5612 62.1515 71.9482C62.7378 70.3015 63.3237 68.6539 63.91 67.0071C65.9942 61.1503 68.0784 55.2935 70.1625 49.4375C72.3281 43.3512 74.4937 37.2653 76.6597 31.179C77.3476 29.245 78.036 27.3114 78.7244 25.3774C79.1543 24.1693 79.7705 22.8326 79.9241 21.5718C80.1324 19.861 78.4536 19.5788 77.1912 19.13C74.8864 18.31 72.5816 17.4896 70.2768 16.6696C64.1007 14.4715 57.925 12.2739 51.7484 10.0763C50.2151 9.53086 48.6823 8.98503 47.1494 8.43963C45.8325 7.971 45.1454 8.36877 44.5329 9.59581C44.2271 10.2079 44.0259 10.8709 43.7965 11.5159C42.4146 15.3991 41.0328 19.2823 39.6509 23.165C35.5534 34.6796 31.456 46.1942 27.3585 57.7083C27.0489 58.5789 26.7384 59.45 26.4288 60.3202C26.0163 61.4789 25.2077 63.3234 26.617 64.1114C26.9759 64.3118 27.4441 64.4265 27.8343 64.5653C32.9441 66.3841 38.0543 68.2021 43.1642 70.021C48.4073 71.887 53.7111 73.6346 58.9074 75.6285C59.4165 75.8238 59.6342 75.008 59.1318 74.8152Z" fill="#31344E"/>
<path d="M64.4832 46.3703C62.1886 52.821 55.0979 56.1888 48.648 53.8941C42.1969 51.5986 38.8287 44.5088 41.1242 38.0581C43.4197 31.6078 50.5091 28.2396 56.9602 30.5351C63.411 32.8293 66.7787 39.92 64.4832 46.3703Z" fill="#31344E" stroke="#31344E" stroke-width="2" stroke-miterlimit="10" stroke-linecap="round" stroke-linejoin="round"/>
<path d="M63.4341 45.9969C61.3453 51.8685 54.892 54.935 49.0196 52.845C43.148 50.7562 40.0818 44.302 42.1723 38.4304C44.2611 32.5588 50.7148 29.4931 56.5868 31.5824C62.4584 33.6712 65.5241 40.1253 63.4341 45.9969Z" fill="white" stroke="#31344E" stroke-width="2" stroke-miterlimit="10" stroke-linecap="round" stroke-linejoin="round"/>
<path d="M48.8463 16.6134C51.0532 16.4164 53.6507 17.6186 54.073 19.9638C54.073 19.9638 54.639 17.8872 53.3099 15.8896C51.9808 13.8914 50.5382 13.0356 48.5451 13.2123C46.5512 13.3899 45.2824 14.4853 44.3249 16.6855C43.3678 18.8865 44.2912 20.8315 44.2912 20.8315C44.2945 18.4474 46.6407 16.8083 48.8463 16.6134Z" fill="#31344E"/>
<path d="M48.8464 17.0353C50.9344 16.9024 53.1792 17.8726 53.6664 20.0761C53.7571 20.4882 54.3789 20.4709 54.4797 20.0761C55.4279 16.3663 52.0454 12.3992 48.2782 12.821C44.6574 13.2259 42.4674 17.8376 43.9273 21.045C44.1129 21.4525 44.6966 21.2167 44.7131 20.832C44.8055 18.6458 46.8209 17.2686 48.8464 17.0353C49.3804 16.9737 49.3863 16.1292 48.8464 16.1917C46.3468 16.4798 43.9829 18.1493 43.8695 20.832C44.1314 20.7611 44.3934 20.6898 44.6553 20.619C43.3713 17.7988 45.5015 13.9751 48.5452 13.6342C51.6713 13.2846 54.4257 16.8788 53.6664 19.8517C53.9377 19.8517 54.2085 19.8517 54.4797 19.8517C53.9162 17.3002 51.2976 16.0356 48.8468 16.1913C48.3065 16.2258 48.3031 17.0699 48.8464 17.0353Z" fill="#31344E"/>
<path d="M49.0097 13.9189C47.1289 14.0724 45.4551 15.1037 44.8827 16.9601C44.8764 16.9791 44.9051 16.9846 44.9127 16.9694C45.8057 15.426 47.2508 14.4107 49.0355 14.2103C49.2236 14.1901 49.1983 13.9028 49.0097 13.9189Z" fill="white"/>
<path d="M48.2437 14.6912C47.8451 14.6962 47.4638 14.8118 47.0998 14.9725C46.8505 15.083 46.4603 15.2741 46.3684 15.5437C46.3641 15.5555 46.3717 15.5668 46.384 15.5668C46.6678 15.5698 46.9319 15.3357 47.1955 15.229C47.5541 15.0847 47.916 14.9864 48.2863 14.8801C48.399 14.8472 48.3479 14.6895 48.2437 14.6912Z" fill="white"/>
<path d="M51.517 15.963C51.2669 15.9853 51.3014 16.3721 51.5507 16.3502C51.8 16.3279 51.7663 15.9419 51.517 15.963Z" fill="white"/>
<path d="M52.1388 15.9368C52.2948 15.9237 52.2733 15.6799 52.1172 15.6942C51.9603 15.7081 51.9818 15.9507 52.1388 15.9368Z" fill="white"/>
<path d="M52.031 16.3013C52.109 16.4599 52.3587 16.3873 52.2934 16.2114C52.2305 16.0423 51.9576 16.1519 52.031 16.3013Z" fill="white"/>
<path d="M52.9054 16.8538C52.7586 16.8669 52.7784 17.0938 52.9252 17.0807C53.072 17.0672 53.0522 16.8411 52.9054 16.8538Z" fill="white"/>
<path d="M51.253 15.3614C51.1062 15.3741 51.1261 15.601 51.2728 15.5883C51.4196 15.5761 51.399 15.3479 51.253 15.3614Z" fill="white"/>
<path d="M72.0445 24.8681C70.4581 23.3221 67.686 22.6126 65.876 24.164C65.876 24.164 66.7491 22.1971 69.0417 21.4877C71.3338 20.7786 72.9919 21.0262 74.4261 22.4228C75.8602 23.819 76.1521 25.4704 75.5034 27.7811C74.8551 30.0917 72.9109 31.0164 72.9109 31.0164C74.4155 29.1659 73.6314 26.4131 72.0445 24.8681Z" fill="#31344E"/>
<path d="M72.3422 24.5698C70.4761 22.8496 67.6841 22.2102 65.5772 23.8658C65.7978 24.0362 66.0188 24.2066 66.2394 24.377C67.5576 21.5087 71.8288 20.5921 74.1268 22.721C76.4417 24.8659 75.437 29.3046 72.6969 30.6523C72.8892 30.8446 73.0816 31.037 73.2739 31.2293C74.8426 29.1228 74.0526 26.33 72.3422 24.5698C71.9625 24.1788 71.3665 24.776 71.7457 25.1662C73.2145 26.678 73.891 28.9967 72.5459 30.8033C72.27 31.1736 72.7834 31.5478 73.1229 31.3803C76.459 29.7395 77.2697 24.7292 74.7233 22.1245C72.1574 19.4992 67.0117 20.6857 65.5109 23.951C65.3043 24.4002 65.7944 24.76 66.1732 24.4622C67.9013 23.1044 70.2576 23.7945 71.7453 25.1662C72.1452 25.534 72.7433 24.9393 72.3422 24.5698Z" fill="#31344E"/>
<path d="M73.6199 22.6768C74.9803 23.9848 75.6265 25.8403 74.8972 27.6419C74.89 27.66 74.8647 27.6465 74.8672 27.6292C75.1503 25.869 74.6715 24.1696 73.4153 22.8868C73.2833 22.7514 73.4828 22.5456 73.6199 22.6768Z" fill="white"/>
<path d="M73.7251 23.7591C74.0317 24.0151 74.254 24.3454 74.4346 24.7006C74.5586 24.9431 74.74 25.3384 74.6413 25.6045C74.637 25.6159 74.6248 25.6201 74.6147 25.6125C74.3924 25.435 74.3354 25.0866 74.1984 24.839C74.0119 24.5002 73.7943 24.1961 73.5732 23.8789C73.5066 23.7827 73.6454 23.6929 73.7251 23.7591Z" fill="white"/>
<path d="M70.3845 22.6785C70.5646 22.8527 70.293 23.1307 70.1133 22.9556C69.9344 22.7814 70.2056 22.5035 70.3845 22.6785Z" fill="white"/>
<path d="M69.9188 22.2643C69.8062 22.1546 69.9766 21.9795 70.0892 22.0892C70.2018 22.1989 70.0318 22.3739 69.9188 22.2643Z" fill="white"/>
<path d="M69.7713 22.6151C69.6114 22.6885 69.4638 22.4746 69.6262 22.3789C69.7806 22.2886 69.9236 22.5455 69.7713 22.6151Z" fill="white"/>
<path d="M68.745 22.4912C68.8496 22.5929 68.6915 22.7561 68.5864 22.6536C68.481 22.5515 68.64 22.3879 68.745 22.4912Z" fill="white"/>
<path d="M70.9685 22.3782C71.0739 22.4794 70.9145 22.6439 70.8099 22.5414C70.7049 22.4385 70.8635 22.2748 70.9685 22.3782Z" fill="white"/>
<path d="M33.0194 61.0845C34.6054 62.6304 37.3788 63.3407 39.188 61.7885C39.188 61.7885 38.3157 63.7562 36.0227 64.4657C33.7302 65.1748 32.072 64.9272 30.6375 63.531C29.2046 62.1335 28.9127 60.4821 29.5606 58.1727C30.2093 55.8616 32.1534 54.937 32.1534 54.937C30.6497 56.7875 31.4321 59.5402 33.0194 61.0845Z" fill="#31344E"/>
<path d="M32.7211 61.3828C34.5868 63.103 37.38 63.7433 39.4861 62.0868C39.2655 61.9164 39.0445 61.746 38.8239 61.5756C37.507 64.4452 33.2345 65.3609 30.936 63.2329C28.6199 61.0884 29.628 56.648 32.3672 55.3012C32.1749 55.1088 31.9825 54.9165 31.7902 54.7241C30.2215 56.8302 31.0098 59.623 32.7211 61.3828C33.1007 61.7734 33.6972 61.1766 33.3176 60.7864C31.8484 59.275 31.1731 56.9563 32.5178 55.1502C32.7937 54.7798 32.2803 54.4057 31.9408 54.5731C28.6034 56.214 27.7952 61.2225 30.3392 63.8293C32.9029 66.4568 38.0536 65.2656 39.5519 62.0016C39.7582 61.5524 39.2689 61.1922 38.8897 61.4904C37.1619 62.849 34.8049 62.1581 33.3176 60.7864C32.9185 60.4181 32.3204 61.0133 32.7211 61.3828Z" fill="#31344E"/>
<path d="M31.4451 63.277C30.0852 61.9694 29.439 60.1126 30.1674 58.3119C30.175 58.2937 30.2003 58.3072 30.1974 58.3237C29.9143 60.0852 30.3927 61.7846 31.6492 63.067C31.7817 63.2015 31.5818 63.4078 31.4451 63.277Z" fill="white"/>
<path d="M31.3401 62.1939C31.0339 61.9374 30.8116 61.6071 30.6311 61.2524C30.5075 61.0103 30.3261 60.6155 30.4248 60.3485C30.4286 60.3366 30.4412 60.3333 30.4514 60.3413C30.6728 60.5176 30.7293 60.866 30.8664 61.1145C31.0533 61.4528 31.2718 61.7577 31.4916 62.0745C31.5595 62.1711 31.4199 62.2609 31.3401 62.1939Z" fill="white"/>
<path d="M34.6787 63.2757C34.4998 63.1015 34.7711 62.8231 34.9499 62.9973C35.1292 63.1724 34.8588 63.4504 34.6787 63.2757Z" fill="white"/>
<path d="M35.146 63.6891C35.259 63.7988 35.0878 63.9738 34.976 63.8633C34.8621 63.7537 35.0334 63.579 35.146 63.6891Z" fill="white"/>
<path d="M35.2936 63.3386C35.4539 63.2652 35.6019 63.4786 35.4395 63.5743C35.2839 63.665 35.1413 63.4069 35.2936 63.3386Z" fill="white"/>
<path d="M36.3195 63.4622C36.2149 63.3597 36.373 63.1965 36.4789 63.2998C36.5844 63.4019 36.4253 63.5647 36.3195 63.4622Z" fill="white"/>
<path d="M34.0962 63.5762C33.9907 63.4737 34.1498 63.3104 34.2548 63.4129C34.3602 63.515 34.2012 63.6782 34.0962 63.5762Z" fill="white"/>
<path d="M56.2175 69.3402C54.0119 69.5376 51.4131 68.3351 50.9905 65.9894C50.9905 65.9894 50.4252 68.0668 51.7548 70.0641C53.083 72.0626 54.5256 72.918 56.5195 72.7413C58.5126 72.5641 59.7814 71.4683 60.7385 69.2673C61.696 67.0671 60.7726 65.1226 60.7726 65.1226C60.7701 67.5058 58.4236 69.1458 56.2175 69.3402Z" fill="#31344E"/>
<path d="M56.2164 68.9184C54.1285 69.0513 51.8832 68.0803 51.396 65.8772C51.3053 65.4651 50.6835 65.4815 50.5827 65.8772C49.6362 69.5878 53.0174 73.5537 56.7854 73.1327C60.405 72.7286 62.595 68.1149 61.1356 64.9091C60.9504 64.5021 60.3658 64.737 60.3497 65.1221C60.2578 67.3079 58.2424 68.6852 56.2164 68.9184C55.6824 68.98 55.6765 69.824 56.2164 69.762C58.7161 69.4744 61.0807 67.8048 61.1934 65.1221C60.9314 65.193 60.6695 65.2643 60.4075 65.3351C61.6911 68.1541 59.561 71.9795 56.5184 72.3195C53.3916 72.6687 50.638 69.0753 51.396 66.1016C51.1248 66.1016 50.8539 66.1016 50.5827 66.1016C51.1463 68.6531 53.7653 69.9185 56.216 69.7625C56.7563 69.7275 56.7597 68.8838 56.2164 68.9184Z" fill="#31344E"/>
<path d="M56.0545 72.0347C57.9345 71.8803 59.6091 70.8494 60.1811 68.993C60.187 68.974 60.1583 68.9677 60.1507 68.9837C59.2573 70.5271 57.8131 71.5424 56.0284 71.7428C55.8407 71.7635 55.8651 72.0499 56.0545 72.0347Z" fill="white"/>
<path d="M56.8198 71.262C57.2193 71.2565 57.6002 71.1405 57.9646 70.9798C58.2126 70.8702 58.6032 70.6795 58.696 70.4095C58.6998 70.3981 58.6926 70.3868 58.6791 70.3868C58.3953 70.3834 58.1312 70.6179 57.8689 70.7242C57.5099 70.8685 57.1484 70.9667 56.7768 71.0726C56.665 71.1059 56.7165 71.2628 56.8198 71.262Z" fill="white"/>
<path d="M53.5479 69.9907C53.7976 69.9687 53.7631 69.5815 53.5133 69.6034C53.2641 69.6254 53.2986 70.0117 53.5479 69.9907Z" fill="white"/>
<path d="M52.9245 70.0164C52.7676 70.0299 52.79 70.2725 52.9465 70.2594C53.1034 70.2451 53.0823 70.0025 52.9245 70.0164Z" fill="white"/>
<path d="M53.0323 69.6517C52.9543 69.4939 52.7046 69.566 52.7708 69.7415C52.8337 69.9111 53.1057 69.801 53.0323 69.6517Z" fill="white"/>
<path d="M52.1587 69.0989C52.3047 69.0863 52.2848 68.8593 52.1381 68.8716C51.9921 68.8855 52.0119 69.1124 52.1587 69.0989Z" fill="white"/>
<path d="M53.8097 70.5914C53.9573 70.5791 53.9358 70.3522 53.7898 70.3653C53.6431 70.3779 53.6637 70.6049 53.8097 70.5914Z" fill="white"/>
<path d="M42.2155 30.889C42.2164 30.8856 42.2164 30.8831 42.2172 30.8801C42.2244 30.8561 42.2252 30.8295 42.2109 30.8C41.8536 30.0711 41.6077 29.2427 41.8561 28.4404C41.8996 28.2978 41.6925 28.2244 41.6376 28.3623C41.3234 29.1414 40.6088 29.6278 39.8719 29.9673C39.815 29.9939 39.7893 30.0652 39.8167 30.1221C40.174 30.8506 40.4207 31.6786 40.1723 32.4809C40.1284 32.6235 40.3338 32.6968 40.3908 32.5589C40.7046 31.7798 41.4191 31.2935 42.156 30.9539C42.186 30.9404 42.2024 30.9189 42.2113 30.8961C42.2126 30.8932 42.2138 30.8915 42.2155 30.889Z" fill="#31344E"/>
<path d="M37.9168 42.9659C37.9185 42.9625 37.9185 42.9596 37.9185 42.9575C37.9265 42.933 37.9265 42.906 37.9121 42.8773C37.5557 42.1484 37.3089 41.3204 37.5574 40.5177C37.6008 40.3747 37.3946 40.3013 37.3385 40.4401C37.0242 41.2183 36.3097 41.7047 35.5736 42.0447C35.5158 42.0708 35.4901 42.1429 35.5184 42.199C35.8756 42.9275 36.1215 43.7559 35.8731 44.5578C35.8288 44.7004 36.0355 44.7738 36.0916 44.6358C36.4059 43.8576 37.12 43.3708 37.8577 43.0317C37.8868 43.0174 37.9033 42.9963 37.913 42.9739C37.9147 42.9705 37.9159 42.9684 37.9168 42.9659Z" fill="#31344E"/>
<path d="M39.5647 36.864C39.5655 36.8619 39.5656 36.8611 39.5656 36.8585C39.571 36.8442 39.571 36.8277 39.5622 36.8096C39.342 36.3625 39.1918 35.8542 39.3437 35.3624C39.3707 35.2746 39.2445 35.2299 39.21 35.3143C39.0176 35.7918 38.5794 36.09 38.1268 36.2988C38.0913 36.3152 38.0757 36.3587 38.093 36.3937C38.3124 36.8408 38.4634 37.3491 38.3107 37.8418C38.2837 37.9287 38.4106 37.9738 38.4452 37.889C38.6376 37.4111 39.0758 37.1133 39.5284 36.9037C39.5466 36.8965 39.5567 36.883 39.5622 36.8691C39.563 36.8674 39.5639 36.8657 39.5647 36.864Z" fill="#31344E"/>
<path d="M44.0247 24.3328C44.0255 24.3311 44.0255 24.3294 44.0255 24.3269C44.0306 24.313 44.0306 24.2966 44.0217 24.2784C43.8024 23.8313 43.6518 23.3226 43.8037 22.8308C43.8302 22.7434 43.7045 22.6983 43.6699 22.7827C43.4767 23.2606 43.0385 23.5592 42.5863 23.7684C42.5513 23.7832 42.5357 23.8275 42.553 23.8621C42.7715 24.3088 42.9229 24.8183 42.7706 25.3097C42.7436 25.3979 42.8702 25.4426 42.9048 25.3578C43.098 24.8799 43.5362 24.5821 43.9884 24.3729C44.0065 24.3649 44.0167 24.3518 44.0217 24.3375C44.0226 24.3358 44.0238 24.3345 44.0247 24.3328Z" fill="#31344E"/>
<path d="M39.5467 34.5617C39.3 34.4744 39.1637 34.8574 39.4113 34.9455C39.6581 35.0333 39.7943 34.6494 39.5467 34.5617Z" fill="#31344E"/>
<path d="M39.6156 34.3707C39.7633 34.4234 39.8447 34.1931 39.6975 34.1404C39.549 34.0876 39.4671 34.3179 39.6156 34.3707Z" fill="#31344E"/>
<path d="M40.0174 33.238C40.2642 33.3261 40.4012 32.9431 40.1541 32.855C39.9065 32.7664 39.7702 33.1502 40.0174 33.238Z" fill="#31344E"/>
<path d="M39.9504 33.4294C39.8019 33.3767 39.7201 33.607 39.8686 33.6597C40.017 33.7116 40.0989 33.4821 39.9504 33.4294Z" fill="#31344E"/>
<path d="M39.8 33.8283C39.711 33.7962 39.6621 33.935 39.7515 33.9662C39.8405 33.9983 39.8894 33.8599 39.8 33.8283Z" fill="#31344E"/>
<path d="M35.0906 49.4382C35.0915 49.4365 35.0915 49.434 35.0915 49.4327C35.0965 49.4175 35.0965 49.4019 35.0877 49.3838C34.8692 48.9362 34.7177 48.4279 34.87 47.9353C34.8974 47.8488 34.7705 47.8032 34.7359 47.8884C34.5435 48.3659 34.1053 48.6642 33.6531 48.873C33.6181 48.8886 33.6016 48.9329 33.6198 48.967C33.8383 49.4146 33.9897 49.9233 33.8378 50.4151C33.8104 50.5028 33.937 50.5475 33.9707 50.4623C34.1639 49.9853 34.6022 49.6866 35.0543 49.4778C35.0725 49.4698 35.0826 49.4572 35.0885 49.4424C35.0893 49.4407 35.0906 49.4399 35.0906 49.4382Z" fill="#31344E"/>
<path d="M35.0731 47.1354C34.8255 47.0472 34.6893 47.4303 34.936 47.5184C35.1836 47.6066 35.3199 47.2236 35.0731 47.1354Z" fill="#31344E"/>
<path d="M35.1407 46.9441C35.2892 46.9968 35.371 46.7673 35.2225 46.7146C35.0745 46.6619 34.9927 46.8918 35.1407 46.9441Z" fill="#31344E"/>
<path d="M35.5435 45.8118C35.7911 45.8991 35.9265 45.5161 35.6797 45.4284C35.433 45.3402 35.2967 45.7232 35.5435 45.8118Z" fill="#31344E"/>
<path d="M35.4758 46.0028C35.3273 45.9505 35.2455 46.18 35.3939 46.2331C35.542 46.2854 35.6243 46.0555 35.4758 46.0028Z" fill="#31344E"/>
<path d="M35.326 46.4022C35.2374 46.3702 35.1889 46.5086 35.2771 46.5402C35.3657 46.5718 35.415 46.4339 35.326 46.4022Z" fill="#31344E"/>
<path d="M42.11 27.3609C41.8624 27.2723 41.7262 27.6553 41.9738 27.7439C42.221 27.832 42.3576 27.449 42.11 27.3609Z" fill="#31344E"/>
<path d="M42.1777 27.1699C42.3262 27.2231 42.408 26.9928 42.2595 26.94C42.1119 26.8869 42.0297 27.1172 42.1777 27.1699Z" fill="#31344E"/>
<path d="M42.5812 26.037C42.828 26.1255 42.9642 25.7425 42.7166 25.6539C42.4699 25.5658 42.3336 25.9492 42.5812 26.037Z" fill="#31344E"/>
<path d="M42.5129 26.228C42.3644 26.1753 42.2826 26.4056 42.4311 26.4583C42.5787 26.511 42.6614 26.2812 42.5129 26.228Z" fill="#31344E"/>
<path d="M42.3632 26.6277C42.2734 26.5961 42.2244 26.734 42.3143 26.7657C42.4029 26.7969 42.4514 26.6589 42.3632 26.6277Z" fill="#31344E"/>
<path d="M37.7012 39.7465C37.4545 39.6592 37.3182 40.0422 37.565 40.1295C37.8126 40.2177 37.9488 39.8342 37.7012 39.7465Z" fill="#31344E"/>
<path d="M37.7696 39.5555C37.9185 39.6074 37.9999 39.3779 37.8515 39.3252C37.7034 39.2724 37.6216 39.5027 37.7696 39.5555Z" fill="#31344E"/>
<path d="M38.172 38.4228C38.4188 38.511 38.555 38.1271 38.3083 38.0398C38.0607 37.9512 37.9244 38.3342 38.172 38.4228Z" fill="#31344E"/>
<path d="M38.1041 38.6135C37.9565 38.5608 37.8746 38.7907 38.0223 38.8438C38.1712 38.8966 38.2521 38.6662 38.1041 38.6135Z" fill="#31344E"/>
<path d="M37.9544 39.0131C37.8654 38.981 37.8165 39.1198 37.9055 39.151C37.9941 39.1831 38.0434 39.0447 37.9544 39.0131Z" fill="#31344E"/>
<path d="M70.4474 40.935C70.4482 40.9324 70.4482 40.9295 70.4491 40.9261C70.4562 40.9025 70.4571 40.8755 70.4427 40.8468C70.0855 40.1179 69.8396 39.2891 70.0872 38.4872C70.131 38.3442 69.9252 38.2708 69.8687 38.4096C69.5548 39.1878 68.8403 39.6742 68.1034 40.0142C68.0464 40.0403 68.0207 40.112 68.0481 40.1677C68.4054 40.8966 68.6513 41.7254 68.4037 42.5281C68.3599 42.6699 68.5653 42.7433 68.6222 42.6053C68.936 41.8262 69.6506 41.3403 70.3871 41.0012C70.417 40.9868 70.4335 40.9662 70.4432 40.9426C70.4444 40.9404 70.447 40.9375 70.4474 40.935Z" fill="#31344E"/>
<path d="M66.1488 53.0115C66.1501 53.009 66.1501 53.0069 66.1501 53.0039C66.1577 52.9795 66.1577 52.9537 66.1446 52.9238C65.7874 52.1949 65.5414 51.3669 65.789 50.565C65.8325 50.422 65.6266 50.3486 65.5705 50.4866C65.2567 51.2657 64.5417 51.752 63.8048 52.0911C63.7479 52.1181 63.723 52.1894 63.7504 52.2455C64.1077 52.974 64.3528 53.8033 64.1052 54.6051C64.0621 54.7477 64.2676 54.8211 64.3237 54.6823C64.6383 53.9045 65.352 53.4182 66.0894 53.0782C66.1185 53.0647 66.1349 53.0436 66.1446 53.0196C66.1463 53.017 66.148 53.0149 66.1488 53.0115Z" fill="#31344E"/>
<path d="M67.7971 46.9112C67.798 46.9091 67.7971 46.9074 67.798 46.9057C67.803 46.891 67.803 46.8741 67.7942 46.8568C67.5748 46.4093 67.4234 45.9014 67.5761 45.4087C67.6031 45.321 67.477 45.2759 67.4424 45.3615C67.2492 45.8394 66.8118 46.1372 66.3592 46.3452C66.3238 46.3616 66.3081 46.4063 66.3254 46.4401C66.5448 46.888 66.6962 47.3963 66.5439 47.8886C66.5165 47.9759 66.6431 48.0206 66.6781 47.9354C66.8704 47.4579 67.3087 47.1597 67.7609 46.9509C67.7782 46.9429 67.7891 46.9294 67.7946 46.9154C67.7954 46.9137 67.7963 46.9121 67.7971 46.9112Z" fill="#31344E"/>
<path d="M72.257 34.3801C72.257 34.3776 72.257 34.3759 72.2579 34.3746C72.2629 34.3594 72.2629 34.343 72.2541 34.3257C72.0347 33.8781 71.8833 33.3699 72.0356 32.8772C72.0634 32.7899 71.9369 32.7447 71.9023 32.8299C71.7091 33.3079 71.2717 33.6061 70.8187 33.814C70.7841 33.8305 70.768 33.8748 70.7853 33.9085C71.0047 34.3569 71.1553 34.8652 71.0034 35.357C70.9764 35.4443 71.1034 35.4899 71.1371 35.4042C71.3303 34.9263 71.7686 34.6285 72.2203 34.4197C72.2385 34.4117 72.2482 34.3991 72.2549 34.3839C72.2558 34.3826 72.2566 34.3818 72.257 34.3801Z" fill="#31344E"/>
<path d="M67.7792 44.6085C67.5316 44.5204 67.3953 44.9034 67.6421 44.9915C67.8897 45.0801 68.0259 44.6963 67.7792 44.6085Z" fill="#31344E"/>
<path d="M67.847 44.4172C67.9947 44.4699 68.0773 44.24 67.928 44.1877C67.78 44.135 67.699 44.3645 67.847 44.4172Z" fill="#31344E"/>
<path d="M68.2498 43.2841C68.4974 43.3723 68.6337 42.9893 68.3861 42.9011C68.1397 42.8134 68.0022 43.1968 68.2498 43.2841Z" fill="#31344E"/>
<path d="M68.1818 43.4758C68.0334 43.4231 67.9515 43.6534 68.1 43.7061C68.2481 43.7588 68.3303 43.5285 68.1818 43.4758Z" fill="#31344E"/>
<path d="M68.0317 43.8756C67.9423 43.8436 67.8938 43.9815 67.9828 44.0136C68.0713 44.0452 68.1207 43.9064 68.0317 43.8756Z" fill="#31344E"/>
<path d="M63.3232 59.4843C63.3236 59.4826 63.3236 59.4813 63.3236 59.4788C63.3295 59.4644 63.3295 59.448 63.3206 59.4299C63.1013 58.9827 62.9499 58.4745 63.1021 57.9818C63.1296 57.8941 63.003 57.8493 62.968 57.9345C62.7757 58.412 62.3374 58.7111 61.8852 58.919C61.8506 58.9347 61.8346 58.9789 61.8515 59.014C62.0704 59.4611 62.2218 59.9702 62.07 60.4612C62.0426 60.5498 62.1691 60.5945 62.2029 60.5093C62.396 60.0314 62.8343 59.7327 63.2869 59.5248C63.305 59.5159 63.3147 59.5032 63.3206 59.4893C63.3215 59.4876 63.3232 59.486 63.3232 59.4843Z" fill="#31344E"/>
<path d="M63.3042 57.1825C63.0571 57.0944 62.9204 57.4774 63.168 57.5647C63.4143 57.6537 63.5514 57.2698 63.3042 57.1825Z" fill="#31344E"/>
<path d="M63.3723 56.991C63.5208 57.0438 63.6018 56.8134 63.4542 56.7607C63.3061 56.708 63.2239 56.9383 63.3723 56.991Z" fill="#31344E"/>
<path d="M63.7756 55.8583C64.0223 55.9465 64.1586 55.5635 63.911 55.4753C63.6642 55.3868 63.528 55.7702 63.7756 55.8583Z" fill="#31344E"/>
<path d="M63.7068 56.0491C63.5592 55.9972 63.4769 56.2267 63.625 56.2794C63.773 56.3321 63.8549 56.1027 63.7068 56.0491Z" fill="#31344E"/>
<path d="M63.557 56.4484C63.468 56.4172 63.419 56.5551 63.508 56.5863C63.597 56.618 63.646 56.48 63.557 56.4484Z" fill="#31344E"/>
<path d="M70.3415 37.4077C70.0939 37.32 69.9576 37.7034 70.2052 37.7916C70.4528 37.8789 70.5882 37.4959 70.3415 37.4077Z" fill="#31344E"/>
<path d="M70.409 37.2167C70.5575 37.2686 70.6393 37.0391 70.4908 36.9864C70.3432 36.9345 70.2613 37.1635 70.409 37.2167Z" fill="#31344E"/>
<path d="M70.8116 36.0844C71.0592 36.1722 71.1955 35.7892 70.9479 35.7006C70.702 35.6133 70.5653 35.9963 70.8116 36.0844Z" fill="#31344E"/>
<path d="M70.7443 36.2755C70.5959 36.2224 70.514 36.4518 70.6625 36.5054C70.8114 36.5585 70.8928 36.3282 70.7443 36.2755Z" fill="#31344E"/>
<path d="M70.5946 36.6741C70.5056 36.6425 70.4558 36.7804 70.5452 36.812C70.6342 36.8441 70.6836 36.7058 70.5946 36.6741Z" fill="#31344E"/>
<path d="M65.9348 49.7936C65.6872 49.7054 65.5518 50.0885 65.7986 50.1766C66.0462 50.2643 66.1816 49.8813 65.9348 49.7936Z" fill="#31344E"/>
<path d="M66.003 49.6021C66.1519 49.6548 66.2329 49.425 66.0849 49.3718C65.9368 49.3191 65.855 49.5494 66.003 49.6021Z" fill="#31344E"/>
<path d="M66.4062 48.469C66.6529 48.5563 66.7896 48.1733 66.5424 48.086C66.2957 47.9982 66.1586 48.3808 66.4062 48.469Z" fill="#31344E"/>
<path d="M66.3386 48.6606C66.1897 48.6079 66.1074 48.8382 66.2567 48.8909C66.4039 48.9428 66.4862 48.7133 66.3386 48.6606Z" fill="#31344E"/>
<path d="M66.1879 49.0595C66.0989 49.0283 66.05 49.1662 66.1386 49.1974C66.2272 49.2291 66.2774 49.0911 66.1879 49.0595Z" fill="#31344E"/>
<path d="M57.0232 44.3446C56.5419 44.14 56.037 44.0169 55.5878 43.7414C55.4056 43.6292 55.2795 43.4955 55.1782 43.347C55.3006 43.1408 55.4056 42.9244 55.4794 42.7025C55.4845 42.6881 55.487 42.6742 55.4912 42.6595C55.6009 42.6713 55.7127 42.6784 55.8287 42.6768C56.9878 42.6586 57.8145 41.8441 59.0138 42.2908C59.0467 42.303 59.0635 42.2609 59.0395 42.2393C58.6772 41.9116 58.0432 41.4653 57.51 41.5678C56.7575 41.7129 56.1969 41.8985 55.5836 41.7876C55.5536 41.5244 55.4689 41.2789 55.3432 41.0528C55.4465 40.9967 55.5444 40.9347 55.633 40.8706C56.5491 40.2109 56.7799 39.0922 58.0018 38.8172C58.0347 38.8096 58.0309 38.7649 57.9985 38.7603C57.3552 38.6578 56.6204 38.7345 56.1653 39.2453C55.8194 39.6321 55.5174 40.0328 55.0665 40.3041C54.9838 40.3538 54.9024 40.3859 54.821 40.4112C54.6164 40.2277 54.3814 40.0696 54.1296 39.9417C54.1786 39.8557 54.2258 39.7667 54.2659 39.6752C54.7539 38.5776 54.2081 37.4235 55.0749 36.4306C55.0947 36.4082 55.0631 36.3753 55.0386 36.3876C54.5788 36.6242 53.9525 37.0578 53.8613 37.6159C53.7749 38.1499 53.7723 38.6801 53.6024 39.1989C53.5446 39.3723 53.4564 39.5119 53.3505 39.6338C53.1346 39.5794 52.9102 39.549 52.6837 39.5423C52.668 39.3774 52.6326 39.2112 52.5774 39.0471C52.2247 38.0073 51.3765 37.3147 51.5566 36.129C51.5612 36.1016 51.5178 36.086 51.5043 36.1109C51.2128 36.6082 51.0905 37.1135 51.1504 37.6872C51.1841 38.0082 51.4806 38.3781 51.6266 38.6586C51.8071 39.0053 51.8624 39.3229 51.8409 39.6431C51.5549 39.7249 51.2862 39.8595 51.0529 40.0476C51.0188 40.013 50.9867 39.9768 50.9504 39.9426C50.0769 39.1373 48.8241 39.1778 48.2175 38.0305C48.2015 38.0006 48.1589 38.0153 48.1623 38.0487C48.2348 38.7252 48.4925 39.406 49.132 39.7245C49.561 39.9375 49.987 40.1265 50.3434 40.4542C50.4228 40.5264 50.4822 40.604 50.535 40.6845C50.3797 40.9726 50.2798 41.2865 50.2262 41.6062C50.0857 41.5775 49.9415 41.5585 49.7921 41.5505C48.6381 41.4927 47.7772 42.2528 46.6125 41.7277C46.5868 41.7167 46.5615 41.7538 46.5813 41.7741C46.9394 42.144 47.5304 42.6152 48.0884 42.546C48.9262 42.441 49.5327 42.2786 50.203 42.519C50.2325 42.7771 50.2928 43.0281 50.3844 43.2622C50.2266 43.3348 50.0781 43.4217 49.9499 43.5107C49.0249 44.1539 48.7773 45.2671 47.5515 45.5193C47.5169 45.5269 47.5232 45.5716 47.5544 45.5771C48.2842 45.7075 48.9705 45.5839 49.4813 45.0284C49.8107 44.6719 50.0929 44.3269 50.5177 44.081C50.6126 44.0266 50.7054 43.9911 50.7977 43.9679C51.0023 44.2037 51.2761 44.4007 51.5891 44.5483C51.5473 44.6302 51.5081 44.7141 51.4747 44.8006C51.0369 45.9314 51.6401 47.0585 50.8184 48.0974C50.8003 48.1194 50.8285 48.1548 50.8547 48.1401C51.2938 47.8878 51.9096 47.4251 51.9716 46.8717C52.032 46.3347 52.0041 45.8066 52.1492 45.281C52.2019 45.0887 52.2893 44.9368 52.396 44.8039C52.6815 44.8525 52.968 44.8668 53.2329 44.8293C53.2552 44.9301 53.2818 45.0317 53.3214 45.1321C53.7504 46.2107 54.8033 46.8489 54.7657 48.1042C54.764 48.1371 54.8083 48.146 54.821 48.116C55.0816 47.5175 55.1803 46.8396 54.8429 46.2554C54.6375 45.899 54.3726 45.5957 54.1942 45.2203C54.0769 44.971 54.0423 44.7419 54.0482 44.5116C54.2705 44.3775 54.478 44.2113 54.6657 44.019C54.7602 44.1113 54.8619 44.1978 54.9669 44.2729C55.9278 44.9621 57.13 44.7403 57.874 45.8041C57.8913 45.8277 57.9314 45.807 57.9251 45.7792C57.8082 45.2848 57.5387 44.5644 57.0232 44.3446Z" fill="#31344E" stroke="#31344E" stroke-miterlimit="10" stroke-linecap="round" stroke-linejoin="round"/>
<path d="M41.1319 61.1843C38.3585 59.5211 36.0997 57.1252 34.5504 54.2894C34.4795 54.1586 34.2708 54.2582 34.3416 54.3889C35.9082 57.2585 38.1919 59.6903 40.9982 61.3745C41.1264 61.4509 41.2597 61.2606 41.1319 61.1843Z" fill="#31344E"/>
<path d="M41.1732 60.9898C41.3002 61.0661 41.4335 60.8759 41.3061 60.7995C38.6335 59.1946 36.4578 56.8881 34.9638 54.1548C34.8929 54.0236 34.6833 54.1227 34.755 54.2539C36.2667 57.0205 38.4669 59.3637 41.1732 60.9898Z" fill="#31344E"/>
<path d="M49.8665 64.2925C53.0672 64.7548 56.3315 64.325 59.3226 63.1047C59.4605 63.0486 59.5605 63.257 59.4226 63.3135C56.3952 64.5481 53.0891 64.9919 49.8492 64.5237C49.7028 64.5022 49.7184 64.2714 49.8665 64.2925Z" fill="#31344E"/>
<path d="M49.9574 64.1154C49.8107 64.0939 49.8275 63.8628 49.9747 63.8851C53.0603 64.3289 56.2053 63.9151 59.0888 62.7395C59.2267 62.6834 59.3267 62.8917 59.1879 62.9483C56.269 64.139 53.0835 64.5659 49.9574 64.1154Z" fill="#31344E"/>
<path d="M48.4824 66.3453C48.4824 66.3445 48.4824 66.3436 48.4815 66.3428C48.2166 65.5397 48.0179 64.7197 47.8421 63.8942C48.4997 63.3644 49.1716 62.8553 49.8845 62.3993C49.8853 62.3993 49.8853 62.3984 49.8861 62.3984C49.984 62.344 50.0173 62.1905 49.9224 62.1116C49.8954 62.08 49.8608 62.0618 49.8199 62.0618C48.9814 61.7632 48.1424 61.4645 47.3038 61.1663C47.1773 60.5416 47.0436 59.9186 46.882 59.3019C46.8474 59.1716 46.7078 59.1214 46.5998 59.2011C46.0839 59.5774 45.5866 59.9756 45.094 60.3805C44.2398 60.0759 43.3839 59.7722 42.5289 59.4677C42.3737 59.4116 42.2695 59.5694 42.3142 59.7052C42.5791 60.5092 42.7782 61.3291 42.9537 62.1546C42.2961 62.6836 41.6241 63.1931 40.9113 63.6495C40.7907 63.7267 40.7708 63.9144 40.9277 63.9697C41.7823 64.2738 42.6378 64.5779 43.4923 64.8825C43.6185 65.5072 43.7522 66.1302 43.9137 66.7469C43.9487 66.8781 44.0879 66.9274 44.1968 66.8468C44.7118 66.4714 45.2091 66.0741 45.7009 65.6683C46.5395 65.9669 47.3793 66.2652 48.2191 66.5638C48.2495 66.59 48.2892 66.5975 48.3288 66.5908C48.4524 66.5887 48.5241 66.4486 48.4824 66.3453ZM49.4314 62.2926C48.8569 62.6773 48.3039 63.0906 47.764 63.5209C47.632 62.8696 47.5088 62.2158 47.3819 61.5624C48.0648 61.8058 48.7481 62.0488 49.4314 62.2926ZM47.4645 63.7596C46.8495 64.2586 46.2447 64.7715 45.6347 65.2756C45.0206 65.0571 44.406 64.839 43.7927 64.6205C43.6374 63.8436 43.4936 63.064 43.3321 62.2892C43.947 61.7902 44.5511 61.2773 45.1619 60.7732C45.776 60.9917 46.3893 61.2098 47.0035 61.4287C47.1587 62.2052 47.303 62.9843 47.4645 63.7596ZM46.6053 59.6318C46.7217 60.0962 46.8267 60.5627 46.9229 61.0309C46.4404 60.8601 45.9582 60.6876 45.4749 60.515C45.846 60.2135 46.2223 59.9182 46.6053 59.6318ZM42.7335 59.9085C43.4173 60.1519 44.1006 60.3957 44.7839 60.6382C44.2723 61.063 43.764 61.4928 43.2498 61.9138C43.1034 61.2393 42.9364 60.5699 42.7335 59.9085ZM41.3643 63.7562C41.9397 63.3716 42.4918 62.9582 43.0317 62.5279C43.1642 63.1792 43.2869 63.8338 43.4147 64.4855C42.7314 64.243 42.0481 63.9992 41.3643 63.7562ZM44.1904 66.4162C44.0749 65.9526 43.9698 65.4861 43.8728 65.0179C44.3562 65.1896 44.8383 65.3612 45.3213 65.5329C44.9497 65.8353 44.5734 66.1298 44.1904 66.4162ZM47.5455 64.135C47.6923 64.8091 47.8593 65.4785 48.0622 66.1395C47.3785 65.8969 46.696 65.6535 46.0118 65.4106C46.5235 64.9854 47.0313 64.556 47.5455 64.135Z" fill="#31344E"/>
<path d="M47.2067 57.5443C47.0869 57.8843 46.9659 58.223 46.8452 58.5622C46.7955 58.7026 47.0127 58.7807 47.0637 58.6406C47.1844 58.3006 47.3046 57.9619 47.4252 57.6228C47.4746 57.4819 47.2574 57.4043 47.2067 57.5443Z" fill="#31344E"/>
<path d="M45.5166 57.8392C45.4398 57.7131 45.2293 57.8109 45.3069 57.9383C45.4938 58.2467 45.6798 58.5542 45.8667 58.8621C45.9439 58.989 46.1527 58.8903 46.0763 58.763C45.8895 58.455 45.7026 58.1471 45.5166 57.8392Z" fill="#31344E"/>
<path d="M45.2923 59.3522C44.9852 59.1637 44.6798 58.9743 44.3727 58.7853C44.2458 58.7073 44.1129 58.8971 44.2399 58.976C44.5465 59.1641 44.8532 59.353 45.1598 59.542C45.2864 59.6201 45.4197 59.4307 45.2923 59.3522Z" fill="#31344E"/>
<path d="M48.58 58.9295C48.2408 59.051 47.9021 59.1712 47.563 59.2918C47.4221 59.3433 47.5229 59.5504 47.6621 59.5006C48.0012 59.3808 48.34 59.2598 48.6791 59.1383C48.8208 59.0881 48.7196 58.8797 48.58 58.9295Z" fill="#31344E"/>
<path d="M48.8023 60.3616C48.445 60.3143 48.0882 60.2671 47.7309 60.2207C47.5824 60.2009 47.5668 60.432 47.7145 60.4514C48.0717 60.4978 48.4286 60.5446 48.785 60.5927C48.9327 60.6126 48.9495 60.3814 48.8023 60.3616Z" fill="#31344E"/>
<path d="M55.3435 21.2498C52.1428 20.7879 48.8784 21.2177 45.8869 22.4376C45.7499 22.4945 45.6495 22.2857 45.7882 22.2288C48.8152 20.9942 52.1213 20.5508 55.3612 21.0186C55.5072 21.0401 55.4907 21.2713 55.3435 21.2498Z" fill="#31344E"/>
<path d="M55.2521 21.4274C55.3998 21.4484 55.3833 21.6796 55.2357 21.6581C52.1506 21.2135 49.0055 21.6277 46.1212 22.8037C45.9841 22.8598 45.8837 22.651 46.0229 22.5941C48.9427 21.4041 52.1274 20.9769 55.2521 21.4274Z" fill="#31344E"/>
<path d="M64.0787 24.3581C66.8513 26.0213 69.1109 28.4172 70.6581 31.253C70.7302 31.3842 70.939 31.2851 70.8673 31.1539C69.3016 28.2851 67.0183 25.8526 64.2116 24.1691C64.0834 24.0923 63.9501 24.2813 64.0787 24.3581Z" fill="#31344E"/>
<path d="M64.0369 24.5537C63.9095 24.476 63.7767 24.6663 63.9045 24.7426C66.577 26.3476 68.7527 28.6549 70.246 31.3874C70.3177 31.5182 70.5265 31.4199 70.4548 31.2883C68.9434 28.5212 66.7437 26.178 64.0369 24.5537Z" fill="#31344E"/>
<path d="M64.3368 21.6054C64.3111 21.5746 64.2748 21.5565 64.2344 21.5561C63.3958 21.257 62.5564 20.9592 61.7178 20.6601C61.5917 20.035 61.458 19.4124 61.296 18.7957C61.2614 18.6658 61.1218 18.6152 61.013 18.6949C60.4984 19.0712 60.0011 19.4694 59.5092 19.8743C58.6538 19.5702 57.7984 19.266 56.9429 18.9615C56.7869 18.9062 56.684 19.0632 56.7287 19.1994C56.9927 20.0034 57.1922 20.823 57.3673 21.648C56.7105 22.1774 56.0382 22.6873 55.3253 23.1429C55.2042 23.2205 55.1853 23.4078 55.3422 23.4631C56.1963 23.7684 57.0518 24.0722 57.9064 24.3767C58.0316 25.0018 58.1666 25.6248 58.3282 26.2411C58.3628 26.3714 58.5024 26.4208 58.6104 26.3411C59.1262 25.9648 59.6231 25.5679 60.1158 25.1625C60.9548 25.4603 61.7938 25.7594 62.6332 26.0572C62.6639 26.0829 62.7032 26.0914 62.7428 26.0842C62.866 26.0825 62.9386 25.9425 62.8964 25.8391C62.8955 25.8383 62.8955 25.8374 62.8955 25.8366C62.6306 25.0335 62.432 24.2135 62.2561 23.388C62.9137 22.859 63.586 22.3499 64.2989 21.8943C64.2997 21.8935 64.2997 21.8927 64.3006 21.8927C64.398 21.8378 64.4313 21.6839 64.3368 21.6054ZM60.4254 24.9035C60.9375 24.4788 61.4458 24.0494 61.96 23.6284C62.1067 24.3033 62.2725 24.9723 62.4763 25.6341C61.7929 25.3899 61.1096 25.1465 60.4254 24.9035ZM60.0492 24.7698C59.4342 24.5505 58.82 24.3324 58.2067 24.1139C58.0515 23.3374 57.9072 22.5579 57.7465 21.783C58.3602 21.2836 58.9651 20.7715 59.575 20.2666C60.19 20.4855 60.8033 20.7036 61.4175 20.9229C61.5727 21.6995 61.717 22.4786 61.8781 23.2538C61.264 23.752 60.6591 24.2649 60.0492 24.7698ZM58.2868 24.5108C58.7698 24.6829 59.2528 24.8546 59.7353 25.0267C59.3641 25.3287 58.9883 25.6244 58.6049 25.9104C58.4889 25.446 58.3843 24.9795 58.2868 24.5108ZM57.4457 22.0217C57.5782 22.6734 57.7009 23.3272 57.8283 23.9789C57.1454 23.7364 56.4621 23.4939 55.7787 23.2509C56.3532 22.8658 56.9058 22.4524 57.4457 22.0217ZM59.1984 20.1316C58.6867 20.5576 58.178 20.987 57.6642 21.408C57.5174 20.7327 57.3504 20.0637 57.1475 19.4023C57.8313 19.6453 58.5142 19.8891 59.1984 20.1316ZM61.3374 20.5243C60.8548 20.3535 60.3714 20.1814 59.8889 20.0097C60.2596 19.7077 60.6359 19.412 61.0197 19.1256C61.1353 19.59 61.2399 20.0565 61.3374 20.5243ZM61.7954 21.0566C62.4788 21.2996 63.1621 21.5421 63.845 21.7855C63.2709 22.1702 62.7184 22.5844 62.1784 23.0138C62.0456 22.363 61.9228 21.7096 61.7954 21.0566Z" fill="#31344E"/>
<path d="M57.7536 27.9097C57.8742 27.5697 57.9944 27.231 58.115 26.8919C58.1657 26.7514 58.3842 26.829 58.3335 26.9691C58.2129 27.3082 58.0927 27.6477 57.9712 27.9869C57.921 28.1273 57.7034 28.0489 57.7536 27.9097Z" fill="#31344E"/>
<path d="M56.6292 26.6126C56.4896 26.6623 56.3888 26.4544 56.5301 26.4038C56.8688 26.2827 57.2075 26.1621 57.5466 26.0406C57.6863 25.9917 57.7862 26.2 57.6458 26.2502C57.3075 26.3709 56.9683 26.4915 56.6292 26.6126Z" fill="#31344E"/>
<path d="M57.4114 25.2978C57.0541 25.2514 56.6972 25.2038 56.34 25.1561C56.1923 25.1371 56.2092 24.906 56.3568 24.9249C56.7137 24.973 57.0705 25.0207 57.4278 25.0671C57.5754 25.0865 57.559 25.3176 57.4114 25.2978Z" fill="#31344E"/>
<path d="M59.693 27.703C59.507 27.3951 59.3197 27.0876 59.1341 26.7792C59.0565 26.6514 59.2662 26.554 59.3429 26.6801C59.529 26.988 59.7158 27.2968 59.9027 27.6039C59.979 27.7321 59.7702 27.8295 59.693 27.703Z" fill="#31344E"/>
<path d="M60.7696 26.7333C60.4625 26.5443 60.1563 26.3553 59.8501 26.1655C59.7231 26.0875 59.8568 25.8985 59.9825 25.9765C60.2892 26.1647 60.5958 26.3545 60.9025 26.5434C61.0295 26.621 60.8966 26.8109 60.7696 26.7333Z" fill="#31344E"/>
<path d="M78.598 24.4762L78.8532 23.7604C77.7974 22.705 77.252 21.1464 77.7291 19.7684L77.0656 19.5317C76.4657 21.2506 77.2115 23.2382 78.598 24.4762Z" fill="#31344E"/>
<path d="M48.3226 9.30445L47.6591 9.06738C47.158 10.437 45.7504 11.3009 44.2661 11.4523L44.0117 12.1677C45.8689 12.0833 47.7021 11.0145 48.3226 9.30445Z" fill="#31344E"/>
<path d="M61.6337 72.1526C59.9064 72.2302 58.2014 73.1607 57.4717 74.6657L58.1403 74.9036C58.7367 73.7365 60.0249 73.0059 61.3785 72.8675C61.3937 72.8262 61.4076 72.7853 61.4224 72.7452L61.6337 72.1526Z" fill="#31344E"/>
<path d="M27.0451 59.844L26.8346 60.4366C26.8198 60.4792 26.8063 60.5176 26.792 60.5598C27.7529 61.5228 28.289 62.9034 28.0144 64.1836L28.6838 64.4215C29.0689 62.7929 28.3346 60.9955 27.0451 59.844Z" fill="#31344E"/>
<path d="M61.2885 45.2339C59.6207 49.9194 54.4696 52.3676 49.7828 50.6993C45.0965 49.0319 42.6504 43.8804 44.3174 39.1945C45.9849 34.5082 51.1364 32.0612 55.8223 33.7282C60.509 35.3965 62.956 40.5472 61.2885 45.2339Z" stroke="#31344E" stroke-width="3" stroke-linecap="round" stroke-linejoin="round"/>
<path d="M14.2334 12.3128C14.551 12.4335 14.9142 12.4976 15.2913 12.5284C15.0179 12.7734 14.7391 13.0139 14.4544 13.2463C14.392 13.2969 14.4561 13.3893 14.5253 13.348C14.8981 13.1227 15.2622 12.8835 15.6228 12.6393C15.5625 13.0767 15.4908 13.5133 15.3849 13.9389C15.3706 13.9942 15.4532 14.0174 15.479 13.9688C15.7009 13.5356 15.8658 13.1071 15.9856 12.6486C16.164 12.892 16.3399 13.1311 16.5052 13.364C16.544 13.4192 16.6474 13.3716 16.6145 13.3075C16.4871 13.0636 16.369 12.8059 16.2534 12.5427C16.6596 12.5254 17.0557 12.4858 17.4092 12.4448C17.4919 12.4356 17.4982 12.3128 17.4155 12.2981C17.0435 12.2301 16.6735 12.1964 16.3015 12.1669C16.6546 11.9037 17.0165 11.5966 17.2388 11.2558C17.3033 11.1566 17.2274 10.9719 17.0886 11.0398C16.7756 11.1925 16.4711 11.4409 16.1986 11.689C16.2762 11.306 16.3323 10.9141 16.2846 10.5412C16.2657 10.3953 16.0699 10.3565 16.0029 10.491C15.851 10.7943 15.7996 11.1288 15.7645 11.4663C15.5169 10.9563 15.2394 10.4682 14.8737 10.0709C14.7417 9.92707 14.5198 10.1127 14.5788 10.2755C14.81 10.9061 15.1913 11.5186 15.6013 12.107C15.1656 12.058 14.7311 11.9665 14.2933 11.983C14.1254 11.991 14.0731 12.2525 14.2334 12.3128Z" fill="#31344E"/>
<path d="M0.398758 40.0637C0.716381 40.1852 1.07871 40.2489 1.45666 40.2801C1.18248 40.5252 0.904925 40.7652 0.619781 40.998C0.557775 41.0487 0.621475 41.141 0.689808 41.0988C1.06353 40.8744 1.42756 40.6353 1.7882 40.3911C1.72746 40.8285 1.65533 41.265 1.54988 41.6907C1.53596 41.7459 1.61864 41.7691 1.6431 41.7198C1.8654 41.287 2.03075 40.858 2.15054 40.3999C2.32812 40.6437 2.50486 40.8829 2.66978 41.1149C2.70859 41.171 2.81193 41.1225 2.77819 41.0588C2.65164 40.8154 2.53354 40.5577 2.41712 40.294C2.82417 40.2767 3.22024 40.2371 3.57288 40.1966C3.65555 40.1873 3.66273 40.0646 3.57921 40.0498C3.20802 39.9819 2.83809 39.9473 2.46605 39.9178C2.8191 39.6554 3.18101 39.3475 3.40331 39.0075C3.467 38.9084 3.39192 38.7236 3.25272 38.7911C2.93889 38.9443 2.63435 39.1923 2.36271 39.4407C2.43948 39.0577 2.49643 38.6659 2.44876 38.293C2.42978 38.147 2.23405 38.1082 2.1674 38.2423C2.01429 38.5461 1.9641 38.8806 1.92867 39.218C1.68107 38.7072 1.40351 38.22 1.03696 37.8214C0.905774 37.6788 0.683062 37.8644 0.742959 38.0272C0.974111 38.6578 1.35542 39.2703 1.76542 39.8579C1.32969 39.8098 0.89481 39.7183 0.457393 39.7347C0.289934 39.7415 0.23847 40.0034 0.398758 40.0637Z" fill="#31344E"/>
<path d="M76.4915 48.186C76.8091 48.3075 77.1714 48.3712 77.5494 48.4011C77.2752 48.647 76.9972 48.8874 76.7121 49.1203C76.6501 49.1705 76.7138 49.2629 76.7825 49.2211C77.1562 48.9954 77.5203 48.7571 77.8809 48.5129C77.8198 48.9503 77.7485 49.3873 77.643 49.8121C77.6287 49.8682 77.7114 49.8901 77.7362 49.842C77.9581 49.4092 78.1239 48.9803 78.2437 48.5213C78.4213 48.7656 78.5976 49.0047 78.7629 49.2371C78.8017 49.2924 78.9051 49.2443 78.8709 49.1802C78.7448 48.9376 78.6267 48.6795 78.5103 48.4154C78.9169 48.399 79.3134 48.3593 79.666 48.3184C79.7483 48.3091 79.7559 48.1873 79.6723 48.1708C79.3007 48.1042 78.9312 48.0696 78.5592 48.04C78.9122 47.7777 79.2737 47.4689 79.4965 47.1285C79.5601 47.0302 79.4846 46.8451 79.3459 46.9125C79.0325 47.0652 78.7279 47.3137 78.4563 47.563C78.533 47.18 78.59 46.7873 78.5419 46.4144C78.5233 46.2689 78.3276 46.2309 78.2605 46.3646C78.1078 46.6683 78.0572 47.0024 78.0218 47.3398C77.7742 46.829 77.4971 46.3418 77.1305 45.9436C76.9985 45.8002 76.7766 45.9862 76.8365 46.1486C77.0677 46.7801 77.449 47.3926 77.859 47.9797C77.4232 47.9312 76.9879 47.8397 76.551 47.8561C76.3826 47.8637 76.3312 48.1257 76.4915 48.186Z" fill="#31344E"/>
<path d="M36.015 8.60373C36.1526 8.51051 36.2884 8.41308 36.425 8.31817C36.5043 8.3207 36.5841 8.32618 36.6642 8.33082C36.3301 9.2356 36.0627 10.1606 36.0779 11.0262C36.0834 11.3337 36.5364 11.4219 36.6651 11.1477C37.0097 10.4112 37.0839 9.57854 37.2539 8.78722C37.2539 8.78469 37.2556 8.78216 37.2556 8.78005C37.6656 9.18035 38.0355 9.61692 38.3152 10.1417C38.4042 10.3091 38.6758 10.172 38.6109 9.99866C38.3869 9.40518 38.0676 8.88973 37.6863 8.40254C38.4455 8.47129 39.2022 8.56492 39.9535 8.68303C40.191 8.72015 40.2639 8.37427 40.029 8.31902C39.2533 8.13258 38.3848 7.9107 37.4969 7.73481C37.5121 7.67196 37.5251 7.60784 37.5407 7.54584C37.8187 7.3518 38.0954 7.15692 38.381 6.97428C38.5417 6.87136 38.3839 6.64653 38.2215 6.73258C38.0334 6.83171 37.8487 6.93884 37.6626 7.04303C37.7386 6.73427 37.8141 6.42719 37.8913 6.11927C37.9355 5.94 37.6462 5.83286 37.5816 6.01044C37.4209 6.4487 37.2261 6.91607 37.0303 7.39609C36.9793 7.42519 36.9283 7.45641 36.8768 7.48594C36.6912 7.29149 36.5039 7.0983 36.3196 6.90258C35.9847 6.54784 35.705 6.12518 35.2301 5.95434C35.0521 5.88981 34.8142 5.98555 34.839 6.21207C34.8985 6.7465 35.2845 7.13879 35.7054 7.47792C35.0322 7.42519 34.3742 7.42688 33.7655 7.53993C33.418 7.60447 33.3273 8.11696 33.7204 8.19626C34.2747 8.30678 34.8475 8.3051 35.419 8.30257C34.7842 8.60627 34.1047 8.87538 33.6082 9.34064C33.4559 9.48279 33.6057 9.73292 33.793 9.72069C34.6151 9.66923 35.3545 9.0517 36.015 8.60373Z" fill="#31344E"/>
<path d="M2.77268 45.9141C2.90134 46.6451 3.18985 47.3437 3.39612 48.0671C2.8292 47.8131 2.26102 47.5626 1.69748 47.3019C1.52665 47.2222 1.37987 47.4866 1.53804 47.5887C2.13828 47.9793 2.74484 48.3598 3.34887 48.7436C2.5622 48.9145 1.77088 49.0596 0.966912 49.0663C0.732386 49.0672 0.678817 49.4012 0.923467 49.4358C1.63169 49.5358 2.38377 49.5847 3.14472 49.5763C2.89796 50.0129 2.66934 50.4591 2.48754 50.9316C2.39938 51.1593 2.7305 51.2821 2.83427 51.0695C3.07892 50.5675 3.37756 50.1027 3.69771 49.6505C3.7943 50.4098 3.8521 51.1749 3.90356 51.9367C3.91663 52.1464 4.26589 52.1405 4.27222 51.93C4.29752 51.1256 4.29542 50.3216 4.27053 49.5185C4.33928 49.5122 4.40762 49.5046 4.47806 49.4974C5.09854 49.9601 5.75657 50.5017 6.4631 50.6616C6.70479 50.7169 6.91612 50.4077 6.8035 50.1972C6.60145 49.8176 6.24924 49.5206 5.85443 49.2743C6.28552 49.1781 6.70986 49.0621 7.10889 48.9145C7.44887 48.7892 7.36662 48.2164 7.00092 48.2025C6.17796 48.1742 5.36598 48.3096 4.55526 48.4808C4.5696 48.461 4.58352 48.442 4.59913 48.4222C5.06354 47.7882 5.66926 47.0079 5.73126 46.1997C5.75573 45.877 5.28626 45.6235 5.09729 45.9496C4.75309 46.5439 4.48987 47.1762 4.17816 47.7912C4.10223 47.0087 3.94153 46.1689 3.46826 45.6058C3.22192 45.3135 2.70351 45.5193 2.77268 45.9141Z" fill="#31344E"/>
<path d="M31.6054 1.60292C31.7522 0.890485 31.2815 0.173411 30.5686 0.0270429C29.8579 -0.120591 29.1408 0.35184 28.9936 1.06386C28.8468 1.77587 29.3188 2.49252 30.0304 2.63931C30.742 2.78568 31.4591 2.31367 31.6054 1.60292Z" fill="#31344E"/>
<path d="M38.6102 2.57012C38.7102 2.08377 38.3888 1.5949 37.9012 1.49408C37.4148 1.39327 36.9251 1.71512 36.8251 2.20188C36.7243 2.68823 37.0466 3.17795 37.5338 3.27834C38.0201 3.37916 38.5102 3.05647 38.6102 2.57012Z" fill="#31344E"/>
<path d="M22.9714 8.38485C23.0853 7.83523 22.7208 7.28309 22.1721 7.17005C21.6225 7.05616 21.0699 7.42018 20.9564 7.96938C20.8425 8.51899 21.207 9.07156 21.7557 9.18503C22.3045 9.29849 22.8579 8.93447 22.9714 8.38485Z" fill="#31344E"/>
<path d="M75.2244 55.5619C76.1161 55.7213 76.3629 54.3386 75.4712 54.1796C74.5803 54.0197 74.3335 55.4028 75.2244 55.5619Z" fill="#31344E"/>
<path d="M78.1935 52.6231C79.0886 52.783 79.3358 51.3965 78.4411 51.2362C77.5469 51.0763 77.2989 52.4637 78.1935 52.6231Z" fill="#31344E"/>
<path d="M73.649 53.1848C74.5441 53.345 74.7913 51.9573 73.8975 51.7983C73.0028 51.638 72.7552 53.0257 73.649 53.1848Z" fill="#31344E"/>
<path d="M0.355777 45.3288C0.416517 45.7249 1.03152 45.6312 0.970354 45.2347C0.910035 44.8391 0.295036 44.9327 0.355777 45.3288Z" fill="#31344E"/>
<path d="M51.2607 4.6269C51.4902 4.95634 52.001 4.60117 51.7715 4.27216C51.5429 3.94357 51.0321 4.29873 51.2607 4.6269Z" fill="#31344E"/>
<path d="M0.925028 34.8529C0.922919 34.8466 0.921239 34.8398 0.918708 34.8339C0.778245 34.3876 0.000845241 34.507 1.62124e-06 34.9744C1.62124e-06 34.9807 0.000845241 34.9875 1.62124e-06 34.9942C-0.000420189 35.206 0.0814184 35.4274 0.302869 35.5025C0.470749 35.5586 0.618373 35.5506 0.765163 35.4447C0.772334 35.4392 0.779927 35.4333 0.787098 35.4283C0.976491 35.2903 0.988722 35.0545 0.925028 34.8529Z" fill="#31344E"/>
<path d="M53.9873 5.09169C53.9822 5.08705 53.9784 5.0824 53.9738 5.07776C53.6515 4.73862 53.0057 5.18827 53.2116 5.60839C53.2137 5.61472 53.2179 5.61979 53.2204 5.62569C53.3137 5.8172 53.4845 5.97959 53.7161 5.9488C53.8903 5.92518 54.0206 5.85347 54.105 5.69402C54.1092 5.68559 54.1138 5.67673 54.1176 5.66871C54.2269 5.46245 54.1341 5.2448 53.9873 5.09169Z" fill="#31344E"/>
<path d="M18.6007 8.17615C18.6834 7.77585 18.3105 7.52741 17.9553 7.6046C17.9271 7.61135 17.8984 7.61641 17.8701 7.62274C17.5517 7.69234 17.4458 8.20483 17.7107 8.39465C17.7347 8.41026 17.7579 8.42755 17.7811 8.44443C18.0781 8.65618 18.518 8.5756 18.6007 8.17615Z" fill="#31344E"/>
<path d="M25.7248 7.30618C26.1787 7.40024 26.6351 7.09991 26.7291 6.64562C26.8224 6.19259 26.522 5.73535 26.0686 5.64128C25.6147 5.54806 25.1583 5.84756 25.0651 6.30269C24.971 6.75614 25.2718 7.21296 25.7248 7.30618Z" fill="#31344E"/>
<path d="M79.1945 40.6736C79.6484 40.7672 80.1048 40.4669 80.1989 40.013C80.2921 39.5588 79.9918 39.1024 79.5383 39.0087C79.0845 38.9146 78.6281 39.215 78.5348 39.6688C78.4408 40.1231 78.7411 40.5804 79.1945 40.6736Z" fill="#31344E"/>
<path d="M25.4613 10.0127C25.5469 9.59426 24.8973 9.45971 24.8117 9.87899C24.7248 10.2991 25.3744 10.432 25.4613 10.0127Z" fill="#31344E"/>
<path d="M44.0521 3.69011C44.7122 3.80864 44.8961 2.78448 44.2352 2.66595C43.5742 2.54784 43.3915 3.57285 44.0521 3.69011Z" fill="#31344E"/>
<path d="M13.7427 75.806C14.1337 77.8881 14.5467 80.0853 17.14 79.4749L51.4243 73.0356C54.0614 72.6627 53.6489 70.4655 53.2579 68.3847L43.2036 14.8524C42.8126 12.7703 42.3997 10.5731 39.8076 11.1835L5.52291 17.6228C2.88533 17.9949 3.29786 20.1921 3.68846 22.2737L13.7427 75.806Z" fill="white"/>
<path d="M13.3348 75.9178C13.6385 77.5296 14.008 79.6563 15.9403 79.9706C16.5617 80.0714 17.2058 79.89 17.8191 79.7744C19.7763 79.4071 21.7326 79.0397 23.6898 78.6723C30.1904 77.4511 36.6913 76.23 43.1922 75.0088C45.5156 74.5727 47.8389 74.1365 50.1618 73.7C50.606 73.6169 51.0497 73.5333 51.4939 73.4498C52.9875 73.1693 53.8493 72.3531 53.961 70.8131C54.056 69.5055 53.6227 68.0595 53.3785 66.7587C53.025 64.8774 52.672 62.9957 52.3185 61.1144C49.9581 48.5487 47.5985 35.983 45.2384 23.4168C44.6795 20.441 44.1223 17.4651 43.5613 14.4896C43.2779 12.9867 42.7957 10.7832 40.8913 10.6718C40.2729 10.636 39.6701 10.7807 39.0657 10.8941C37.073 11.2683 35.0808 11.6424 33.0886 12.0166C26.583 13.2386 20.0775 14.4601 13.5723 15.6821C11.2798 16.1128 8.98765 16.5434 6.69553 16.9741C6.27541 17.0526 5.85529 17.1319 5.43516 17.2107C3.8441 17.5094 3.00892 18.4458 2.9777 20.0706C2.95282 21.3432 3.34131 22.7137 3.57836 23.9749C3.93648 25.8802 4.29417 27.7851 4.65186 29.69C5.81859 35.9016 6.98489 42.1127 8.15162 48.3239C9.87935 57.5223 11.6071 66.7203 13.3348 75.9178C13.4348 76.4523 14.248 76.2249 14.1481 75.6939C12.395 66.3579 10.6411 57.022 8.88768 47.6865C7.72896 41.5154 6.56984 35.3443 5.41113 29.1733C5.06229 27.316 4.71345 25.4584 4.36461 23.6012C4.09803 22.1818 3.55009 20.5042 3.95672 19.1203C4.32074 17.8801 7.26413 17.7228 8.34776 17.5195C11.0347 17.015 13.7221 16.5101 16.409 16.0052C22.7711 14.8106 29.1337 13.6157 35.4959 12.4207C36.9503 12.1478 38.4055 11.874 39.8599 11.6011C42.1234 11.1759 42.4629 13.2002 42.7957 14.9646C42.8358 15.1776 42.8755 15.3902 42.9155 15.6028C43.695 19.753 44.4741 23.9032 45.2536 28.0534C47.5491 40.2766 49.845 52.4989 52.1405 64.7217C52.3658 65.9218 52.591 67.1214 52.8167 68.321C53.0137 69.3697 53.2967 70.487 52.9879 71.5378C52.7112 72.4801 51.623 72.5708 50.7992 72.7256C45.7028 73.6831 40.6061 74.6398 35.5098 75.5973C30.8226 76.4776 26.1355 77.3579 21.4488 78.2382C20.1639 78.4795 18.8791 78.7212 17.5947 78.962C17.4053 78.9979 17.2159 79.0333 17.0261 79.0692C14.8036 79.4864 14.4695 77.4026 14.1476 75.6947C14.0473 75.1598 13.234 75.3868 13.3348 75.9178Z" fill="#31344E"/>
<path d="M30.429 44.9774C36.1011 42.4609 41.7728 39.9444 47.4444 37.4287L47.3563 36.9618C41.5699 39.5298 35.7826 42.0965 29.9967 44.664C34.9766 40.5944 39.956 36.5244 44.9363 32.4552C45.391 32.0831 45.8458 31.7111 46.3005 31.3399L46.2026 30.8219C40.6744 35.3391 35.1461 39.8579 29.6179 44.3768C33.267 39.0388 36.9173 33.7016 40.5664 28.364C41.92 26.3845 43.2727 24.4058 44.6263 22.4254L44.5057 21.7834C43.5507 23.1796 42.5966 24.5753 41.6416 25.9711C37.5774 31.9152 33.5141 37.8585 29.4496 43.8027C31.7299 37.8851 34.0102 31.9675 36.2905 26.0504C38.1583 21.2029 40.0265 16.3563 41.8947 11.5085C41.7744 11.4085 41.6416 11.3233 41.4952 11.2571C39.9248 15.3335 38.354 19.409 36.7832 23.4849C34.1637 30.2841 31.5426 37.0841 28.9219 43.8837C29.5651 37.4861 30.2084 31.0889 30.8525 24.6917C31.2562 20.6736 31.6607 16.655 32.0644 12.6381L31.5894 12.7262C31.2769 15.846 30.963 18.9652 30.6492 22.0841C29.9161 29.373 29.1838 36.6614 28.4507 43.9499C27.257 37.5953 26.0629 31.2403 24.87 24.8858C24.2103 21.3772 23.5518 17.869 22.893 14.3608L22.4378 14.4451C22.9381 17.1076 23.4384 19.7705 23.9382 22.433C25.2673 29.5097 26.5969 36.5868 27.9256 43.6635C25.3534 37.8661 22.7812 32.0679 20.2094 26.2706C18.6525 22.7611 17.0948 19.2512 15.5379 15.7409L15.0705 15.8291C16.2963 18.5907 17.5216 21.3523 18.7466 24.1139C21.7005 30.7734 24.6561 37.4334 27.6109 44.0937C23.5413 39.1147 19.4721 34.1361 15.4037 29.1558C12.241 25.2865 9.07911 21.4176 5.9168 17.5484L5.5241 17.6226C5.48023 17.6289 5.4393 17.6365 5.39712 17.6429C8.0714 20.9157 10.7453 24.1889 13.4195 27.4601C18.054 33.1313 22.6888 38.8017 27.3232 44.4729C21.9865 40.823 16.6493 37.1735 11.3122 33.5244C9.20523 32.0844 7.09871 30.6435 4.99219 29.2038L5.11283 29.8463C6.38163 30.7143 7.65086 31.5812 8.91966 32.4493C14.863 36.5134 20.8071 40.5775 26.7508 44.6417C20.8337 42.3618 14.9153 40.0806 8.99812 37.8003C8.13889 37.4692 7.27882 37.1381 6.41959 36.807L6.51956 37.3418C13.2909 39.9511 20.0609 42.5596 26.831 45.1693C20.4347 44.5261 14.0371 43.8828 7.64073 43.2387C7.63567 43.2387 7.63146 43.2379 7.62724 43.2379L7.71624 43.7124C14.1105 44.3548 20.5038 44.9985 26.8981 45.6414C20.8388 46.779 14.7799 47.9174 8.71973 49.0559L8.8045 49.5098C14.7398 48.3949 20.6755 47.2814 26.6108 46.1657C20.9387 48.683 15.2666 51.1987 9.5954 53.7152L9.68271 54.1817C15.4695 51.615 21.2559 49.0475 27.0419 46.4803C22.0624 50.5491 17.0838 54.6192 12.1039 58.6884C11.6479 59.0608 11.1932 59.432 10.7385 59.8041L10.8355 60.322C16.3642 55.804 21.8929 51.286 27.4211 46.768C23.772 52.1048 20.1221 57.4428 16.473 62.7799C15.1194 64.7591 13.7658 66.739 12.4131 68.7173L12.5337 69.3606C13.4883 67.9644 14.4428 66.5682 15.3974 65.172C19.4615 59.2287 23.5248 53.2854 27.589 47.3408C25.3091 53.2588 23.0288 59.1764 20.7485 65.0936C18.9229 69.8305 17.0969 74.5682 15.2713 79.3052C15.4008 79.3836 15.5421 79.4456 15.6965 79.4903C17.2162 75.546 18.736 71.6025 20.2562 67.659C22.8765 60.859 25.4972 54.0573 28.1183 47.2569C27.4747 53.6545 26.831 60.0533 26.1877 66.4514C25.8018 70.2983 25.4146 74.1456 25.0273 77.9925L25.501 77.9035C25.7975 74.9551 26.0941 72.007 26.391 69.0598C27.1233 61.7718 27.8568 54.4825 28.5899 47.1945C29.7832 53.549 30.9765 59.9032 32.1694 66.2569C32.7975 69.6035 33.426 72.9498 34.0553 76.2956L34.51 76.2108C34.041 73.7107 33.5702 71.2102 33.1012 68.7097C31.7725 61.6339 30.4429 54.5576 29.1138 47.4817C31.6864 53.2782 34.2586 59.0756 36.83 64.8729C38.3186 68.2272 39.808 71.5814 41.2953 74.9365L41.7626 74.8492C40.606 72.2428 39.4498 69.636 38.2928 67.0297C35.338 60.3689 32.3829 53.7076 29.4272 47.0468C33.4973 52.0271 37.5669 57.0066 41.6369 61.9865C44.6799 65.7098 47.7228 69.434 50.7666 73.1581L51.2846 73.0603C48.7297 69.9347 46.1756 66.8091 43.6207 63.6834C38.9859 58.0114 34.3502 52.3401 29.7149 46.668C35.0529 50.318 40.3909 53.9679 45.7285 57.6178C47.835 59.0583 49.9411 60.4975 52.0485 61.9388L51.927 61.2956C50.6586 60.4275 49.3902 59.5607 48.1218 58.6934C42.1777 54.6293 36.2344 50.5647 30.2911 46.501C36.2078 48.7809 42.1254 51.0612 48.0425 53.3423C48.9018 53.6735 49.761 54.0042 50.6202 54.3353L50.5194 53.8009C43.7485 51.1915 36.9776 48.5814 30.2067 45.9725C36.6047 46.6153 43.0028 47.259 49.4008 47.9023C49.4041 47.9031 49.4092 47.9031 49.4126 47.9039L49.3227 47.4294C42.9302 46.787 36.5373 46.1433 30.1443 45.5009C36.2023 44.3629 42.2608 43.2252 48.3201 42.0868L48.2341 41.6321C42.2992 42.7482 36.3647 43.8626 30.429 44.9774Z" fill="#31344E"/>
<path d="M50.5066 70.9632C50.4589 70.9721 50.4092 70.9797 50.3577 70.9868C50.3434 70.9894 50.3295 70.9919 50.3147 70.994L17.4312 77.1702C17.4169 77.1735 17.4038 77.1756 17.3899 77.1794C17.3397 77.1904 17.2899 77.2018 17.2418 77.2106C16.0827 77.4279 15.7305 76.9272 15.2543 74.3904L5.61085 23.0447C5.44381 22.1585 5.2717 21.2415 5.38939 20.6008C5.45645 20.2296 5.59354 19.8542 6.43843 19.6952C6.48736 19.6859 6.53671 19.6779 6.58901 19.6707C6.60293 19.669 6.61644 19.6665 6.62993 19.6639L39.5147 13.4874C39.5277 13.4848 39.5421 13.4819 39.5556 13.4789C39.6066 13.4671 39.6556 13.4557 39.7045 13.4465C40.8615 13.2296 41.215 13.7303 41.6908 16.2675L51.3355 67.6132C51.5012 68.5003 51.6738 69.416 51.5565 70.058C51.489 70.4288 51.3528 70.8038 50.5066 70.9632Z" fill="#31344E"/>
<path d="M40.7019 43.2832C41.9661 50.0124 37.5358 56.4918 30.8067 57.7564C24.0776 59.0193 17.5986 54.5898 16.3344 47.8607C15.0706 41.1311 19.5009 34.6517 26.23 33.388C32.9592 32.1246 39.4382 36.5549 40.7019 43.2832Z" fill="#31344E" stroke="white" stroke-width="2" stroke-miterlimit="10" stroke-linecap="round" stroke-linejoin="round"/>
<path d="M39.6092 43.4892C40.7595 49.6147 36.7266 55.512 30.6019 56.6619C24.4759 57.813 18.579 53.7796 17.4283 47.6554C16.2781 41.5299 20.3106 35.6317 26.4357 34.4814C32.5608 33.3307 38.4581 37.3641 39.6092 43.4892Z" fill="white" stroke="#31344E" stroke-width="2" stroke-miterlimit="10" stroke-linecap="round" stroke-linejoin="round"/>
<path d="M12.2091 25.4438C14.0174 24.1636 16.8663 23.8941 18.4123 25.7078C18.4123 25.7078 17.8559 23.6292 15.7013 22.5717C13.5475 21.5138 11.8708 21.5011 10.2372 22.6569C8.60308 23.8131 8.05936 25.3995 8.33987 27.7823C8.62037 30.1655 10.3975 31.3812 10.3975 31.3812C9.19995 29.3202 10.4008 26.7231 12.2091 25.4438Z" fill="white"/>
<path d="M12.4211 25.8083C14.1551 24.6458 16.5843 24.3497 18.113 26.0066C18.4032 26.3212 18.9296 25.9943 18.8178 25.5961C17.7886 21.9433 12.6872 20.0751 9.7118 22.5275C6.96624 24.7905 7.28091 29.7054 10.1834 31.7461C10.552 32.0051 10.9426 31.5158 10.7604 31.1691C9.74216 29.2305 10.787 27.0337 12.4211 25.8083C12.8509 25.486 12.4308 24.7534 11.9951 25.0798C9.97922 26.5916 8.78255 29.2153 10.0324 31.5947C10.2247 31.4024 10.4171 31.21 10.6094 31.0177C8.22702 29.3418 7.98912 25.2304 10.0969 23.2977C12.5687 21.0313 17.123 22.6911 18.0046 25.8197C18.2395 25.683 18.4745 25.5464 18.7094 25.4093C16.9361 23.4867 14.0383 23.7098 11.9951 25.0794C11.5454 25.381 11.9672 26.112 12.4211 25.8083Z" fill="white"/>
<path d="M10.9958 23.0331C9.44906 24.1129 8.52108 25.8465 8.96102 27.7392C8.96524 27.7573 8.99267 27.7485 8.99267 27.7316C8.98676 25.9482 9.72408 24.3436 11.165 23.2722C11.3168 23.16 11.1511 22.9251 10.9958 23.0331Z" fill="#31344E"/>
<path d="M10.7236 24.087C10.381 24.2924 10.1102 24.5843 9.87656 24.9066C9.71669 25.1263 9.47626 25.4883 9.53152 25.7675C9.53405 25.7797 9.54544 25.7856 9.55725 25.7793C9.80401 25.6388 9.91368 25.3031 10.0879 25.0799C10.3254 24.7741 10.5886 24.5071 10.8547 24.2283C10.9357 24.1439 10.8121 24.033 10.7236 24.087Z" fill="#31344E"/>
<path d="M14.1913 23.5382C13.9867 23.6833 14.2103 24 14.4153 23.8549C14.6194 23.7107 14.3959 23.3935 14.1913 23.5382Z" fill="#31344E"/>
<path d="M14.7153 23.2019C14.8439 23.1112 14.7026 22.913 14.574 23.0032C14.4457 23.0939 14.587 23.2934 14.7153 23.2019Z" fill="#31344E"/>
<path d="M14.8061 23.5719C14.9529 23.6685 15.1317 23.4812 14.9866 23.3614C14.8478 23.2467 14.6665 23.4795 14.8061 23.5719Z" fill="#31344E"/>
<path d="M15.8393 23.6089C15.7195 23.6941 15.8511 23.8793 15.9705 23.7949C16.0907 23.7097 15.9591 23.5233 15.8393 23.6089Z" fill="#31344E"/>
<path d="M13.6606 23.151C13.5408 23.2362 13.6724 23.4222 13.7917 23.337C13.9124 23.2518 13.7804 23.0658 13.6606 23.151Z" fill="#31344E"/>
<path d="M36.4097 20.8985C34.2597 20.362 31.507 21.1445 30.7249 23.3961C30.7249 23.3961 30.4883 21.2567 32.1123 19.4897C33.7362 17.7232 35.294 17.1022 37.2356 17.5869C39.1772 18.072 40.2604 19.3522 40.8636 21.6742C41.4659 23.9963 40.2519 25.7751 40.2519 25.7751C40.6198 23.4197 38.558 21.4347 36.4097 20.8985Z" fill="white"/>
<path d="M36.5205 20.4919C34.0571 19.9402 31.2892 20.7922 30.3174 23.2839C30.5932 23.3214 30.8699 23.3585 31.1458 23.396C30.8307 20.1165 34.2491 17.206 37.3823 18.0648C40.3164 18.8692 41.489 23.1366 39.887 25.562C40.1489 25.6329 40.4109 25.7042 40.6728 25.7751C40.9664 23.17 38.8826 21.1512 36.5205 20.4919C35.9958 20.3451 35.7731 21.1592 36.2965 21.3051C38.328 21.8729 40.0819 23.5344 39.8292 25.7755C39.7786 26.2247 40.4058 26.3053 40.615 25.9885C42.5925 22.9953 40.9744 18.3487 37.6063 17.2515C33.9943 16.0751 29.9462 19.6917 30.3022 23.396C30.3486 23.8803 30.9556 23.9575 31.1306 23.5082C31.927 21.4671 34.3267 20.8648 36.2965 21.3051C36.8263 21.4237 37.0516 20.6104 36.5205 20.4919Z" fill="white"/>
<path d="M36.6668 18.2119C38.5004 18.6574 39.9944 19.9355 40.2703 21.8589C40.2732 21.8779 40.2446 21.8796 40.2387 21.864C39.5971 20.1999 38.3279 18.9712 36.5959 18.4963C36.4137 18.4461 36.4833 18.1668 36.6668 18.2119Z" fill="#31344E"/>
<path d="M37.3032 19.0945C37.6976 19.162 38.0553 19.3353 38.3902 19.5509C38.6188 19.6985 38.9744 19.9478 39.0242 20.2279C39.0259 20.2401 39.017 20.2498 39.0044 20.2481C38.723 20.2064 38.499 19.9339 38.2557 19.7888C37.9237 19.5905 37.5816 19.437 37.2324 19.2737C37.1261 19.2248 37.2007 19.0768 37.3032 19.0945Z" fill="#31344E"/>
<path d="M33.8713 19.8415C34.1142 19.9022 34.021 20.2789 33.7776 20.2186C33.5347 20.1574 33.6287 19.7812 33.8713 19.8415Z" fill="#31344E"/>
<path d="M33.2611 19.7182C33.1085 19.6807 33.1671 19.444 33.3206 19.4816C33.4725 19.5195 33.4134 19.7562 33.2611 19.7182Z" fill="#31344E"/>
<path d="M33.3102 20.0953C33.2094 20.2396 32.9736 20.1295 33.066 19.9658C33.1541 19.8089 33.4064 19.9595 33.3102 20.0953Z" fill="#31344E"/>
<path d="M32.3614 20.5048C32.504 20.5402 32.4488 20.7617 32.3062 20.7262C32.1632 20.6912 32.2184 20.4694 32.3614 20.5048Z" fill="#31344E"/>
<path d="M34.2257 19.2886C34.3674 19.324 34.313 19.5451 34.1704 19.5088C34.0274 19.4733 34.0827 19.2527 34.2257 19.2886Z" fill="#31344E"/>
<path d="M20.4959 69.5628C22.6446 70.0994 25.3977 69.3169 26.1802 67.0653C26.1802 67.0653 26.416 69.2047 24.7929 70.9717C23.1685 72.7386 21.6111 73.3595 19.6691 72.8749C17.7267 72.3902 16.6443 71.1096 16.0412 68.7875C15.438 66.4642 16.6519 64.6863 16.6519 64.6863C16.285 67.0417 18.3468 69.0259 20.4959 69.5628Z" fill="white"/>
<path d="M20.3832 69.9694C22.8466 70.5212 25.6136 69.6683 26.5859 67.1775C26.31 67.1404 26.0333 67.1028 25.7575 67.0653C26.0713 70.3457 22.6551 73.2549 19.521 72.397C16.5873 71.5938 15.4134 67.3238 17.0159 64.8993C16.7539 64.8284 16.492 64.7571 16.2301 64.6863C15.9365 67.2922 18.0206 69.3093 20.3832 69.9694C20.9079 70.1162 21.1302 69.3021 20.6072 69.1562C18.5753 68.5884 16.8206 66.9273 17.0733 64.6858C17.1239 64.2366 16.4966 64.1565 16.2874 64.4728C14.3096 67.4651 15.9293 72.1143 19.297 73.2102C22.9098 74.3858 26.9558 70.77 26.6011 67.0653C26.5547 66.5806 25.9477 66.5038 25.7727 66.9531C24.9759 68.9934 22.5766 69.597 20.6072 69.1562C20.0774 69.0377 19.8521 69.8509 20.3832 69.9694Z" fill="white"/>
<path d="M20.2386 72.2493C18.4045 71.8039 16.9113 70.5262 16.635 68.6023C16.6317 68.5825 16.6604 68.5817 16.6663 68.5973C17.3083 70.2613 18.5779 71.4888 20.3094 71.965C20.4908 72.0152 20.4221 72.2944 20.2386 72.2493Z" fill="#31344E"/>
<path d="M19.6013 71.3673C19.2077 71.2994 18.85 71.1261 18.5151 70.9105C18.2865 70.7633 17.9309 70.5136 17.8811 70.2339C17.879 70.2213 17.8887 70.2107 17.901 70.2133C18.1819 70.2542 18.4055 70.5267 18.6497 70.6722C18.9808 70.8709 19.3233 71.0244 19.673 71.1868C19.7789 71.2366 19.7038 71.3838 19.6013 71.3673Z" fill="#31344E"/>
<path d="M23.0329 70.6199C22.7895 70.5592 22.8832 70.1825 23.127 70.2428C23.3687 70.304 23.2755 70.6807 23.0329 70.6199Z" fill="#31344E"/>
<path d="M23.6426 70.7424C23.7957 70.7804 23.7366 71.0174 23.5835 70.9786C23.4304 70.9411 23.4899 70.7044 23.6426 70.7424Z" fill="#31344E"/>
<path d="M23.5928 70.365C23.6945 70.2216 23.9294 70.3313 23.8379 70.4954C23.7489 70.6523 23.4966 70.5009 23.5928 70.365Z" fill="#31344E"/>
<path d="M24.5435 69.9565C24.4005 69.9202 24.4558 69.6996 24.5987 69.735C24.7413 69.77 24.6861 69.9919 24.5435 69.9565Z" fill="#31344E"/>
<path d="M22.6792 71.1724C22.5362 71.137 22.5915 70.9164 22.7345 70.9518C22.8762 70.9873 22.821 71.2087 22.6792 71.1724Z" fill="#31344E"/>
<path d="M44.6978 65.0179C42.89 66.2973 40.0411 66.5676 38.4951 64.753C38.4951 64.753 39.0515 66.833 41.2057 67.89C43.3603 68.9471 45.037 68.9606 46.6702 67.8048C48.3035 66.6478 48.8484 65.0613 48.5675 62.6785C48.2862 60.2957 46.5104 59.0801 46.5104 59.0801C47.7079 61.1406 46.5061 63.7381 44.6978 65.0179Z" fill="white"/>
<path d="M44.4849 64.6535C42.7504 65.8156 40.3217 66.1117 38.7934 64.4544C38.5028 64.1393 37.9768 64.4671 38.0886 64.8648C39.117 68.5169 44.2196 70.3889 47.1946 67.9343C49.9393 65.6696 49.6259 60.7572 46.7235 58.7152C46.3548 58.4558 45.9642 58.9456 46.1464 59.2923C47.1643 61.2314 46.119 63.4281 44.4849 64.6535C44.0551 64.9758 44.4752 65.7084 44.9109 65.382C46.9264 63.8702 48.1243 61.2461 46.8745 58.8667C46.6821 59.059 46.4898 59.2514 46.2974 59.4437C48.6798 61.1208 48.9165 65.2301 46.8091 67.1637C44.3381 69.4318 39.783 67.7694 38.9018 64.6413C38.6669 64.7779 38.4319 64.9146 38.197 65.0517C39.9699 66.9747 42.8673 66.7516 44.9109 65.3824C45.3602 65.0808 44.9384 64.3498 44.4849 64.6535Z" fill="white"/>
<path d="M45.9121 67.428C47.4606 66.3477 48.3873 64.6145 47.9474 62.7218C47.9427 62.7029 47.9161 62.7126 47.9161 62.729C47.9216 64.5129 47.1847 66.1174 45.7434 67.1888C45.592 67.3006 45.7577 67.5364 45.9121 67.428Z" fill="#31344E"/>
<path d="M46.1856 66.3753C46.5277 66.1695 46.7981 65.8767 47.0322 65.5553C47.1925 65.3347 47.4329 64.9737 47.3768 64.6936C47.3743 64.6822 47.3633 64.6763 47.3511 64.683C47.1043 64.8231 46.9938 65.1584 46.8205 65.382C46.5826 65.6882 46.3202 65.9544 46.0536 66.2332C45.9726 66.318 46.0966 66.4281 46.1856 66.3753Z" fill="#31344E"/>
<path d="M42.7165 66.9231C42.9215 66.7785 42.6975 66.4608 42.4929 66.6059C42.2884 66.751 42.5128 67.0674 42.7165 66.9231Z" fill="#31344E"/>
<path d="M42.1934 67.2598C42.0648 67.3505 42.2057 67.5492 42.3343 67.4585C42.463 67.3678 42.3221 67.1683 42.1934 67.2598Z" fill="#31344E"/>
<path d="M42.1018 66.8898C41.955 66.7919 41.7758 66.9805 41.9209 67.0994C42.0605 67.2141 42.2402 66.9821 42.1018 66.8898Z" fill="#31344E"/>
<path d="M41.0689 66.852C41.1887 66.7681 41.0571 66.5816 40.9368 66.6672C40.8171 66.752 40.9491 66.9381 41.0689 66.852Z" fill="#31344E"/>
<path d="M43.2471 67.3109C43.3669 67.2257 43.2357 67.0397 43.1159 67.1253C42.9957 67.2092 43.1273 67.3952 43.2471 67.3109Z" fill="#31344E"/>
<path d="M13.6659 41.1171C13.6659 41.1137 13.6646 41.1116 13.6638 41.1091C13.6579 41.0842 13.6448 41.061 13.6182 41.0429C12.9425 40.5928 12.3127 40.0006 12.1233 39.1835C12.0896 39.0376 11.8749 39.0777 11.8964 39.2261C12.0162 40.0571 11.6442 40.8366 11.1777 41.5018C11.1427 41.552 11.1561 41.6271 11.208 41.6617C11.8838 42.1118 12.5131 42.704 12.7029 43.5214C12.7367 43.6674 12.9514 43.6273 12.9299 43.4788C12.8101 42.6479 13.1821 41.8684 13.6478 41.2036C13.6668 41.177 13.671 41.1496 13.6668 41.1243C13.6659 41.1222 13.6668 41.1201 13.6659 41.1171Z" fill="white"/>
<path d="M16.0328 53.7155C16.0319 53.7121 16.0302 53.71 16.0294 53.7066C16.0239 53.6822 16.0112 53.6594 15.9838 53.6412C15.3081 53.1916 14.6792 52.599 14.4889 51.7819C14.456 51.636 14.2409 51.6769 14.262 51.8245C14.3826 52.6555 14.0098 53.4358 13.5441 54.0993C13.5086 54.1508 13.5226 54.2254 13.574 54.2605C14.2498 54.7101 14.8795 55.3028 15.0685 56.1198C15.1022 56.2658 15.3178 56.2257 15.2963 56.078C15.1756 55.2471 15.5481 54.4667 16.0138 53.8019C16.0336 53.7754 16.0365 53.7484 16.0328 53.7239C16.0328 53.721 16.0336 53.7176 16.0328 53.7155Z" fill="white"/>
<path d="M14.3867 47.6139C14.3858 47.6123 14.385 47.6106 14.3841 47.6089C14.3807 47.5941 14.3723 47.5798 14.3567 47.5675C13.9421 47.2921 13.5561 46.9281 13.4388 46.427C13.4194 46.338 13.287 46.3624 13.2997 46.4531C13.3739 46.9635 13.1453 47.4418 12.8597 47.8497C12.8365 47.8809 12.8454 47.9278 12.8778 47.948C13.2912 48.2247 13.6784 48.5883 13.7949 49.0894C13.816 49.1784 13.9475 49.154 13.9341 49.0633C13.8607 48.5533 14.0893 48.0746 14.3748 47.6662C14.3867 47.6502 14.3883 47.6338 14.3867 47.619C14.3867 47.6169 14.3867 47.6161 14.3867 47.6139Z" fill="white"/>
<path d="M11.9307 34.5416C11.9307 34.5399 11.9298 34.5386 11.9294 34.5361C11.926 34.5213 11.9176 34.507 11.9012 34.4956C11.4865 34.2197 11.1001 33.8561 10.9841 33.3542C10.9635 33.2652 10.8314 33.2905 10.8445 33.3807C10.9179 33.8899 10.6893 34.3694 10.4037 34.7769C10.3818 34.8086 10.3907 34.8545 10.4219 34.8756C10.8365 35.1511 11.2229 35.5151 11.3397 36.0162C11.3604 36.106 11.4924 36.0807 11.4793 35.99C11.4051 35.4805 11.6337 35.0022 11.9201 34.5934C11.9307 34.577 11.9332 34.5605 11.9307 34.5458C11.9307 34.5445 11.9315 34.5432 11.9307 34.5416Z" fill="white"/>
<path d="M13.2102 45.6337C12.9529 45.6818 13.028 46.0825 13.2861 46.0332C13.5439 45.9851 13.4688 45.5852 13.2102 45.6337Z" fill="white"/>
<path d="M13.173 45.4342C13.3274 45.4051 13.2827 45.1651 13.1279 45.1946C12.9735 45.2238 13.0186 45.4633 13.173 45.4342Z" fill="white"/>
<path d="M12.9522 44.2521C13.2095 44.2032 13.1352 43.8046 12.8771 43.8526C12.6185 43.9016 12.694 44.301 12.9522 44.2521Z" fill="white"/>
<path d="M12.9895 44.4517C12.8347 44.4808 12.8798 44.7208 13.035 44.6912C13.1886 44.663 13.1439 44.4226 12.9895 44.4517Z" fill="white"/>
<path d="M13.0592 44.8727C12.9668 44.89 12.9938 45.0338 13.0866 45.0165C13.1802 44.9992 13.1524 44.8545 13.0592 44.8727Z" fill="white"/>
<path d="M16.8496 60.7301C16.8496 60.7284 16.8487 60.7276 16.8483 60.7259C16.8449 60.7103 16.8365 60.6964 16.8201 60.685C16.4063 60.4083 16.0199 60.0455 15.903 59.5435C15.8824 59.4541 15.7512 59.4799 15.7634 59.5701C15.8377 60.0792 15.609 60.5588 15.3226 60.9663C15.3007 60.9971 15.3096 61.0439 15.3416 61.0646C15.7554 61.3413 16.1426 61.7041 16.2586 62.2056C16.2793 62.2946 16.4113 62.2697 16.3983 62.179C16.3249 61.669 16.5526 61.1907 16.839 60.7828C16.8496 60.7664 16.8521 60.7499 16.8496 60.7347C16.8496 60.7339 16.8504 60.7322 16.8496 60.7301Z" fill="white"/>
<path d="M15.6756 58.7499C15.4178 58.7984 15.4925 59.1982 15.7506 59.1502C16.0079 59.1012 15.9333 58.7018 15.6756 58.7499Z" fill="white"/>
<path d="M15.6368 58.5503C15.7912 58.522 15.7465 58.2816 15.5921 58.3111C15.4373 58.3398 15.4824 58.5794 15.6368 58.5503Z" fill="white"/>
<path d="M15.4152 57.3696C15.6729 57.3207 15.5982 56.9208 15.3392 56.9697C15.0819 57.0178 15.1566 57.4173 15.4152 57.3696Z" fill="white"/>
<path d="M15.4522 57.5689C15.2979 57.5971 15.3426 57.8375 15.4974 57.808C15.6518 57.7793 15.6066 57.5397 15.4522 57.5689Z" fill="white"/>
<path d="M15.5231 57.9889C15.4307 58.0062 15.4577 58.1505 15.5501 58.1332C15.6429 58.115 15.6163 57.9721 15.5231 57.9889Z" fill="white"/>
<path d="M11.8016 38.1212C11.5438 38.1697 11.6185 38.5696 11.8762 38.5215C12.1348 38.4726 12.0589 38.0731 11.8016 38.1212Z" fill="white"/>
<path d="M11.7637 37.9218C11.918 37.8927 11.8733 37.6527 11.7185 37.6822C11.5646 37.7109 11.6093 37.9509 11.7637 37.9218Z" fill="white"/>
<path d="M11.5417 36.7412C11.7994 36.6922 11.7247 36.2923 11.4666 36.3404C11.2088 36.3889 11.2835 36.7888 11.5417 36.7412Z" fill="white"/>
<path d="M11.5789 36.9402C11.4245 36.9685 11.4701 37.2093 11.6244 37.1798C11.7788 37.1507 11.7341 36.9111 11.5789 36.9402Z" fill="white"/>
<path d="M11.6497 37.3603C11.5564 37.3776 11.5834 37.5219 11.6767 37.5046C11.7695 37.4873 11.7425 37.343 11.6497 37.3603Z" fill="white"/>
<path d="M14.227 51.0422C13.9693 51.0898 14.0448 51.4906 14.3029 51.4416C14.5598 51.3927 14.4847 50.9937 14.227 51.0422Z" fill="white"/>
<path d="M14.1897 50.8415C14.3441 50.8137 14.2985 50.5728 14.1441 50.6024C13.9902 50.6319 14.0353 50.8719 14.1897 50.8415Z" fill="white"/>
<path d="M13.9674 49.6608C14.2256 49.6119 14.1509 49.2124 13.8924 49.2609C13.6346 49.3098 13.7093 49.7089 13.9674 49.6608Z" fill="white"/>
<path d="M14.0043 49.8604C13.8508 49.8895 13.8955 50.1291 14.0499 50.1C14.2047 50.0709 14.1595 49.8313 14.0043 49.8604Z" fill="white"/>
<path d="M14.0762 50.2805C13.9829 50.2978 14.0108 50.442 14.1031 50.4248C14.1959 50.4075 14.1685 50.2632 14.0762 50.2805Z" fill="white"/>
<path d="M43.1195 35.5851C43.1195 35.5818 43.1178 35.5797 43.1174 35.5775C43.1115 35.5522 43.0984 35.5295 43.071 35.5122C42.3957 35.0612 41.7659 34.469 41.577 33.652C41.5432 33.5056 41.3277 33.5461 41.3492 33.6946C41.469 34.5256 41.0974 35.3051 40.6308 35.9698C40.5954 36.0213 40.6097 36.096 40.6616 36.131C41.3365 36.5806 41.9663 37.1733 42.1557 37.9903C42.1894 38.1362 42.4045 38.0957 42.3835 37.9477C42.2628 37.1176 42.6357 36.3372 43.1014 35.6716C43.1195 35.645 43.1246 35.6193 43.1195 35.594C43.1195 35.5906 43.1204 35.5885 43.1195 35.5851Z" fill="white"/>
<path d="M45.4861 48.1835C45.4856 48.1806 45.484 48.178 45.4831 48.1747C45.4772 48.151 45.465 48.1274 45.4376 48.1093C44.7618 47.66 44.1321 47.067 43.9427 46.2499C43.9089 46.104 43.6942 46.1449 43.7157 46.2925C43.8355 47.1235 43.4635 47.9038 42.9978 48.5678C42.9615 48.6201 42.9755 48.6947 43.0273 48.7289C43.7031 49.1786 44.3333 49.7712 44.5222 50.5891C44.556 50.7342 44.7707 50.6941 44.75 50.5465C44.6294 49.7155 45.0014 48.9352 45.4675 48.2704C45.4861 48.2438 45.4903 48.2177 45.4861 48.1919C45.4861 48.1894 45.4861 48.1869 45.4861 48.1835Z" fill="white"/>
<path d="M43.8391 42.082C43.8391 42.082 43.8383 42.079 43.8375 42.0773C43.8332 42.0626 43.8256 42.0482 43.8092 42.0368C43.395 41.7614 43.0082 41.3965 42.8922 40.8954C42.8715 40.8064 42.7403 40.8309 42.7526 40.9224C42.826 41.4319 42.5982 41.9103 42.3122 42.3182C42.2898 42.3494 42.2987 42.3962 42.3312 42.4165C42.7445 42.6932 43.1318 43.0563 43.2478 43.5579C43.2684 43.6469 43.4009 43.6224 43.3874 43.5317C43.3131 43.0218 43.5418 42.543 43.8282 42.1355C43.84 42.1187 43.8413 42.1022 43.84 42.0874C43.8391 42.0858 43.84 42.0832 43.8391 42.082Z" fill="white"/>
<path d="M41.3838 29.0097C41.383 29.008 41.3821 29.0067 41.3813 29.0042C41.3783 28.9898 41.3707 28.9751 41.3539 28.9637C40.9396 28.6878 40.5533 28.3242 40.4373 27.8223C40.4157 27.7341 40.2842 27.7586 40.2968 27.8493C40.371 28.3584 40.1433 28.838 39.8569 29.2455C39.8349 29.2771 39.8438 29.3231 39.875 29.345C40.2896 29.62 40.676 29.9836 40.792 30.4847C40.8135 30.5746 40.9455 30.5501 40.9325 30.459C40.8582 29.9495 41.0868 29.4711 41.372 29.0628C41.3838 29.0472 41.3863 29.0308 41.3838 29.016C41.3838 29.013 41.3838 29.0114 41.3838 29.0097Z" fill="white"/>
<path d="M42.6655 40.1017C42.4077 40.1497 42.4832 40.55 42.7414 40.5011C42.9991 40.4534 42.9232 40.0536 42.6655 40.1017Z" fill="white"/>
<path d="M42.6278 39.9025C42.7822 39.8734 42.7375 39.6334 42.5831 39.6629C42.4288 39.692 42.4735 39.9316 42.6278 39.9025Z" fill="white"/>
<path d="M42.4055 38.7206C42.6641 38.6725 42.5886 38.2731 42.3309 38.3211C42.0731 38.3697 42.1478 38.7695 42.4055 38.7206Z" fill="white"/>
<path d="M42.4434 38.9199C42.2891 38.949 42.3338 39.1898 42.4886 39.1594C42.6434 39.1312 42.5978 38.8912 42.4434 38.9199Z" fill="white"/>
<path d="M42.5153 39.3411C42.4229 39.3584 42.4499 39.5031 42.5422 39.485C42.6346 39.4668 42.6076 39.3234 42.5153 39.3411Z" fill="white"/>
<path d="M46.3015 55.199C46.3015 55.1965 46.3007 55.1956 46.2998 55.1939C46.2961 55.1792 46.2885 55.1652 46.2724 55.153C45.8582 54.8763 45.471 54.5135 45.355 54.0116C45.3343 53.9226 45.2027 53.9479 45.2154 54.0386C45.2896 54.5477 45.061 55.0273 44.7754 55.4348C44.7526 55.4656 44.7615 55.5124 44.7936 55.5331C45.2078 55.8098 45.5946 56.1725 45.7106 56.6745C45.7321 56.7639 45.8633 56.7386 45.8502 56.6488C45.7768 56.1388 46.0046 55.6596 46.2906 55.2517C46.3015 55.2353 46.3041 55.2197 46.3015 55.2036C46.3015 55.2024 46.3024 55.2007 46.3015 55.199Z" fill="white"/>
<path d="M45.1284 53.2184C44.8707 53.2669 44.9462 53.6667 45.2039 53.6187C45.4616 53.5697 45.3865 53.1703 45.1284 53.2184Z" fill="white"/>
<path d="M45.0909 53.0183C45.2453 52.9904 45.2006 52.7496 45.0462 52.7791C44.8914 52.8086 44.9365 53.0478 45.0909 53.0183Z" fill="white"/>
<path d="M44.8688 51.8375C45.1265 51.7895 45.0519 51.3892 44.7937 51.4377C44.536 51.4862 44.6106 51.8856 44.8688 51.8375Z" fill="white"/>
<path d="M44.9064 52.0371C44.752 52.0662 44.7967 52.3058 44.9511 52.2767C45.1055 52.2484 45.0608 52.008 44.9064 52.0371Z" fill="white"/>
<path d="M44.9775 52.4573C44.8843 52.4745 44.9121 52.6188 45.0049 52.6015C45.0977 52.5834 45.0707 52.44 44.9775 52.4573Z" fill="white"/>
<path d="M41.2535 32.59C40.9962 32.6385 41.0704 33.0384 41.3286 32.9903C41.5863 32.9414 41.5117 32.5415 41.2535 32.59Z" fill="white"/>
<path d="M41.2157 32.39C41.3705 32.3621 41.3254 32.1221 41.171 32.1508C41.0166 32.1799 41.0613 32.4191 41.2157 32.39Z" fill="white"/>
<path d="M40.9943 31.2094C41.252 31.1613 41.1774 30.7606 40.9192 30.8096C40.6606 30.8576 40.7357 31.2575 40.9943 31.2094Z" fill="white"/>
<path d="M41.0314 31.4089C40.877 31.4372 40.9217 31.6776 41.0761 31.6485C41.2309 31.6194 41.1858 31.3798 41.0314 31.4089Z" fill="white"/>
<path d="M41.1021 31.8291C41.0098 31.8464 41.0367 31.9906 41.1295 31.9733C41.2228 31.956 41.1962 31.8118 41.1021 31.8291Z" fill="white"/>
<path d="M43.6804 45.5104C43.4227 45.558 43.4974 45.9587 43.7555 45.9098C44.0132 45.8613 43.9386 45.4623 43.6804 45.5104Z" fill="white"/>
<path d="M43.643 45.3099C43.7965 45.2821 43.7518 45.0421 43.5974 45.0716C43.4431 45.1003 43.4886 45.3399 43.643 45.3099Z" fill="white"/>
<path d="M43.421 44.1293C43.6787 44.0813 43.6032 43.6805 43.3464 43.7295C43.0886 43.7784 43.1637 44.1779 43.421 44.1293Z" fill="white"/>
<path d="M43.4591 44.3289C43.3047 44.358 43.3494 44.5976 43.5042 44.5685C43.6586 44.5402 43.6135 44.2994 43.4591 44.3289Z" fill="white"/>
<path d="M43.5292 44.7499C43.4364 44.7663 43.4634 44.9106 43.5562 44.8933C43.649 44.876 43.6225 44.7317 43.5292 44.7499Z" fill="white"/>
<path d="M33.2375 45.2889C32.7178 45.3542 32.2205 45.5023 31.6932 45.4905C31.4794 45.4854 31.3031 45.4327 31.1411 45.3563C31.1428 45.1163 31.1246 44.8763 31.0766 44.6469C31.0744 44.6321 31.069 44.6186 31.066 44.6042C31.166 44.5595 31.2672 44.5085 31.3655 44.449C32.3584 43.8505 32.663 42.7314 33.9233 42.5117C33.9579 42.5053 33.9508 42.4606 33.9208 42.4551C33.4416 42.3543 32.6697 42.2873 32.2597 42.6449C31.6827 43.1477 31.2925 43.5915 30.7058 43.8037C30.5472 43.5915 30.3502 43.4232 30.1288 43.2912C30.1895 43.1895 30.2431 43.087 30.2865 42.9866C30.7463 41.9557 30.3823 40.8733 31.2993 40.0204C31.3254 39.9964 31.2984 39.9601 31.2676 39.9724C30.6611 40.2081 30.0646 40.6443 29.9284 41.315C29.8251 41.8228 29.7652 42.321 29.5121 42.782C29.4661 42.8672 29.4121 42.9356 29.3547 42.998C29.0848 42.9427 28.8026 42.9246 28.52 42.9406C28.52 42.8419 28.5153 42.7407 28.5052 42.6424C28.3744 41.4474 27.3216 40.7253 27.5701 39.4308C27.5755 39.4021 27.5321 39.389 27.5173 39.4126C27.2389 39.8479 26.9158 40.5376 27.1183 41.067C27.3123 41.571 27.5781 42.0299 27.6915 42.564C27.7295 42.7428 27.7227 42.9081 27.6932 43.0676C27.4794 43.1279 27.2697 43.2152 27.0706 43.3236C26.974 43.1895 26.8601 43.0625 26.7298 42.9491C25.9018 42.2282 24.8198 42.0557 24.3782 40.9417C24.3677 40.9151 24.3238 40.9235 24.3238 40.9518C24.3221 41.5288 24.4723 42.027 24.8127 42.4927C25.0025 42.7521 25.4454 42.9225 25.712 43.0921C26.0431 43.3 26.2502 43.5476 26.3932 43.8349C26.1874 44.0491 26.0224 44.3001 25.9161 44.5815C25.8689 44.5676 25.8221 44.5532 25.774 44.5418C24.6144 44.2854 23.5523 44.9514 22.4497 44.2655C22.4214 44.2474 22.3919 44.282 22.4117 44.309C22.8146 44.8569 23.3806 45.3158 24.0922 45.2682C24.571 45.2365 25.0333 45.1863 25.5074 45.2897C25.6116 45.3125 25.7031 45.3496 25.7892 45.3926C25.7993 45.7191 25.871 46.0401 25.9853 46.3442C25.8499 46.3893 25.7149 46.4459 25.5816 46.5146C24.5554 47.0461 24.1951 48.1352 22.9242 48.2685C22.896 48.2715 22.8934 48.3162 22.9204 48.3238C23.4161 48.463 24.1635 48.5726 24.6106 48.2322C25.2822 47.7197 25.7246 47.2739 26.4244 47.1444C26.5805 47.3532 26.7598 47.5392 26.9559 47.6961C26.8559 47.8383 26.772 47.9872 26.7058 48.1289C26.2291 49.1505 26.5767 50.2367 25.6436 51.0719C25.6175 51.0959 25.6453 51.1313 25.6749 51.1208C26.3708 50.8656 26.9023 50.4126 27.0647 49.6765C27.1698 49.2028 27.2398 48.762 27.4827 48.336C27.5372 48.2407 27.5992 48.1635 27.6679 48.0973C27.9636 48.1977 28.2994 48.2297 28.644 48.1998C28.6486 48.2921 28.6571 48.3837 28.6718 48.4756C28.8629 49.6723 29.952 50.3426 29.7647 51.654C29.7605 51.6822 29.8035 51.6983 29.8175 51.6738C30.0701 51.2334 30.3696 50.5244 30.1435 50.0152C29.925 49.52 29.6352 49.0784 29.4965 48.5511C29.4454 48.3571 29.4446 48.1829 29.4695 48.0137C29.7411 47.9138 29.9963 47.7801 30.2059 47.6147C30.2751 47.6915 30.3502 47.7653 30.4354 47.8319C31.3482 48.5473 32.5795 48.5697 33.178 49.6731C33.1936 49.7022 33.2362 49.6875 33.2324 49.655C33.1557 49.0071 32.9005 48.3714 32.3137 48.0365C31.9573 47.8324 31.5751 47.7041 31.2326 47.4688C31.0057 47.3135 30.8597 47.1322 30.7492 46.9297C30.8741 46.7036 30.9694 46.4543 31.0348 46.1928C31.1643 46.2249 31.2942 46.2497 31.4229 46.2611C32.6014 46.3733 33.5273 45.5761 34.7058 46.1202C34.7328 46.1316 34.7564 46.0945 34.7375 46.0738C34.3895 45.7073 33.7926 45.2193 33.2375 45.2889Z" fill="#31344E" stroke="#31344E" stroke-miterlimit="10" stroke-linecap="round" stroke-linejoin="round"/>
<path d="M30.345 45.2286C30.5259 46.1953 29.8557 47.1318 28.8471 47.3216C27.839 47.511 26.8739 46.8812 26.6929 45.9144C26.5107 44.9481 27.1814 44.0121 28.19 43.8231C29.1981 43.6333 30.1628 44.2626 30.345 45.2286Z" fill="white"/>
<path d="M27.5569 65.5646C24.3234 65.5229 21.1657 64.5902 18.4007 62.9199C18.2729 62.8427 18.1421 63.0338 18.2704 63.1109C21.0674 64.8011 24.2647 65.7536 27.538 65.7958C27.6869 65.7975 27.7058 65.5663 27.5569 65.5646Z" fill="white"/>
<path d="M27.4936 65.3756C27.643 65.3773 27.6624 65.147 27.5135 65.1445C24.3963 65.1035 21.355 64.2047 18.6888 62.595C18.561 62.5174 18.4306 62.7093 18.558 62.7857C21.2572 64.4164 24.3377 65.3339 27.4936 65.3756Z" fill="white"/>
<path d="M36.6675 63.8533C39.6662 62.6411 42.2709 60.6261 44.2411 58.0661C44.3318 57.948 44.5233 58.0779 44.4318 58.1964C42.4379 60.788 39.8041 62.8343 36.77 64.0617C36.6321 64.117 36.5305 63.9094 36.6675 63.8533Z" fill="white"/>
<path d="M36.6585 63.6538C36.5205 63.7099 36.4189 63.5019 36.5568 63.4458C39.4471 62.277 41.9556 60.3358 43.8554 57.8691C43.9461 57.751 44.1376 57.8809 44.046 57.9994C42.1222 60.4974 39.5846 62.4702 36.6585 63.6538Z" fill="white"/>
<path d="M36.5053 66.3236C36.5053 66.3228 36.5044 66.3228 36.5044 66.322C35.8704 65.761 35.2854 65.1531 34.7197 64.528C35.0209 63.7405 35.3449 62.9606 35.7308 62.2085C35.7317 62.2076 35.7317 62.2068 35.7317 62.2068C35.7903 62.1106 35.7393 61.9609 35.619 61.941C35.5811 61.9271 35.5406 61.9288 35.5051 61.9495C34.6303 62.1144 33.7551 62.2789 32.8798 62.443C32.4563 61.9659 32.0269 61.4952 31.5768 61.0439C31.4811 60.9489 31.3364 60.9759 31.282 61.0991C31.0268 61.6842 30.7965 62.2777 30.5755 62.8758C29.6833 63.0432 28.7916 63.2111 27.8991 63.3786C27.7358 63.4085 27.7257 63.5971 27.8337 63.6916C28.466 64.253 29.051 64.8612 29.6175 65.4859C29.3163 66.2743 28.9916 67.053 28.6056 67.8059C28.5402 67.9329 28.6178 68.1045 28.7811 68.0742C29.6728 67.9067 30.5649 67.7388 31.457 67.5722C31.881 68.0489 32.3099 68.5188 32.76 68.9705C32.8558 69.0658 33.0013 69.0388 33.0549 68.9153C33.3101 68.331 33.5404 67.7367 33.7614 67.139C34.6371 66.9741 35.5119 66.8104 36.3872 66.6455C36.4272 66.6518 36.4652 66.6392 36.496 66.6126C36.6019 66.5497 36.5938 66.3924 36.5053 66.3236ZM35.2854 62.3443C34.9817 62.9656 34.713 63.6017 34.4633 64.245C34.0208 63.7494 33.5851 63.2457 33.1468 62.7454C33.8592 62.6117 34.5725 62.4784 35.2854 62.3443ZM34.3245 64.6018C34.044 65.3429 33.7808 66.0904 33.507 66.8328C32.8659 66.9534 32.226 67.0741 31.5848 67.1939C31.0597 66.6012 30.5426 66.0001 30.0136 65.4121C30.2924 64.671 30.5573 63.924 30.8302 63.1803C31.4714 63.0597 32.1121 62.9399 32.7524 62.8193C33.2776 63.4136 33.7939 64.0142 34.3245 64.6018ZM31.5047 61.4682C31.8379 61.8107 32.164 62.1604 32.4829 62.5168C31.9801 62.6113 31.476 62.7066 30.9724 62.8003C31.1411 62.3527 31.317 61.9094 31.5047 61.4682ZM28.2981 63.6561C29.011 63.5224 29.7234 63.3887 30.4367 63.255C30.2089 63.8788 29.987 64.5061 29.7542 65.1295C29.2877 64.6204 28.8072 64.126 28.2981 63.6561ZM29.0523 67.6705C29.356 67.0483 29.6247 66.4127 29.8744 65.7698C30.3169 66.2659 30.7526 66.7687 31.1909 67.2685C30.478 67.4022 29.7656 67.5364 29.0523 67.6705ZM32.8334 68.5453C32.4993 68.2032 32.1733 67.8531 31.8544 67.4971C32.3572 67.4022 32.8621 67.3082 33.3649 67.2141C33.1966 67.6616 33.0207 68.1062 32.8334 68.5453ZM34.5839 64.8849C35.05 65.3944 35.5313 65.8888 36.0392 66.3582C35.3267 66.4915 34.6139 66.6257 33.9006 66.7598C34.1284 66.1347 34.3511 65.5079 34.5839 64.8849Z" fill="white"/>
<path d="M30.973 59.3612C31.0388 59.7151 31.105 60.069 31.1725 60.4229C31.1999 60.5692 31.4273 60.5262 31.3994 60.3794C31.3332 60.0255 31.267 59.6725 31.2008 59.3181C31.1734 59.1718 30.9456 59.2148 30.973 59.3612Z" fill="white"/>
<path d="M29.6604 60.4676C29.5301 60.3963 29.3989 60.5866 29.5297 60.6583C29.8456 60.83 30.1624 61.0025 30.4779 61.1746C30.6087 61.2459 30.7394 61.0556 30.6087 60.9839C30.2927 60.8118 29.9768 60.6393 29.6604 60.4676Z" fill="white"/>
<path d="M30.2279 61.887C29.8681 61.8782 29.5083 61.8697 29.1477 61.8609C28.9992 61.8571 28.9802 62.087 29.1287 62.092C29.4889 62.1001 29.8496 62.1093 30.2085 62.1182C30.357 62.1211 30.3777 61.8912 30.2279 61.887Z" fill="white"/>
<path d="M32.8559 59.8665C32.6239 60.1415 32.3919 60.4169 32.1599 60.692C32.0642 60.8071 32.2553 60.9353 32.3514 60.8231C32.583 60.5481 32.8158 60.2727 33.0474 59.9977C33.1436 59.8825 32.9512 59.7539 32.8559 59.8665Z" fill="white"/>
<path d="M33.7692 60.9932C33.4364 61.132 33.1045 61.2708 32.7721 61.4095C32.635 61.4669 32.7366 61.6744 32.8737 61.6175C33.2061 61.4779 33.5381 61.3391 33.8709 61.2007C34.0088 61.143 33.9063 60.9354 33.7692 60.9932Z" fill="white"/>
<path d="M20.1597 26.1796C17.1619 27.391 14.5572 29.4051 12.5865 31.9668C12.4967 32.0849 12.3052 31.9541 12.3959 31.836C14.3898 29.2453 17.0231 27.1982 20.0585 25.972C20.1955 25.9155 20.2976 26.1239 20.1597 26.1796Z" fill="white"/>
<path d="M20.1701 26.3784C20.3072 26.3232 20.4097 26.5303 20.2717 26.5872C17.3815 27.7565 14.8734 29.6964 12.9732 32.164C12.8816 32.2821 12.691 32.1526 12.7817 32.0332C14.7064 29.5357 17.2427 27.5629 20.1701 26.3784Z" fill="white"/>
<path d="M29.2721 24.4685C32.5048 24.5102 35.6629 25.442 38.4283 27.1132C38.5553 27.1904 38.6869 26.9993 38.5586 26.9226C35.7608 25.2315 32.5635 24.2799 29.291 24.2373C29.1417 24.2356 29.1223 24.4668 29.2721 24.4685Z" fill="white"/>
<path d="M29.3337 24.6575C29.1844 24.6558 29.1658 24.8861 29.3147 24.8886C32.4319 24.9295 35.4731 25.8276 38.1394 27.4372C38.2672 27.5148 38.398 27.3242 38.2706 27.2466C35.571 25.6167 32.4901 24.6997 29.3337 24.6575Z" fill="white"/>
<path d="M28.1086 21.9591C28.0706 21.946 28.031 21.9486 27.9955 21.968C27.1207 22.1329 26.245 22.2974 25.3702 22.461C24.9463 21.9848 24.5169 21.5141 24.0664 21.0627C23.9706 20.967 23.826 20.9948 23.7724 21.1184C23.5159 21.7031 23.2869 22.297 23.0654 22.8947C22.1729 23.0625 21.2816 23.2292 20.3895 23.3966C20.2262 23.4283 20.2161 23.616 20.3232 23.7104C20.9564 24.2715 21.5414 24.8797 22.1083 25.5048C21.8063 26.2936 21.4828 27.0719 21.096 27.8239C21.0306 27.9518 21.1087 28.1234 21.2711 28.0931C22.1632 27.9256 23.0549 27.7577 23.9474 27.5907C24.3709 28.0665 24.8008 28.5372 25.2508 28.9894C25.3462 29.0843 25.4908 29.0577 25.5444 28.9341C25.8009 28.3495 26.0299 27.7556 26.2518 27.1579C27.1266 26.993 28.0027 26.8293 28.878 26.6644C28.918 26.6707 28.9552 26.6581 28.9868 26.6311C29.0914 26.5682 29.0834 26.4113 28.9952 26.3425C28.9944 26.3425 28.9944 26.3417 28.9935 26.3408C28.3604 25.7798 27.7754 25.172 27.2084 24.5465C27.5096 23.7594 27.8344 22.9803 28.2208 22.2274C28.2208 22.2265 28.2208 22.2265 28.2216 22.2257C28.2794 22.1295 28.2301 21.9793 28.1086 21.9591ZM26.391 26.7778C26.6179 26.1531 26.841 25.5259 27.0735 24.9033C27.54 25.4129 28.0213 25.9072 28.5296 26.3759C27.8163 26.5104 27.1034 26.6441 26.391 26.7778ZM25.9966 26.8512C25.3563 26.9719 24.7156 27.0925 24.0744 27.2132C23.5501 26.6197 23.0329 26.0186 22.5032 25.4297C22.7828 24.6895 23.0464 23.942 23.321 23.1988C23.9622 23.0782 24.6025 22.9584 25.2428 22.8386C25.768 23.4312 26.2847 24.0323 26.8145 24.6203C26.5344 25.3614 26.2703 26.1089 25.9966 26.8512ZM24.3444 27.5152C24.848 27.4203 25.3512 27.3258 25.8544 27.2313C25.687 27.6793 25.5102 28.1234 25.3234 28.5642C24.9902 28.2213 24.6637 27.8716 24.3444 27.5152ZM22.3648 25.7883C22.8073 26.2847 23.2422 26.7867 23.6813 27.2878C22.968 27.4207 22.256 27.5548 21.5427 27.689C21.8464 27.0668 22.1151 26.4311 22.3648 25.7883ZM22.9271 23.2734C22.7001 23.8973 22.4762 24.5245 22.2442 25.1471C21.7785 24.6384 21.2968 24.1441 20.7893 23.6746C21.5018 23.5405 22.2146 23.4063 22.9271 23.2734ZM24.9737 22.5353C24.4701 22.6302 23.966 22.7255 23.4632 22.8192C23.6311 22.3716 23.8066 21.9279 23.9947 21.4871C24.3283 21.8292 24.6544 22.1797 24.9737 22.5353ZM25.6364 22.7639C26.3496 22.6302 27.0625 22.4969 27.7749 22.3628C27.4725 22.9841 27.203 23.6198 26.9528 24.2626C26.5108 23.7678 26.0755 23.2646 25.6364 22.7639Z" fill="white"/>
<path d="M25.5954 30.7204C25.5283 30.3666 25.4625 30.0126 25.3958 29.6583C25.3684 29.5115 25.5954 29.4694 25.6228 29.6161C25.689 29.97 25.7561 30.3235 25.8223 30.6774C25.8501 30.8238 25.6224 30.8664 25.5954 30.7204Z" fill="white"/>
<path d="M23.9708 30.1667C23.8751 30.2793 23.6827 30.1503 23.7793 30.0355C24.0118 29.7605 24.2446 29.4842 24.4758 29.2092C24.5715 29.0966 24.763 29.2269 24.6664 29.3404C24.4348 29.6154 24.2028 29.8904 23.9708 30.1667Z" fill="white"/>
<path d="M23.9841 28.6372C23.6521 28.7751 23.3205 28.9148 22.9877 29.0535C22.8507 29.11 22.749 28.9029 22.8869 28.8452C23.2189 28.7064 23.5509 28.5672 23.8832 28.4293C24.0203 28.3706 24.122 28.5786 23.9841 28.6372Z" fill="white"/>
<path d="M27.1682 29.5656C26.8514 29.3931 26.535 29.2223 26.2191 29.0493C26.0879 28.9776 26.2208 28.7869 26.3498 28.8578C26.6662 29.0303 26.9821 29.2029 27.2985 29.375C27.4288 29.4467 27.2972 29.6369 27.1682 29.5656Z" fill="white"/>
<path d="M27.6092 28.1849C27.249 28.1761 26.8892 28.1668 26.5294 28.1579C26.3801 28.1541 26.3999 27.9238 26.5484 27.928C26.909 27.9369 27.2689 27.9453 27.6287 27.9538C27.7776 27.958 27.7577 28.1883 27.6092 28.1849Z" fill="white"/>
<path d="M41.8785 17.2596L41.738 16.5138C40.2954 16.1325 39.0392 15.0602 38.7575 13.6299L38.0645 13.7594C38.4112 15.5466 40.0562 16.8884 41.8785 17.2596Z" fill="white"/>
<path d="M8.08095 19.3906L7.38834 19.5218C7.64438 20.9572 6.8636 22.4121 5.65723 23.2911L5.79727 24.0369C7.35965 23.0287 8.40659 21.1816 8.08095 19.3906Z" fill="white"/>
<path d="M51.219 66.9949C49.7662 67.9321 48.7611 69.5941 48.8889 71.2619L49.5865 71.1307C49.5148 69.8231 50.2598 68.5425 51.3586 67.7415C51.3514 67.6989 51.3438 67.6558 51.3358 67.6128L51.219 66.9949Z" fill="white"/>
<path d="M15.1377 73.7722L15.2541 74.3902C15.2617 74.4349 15.2697 74.4745 15.2786 74.518C16.5942 74.8664 17.7525 75.7889 18.16 77.0337L18.8576 76.9025C18.3704 75.3021 16.8317 74.1177 15.1377 73.7722Z" fill="white"/>
<path d="M37.3696 43.9095C38.2883 48.7987 35.0695 53.5057 30.1798 54.4244C25.2915 55.3418 20.5837 52.1238 19.665 47.2346C18.7475 42.3454 21.9664 37.6385 26.8547 36.7198C31.7439 35.8019 36.4517 39.0207 37.3696 43.9095Z" stroke="#31344E" stroke-width="3" stroke-linecap="round" stroke-linejoin="round"/>
</svg>
