<svg width="296" height="38" viewBox="0 0 296 38" fill="none" xmlns="http://www.w3.org/2000/svg">
<path d="M287.496 19.3949H8.00671V18.5181H287.496V19.3949Z" fill="#B58B65"/>
<path d="M57.8597 28.4348L49.6692 23.087L48.3816 29.2197L47.094 23.087L38.9035 28.4348L44.2514 20.2444L38.1194 18.9561L44.2514 17.6691L38.9029 9.478L47.094 14.8265L48.3816 8.69381L49.6692 14.8265L57.8597 9.47869L52.5118 17.6691L58.6438 18.9575L52.5118 20.2458L57.8597 28.4348ZM49.0746 21.6508L54.8418 25.4169L51.0764 19.649L54.3765 18.9554L51.0771 18.2624L54.8425 12.4945L49.0746 16.2599L48.3816 12.9605L47.6887 16.2599L41.9208 12.4945L45.6868 18.2617L42.3875 18.9546L45.6868 19.6476L41.9215 25.4155L47.6894 21.6501L48.3823 24.9495L49.0746 21.6508Z" fill="#F5EFEA"/>
<path d="M256.601 28.4348L248.41 23.087L247.122 29.2191L245.834 23.0877L237.644 28.4356L242.992 20.2451L236.859 18.9575L242.992 17.6698L237.644 9.47947L245.834 14.8273L247.123 8.69528L248.411 14.8273L256.602 9.47947L251.254 17.6698L257.385 18.9575L251.253 20.2459L256.601 28.4348ZM247.815 21.6516L253.583 25.4169L249.818 19.649L253.117 18.9561L249.817 18.2624L253.583 12.4953L247.815 16.2606L247.122 12.9612L246.429 16.2606L240.661 12.4952L244.427 18.2631L241.127 18.9561L244.427 19.649L240.661 25.4169L246.428 21.6509L247.122 24.951L247.815 21.6516Z" fill="#F5EFEA"/>
<path d="M12.4918 18.9556C12.4896 21.9205 10.0855 24.3246 7.12057 24.3268C6.31871 24.3239 5.55714 24.1493 4.87832 23.8339C6.72316 22.9847 8.00444 21.1207 8.00303 18.9556C8.00374 16.7925 6.72175 14.9251 4.87832 14.0772C5.55785 13.7612 6.31942 13.5865 7.12057 13.5844C10.0855 13.5865 12.4896 15.9907 12.4918 18.9556Z" fill="#B58B65"/>
<path d="M283.023 18.9561C283.025 15.9912 285.429 13.587 288.394 13.5849C289.196 13.5877 289.957 13.7624 290.636 14.0777C288.791 14.9277 287.51 16.7909 287.512 18.9561C287.512 21.1191 288.793 22.9866 290.636 23.8344C289.957 24.1505 289.195 24.3251 288.394 24.3272C285.429 24.3251 283.026 21.9217 283.023 18.9561Z" fill="#B58B65"/>
</svg>
