<svg width="64" height="52" viewBox="0 0 64 52" fill="none" xmlns="http://www.w3.org/2000/svg">
<path fill-rule="evenodd" clip-rule="evenodd" d="M14.4485 1.44009e-05C14.201 -0.00095371 13.9558 0.0468988 13.7268 0.140833C13.4978 0.234766 13.2896 0.372937 13.114 0.547437C12.9385 0.721937 12.7991 0.929339 12.7039 1.15777C12.6086 1.38621 12.5593 1.63119 12.5588 1.87869V4.07354H7.16911C3.2259 4.07354 0 7.29946 0 11.2427V44.4669C0 48.4101 3.2259 51.6507 7.16911 51.6507H56.8162C60.7594 51.6507 64 48.4101 64 44.4669V11.2427C64 7.29946 60.7594 4.07354 56.8162 4.07354H51.4375V1.87869C51.437 1.63119 51.3877 1.38621 51.2925 1.15777C51.1972 0.929339 51.0578 0.721937 50.8823 0.547437C50.7067 0.372937 50.4985 0.234766 50.2695 0.140833C50.0406 0.0468987 49.7953 -0.000953617 49.5478 1.44009e-05C49.0505 0.00195831 48.5741 0.200631 48.2228 0.552637C47.8715 0.904642 47.6738 1.38137 47.6728 1.87869V4.07354H16.3272V1.87869C16.3262 1.38073 16.128 0.903449 15.7759 0.551338C15.4238 0.199228 14.9465 0.000984762 14.4485 1.44009e-05ZM7.16911 7.83825H12.5588V10.5882C12.5593 10.8358 12.6086 11.0807 12.7039 11.3092C12.7991 11.5376 12.9385 11.745 13.114 11.9195C13.2896 12.094 13.4978 12.2322 13.7268 12.3261C13.9558 12.42 14.201 12.4679 14.4485 12.4669C14.9465 12.466 15.4238 12.2677 15.7759 11.9156C16.128 11.5635 16.3262 11.0862 16.3272 10.5882V7.83825H47.6728V10.5882C47.6738 11.0856 47.8715 11.5623 48.2228 11.9143C48.5741 12.2663 49.0505 12.465 49.5478 12.4669C49.7953 12.4679 50.0406 12.42 50.2695 12.3261C50.4985 12.2322 50.7067 12.094 50.8823 11.9195C51.0578 11.745 51.1972 11.5376 51.2925 11.3092C51.3877 11.0807 51.437 10.8358 51.4375 10.5882V7.83825H56.8162C58.7388 7.83825 60.2353 9.31998 60.2353 11.2427V17.886H3.76471V11.2427C3.76471 9.31998 5.24644 7.83825 7.16911 7.83825ZM3.76471 21.6507H60.2353V44.4669C60.2353 46.3896 58.7388 47.886 56.8162 47.886H7.16911C5.24644 47.886 3.76471 46.3896 3.76471 44.4669V21.6507Z" fill="#FFFDFA"/>
<path d="M28.9 31.9C29.6467 31.9 30.3133 32.08 30.9 32.44C31.4867 32.7867 31.9467 33.3 32.28 33.98C32.6133 34.6467 32.78 35.4467 32.78 36.38C32.78 37.3 32.58 38.14 32.18 38.9C31.78 39.6467 31.2067 40.24 30.46 40.68C29.7267 41.12 28.8667 41.34 27.88 41.34C26.1467 41.34 24.86 40.76 24.02 39.6C23.18 38.44 22.76 36.8467 22.76 34.82C22.76 33.3 22.9933 31.9667 23.46 30.82C23.94 29.6733 24.62 28.7867 25.5 28.16C26.3933 27.52 27.44 27.2 28.64 27.2C29.8 27.2 30.8267 27.5 31.72 28.1L30.56 29.98C29.96 29.6333 29.3467 29.46 28.72 29.46C27.96 29.46 27.3467 29.78 26.88 30.42C26.4133 31.06 26.1333 31.9667 26.04 33.14C26.8533 32.3133 27.8067 31.9 28.9 31.9ZM27.92 39.08C28.48 39.08 28.9 38.8467 29.18 38.38C29.4733 37.9 29.62 37.2467 29.62 36.42C29.62 35.58 29.4867 34.98 29.22 34.62C28.9533 34.26 28.5533 34.08 28.02 34.08C27.3 34.08 26.64 34.4333 26.04 35.14C26.0667 36.5667 26.22 37.58 26.5 38.18C26.78 38.78 27.2533 39.08 27.92 39.08ZM39.8158 27.48V41H36.7158V30.56L33.8158 32.34L32.4358 30.24L36.9958 27.48H39.8158Z" fill="#FFFDFA"/>
</svg>
