<svg width="465" height="466" viewBox="0 0 465 466" fill="none" xmlns="http://www.w3.org/2000/svg">
<path d="M233.24 0.470703C360.88 0.889119 465.735 105.832 464.996 232.592C464.947 273.518 454.127 313.708 433.622 349.13C413.117 384.549 383.649 413.945 348.18 434.364C312.711 454.783 272.496 465.508 231.567 465.459C103.836 465.693 -0.603522 359.956 0.0026252 230.922C0.544288 169.487 25.3794 110.764 69.0826 67.5861C112.786 24.4052 171.804 0.279725 233.24 0.478176V0.470703ZM234.311 44.4595C201.101 44.1384 168.396 52.6234 139.528 69.055C110.664 85.4832 86.6651 109.268 69.9803 137.986C53.2955 166.708 44.5221 199.334 44.5479 232.545C43.3835 335.258 128.62 421.007 231.615 421.24C264.818 421.314 297.451 412.606 326.199 395.992C354.949 379.382 378.792 355.462 395.311 326.659C411.83 297.854 420.435 265.195 420.257 231.992C419.65 128.997 335.953 44.6015 234.303 44.4604L234.311 44.4595Z" fill="#F5F2F0"/>
</svg>
