<svg width="64" height="64" viewBox="0 0 64 64" fill="none" xmlns="http://www.w3.org/2000/svg">
<path d="M45.5458 23.0564C44.7141 22.6802 43.7362 22.8597 43.0923 23.5066C42.4324 24.1594 42.2489 25.1542 42.6325 25.9996C43.9531 28.9586 42.6249 32.4278 39.6659 33.7484C38.9865 34.0516 38.2556 34.2229 37.5122 34.2529C36.6487 34.2792 35.7906 34.1069 35.0042 33.7495C34.1814 33.3738 33.2116 33.5513 32.5752 34.1943C31.91 34.8538 31.7253 35.8576 32.1123 36.7107C33.5238 39.9121 36.4895 42.1568 39.9539 42.6461C40.4133 42.7111 40.8767 42.7438 41.3407 42.7442C43.5701 42.7355 45.7341 41.9899 47.4958 40.6235C52.0263 37.1977 52.9218 30.7478 49.496 26.2173C48.463 24.8512 47.1052 23.7647 45.5458 23.0564ZM48.7131 35.7985C48.1498 37.0362 47.2857 38.1133 46.1997 38.9317C44.5143 40.2463 42.369 40.8234 40.2516 40.5318C37.5116 40.145 35.1661 38.3699 34.0495 35.8381L34.1178 35.6941C35.1918 36.1819 36.3628 36.4187 37.542 36.3864C41.0186 36.287 44.0256 33.9363 44.9612 30.5865C45.469 28.7784 45.3324 26.8499 44.575 25.1312C44.5633 25.1045 44.5452 25.0641 44.6711 25.0032C48.7683 26.8681 50.578 31.7013 48.7131 35.7985Z" fill="#FFFDFA"/>
<path d="M61.2469 9.04164L38.3771 5.81586L37.7498 2.58682C37.4113 0.855081 35.7349 -0.275879 34.0023 0.0586176L2.58679 6.15931C0.855046 6.49787 -0.275913 8.17427 0.0586336 9.90677L9.41288 58.0787C9.74391 59.8089 11.4149 60.9431 13.145 60.612C13.1501 60.611 13.1553 60.61 13.1603 60.609L20.7342 59.1326C21.0673 59.3182 21.4312 59.4418 21.8084 59.4975L53.4981 63.9682C55.2449 64.2173 56.8629 63.0031 57.112 61.2563C57.1124 61.2532 57.1129 61.25 57.1133 61.2469L63.9682 12.6579C64.2153 10.9079 62.997 9.2888 61.2469 9.04164ZM19.2066 57.2584L12.756 58.515C12.4789 58.5692 12.1915 58.5113 11.9571 58.3539C11.723 58.1961 11.5623 57.9509 11.5112 57.6733L2.15157 9.49928C2.04201 8.92287 2.41852 8.36624 2.99427 8.25332L34.4098 2.15156C34.9862 2.04204 35.5429 2.41856 35.6558 2.99431L36.1422 5.50008L29.5583 4.57203C28.3855 4.40671 27.2182 4.90754 26.5298 5.8713C26.4605 5.87878 26.3964 5.88198 26.3164 5.89261L11.8941 8.70033C10.6877 8.91768 9.7106 9.80367 9.37661 10.9832C9.00391 12.3492 8.18771 13.5526 7.05645 14.4042C6.09706 15.1635 5.647 16.3983 5.89263 17.5969L11.9506 48.7586C12.1647 49.9648 13.0445 50.9451 14.2206 51.2878C15.5862 51.6625 16.7913 52.4745 17.6513 53.5995C18.0563 54.1236 18.6192 54.5036 19.2568 54.6833L19.0903 55.8823C19.0278 56.344 19.0674 56.8138 19.2066 57.2584ZM19.5629 52.5114C19.4834 52.4578 19.4128 52.3918 19.3538 52.3162V52.3183C18.2105 50.8173 16.6056 49.7338 14.786 49.2343C14.3959 49.1048 14.1104 48.7688 14.0457 48.3628L7.98878 17.1991C7.89864 16.7943 8.03791 16.3727 8.35145 16.1014C9.85618 14.9637 10.9412 13.3591 11.4365 11.5389C11.5645 11.147 11.9001 10.859 12.307 10.7922L25.8194 8.16374L23.7424 22.8848C19.6279 22.7827 16.2097 26.0355 16.1077 30.15C16.022 33.6081 18.3271 36.6706 21.674 37.545L19.5629 52.5114ZM23.4426 25.0108L21.9759 35.4115C19.1695 34.528 17.6106 31.5368 18.4941 28.7304C19.0816 26.8642 20.6448 25.4702 22.5658 25.0993C22.8552 25.046 23.1484 25.0164 23.4426 25.0108ZM61.856 12.3592L55.0012 60.9493C54.9186 61.5325 54.379 61.9384 53.7957 61.856L22.1071 57.3864C21.5239 57.3038 21.118 56.7642 21.2004 56.181L28.051 7.59088C28.1335 7.0077 28.6732 6.60179 29.2564 6.68414L60.9493 11.1538C61.5325 11.2364 61.9384 11.776 61.856 12.3592Z" fill="#FFFDFA"/>
<path d="M6.378 10.4609C6.37795 10.4608 6.378 10.461 6.378 10.4609C6.26594 9.88254 5.70616 9.50405 5.12776 9.61611C4.54936 9.72811 4.17132 10.2878 4.28333 10.8662C4.39534 11.4444 4.95476 11.8225 5.53301 11.7107C6.11146 11.5989 6.48975 11.0394 6.378 10.4609Z" fill="#FFFDFA"/>
<path d="M13.6597 54.4198C13.0818 54.5324 12.7044 55.0921 12.8166 55.6701C12.9289 56.2485 13.4887 56.6263 14.0671 56.514L14.0679 56.5139C14.6462 56.4012 15.0235 55.841 14.9108 55.2628C14.7982 54.6845 14.238 54.3071 13.6597 54.4198Z" fill="#FFFDFA"/>
<path d="M19.686 15.8752L20.4988 20.0632C20.5958 20.5642 21.0339 20.9264 21.5442 20.9273C21.613 20.9272 21.6815 20.9208 21.7491 20.9081C22.3272 20.7958 22.705 20.2361 22.5928 19.6579L21.7789 15.4688C21.6879 14.8867 21.1423 14.4886 20.5602 14.5796C19.9782 14.6706 19.58 15.2162 19.671 15.7983C19.6751 15.8241 19.68 15.8498 19.686 15.8752Z" fill="#FFFDFA"/>
<path d="M17.3683 22.3427L17.369 22.3417H17.3637C17.6929 21.8533 17.564 21.1904 17.0756 20.8611L13.5447 18.4737C13.0563 18.144 12.3932 18.2728 12.0636 18.7612C11.7339 19.2496 11.8626 19.9127 12.351 20.2423L15.8873 22.6297C16.3755 22.9594 17.0386 22.8309 17.3683 22.3427Z" fill="#FFFDFA"/>
<path d="M20.0251 39.9248C19.537 39.5954 18.8743 39.7238 18.5445 40.2118L16.1572 43.7491C15.8276 44.2378 15.9565 44.9012 16.4452 45.2308C16.9339 45.5604 17.5973 45.4315 17.9269 44.9428L20.3132 41.4055C20.6425 40.917 20.5135 40.2542 20.0251 39.9248Z" fill="#FFFDFA"/>
<path d="M57.3461 17.5094C56.1752 16.7113 55.3007 15.5488 54.8585 14.2026C54.4572 13.0469 53.4377 12.2169 52.2247 12.0584L37.6743 10.006C36.4647 9.8235 35.2556 10.3391 34.5499 11.3383C33.7512 12.5088 32.5889 13.3832 31.243 13.826C30.0881 14.2282 29.2589 15.2473 29.0999 16.4598L24.6633 47.9073C24.4806 49.117 24.9962 50.3263 25.9957 51.0318C27.1663 51.8302 28.0407 52.9926 28.4833 54.3387C28.8849 55.4943 29.9041 56.3245 31.1171 56.4839L45.6642 58.5363C45.8201 58.5585 45.9773 58.5695 46.1347 58.5694C47.1905 58.5792 48.1835 58.0685 48.7898 57.204C49.588 56.0332 50.7505 55.1587 52.0967 54.7163C53.2522 54.3143 54.0824 53.2954 54.243 52.0825L58.6785 20.6339C58.8613 19.4242 58.3456 18.215 57.3461 17.5094ZM56.5631 20.3417L52.1266 51.7892C52.0834 52.1981 51.8141 52.5482 51.43 52.6949C49.6365 53.285 48.0879 54.4504 47.0244 56.0103C46.7789 56.3403 46.3676 56.5027 45.9629 56.4295L31.4158 54.3696C31.0068 54.3264 30.6568 54.0572 30.5101 53.6731C29.9206 51.8793 28.7551 50.3305 27.1947 49.2674C26.8659 49.021 26.7038 48.6106 26.7754 48.206L31.212 16.7574C31.2561 16.3491 31.5251 15.9997 31.9086 15.8528C33.7023 15.2626 35.251 14.0968 36.3143 12.5363C36.5214 12.2578 36.8517 12.0984 37.1986 12.1096C37.2581 12.1093 37.3177 12.1132 37.3767 12.1213L51.9239 14.1737C52.3323 14.2167 52.6821 14.4855 52.8285 14.8693C53.4179 16.6631 54.5834 18.2119 56.1439 19.2749C56.4744 19.5224 56.6367 19.9354 56.5631 20.3417Z" fill="#FFFDFA"/>
<path d="M30.7825 11.7193C31.3659 11.8018 31.9057 11.3959 31.9883 10.8126C32.0709 10.2293 31.6649 9.68942 31.0816 9.60686C30.4983 9.52426 29.9585 9.93022 29.8759 10.5136C29.7935 11.0968 30.1994 11.6367 30.7825 11.7193Z" fill="#FFFDFA"/>
<path d="M58.816 13.8737C58.2327 13.7911 57.6929 14.1971 57.6103 14.7804C57.6103 14.7803 57.6103 14.7805 57.6103 14.7804C57.5279 15.3636 57.9337 15.9036 58.517 15.9861C59.1003 16.0687 59.6401 15.6628 59.7227 15.0794C59.8053 14.4961 59.3993 13.9563 58.816 13.8737Z" fill="#FFFDFA"/>
<path d="M24.6793 53.3434C24.096 53.2608 23.5562 53.6668 23.4736 54.2501C23.391 54.8334 23.7969 55.3732 24.3802 55.4559C24.9636 55.5384 25.5034 55.1325 25.586 54.5492C25.586 54.5491 25.586 54.5493 25.586 54.5492C25.6684 53.9659 25.2625 53.426 24.6793 53.3434Z" fill="#FFFDFA"/>
<path d="M52.4155 57.6103C51.8322 57.5277 51.2923 57.9336 51.2098 58.517C51.1272 59.1003 51.5331 59.6401 52.1165 59.7227C52.6998 59.8053 53.2396 59.3993 53.3222 58.816C53.3221 58.8161 53.3222 58.8159 53.3222 58.816C53.4045 58.2328 52.9987 57.6928 52.4155 57.6103Z" fill="#FFFDFA"/>
</svg>
