<svg width="64" height="81" viewBox="0 0 64 81" fill="none" xmlns="http://www.w3.org/2000/svg">
<path d="M16.6787 1.65307C16.9912 1.53422 17.3478 1.47196 17.7185 1.44165C17.4492 1.20031 17.176 0.96423 16.8958 0.73583C16.8352 0.686107 16.8978 0.595555 16.9653 0.63598C17.332 0.857508 17.6898 1.09157 18.0443 1.3321C17.9844 0.902379 17.9141 0.473068 17.8098 0.0550749C17.7961 0.0005014 17.8773 -0.0213274 17.902 0.0259696C18.1203 0.451643 18.2828 0.872465 18.4004 1.3232C18.5751 1.08348 18.7481 0.848614 18.9106 0.619809C18.949 0.56564 19.05 0.612533 19.0173 0.675192C18.8928 0.914103 18.7768 1.16757 18.6624 1.42669C19.0614 1.44326 19.4511 1.48207 19.7975 1.52209C19.8792 1.53139 19.8856 1.65145 19.804 1.66641C19.4385 1.73311 19.0759 1.76666 18.7097 1.79536C19.0569 2.05408 19.4123 2.35606 19.6305 2.69037C19.694 2.78739 19.6192 2.9693 19.4826 2.9026C19.175 2.75222 18.8762 2.50846 18.6082 2.26429C18.6838 2.64065 18.7396 3.0259 18.6931 3.39214C18.6745 3.53525 18.4821 3.57284 18.4162 3.44146C18.2662 3.14394 18.2165 2.81528 18.1817 2.4838C17.9388 2.98547 17.6655 3.46491 17.3061 3.85541C17.1768 3.99609 16.9581 3.81377 17.0167 3.6541C17.2439 3.03398 17.6186 2.43246 18.0212 1.85479C17.5927 1.90289 17.1654 1.99223 16.7361 1.97606C16.5728 1.9704 16.5219 1.7129 16.6787 1.65307Z" fill="#31344E"/>
<path d="M53.6164 6.91348C53.9289 6.79423 54.2854 6.73157 54.6561 6.70165C54.3869 6.46032 54.1136 6.22424 53.8335 5.99584C53.7728 5.94612 53.8351 5.85556 53.903 5.89639C54.2693 6.11752 54.6274 6.35198 54.9815 6.5921C54.9217 6.16239 54.8514 5.73348 54.7475 5.31508C54.7337 5.26051 54.815 5.23868 54.8393 5.28598C55.058 5.71165 55.22 6.13247 55.3377 6.58321C55.5123 6.3439 55.6853 6.10862 55.8478 5.88022C55.8863 5.82565 55.9873 5.87295 55.9546 5.93561C55.8301 6.17411 55.7144 6.42798 55.5996 6.6867C55.9986 6.70368 56.3887 6.74249 56.7352 6.78251C56.8164 6.7918 56.8229 6.91187 56.7416 6.92682C56.3762 6.99272 56.0132 7.02707 55.6473 7.05537C55.9946 7.31369 56.3503 7.61607 56.5682 7.95078C56.6313 8.0478 56.5569 8.22972 56.4203 8.16301C56.1126 8.01304 55.8135 7.76887 55.5459 7.52471C55.6215 7.90106 55.6773 8.28631 55.6308 8.65256C55.6122 8.79526 55.4202 8.83326 55.3539 8.70188C55.2039 8.40354 55.1542 8.07529 55.1194 7.7434C54.876 8.24548 54.6032 8.72411 54.2434 9.11502C54.114 9.2557 53.8957 9.07338 53.9543 8.9133C54.1815 8.29318 54.5563 7.69166 54.9589 7.11439C54.5304 7.16209 54.1035 7.25184 53.6738 7.23567C53.5105 7.23001 53.4591 6.97291 53.6164 6.91348Z" fill="#31344E"/>
<path d="M3.01569 10.8777C3.11109 10.7443 3.21013 10.6141 3.30715 10.4827C3.30634 10.4039 3.3027 10.3255 3.30068 10.2462C2.40244 10.5514 1.48763 10.7891 0.637897 10.7519C0.335924 10.7386 0.261138 10.2911 0.534005 10.1718C1.2665 9.85248 2.08591 9.80155 2.86773 9.65562C2.87016 9.65521 2.87258 9.6544 2.87501 9.654C2.49178 9.24045 2.07298 8.86693 1.56443 8.57789C1.40193 8.48572 1.54422 8.22256 1.7136 8.29128C2.29046 8.52696 2.7885 8.85399 3.25621 9.24126C3.20932 8.49381 3.13696 7.74878 3.03994 7.00698C3.00962 6.77292 3.35202 6.71067 3.40053 6.94271C3.56263 7.70876 3.75788 8.56859 3.90705 9.445C3.96971 9.43207 4.03277 9.42034 4.09422 9.40781C4.2919 9.13899 4.48998 8.87259 4.67714 8.59689C4.78225 8.44166 4.99933 8.60215 4.9108 8.7594C4.80853 8.94252 4.69857 9.11999 4.59104 9.29988C4.89584 9.23399 5.19984 9.16769 5.50424 9.09978C5.6813 9.06097 5.77872 9.34839 5.60328 9.40741C5.16871 9.55334 4.70423 9.73283 4.22802 9.91151C4.19771 9.96123 4.16658 10.0114 4.13545 10.0607C4.32181 10.2487 4.50655 10.4374 4.69331 10.6234C5.03329 10.9613 5.44036 11.2475 5.5964 11.7181C5.65502 11.8952 5.55437 12.126 5.33284 12.0957C4.80934 12.0237 4.4346 11.6336 4.11201 11.212C4.14637 11.8745 4.12737 12.5209 4.00043 13.1156C3.92767 13.4551 3.42236 13.5311 3.35525 13.1427C3.26147 12.5957 3.27723 12.0326 3.29502 11.4715C2.98092 12.0864 2.69795 12.7477 2.2278 13.2227C2.0847 13.3678 1.84296 13.215 1.85954 13.0315C1.93311 12.2246 2.55808 11.5144 3.01569 10.8777Z" fill="#31344E"/>
<path d="M37.0283 3.00013C37.7495 2.88815 38.4905 2.93504 39.2282 2.89785C38.8127 2.45075 38.3991 2.00204 37.9779 1.56019C37.8498 1.42679 38.0495 1.20688 38.195 1.32128C38.748 1.75625 39.2937 2.19971 39.8431 2.63994C39.7522 1.85368 39.6365 1.07146 39.3875 0.321981C39.3139 0.103687 39.6082 -0.0519485 39.7182 0.164324C40.0355 0.790505 40.3193 1.4749 40.5522 2.18516C40.88 1.8173 41.2224 1.46358 41.6044 1.14463C41.7879 0.991012 42.0074 1.25943 41.8421 1.42396C41.4528 1.81002 41.1153 2.23529 40.7963 2.67592C41.5333 2.52554 42.2633 2.33635 42.9877 2.14272C43.187 2.08895 43.2917 2.41558 43.0989 2.48794C42.3579 2.76687 41.6097 3.01872 40.8549 3.25076C40.8715 3.31706 40.8857 3.38335 40.901 3.45046C41.5284 3.88098 42.2407 4.32161 42.6134 4.92718C42.7416 5.13537 42.5208 5.42925 42.2896 5.39125C41.8716 5.32374 41.4848 5.09009 41.1302 4.80065C41.1771 5.23279 41.2042 5.66291 41.1933 6.08131C41.1844 6.43664 40.6257 6.54215 40.4972 6.20581C40.2102 5.44987 40.0792 4.65148 39.9814 3.84339C39.9676 3.8632 39.9543 3.8826 39.9409 3.90241C39.4983 4.53506 38.9647 5.34679 38.2326 5.65968C37.9407 5.78418 37.5559 5.42844 37.7996 5.14951C38.2439 4.64056 38.748 4.19508 39.2214 3.7112C38.4687 3.88826 37.6375 4.00549 36.9645 3.74394C36.6128 3.60811 36.6398 3.06076 37.0283 3.00013Z" fill="#31344E"/>
<path d="M8.68025 12.3383C9.38324 12.2126 10.0749 12.6941 10.2002 13.3975C10.3259 14.1005 9.84408 14.7921 9.14069 14.9174C8.43771 15.0432 7.74644 14.5613 7.62031 13.8583C7.4954 13.1553 7.97727 12.4641 8.68025 12.3383Z" fill="#31344E"/>
<path d="M8.7528 8.2089C9.23305 8.1232 9.70521 8.45226 9.79091 8.93291C9.87702 9.41356 9.54796 9.88572 9.06771 9.97183C8.58747 10.0571 8.1153 9.72847 8.0292 9.24782C7.9435 8.76717 8.27296 8.2946 8.7528 8.2089Z" fill="#31344E"/>
<path d="M1.79264 20.6411C2.33514 20.5441 2.86834 20.916 2.96496 21.4581C3.06238 22.0002 2.69047 22.5342 2.14797 22.6304C1.60547 22.7275 1.07186 22.3556 0.975248 21.8135C0.878632 21.2714 1.25054 20.7378 1.79264 20.6411Z" fill="#31344E"/>
<path d="M58.4235 12.2569C59.2987 12.1005 59.5421 13.4587 58.6661 13.6152C57.7909 13.7716 57.5483 12.4134 58.4235 12.2569Z" fill="#31344E"/>
<path d="M61.3418 15.1441C62.221 14.9873 62.4644 16.35 61.5855 16.5069C60.7067 16.6641 60.4629 15.301 61.3418 15.1441Z" fill="#31344E"/>
<path d="M56.878 14.5919C57.7565 14.435 58.0002 15.7978 57.1218 15.955C56.2425 16.1119 55.9992 14.7487 56.878 14.5919Z" fill="#31344E"/>
<path d="M35.7188 0.938445C36.1065 0.868914 36.214 1.47044 35.8263 1.53956C35.439 1.60909 35.3315 1.00757 35.7188 0.938445Z" fill="#31344E"/>
<path d="M47.5647 5.69601C47.9527 5.62648 48.0603 6.228 47.6722 6.29713C47.2849 6.36666 47.177 5.76514 47.5647 5.69601Z" fill="#31344E"/>
<path d="M26.1566 4.78694C26.1501 4.78694 26.1437 4.78734 26.1372 4.78734C25.678 4.79826 25.5426 4.03746 25.9767 3.8887C25.9828 3.88668 25.9893 3.88466 25.9953 3.88223C26.1922 3.81432 26.4238 3.82079 26.5637 4.0031C26.6688 4.14055 26.7084 4.28082 26.6567 4.4502C26.6538 4.45869 26.6506 4.46799 26.6482 4.47648C26.5799 4.69598 26.3648 4.78249 26.1566 4.78694Z" fill="#31344E"/>
<path d="M49.7807 7.26849C49.7738 7.26849 49.7677 7.26889 49.7613 7.26889C49.3025 7.27981 49.1662 6.51942 49.6008 6.37025C49.6069 6.36823 49.6133 6.36661 49.6194 6.36419C49.8167 6.29627 50.0483 6.30274 50.1878 6.48465C50.2933 6.6225 50.3329 6.76237 50.2807 6.93175C50.2779 6.94064 50.2751 6.94954 50.2722 6.95803C50.2039 7.17794 49.9889 7.26404 49.7807 7.26849Z" fill="#31344E"/>
<path d="M1.88453 24.9383C2.27948 24.868 2.51354 25.2399 2.42865 25.5867C2.42137 25.6146 2.41531 25.6421 2.40803 25.67C2.33163 25.9817 1.82632 26.0718 1.64684 25.8062C1.63067 25.7828 1.6149 25.759 1.59913 25.7359C1.39863 25.4388 1.48918 25.0091 1.88453 24.9383Z" fill="#31344E"/>
<path d="M2.92482 17.9645C2.84477 17.5166 3.1516 17.0756 3.59951 16.996C4.04782 16.9155 4.48804 17.2231 4.56849 17.671C4.64813 18.1194 4.3413 18.5596 3.89339 18.6392C3.44549 18.7197 3.00445 18.4128 2.92482 17.9645Z" fill="#31344E"/>
<path d="M0.259084 18.1526C0.673034 18.079 0.787436 18.7202 0.37389 18.7941C-0.0404641 18.8681 -0.154867 18.227 0.259084 18.1526Z" fill="#31344E"/>
<path d="M8.34764 4.32399C8.99686 4.20797 9.17675 5.21455 8.52713 5.33057C7.87831 5.44659 7.69842 4.4396 8.34764 4.32399Z" fill="#31344E"/>
<path d="M4.14258 74.29C4.14258 74.29 8.14019 57.8747 14.6474 55.0862C21.155 52.2973 36.5867 52.1117 36.8657 52.2043C37.1442 52.2973 52.6693 52.1865 52.6693 52.1865C52.6693 52.1865 54.2495 54.8998 52.0185 56.2015C49.7875 57.5032 36.3078 64.1967 31.8453 64.8472C27.3828 65.4976 23.3852 65.2187 22.0843 67.2642C20.7831 69.3093 21.2479 80 21.2479 80" fill="white"/>
<path d="M4.14258 74.29C4.14258 74.29 8.14019 57.8747 14.6474 55.0862C21.155 52.2973 36.5867 52.1117 36.8657 52.2043C37.1442 52.2973 52.6693 52.1865 52.6693 52.1865C52.6693 52.1865 54.2495 54.8998 52.0185 56.2015C49.7875 57.5032 36.3078 64.1967 31.8453 64.8472C27.3828 65.4976 23.3852 65.2187 22.0843 67.2642C20.7831 69.3093 21.2479 80 21.2479 80" stroke="#31344E" stroke-width="2" stroke-miterlimit="10" stroke-linecap="round" stroke-linejoin="round"/>
<path d="M22.5891 56.738C19.1724 56.5529 15.7823 58.7771 14.593 62.0305C14.509 62.2605 14.8554 62.4691 15.0127 62.2746C15.919 61.152 16.6228 59.9421 17.6981 58.9525C19.0644 57.6949 20.7384 57.0069 22.5895 56.9333C22.7156 56.9276 22.7144 56.7445 22.5891 56.738Z" fill="#31344E"/>
<path d="M33.1517 7.81104C49.9337 7.81104 62.4795 24.346 58.2843 40.5111C55.446 51.7403 44.5042 58.4569 33.1517 58.0336C21.7992 58.4569 10.8575 51.7403 8.01923 40.5111C3.82353 24.3464 16.3698 7.81104 33.1517 7.81104Z" fill="white"/>
<path d="M33.152 8.21524C42.6106 8.2686 51.1342 13.73 55.61 21.986C60.1259 30.3159 59.7726 41.1764 53.761 48.6837C47.6366 56.3317 37.2479 58.7814 27.8847 57.3112C23.2136 56.5775 18.7571 54.5457 15.1909 51.4383C11.5433 48.2601 9.17524 43.9981 8.14845 39.2947C6.50922 31.7861 8.66467 23.8257 13.4158 17.8622C18.1932 11.8656 25.4802 8.2585 33.152 8.21524C33.6731 8.21241 33.6735 7.40392 33.152 7.40675C24.1583 7.45728 15.9367 12.2403 11.0732 19.744C6.20684 27.2513 5.34943 37.1792 9.36038 45.2436C13.4554 53.4773 22.4649 58.1702 31.4388 58.4479C36.0525 58.5906 40.6092 58.1201 44.8845 56.2783C49.0058 54.5029 52.5919 51.7265 55.226 48.083C60.56 40.7035 60.6453 30.5548 56.792 22.5268C53.0055 14.6379 45.258 8.76704 36.5404 7.63515C35.4146 7.48881 34.2871 7.41362 33.152 7.40755C32.6305 7.40392 32.6305 8.21241 33.152 8.21524Z" fill="#31344E"/>
<path d="M32.3482 8.86938C47.4303 8.86938 58.7048 23.7295 54.9344 38.2566C52.3836 48.3483 42.5502 54.3845 32.3482 54.0041C22.1458 54.3845 12.3125 48.3483 9.76166 38.2566C5.99165 23.7295 17.2661 8.86938 32.3482 8.86938Z" fill="#31344E"/>
<path d="M13.7713 25.8381C14.5042 22.4922 16.3262 19.7081 18.7234 17.3158C18.7622 17.2774 18.7044 17.2216 18.6643 17.2568C16.0242 19.5598 14.0547 22.2561 13.0837 25.649C11.9744 29.5249 11.6147 34.143 13.2668 37.8876C13.3388 38.0509 13.5894 37.9324 13.547 37.7695C12.5646 33.9777 12.9406 29.6324 13.7713 25.8381Z" fill="white"/>
<path d="M17.5053 20.4987C13.7239 24.1919 12.9284 30.0183 13.728 35.0549C13.7559 35.2311 14.0251 35.1806 14.0291 35.014C14.1472 29.9969 14.1229 24.6301 17.6233 20.6171C17.6936 20.5363 17.5829 20.4227 17.5053 20.4987Z" fill="white"/>
<path d="M49.3717 21.0131C49.3215 20.9161 49.1833 21.0009 49.2273 21.0976C51.0844 25.1635 50.6964 30.1863 49.6465 34.424C48.6007 38.6456 46.2783 42.2781 43.2226 45.3181C43.0533 45.4867 43.3011 45.7179 43.4789 45.5744C50.2056 40.1478 53.5047 28.944 49.3717 21.0131Z" fill="white"/>
<path d="M52.3097 28.7292C51.9548 34.2625 50.4251 39.0812 46.9207 43.4236C46.7881 43.5881 46.9999 43.8149 47.1571 43.6605C51.0998 39.7862 52.2672 34.0531 52.4766 28.7292C52.4811 28.6208 52.3166 28.6229 52.3097 28.7292Z" fill="white"/>
<path d="M47.881 34.5517C49.3012 30.8509 49.4653 26.9426 48.7712 23.0594C48.755 22.9696 48.6249 23.0092 48.637 23.0966C49.1698 26.9341 48.7934 30.791 47.5047 34.4483C47.4198 34.688 47.7921 34.783 47.881 34.5517Z" fill="white"/>
<path d="M16.8448 41.0911C17.0227 41.5358 17.5422 41.7577 17.9864 41.5794C18.4311 41.4015 18.653 40.8821 18.4752 40.437C18.2969 39.9927 17.777 39.7708 17.3332 39.9487C16.8889 40.1278 16.6666 40.6468 16.8448 41.0911Z" fill="white"/>
<path d="M20.5013 41.865C20.4916 41.8553 20.4819 41.8456 20.4718 41.8355C20.2919 41.6536 19.9507 41.6899 19.7639 41.8318C19.5283 42.0109 19.4401 42.4111 19.6532 42.6464C19.6625 42.6565 19.6718 42.6666 19.6811 42.6771C19.8941 42.9116 20.2276 42.9928 20.4968 42.7879C20.8247 42.5385 20.7608 42.1265 20.5013 41.865Z" fill="white"/>
<path d="M44.1907 28.399C44.181 28.3889 44.1713 28.3791 44.1612 28.3694C43.9813 28.1875 43.6398 28.2239 43.4534 28.3654C43.2177 28.5449 43.1296 28.9447 43.3426 29.18C43.3519 29.1901 43.3612 29.2006 43.3705 29.2107C43.5836 29.4456 43.9171 29.526 44.1863 29.321C44.5141 29.0724 44.4503 28.6605 44.1907 28.399Z" fill="white"/>
<path d="M18.1997 42.8857C18.2009 42.8893 18.2021 42.8934 18.2037 42.897C18.2029 42.8905 18.1988 42.8845 18.1972 42.8776C18.1912 42.842 18.1786 42.8056 18.1613 42.7684C18.1528 42.749 18.1447 42.7309 18.1334 42.7131C18.1305 42.7086 18.1277 42.7034 18.1245 42.6993C18.1253 42.7005 18.1261 42.703 18.1269 42.7046C18.0412 42.5728 17.8969 42.4867 17.7247 42.5065C17.4453 42.5384 17.2675 42.836 17.3722 43.0963C17.5711 43.5935 18.2639 43.3101 18.1997 42.8857Z" fill="white"/>
<path d="M23.0153 46.1191C22.8985 46.0322 22.7958 46.0031 22.6515 46.0015C22.4603 45.9999 22.4106 46.202 22.4563 46.3475C22.4275 46.6062 22.683 46.8172 22.9308 46.7178C23.1726 46.6212 23.228 46.2784 23.0153 46.1191Z" fill="white"/>
<path d="M23.3774 15.1033C22.7884 15.1033 22.2969 15.5948 22.2969 16.1838C22.2969 16.7728 22.7884 17.2644 23.3774 17.2644C23.9664 17.2644 24.458 16.7728 24.458 16.1838C24.458 15.5952 23.9664 15.1033 23.3774 15.1033Z" fill="white"/>
<path d="M27.9421 14.1924C27.5609 14.1924 27.2432 14.5105 27.2432 14.8917C27.2432 15.2725 27.5613 15.5907 27.9421 15.5907C28.3229 15.5907 28.6411 15.2729 28.6411 14.8917C28.6415 14.5105 28.3233 14.1924 27.9421 14.1924Z" fill="white"/>
<path d="M46.3654 27.1067C45.9842 27.1067 45.666 27.4244 45.666 27.8056C45.666 28.1868 45.9842 28.5046 46.3654 28.5046C46.7462 28.5046 47.0643 28.1864 47.0643 27.8056C47.0643 27.4248 46.7466 27.1067 46.3654 27.1067Z" fill="white"/>
<path d="M27.4061 10.6748C26.9731 10.6748 26.6113 11.0366 26.6113 11.4696C26.6113 11.9025 26.9727 12.2639 27.4061 12.2639C27.839 12.2639 28.2004 11.9025 28.2004 11.4696C28.2008 11.0366 27.8394 10.6748 27.4061 10.6748Z" fill="white"/>
<path d="M25.4559 15.8979C25.2906 16.0633 25.3593 16.3786 25.5974 16.434C25.618 16.4388 25.639 16.4433 25.6597 16.4485C25.8731 16.4978 26.0558 16.3151 26.0061 16.1021C26.0012 16.0815 25.9964 16.0604 25.9915 16.0398C25.9366 15.8017 25.6208 15.7326 25.4559 15.8979Z" fill="white"/>
<path d="M45.3131 32.6441C45.3745 32.0584 44.9375 31.5179 44.3522 31.456C43.7664 31.3942 43.2256 31.8312 43.1641 32.4169C43.1019 33.0027 43.5388 33.5432 44.1246 33.6046C44.7104 33.6673 45.2512 33.2299 45.3131 32.6441Z" fill="white"/>
<path d="M44.3045 34.6273C44.1574 34.4454 43.8364 34.481 43.7571 34.7114C43.7499 34.7316 43.7426 34.7518 43.7357 34.772C43.6646 34.979 43.8267 35.1799 44.0438 35.1532C44.0652 35.1508 44.0862 35.1476 44.1072 35.1451C44.3498 35.1156 44.4512 34.8092 44.3045 34.6273Z" fill="white"/>
<path d="M25.5363 45.2991L20.9355 36.8547L22.637 30.0488L26.3553 33.0734L29.3172 45.2991L28.687 46.3708L25.5363 45.2991Z" fill="white"/>
<path d="M29.3172 45.299L32.1534 46.8113L35.5559 46.3707L39.9044 24.629L33.0981 14.0417L25.7881 24.8813L29.3172 45.299Z" fill="white"/>
<path d="M34.626 45.5L35.5557 46.3708L40.4714 42.0223V39.3752L38.7065 40.1947L34.626 45.5Z" fill="white"/>
<path d="M25.7861 24.881C26.2324 24.9683 26.6731 25.0746 27.1149 25.1765C27.5575 25.2759 27.997 25.3851 28.4356 25.4979C29.3132 25.7222 30.1864 25.9603 31.0555 26.2106L30.992 26.1988C31.541 26.2191 32.0884 26.2583 32.6365 26.289C33.1847 26.3181 33.732 26.3614 34.2794 26.4018C35.3745 26.4806 36.468 26.5833 37.5607 26.6993L37.3953 26.7599C37.8044 26.3961 38.2139 26.0323 38.6339 25.6794C39.0556 25.3285 39.4683 24.9679 39.9017 24.6292C39.55 25.0524 39.1777 25.4538 38.8138 25.8649C38.4484 26.274 38.0729 26.6726 37.6969 27.0708C37.6573 27.1128 37.6039 27.1331 37.5502 27.1318L37.5316 27.131C36.4332 27.1015 35.3357 27.0579 34.2398 26.9912C33.6916 26.9584 33.1435 26.9289 32.5965 26.8853C32.0492 26.8428 31.501 26.8089 30.9544 26.7563L30.9403 26.7551C30.9233 26.7535 30.9059 26.7498 30.8906 26.745C30.0311 26.4628 29.1749 26.1689 28.3232 25.8609C27.8971 25.7077 27.4723 25.5508 27.0502 25.3839C26.6286 25.2198 26.2045 25.0597 25.7861 24.881Z" fill="#31344E"/>
<path d="M30.9756 26.478C30.9756 26.478 31.3325 26.6353 31.8176 26.9336C32.3056 27.2283 32.9265 27.658 33.5122 28.1314C34.1 28.6019 34.6526 29.117 35.0448 29.5309C35.4397 29.9412 35.6689 30.2569 35.6689 30.2569C35.6689 30.2569 35.3116 30.1001 34.8265 29.8022C34.3381 29.5075 33.7172 29.0777 33.1323 28.6036C32.5445 28.1322 31.9923 27.6172 31.6006 27.2037C31.2052 26.7929 30.9756 26.478 30.9756 26.478Z" fill="#31344E"/>
<path d="M29.3154 45.299C29.6271 44.4569 29.9861 43.6387 30.3564 42.827C30.7279 42.0161 31.118 41.214 31.5259 40.4221C31.601 40.2766 31.7797 40.2196 31.9253 40.2944C31.9835 40.3243 32.0275 40.3708 32.0546 40.4253L32.0574 40.4314C32.3024 40.9214 32.5316 41.419 32.7633 41.9158C32.9969 42.4114 33.2124 42.9155 33.4339 43.4168C33.8636 44.4258 34.278 45.4421 34.6248 46.4907C34.0265 45.5625 33.4958 44.6016 32.9807 43.6335C32.7297 43.1463 32.473 42.6621 32.2337 42.1689C31.9924 41.6769 31.7494 41.1857 31.5218 40.6877L32.0534 40.697C31.6366 41.4845 31.2021 42.2627 30.7489 43.0315C30.2941 43.7996 29.828 44.5616 29.3154 45.299Z" fill="#31344E"/>
<path d="M36.3138 42.5732C36.357 41.2638 36.431 39.9565 36.4912 38.6487C36.5539 37.3406 36.644 36.0348 36.7188 34.7279C36.7969 33.4214 36.8737 32.1144 36.9687 30.8091L37.2516 26.8928L37.8046 27.0613L35.9269 30.4033L35.9645 30.2763L35.6811 34.3334C35.5853 35.6856 35.4794 37.037 35.363 38.388C35.2482 39.739 35.1447 41.0908 35.0206 42.4414C34.8888 43.7912 34.7728 45.1422 34.624 46.4911C34.6491 45.1345 34.7065 43.7794 34.7489 42.424C34.7987 41.0685 34.869 39.7147 34.928 38.3601C34.9858 37.0054 35.0537 35.6512 35.1318 34.2978L35.3699 30.2375C35.3723 30.1922 35.3868 30.1474 35.4075 30.1106L37.2888 26.7707L37.29 26.7691C37.3701 26.6268 37.5504 26.5762 37.6927 26.6567C37.7966 26.7153 37.8515 26.8277 37.8422 26.9393L37.5087 30.8516C37.3984 32.1557 37.2694 33.4586 37.1417 34.7615C37.0111 36.0639 36.8959 37.3681 36.7528 38.6693C36.6077 39.9706 36.4759 41.2731 36.3138 42.5732Z" fill="#31344E"/>
<path d="M37.5476 26.9154C37.1401 25.8551 36.7427 24.7915 36.3486 23.7267C35.9556 22.6615 35.5498 21.6008 35.1682 20.5319L32.8538 14.1258L33.3507 14.085L32.3186 20.308L31.8024 23.4195L31.2599 26.5265L31.2635 26.4611L31.534 31.5461L31.6645 34.0888L31.7753 36.6323C31.8456 38.3286 31.9309 40.0236 31.9887 41.7202C32.0445 43.4172 32.1137 45.1131 32.1521 46.8113C31.9944 45.1203 31.8671 43.4274 31.7264 41.7356C31.5885 40.0434 31.4774 38.3496 31.3512 36.6566L31.1677 34.1171L31.0036 31.5764L30.685 26.4946C30.6838 26.4736 30.685 26.453 30.6879 26.4332L30.6887 26.4291L31.2073 23.318L31.7527 20.2114L32.8433 13.9985L32.8441 13.9936C32.8688 13.8542 33.0018 13.7608 33.1408 13.7854C33.2371 13.8024 33.311 13.8711 33.3401 13.9577L35.4766 20.4252C35.8368 21.5017 36.1723 22.5867 36.5216 23.6673C36.8684 24.7483 37.2132 25.83 37.5476 26.9154Z" fill="#31344E"/>
<path d="M20.9355 36.8547C21.4113 37.155 21.8593 37.4861 22.3011 37.8232L22.0731 37.7925C22.5465 37.5015 23.0287 37.227 23.5138 36.9586L24.2492 36.5713C24.4937 36.4411 24.7452 36.3239 24.9926 36.1998L24.8499 36.3615C25.0625 35.7996 25.295 35.245 25.5399 34.6948C25.7906 34.1466 26.0497 33.6017 26.3553 33.0737C26.2514 33.6748 26.101 34.2594 25.9418 34.8407C25.7772 35.42 25.5998 35.9944 25.4029 36.562C25.3782 36.6331 25.3281 36.6885 25.2663 36.7209L25.2602 36.7241C25.0144 36.8514 24.7719 36.986 24.5232 37.1081L23.7778 37.4764C23.2757 37.7117 22.7708 37.9413 22.2574 38.1539L22.2263 38.1665C22.1564 38.1956 22.0775 38.1757 22.029 38.1232C21.6515 37.7145 21.2796 37.3001 20.9355 36.8547Z" fill="#31344E"/>
<path d="M22.6367 30.0488C22.6367 30.0488 22.76 30.293 22.9621 30.7247C23.1586 31.1593 23.4553 31.7733 23.7824 32.5216C24.1142 33.2683 24.489 34.1439 24.8779 35.087C25.0691 35.5636 25.2785 36.0362 25.4693 36.5524C25.6536 37.0553 25.8408 37.5658 26.028 38.0764C26.3902 39.1024 26.754 40.128 27.075 41.0965C27.4 42.0639 27.691 42.9706 27.9303 43.7516C28.1745 44.531 28.3524 45.1899 28.489 45.6467C28.6196 46.1056 28.6863 46.3708 28.6863 46.3708C28.6863 46.3708 28.5691 46.1238 28.3779 45.6868C28.1923 45.2478 27.9105 44.6264 27.6025 43.8697C27.2896 43.1149 26.9371 42.23 26.5725 41.2772C26.2034 40.326 25.8319 39.3033 25.458 38.2817C25.2773 37.7684 25.0966 37.2554 24.9187 36.7505C24.7356 36.2496 24.5557 35.7572 24.3815 35.2802C24.0326 34.3213 23.7181 33.4223 23.459 32.6473C23.1958 31.8744 23.0001 31.2207 22.8522 30.7676C22.7107 30.3116 22.6367 30.0488 22.6367 30.0488Z" fill="#31344E"/>
<path d="M22.166 37.9731C22.166 37.9731 22.4688 38.3887 22.85 39.0452C23.0432 39.3722 23.2571 39.7595 23.4742 40.1795C23.6949 40.5979 23.9099 41.0539 24.1266 41.5091C24.3316 41.9695 24.5385 42.4292 24.7128 42.8694C24.8911 43.3072 25.0459 43.7216 25.1684 44.0813C25.419 44.7981 25.537 45.2989 25.537 45.2989C25.537 45.2989 25.2339 44.8838 24.8522 44.2273C24.6586 43.9002 24.4448 43.513 24.2281 43.0925C24.007 42.6741 23.7927 42.2177 23.5764 41.7626C23.3719 41.3017 23.1653 40.8421 22.9911 40.4023C22.8132 39.9641 22.6584 39.5497 22.5355 39.1899C22.2845 38.4732 22.166 37.9731 22.166 37.9731Z" fill="#31344E"/>
<path d="M35.5537 46.3705C35.8298 45.9016 36.1338 45.4565 36.4467 45.0191C36.7604 44.5825 37.0874 44.1569 37.4217 43.7372C37.5875 43.5266 37.7625 43.3233 37.9323 43.1159C38.1013 42.9077 38.2783 42.7064 38.4554 42.5051C38.8055 42.0992 39.1697 41.7051 39.5408 41.3174L39.4972 41.3926C39.787 40.7078 40.0987 40.0311 40.469 39.375C40.3424 40.1176 40.1577 40.8396 39.9507 41.5535C39.9451 41.5729 39.9358 41.5907 39.9244 41.6061L39.9071 41.6291C39.5833 42.0572 39.2522 42.4796 38.9074 42.8899C38.7368 43.0965 38.5662 43.3035 38.3875 43.5036C38.21 43.7045 38.0374 43.909 37.8559 44.1067C37.4949 44.5033 37.127 44.8942 36.7458 45.2738C36.3638 45.6522 35.9729 46.0233 35.5537 46.3705Z" fill="#31344E"/>
<path d="M38.7041 40.1946C38.8529 40.2504 38.9798 40.3235 39.0966 40.4048C39.2167 40.4832 39.3218 40.5742 39.4245 40.6663C39.6246 40.8555 39.7992 41.0649 39.9455 41.297L39.8918 41.2456C40.007 41.3495 40.1113 41.4676 40.2111 41.5929C40.309 41.7198 40.3991 41.8577 40.469 42.023C40.2908 42.0052 40.1323 41.9603 39.9819 41.9041C39.8328 41.8463 39.6893 41.7813 39.5559 41.7024L39.5461 41.6947L39.5021 41.6507C39.3085 41.4562 39.1435 41.2396 39.0036 41.0023C38.9365 40.8814 38.8715 40.7589 38.8217 40.6243C38.7688 40.4917 38.7255 40.3518 38.7041 40.1946Z" fill="#31344E"/>
<path d="M61.7281 33.8996C61.6432 33.5601 59.2266 33.8067 56.1652 37.9102C55.0721 38.4842 53.7963 39.4791 52.5577 41.0872C51.8098 42.0578 51.007 43.3214 50.2183 44.6615C41.9959 44.041 37.7012 55.0378 36.0425 55.4064C34.3693 55.7784 20.709 58.5078 20.709 58.5078L20.9139 61.3206L34.6119 63.4591C36.4298 62.8757 48.4602 57.6617 48.4602 57.6617C48.5847 57.6003 48.7181 57.4802 48.8584 57.3165C48.8592 57.3161 52.1967 55.7784 52.9805 54.9856C53.7648 54.1929 61.8271 34.2966 61.7281 33.8996Z" fill="white"/>
<path d="M49.0889 57.5949C49.0889 57.5949 52.4276 56.0572 53.2114 55.264C53.9952 54.4709 61.8271 34.2965 61.7281 33.8995C61.6286 33.5034 58.3575 33.8995 54.5899 40.2939" fill="white"/>
<path d="M49.0889 57.5949C49.0889 57.5949 52.4276 56.0572 53.2114 55.264C53.9952 54.4709 61.8271 34.2965 61.7281 33.8995C61.6286 33.5034 58.3575 33.8995 54.5899 40.2939" stroke="#31344E" stroke-width="2" stroke-miterlimit="10" stroke-linecap="round" stroke-linejoin="round"/>
<path d="M42.2969 55.1652C42.2969 55.1652 44.9237 53.4794 45.5187 53.0335C46.1138 52.5873 49.7322 44.7558 52.5575 41.0876C55.3828 37.4195 58.4021 36.9416 59.0012 37.3697C59.3485 37.6175 55.6306 45.1523 53.6975 48.523C51.7644 51.8936 49.8612 57.3614 48.6905 57.9407" fill="white"/>
<path d="M42.2969 55.1652C42.2969 55.1652 44.9237 53.4794 45.5187 53.0335C46.1138 52.5873 49.7322 44.7558 52.5575 41.0876C55.3828 37.4195 58.4021 36.9416 59.0012 37.3697C59.3485 37.6175 55.6306 45.1523 53.6975 48.523C51.7644 51.8936 49.8612 57.3614 48.6905 57.9407" stroke="#31344E" stroke-width="2" stroke-miterlimit="10" stroke-linecap="round" stroke-linejoin="round"/>
<path d="M25.125 57.9407C25.125 57.9407 34.3693 55.7788 36.0425 55.4069C37.7161 55.035 42.0703 43.8377 50.437 44.6745C50.437 44.6745 44.7662 53.0413 43 55.7372C41.2339 58.4331 36.9533 63.3492 35.135 63.9325" fill="white"/>
<path d="M25.125 57.9407C25.125 57.9407 34.3693 55.7788 36.0425 55.4069C37.7161 55.035 42.0703 43.8377 50.437 44.6745C50.437 44.6745 44.7662 53.0413 43 55.7372C41.2339 58.4331 36.9533 63.3492 35.135 63.9325" stroke="#31344E" stroke-width="2" stroke-miterlimit="10" stroke-linecap="round" stroke-linejoin="round"/>
<path d="M47.5874 46.8816C47.3829 47.4969 48.4452 47.7892 48.8475 47.5899C49.2493 47.391 51.769 43.9868 51.5009 43.853C51.2329 43.7188 47.9896 45.6753 47.5874 46.8816Z" fill="#31344E" stroke="#31344E" stroke-miterlimit="10" stroke-linecap="round" stroke-linejoin="round"/>
<path d="M56.735 39.8364C56.6607 40.4804 57.7606 40.5483 58.1135 40.2706C58.466 39.9929 60.2326 36.1444 59.9428 36.068C59.6529 35.9924 56.8802 38.5732 56.735 39.8364Z" fill="#31344E" stroke="#31344E" stroke-miterlimit="10" stroke-linecap="round" stroke-linejoin="round"/>
<path d="M59.8874 35.6095C59.813 36.2535 60.913 36.3214 61.2655 36.0441C61.618 35.7667 63.3845 31.9179 63.0947 31.8415C62.8052 31.7655 60.0325 34.3462 59.8874 35.6095Z" fill="#31344E" stroke="#31344E" stroke-miterlimit="10" stroke-linecap="round" stroke-linejoin="round"/>
</svg>
