<svg width="19" height="20" viewBox="0 0 19 20" fill="none" xmlns="http://www.w3.org/2000/svg">
<path d="M9.18175 13.6742C11.1608 13.6742 12.7651 12.0698 12.7651 10.0908C12.7651 8.11177 11.1608 6.50745 9.18175 6.50745C7.20271 6.50745 5.59839 8.11177 5.59839 10.0908C5.59839 12.0698 7.20271 13.6742 9.18175 13.6742Z" stroke="#373737" stroke-width="0.167593" stroke-miterlimit="10" stroke-linecap="round" stroke-linejoin="round"/>
<path d="M9.18176 5.57657V1" stroke="#373737" stroke-width="0.167593" stroke-miterlimit="10" stroke-linecap="round" stroke-linejoin="round"/>
<path d="M9.18176 19.1817V14.6051" stroke="#373737" stroke-width="0.167593" stroke-miterlimit="10" stroke-linecap="round" stroke-linejoin="round"/>
<path d="M4.66739 10.0909H0.0908203" stroke="#373737" stroke-width="0.167593" stroke-miterlimit="10" stroke-linecap="round" stroke-linejoin="round"/>
<path d="M18.2726 10.0909H13.696" stroke="#373737" stroke-width="0.167593" stroke-miterlimit="10" stroke-linecap="round" stroke-linejoin="round"/>
<path d="M5.98958 6.89869L3.70422 4.61328" stroke="#373737" stroke-width="0.167593" stroke-miterlimit="10" stroke-linecap="round" stroke-linejoin="round"/>
<path d="M14.6596 15.5686L12.3741 13.2832" stroke="#373737" stroke-width="0.167593" stroke-miterlimit="10" stroke-linecap="round" stroke-linejoin="round"/>
<path d="M5.98945 13.2831L3.7041 15.5685" stroke="#373737" stroke-width="0.167593" stroke-miterlimit="10" stroke-linecap="round" stroke-linejoin="round"/>
<path d="M14.6596 4.61328L12.3741 6.89869" stroke="#373737" stroke-width="0.167593" stroke-miterlimit="10" stroke-linecap="round" stroke-linejoin="round"/>
<path d="M7.49672 5.90282L6.29016 2.90442" stroke="#373737" stroke-width="0.167593" stroke-miterlimit="10" stroke-linecap="round" stroke-linejoin="round"/>
<path d="M12.0729 17.2773L10.8663 14.2789" stroke="#373737" stroke-width="0.167593" stroke-miterlimit="10" stroke-linecap="round" stroke-linejoin="round"/>
<path d="M4.99352 11.7764L1.99512 12.9829" stroke="#373737" stroke-width="0.167593" stroke-miterlimit="10" stroke-linecap="round" stroke-linejoin="round"/>
<path d="M16.3677 7.19934L13.3693 8.4059" stroke="#373737" stroke-width="0.167593" stroke-miterlimit="10" stroke-linecap="round" stroke-linejoin="round"/>
<path d="M5.02874 8.32114L2.05542 7.05408" stroke="#373737" stroke-width="0.167593" stroke-miterlimit="10" stroke-linecap="round" stroke-linejoin="round"/>
<path d="M16.3079 13.128L13.3346 11.861" stroke="#373737" stroke-width="0.167593" stroke-miterlimit="10" stroke-linecap="round" stroke-linejoin="round"/>
<path d="M7.41232 14.2443L6.14526 17.2176" stroke="#373737" stroke-width="0.167593" stroke-miterlimit="10" stroke-linecap="round" stroke-linejoin="round"/>
<path d="M12.218 2.96448L10.9509 5.93785" stroke="#373737" stroke-width="0.167593" stroke-miterlimit="10" stroke-linecap="round" stroke-linejoin="round"/>
<path d="M5.4957 7.48458L4.11401 6.50757" stroke="#373737" stroke-width="0.167593" stroke-miterlimit="10" stroke-linecap="round" stroke-linejoin="round"/>
<path d="M14.2496 13.6744L12.8679 12.6974" stroke="#373737" stroke-width="0.167593" stroke-miterlimit="10" stroke-linecap="round" stroke-linejoin="round"/>
<path d="M6.5754 13.7767L5.59839 15.1584" stroke="#373737" stroke-width="0.167593" stroke-miterlimit="10" stroke-linecap="round" stroke-linejoin="round"/>
<path d="M12.7651 5.02319L11.7881 6.40489" stroke="#373737" stroke-width="0.167593" stroke-miterlimit="10" stroke-linecap="round" stroke-linejoin="round"/>
<path d="M4.76148 9.17437L3.10449 8.83069" stroke="#373737" stroke-width="0.167593" stroke-miterlimit="10" stroke-linecap="round" stroke-linejoin="round"/>
<path d="M15.2585 11.3511L13.6016 11.0074" stroke="#373737" stroke-width="0.167593" stroke-miterlimit="10" stroke-linecap="round" stroke-linejoin="round"/>
<path d="M8.2655 14.5114L7.92188 16.1683" stroke="#373737" stroke-width="0.167593" stroke-miterlimit="10" stroke-linecap="round" stroke-linejoin="round"/>
<path d="M10.4421 4.01392L10.0984 5.67091" stroke="#373737" stroke-width="0.167593" stroke-miterlimit="10" stroke-linecap="round" stroke-linejoin="round"/>
<path d="M4.73258 10.8545L3.0647 11.1406" stroke="#373737" stroke-width="0.167593" stroke-miterlimit="10" stroke-linecap="round" stroke-linejoin="round"/>
<path d="M15.2988 9.04163L13.631 9.32776" stroke="#373737" stroke-width="0.167593" stroke-miterlimit="10" stroke-linecap="round" stroke-linejoin="round"/>
<path d="M9.94543 14.5402L10.2316 16.208" stroke="#373737" stroke-width="0.167593" stroke-miterlimit="10" stroke-linecap="round" stroke-linejoin="round"/>
<path d="M8.13196 3.97375L8.4181 5.64158" stroke="#373737" stroke-width="0.167593" stroke-miterlimit="10" stroke-linecap="round" stroke-linejoin="round"/>
<path d="M6.71342 6.31112L5.78809 4.89429" stroke="#373737" stroke-width="0.167593" stroke-miterlimit="10" stroke-linecap="round" stroke-linejoin="round"/>
<path d="M12.5754 15.2877L11.6501 13.8708" stroke="#373737" stroke-width="0.167593" stroke-miterlimit="10" stroke-linecap="round" stroke-linejoin="round"/>
<path d="M5.40194 12.5594L3.98511 13.4847" stroke="#373737" stroke-width="0.167593" stroke-miterlimit="10" stroke-linecap="round" stroke-linejoin="round"/>
<path d="M14.3784 6.69751L12.9615 7.62279" stroke="#373737" stroke-width="0.167593" stroke-miterlimit="10" stroke-linecap="round" stroke-linejoin="round"/>
<path d="M6.87634 10.0908C6.87634 8.38946 8.25546 7.01034 9.95676 7.01034C10.6179 7.01034 11.2299 7.21932 11.7317 7.5739C11.082 6.9157 10.1797 6.50745 9.18175 6.50745C7.2027 6.50745 5.59839 8.11176 5.59839 10.0908C5.59839 12.0699 7.2027 13.6742 9.18175 13.6742C10.1797 13.6742 11.082 13.2659 11.7317 12.6077C11.2299 12.9622 10.6179 13.1712 9.95676 13.1712C8.25546 13.1712 6.87634 11.792 6.87634 10.0908Z" stroke="#373737" stroke-width="0.167593" stroke-miterlimit="10" stroke-linecap="round" stroke-linejoin="round"/>
</svg>
