<svg width="288" height="150" viewBox="0 0 288 150" fill="none" xmlns="http://www.w3.org/2000/svg">
<path d="M18.2733 29.599C18.3831 29.8306 18.5683 30.0601 18.4714 30.4584C18.0438 30.0765 17.6774 29.7536 17.3157 29.4255C14.8029 27.1477 12.1311 25.0912 9.13858 23.468C7.59495 22.6305 5.96607 22.0802 4.23471 21.8094C3.36107 21.6725 2.50895 21.7004 1.67319 22.0195C0.247115 22.5642 -0.345793 23.7745 0.201473 25.2079C0.425805 25.7953 0.757782 26.3653 1.14616 26.8601C1.76534 27.6485 2.45599 28.3839 3.14664 29.1129C7.20011 33.3907 11.276 37.6469 15.3165 41.9368C17.4488 44.2004 19.3993 46.6215 21.1905 49.1632C22.1201 50.4825 22.6924 51.9452 22.9124 53.5801C23.1432 55.2942 23.532 56.9912 23.9277 58.6782C24.8857 62.7661 25.8967 66.842 27.092 70.8687C28.2352 74.7185 29.387 78.5662 30.5397 82.4134C30.9616 83.821 31.5632 85.1433 32.3701 86.3786C33.878 88.6874 35.67 90.7283 37.7282 92.5738C42.6979 97.0299 47.9893 101.089 53.1817 105.271C58.5592 109.602 63.7662 114.125 68.4625 119.203C70.3579 121.253 72.0712 123.453 73.58 125.802C74.9014 127.858 75.7169 130.141 76.3133 132.495C77.1826 135.926 77.4573 139.421 77.3501 142.957C77.3299 143.63 77.3023 144.301 77.2683 144.972C77.3475 145.016 77.4268 145.07 77.5055 145.121C77.6649 145.375 77.8711 145.57 78.114 145.718C79.0126 146.536 80.5196 146.984 81.4953 147.409C83.5449 148.301 85.6715 149.02 87.8632 149.468C89.7939 149.863 91.8094 150.088 93.7797 149.967C95.5809 149.856 96.8455 149.155 98.4576 148.429C99.3876 148.01 100.374 147.737 101.244 147.193C102.192 146.6 102.948 145.868 104.023 145.471C105.869 144.79 107.867 144.8 109.764 144.329C111.145 143.987 113.846 142.721 113.995 141.107C114.001 141.107 114.007 141.107 114.013 141.108C114.017 140.974 114.024 140.84 114.028 140.706C114.041 140.251 114.071 139.791 114.019 139.342C113.756 137.067 113.728 134.786 113.792 132.501C113.804 132.091 113.83 131.679 113.826 131.269C113.797 128.527 113.896 125.788 114.168 123.061C114.395 120.779 115.019 118.582 115.847 116.443C117.085 113.241 118.057 109.961 118.645 106.577C119.092 104.005 119.216 101.43 118.922 98.809C118.246 92.7844 115.595 87.7608 111.407 83.4938C109.037 81.0786 106.735 78.6071 104.567 76.0099C101.451 72.2759 98.768 68.2702 96.7473 63.8249C94.8954 59.7516 93.0012 55.6994 91.3569 51.5348C90.398 49.1064 89.1291 46.8316 87.6922 44.6533C86.7079 43.1609 85.5819 41.7775 84.2562 40.5762C83.7201 40.0905 83.125 39.6353 82.4856 39.3047C80.8873 38.478 79.0716 38.8732 77.8901 40.2317C77.0009 41.2543 76.4687 42.4669 76.1471 43.7638C75.8056 45.1403 75.6235 46.5384 75.6743 47.9692C75.7677 50.5794 76.1901 53.1448 76.6229 55.7119C77.019 58.0603 77.6791 60.3385 78.4266 62.5926C79.1043 64.6361 79.5396 66.7339 79.8936 68.851C79.99 69.428 80.0628 70.014 79.9401 70.6448C79.7131 70.672 79.537 70.7275 79.3704 70.7081C77.1499 70.4463 74.9109 70.2827 72.7158 69.8797C69.1463 69.2248 65.7619 68.0075 62.6407 66.1057C58.6763 63.6905 55.1417 60.7411 51.8258 57.513C51.2368 56.9395 50.6516 56.3616 50.0522 55.7989C49.7694 55.5332 49.6053 55.237 49.6109 54.8404C49.6174 54.3836 49.5876 53.9267 49.5924 53.4699C49.607 52.0998 49.6346 50.7297 49.6501 49.3596C49.666 47.958 50.0001 46.6616 50.7756 45.4701C51.9498 43.6669 52.9376 41.762 53.6945 39.7439C54.743 36.9481 55.3113 34.0443 55.6636 31.0875C55.8272 29.7135 55.8913 28.3507 55.4909 27.0129C55.2958 26.3606 55.0784 25.6992 54.7568 25.1033C53.6691 23.089 51.1179 23.1915 49.9937 24.5009C49.5786 24.984 49.1665 25.4835 48.8427 26.0282C47.2802 28.6577 45.7538 31.3015 44.4754 34.0938C43.2603 36.7483 41.8269 39.303 40.4856 41.8989C40.4266 42.0135 40.3255 42.106 40.1614 42.3127C40.108 42.0561 40.0486 41.9032 40.049 41.7504C40.0537 39.9234 40.068 38.0969 40.0783 36.27C40.0809 35.8131 40.0904 35.3558 40.0744 34.8994C39.8927 29.6029 39.7489 24.3046 39.5086 19.0106C39.3334 15.1548 38.6247 11.3967 37.0199 7.84698C36.3387 6.34081 35.5249 4.91643 34.4674 3.64407C34.0601 3.15407 33.6317 2.66496 33.1378 2.26839C32.6827 1.90283 32.1591 1.57127 31.6114 1.38182C29.905 0.791495 28.4557 1.63501 28.1233 3.4077C27.9812 4.16509 27.9317 4.95176 27.9446 5.72336C27.9764 7.59595 28.0574 9.46811 28.1413 11.3398C28.2791 14.4021 28.2064 17.4575 27.9127 20.509C27.8537 21.1226 27.8985 21.7465 27.8115 22.3661C27.3108 22.2882 27.3039 21.8959 27.1773 21.6328C25.3934 17.9165 23.2474 14.4159 20.9055 11.0307C19.1345 8.47088 17.2076 6.04068 15.0035 3.83439C13.9649 2.79454 12.8381 1.87096 11.5894 1.09807C10.6469 0.514634 9.64107 0.0930987 8.51941 0.0125804C7.58075 -0.05459 6.70107 0.145201 5.90881 0.660605C4.94259 1.28925 4.59769 2.13188 4.88015 3.2557C5.26121 4.77306 5.93076 6.17244 6.70753 7.52359C7.73231 9.3049 8.7614 11.0841 9.78144 12.8679C11.9813 16.7152 14.0127 20.6498 15.906 24.6568C16.6879 26.3081 17.491 27.9486 18.2733 29.599ZM7.43693 5.2312C8.16805 5.79526 8.71576 6.45663 9.35 7.56451C9.87574 8.48251 10.2779 9.44397 10.3421 10.5256C9.3599 8.94751 8.44879 7.3376 7.54458 5.72422C7.46277 5.57783 7.31895 5.42841 7.43693 5.2312ZM29.6255 6.54318C30.0837 8.08637 30.2564 9.6356 29.7616 11.1616C29.7031 9.84443 29.6411 8.52727 29.589 7.2097C29.5799 6.98838 29.6122 6.76535 29.6255 6.54318ZM49.7616 28.5962C49.108 29.8354 48.4328 31.0634 47.7473 32.2849C47.5945 32.5571 47.3831 32.8021 47.1678 33.0303C47.0774 33.1263 46.9305 33.3304 46.7549 33.0992C47.4102 31.4914 49.1157 28.5273 49.8447 27.7328C50.1048 28.0493 49.8942 28.3443 49.7616 28.5962ZM29.3332 24.8441C29.4886 21.9269 29.6398 19.0093 29.7926 16.0921C29.8163 15.6387 29.84 15.1853 29.8637 14.7319C30.7761 14.1825 31.1787 13.3123 31.3694 12.3611C31.7509 10.4584 31.6437 8.54753 31.3147 6.64394C31.1498 5.68891 30.7541 4.90956 29.7952 4.52376C29.725 4.49534 29.6893 4.38167 29.5864 4.23528C29.6432 3.98812 29.6815 3.6712 29.7913 3.38142C29.9739 2.90047 30.4053 2.70671 30.8927 2.82296C31.5395 2.97754 32.054 3.34397 32.5066 3.81071C33.4672 4.80191 34.2517 5.92228 34.8993 7.13738C35.9581 9.12407 36.703 11.227 37.1861 13.4238C37.599 15.3016 37.8436 17.1987 37.9138 19.1225C38.052 22.9121 38.2397 26.6999 38.365 30.4898C38.4602 33.3666 38.5385 36.2454 38.5338 39.123C38.5308 41.2212 38.4064 43.3207 38.2793 45.4159C38.2414 46.0424 38.0869 46.6874 37.8556 47.2721C37.0065 49.419 36.6307 51.6632 36.3921 53.9379C36.1204 56.5287 36.0377 59.1281 36.0115 61.7331C35.9835 64.5172 35.9142 67.3027 35.6308 70.0773C35.5753 70.622 35.5607 71.1714 35.549 71.7196C35.534 72.4197 35.729 72.7374 36.1557 72.7637C36.6225 72.7921 36.8825 72.5079 36.9531 71.8616C37.0276 71.1809 37.0866 70.4984 37.1517 69.8168C37.5069 66.0859 37.559 62.342 37.6576 58.5994C37.7187 56.2704 37.9241 53.95 38.2897 51.6481C38.5416 50.0627 38.9816 48.5221 39.6929 47.0809C40.8043 44.8294 41.9591 42.599 43.1031 40.3635C43.9143 38.7781 44.7376 37.1987 45.5578 35.6176C45.6405 35.4583 45.7374 35.3067 45.8433 35.125C47.5316 35.141 48.5254 34.1489 49.2496 32.7788C49.8258 31.689 50.3812 30.5876 50.9737 29.5068C51.5222 28.5066 51.5769 27.5175 51.0314 26.504C50.9478 26.3485 50.8919 26.178 50.8083 25.9791C51.0124 25.7703 51.1709 25.5291 51.3939 25.3939C52.1302 24.947 52.9754 25.1584 53.3922 25.9081C53.8874 26.7989 54.1673 27.7729 54.172 28.7903C54.1759 29.6997 54.1234 30.6164 54.008 31.5189C53.5834 34.8396 52.8708 38.09 51.375 41.1148C50.8092 42.2593 50.2107 43.3969 49.5162 44.4656C48.4806 46.0592 48.063 47.7897 48.0505 49.6588C48.0208 54.136 48.0061 58.6132 48.2554 63.0856C48.3674 65.0925 48.5698 67.0904 48.9263 69.0711C49.2445 70.839 50.1719 72.1837 51.7052 73.1142C51.8611 73.2089 52.0148 73.3105 52.1776 73.3919C55.1847 74.8955 57.8173 76.9373 60.3672 79.0958C61.2387 79.8338 62.0925 80.5934 62.9494 81.3486C63.9445 82.2257 64.918 83.1247 65.7073 84.2003C66.0448 84.6602 66.4845 84.9039 67.0395 85.08C71.9662 86.6409 76.7964 88.4484 81.2981 91.0237C86.5581 94.0322 90.7278 98.1942 94.0308 103.247C96.7339 107.382 98.5127 111.909 99.6653 116.696C99.8147 117.316 99.9138 117.949 100.055 118.571C100.115 118.834 100.179 119.12 100.329 119.333C100.44 119.49 100.685 119.602 100.887 119.633C101.163 119.676 101.428 119.451 101.469 119.165C101.507 118.902 101.52 118.62 101.469 118.36C101.222 117.107 100.996 115.847 100.677 114.611C99.292 109.243 96.9906 104.313 93.617 99.8911C89.8081 94.8994 85.1225 90.9893 79.4638 88.2465C76.5006 86.8101 73.4654 85.558 70.3493 84.497C69.4851 84.2029 68.6309 83.8791 67.7663 83.5855C67.275 83.4184 66.8866 83.1411 66.5602 82.7303C65.7339 81.6883 64.7647 80.7846 63.7438 79.9354C61.953 78.4456 60.1765 76.9386 58.3689 75.4699C56.7684 74.1695 55.0366 73.0539 53.186 72.1484C51.4658 71.3066 50.5913 69.9464 50.3321 68.0881C49.8766 64.8225 49.7788 61.5364 49.6884 58.2485C49.6854 58.1331 49.7508 58.0155 49.8163 57.789C50.1366 58.0878 50.4006 58.3251 50.6546 58.5731C53.9339 61.771 57.4229 64.7024 61.3123 67.1481C65.0442 69.4943 69.1058 70.9324 73.4305 71.6317C75.456 71.959 77.5146 72.0757 79.5495 72.3508C82.8159 72.7917 86.0181 73.506 89.0778 74.7741C91.6294 75.8316 93.9817 77.2172 96.0678 79.0334C96.5828 79.482 97.041 79.9953 97.531 80.4732C97.7251 80.6623 97.9081 80.8931 98.1441 80.9994C98.3219 81.0795 98.6259 81.0653 98.7809 80.9581C98.9329 80.853 99.0535 80.5684 99.0328 80.3794C99.0052 80.1249 98.8735 79.8506 98.7081 79.6483C98.3628 79.225 97.9831 78.8254 97.5882 78.4469C94.3856 75.3782 90.5935 73.3484 86.3471 72.1514C84.9873 71.7682 83.5961 71.4957 82.2195 71.1706C82.0038 71.1193 81.7911 71.0556 81.5534 70.9914C81.5082 70.7731 81.4462 70.6013 81.4415 70.4282C81.3657 67.4792 80.7121 64.6335 79.8315 61.8408C78.9786 59.1354 78.2862 56.3952 77.8604 53.593C77.5585 51.6072 77.2903 49.6153 77.2683 47.5985C77.2524 46.1199 77.4939 44.6912 77.9585 43.2923C78.1923 42.5891 78.5471 41.954 79.0083 41.3809C79.7605 40.4466 80.9002 40.205 81.9483 40.8022C82.4189 41.0705 82.8577 41.4188 83.2516 41.7934C84.5141 42.9939 85.6116 44.3386 86.5555 45.803C87.9691 47.9968 89.1833 50.2952 90.1353 52.7284C91.8835 57.1961 93.9223 61.535 95.9731 65.8684C97.8418 69.8172 100.334 73.3644 103.103 76.7212C105.342 79.4355 107.709 82.0358 110.208 84.519C113.555 87.8456 115.858 91.7902 116.929 96.4034C117.459 98.6811 117.629 100.999 117.45 103.343C117.12 107.667 115.899 111.771 114.39 115.799C113.569 117.99 112.936 120.222 112.631 122.54C112.5 123.535 112.375 124.54 112.374 125.54C112.373 127.417 112.179 129.279 112.063 131.147C112.026 131.739 112.037 132.334 112.051 132.928C112.113 135.528 112.182 138.129 112.247 140.73C110.057 143.453 106.477 142.676 103.567 143.976C101.038 145.107 98.9781 147.242 96.2737 147.877C93.9149 148.432 91.4723 148.394 89.0843 148.038C88.5508 147.913 88.0164 147.786 87.4808 147.672C86.8125 147.531 86.0861 147.407 85.3399 147.271C83.0376 146.71 80.5881 145.923 78.8765 144.378C78.9446 142.268 78.8937 140.157 78.7779 138.043C78.6169 135.099 78.0192 132.256 77.0578 129.48C76.3206 127.351 75.3053 125.371 73.9826 123.542C72.1853 121.057 70.2344 118.708 68.0965 116.506C63.4725 111.742 58.4296 107.456 53.2553 103.311C48.2998 99.3417 43.2573 95.4768 38.5562 91.1968C36.6526 89.4637 34.9871 87.539 33.6037 85.3672C32.9858 84.3971 32.4962 83.3672 32.169 82.2692C30.6305 77.1083 29.0374 71.962 27.6031 66.7722C26.534 62.903 25.6483 58.9822 24.7424 55.0699C24.3927 53.5599 24.1464 52.0081 24.2442 50.4507C24.3238 49.18 24.4965 47.9072 24.7385 46.6568C25.675 41.8162 26.7566 37.008 28.0656 32.2522C28.6232 30.2259 29.0537 28.1708 29.2372 26.0717C29.2708 25.6622 29.3112 25.2536 29.3332 24.8441ZM3.18754 26.8536C4.35829 27.2618 5.31289 28.1548 6.06209 29.2803C6.16113 29.4293 6.24423 29.5856 6.00655 29.7884C5.06875 28.8123 4.12793 27.8332 3.18754 26.8536ZM19.4841 33.655C20.1739 34.3801 20.8646 35.1177 21.3068 36.0366C22.2351 37.966 23.1591 39.898 24.0991 41.858C23.678 43.8899 23.2543 45.9416 22.8211 47.9912C22.8056 48.0635 22.6984 48.116 22.6131 48.1978C22.0904 47.812 21.7722 47.2467 21.3903 46.7438C19.5943 44.3786 17.6873 42.1099 15.6399 39.9583C13.878 38.1068 12.1221 36.2497 10.3726 34.387C9.65528 33.6232 8.96161 32.8374 8.27312 32.0787C8.57797 30.9385 8.22188 29.9486 7.70518 29.031C6.91033 27.6183 5.78609 26.4842 4.45086 25.5687C3.78347 25.111 3.06612 24.8704 2.25835 25.2187C2.19248 25.2471 2.09 25.1903 1.97977 25.1683C1.91045 25.0753 1.79677 24.9793 1.755 24.8583C1.47685 24.0527 1.69085 23.5747 2.48053 23.4339C3.00971 23.3396 3.57808 23.3233 4.10898 23.4038C5.51396 23.6174 6.85651 24.048 8.11595 24.7291C9.68412 25.5774 11.1873 26.5203 12.6181 27.5882C15.0754 29.4211 17.3713 31.435 19.4841 33.655ZM11.6398 12.8925C12.2383 12.381 12.2237 11.7321 12.1625 11.091C12.1199 10.6406 12.0226 10.1919 11.9098 9.75229C11.3397 7.52318 10.0557 5.71388 8.5616 4.01696C8.04534 3.43052 7.49549 3.03869 6.68729 3.09423C6.624 3.09854 6.55296 2.98832 6.48535 2.93105C6.45651 2.30801 6.50516 2.16374 6.7915 1.99021C7.4012 1.62078 8.05008 1.47828 8.75795 1.62597C9.57476 1.79648 10.3067 2.15471 11.0047 2.60079C12.755 3.71943 14.1815 5.19546 15.5529 6.72961C18.21 9.7019 20.4185 13.0006 22.502 16.3845C24.0095 18.8328 25.4743 21.3116 26.587 23.9696C27.7952 26.8562 27.8356 25.893 27.1179 29.2162C26.435 32.3788 25.5734 35.5027 24.7802 38.6407C24.7518 38.754 24.6153 38.8401 24.4874 38.9869C20.2708 30.2423 16.3775 21.3938 11.6398 12.8925Z" fill="#ECB971"/>
<path d="M271.532 24.6568C273.425 20.6498 275.456 16.7152 277.656 12.8679C278.676 11.0841 279.705 9.3049 280.73 7.5236C281.507 6.17287 282.176 4.77306 282.557 3.2557C282.84 2.13145 282.495 1.28925 281.529 0.660605C280.736 0.145201 279.857 -0.05459 278.918 0.0125804C277.797 0.0926681 276.791 0.514204 275.848 1.09807C274.6 1.87096 273.473 2.79454 272.434 3.83439C270.23 6.04068 268.303 8.47088 266.532 11.0307C264.19 14.4159 262.044 17.9165 260.26 21.6328C260.134 21.8959 260.127 22.2882 259.626 22.3661C259.539 21.7465 259.584 21.1226 259.525 20.509C259.231 17.4575 259.158 14.4021 259.296 11.3398C259.381 9.46854 259.461 7.59638 259.493 5.72336C259.506 4.95176 259.456 4.16509 259.314 3.4077C258.982 1.63458 257.533 0.791495 255.826 1.38182C255.278 1.57127 254.754 1.9024 254.3 2.26839C253.806 2.66496 253.377 3.15407 252.97 3.64407C251.913 4.91686 251.099 6.34124 250.418 7.84698C248.813 11.3962 248.104 15.1543 247.929 19.0106C247.689 24.3046 247.545 29.6029 247.364 34.8994C247.348 35.3558 247.357 35.8131 247.36 36.27C247.37 38.0969 247.385 39.9234 247.389 41.7504C247.39 41.9028 247.33 42.0556 247.277 42.3127C247.113 42.106 247.012 42.0135 246.953 41.8989C245.611 39.3025 244.178 36.7479 242.963 34.0938C241.685 31.3015 240.158 28.6577 238.596 26.0282C238.272 25.4831 237.86 24.984 237.445 24.5009C236.32 23.1915 233.769 23.089 232.682 25.1033C232.36 25.6988 232.143 26.3606 231.947 27.0129C231.547 28.3512 231.611 29.7135 231.775 31.0875C232.127 34.0443 232.695 36.9481 233.744 39.7439C234.501 41.7624 235.489 43.6669 236.663 45.4701C237.438 46.6611 237.772 47.958 237.788 49.3596C237.804 50.7297 237.831 52.0993 237.846 53.4699C237.851 53.9263 237.821 54.3836 237.827 54.8404C237.833 55.237 237.669 55.5332 237.386 55.7989C236.787 56.3616 236.202 56.9395 235.613 57.513C232.297 60.7415 228.762 63.6905 224.798 66.1057C221.676 68.0075 218.292 69.2244 214.723 69.8797C212.528 70.2823 210.288 70.4464 208.068 70.7081C207.901 70.7279 207.725 70.6724 207.498 70.6448C207.376 70.014 207.449 69.428 207.545 68.851C207.899 66.7339 208.335 64.6357 209.012 62.5926C209.76 60.3385 210.42 58.0607 210.816 55.7119C211.249 53.1448 211.671 50.5794 211.765 47.9692C211.816 46.5384 211.633 45.1403 211.292 43.7638C210.97 42.4669 210.438 41.2543 209.549 40.2317C208.368 38.8728 206.552 38.478 204.954 39.3047C204.314 39.6354 203.719 40.0905 203.183 40.5762C201.857 41.7771 200.731 43.1609 199.747 44.6533C198.31 46.8312 197.041 49.1064 196.082 51.5348C194.438 55.6994 192.543 59.7516 190.692 63.8249C188.671 68.2698 185.989 72.2754 182.872 76.0099C180.705 78.6071 178.402 81.0786 176.032 83.4938C171.844 87.7608 169.194 92.7844 168.518 98.8091C168.224 101.43 168.348 104.005 168.795 106.577C169.383 109.961 170.354 113.241 171.593 116.443C172.42 118.582 173.045 120.779 173.272 123.061C173.543 125.788 173.642 128.527 173.614 131.269C173.61 131.68 173.636 132.091 173.647 132.501C173.712 134.786 173.684 137.067 173.421 139.342C173.368 139.791 173.399 140.251 173.412 140.706C173.416 140.84 173.422 140.974 173.427 141.108C173.433 141.107 173.439 141.107 173.445 141.107C173.594 142.721 176.295 143.987 177.676 144.329C179.573 144.8 181.57 144.789 183.417 145.471C184.492 145.868 185.248 146.6 186.196 147.193C187.066 147.737 188.052 148.01 188.982 148.429C190.594 149.155 191.859 149.856 193.66 149.967C195.63 150.088 197.646 149.864 199.577 149.468C201.769 149.02 203.895 148.301 205.944 147.409C206.92 146.984 208.427 146.536 209.326 145.719C209.569 145.57 209.775 145.375 209.934 145.121C210.013 145.07 210.092 145.016 210.171 144.972C210.137 144.301 210.11 143.63 210.09 142.957C209.982 139.422 210.257 135.926 211.126 132.495C211.723 130.141 212.538 127.859 213.86 125.802C215.369 123.453 217.082 121.253 218.977 119.203C223.673 114.125 228.88 109.602 234.258 105.271C239.45 101.089 244.742 97.0303 249.711 92.5738C251.77 90.7284 253.562 88.6874 255.07 86.3786C255.877 85.1433 256.478 83.821 256.9 82.4134C258.053 78.5662 259.204 74.719 260.348 70.8687C261.543 66.842 262.554 62.7661 263.512 58.6782C263.907 56.9916 264.296 55.2942 264.527 53.5801C264.747 51.9448 265.32 50.4821 266.249 49.1632C268.04 46.6215 269.991 44.2004 272.123 41.9368C276.164 37.647 280.24 33.3902 284.293 29.1129C284.984 28.3839 285.674 27.6485 286.294 26.8601C286.682 26.3653 287.015 25.7953 287.239 25.2079C287.786 23.7745 287.193 22.5637 285.767 22.0195C284.931 21.7004 284.079 21.6729 283.205 21.8094C281.474 22.0802 279.845 22.6305 278.302 23.468C275.309 25.0913 272.638 27.1477 270.125 29.4255C269.763 29.7536 269.397 30.0765 268.969 30.4584C268.872 30.0601 269.057 29.8306 269.167 29.599C269.948 27.9486 270.751 26.3081 271.532 24.6568ZM279.895 5.72422C278.99 7.3376 278.079 8.94752 277.097 10.5256C277.161 9.44397 277.563 8.48251 278.089 7.56451C278.723 6.45663 279.271 5.79526 280.002 5.2312C280.12 5.42841 279.976 5.57783 279.895 5.72422ZM257.85 7.2097C257.798 8.52728 257.736 9.84443 257.678 11.1616C257.183 9.6356 257.356 8.08637 257.814 6.54318C257.827 6.76536 257.859 6.98838 257.85 7.2097ZM237.595 27.7333C238.324 28.5277 240.03 31.4914 240.685 33.0996C240.51 33.3308 240.363 33.1263 240.272 33.0307C240.057 32.8025 239.845 32.5575 239.693 32.2854C239.007 31.0638 238.332 29.8358 237.678 28.5966C237.545 28.3443 237.334 28.0493 237.595 27.7333ZM258.204 26.0712C258.387 28.1707 258.818 30.2255 259.376 32.2518C260.685 37.0075 261.766 41.8158 262.703 46.6564C262.945 47.9068 263.118 49.18 263.197 50.4502C263.295 52.0076 263.049 53.5594 262.699 55.0695C261.793 58.9817 260.907 62.9026 259.838 66.7718C258.404 71.9615 256.811 77.1078 255.272 82.2688C254.945 83.3667 254.456 84.3967 253.838 85.3668C252.454 87.5386 250.789 89.4633 248.885 91.1964C244.184 95.4759 239.141 99.3408 234.186 103.311C229.011 107.456 223.968 111.742 219.344 116.506C217.207 118.708 215.256 121.056 213.458 123.541C212.135 125.371 211.12 127.351 210.383 129.479C209.422 132.255 208.824 135.098 208.663 138.042C208.547 140.156 208.497 142.268 208.564 144.378C206.853 145.923 204.403 146.71 202.101 147.271C201.355 147.406 200.628 147.53 199.96 147.672C199.425 147.786 198.89 147.912 198.357 148.038C195.968 148.393 193.526 148.431 191.167 147.877C188.463 147.241 186.403 145.107 183.874 143.976C180.964 142.676 177.384 143.452 175.194 140.729C175.259 138.129 175.327 135.528 175.39 132.927C175.404 132.334 175.415 131.738 175.378 131.147C175.262 129.279 175.068 127.417 175.067 125.54C175.066 124.54 174.94 123.535 174.81 122.54C174.505 120.222 173.872 117.99 173.051 115.799C171.541 111.77 170.321 107.666 169.991 103.342C169.812 100.999 169.982 98.6807 170.512 96.403C171.583 91.7897 173.886 87.8452 177.233 84.5185C179.732 82.0358 182.099 79.4356 184.338 76.7207C187.107 73.3644 189.599 69.8168 191.468 65.868C193.518 61.5351 195.557 57.1957 197.306 52.728C198.258 50.2948 199.472 47.9963 200.885 45.8025C201.829 44.3377 202.927 42.9934 204.189 41.793C204.583 41.4184 205.022 41.07 205.493 40.8018C206.541 40.2046 207.681 40.4462 208.433 41.3805C208.894 41.9536 209.249 42.5887 209.482 43.2918C209.947 44.6908 210.189 46.1195 210.173 47.5981C210.151 49.6149 209.882 51.6068 209.581 53.5926C209.155 56.3948 208.462 59.135 207.609 61.8403C206.729 64.6331 206.076 67.4788 205.999 70.4278C205.995 70.6009 205.933 70.7727 205.888 70.991C205.65 71.0552 205.437 71.1189 205.221 71.1702C203.845 71.4957 202.454 71.7678 201.094 72.151C196.847 73.348 193.055 75.3782 189.853 78.4465C189.458 78.825 189.078 79.2246 188.733 79.6478C188.568 79.8498 188.436 80.1245 188.408 80.3789C188.388 80.568 188.508 80.8521 188.66 80.9576C188.815 81.0648 189.119 81.0791 189.297 80.999C189.532 80.8926 189.716 80.6623 189.91 80.4728C190.4 79.9949 190.858 79.4816 191.373 79.033C193.459 77.2163 195.811 75.8307 198.363 74.7737C201.423 73.5056 204.625 72.7917 207.891 72.3504C209.926 72.0756 211.985 71.959 214.01 71.6313C218.335 70.932 222.397 69.4943 226.129 67.1477C230.018 64.702 233.507 61.7706 236.786 58.5727C237.04 58.3251 237.304 58.0874 237.625 57.7886C237.69 58.0151 237.756 58.1326 237.753 58.248C237.662 61.5359 237.564 64.8221 237.109 68.0876C236.85 69.9456 235.975 71.3062 234.255 72.148C232.404 73.0535 230.673 74.1691 229.072 75.4695C227.265 76.9382 225.488 78.4456 223.697 79.935C222.676 80.7841 221.707 81.6883 220.88 82.7299C220.554 83.1411 220.166 83.418 219.675 83.585C218.81 83.8791 217.956 84.2025 217.092 84.4966C213.976 85.5575 210.94 86.8096 207.977 88.2461C202.318 90.9888 197.633 94.8989 193.824 99.8906C190.45 104.312 188.149 109.242 186.764 114.61C186.445 115.846 186.219 117.106 185.972 118.36C185.92 118.619 185.934 118.901 185.972 119.165C186.013 119.451 186.278 119.675 186.554 119.633C186.756 119.602 187.001 119.49 187.112 119.333C187.262 119.119 187.325 118.834 187.386 118.57C187.527 117.948 187.626 117.316 187.776 116.695C188.928 111.909 190.707 107.382 193.41 103.247C196.713 98.1942 200.883 94.0322 206.143 91.0233C210.645 88.4484 215.475 86.6409 220.401 85.0796C220.957 84.9039 221.396 84.6598 221.734 84.1999C222.523 83.1243 223.497 82.2253 224.492 81.3482C225.348 80.593 226.202 79.8334 227.074 79.0954C229.624 76.9369 232.256 74.8947 235.263 73.3915C235.427 73.3097 235.58 73.2085 235.736 73.1138C237.269 72.1833 238.196 70.8386 238.515 69.0706C238.871 67.09 239.074 65.0921 239.186 63.0851C239.434 58.6127 239.42 54.1356 239.39 49.6584C239.378 47.7892 238.961 46.0588 237.925 44.4652C237.23 43.3965 236.632 42.2584 236.066 41.1144C234.57 38.0896 233.858 34.8391 233.433 31.5185C233.318 30.6164 233.265 29.6997 233.269 28.7899C233.273 27.7725 233.553 26.7985 234.049 25.9076C234.466 25.158 235.31 24.9466 236.047 25.3935C236.27 25.5287 236.428 25.7694 236.633 25.9787C236.549 26.178 236.494 26.3485 236.41 26.5035C235.864 27.5167 235.919 28.5062 236.467 29.5064C237.06 30.5872 237.615 31.6886 238.191 32.7784C238.916 34.1485 239.909 35.1405 241.598 35.1246C241.704 35.3063 241.8 35.4579 241.883 35.6172C242.703 37.1983 243.527 38.7776 244.338 40.363C245.482 42.5986 246.637 44.829 247.748 47.0805C248.459 48.5217 248.899 50.0623 249.151 51.6477C249.517 53.9495 249.722 56.2699 249.783 58.5989C249.882 62.3415 249.934 66.0854 250.289 69.8164C250.354 70.498 250.413 71.1805 250.488 71.8612C250.558 72.5075 250.818 72.7921 251.285 72.7633C251.712 72.737 251.907 72.4193 251.892 71.7191C251.88 71.171 251.866 70.6216 251.81 70.0769C251.526 67.3023 251.457 64.5168 251.429 61.7327C251.403 59.1277 251.321 56.5283 251.049 53.9375C250.81 51.6623 250.434 49.4185 249.585 47.2717C249.354 46.687 249.2 46.042 249.162 45.4155C249.034 43.3203 248.91 41.2208 248.907 39.1225C248.903 36.245 248.981 33.3661 249.076 30.4894C249.202 26.6995 249.389 22.9116 249.528 19.1221C249.598 17.1983 249.842 15.3012 250.255 13.4234C250.738 11.2266 251.483 9.12362 252.542 7.13693C253.19 5.92184 253.974 4.80149 254.935 3.81029C255.387 3.34355 255.902 2.97712 256.549 2.82254C257.036 2.70629 257.468 2.89961 257.65 3.381C257.759 3.67078 257.798 3.98768 257.855 4.23483C257.752 4.38123 257.716 4.49492 257.646 4.52334C256.687 4.90914 256.291 5.68846 256.126 6.64349C255.798 8.54708 255.691 10.458 256.072 12.3607C256.262 13.3123 256.665 14.1821 257.577 14.7315C257.601 15.1849 257.625 15.6383 257.648 16.0917C257.801 19.0093 257.952 21.9265 258.108 24.8437C258.128 25.2536 258.168 25.6622 258.204 26.0712ZM281.433 29.7885C281.195 29.5856 281.278 29.4293 281.377 29.2803C282.126 28.1552 283.081 27.2618 284.252 26.8536C283.311 27.8332 282.37 28.8123 281.433 29.7885ZM274.822 27.5877C276.252 26.5203 277.756 25.5769 279.324 24.7287C280.583 24.0475 281.926 23.6169 283.331 23.4034C283.862 23.3229 284.43 23.3392 284.959 23.4335C285.748 23.5739 285.962 24.0522 285.685 24.8579C285.643 24.9789 285.53 25.0749 285.46 25.1679C285.35 25.1903 285.247 25.2467 285.181 25.2183C284.374 24.8699 283.656 25.1111 282.989 25.5683C281.653 26.4842 280.529 27.6183 279.734 29.0306C279.218 29.9482 278.862 30.9381 279.167 32.0783C278.478 32.837 277.784 33.6227 277.067 34.3866C275.318 36.2497 273.562 38.1068 271.8 39.9579C269.752 42.1095 267.845 44.3782 266.049 46.7434C265.668 47.2463 265.349 47.8116 264.827 48.1974C264.741 48.1156 264.634 48.0631 264.619 47.9908C264.186 45.9412 263.762 43.8895 263.341 41.8576C264.281 39.8972 265.205 37.9656 266.133 36.0361C266.575 35.1173 267.265 34.3793 267.956 33.6546C270.068 31.435 272.364 29.4212 274.822 27.5877ZM262.952 38.9878C262.824 38.841 262.687 38.7548 262.659 38.6416C261.865 35.5035 261.004 32.3797 260.321 29.2171C259.604 25.8938 259.644 26.8571 260.852 23.9704C261.964 21.3125 263.429 18.8332 264.937 16.3853C267.02 13.0014 269.229 9.70234 271.886 6.73048C273.257 5.19675 274.684 3.7203 276.434 2.60166C277.132 2.15557 277.864 1.79732 278.681 1.62681C279.389 1.47912 280.038 1.62207 280.647 1.99108C280.934 2.1646 280.982 2.30885 280.953 2.9319C280.886 2.98916 280.815 3.0994 280.752 3.0951C279.943 3.03912 279.393 3.43138 278.877 4.01783C277.383 5.71475 276.099 7.52404 275.529 9.75315C275.417 10.1928 275.319 10.6414 275.276 11.0918C275.215 11.7329 275.2 12.3818 275.799 12.8934C271.062 21.3939 267.168 30.2423 262.952 38.9878Z" fill="#ECB971"/>
</svg>
