<svg width="28" height="24" viewBox="0 0 28 24" fill="none" xmlns="http://www.w3.org/2000/svg">
<path d="M20.1368 13.9717C20.0726 12.9011 19.1928 12.1964 18.8126 12.0908C15.107 11.0604 12.7946 11.3356 11.7611 11.108C11.4407 11.0374 10.1124 10.1473 7.89095 9.75708C5.66934 9.36682 1.02611 8.58097 1.00624 8.40289C0.98652 8.22481 0.887621 7.33486 3.20175 7.33486C5.51603 7.33486 7.61263 7.59197 7.61263 7.59197L3.00395 3.08218C3.00395 3.08218 1.89633 2.0536 2.72697 1.77678C3.55775 1.4998 6.80157 4.42719 6.80157 4.42719L6.34666 1.75824C6.34666 1.75824 6.32694 1.22282 6.76198 1.18338C7.19702 1.14394 7.63784 1.77544 7.98836 3.20095C8.11306 3.70835 8.26534 4.46678 8.26534 4.46678L9.30193 6.06147L11.107 6.7216L9.61035 4.9414L9.31364 2.72603C9.31364 2.72603 9.17516 1.91511 9.72896 1.91511C10.2828 1.91511 10.8762 4.36773 10.8762 4.36773L12.2014 5.91053L13.3882 6.32585C13.3882 6.32585 16.5214 5.82364 17.823 5.73127C20.7313 5.52487 22.6458 6.32585 23.8265 7.35117C26.7441 9.8846 26.9914 16.6353 27.1108 19.4221C27.1943 21.3734 25.6349 22.9998 23.6818 22.9998C21.7051 22.9998 20.1371 21.3345 20.2559 19.3614L20.1368 13.9717Z" stroke="#373737" stroke-width="0.444825" stroke-miterlimit="10" stroke-linecap="round" stroke-linejoin="round"/>
<path d="M6.80176 4.42773L8.18634 5.65396L10.8369 6.62324" stroke="#373737" stroke-width="0.444825" stroke-miterlimit="10" stroke-linecap="round" stroke-linejoin="round"/>
<path d="M15.6139 9.9426C15.6139 9.9426 13.6817 9.27077 11.8758 9.0955C10.6768 8.97911 7.86729 9.38182 7.86729 9.38182C7.86729 9.38182 7.20895 9.13761 7.22896 8.48861C7.24898 7.83961 8.15613 7.26446 9.5597 7.04116C10.9633 6.81786 12.4091 6.47548 13.3874 6.32617" stroke="#373737" stroke-width="0.444825" stroke-miterlimit="10" stroke-linecap="round" stroke-linejoin="round"/>
</svg>
