<svg width="64" height="77" viewBox="0 0 64 77" fill="none" xmlns="http://www.w3.org/2000/svg">
<path d="M63.7099 34.0795C63.1728 31.56 61.938 29.9161 60.2357 29.4486C60.1205 29.4169 60.0028 29.3979 59.8868 29.3773C59.8851 29.3567 59.8851 29.3361 59.8851 29.3146C59.8464 28.1597 59.8077 26.9652 59.8077 25.7699C59.8077 25.0206 59.7776 24.847 59.6651 24.6004C59.6419 24.5488 59.5963 24.4534 59.5327 24.0057L59.4537 23.4523H57.3312C56.9514 10.4603 45.7399 0.000732422 31.9994 0.000732422C18.2606 0.000732422 7.04913 10.4603 6.66845 23.4523H4.58203L4.50469 24.0083C4.44626 24.4371 4.40673 24.5136 4.39212 24.5428C4.26666 24.7903 4.24346 24.9708 4.24346 25.6797C4.24346 26.9197 4.19448 28.164 4.14464 29.3713C4.01746 29.3919 3.88856 29.4143 3.76396 29.4486C2.06166 29.9153 0.827676 31.56 0.289744 34.0795C-0.216394 36.4504 -0.0557012 39.3591 0.742604 42.2705C2.0058 46.873 4.57086 50.4185 7.2313 51.515C7.49339 53.2474 7.734 55.0245 7.93422 56.7912C8.61566 62.7936 14.5896 67.305 18.5433 70.2902C19.5969 71.0851 20.5052 71.7717 21.123 72.3397C23.9948 74.9812 26.4809 75.9308 31.104 76.0786V76.1009L31.9796 76.0958L32.2125 76.1009L32.857 76.0923V76.076C37.481 75.9282 39.9661 74.9804 42.8397 72.3371C43.4575 71.7691 44.3649 71.0825 45.4176 70.2877C49.3722 67.3024 55.3461 62.791 56.0276 56.7887C56.2261 55.0271 56.4676 53.2552 56.7279 51.5288C59.4021 50.4529 61.9878 46.8936 63.257 42.2679C64.0553 39.3591 64.2169 36.4504 63.7099 34.0795ZM31.9994 1.28971C45.0266 1.28971 55.6607 11.171 56.0422 23.4523H52.4365C52.1443 21.5593 50.9327 19.9893 49.2845 19.295C48.9795 19.1575 48.6598 19.0483 48.3298 18.9744C49.1969 17.969 49.6841 16.6569 49.6841 15.2519C49.6841 12.179 47.3064 9.67835 44.3856 9.67835C44.065 9.67835 43.7445 9.71359 43.4283 9.77546C43.2392 6.96463 41.0119 4.73557 38.293 4.73557C38.2758 4.73557 38.2647 4.74416 38.2492 4.74416C38.1908 4.74244 38.134 4.73557 38.0747 4.73557C35.2502 4.73557 32.7762 7.5103 32.7762 10.6734V14.121C32.7762 14.463 33.0495 14.7457 33.3889 14.7457C33.7292 14.7457 34.0033 14.4639 34.0033 14.121V10.6734C34.0033 8.17627 35.9067 5.98587 38.0747 5.98587C40.3184 5.98587 42.147 7.92449 42.147 10.3091C42.147 10.3778 42.141 10.4466 42.1367 10.5136L42.1307 10.5772C42.1256 10.658 42.141 10.7353 42.1642 10.8092C41.8652 12.7977 40.2454 14.3238 38.2904 14.3238C37.9501 14.3238 37.676 14.604 37.676 14.9485C37.676 15.294 37.9501 15.575 38.2904 15.575C40.828 15.575 42.9411 13.6312 43.363 11.0868C43.7016 10.9914 44.041 10.9269 44.3839 10.9269C46.6275 10.9269 48.4553 12.8656 48.4553 15.2502C48.4553 16.7892 47.7051 18.1787 46.4514 18.9658C46.4385 18.9762 46.4325 18.9873 46.4179 18.9976C44.2979 19.4144 42.6583 21.2069 42.3129 23.4523H38.3394V22.6566H40.3726C40.7129 22.6566 40.9878 22.3765 40.9878 22.0319C40.9878 21.6864 40.7129 21.4054 40.3726 21.4054H38.3394V20.0073C38.3394 19.0724 37.591 18.3102 36.6741 18.3102H35.2235V16.2392C35.2235 15.8938 34.9494 15.6128 34.61 15.6128C34.2697 15.6128 33.9939 15.8929 33.9939 16.2392V18.3102H32.6112V16.2392C32.6112 15.8938 32.3371 15.6128 31.9968 15.6128C31.6582 15.6128 31.3841 15.8929 31.3841 16.2392V18.3102H30.0006V16.2392C30.0006 15.8938 29.7265 15.6128 29.3871 15.6128C29.0476 15.6128 28.7726 15.8929 28.7726 16.2392V18.3102H27.3221C26.4035 18.3102 25.655 19.0724 25.655 20.0073V21.7475H23.621C23.2825 21.7475 23.0075 22.0276 23.0075 22.3722C23.0075 22.7176 23.2825 22.9969 23.621 22.9969H25.655V23.4515H21.6833C21.337 21.2061 19.6965 19.4127 17.5749 18.9968C17.562 18.9865 17.5551 18.9753 17.5431 18.965C16.2885 18.1779 15.5426 16.7883 15.5426 15.2493C15.5426 12.8647 17.3695 10.9261 19.6149 10.9261C19.9569 10.9261 20.2981 10.9897 20.6358 11.0859C21.0568 13.6304 23.1682 15.5741 25.7066 15.5741C26.046 15.5741 26.321 15.294 26.321 14.9477C26.321 14.604 26.046 14.323 25.7066 14.323C23.7396 14.323 22.1112 12.777 21.8294 10.7731C21.8534 10.6906 21.8689 10.6073 21.8629 10.5248C21.8586 10.4526 21.8517 10.3804 21.8517 10.3082C21.8517 7.92363 23.6803 5.98329 25.9232 5.98329C28.0912 5.98329 29.9963 8.17369 29.9963 10.6709V14.1184C29.9963 14.4622 30.2704 14.7449 30.609 14.7449C30.9484 14.7449 31.2226 14.463 31.2226 14.1184V10.6709C31.2226 7.50858 28.7469 4.73471 25.9232 4.73471C25.8656 4.73471 25.8071 4.73986 25.7487 4.7433C25.7341 4.74158 25.7229 4.73471 25.7057 4.73471C22.9886 4.73471 20.7587 6.96206 20.5713 9.77288C20.2542 9.71101 19.9337 9.67578 19.6132 9.67578C16.6915 9.67578 14.3121 12.1764 14.3121 15.2493C14.3121 16.656 14.8019 17.9665 15.6681 18.9719C15.3381 19.0475 15.0193 19.1566 14.7142 19.2924C13.0661 19.9884 11.8527 21.5584 11.5605 23.4515H7.95485C8.3381 11.1701 18.9721 1.28971 31.9994 1.28971ZM51.1776 23.4515H43.5598C43.9361 21.5713 45.4898 20.15 47.3717 20.15C47.889 20.15 48.3822 20.2591 48.8342 20.4525C50.0064 20.9921 50.8854 22.1041 51.1776 23.4515ZM35.5071 20.5994H28.4908C28.1531 20.5994 27.8772 20.8795 27.8772 21.2258V23.4532H26.8839V20.0091C26.8839 19.7624 27.0815 19.5614 27.3238 19.5614H36.6749C36.9172 19.5614 37.1149 19.7642 37.1149 20.0091V23.4532H36.1224V21.225C36.1207 20.8795 35.8465 20.5994 35.5071 20.5994ZM34.8927 21.848V23.4523H29.1061V21.848H34.8927ZM20.4416 23.4515H12.822C13.1142 22.1032 13.9924 20.9913 15.1679 20.4525C15.6191 20.2591 16.1123 20.15 16.6288 20.15C18.5115 20.1508 20.0652 21.5722 20.4416 23.4515ZM1.98689 41.9285C1.24187 39.2139 1.08633 36.5217 1.55036 34.3493C1.98088 32.3308 2.88402 31.0358 4.09394 30.6972C3.99683 33.3843 3.98309 35.9159 4.59234 38.1312C5.19644 40.3302 6.16059 44.8192 6.98296 49.9193C4.98505 48.6303 2.98972 45.5875 1.98689 41.9285ZM54.7455 56.6452C54.1259 62.0984 48.4183 66.4079 44.6408 69.2616C43.5606 70.0763 42.6291 70.7809 41.9657 71.3919C39.2039 73.9312 36.9233 74.7286 32.2022 74.8051L31.9796 74.8085L31.7588 74.8051C27.0377 74.7286 24.7571 73.9312 21.9961 71.3919C21.3327 70.7809 20.4003 70.0771 19.321 69.2616C15.5435 66.4096 9.83503 62.0992 9.21546 56.646C8.34326 48.95 6.71399 40.9867 5.83491 37.7909C5.18871 35.4398 5.30557 32.5774 5.42846 29.5466C5.48001 28.2894 5.53243 26.9884 5.53243 25.6805C5.53243 25.2423 5.54532 25.1254 5.54275 25.1254C5.59087 25.03 5.63555 24.9286 5.68195 24.7422H58.3572C58.4036 24.9329 58.4491 25.0438 58.4964 25.1452C58.505 25.1813 58.5179 25.3102 58.5179 25.7716C58.5179 26.9884 58.5566 28.1932 58.5952 29.3584C58.6958 32.4494 58.7912 35.3693 58.1252 37.79C57.247 40.9858 55.6168 48.95 54.7455 56.6452ZM62.0127 41.9285C60.997 45.627 58.9931 48.7025 56.9703 49.9657C57.7935 44.8485 58.7628 40.337 59.3695 38.132C59.9813 35.9047 59.9968 33.3809 59.9246 30.7041C61.1242 31.0521 62.0196 32.342 62.4493 34.3493C62.9133 36.5217 62.7578 39.2131 62.0127 41.9285Z" fill="#FFFDFA"/>
<path d="M26.5755 52.2659C26.2559 52.4215 26.1227 52.8065 26.2773 53.127C26.4329 53.4458 26.8179 53.5807 27.1392 53.4243C27.5629 53.2181 28.2761 53.3659 28.5021 53.5678C28.5726 53.6305 28.6525 53.7328 28.7496 53.8531C29.2119 54.4177 30.0729 55.4669 31.5003 55.4669H32.4988C33.8917 55.4669 34.7072 54.4864 35.1945 53.9021C35.3045 53.7706 35.3938 53.6537 35.478 53.5841C35.7333 53.3727 36.425 53.2129 36.859 53.4252C37.1812 53.5807 37.5653 53.4475 37.7217 53.127C37.8773 52.8082 37.7432 52.4223 37.4227 52.2659C36.4981 51.8165 35.2658 52.0846 34.6565 52.5899C34.5019 52.7154 34.3635 52.8847 34.202 53.078C33.7938 53.5678 33.2876 54.1779 32.4988 54.1779H31.5003C30.6831 54.1779 30.1417 53.5171 29.7464 53.035C29.5969 52.8537 29.468 52.7016 29.3614 52.6062C28.7694 52.076 27.5105 51.8114 26.5755 52.2659Z" fill="#FFFDFA"/>
<path d="M44.6086 34.3252C41.2856 34.3252 38.9835 36.0782 38.15 37.8372C37.2443 39.0351 37.2443 39.2688 37.2443 39.4398C37.2443 39.9907 37.692 40.4367 38.2411 40.4367L38.4336 40.4083C38.4353 40.4066 38.7738 40.3026 39.1769 40.3585C39.2628 40.3705 39.5283 40.4624 39.7646 40.5432C40.6927 40.8637 42.2481 41.3999 44.2339 41.3999C48.2702 41.3999 51.221 39.097 51.221 37.8991C51.2219 36.1616 47.8233 34.3252 44.6086 34.3252ZM44.2348 40.1118C42.4637 40.1118 41.0381 39.6194 40.1866 39.3256C39.811 39.1975 39.5636 39.1107 39.3513 39.0824C39.2069 39.0635 39.0686 39.0549 38.9397 39.0549C38.9131 39.0549 38.8864 39.0549 38.8589 39.0566C38.9698 38.8976 39.0944 38.7258 39.2198 38.5616L39.2937 38.4362C39.9279 37.0312 41.8184 35.6133 44.6103 35.6133C47.434 35.6133 49.798 37.1807 49.9278 37.8441C49.6708 38.3107 47.6403 40.1118 44.2348 40.1118Z" fill="#FFFDFA"/>
<path d="M24.8207 40.3594C25.2202 40.3053 25.5571 40.4067 25.5571 40.4067L25.7539 40.4376C26.3056 40.4376 26.7533 39.9899 26.7533 39.4408C26.7533 39.2698 26.7533 39.0344 25.8493 37.8382C25.0157 36.0792 22.7136 34.3262 19.3889 34.3262C16.1759 34.3262 12.7773 36.1634 12.7773 37.9009C12.7773 39.0997 15.7282 41.4018 19.7644 41.4018C21.7486 41.4018 23.3014 40.8656 24.2295 40.5459C24.4666 40.4634 24.7339 40.3706 24.8207 40.3594ZM19.7644 40.1119C16.3581 40.1119 14.3284 38.3108 14.0723 37.8442C14.2029 37.1817 16.5661 35.6134 19.3898 35.6134C22.1817 35.6134 24.0722 37.0313 24.7072 38.4363L24.7811 38.5617C24.9066 38.7259 25.0312 38.8986 25.142 39.055C24.9839 39.0533 24.8224 39.0584 24.6488 39.0816C24.4357 39.11 24.1736 39.2011 23.8101 39.3257C22.9585 39.6196 21.5329 40.1119 19.7644 40.1119Z" fill="#FFFDFA"/>
<path d="M15.2065 31.8976C15.2779 31.8933 22.5296 31.8169 26.174 35.6374C27.6984 37.2357 28.3884 39.3256 28.226 41.8494C28.2028 42.2051 28.4718 42.5119 28.8267 42.5343C28.8413 42.536 28.8551 42.536 28.8697 42.536C29.2065 42.536 29.4901 42.2739 29.5116 41.9327C29.6998 39.0334 28.8886 36.6153 27.1029 34.7454C23.0624 30.5133 15.5047 30.6061 15.1833 30.6095C14.8276 30.6164 14.5449 30.9094 14.5509 31.2652C14.5569 31.6209 14.8276 31.9002 15.2065 31.8976Z" fill="#FFFDFA"/>
<path d="M35.1293 42.5352C35.1439 42.5352 35.1576 42.5352 35.1722 42.5335C35.528 42.5111 35.7978 42.2044 35.7729 41.8486C35.6105 39.3256 36.2996 37.2358 37.8258 35.6366C41.4684 31.8161 48.7202 31.9003 48.7933 31.8969C49.161 31.9055 49.4429 31.6202 49.4498 31.2635C49.4558 30.9078 49.1739 30.6148 48.8182 30.6079C48.4942 30.5967 40.9365 30.5116 36.8986 34.7438C35.1129 36.6136 34.3026 39.0326 34.4891 41.9311C34.5088 42.2731 34.7924 42.5352 35.1293 42.5352Z" fill="#FFFDFA"/>
<path d="M41.234 61.0973C35.3838 60.073 34.8192 60.3583 34.6345 60.4503C34.564 60.4855 34.4729 60.5362 34.3655 60.5972C33.9264 60.8456 33.1118 61.3062 32.2851 61.3328H31.7369C30.8896 61.3053 30.0732 60.8447 29.6359 60.5972C29.5267 60.5362 29.4365 60.4855 29.3677 60.4511C29.183 60.3583 28.6115 60.0748 22.7665 61.0973C22.4159 61.1584 22.1804 61.4926 22.2423 61.8432C22.3042 62.1938 22.6462 62.4293 22.9882 62.3666C24.4172 62.1165 26.0104 61.8759 27.1731 61.7315H29.024C29.5628 62.0357 30.5459 62.5831 31.7163 62.6201H32.3075C33.4555 62.5831 34.4386 62.0357 34.9774 61.7315H36.7682C37.9497 61.8682 39.5644 62.1113 41.0123 62.3666C41.3561 62.4284 41.6972 62.1938 41.7574 61.8432C41.8201 61.4926 41.5864 61.1592 41.234 61.0973Z" fill="#FFFDFA"/>
<path d="M35.2132 64.3059C34.5188 64.6273 33.8254 64.8034 33.1594 64.8911H31.0437C29.7195 64.7235 28.8044 64.3153 28.7872 64.3067C28.4632 64.1589 28.0817 64.2981 27.9313 64.6187C27.7818 64.9409 27.9201 65.3233 28.2424 65.4745C28.3429 65.5218 29.9576 66.2582 32.1162 66.2582C33.229 66.2582 34.4862 66.0623 35.7545 65.4745C36.0768 65.325 36.2177 64.9426 36.0682 64.6187C35.9187 64.2964 35.5337 64.1555 35.2132 64.3059Z" fill="#FFFDFA"/>
</svg>
