<svg width="418" height="585" viewBox="0 0 418 585" fill="none" xmlns="http://www.w3.org/2000/svg">
<mask id="mask0_141_29097" style="mask-type:alpha" maskUnits="userSpaceOnUse" x="0" y="0" width="418" height="585">
<rect width="418" height="585" fill="#D9D9D9"/>
</mask>
<g mask="url(#mask0_141_29097)">
<path d="M43.9789 481.643L69.5565 466.329C70.6987 465.645 72.1796 466.208 72.5787 467.477L81.512 495.92C81.669 496.423 82.0142 496.845 82.4749 497.102L108.527 511.595C109.691 512.243 109.943 513.805 109.043 514.787L88.8759 536.743C88.5196 537.132 88.3249 537.641 88.3341 538.168L88.8072 567.977C88.8282 569.309 87.5995 570.308 86.3001 570.018L57.2025 563.533C56.6869 563.42 56.1492 563.507 55.6978 563.776L30.1204 579.09C28.9782 579.774 27.4971 579.21 27.0981 577.942L18.1648 549.499C18.0079 548.996 17.6626 548.573 17.2019 548.316L-8.85062 533.824C-10.0137 533.176 -10.266 531.613 -9.36599 530.632L10.8009 508.676C11.1572 508.287 11.352 507.777 11.3427 507.251L10.8695 477.442C10.8489 476.112 12.0773 475.111 13.3768 475.401L42.4743 481.886C42.9879 482.002 43.5256 481.915 43.9789 481.643Z" fill="#F1EAD6" stroke="#F1EAD6" stroke-miterlimit="10" stroke-linecap="round" stroke-linejoin="round"/>
<path d="M-38.2638 416.84L-32.9047 428.794C-28.8962 437.737 -21.5112 444.728 -12.3628 448.24L-6.55406 450.47L-11.3656 454.416C-18.9437 460.629 -23.7525 469.591 -24.7429 479.339L-26.067 492.372L-31.4261 480.418C-35.4346 471.475 -42.8196 464.484 -51.968 460.972L-57.7768 458.742L-52.9652 454.797C-45.3871 448.584 -40.5783 439.621 -39.5879 429.874L-38.2638 416.84Z" fill="#F1EAD6" stroke="#F1EAD6" stroke-miterlimit="10" stroke-linecap="round" stroke-linejoin="round"/>
<path d="M326.803 266.2L354.13 267.101C354.98 267.13 355.392 268.152 354.798 268.76L335.702 288.329C335.406 288.635 335.338 289.096 335.541 289.473L348.424 313.589C348.824 314.338 348.143 315.206 347.32 314.996L320.824 308.242C320.412 308.136 319.978 308.31 319.753 308.673L305.309 331.888C304.859 332.61 303.769 332.454 303.539 331.636L296.142 305.313C296.026 304.904 295.66 304.615 295.234 304.601L267.907 303.7C267.057 303.671 266.645 302.648 267.239 302.041L286.335 282.472C286.631 282.168 286.699 281.705 286.498 281.328L273.615 257.212C273.215 256.462 273.896 255.594 274.719 255.805L301.215 262.558C301.627 262.665 302.061 262.49 302.287 262.127L316.731 238.912C317.18 238.191 318.271 238.346 318.5 239.164L325.897 265.487C326.011 265.897 326.377 266.186 326.803 266.2Z" fill="#F1EAD6" stroke="#F1EAD6" stroke-miterlimit="10" stroke-linecap="round" stroke-linejoin="round"/>
<path d="M285.821 358.941L288.183 362.668C291.042 367.181 295.227 370.702 300.162 372.746L303.071 373.951L300.689 376.009C296.648 379.503 293.784 384.162 292.49 389.346L291.422 393.627L289.061 389.9C286.201 385.386 282.017 381.866 277.081 379.822L274.173 378.617L276.554 376.558C280.596 373.064 283.459 368.406 284.753 363.222L285.821 358.941Z" fill="#F1EAD6" stroke="#F1EAD6" stroke-miterlimit="10" stroke-linecap="round" stroke-linejoin="round"/>
<path d="M328.613 152.546L334.561 167.441C336.916 173.34 341.834 177.843 347.919 179.671L358.769 182.932L349.02 188.707C343.554 191.943 339.865 197.498 338.996 203.79L336.806 219.677L330.861 204.781C328.507 198.882 323.588 194.379 317.503 192.551L306.653 189.29L316.4 183.516C321.866 180.279 325.555 174.725 326.424 168.433L328.613 152.546Z" fill="#F1EAD6" stroke="#F1EAD6" stroke-miterlimit="10" stroke-linecap="round" stroke-linejoin="round"/>
<path d="M358.959 348.685L364.319 360.639C368.327 369.582 375.712 376.573 384.861 380.085L390.669 382.315L385.858 386.26C378.28 392.473 373.471 401.436 372.48 411.183L371.156 424.217L365.797 412.263C361.789 403.32 354.404 396.329 345.255 392.817L339.447 390.587L344.258 386.641C351.836 380.426 356.645 371.466 357.635 361.718L358.959 348.685Z" fill="#F1EAD6" stroke="#F1EAD6" stroke-miterlimit="10" stroke-linecap="round" stroke-linejoin="round"/>
<path d="M-18.8505 240.714C-18.8505 240.714 -35.2136 255.094 -41.031 260.201C-46.8456 265.309 -50.3061 270.656 -50.4088 275.769C-50.5092 280.881 -45.4433 290.256 -44.0632 294.975C-42.6832 299.694 -39.6899 317.278 -38.8719 324.25C-38.054 331.222 -37.2406 347.77 -37.2406 347.77C-37.2406 347.77 -42 362.699 -39.2628 371.57C-36.5256 380.441 -27.7041 390.55 -21.3738 392.462C-15.0435 394.374 -11.5373 395.043 -5.58396 397.48C0.369382 399.917 17.0665 408.648 23.1211 410.758C29.1756 412.868 59.8189 419.966 69.1178 424.952C78.4164 429.936 100.281 438.144 105.621 442.531C110.961 446.918 120.903 453.963 124.025 456.082C127.147 458.204 128.381 462.019 128.381 462.019C128.381 462.019 162.888 497.833 166.112 504.416C169.337 510.999 168.682 514.598 173.355 519.616C178.025 524.635 181.42 540.861 182.239 546.904C183.061 552.949 183.87 566.562 191.4 569.206C198.931 571.852 252.432 558.887 260.633 558.026C268.834 557.166 366.258 536.954 366.258 536.954C366.258 536.954 359.441 527.013 353.159 520.384C346.877 513.755 338.368 504.819 334.897 499.822C331.426 494.823 319.195 478.614 313.442 471.668C307.686 464.721 297.132 455.306 294.233 448.824C291.333 442.343 287.664 430.369 284.965 426.578C282.269 422.786 264.196 409.141 261.589 404.466C258.98 399.792 255.72 377.442 253.232 369.563C250.743 361.684 236.483 337.926 236.483 337.926L-18.8505 240.714Z" fill="#FFFDFA"/>
<path d="M199.572 568.507C196.024 569.426 192.318 568.823 189.448 566.462C185.923 563.562 185.415 558.702 184.665 554.495C183.797 549.622 182.91 544.755 182.063 539.879C181.251 535.22 180.647 530.482 178.72 526.114C176.916 522.022 174.301 518.369 172.617 514.213C170.906 509.995 169.299 505.952 166.496 502.311C163.73 498.713 160.456 495.51 157.36 492.2C154.077 488.692 150.789 485.189 147.543 481.647C143.916 477.689 140.323 473.699 136.768 469.674C134.96 467.627 133.137 465.591 131.337 463.537C130.368 462.43 129.291 461.204 128.627 459.834C135.353 463.315 141.296 467.944 147.324 472.533C151.093 475.403 154.849 478.291 158.594 481.191C162.451 484.177 166.147 487.641 170.309 490.187C171.142 490.696 172.29 489.68 171.55 488.866C168.704 485.743 165.159 483.174 161.905 480.49C158.539 477.714 155.17 474.941 151.756 472.222C145.349 467.119 139.01 461.56 131.735 457.717C128.385 455.947 124.862 454.522 121.511 452.749C117.928 450.854 114.838 448.319 111.748 445.723C105.808 440.732 99.315 437.004 92.1996 433.941C88.2678 432.248 84.2687 430.725 80.2921 429.151C77.732 428.136 75.2522 426.945 72.7608 425.785C72.7314 425.441 72.5705 425.119 72.2011 424.914C56.8094 416.246 38.8304 414.549 22.3284 408.859C18.1809 407.429 14.1341 405.743 10.2448 403.712C6.23162 401.618 2.36088 399.261 -1.7101 397.279C-5.87309 395.254 -10.1063 394.041 -14.6037 393.024C-19.2263 391.98 -22.9486 389.899 -26.4173 386.689C-29.6217 383.723 -32.9198 380.441 -35.3969 376.832C-38.2113 372.733 -38.7799 367.76 -38.632 362.898C-38.4964 358.415 -37.7056 353.957 -36.2503 349.713C-34.7708 345.399 -32.5489 341.561 -30.1525 337.705C-27.8184 333.947 -25.6889 330.125 -24.8074 325.744C-23.9315 321.388 -24.243 316.877 -24.6489 312.486C-25.0723 307.899 -25.5774 303.349 -25.2255 298.739C-24.8687 294.071 -23.9151 289.477 -23.0315 284.89C-22.1281 280.205 -21.3088 275.498 -21.1909 270.714C-21.0721 265.995 -21.4711 261.281 -21.4065 256.563C-21.3686 253.85 -21.149 250.943 -20.5159 248.162C-20.224 248.357 -19.9418 248.564 -19.6519 248.761C-18.2758 249.702 -16.8085 250.547 -15.2905 251.237C-13.7929 251.919 -12.2153 252.45 -10.5958 252.757C-9.73614 252.919 -8.91675 252.979 -8.04441 252.911C-7.20013 252.846 -6.35069 252.9 -5.65457 252.343C-5.0422 251.853 -5.2884 250.988 -5.92362 250.677C-6.56384 250.363 -7.29712 250.515 -7.98538 250.432C-8.71474 250.344 -9.45671 250.25 -10.1824 250.126C-11.5874 249.886 -12.9424 249.473 -14.2613 248.931C-15.5978 248.381 -16.868 247.715 -18.146 247.045C-18.7516 246.726 -19.3482 246.389 -19.9464 246.057C-19.5642 244.876 -19.0927 243.734 -18.4985 242.663C-18.44 242.556 -18.3704 242.474 -18.3114 242.369C-18.1797 242.467 -18.0495 242.569 -17.9189 242.659C-17.4199 243.007 -16.9051 243.336 -16.3875 243.652C-15.3052 244.313 -14.1654 244.935 -12.9599 245.346C-11.8148 245.737 -10.6081 245.994 -9.40119 246.107C-8.7666 246.165 -8.13477 246.163 -7.49745 246.136C-6.76825 246.106 -6.01909 246.068 -5.5703 245.401C-5.32946 245.044 -5.26557 244.414 -5.61248 244.084C-6.20263 243.523 -6.71002 243.548 -7.46795 243.562C-8.01833 243.57 -8.57233 243.541 -9.11937 243.497C-10.2453 243.402 -11.3279 243.164 -12.3971 242.804C-13.4764 242.441 -14.5104 241.947 -15.4971 241.38C-16.0244 241.077 -16.5369 240.747 -17.0735 240.46C-17.0785 240.458 -17.0839 240.454 -17.0892 240.451C-15.3354 237.982 -13.308 236.196 -11.1184 235.179C-9.36495 234.366 -7.56706 233.886 -5.62551 233.958C-3.99633 234.017 -3.69352 231.596 -5.34706 231.415C-6.76439 231.261 -8.12108 231.349 -9.42063 231.616C-9.8946 230.954 -10.8404 230.581 -11.5121 231.26C-12.0943 231.849 -12.6791 232.436 -13.2612 233.025C-16.3063 234.667 -18.8372 237.354 -20.6667 240.424C-24.094 243.791 -27.573 247.102 -31.1824 250.294C-34.566 253.287 -38.0028 256.229 -41.4907 259.103C-44.6421 261.7 -47.7846 264.133 -49.6393 267.868C-51.2634 271.14 -51.7665 274.873 -51.4977 278.488C-51.1804 282.77 -49.5046 286.695 -47.8172 290.59C-44.1114 299.139 -42.8177 308.631 -41.2682 317.772C-40.3861 322.986 -39.6574 328.232 -39.2741 333.51C-39.084 336.138 -38.934 338.768 -38.9201 341.406C-38.9143 342.703 -38.9631 343.999 -38.9835 345.295C-39.0001 346.292 -38.8622 347.454 -39.0591 348.478C-39.8181 350.67 -40.4186 352.92 -40.8624 355.201C-41.7467 359.755 -42.008 364.545 -41.4133 369.151C-40.7891 373.999 -38.6475 378.067 -35.4605 381.718C-32.4679 385.146 -29.2337 388.619 -25.6067 391.386C-21.7585 394.321 -17.5266 395.497 -12.8764 396.536C-3.55121 398.62 4.13544 404.386 12.6841 408.333C29.2772 415.994 47.8617 417.658 64.7276 424.574C65.8789 425.047 67.0248 425.529 68.1637 426.027C70.7482 428.073 73.8763 429.481 76.8576 430.801C80.4176 432.377 84.0286 433.828 87.6177 435.334C94.6012 438.27 101.485 441.544 107.437 446.299C110.588 448.816 113.531 451.606 116.942 453.781C119.751 455.572 122.779 456.966 125.791 458.374C125.734 462.006 128.915 465.063 131.154 467.713C134.436 471.597 137.778 475.429 141.149 479.237C144.52 483.042 147.924 486.821 151.359 490.569C154.696 494.209 158.18 497.717 161.463 501.407C164.735 505.081 167.105 508.954 168.969 513.502C169.892 515.754 170.846 517.968 172.048 520.09C173.234 522.184 174.548 524.207 175.629 526.357C177.938 530.948 178.76 536.14 179.664 541.152C180.594 546.308 181.519 551.468 182.456 556.623C183.297 561.258 184.457 565.963 188.462 568.89C191.826 571.347 196.32 572.167 200.26 570.759C201.503 570.314 200.872 568.171 199.572 568.507ZM-47.2707 283.739C-47.3472 283.515 -47.3779 283.28 -47.4474 283.055C-47.4029 283.067 -47.3507 283.082 -47.3081 283.096C-46.2744 283.412 -45.2221 283.624 -44.1446 283.727C-42.0861 283.922 -39.7342 283.94 -37.8727 282.96C-37.4492 282.738 -37.207 282.273 -37.3564 281.802C-37.515 281.304 -37.9321 281.111 -38.4294 281.125C-38.9318 281.138 -39.4083 281.12 -39.9026 281.211C-40.3257 281.289 -40.7491 281.35 -41.1752 281.396C-42.0503 281.49 -42.922 281.502 -43.8003 281.445C-44.7146 281.385 -45.629 281.25 -46.5297 281.069C-47.0511 280.964 -47.5579 280.816 -48.0649 280.668C-48.2804 279.524 -48.418 278.364 -48.459 277.201C-46.6697 277.753 -44.8136 278.161 -42.9671 278.32C-41.8553 278.415 -40.7086 278.434 -39.5992 278.295C-38.9774 278.216 -38.3989 278.044 -37.8042 277.856C-37.1802 277.658 -36.522 277.438 -36.3274 276.737C-36.1986 276.273 -36.29 275.795 -36.6958 275.496C-37.2786 275.069 -37.807 275.228 -38.4507 275.363C-38.9708 275.47 -39.5076 275.533 -40.0352 275.595C-40.99 275.709 -41.9352 275.736 -42.8945 275.675C-44.7609 275.555 -46.5789 275.134 -48.4194 274.851C-48.3535 274.056 -48.2707 273.264 -48.1058 272.482C-47.2376 268.371 -44.7574 265.356 -41.5553 262.765C-38.0557 259.933 -34.5005 257.197 -31.0986 254.245C-28.5132 251.999 -25.9608 249.695 -23.4349 247.36C-25.5146 255.846 -23.6891 264.892 -24.3918 273.519C-25.1796 283.186 -28.4524 292.54 -28.4145 302.292C-28.3793 311.602 -25.4191 321.31 -29.442 330.198C-31.2255 334.14 -33.8231 337.645 -35.9094 341.427C-35.8933 340.148 -35.8961 338.87 -35.9273 337.591C-36.036 333.003 -36.4895 328.435 -37.1121 323.89C-37.7426 319.282 -38.5557 314.701 -39.4327 310.135C-40.3111 305.56 -41.0701 300.904 -42.346 296.42C-43.6001 292.026 -45.7951 288.038 -47.2707 283.739Z" fill="#F1EAD6"/>
<path d="M356.026 492.947C349.989 496.342 342.811 497.025 337.024 500.938C335.254 502.136 333.723 503.671 332.575 505.46C331.515 503.635 330.206 501.947 328.808 500.373C326.733 498.037 324.5 495.852 322.545 493.409C320.424 490.756 318.592 487.905 317.028 484.89C316.47 483.813 314.682 483.678 314.261 484.972C313.218 488.179 310.871 490.561 308.609 492.963C306.369 495.339 304.371 497.819 302.804 500.698C302.369 501.495 301.977 502.309 301.613 503.133C300.501 500.911 298.893 498.884 297.239 497.297C295.023 495.173 292.553 493.351 290.257 491.318C287.992 489.314 285.458 486.848 284.379 483.953C284.109 483.232 283.222 483.006 282.652 483.524C277.793 487.948 272.668 492.243 268.229 497.099C267.543 497.851 266.89 498.66 266.264 499.495C265.706 498.749 265.106 498.053 264.475 497.432C259.267 492.323 251.21 489.253 248.73 481.867C248.443 481.016 247.138 480.768 246.511 481.357C242.466 485.164 238.571 489.113 234.819 493.211C233.547 494.601 232.314 496.026 231.075 497.446C229.535 495.369 227.723 493.538 225.721 491.766C223.052 489.402 218.988 485.309 221.191 481.37C221.673 480.511 221.143 478.993 219.924 479.318C213.242 481.107 206.434 482.941 200.564 486.735C197.399 488.781 193.856 491.898 191.883 495.537C190.102 492 187.682 488.874 184.504 486.584C175.059 479.774 162.849 481.483 152.1 483.129C145.454 484.147 138.742 485.065 132.071 483.742C130.523 483.435 129.596 485.837 130.956 486.642C137.976 490.806 144.987 494.994 151.934 499.276C157.942 502.976 163.533 506.991 167.491 512.942C168.088 513.837 168.474 514.102 171.87 515.836C182.516 521.275 190.931 523.823 202.309 527.558C208.04 529.439 213.944 530.87 219.938 531.578C226.429 532.344 232.968 532.114 239.488 531.935C246.077 531.752 252.608 531.811 259.157 532.626C265.715 533.445 272.204 534.739 278.74 535.696C291.321 537.541 304.13 537.582 316.702 535.607C330.866 533.381 341.73 530.272 354.323 523.418C355.49 522.782 356.41 521.22 355.198 517.193C354.779 515.8 354.465 514.354 354.222 512.951C353.829 510.692 353.608 508.397 353.746 506.104C353.986 502.106 355.242 498.281 357.926 495.257C358.938 494.118 357.342 492.207 356.026 492.947Z" fill="#F1EAD6"/>
<path d="M351.543 499.7C351.432 499.486 351.274 499.31 351.069 499.173C350.804 498.983 350.509 498.87 350.186 498.832C349.846 498.797 349.523 498.849 349.212 498.989C349.196 498.994 349.178 499.002 349.163 499.012C349.011 499.095 348.859 499.184 348.722 499.289C348.615 499.403 348.51 499.515 348.403 499.629C348.254 499.821 348.161 500.035 348.126 500.271C348.068 500.424 348.051 500.583 348.077 500.745C348.062 500.994 348.11 501.232 348.225 501.46C348.308 501.593 348.392 501.727 348.477 501.862L348.818 502.181C349.01 502.33 349.224 502.423 349.46 502.461C349.622 502.515 349.793 502.5 349.962 502.491C350.235 502.495 350.504 502.477 350.76 502.362C351.055 502.225 351.3 502.024 351.492 501.761L351.719 501.346C351.839 501.033 351.872 500.712 351.819 500.382C351.782 500.125 351.691 499.899 351.543 499.7Z" fill="#FFFDFA"/>
<path d="M349.781 502.517C349.8 502.519 349.815 502.507 349.834 502.509C349.796 502.51 349.759 502.511 349.722 502.513C349.743 502.512 349.762 502.513 349.781 502.517Z" fill="#FFFDFA"/>
<path d="M350.215 502.497C350.192 502.499 350.171 502.498 350.147 502.499C350.157 502.498 350.165 502.503 350.176 502.501C350.187 502.5 350.202 502.5 350.215 502.497Z" fill="#FFFDFA"/>
<path d="M350.149 502.501C350.085 502.513 350.023 502.485 349.958 502.489C349.917 502.488 349.878 502.511 349.835 502.509C349.941 502.506 350.045 502.503 350.149 502.501Z" fill="#FFFDFA"/>
<path d="M342.589 504.341C342.44 504.02 342.222 503.757 341.938 503.549C341.787 503.467 341.636 503.385 341.486 503.305C341.148 503.175 340.799 503.139 340.441 503.196C340.167 503.229 339.92 503.328 339.705 503.491C339.471 503.611 339.28 503.782 339.132 504.005C338.967 504.216 338.865 504.45 338.824 504.71C338.738 504.966 338.724 505.231 338.777 505.502C338.828 505.673 338.88 505.845 338.933 506.016C339.082 506.338 339.3 506.601 339.585 506.808L340.036 507.053C340.374 507.183 340.724 507.219 341.081 507.161C341.355 507.126 341.602 507.03 341.817 506.867C342.051 506.746 342.242 506.576 342.39 506.353C342.555 506.142 342.657 505.907 342.698 505.647C342.785 505.392 342.801 505.126 342.745 504.856C342.692 504.685 342.64 504.513 342.589 504.341Z" fill="#FFFDFA"/>
<path d="M350.586 505.766C350.437 505.447 350.221 505.183 349.937 504.976C349.786 504.894 349.638 504.813 349.488 504.731C349.152 504.603 348.805 504.567 348.447 504.622C348.173 504.657 347.929 504.753 347.713 504.916C347.481 505.034 347.291 505.207 347.145 505.427C346.982 505.636 346.88 505.87 346.839 506.128C346.752 506.383 346.738 506.646 346.791 506.917C346.842 507.088 346.894 507.26 346.947 507.431C347.096 507.751 347.311 508.014 347.596 508.222L348.045 508.466C348.383 508.594 348.73 508.633 349.086 508.575C349.359 508.541 349.604 508.444 349.82 508.282C350.051 508.161 350.242 507.991 350.388 507.771C350.553 507.559 350.653 507.328 350.694 507.068C350.781 506.812 350.795 506.55 350.742 506.279C350.688 506.107 350.637 505.938 350.586 505.766Z" fill="#FFFDFA"/>
<path d="M317.236 490.969L316.961 490.53C316.738 490.261 316.464 490.064 316.138 489.936L315.635 489.814C315.269 489.776 314.921 489.832 314.585 489.984C314.523 490.01 314.464 490.036 314.402 490.063C314.32 490.097 314.244 490.145 314.176 490.204C314.097 490.245 314.022 490.29 313.952 490.344C313.946 490.35 313.939 490.353 313.933 490.359C313.921 490.37 313.91 490.379 313.898 490.388C313.873 490.409 313.848 490.432 313.823 490.452L313.484 490.815C313.325 491.018 313.224 491.248 313.186 491.497C313.123 491.662 313.105 491.83 313.133 492.003C313.117 492.269 313.169 492.521 313.292 492.764L313.56 493.192L313.923 493.533C314.126 493.692 314.355 493.79 314.605 493.831C314.853 493.914 315.109 493.929 315.373 493.877C315.403 493.875 315.436 493.872 315.466 493.869C315.678 493.847 315.834 493.803 316.067 493.703C316.129 493.677 316.189 493.651 316.251 493.624C316.497 493.523 316.702 493.369 316.865 493.162C317.057 492.987 317.198 492.777 317.283 492.527C317.392 492.277 317.429 492.02 317.4 491.755C317.412 491.478 317.358 491.217 317.236 490.969Z" fill="#FFFDFA"/>
<path d="M312.152 497.132C312.003 496.81 311.785 496.544 311.498 496.335C311.347 496.253 311.197 496.171 311.044 496.089C310.703 495.959 310.354 495.923 309.993 495.979C309.717 496.014 309.47 496.111 309.253 496.274C309.019 496.394 308.826 496.565 308.677 496.788C308.513 496.999 308.409 497.236 308.37 497.496C308.284 497.754 308.268 498.019 308.323 498.292C308.375 498.466 308.429 498.637 308.48 498.809C308.629 499.131 308.847 499.396 309.135 499.606C309.285 499.688 309.438 499.77 309.589 499.852C309.929 499.982 310.279 500.018 310.639 499.962C310.915 499.927 311.162 499.83 311.38 499.667C311.614 499.546 311.806 499.375 311.955 499.153C312.12 498.941 312.224 498.704 312.262 498.445C312.349 498.187 312.365 497.921 312.309 497.649C312.258 497.477 312.204 497.306 312.152 497.132Z" fill="#FFFDFA"/>
<path d="M321.322 496.523C321.226 496.373 321.133 496.22 321.038 496.07C320.806 495.792 320.524 495.587 320.188 495.456L320.18 495.453C319.921 495.341 319.656 495.301 319.382 495.333C319.1 495.317 318.832 495.372 318.573 495.501C318.318 495.607 318.107 495.766 317.938 495.978C317.739 496.157 317.595 496.377 317.504 496.635L317.377 497.156C317.339 497.534 317.397 497.894 317.552 498.24L317.836 498.694C318.068 498.971 318.35 499.177 318.686 499.307L318.694 499.311C318.953 499.423 319.218 499.463 319.492 499.431C319.774 499.447 320.042 499.391 320.301 499.262C320.556 499.157 320.767 498.997 320.936 498.785C321.135 498.607 321.279 498.387 321.37 498.128C321.413 497.955 321.454 497.781 321.497 497.608C321.535 497.23 321.477 496.87 321.322 496.523Z" fill="#FFFDFA"/>
<path d="M283.848 488.638C283.743 488.385 283.584 488.174 283.374 488.006C283.195 487.808 282.978 487.665 282.72 487.577C282.374 487.443 282.018 487.406 281.651 487.465C281.606 487.47 281.56 487.478 281.515 487.49C281.331 487.541 281.149 487.598 280.968 487.654C280.869 487.684 280.857 487.714 280.718 487.803C280.628 487.836 280.551 487.884 280.486 487.952C280.4 488.018 280.359 488.121 280.289 488.199C280.217 488.277 280.141 488.351 280.073 488.428C279.959 488.558 279.859 488.778 279.816 488.889C279.626 489.374 279.645 489.93 279.861 490.404C280.07 490.863 280.461 491.228 280.931 491.408C280.994 491.434 281.053 491.436 281.115 491.452C281.199 491.488 281.316 491.509 281.43 491.526L281.44 491.527C281.486 491.534 281.512 491.549 281.57 491.554C281.753 491.548 281.935 491.544 282.119 491.538C282.124 491.538 282.13 491.536 282.135 491.536C282.144 491.534 282.153 491.53 282.162 491.529C282.197 491.523 282.232 491.52 282.267 491.517C282.459 491.49 282.65 491.438 282.833 491.357C282.984 491.264 283.134 491.168 283.285 491.073C283.56 490.844 283.763 490.562 283.894 490.229C284.004 489.972 284.044 489.707 284.012 489.435C284.032 489.162 283.975 488.894 283.848 488.638Z" fill="#FFFDFA"/>
<path d="M277.856 494.686C277.704 494.358 277.483 494.088 277.19 493.877C277.037 493.793 276.884 493.711 276.731 493.627C276.385 493.496 276.029 493.459 275.664 493.515C275.383 493.549 275.134 493.651 274.912 493.817C274.674 493.938 274.479 494.114 274.329 494.339C274.16 494.554 274.057 494.795 274.016 495.058C273.928 495.32 273.912 495.588 273.967 495.866C274.019 496.042 274.073 496.218 274.125 496.392C274.277 496.718 274.499 496.99 274.791 497.201C274.944 497.285 275.097 497.367 275.253 497.451C275.598 497.582 275.952 497.62 276.32 497.563C276.601 497.529 276.852 497.427 277.071 497.261C277.31 497.14 277.504 496.964 277.655 496.739C277.824 496.524 277.927 496.283 277.967 496.02C278.055 495.757 278.071 495.49 278.017 495.212L277.856 494.686Z" fill="#FFFDFA"/>
<path d="M288.795 494.692C288.771 494.601 288.733 494.484 288.713 494.423C288.693 494.356 288.663 494.242 288.632 494.155C288.627 494.139 288.62 494.124 288.61 494.106C288.567 494.03 288.473 493.889 288.466 493.876C288.438 493.831 288.372 493.716 288.32 493.642C288.314 493.635 288.308 493.627 288.302 493.621C288.174 493.502 288.048 493.382 287.92 493.263C287.706 493.097 287.467 492.993 287.204 492.95C287.032 492.883 286.854 492.867 286.672 492.894C286.394 492.877 286.128 492.932 285.872 493.061L285.87 493.062C285.544 493.211 285.276 493.432 285.065 493.724C285.009 493.802 285.011 493.899 284.967 493.982C284.952 494.003 284.924 494.01 284.909 494.031C284.868 494.102 284.82 494.197 284.792 494.247C284.834 494.169 284.706 494.391 284.675 494.462C284.674 494.467 284.67 494.472 284.669 494.48C284.612 494.64 284.562 494.814 284.547 494.985C284.539 495.071 284.554 495.263 284.553 495.256C284.554 495.292 284.549 495.441 284.561 495.53C284.583 495.711 284.663 495.894 284.72 496.06C284.721 496.067 284.724 496.071 284.728 496.078L284.732 496.087C284.739 496.1 284.997 496.515 285.006 496.523C285.02 496.54 285.363 496.861 285.379 496.87C285.411 496.894 285.792 497.095 285.828 497.113C285.836 497.116 285.843 497.12 285.851 497.123C286.006 497.191 286.45 497.273 286.389 497.259C286.404 497.261 286.419 497.266 286.435 497.266C286.528 497.272 286.676 497.26 286.721 497.26C286.775 497.258 286.915 497.262 287.006 497.252C287.013 497.251 287.02 497.249 287.027 497.248L287.036 497.247L287.045 497.245C287.214 497.194 287.386 497.143 287.556 497.092C287.569 497.087 287.582 497.081 287.595 497.074C287.668 497.029 287.741 496.981 287.815 496.936C287.89 496.891 287.963 496.844 288.038 496.796L288.047 496.79C288.053 496.784 288.059 496.779 288.065 496.773L288.069 496.77C288.185 496.647 288.302 496.522 288.419 496.398C288.423 496.395 288.425 496.393 288.427 496.388C288.431 496.382 288.437 496.377 288.44 496.369C288.532 496.219 288.616 496.063 288.693 495.907C288.696 495.899 288.7 495.891 288.701 495.884C288.755 495.707 288.814 495.527 288.831 495.342C288.832 495.335 288.831 495.33 288.833 495.323L288.832 495.318C288.827 495.139 288.821 494.96 288.819 494.78C288.818 494.776 288.817 494.771 288.819 494.766C288.818 494.75 288.813 494.734 288.811 494.718C288.8 494.708 288.798 494.701 288.795 494.692Z" fill="#FFFDFA"/>
<path d="M286.843 493.351C286.813 493.344 286.786 493.337 286.757 493.332C286.743 493.332 286.726 493.332 286.712 493.332C286.755 493.337 286.799 493.342 286.843 493.351Z" fill="#FFFDFA"/>
<path d="M248.011 485.686C247.894 485.461 247.729 485.274 247.514 485.131C247.369 485.053 247.221 484.973 247.076 484.894C246.913 484.854 246.748 484.815 246.585 484.774C246.229 484.737 245.887 484.792 245.563 484.94C245.556 484.941 245.552 484.944 245.545 484.945C245.239 485.087 244.985 485.293 244.788 485.567C244.591 485.84 244.474 486.145 244.436 486.481C244.437 486.488 244.436 486.493 244.436 486.497C244.397 486.766 244.427 487.024 244.525 487.269C244.553 487.442 244.623 487.597 244.735 487.732C244.852 487.957 245.017 488.144 245.232 488.287L245.67 488.524C245.836 488.563 245.998 488.604 246.161 488.644C246.43 488.683 246.688 488.653 246.933 488.554C247.106 488.526 247.26 488.456 247.396 488.345C247.621 488.228 247.808 488.063 247.951 487.848C248.029 487.703 248.11 487.557 248.188 487.409C248.228 487.247 248.267 487.082 248.307 486.919C248.347 486.65 248.317 486.394 248.218 486.147C248.193 485.976 248.123 485.821 248.011 485.686Z" fill="#FFFDFA"/>
<path d="M243.186 493.011C243.037 492.69 242.819 492.424 242.532 492.215C242.381 492.132 242.228 492.051 242.078 491.968C241.737 491.839 241.388 491.8 241.028 491.858C240.752 491.894 240.504 491.99 240.287 492.153C240.053 492.274 239.86 492.445 239.712 492.67C239.547 492.881 239.443 493.118 239.402 493.378C239.316 493.636 239.3 493.902 239.356 494.174C239.408 494.348 239.461 494.52 239.513 494.694C239.662 495.015 239.88 495.281 240.167 495.49C240.318 495.572 240.471 495.654 240.622 495.736C240.962 495.866 241.311 495.902 241.672 495.846C241.948 495.811 242.195 495.714 242.413 495.551C242.646 495.431 242.839 495.26 242.987 495.035C243.152 494.823 243.256 494.586 243.297 494.326C243.383 494.069 243.399 493.803 243.344 493.53C243.289 493.357 243.238 493.185 243.186 493.011Z" fill="#FFFDFA"/>
<path d="M251.908 492.869C251.755 492.538 251.531 492.264 251.236 492.052C251.08 491.968 250.925 491.884 250.769 491.798C250.42 491.665 250.061 491.626 249.69 491.686C249.406 491.72 249.153 491.822 248.929 491.988C248.688 492.113 248.492 492.289 248.339 492.517C248.168 492.734 248.063 492.978 248.023 493.243C247.936 493.508 247.918 493.781 247.975 494.06C248.03 494.239 248.082 494.415 248.137 494.593C248.29 494.924 248.514 495.198 248.809 495.411C248.965 495.494 249.12 495.578 249.276 495.664C249.624 495.797 249.984 495.836 250.353 495.777C250.636 495.743 250.89 495.64 251.114 495.474C251.354 495.35 251.551 495.174 251.703 494.946C251.872 494.729 251.98 494.486 252.019 494.22C252.109 493.954 252.124 493.682 252.067 493.402C252.015 493.223 251.96 493.048 251.908 492.869Z" fill="#FFFDFA"/>
<path d="M217.468 483.219C217.319 482.897 217.101 482.632 216.814 482.422C216.663 482.34 216.51 482.258 216.36 482.176C216.019 482.047 215.67 482.011 215.31 482.066C215.033 482.099 214.786 482.198 214.569 482.361C214.335 482.482 214.142 482.653 213.994 482.876C213.829 483.087 213.725 483.324 213.686 483.583C213.6 483.841 213.584 484.107 213.64 484.38C213.691 484.553 213.745 484.725 213.797 484.899C213.946 485.22 214.164 485.486 214.451 485.695C214.602 485.777 214.752 485.86 214.905 485.942C215.246 486.071 215.595 486.11 215.956 486.051C216.232 486.019 216.479 485.92 216.696 485.757C216.93 485.636 217.123 485.465 217.272 485.242C217.436 485.031 217.54 484.794 217.579 484.534C217.665 484.276 217.681 484.011 217.626 483.738C217.573 483.562 217.52 483.391 217.468 483.219Z" fill="#FFFDFA"/>
<path d="M208.019 487.667C207.87 487.343 207.649 487.075 207.362 486.866C207.209 486.784 207.058 486.7 206.905 486.618C206.564 486.486 206.21 486.451 205.848 486.507C205.569 486.542 205.322 486.639 205.103 486.805C204.866 486.926 204.674 487.099 204.523 487.324C204.357 487.538 204.253 487.775 204.212 488.038C204.127 488.298 204.11 488.563 204.164 488.839C204.216 489.013 204.27 489.186 204.322 489.36C204.471 489.684 204.692 489.952 204.982 490.163C205.135 490.245 205.285 490.327 205.439 490.411C205.78 490.543 206.133 490.578 206.496 490.522C206.775 490.489 207.022 490.39 207.241 490.224C207.477 490.103 207.67 489.93 207.82 489.704C207.987 489.491 208.091 489.254 208.131 488.991C208.217 488.731 208.234 488.466 208.18 488.19C208.123 488.015 208.071 487.841 208.019 487.667Z" fill="#FFFDFA"/>
<path d="M217.383 490.927C217.317 490.753 217.044 490.399 217.091 490.453C216.974 490.316 216.842 490.19 216.694 490.081C216.536 489.996 216.38 489.909 216.222 489.826C216.217 489.824 216.21 489.823 216.204 489.819C216.038 489.771 215.837 489.701 215.648 489.687C215.132 489.645 214.979 489.71 214.5 489.867C214.491 489.871 214.483 489.875 214.471 489.879C214.312 489.962 214.13 490.053 213.994 490.181C213.875 490.309 213.754 490.438 213.635 490.564C213.466 490.78 213.363 491.019 213.32 491.284C213.253 491.456 213.235 491.635 213.264 491.819C213.248 492.099 213.303 492.367 213.432 492.623L213.716 493.075C213.844 493.194 213.972 493.313 214.101 493.434C214.174 493.493 214.27 493.499 214.35 493.543L214.436 493.591C214.449 493.598 214.458 493.611 214.474 493.618C214.55 493.667 214.628 493.711 214.712 493.747C214.712 493.747 214.725 493.75 214.73 493.752L214.72 493.748C214.73 493.752 214.737 493.755 214.745 493.759C214.75 493.762 214.755 493.764 214.761 493.768C214.936 493.811 215.108 493.854 215.283 493.894C215.47 493.89 215.653 493.884 215.84 493.88C216.123 493.846 216.376 493.744 216.601 493.577C216.766 493.501 216.902 493.389 217.01 493.241C217.151 493.126 217.253 492.984 217.318 492.815C217.425 492.668 217.488 492.501 217.508 492.32C217.598 492.055 217.613 491.782 217.556 491.503C217.555 491.498 217.554 491.491 217.554 491.486C217.533 491.39 217.44 491.105 217.383 490.927Z" fill="#FFFDFA"/>
<path d="M217.382 490.926L217.388 490.937C217.304 490.695 217.33 490.767 217.382 490.926Z" fill="#FFFDFA"/>
<path d="M142.124 487.736C142.048 487.575 141.941 487.441 141.797 487.339C141.621 487.145 141.407 487.004 141.156 486.917C140.986 486.876 140.816 486.834 140.648 486.793C140.28 486.755 139.927 486.812 139.589 486.964C139.421 487.055 139.261 487.164 139.103 487.267C139.086 487.28 139.068 487.289 139.052 487.304C138.95 487.38 138.866 487.486 138.783 487.575C138.521 487.856 138.546 487.807 138.334 488.254C138.325 488.272 138.316 488.289 138.31 488.309C138.303 488.329 138.297 488.347 138.29 488.367C138.244 488.531 138.201 488.72 138.164 488.887C138.161 488.899 138.158 488.909 138.155 488.922C138.16 489.101 138.165 489.278 138.17 489.454C138.204 489.726 138.301 489.971 138.461 490.184C138.534 490.343 138.643 490.474 138.782 490.577C138.956 490.77 139.167 490.908 139.416 490.994L139.916 491.117C140.093 491.112 140.272 491.106 140.449 491.102C140.72 491.067 140.965 490.971 141.179 490.811C141.369 490.714 141.512 490.558 141.646 490.392C141.62 490.42 141.593 490.448 141.57 490.475C141.596 490.447 141.622 490.42 141.646 490.392C141.62 490.42 141.593 490.448 141.567 490.476C141.61 490.431 141.658 490.392 141.71 490.36C141.788 490.3 141.822 490.207 141.887 490.138C141.899 490.126 141.909 490.113 141.921 490.101L141.887 490.138C141.995 490.016 142.12 489.908 142.185 489.758C142.33 489.538 142.413 489.292 142.434 489.022C142.428 488.84 142.425 488.661 142.42 488.482C142.386 488.198 142.287 487.951 142.124 487.736Z" fill="#FFFDFA"/>
<path d="M141.468 490.579C141.502 490.543 141.534 490.508 141.568 490.472C141.534 490.508 141.5 490.544 141.468 490.579Z" fill="#FFFDFA"/>
<path d="M147.797 492.102C147.654 491.793 147.445 491.54 147.172 491.341C147.026 491.262 146.884 491.183 146.738 491.105C146.413 490.98 146.078 490.946 145.734 491C145.469 491.033 145.233 491.126 145.026 491.282C144.803 491.396 144.619 491.561 144.476 491.776C144.317 491.979 144.221 492.203 144.181 492.453C144.097 492.699 144.084 492.952 144.135 493.214C144.186 493.378 144.236 493.543 144.287 493.71C144.429 494.019 144.638 494.272 144.912 494.471C145.057 494.55 145.2 494.628 145.345 494.707C145.671 494.832 146.005 494.865 146.349 494.812C146.614 494.779 146.85 494.686 147.057 494.53C147.28 494.416 147.464 494.251 147.607 494.036C147.764 493.833 147.862 493.609 147.902 493.358C147.986 493.113 148 492.86 147.948 492.598L147.797 492.102Z" fill="#FFFDFA"/>
<path d="M152.026 485.813C151.895 485.69 151.764 485.569 151.633 485.446C151.333 485.231 151 485.103 150.633 485.06C150.444 485.064 150.258 485.071 150.07 485.075C149.696 485.136 149.363 485.289 149.07 485.528C149.016 485.575 148.962 485.621 148.908 485.668C148.689 485.836 148.524 486.045 148.414 486.292C148.264 486.52 148.18 486.775 148.159 487.053C148.118 487.342 148.148 487.619 148.255 487.883C148.31 488.156 148.435 488.399 148.623 488.612L149.014 488.978C149.314 489.192 149.645 489.321 150.011 489.361C150.198 489.357 150.386 489.35 150.572 489.346C150.944 489.286 151.277 489.135 151.57 488.896C151.627 488.854 151.684 488.814 151.744 488.771C151.965 488.603 152.131 488.394 152.239 488.144C152.389 487.914 152.476 487.658 152.497 487.378C152.538 487.09 152.507 486.81 152.4 486.546C152.339 486.269 152.215 486.027 152.026 485.813Z" fill="#FFFDFA"/>
<path d="M368.277 533.016C366.268 528.905 364.289 524.775 362.226 520.69C360.44 517.154 357.947 514.431 353.688 514.775C351.61 514.943 349.596 515.739 347.63 516.381C345.23 517.166 342.828 517.952 340.429 518.738C331.489 521.663 323.46 524.137 314.187 525.76C298.983 528.418 282.281 521.125 267.56 518.281C255.938 516.035 244.151 516.402 232.375 516.3C220.818 516.201 209.354 514.981 198.037 512.627C191.656 511.298 185.348 509.641 179.121 507.727C173.311 505.942 167.388 503.823 161.214 504.578C160.301 504.69 159.848 505.89 160.459 506.578C166.214 513.065 170.746 520.54 173.808 528.656C175.361 532.771 176.515 537.027 177.257 541.364C177.987 545.615 178.36 549.919 179.142 554.161C179.961 558.601 181.427 562.771 183.71 566.672C186.891 572.104 193.479 574.045 194.516 574.039C228.712 573.785 260.659 560.33 293.485 552.524C301.527 550.612 309.658 549.038 317.875 548.097C326.63 547.096 335.385 547.216 344.18 546.999C348.593 546.89 352.998 546.648 357.362 545.955C359.504 545.616 361.63 545.173 363.72 544.594C365.366 544.139 367.115 543.684 368.455 542.568C371.65 539.913 369.758 536.044 368.277 533.016Z" fill="#F1EAD6"/>
<path d="M365.87 531.25C365.56 530.106 365.327 528.941 365.129 527.775C364.697 525.245 364.351 522.705 363.384 520.309C361.832 516.463 358.488 513.337 354.138 513.526C351.803 513.626 349.604 514.559 347.503 515.507C345.179 516.557 342.836 517.558 340.443 518.444C335.449 520.295 330.297 521.647 325.089 522.737C319.619 523.883 313.997 524.538 308.602 526.013C308.21 525.934 307.819 525.857 307.427 525.778C300.745 524.43 294.08 522.994 287.439 521.448C281.025 519.955 274.664 518.195 268.214 516.861C262.007 515.578 255.312 514.578 249.119 516.288C245.238 515.333 241.302 514.61 237.323 514.213C228.084 513.29 218.789 514.063 209.594 512.534C201.308 511.156 193.242 508.727 185.092 506.739C176.275 504.59 166.725 502.346 157.624 503.891C156.792 504.033 156.763 505.42 157.664 505.429C165.918 505.516 173.884 506.511 181.873 508.637C189.89 510.772 197.76 513.438 205.885 515.157C209.99 516.027 214.135 516.638 218.326 516.885C223.074 517.167 227.833 517.074 232.584 517.287C241.395 517.683 249.868 519.667 258.212 522.45C262.867 524.002 267.42 525.829 271.935 527.747C274.236 528.725 276.561 529.636 278.849 530.647C281.133 531.656 283.349 532.792 285.758 533.474C286.567 533.703 287.251 532.664 286.491 532.121C282.96 529.592 278.723 527.892 274.855 525.928C270.947 523.943 266.845 522.254 262.767 520.656C259.453 519.356 256.068 518.202 252.637 517.222C257.258 517.349 261.84 517.798 266.408 518.758C272.909 520.124 279.294 522.041 285.725 523.683C298.8 527.022 311.954 529.985 325.222 532.452C328.889 533.134 332.559 533.82 336.255 534.315C339.822 534.793 343.789 535.429 347.323 534.512C348.562 534.191 348.593 532.451 347.265 532.232C344.018 531.698 340.685 531.781 337.415 531.341C334.104 530.895 330.814 530.273 327.524 529.68C322.934 528.851 318.356 527.956 313.781 527.045C316.508 526.732 319.224 526.289 321.933 525.835C326.843 525.011 331.731 523.959 336.522 522.6C341.146 521.288 345.478 519.506 349.887 517.629C351.965 516.744 354.373 515.903 356.594 516.802C358.436 517.546 359.726 519.261 360.515 521.023C361.631 523.519 361.972 526.307 362.545 528.962C363.005 531.092 363.543 534.067 365.454 535.387C366.099 535.832 366.839 535.282 366.789 534.563C366.712 533.413 366.17 532.357 365.87 531.25Z" fill="#FFFDFA"/>
<path d="M228.334 550.475C227.089 548.774 224.807 547.883 222.91 547.103C220.827 546.246 218.667 545.6 216.483 545.062C211.978 543.955 207.377 543.343 202.811 542.558C198.303 541.785 193.789 540.827 189.588 538.963C185.037 536.944 181.253 533.728 178.092 529.917C174.402 525.467 171.875 520.336 168.61 515.614C168.082 514.849 166.944 515.649 167.274 516.45C169.202 521.114 171.971 525.71 174.964 529.769C177.947 533.812 181.554 537.426 185.964 539.894C194.222 544.518 203.881 545.004 212.97 546.844C215.496 547.355 218.004 547.985 220.43 548.862C222.834 549.731 225.088 551.338 227.564 551.906C228.37 552.089 228.739 551.028 228.334 550.475Z" fill="#FFFDFA"/>
<path d="M245.433 555.769C244.115 555.596 242.911 555.871 241.6 556.019C240.072 556.19 238.56 556.299 237.021 556.242C234.081 556.132 231.155 555.61 228.335 554.777C225.586 553.966 222.938 552.878 220.33 551.698C217.581 550.456 214.886 548.926 211.983 548.076C211.354 547.893 210.927 548.649 211.439 549.078C213.811 551.067 216.718 552.516 219.493 553.863C222.373 555.264 225.369 556.482 228.452 557.36C231.323 558.178 234.278 558.716 237.265 558.798C240.017 558.874 243.613 558.928 245.831 557.088C246.33 556.676 246.069 555.851 245.433 555.769Z" fill="#FFFDFA"/>
<path d="M49.2922 350.589L201.242 377.91C207.595 379.053 213.671 374.828 214.814 368.475L267.261 76.7908C268.404 70.4377 264.178 64.362 257.825 63.2188L105.876 35.898C99.5227 34.7549 93.4469 38.9801 92.3038 45.3331L39.8572 337.017C38.714 343.37 42.9396 349.448 49.2922 350.589Z" fill="#F1EAD6"/>
<path d="M56.7332 342.747L196.997 367.968C202.93 369.034 208.606 365.089 209.672 359.156L259.195 83.7378C260.262 77.8045 256.316 72.1287 250.383 71.0622L110.12 45.8419C104.186 44.7754 98.5105 48.7205 97.444 54.6539L47.9212 330.072C46.8548 336.005 50.7999 341.681 56.7332 342.747Z" stroke="#FFFDFA" stroke-miterlimit="10" stroke-linecap="round" stroke-linejoin="round"/>
<path d="M182.959 261.63C213.17 245.378 224.486 207.712 208.234 177.501C191.982 147.291 154.316 135.975 124.105 152.227C93.8943 168.479 82.5785 206.145 98.8305 236.355C115.083 266.566 152.748 277.882 182.959 261.63Z" fill="#F1EAD6"/>
<path d="M157.222 247.335C158.151 246.491 158.78 245.367 159.058 244.143C159.291 243.123 159.538 242.055 159.669 241.608C160.115 240.086 160.372 238.539 160.759 237.008C161.093 235.69 161.972 234.478 163.447 234.429C163.953 234.411 164.406 234.549 164.833 234.743C164.68 234.192 164.542 233.617 164.611 233.045C164.675 232.504 165.065 231.97 165.525 231.678C166.311 231.179 167.27 231.254 168.16 231.179C168.919 231.116 169.568 230.807 170.15 230.304C172.601 228.177 173.389 224.879 174.525 221.778C173.571 221.473 172.648 221.078 171.841 220.703C170.331 220.005 168.894 219.301 167.231 219.047C165.597 218.794 163.934 218.821 162.295 218.601C157.007 217.892 152.53 214.234 150.583 209.303C149.987 207.792 151.637 206.559 153 207.109C159.342 209.667 167.227 208.273 172.259 203.599C175.712 200.391 177.986 196.096 177.867 191.595C177.371 172.656 164.554 155.865 148.521 144.987C156.22 144.365 164.217 145.157 172.2 147.642C199.521 156.145 217.711 182.902 215.522 211.433C212.659 248.741 178.445 274.49 142.569 268.041C137.153 267.066 132.031 265.409 127.268 263.188C138.579 260.414 148.874 254.911 157.222 247.335Z" fill="#FFFDFA"/>
<path d="M185.001 237.784C187.253 239.984 190.604 240.705 193.596 239.834C196.823 238.894 199.025 235.912 198.598 232.521C198.396 230.932 197.813 229.331 197.038 227.933C196.309 226.618 195.392 225.63 194.125 224.731C192.553 223.619 190.716 223.477 189.155 223.535C185.97 223.652 183.36 226.124 182.499 229.078C181.591 232.192 182.727 235.563 185.001 237.784Z" fill="#F1EAD6"/>
<path d="M188.984 191.719C190.032 191.04 191.527 191.526 192.651 191.799C193.92 192.106 195.173 192.495 196.397 192.958C198.837 193.879 201.11 195.15 203.211 196.693C204.022 197.289 205.526 198.169 205.598 199.291C205.624 199.669 205.447 199.998 205.114 200.163C204.518 200.46 203.917 200.082 203.434 199.75C202.369 199.015 201.364 198.218 200.25 197.555C199.14 196.894 197.98 196.3 196.803 195.77C195.501 195.184 194.159 194.691 192.782 194.316C192.569 194.258 192.326 194.215 192.089 194.17C192.138 194.285 192.192 194.4 192.238 194.511C192.471 195.072 192.666 195.649 192.915 196.206C192.974 196.336 193.032 196.466 193.097 196.591C193.033 196.469 193.214 196.787 193.236 196.819C193.31 196.94 193.388 197.055 193.473 197.17C193.494 197.199 193.737 197.487 193.629 197.372C193.723 197.472 193.826 197.567 193.933 197.657C193.976 197.692 194.022 197.727 194.07 197.762C194.083 197.769 194.086 197.769 194.111 197.781C194.142 197.793 194.137 197.792 194.152 197.799C194.187 197.807 194.219 197.816 194.253 197.825C194.278 197.83 194.341 197.839 194.399 197.846C194.422 197.843 194.438 197.826 194.461 197.822C194.584 197.821 194.709 197.829 194.831 197.84C194.899 197.837 194.971 197.827 194.988 197.827C195.032 197.822 195.074 197.818 195.118 197.811C195.136 197.808 195.127 197.809 195.134 197.808C195.185 197.788 195.236 197.763 195.249 197.759L195.327 197.725C195.086 197.851 195.137 197.824 195.477 197.646C195.504 197.635 195.528 197.624 195.555 197.612C195.654 197.568 195.657 197.57 195.565 197.616C195.471 197.666 195.475 197.663 195.573 197.612C195.624 197.585 195.671 197.553 195.717 197.52C196.138 197.236 196.779 197.232 197.166 197.591C197.531 197.93 197.734 198.544 197.466 199.006C197.271 199.343 197.055 199.648 196.733 199.878C196.408 200.11 196.029 200.214 195.643 200.288C195.329 200.351 195.023 200.346 194.702 200.322C194.208 200.285 193.831 200.119 193.512 199.716C193.666 199.847 193.819 199.976 193.971 200.108C192.687 199.605 191.779 198.561 191.177 197.351C190.886 196.768 190.67 196.152 190.465 195.536C190.24 194.867 189.95 194.241 189.673 193.594C189.665 193.577 189.669 193.557 189.661 193.539C189.321 193.381 189.01 193.183 188.768 192.907C188.476 192.563 188.632 191.946 188.984 191.719Z" fill="#F1EAD6"/>
<path d="M187.571 180.802C188.183 179.711 190.072 179.252 191.205 178.937C192.628 178.539 194.087 178.306 195.563 178.266C196.996 178.227 198.44 178.339 199.845 178.624C201.111 178.881 202.927 179.232 203.833 180.227C204.142 180.568 204.081 181.305 203.491 181.303C202.249 181.297 200.984 180.666 199.765 180.415C198.435 180.142 197.083 180.024 195.727 180.077C194.417 180.128 193.099 180.312 191.833 180.654C191.216 180.82 190.617 181.028 190.019 181.252C189.396 181.488 188.737 181.85 188.066 181.774C187.642 181.724 187.361 181.175 187.571 180.802Z" fill="#F1EAD6"/>
<path d="M154.268 214.206C154.848 214.207 155.249 214.561 155.735 214.842C156.278 215.16 156.852 215.413 157.401 215.722C158.474 216.325 159.615 216.806 160.774 217.221C161.917 217.628 163.118 217.891 164.321 218.043C165.066 218.135 165.808 218.127 166.55 218.121C166.381 217.897 166.235 217.665 166.168 217.41C166.04 216.924 166.375 216.51 166.881 216.561C167.526 216.628 168.133 217.114 168.634 217.505C169.192 217.94 169.732 218.398 170.306 218.814C171.428 219.628 172.69 220.378 174.031 220.763C175.119 221.077 176.274 221.151 177.387 220.943C178.554 220.724 179.432 220.09 180.39 219.438C180.861 219.115 181.519 219.641 181.252 220.17C180.023 222.592 176.497 223.012 174.112 222.573C172.558 222.287 171.113 221.596 169.794 220.742C169.371 220.469 168.975 220.159 168.569 219.86C168.486 219.93 168.388 219.986 168.273 220.019C167.008 220.398 165.484 220.261 164.187 220.129C162.783 219.986 161.415 219.663 160.078 219.216C158.784 218.783 157.587 218.164 156.445 217.422C155.863 217.045 155.396 216.604 154.905 216.115C154.482 215.696 153.96 215.276 153.893 214.654C153.869 214.45 154.045 214.206 154.268 214.206Z" fill="#F1EAD6"/>
<path d="M165.627 234.247C166.572 234.921 167.384 235.862 168.232 236.653C169.049 237.417 169.885 238.153 170.737 238.88C171.547 239.571 172.394 240.227 173.311 240.77C173.769 241.042 174.239 241.288 174.724 241.503C175.226 241.725 175.82 241.84 176.099 242.366C176.307 242.759 176.195 243.132 175.794 243.332C175.25 243.602 174.688 243.335 174.173 243.118C173.652 242.899 173.147 242.644 172.658 242.36C171.637 241.77 170.679 241.072 169.775 240.316C168.891 239.576 168.083 238.749 167.283 237.919C166.413 237.02 165.39 236.137 164.658 235.125C164.197 234.485 165.043 233.829 165.627 234.247Z" fill="#F1EAD6"/>
<path d="M182.959 261.63C213.17 245.378 224.486 207.712 208.234 177.501C191.982 147.291 154.316 135.975 124.105 152.227C93.8943 168.479 82.5785 206.145 98.8305 236.355C115.083 266.566 152.748 277.882 182.959 261.63Z" stroke="#FFFDFA" stroke-miterlimit="10" stroke-linecap="round" stroke-linejoin="round"/>
<path d="M166.388 317.392L19.9454 366.274C13.823 368.319 7.20113 365.012 5.15834 358.887L-88.6781 77.7751C-90.7228 71.6527 -87.4162 65.0308 -81.2911 62.988L65.1517 14.1057C71.2741 12.061 77.896 15.3676 79.9388 21.4927L173.776 302.607C175.818 308.728 172.511 315.347 166.388 317.392Z" fill="#F1EAD6"/>
<path d="M157.896 310.7L22.7147 355.825C16.9965 357.733 10.8124 354.645 8.90398 348.927L-79.6994 83.4904C-81.6078 77.7722 -78.5194 71.5881 -72.8012 69.6797L62.3804 24.5552C68.0986 22.6468 74.2827 25.7352 76.1911 31.4534L164.794 296.89C166.705 302.607 163.617 308.791 157.896 310.7Z" stroke="#FFFDFA" stroke-miterlimit="10" stroke-linecap="round" stroke-linejoin="round"/>
<path d="M114.207 165.46C110.53 166.134 106.995 164.292 103.48 163.494C99.1907 162.519 95.4802 163.663 91.4969 165.244C89.414 166.07 87.3393 166.801 85.0699 166.796C82.668 166.79 80.3116 166.143 77.9273 165.924C76.9082 165.831 75.6365 165.83 74.3541 165.983C73.4042 164.734 72.3837 163.561 71.3059 162.445C71.797 161.468 72.2426 160.458 72.6997 159.506C74.5442 155.663 77.0641 152.176 80.1056 149.191C82.8242 146.524 86.781 144.706 88.8233 141.428C90.9307 138.04 89.5718 134.303 88.6095 130.793C87.4585 126.598 88.3606 121.949 91.9404 119.145C93.1072 118.232 92.2737 116.237 90.7551 116.731C86.2763 118.191 81.6144 119.822 77.9487 122.886C76.2274 124.324 74.8246 126.033 73.7692 128.018C72.6432 130.136 71.85 132.351 69.9821 133.966C68.2243 135.486 66.1673 136.59 64.4598 138.188C62.9126 139.633 61.6142 141.344 60.5711 143.184C58.856 146.215 57.8488 149.759 57.8499 153.271C54.7435 151.982 51.476 151.089 48.1126 150.614C49.4813 146.332 54.9797 144.485 56.7894 140.309C58.5905 136.154 57.3161 131.664 57.6409 127.326C57.9763 122.863 60.6848 119.15 62.8141 115.371C65.0594 111.385 66.3598 107.37 65.3476 102.788C64.6661 99.6968 63.3711 96.7944 63.0458 93.6218C62.7128 90.3866 63.1264 87.1847 64.1443 84.1031C64.5119 82.9924 63.1062 82.4261 62.2974 82.8574C52.1308 88.2759 52.1683 101.149 48.1534 110.511C44.2571 119.596 34.6547 125.165 32.1455 134.98C30.7592 140.4 31.8547 146.363 35.0606 150.936C34.4566 151.053 33.8542 151.164 33.2501 151.309C33.0609 151.032 32.8828 150.75 32.6631 150.49C31.2596 148.822 29.2209 147.664 28.0578 145.799C25.8246 142.219 27.6421 137.491 25.7731 133.717C23.9394 130.016 19.9847 129.663 16.4556 128.601C11.1739 127.01 9.67082 121.558 8.77039 116.686C8.61517 115.842 7.86138 115.412 7.07829 115.842C3.10657 118.022 3.07402 123.099 3.34662 127.031C3.5118 129.403 3.72102 131.872 4.8439 134.016C5.96984 136.164 8.22276 137.373 9.35508 139.473C10.4261 141.457 9.99942 143.918 10.0358 146.078C10.0723 148.196 10.5248 150.221 11.8162 151.943C13.9414 154.78 17.1706 156.169 20.5388 156.835C19.687 157.397 18.8586 157.985 18.0591 158.607C15.9822 157.564 13.8187 157.833 11.5981 157.381C9.20362 156.894 7.84974 154.537 6.31101 152.853C4.65687 151.041 2.77448 149.444 0.745363 148.066C-3.1796 145.404 -7.55991 143.793 -12.2199 143.002C-17.1794 142.159 -21.8521 141.524 -25.7356 138.033C-29.6684 134.501 -32.7246 130.18 -36.8204 126.797C-37.7492 126.031 -38.9777 127.148 -38.3775 128.166C-36.0013 132.192 -35.8809 137.102 -34.9184 141.567C-33.858 146.491 -31.1609 150.055 -27.9127 153.776C-24.4608 157.732 -21.0089 161.688 -17.5593 165.644C-14.5839 169.054 -11.6966 172.623 -7.62844 174.779C-4.10414 176.646 0.402625 177.882 4.54365 177.864C4.46598 178.102 4.38061 178.336 4.30792 178.575C2.51156 177.832 0.390019 177.716 -1.48062 177.906C-5.5941 178.329 -9.2161 180.358 -13.1239 181.527C-15.2947 182.176 -17.4065 182.339 -19.6609 182.192C-21.6829 182.061 -23.7233 181.773 -25.7499 181.965C-28.9824 182.272 -32.2784 183.739 -33.6718 186.841C-34.0916 187.776 -33.4335 189.05 -32.305 188.927C-25.4251 188.171 -19.0706 192.065 -12.2035 191.802C-10.2244 191.726 -8.29939 191.212 -6.32863 191.055C-4.16601 190.883 -2.06776 191.354 0.0769031 191.54C0.890902 191.61 1.74061 191.608 2.58347 191.519C2.6307 192.897 2.75439 194.279 2.94761 195.666C-2.41038 194.13 -7.99426 198.351 -11.5975 202.154C-14.2361 204.936 -16.7329 208.126 -20.2439 209.86C-22.9173 211.18 -28.4103 211.125 -27.2914 215.59C-27.0646 216.496 -25.8866 216.781 -25.1737 216.313C-22.4457 214.526 -18.8588 215.49 -15.9961 216.413C-13.2685 217.292 -10.5562 218.324 -7.64654 218.307C-4.66343 218.289 -1.75209 217.109 0.704615 215.473C2.07931 214.558 3.33611 213.469 4.53358 212.336C5.51095 211.408 6.69549 210.4 7.39372 209.196C7.96178 210.25 8.57542 211.264 9.22722 212.25C6.81585 213.052 4.63716 214.957 3.39705 216.999C2.35498 218.714 1.97813 220.662 1.57826 222.599C1.13623 224.745 0.424837 226.572 -0.899526 228.327C-3.30993 231.525 -6.04803 234.247 -7.50885 238.061C-8.95448 241.837 -9.39323 245.924 -8.66472 249.908C-8.37677 251.485 -6.2337 251.824 -5.77781 250.13C-5.2804 248.284 -4.21852 246.604 -2.74807 245.372C-1.02097 243.926 1.10019 243.512 3.17218 242.794C7.11635 241.425 8.98257 238.538 11.0539 235.132C12.0119 233.557 13.0551 232.07 14.6626 231.1C16.5719 229.946 18.6729 229.349 20.3555 227.817C21.2639 226.991 22.0376 225.976 22.6996 224.869C23.3595 225.246 24.0062 225.644 24.6859 225.981C22.7731 228.125 21.6872 230.991 21.3122 233.86C20.6576 238.838 22.0171 243.724 22.9265 248.578C23.8823 253.676 24.0787 258.837 22.37 263.799C21.6153 265.988 20.6358 268.091 19.9598 270.312C19.243 272.663 19.0536 275.097 19.2072 277.544C19.3822 280.343 19.7035 283.374 20.4558 286.083C21.1133 288.453 22.6066 290.443 25.0452 291.1C25.9663 291.349 26.638 290.377 26.4165 289.562C25.1344 284.863 29.6318 281.085 32.8733 278.532C36.5412 275.643 39.7639 272.608 40.7553 267.851C41.7801 262.936 40.5864 258.007 39.4338 253.23C38.7904 250.565 38.0507 247.817 38.1019 245.055C38.1511 242.398 39.3928 240.556 41.1062 238.643C43.2632 236.237 44.8267 233.529 45.492 230.552C45.9859 232.98 47.3732 235.28 49.0837 236.971C50.4477 238.321 52.1343 239.263 53.5671 240.526C54.9667 241.759 55.8629 243.364 56.7532 244.977C58.4627 248.085 60.4617 250.713 63.3812 252.78C66.3276 254.866 69.6226 256.311 72.9357 257.706C74.7749 258.479 75.9834 255.992 74.3084 254.96C71.324 253.121 71.7627 248.975 72.1278 246.001C72.5487 242.566 72.8338 239.288 71.2208 236.103C70.4351 234.551 69.2573 233.152 68.5975 231.545C67.8519 229.728 67.7898 227.73 67.6908 225.797C67.6862 225.71 67.6817 225.609 67.6768 225.52C70.3672 227.004 73.3295 227.972 76.4093 228.377C78.7148 228.68 81.0367 228.703 83.3444 228.403C85.613 228.11 87.8797 227.543 90.1792 227.603C95.0942 227.73 97.7809 232.461 101.638 234.819C105.545 237.21 110.243 237.872 114.742 238.031C120.581 238.236 126.434 237.528 132.176 238.933C133.963 239.372 134.723 236.831 133.201 235.986C129.135 233.725 125.106 231.399 121.219 228.842C117.399 226.331 114.126 223.307 110.87 220.123C107.965 217.284 104.874 214.697 100.876 213.631C98.7501 213.065 96.4929 212.871 94.5056 211.87C92.5418 210.883 91.0165 209.223 89.5152 207.654C87.6691 205.724 85.5148 203.718 83.0407 202.708C83.5816 202.611 84.1237 202.493 84.6674 202.341C86.5459 201.818 88.3697 201.073 90.2807 200.663C92.2924 200.232 94.3575 200.365 96.3826 200.618C100.03 201.075 103.773 201.818 107.389 200.754C111.045 199.678 113.13 196.152 116.663 194.966C118.159 194.317 117.443 191.984 115.847 192.523C112.545 193.926 109.23 191.387 106.349 190.032C103.062 188.488 99.8533 189.044 96.3708 188.652C92.0294 188.162 86.9945 186.266 82.3326 186.401C82.3179 186.252 82.3253 186.106 82.3083 185.958C83.5611 186.046 84.8114 186.017 85.9477 185.81C89.8575 185.094 92.7483 182.877 95.0509 179.716C96.2212 178.106 97.2806 176.382 98.7176 174.987C100.212 173.538 102.108 172.872 104.097 172.404C108.163 171.451 112.415 171.238 115.434 167.983C116.256 167.104 115.532 165.218 114.207 165.46Z" fill="#FFFDFA"/>
<path d="M25.3656 198.646C23.564 197.417 21.2012 196.818 19.1213 197.737C17.9985 198.233 16.9598 199.059 16.459 200.21C16.0344 201.188 15.9244 202.266 16.1744 203.301C16.2105 204.214 16.5067 205.139 17 205.789C18.2961 207.495 20.47 208.215 22.5621 207.915C24.7885 207.596 27.0397 206.55 27.7109 204.225C28.3286 202.082 27.1216 199.843 25.3656 198.646Z" fill="#F1EAD6"/>
<path d="M68.1486 182.615C66.2076 181.432 63.7874 181.562 61.8169 182.572C59.8006 183.605 58.338 186.089 59.0833 188.343C59.0914 188.496 59.0879 188.651 59.1091 188.796C59.3082 190.147 60.0573 191.369 61.3477 191.925C62.3708 192.366 63.4858 192.423 64.5855 192.385C66.8814 192.305 69.4789 191.382 70.4616 189.108C70.9648 187.943 71.037 186.586 70.558 185.394C70.076 184.198 69.2436 183.281 68.1486 182.615Z" fill="#F1EAD6"/>
<path d="M50.3318 193.287C48.5394 192.906 46.6358 193.524 45.28 194.733C44.477 195.45 44.1881 196.417 43.5043 197.198C42.204 198.677 41.9883 195.977 41.8959 195.17C41.3543 190.467 39.812 185.843 37.6322 181.656C35.6477 177.842 33.0522 173.779 29.4383 171.312C26.2798 169.158 21.9459 168.393 18.6675 170.731C17.6782 171.438 18.6761 172.911 19.7153 172.293C23.8752 169.826 28.3999 172.463 31.1611 175.735C34.0687 179.179 36.2176 183.322 37.7431 187.548C38.528 189.726 39.1105 191.954 39.5367 194.228C39.8567 195.93 39.862 198.075 41.5237 199.083C42.8413 199.881 44.3806 199.325 45.2665 198.168C45.8414 197.417 46.2053 196.591 46.9887 196.017C47.9542 195.31 49.022 195.192 50.1831 195.182C51.2857 195.177 51.3814 193.511 50.3318 193.287Z" fill="#F1EAD6"/>
<path d="M49.0048 202.419C48.7854 202.189 48.3787 202.134 48.0896 202.235C47.7916 202.34 47.5728 202.511 47.4135 202.785C47.3654 202.869 47.3277 202.958 47.2819 203.041C47.2199 203.155 47.1597 203.267 47.0976 203.381C46.9537 203.574 46.7856 203.751 46.6088 203.917C46.4807 204.018 46.3446 204.113 46.2008 204.191C45.9166 204.308 45.6179 204.394 45.3447 204.535C45.1155 204.655 44.9952 204.966 45.0085 205.21C45.0229 205.489 45.1885 205.723 45.4296 205.852C45.8811 206.097 46.4671 206.016 46.9426 205.911C47.3382 205.823 47.728 205.642 48.0669 205.424C48.4787 205.159 48.7947 204.755 49.0562 204.35C49.1886 204.144 49.277 203.929 49.3424 203.688C49.3858 203.532 49.4174 203.361 49.4056 203.2C49.3772 202.878 49.2189 202.645 49.0048 202.419Z" fill="#F1EAD6"/>
<path d="M61.0088 204.172C60.1056 203.873 58.8911 204.959 58.1414 205.391C57.2576 205.9 56.3545 206.364 55.3996 206.726C54.5471 207.049 53.6601 207.334 52.7548 207.461C52.3126 207.523 51.8608 207.57 51.4137 207.588C51.2561 207.594 51.094 207.587 50.9322 207.582C50.7637 207.008 50.2247 206.589 49.5292 206.798C48.6463 207.064 48.3044 208.012 47.6857 208.609C47.6653 208.629 47.6672 208.626 47.6614 208.634C47.6529 208.64 47.6553 208.64 47.6364 208.655C47.5526 208.723 47.4662 208.789 47.3771 208.853C47.2347 208.954 47.0883 209.044 46.9364 209.13C46.9125 209.143 46.8732 209.164 46.8493 209.177C46.7611 209.217 46.6725 209.255 46.5832 209.289C46.4003 209.359 46.2151 209.415 46.0243 209.464C45.9993 209.471 45.9531 209.478 45.9281 209.485C45.8566 209.496 45.7847 209.505 45.7124 209.512C45.5309 209.532 45.3468 209.536 45.1642 209.534C45.0835 209.533 45.0028 209.532 44.9217 209.529C44.8906 209.527 44.8957 209.528 44.8887 209.529C44.8665 209.523 44.8592 209.522 44.8058 209.514C44.6453 209.488 44.4847 209.462 44.325 209.426C44.2264 209.402 44.1274 209.375 44.0303 209.346C44.0031 209.338 44.0054 209.338 43.9954 209.335C43.9854 209.332 43.9878 209.331 43.9674 209.323C43.796 209.258 43.6295 209.181 43.469 209.095C43.1117 208.907 42.7775 208.655 42.3705 208.584C41.6686 208.46 41.0816 209.107 41.2013 209.76C40.6777 210.169 40.159 210.594 39.6622 211.036C39.1985 211.45 38.7712 211.898 38.266 212.259C37.78 212.607 37.2724 212.895 36.7228 213.128C36.1158 213.387 35.3505 213.561 34.8273 213.972C34.1718 214.487 34.5164 215.419 35.3233 215.459C35.9987 215.492 36.7728 215.168 37.395 214.931C38.0419 214.684 38.6952 214.389 39.2721 214.002C39.8536 213.615 40.3412 213.1 40.8432 212.617C41.3167 212.161 41.8175 211.773 42.3773 211.427C42.4567 211.376 42.5136 211.303 42.5712 211.234C43.7005 211.878 45.149 212.094 46.3445 211.873C47.3055 211.694 48.2355 211.324 49.0083 210.713C49.3969 210.407 49.7679 210.065 50.0712 209.67C50.1965 209.508 50.3362 209.332 50.4704 209.151C51.1691 209.372 52.0496 209.356 52.6536 209.313C53.7301 209.233 54.8131 209.004 55.8227 208.628C56.8973 208.23 57.926 207.708 58.9212 207.14C59.4176 206.856 59.9072 206.559 60.393 206.254C60.8618 205.96 61.4533 205.562 61.5243 204.975C61.579 204.58 61.3817 204.297 61.0088 204.172Z" fill="#F1EAD6"/>
<path d="M52.1035 213.676C50.979 214.601 49.771 215.142 48.3475 215.447C47.6862 215.59 47.0102 215.656 46.3349 215.682C45.5396 215.714 44.5451 215.538 43.8578 216.018C43.326 216.391 43.3048 217.315 43.9579 217.591C44.4154 217.785 44.9266 217.783 45.4195 217.814C45.8405 217.841 46.2605 217.861 46.6837 217.857C47.5111 217.848 48.3359 217.765 49.1468 217.596C50.7961 217.252 52.3574 216.524 53.5911 215.365C54.5136 214.494 53.0984 212.857 52.1035 213.676Z" fill="#F1EAD6"/>
<path d="M57.0496 159.457C54.1313 158.512 50.9999 158.975 48.1674 159.999C46.6593 160.543 45.1966 161.222 43.8114 162.028C42.539 162.771 40.8309 163.734 40.0622 165.03C39.7832 165.501 40.2605 166.258 40.8307 166.035C42.165 165.514 43.3463 164.383 44.5753 163.636C45.815 162.881 47.1201 162.223 48.4758 161.703C51.0761 160.708 53.905 160.161 56.6221 161.004C57.6147 161.315 58.0291 159.775 57.0496 159.457Z" fill="#F1EAD6"/>
<path d="M24.1465 178.925C22.4617 178.771 20.7646 178.908 19.14 179.39C17.5358 179.867 15.9864 180.683 14.7073 181.766C13.6552 182.656 11.7955 184.249 11.9007 185.781C11.9179 186.033 12.0728 186.333 12.3249 186.427C12.3828 186.449 12.4407 186.47 12.5006 186.489C13.0863 186.626 13.427 186.053 13.7502 185.678C14.2705 185.073 14.759 184.448 15.3402 183.897C15.4039 183.837 15.4826 183.796 15.5467 183.738C15.8393 184.171 16.2097 184.559 16.5644 184.937C16.8931 185.287 17.2114 185.659 17.5749 185.975C18.399 186.694 19.4055 186.93 20.4799 186.808C21.4962 186.694 22.442 186.378 23.3369 185.892C24.2189 185.416 25.1507 184.704 25.5888 183.781C25.8044 183.327 25.7055 182.758 25.3221 182.422C24.9689 182.112 24.3295 182.024 23.944 182.335C23.596 182.613 23.2873 182.931 22.9675 183.238C22.9409 183.264 22.8181 183.369 22.9119 183.29C22.8282 183.358 22.7444 183.426 22.6576 183.489C22.5037 183.607 22.3414 183.716 22.1779 183.818C21.8074 184.046 21.7219 184.088 21.3015 184.241C21.1205 184.308 20.9331 184.365 20.7468 184.414C20.6629 184.437 20.5809 184.457 20.4959 184.473C20.457 184.482 20.4551 184.484 20.4551 184.484C20.4293 184.486 20.4178 184.488 20.3574 184.495C20.1902 184.515 20.0256 184.537 19.8561 184.543C19.6016 184.551 19.6831 184.557 19.4739 184.508C19.4017 184.486 19.3948 184.488 19.4531 184.511C19.4148 184.494 19.3768 184.479 19.3384 184.461C19.2637 184.423 19.1913 184.385 19.1204 184.342C19.2096 184.397 19.0181 184.267 18.9993 184.253C18.9343 184.202 18.8685 184.146 18.8054 184.093C18.2218 183.588 17.6727 183.047 17.0559 182.585C17.7583 182.14 18.502 181.759 19.2797 181.487C20.6599 181.001 22.1386 180.803 23.5984 180.913C24.3656 180.971 25.1384 181.123 25.8764 181.338C26.6393 181.561 27.2462 181.917 28.053 181.811C28.6233 181.735 28.9487 181.155 28.6346 180.647C27.8246 179.326 25.5839 179.058 24.1465 178.925Z" fill="#F1EAD6"/>
<path d="M47.4569 171.145C48.7109 170.009 50.1505 169.1 51.7388 168.509C53.307 167.927 55.0382 167.65 56.7087 167.745C58.0853 167.823 60.5284 167.98 61.3639 169.269C61.5023 169.481 61.5559 169.813 61.413 170.042C61.3812 170.095 61.3468 170.145 61.31 170.196C60.9226 170.656 60.3063 170.403 59.8253 170.298C59.0448 170.128 58.2773 169.921 57.4833 169.829C57.3965 169.819 57.3088 169.833 57.2224 169.826C57.2474 170.348 57.1844 170.881 57.128 171.397C57.0748 171.874 57.0447 172.362 56.9428 172.831C56.7153 173.9 56.0526 174.694 55.1205 175.242C54.2405 175.761 53.2943 176.075 52.2862 176.226C51.2944 176.374 50.1234 176.366 49.218 175.892C48.773 175.659 48.5101 175.145 48.6168 174.647C48.7129 174.186 49.1698 173.731 49.6651 173.748C50.1104 173.764 50.5474 173.831 50.9895 173.885C51.0256 173.888 51.1881 173.898 51.064 173.892C51.1716 173.898 51.2807 173.899 51.3872 173.899C51.5812 173.898 51.7742 173.891 51.9676 173.871C52.4017 173.832 52.4937 173.815 52.9225 173.684C53.1076 173.628 53.2913 173.563 53.4711 173.489C53.5512 173.457 53.6309 173.423 53.708 173.387C53.743 173.369 53.7434 173.371 53.748 173.371C53.7696 173.358 53.7781 173.352 53.8321 173.319C53.977 173.234 54.1222 173.152 54.2607 173.056C54.469 172.909 54.4068 172.963 54.546 172.799C54.5909 172.74 54.5974 172.736 54.5656 172.789C54.5858 172.752 54.606 172.716 54.6262 172.679C54.6639 172.605 54.6992 172.53 54.7295 172.454C54.691 172.553 54.7644 172.333 54.7726 172.31C54.7949 172.228 54.8126 172.147 54.8322 172.064C54.9971 171.31 55.1104 170.546 55.3252 169.808C54.4951 169.873 53.6754 170.018 52.889 170.265C51.4921 170.706 50.1937 171.435 49.0901 172.401C48.5114 172.909 47.9858 173.496 47.5238 174.11C47.0463 174.746 46.7772 175.396 46.0672 175.795C45.5658 176.077 44.9565 175.808 44.903 175.213C44.7586 173.674 46.389 172.113 47.4569 171.145Z" fill="#F1EAD6"/>
<path d="M54.0461 224.414C50.4392 225.129 46.884 225.958 43.1935 226.097C39.6822 226.231 36.1752 225.879 32.7574 225.067C25.7268 223.393 19.37 219.66 14.361 214.464C4.43136 204.164 0.919323 188.53 6.52286 175.236C7.91111 171.941 9.7557 168.846 12.0282 166.086C14.4234 163.175 17.2508 160.873 20.2701 158.645C21.4231 157.794 20.278 156.172 19.048 156.825C13.0158 160.03 8.2101 165.932 5.16519 171.946C1.96772 178.261 0.452461 185.477 1.09354 192.542C2.54906 208.565 14.1213 222.497 29.3766 227.343C33.4277 228.631 37.6904 229.25 41.9382 229.248C46.2879 229.247 50.9057 228.721 54.8541 226.821C56.3303 226.109 55.6591 224.094 54.0461 224.414Z" fill="#F1EAD6"/>
<path d="M78.1305 172.173C73.964 163.616 66.8411 156.928 58.1671 153.07C53.4806 150.985 48.4027 149.409 43.2353 149.552C42.5611 149.571 42.4852 150.596 43.1455 150.727C47.4156 151.567 51.6235 152.55 55.593 154.388C59.5881 156.238 63.1704 158.861 66.3909 161.839C73.3524 168.275 78.7065 177.207 78.1146 186.959C77.9489 189.702 77.3841 192.421 76.6877 195.074C75.9538 197.876 74.7663 200.611 74.1813 203.44C73.8543 205.023 76.1487 205.857 76.866 204.375C78.0276 201.978 78.7182 199.231 79.4391 196.671C80.1779 194.047 80.7833 191.373 81.0695 188.658C81.681 182.869 80.6782 177.407 78.1305 172.173Z" fill="#F1EAD6"/>
<path d="M262.017 407.121C261.971 406.839 258.237 392.674 257.586 387.567C256.934 382.46 254.993 370.439 247.883 356.53C240.773 342.62 218.16 313.166 184.669 304.677C151.177 296.185 139.687 290.551 134.585 286.203C129.481 281.854 121.541 275.724 115.83 272.862C110.118 270.001 97.4226 265.025 92.0753 259.171C86.728 253.317 76.2824 239.792 66.4459 237.21C56.6095 234.629 45.0719 236.338 39.8281 239.733C34.5843 243.127 30.073 250.573 30.073 250.573C30.073 250.573 47.4546 273.617 48.7657 277.514C50.0769 281.411 55.0456 286.151 57.004 287.765C58.9623 289.379 77.4987 298.971 83.7352 305.068C89.9695 311.165 107.763 326.669 111.192 339.783C114.622 352.897 115.404 359.178 119.122 364.988C122.84 370.797 133.152 383.493 136.497 391.293C139.841 399.093 140.639 407.687 140.639 407.687L262.017 407.121Z" fill="#FFFDFA"/>
<path d="M367.143 535.889C361.055 526.195 352.533 518.156 344.834 509.776C340.889 505.483 337.098 501.068 333.602 496.402C329.962 491.544 326.538 486.53 322.883 481.681C319.164 476.747 315.264 471.948 311.193 467.299C307.273 462.819 302.877 458.694 299.196 454.02C292.349 445.329 291.567 433.642 285.305 424.615C282.195 420.135 277.746 416.781 273.459 413.505C269.356 410.367 265.566 407.107 262.276 403.154C261.262 399.382 260.62 395.512 259.996 391.63C258.284 381 255.608 370.66 251.315 360.762C243.219 342.096 230.057 325.24 212.621 314.485C194.026 303.015 172.056 301.076 151.936 293.513C146.985 291.651 142.167 289.412 137.704 286.56C132.518 283.244 127.939 279.082 122.763 275.755C113.341 269.697 102.041 266.97 93.5898 259.372C86.2904 252.808 80.9472 243.988 72.3903 238.861C62.8162 233.123 51.8149 234.648 41.6758 237.891C38.6686 236.66 35.5985 235.581 32.4368 234.815C29.8048 234.177 27.1675 233.755 24.4591 233.627C21.8706 233.507 19.0909 233.435 16.6068 234.255C16.2245 234.381 16.1069 234.693 16.1137 235.014C15.1317 236.705 15.9494 239.173 16.5045 240.881C17.2519 243.178 18.428 245.285 19.7433 247.3C22.3595 251.301 25.6175 254.907 28.7263 258.528C31.7354 262.029 34.8391 265.471 38.2545 268.585C39.9541 270.136 41.7561 271.588 43.6275 272.926C44.0824 273.251 44.5543 273.549 45.0212 273.859C45.8834 275.048 46.7136 276.259 47.5139 277.506C49.438 280.506 51.3518 283.559 53.914 286.067C58.7903 290.837 65.1943 293.455 70.9331 296.982C82.1481 303.878 91.8863 312.978 99.6977 323.563C103.899 329.259 107.859 335.505 110.213 342.212C111.533 345.973 112.222 349.918 113.341 353.736C114.362 357.228 115.765 360.565 117.492 363.764C121.38 370.965 126.839 377.076 131.317 383.876C132.406 385.533 133.525 387.182 134.573 388.865C135.791 390.823 136.637 392.933 137.41 395.101C138.903 399.285 139.759 403.44 140.294 407.839C140.378 408.535 141.459 408.503 141.525 407.808C141.855 404.278 141.141 400.766 140.07 397.406C138.976 393.974 137.09 390.857 135.542 387.624C132.458 381.179 128.059 375.375 124.202 369.382C120.179 363.132 117.054 356.703 115.281 349.462C114.359 345.699 113.482 341.928 111.987 338.341C110.633 335.091 108.927 331.987 107.114 328.972C102.027 320.52 95.7225 312.891 88.4514 306.267C89.4831 305.838 90.4932 305.362 91.4485 304.782C92.2356 304.304 92.9273 303.792 93.624 303.194C94.2856 302.628 95.0137 302.049 95.4338 301.278C95.6091 300.956 95.6517 300.589 95.4016 300.286C95.1777 300.014 94.7578 299.907 94.435 300.063C93.6398 300.447 93.0022 301.06 92.2871 301.573C91.6356 302.04 90.9509 302.478 90.2811 302.92C89.1768 303.647 87.9958 304.252 86.7848 304.789C85.247 303.448 83.6853 302.135 82.0675 300.886C84.7617 300.238 87.3716 299.082 89.7721 297.774C91.3302 296.923 92.8362 295.969 94.2547 294.9C94.9514 294.375 95.6091 293.814 96.247 293.219C96.9011 292.606 97.6551 291.997 98.0171 291.159C98.3123 290.479 97.5486 289.871 96.9198 290.127C96.1534 290.44 95.5667 291.103 94.9277 291.618C94.2535 292.165 93.5629 292.698 92.8704 293.219C91.5129 294.241 90.093 295.186 88.61 296.017C85.9434 297.511 83.111 298.52 80.2477 299.529C75.318 295.923 70.0846 292.916 64.7233 289.981C61.8762 288.421 59.0317 286.79 56.5799 284.642C53.8603 282.259 51.8608 279.203 49.8875 276.206C49.8528 276.153 49.8162 276.102 49.7815 276.048C49.7995 276.043 49.8138 276.029 49.8296 276.024C52.0647 275.817 54.3454 274.925 56.3487 274.045C58.5356 273.086 60.9526 271.938 62.6878 270.263C64.4044 268.605 65.3242 266.221 65.9463 263.959C66.5758 261.669 66.6224 258.453 65.3972 254.723C64.6296 252.389 63.3405 250.359 61.5543 248.683C57.7534 245.117 52.5076 242.898 47.8657 240.649C46.7766 240.122 45.6762 239.613 44.5684 239.117C52.0553 236.958 59.8885 235.933 67.2097 238.819C76.4677 242.467 82.2097 251.293 88.8359 258.219C92.4455 261.994 96.4378 265.19 101.001 267.744C105.885 270.477 111.059 272.634 116.014 275.225C121.311 277.993 125.894 281.695 130.613 285.318C135.06 288.737 139.771 291.677 144.852 294.06C164.118 303.097 186.069 304.392 205.08 314.107C223.113 323.323 237.146 339.295 246.037 357.302C250.566 366.474 253.857 376.24 255.785 386.286C256.982 392.526 257.665 398.871 259.489 404.975C261.173 410.606 263.922 415.828 267.52 420.478C269.274 422.748 271.176 424.631 273.49 426.32C274.244 426.87 275.08 425.885 274.569 425.17C271.107 420.318 267.302 415.742 264.796 410.281C264.642 409.944 264.51 409.601 264.365 409.259C265.904 410.825 267.588 412.265 269.265 413.635C273.094 416.77 277.167 419.676 280.483 423.379C287.891 431.652 288.737 443.182 294.369 452.445C297.407 457.446 301.763 461.457 305.677 465.75C309.778 470.25 313.715 474.895 317.48 479.679C324.903 489.105 331.383 499.216 339.38 508.19C343.718 513.061 348.279 517.728 352.7 522.522C357.121 527.318 361.281 532.27 365.258 537.439C366.242 538.727 367.956 537.181 367.143 535.889Z" fill="#F1EAD6"/>
<path d="M151.41 433.112C150.213 431.643 148.802 430.367 147.607 428.888C146.47 427.483 145.4 425.97 144.397 424.465C142.291 421.31 140.561 417.898 139.148 414.38C137.592 410.511 136.427 406.491 135.494 402.429C135.029 400.399 134.621 398.358 134.252 396.31C133.852 394.092 133.615 391.779 132.97 389.617C132.747 388.867 131.45 388.69 131.433 389.657C131.351 393.989 132.407 398.564 133.281 402.789C134.168 407.079 135.329 411.319 136.908 415.407C138.327 419.08 140.098 422.611 142.276 425.894C144.329 428.987 147.029 432.406 150.232 434.37C151.044 434.864 152.06 433.912 151.41 433.112Z" fill="#F1EAD6"/>
</g>
</svg>
