<svg width="104" height="120" viewBox="0 0 104 120" fill="none" xmlns="http://www.w3.org/2000/svg">
<path d="M27.8565 95.6113L33.6332 93.3082C33.8911 93.2053 34.1774 93.3706 34.2174 93.6451L35.1112 99.7997C35.1268 99.9085 35.1839 100.007 35.2702 100.075L40.1535 103.926C40.3715 104.098 40.3715 104.428 40.1535 104.601L35.2702 108.452C35.1839 108.52 35.1268 108.618 35.1112 108.727L34.2174 114.882C34.1774 115.157 33.8911 115.321 33.6332 115.219L27.8565 112.915C27.7541 112.875 27.6405 112.875 27.5386 112.915L21.7619 115.219C21.504 115.321 21.2177 115.156 21.1777 114.882L20.2839 108.727C20.2683 108.618 20.2112 108.52 20.1249 108.452L15.2416 104.601C15.0236 104.428 15.0236 104.098 15.2416 103.926L20.1249 100.075C20.2112 100.007 20.2683 99.9085 20.2839 99.7997L21.1777 93.6451C21.2177 93.3706 21.504 93.2053 21.7619 93.3082L27.5386 95.6113C27.6405 95.6523 27.7541 95.6523 27.8565 95.6113Z" fill="#F1EAD6" stroke="#F1EAD6" stroke-miterlimit="10" stroke-linecap="round" stroke-linejoin="round"/>
<path d="M4.51408 107.765L4.87641 108.611C5.31529 109.635 6.05991 110.499 7.00838 111.085L7.56724 111.429L7.00838 111.774C6.05991 112.359 5.3148 113.223 4.87641 114.248L4.51408 115.094L4.15177 114.248C3.71338 113.223 2.96874 112.359 2.01978 111.774L1.46094 111.429L2.01978 111.085C2.96825 110.499 3.71338 109.635 4.15177 108.611L4.51408 107.765Z" fill="#F1EAD6" stroke="#F1EAD6" stroke-miterlimit="10" stroke-linecap="round" stroke-linejoin="round"/>
<path d="M13.076 79.5312L13.7821 82.1713C14.3102 84.1463 15.5986 85.8316 17.3658 86.8591L18.4879 87.5116L17.3658 88.164C15.5986 89.1915 14.3102 90.8773 13.7821 92.8518L13.076 95.4919L12.3699 92.8518C11.8417 90.8768 10.5534 89.1915 8.78615 88.164L7.66406 87.5116L8.78615 86.8591C10.5534 85.8316 11.8417 84.1458 12.3699 82.1713L13.076 79.5312Z" fill="#F1EAD6" stroke="#F1EAD6" stroke-miterlimit="10" stroke-linecap="round" stroke-linejoin="round"/>
<path d="M93.2658 60.6489L98.8635 61.7431C99.0376 61.7773 99.0883 62.0016 98.9459 62.1069L94.3625 65.5019C94.2913 65.5551 94.262 65.6477 94.2913 65.7321L96.1424 71.1269C96.2 71.2947 96.0307 71.4507 95.8684 71.38L90.6364 69.1081C90.555 69.0725 90.4599 69.0939 90.4014 69.1612L86.6548 73.4618C86.5382 73.5954 86.3188 73.5271 86.2988 73.3511L85.6507 67.6841C85.6405 67.5959 85.5746 67.5242 85.4874 67.5071L79.8897 66.4128C79.7156 66.3787 79.6649 66.1544 79.8073 66.0491L84.3906 62.6541C84.4618 62.6014 84.4911 62.5083 84.4623 62.4239L82.6112 57.0291C82.5537 56.8613 82.7229 56.7053 82.8853 56.776L88.1172 59.0479C88.1987 59.0835 88.2938 59.0621 88.3523 58.9948L92.0989 54.6942C92.2154 54.5606 92.4348 54.6289 92.4548 54.8049L93.1029 60.4719C93.1127 60.5601 93.1785 60.6318 93.2658 60.6489Z" fill="#F1EAD6" stroke="#F1EAD6" stroke-miterlimit="10" stroke-linecap="round" stroke-linejoin="round"/>
<path d="M81.7406 78.3857L82.103 79.2318C82.5419 80.2563 83.2865 81.1205 84.2349 81.7056L84.7938 82.0504L84.2349 82.3952C83.2865 82.9803 82.5419 83.8444 82.103 84.869L81.7406 85.7151L81.3783 84.869C80.9394 83.8444 80.1948 82.9803 79.2463 82.3952L78.6875 82.0504L79.2463 81.7056C80.1948 81.1205 80.9394 80.2563 81.3783 79.2318L81.7406 78.3857Z" fill="#F1EAD6" stroke="#F1EAD6" stroke-miterlimit="10" stroke-linecap="round" stroke-linejoin="round"/>
<path d="M97.4163 37.3037L98.1459 40.569C98.4345 41.8622 99.2977 42.9531 100.49 43.5319L102.616 44.5643L100.416 45.4293C99.1831 45.9141 98.2385 46.9352 97.8503 48.2021L96.8711 51.4011L96.1421 48.1358C95.8534 46.8425 94.9903 45.7517 93.798 45.1728L91.6719 44.1405L93.8712 43.2754C95.1044 42.7907 96.049 41.7696 96.4372 40.5027L97.4163 37.3037Z" fill="#F1EAD6" stroke="#F1EAD6" stroke-miterlimit="10" stroke-linecap="round" stroke-linejoin="round"/>
<path d="M97.1441 78.7051L97.8502 81.3452C98.3783 83.3202 99.6667 85.0054 101.434 86.0329L102.556 86.6854L101.434 87.3379C99.6667 88.3653 98.3783 90.0511 97.8502 92.0256L97.1441 94.6657L96.438 92.0256C95.9098 90.0506 94.6215 88.3653 92.8542 87.3379L91.7322 86.6854L92.8542 86.0329C94.6215 85.005 95.9098 83.3197 96.438 81.3452L97.1441 78.7051Z" fill="#F1EAD6" stroke="#F1EAD6" stroke-miterlimit="10" stroke-linecap="round" stroke-linejoin="round"/>
<path d="M22.9278 43.9062C22.9278 43.9062 19.0798 46.3235 17.7119 47.1818C16.3446 48.0405 15.4541 49.0265 15.263 50.0759C15.0723 51.1254 15.8038 53.2247 15.931 54.2424C16.0583 55.2601 16.09 58.9809 16.0266 60.4438C15.9632 61.9067 15.5804 65.3417 15.5804 65.3417C15.5804 65.3417 14.1038 68.2578 14.3725 70.1757C14.6412 72.0936 16.1217 74.469 17.3618 75.0732C18.6019 75.6774 19.3017 75.9319 20.4466 76.6317C21.5916 77.3314 24.7399 79.6848 25.9166 80.3207C27.0932 80.9566 33.1678 83.4373 34.917 84.7734C36.6662 86.1091 40.8961 88.5263 41.8499 89.6074C42.8037 90.6885 44.6168 92.4699 45.1893 93.0102C45.7618 93.551 45.8891 94.3776 45.8891 94.3776C45.8891 94.3776 51.8042 102.901 52.2494 104.364C52.6946 105.827 52.4401 106.546 53.2354 107.735C54.0303 108.924 54.1898 112.378 54.1576 113.65C54.1259 114.922 53.8396 117.752 55.3026 118.547C56.7655 119.343 68.2145 118.452 69.9319 118.547C71.6494 118.643 92.3851 117.72 92.3851 117.72C92.3851 117.72 91.3118 115.446 90.2385 113.872C89.1652 112.298 87.71 110.175 87.1614 109.03C86.6128 107.885 84.633 104.141 83.6792 102.519C82.7248 100.897 80.8645 98.6069 80.4831 97.1757C80.1013 95.7444 79.7439 93.1565 79.3142 92.2861C78.8851 91.4156 75.6169 88.0045 75.2356 86.9551C74.8537 85.9057 74.9254 81.1946 74.6753 79.4893C74.4246 77.784 72.278 72.4169 72.278 72.4169L22.9278 43.9062Z" fill="#FFFDFA"/>
<path d="M57.0088 118.676C56.2476 118.747 55.5044 118.5 54.9919 117.918C54.3624 117.203 54.4194 116.186 54.4048 115.294C54.3882 114.262 54.3672 113.23 54.3551 112.198C54.3429 111.211 54.376 110.215 54.1244 109.252C53.8889 108.349 53.4719 107.51 53.2632 106.598C53.0511 105.673 52.8546 104.787 52.3986 103.943C51.9485 103.11 51.3809 102.342 50.8533 101.557C50.2939 100.726 49.7332 99.8949 49.1826 99.0577C48.5672 98.1219 47.9601 97.1807 47.3617 96.2337C47.0574 95.7519 46.7497 95.2721 46.4474 94.7893C46.2845 94.5289 46.1036 94.2407 46.0124 93.9364C47.2818 94.8771 48.3517 96.0279 49.4406 97.1734C50.1213 97.8898 50.7987 98.6095 51.4736 99.3312C52.1685 100.074 52.8146 100.911 53.587 101.573C53.7416 101.706 54.0118 101.535 53.8864 101.343C53.4041 100.605 52.7595 99.9578 52.1787 99.2971C51.5779 98.6134 50.9762 97.9302 50.3637 97.2568C49.2138 95.9928 48.0932 94.6371 46.7229 93.6038C46.0919 93.1279 45.4136 92.7173 44.7826 92.2409C44.1077 91.7313 43.5557 91.1066 43.0056 90.4692C41.9484 89.2438 40.7351 88.2602 39.3717 87.3927C38.6182 86.9133 37.8453 86.4667 37.0788 86.0102C36.5853 85.7162 36.1142 85.3885 35.6397 85.0666C35.6451 84.9949 35.6226 84.9233 35.5534 84.8686C32.6719 82.5718 29.0258 81.6243 25.8166 79.9039C25.01 79.4714 24.2327 78.9896 23.4993 78.4419C22.7425 77.8773 22.0237 77.2633 21.2512 76.7196C20.4613 76.1642 19.6298 75.7735 18.7374 75.4146C17.8202 75.046 17.1228 74.4935 16.5152 73.7171C15.9539 72.9998 15.3839 72.2142 14.9938 71.3886C14.5505 70.4509 14.5988 69.4078 14.7909 68.4116C14.9679 67.4928 15.279 66.6009 15.7199 65.7753C16.168 64.9361 16.7532 64.2198 17.3749 63.5054C17.9806 62.809 18.5463 62.0927 18.8735 61.2198C19.1987 60.3518 19.2846 59.4125 19.347 58.4948C19.4123 57.5361 19.4596 56.5823 19.6854 55.6445C19.9141 54.6951 20.2633 53.7807 20.5978 52.8654C20.9396 51.9306 21.2649 50.9885 21.4482 50.0073C21.6296 49.0394 21.7043 48.0553 21.8744 47.0858C21.9725 46.5285 22.1144 45.9369 22.3372 45.3854C22.3909 45.4352 22.4421 45.4873 22.4952 45.5376C22.7473 45.777 23.0214 45.9999 23.3111 46.1925C23.5968 46.3827 23.904 46.5446 24.2273 46.6616C24.399 46.7235 24.5658 46.763 24.7477 46.7781C24.9237 46.7928 25.0968 46.8323 25.2587 46.7406C25.4011 46.6601 25.3792 46.4739 25.2587 46.3885C25.1373 46.3027 24.9812 46.3095 24.8423 46.2695C24.695 46.2271 24.5453 46.1832 24.4 46.1335C24.1186 46.0374 23.8533 45.9072 23.5997 45.7516C23.3427 45.5941 23.1033 45.4147 22.8624 45.2343C22.7483 45.1484 22.6366 45.0592 22.5245 44.9709C22.6425 44.7403 22.7776 44.5208 22.9356 44.3199C22.9512 44.2999 22.9682 44.2853 22.9838 44.2658C23.0077 44.2902 23.0311 44.3155 23.055 44.3384C23.1462 44.4267 23.2413 44.5116 23.3374 44.594C23.5383 44.7661 23.7524 44.9319 23.9869 45.0567C24.2098 45.1752 24.4497 45.2684 24.6945 45.3318C24.8232 45.3649 24.9534 45.3854 25.0856 45.401C25.2368 45.4191 25.3923 45.4361 25.5069 45.3137C25.5684 45.2484 25.6025 45.1206 25.542 45.0411C25.4391 44.9061 25.3338 44.8944 25.1773 44.8719C25.0637 44.8553 24.9505 44.831 24.8393 44.8037C24.6106 44.7466 24.3956 44.6617 24.1874 44.552C23.9772 44.4413 23.7807 44.3053 23.5963 44.1556C23.4978 44.0756 23.4032 43.9908 23.3023 43.9137C23.3013 43.9132 23.3003 43.9122 23.2993 43.9113C23.7426 43.4612 24.2195 43.1608 24.7043 43.0242C25.0924 42.915 25.4786 42.876 25.8761 42.9555C26.2096 43.0218 26.3525 42.5332 26.018 42.441C25.7312 42.362 25.4489 42.3352 25.1724 42.3469C25.0968 42.1948 24.9144 42.0865 24.7535 42.204C24.614 42.3059 24.4741 42.4074 24.3346 42.5093C23.6529 42.7463 23.0424 43.2154 22.5635 43.7869C21.7457 44.3662 20.9192 44.9324 20.0697 45.4698C19.2733 45.9735 18.4678 46.4651 17.6539 46.941C16.9185 47.3711 16.1904 47.7676 15.6843 48.4751C15.241 49.0949 15.0133 49.8469 14.9484 50.6003C14.8714 51.4927 15.0859 52.3568 15.3039 53.2151C15.7828 55.0988 15.7335 57.0967 15.7486 59.0307C15.7569 60.1338 15.7325 61.2383 15.636 62.3379C15.5877 62.8856 15.5311 63.4322 15.4463 63.9759C15.4044 64.2432 15.3512 64.5084 15.3039 64.7747C15.2673 64.9795 15.2571 65.2233 15.1825 65.4277C14.9533 65.8539 14.7548 66.2971 14.5876 66.7521C14.254 67.6606 14.0409 68.6383 14.0102 69.6068C13.9775 70.626 14.2833 71.5349 14.8182 72.3927C15.3205 73.1983 15.871 74.021 16.526 74.7115C17.2208 75.4439 18.0533 75.8267 18.9764 76.1954C20.8275 76.9346 22.2187 78.3776 23.8479 79.4748C27.0103 81.6043 30.7823 82.565 34.0256 84.5502C34.247 84.6858 34.4669 84.8233 34.6849 84.9637C35.1491 85.4709 35.7465 85.8649 36.3166 86.236C36.9973 86.6788 37.6927 87.0977 38.3817 87.5273C39.7223 88.3641 41.0311 89.2672 42.0986 90.4444C42.6638 91.0676 43.1773 91.74 43.8073 92.3013C44.3261 92.7636 44.9035 93.1513 45.477 93.5414C45.3443 94.2875 45.8978 95.0229 46.2709 95.6432C46.8175 96.5521 47.3783 97.4523 47.9459 98.3486C48.5136 99.2444 49.089 100.136 49.6717 101.022C50.2379 101.883 50.8386 102.721 51.3921 103.59C51.9437 104.455 52.303 105.332 52.5357 106.33C52.6507 106.825 52.7736 107.313 52.9506 107.789C53.1252 108.26 53.3286 108.72 53.4797 109.199C53.8026 110.221 53.7992 111.318 53.8187 112.38C53.8386 113.473 53.8577 114.566 53.8791 115.659C53.8981 116.642 53.9805 117.649 54.7081 118.385C55.3191 119.003 56.2174 119.321 57.0756 119.162C57.3463 119.112 57.2878 118.65 57.0088 118.676ZM15.6443 51.8224C15.636 51.7736 15.6375 51.7243 15.6306 51.6756C15.6394 51.6795 15.6497 51.6843 15.6579 51.6887C15.8603 51.7882 16.07 51.8667 16.2885 51.9238C16.7059 52.0325 17.1896 52.1144 17.6056 51.9745C17.7002 51.9428 17.7655 51.855 17.7504 51.7531C17.7343 51.6453 17.6549 51.5917 17.552 51.578C17.4481 51.5639 17.3506 51.5444 17.2457 51.5468C17.156 51.5488 17.0667 51.5473 16.9775 51.5424C16.7942 51.5327 16.6142 51.5063 16.4352 51.4654C16.249 51.4225 16.0651 51.3644 15.8857 51.2971C15.7818 51.2581 15.6823 51.2108 15.5829 51.1635C15.5765 50.9207 15.5867 50.6774 15.617 50.4365C15.9671 50.6096 16.3358 50.7554 16.7108 50.8495C16.9365 50.9061 17.1721 50.948 17.4052 50.9563C17.5359 50.9607 17.6607 50.9446 17.7894 50.9256C17.9245 50.9056 18.0674 50.8822 18.1308 50.7442C18.1727 50.653 18.1698 50.5515 18.0962 50.4764C17.9904 50.3692 17.8762 50.3843 17.7392 50.3906C17.6285 50.3955 17.5159 50.3906 17.4052 50.3857C17.2048 50.3775 17.0092 50.3516 16.8137 50.3072C16.4333 50.2204 16.0729 50.0732 15.7033 49.9537C15.7433 49.7923 15.7867 49.6318 15.8467 49.4763C16.1622 48.6585 16.7732 48.1201 17.5188 47.693C18.3336 47.2263 19.1568 46.7811 19.9556 46.2861C20.5627 45.9096 21.1649 45.52 21.7628 45.1231C21.0523 46.8015 21.1274 48.7253 20.6958 50.4784C20.2121 52.4431 19.227 54.2606 18.9105 56.2702C18.6082 58.1886 18.8949 60.2864 17.7709 61.9829C17.2725 62.7354 16.621 63.3708 16.0656 64.0803C16.1115 63.8175 16.1534 63.5541 16.1895 63.2898C16.3197 62.3414 16.3782 61.3856 16.4011 60.4288C16.4245 59.4589 16.4094 58.4885 16.3806 57.519C16.3519 56.5476 16.3504 55.5636 16.2368 54.5975C16.1246 53.651 15.8052 52.7567 15.6443 51.8224Z" fill="#F1EAD6"/>
<path d="M91.7431 108.317C90.3869 108.816 88.8859 108.718 87.5639 109.331C87.1597 109.519 86.7934 109.784 86.4975 110.114C86.3399 109.703 86.1264 109.312 85.8908 108.941C85.5412 108.391 85.154 107.867 84.8326 107.299C84.484 106.682 84.2016 106.034 83.9797 105.361C83.9007 105.121 83.5369 105.033 83.4072 105.286C83.0859 105.912 82.5231 106.324 81.9775 106.744C81.4372 107.159 80.9432 107.603 80.5248 108.144C80.4087 108.293 80.3009 108.448 80.1985 108.605C80.0435 108.111 79.7796 107.64 79.4919 107.258C79.1062 106.747 78.6581 106.29 78.2528 105.795C77.853 105.307 77.4131 104.715 77.2873 104.083C77.2556 103.925 77.0805 103.849 76.9459 103.937C75.798 104.686 74.5999 105.4 73.5241 106.253C73.3578 106.385 73.1964 106.53 73.0399 106.681C72.9497 106.509 72.8492 106.345 72.74 106.197C71.8374 104.971 70.2803 104.071 70.015 102.467C69.9843 102.283 69.7239 102.188 69.5752 102.289C68.6155 102.938 67.6821 103.622 66.7732 104.341C66.465 104.585 66.1636 104.837 65.8613 105.089C65.6131 104.61 65.301 104.172 64.9474 103.741C64.4764 103.165 63.7756 102.187 64.3603 101.449C64.4881 101.288 64.4295 100.958 64.1677 100.985C62.732 101.131 61.2691 101.282 59.9339 101.868C59.2142 102.184 58.3808 102.708 57.8536 103.392C57.6045 102.605 57.2099 101.88 56.6316 101.303C54.9131 99.5865 52.3418 99.5323 50.0732 99.5138C48.6708 99.5026 47.2581 99.4685 45.9283 98.974C45.6196 98.8594 45.349 99.3231 45.602 99.5343C46.9094 100.625 48.2139 101.721 49.5022 102.834C50.6165 103.795 51.6342 104.808 52.2516 106.165C52.3447 106.37 52.4154 106.437 53.0572 106.907C55.0687 108.381 56.7169 109.186 58.9357 110.333C60.0534 110.911 61.2218 111.402 62.4326 111.747C63.7439 112.121 65.0981 112.291 66.4469 112.471C67.8099 112.652 69.1529 112.882 70.4744 113.267C71.7979 113.654 73.0911 114.136 74.4053 114.551C76.9347 115.349 79.5714 115.784 82.2262 115.795C85.2169 115.808 87.5576 115.529 90.3791 114.536C90.6405 114.444 90.8819 114.152 90.7663 113.283C90.7263 112.982 90.7097 112.674 90.7063 112.377C90.7005 111.899 90.7312 111.419 90.836 110.951C91.0184 110.136 91.4041 109.39 92.0576 108.856C92.3039 108.655 92.0386 108.209 91.7431 108.317Z" fill="#F1EAD6"/>
<path d="M90.5955 109.559C90.5799 109.511 90.553 109.47 90.5155 109.435C90.4672 109.387 90.4102 109.354 90.3448 109.335C90.2761 109.317 90.2078 109.317 90.139 109.335C90.1356 109.336 90.1317 109.337 90.1283 109.338C90.0942 109.35 90.06 109.363 90.0283 109.381C90.0025 109.401 89.9771 109.42 89.9513 109.44C89.9142 109.475 89.8879 109.516 89.8728 109.563C89.8557 109.593 89.8469 109.625 89.8469 109.659C89.8357 109.71 89.8377 109.76 89.8538 109.811C89.8664 109.841 89.8791 109.872 89.8923 109.902L89.9518 109.979C89.9864 110.016 90.0274 110.043 90.0747 110.058C90.1064 110.075 90.142 110.077 90.1771 110.081C90.2332 110.091 90.2892 110.096 90.3458 110.081C90.4111 110.063 90.4682 110.03 90.5165 109.982L90.5769 109.904C90.6121 109.843 90.6296 109.778 90.6296 109.709C90.6306 109.655 90.6194 109.605 90.5955 109.559Z" fill="#FFFDFA"/>
<path d="M90.1389 110.08C90.1427 110.081 90.146 110.079 90.1498 110.08C90.1422 110.079 90.1346 110.078 90.127 110.077C90.1312 110.078 90.1351 110.079 90.1389 110.08Z" fill="#FFFDFA"/>
<path d="M90.2287 110.091C90.2239 110.09 90.2196 110.089 90.2148 110.089C90.2168 110.089 90.2182 110.09 90.2206 110.09C90.2229 110.09 90.2258 110.091 90.2287 110.091Z" fill="#FFFDFA"/>
<path d="M90.215 110.089C90.2013 110.09 90.1896 110.082 90.176 110.08C90.1677 110.079 90.1589 110.082 90.1501 110.08C90.1721 110.083 90.1935 110.086 90.215 110.089Z" fill="#FFFDFA"/>
<path d="M88.5973 110.217C88.5773 110.146 88.5412 110.084 88.4895 110.032C88.4612 110.01 88.4329 109.988 88.4047 109.967C88.3393 109.929 88.2686 109.909 88.193 109.909C88.1355 109.907 88.0814 109.919 88.0316 109.946C87.9794 109.963 87.9346 109.991 87.8965 110.032C87.8556 110.07 87.8268 110.115 87.8097 110.167C87.7834 110.217 87.7717 110.271 87.7736 110.329C87.7785 110.366 87.7834 110.403 87.7888 110.44C87.8088 110.511 87.8448 110.573 87.8965 110.625L87.9814 110.69C88.0467 110.728 88.1174 110.747 88.193 110.747C88.2506 110.749 88.3047 110.738 88.3544 110.711C88.4066 110.694 88.4515 110.665 88.4895 110.624C88.5305 110.586 88.5593 110.541 88.5763 110.489C88.6027 110.44 88.6148 110.385 88.6124 110.328C88.607 110.291 88.6022 110.254 88.5973 110.217Z" fill="#FFFDFA"/>
<path d="M90.1949 110.777C90.1749 110.706 90.1393 110.645 90.0877 110.592C90.0594 110.57 90.0316 110.549 90.0033 110.527C89.9384 110.489 89.8682 110.47 89.7926 110.47C89.7351 110.468 89.6815 110.48 89.6317 110.506C89.58 110.523 89.5351 110.552 89.4976 110.592C89.4571 110.63 89.4283 110.675 89.4113 110.726C89.3849 110.776 89.3733 110.83 89.3752 110.887C89.3801 110.924 89.3849 110.961 89.3903 110.999C89.4103 111.069 89.4459 111.131 89.4976 111.183L89.582 111.248C89.6473 111.286 89.7175 111.305 89.7926 111.305C89.8502 111.307 89.9038 111.296 89.9535 111.269C90.0052 111.252 90.0501 111.223 90.0877 111.183C90.1286 111.145 90.1569 111.1 90.174 111.048C90.2003 110.999 90.212 110.945 90.21 110.887C90.2047 110.85 90.1998 110.814 90.1949 110.777Z" fill="#FFFDFA"/>
<path d="M83.8204 106.62L83.7785 106.52C83.7414 106.457 83.6917 106.407 83.6288 106.37L83.5293 106.328C83.4552 106.308 83.3816 106.308 83.3074 106.328C83.2938 106.332 83.2806 106.335 83.267 106.339C83.2489 106.343 83.2319 106.35 83.2158 106.36C83.1982 106.366 83.1811 106.373 83.165 106.382C83.1636 106.383 83.1621 106.383 83.1607 106.384C83.1577 106.386 83.1553 106.387 83.1524 106.389C83.1465 106.392 83.1407 106.396 83.1348 106.4L83.0529 106.463C83.0134 106.5 82.9851 106.544 82.969 106.594C82.9505 106.625 82.9412 106.66 82.9412 106.696C82.929 106.75 82.9315 106.804 82.9485 106.858L82.9895 106.955L83.0529 107.037C83.0895 107.077 83.1333 107.105 83.1836 107.121C83.2319 107.147 83.284 107.158 83.3401 107.156C83.3465 107.157 83.3533 107.157 83.3596 107.158C83.404 107.16 83.4376 107.156 83.4888 107.144C83.5025 107.14 83.5157 107.137 83.5293 107.134C83.5834 107.121 83.6307 107.096 83.6712 107.059C83.7166 107.029 83.7527 106.991 83.7785 106.942C83.8092 106.894 83.8253 106.842 83.8282 106.787C83.8399 106.73 83.8375 106.675 83.8204 106.62Z" fill="#FFFDFA"/>
<path d="M82.5676 107.72C82.5476 107.648 82.5115 107.586 82.4593 107.534C82.431 107.512 82.4028 107.49 82.374 107.468C82.3082 107.43 82.2375 107.411 82.1614 107.41C82.1034 107.408 82.0492 107.42 81.999 107.446C81.9468 107.464 81.9015 107.492 81.8634 107.533C81.8225 107.571 81.7932 107.617 81.7766 107.669C81.7503 107.719 81.7381 107.773 81.7405 107.831C81.7454 107.869 81.7508 107.906 81.7557 107.943C81.7757 108.014 81.8117 108.076 81.8639 108.129C81.8922 108.151 81.921 108.173 81.9493 108.194C82.0151 108.233 82.0858 108.252 82.1619 108.252C82.2199 108.254 82.274 108.242 82.3242 108.216C82.3764 108.199 82.4218 108.17 82.4598 108.129C82.5008 108.091 82.53 108.046 82.5466 107.994C82.573 107.943 82.5851 107.889 82.5827 107.831C82.5778 107.794 82.5725 107.757 82.5676 107.72Z" fill="#FFFDFA"/>
<path d="M84.4776 107.9C84.463 107.865 84.4489 107.831 84.4343 107.797C84.3957 107.732 84.3445 107.68 84.2797 107.642L84.2782 107.641C84.2285 107.609 84.1753 107.592 84.1178 107.59C84.0602 107.577 84.0032 107.58 83.9456 107.598C83.8896 107.611 83.8408 107.637 83.7988 107.675C83.752 107.705 83.715 107.746 83.6877 107.796L83.6443 107.899C83.6238 107.975 83.6238 108.051 83.6443 108.128L83.6877 108.231C83.7262 108.296 83.7774 108.347 83.8423 108.385L83.8437 108.386C83.8935 108.418 83.9466 108.435 84.0042 108.437C84.0617 108.45 84.1187 108.448 84.1763 108.43C84.2324 108.417 84.2811 108.391 84.3231 108.353C84.3699 108.322 84.4069 108.282 84.4343 108.232C84.4489 108.198 84.463 108.163 84.4776 108.129C84.4981 108.052 84.4981 107.976 84.4776 107.9Z" fill="#FFFDFA"/>
<path d="M77.0211 105.03C77.0079 104.974 76.9821 104.925 76.9445 104.884C76.9143 104.837 76.8743 104.801 76.8241 104.774C76.7573 104.735 76.6851 104.715 76.6076 104.715C76.5983 104.715 76.5885 104.715 76.5788 104.716C76.5393 104.72 76.4998 104.726 76.4608 104.731C76.4393 104.734 76.4359 104.74 76.4042 104.754C76.3847 104.758 76.3671 104.765 76.3515 104.777C76.3315 104.787 76.3198 104.807 76.3028 104.821C76.2852 104.835 76.2672 104.847 76.2506 104.861C76.2228 104.884 76.195 104.926 76.1823 104.947C76.1272 105.041 76.1126 105.156 76.1414 105.261C76.1692 105.362 76.2374 105.451 76.3281 105.503C76.3403 105.511 76.3525 105.513 76.3647 105.518C76.3808 105.529 76.4042 105.537 76.4271 105.544L76.4291 105.545C76.4383 105.548 76.4432 105.551 76.4549 105.554C76.493 105.559 76.5305 105.565 76.5685 105.57C76.5695 105.57 76.571 105.57 76.572 105.57C76.5739 105.57 76.5759 105.569 76.5778 105.569C76.5851 105.569 76.5924 105.57 76.5998 105.57C76.6402 105.571 76.6812 105.567 76.7217 105.556C76.7558 105.542 76.7899 105.527 76.8241 105.512C76.8884 105.474 76.9396 105.423 76.9777 105.359C77.0089 105.31 77.026 105.256 77.0284 105.199C77.0416 105.144 77.0386 105.087 77.0211 105.03Z" fill="#FFFDFA"/>
<path d="M75.5865 106.076C75.566 106.003 75.5295 105.941 75.4763 105.887C75.4475 105.865 75.4188 105.843 75.39 105.821C75.3232 105.782 75.251 105.763 75.174 105.762C75.1149 105.76 75.0603 105.772 75.0091 105.799C74.956 105.816 74.9101 105.846 74.8716 105.887C74.8297 105.926 74.8004 105.972 74.7834 106.025C74.7565 106.076 74.7443 106.131 74.7463 106.19C74.7512 106.228 74.7565 106.266 74.7614 106.303C74.7819 106.375 74.8185 106.439 74.8716 106.492C74.9004 106.514 74.9292 106.536 74.9584 106.559C75.0252 106.597 75.0969 106.617 75.1744 106.617C75.2334 106.62 75.2886 106.607 75.3393 106.58C75.3924 106.563 75.4383 106.533 75.4768 106.492C75.5187 106.454 75.548 106.407 75.565 106.355C75.5919 106.303 75.6041 106.249 75.6021 106.19L75.5865 106.076Z" fill="#FFFDFA"/>
<path d="M77.8393 106.441C77.8373 106.421 77.8334 106.396 77.8315 106.383C77.8295 106.368 77.8271 106.344 77.8237 106.325C77.8232 106.321 77.8222 106.318 77.8208 106.314C77.8144 106.297 77.7998 106.265 77.7988 106.262C77.7944 106.252 77.7847 106.226 77.7764 106.209C77.7754 106.207 77.7744 106.205 77.7735 106.204C77.751 106.175 77.7291 106.146 77.7067 106.118C77.6681 106.076 77.6223 106.047 77.5696 106.029C77.5365 106.01 77.5004 106.001 77.4619 106C77.4053 105.987 77.3487 105.99 77.2917 106.008H77.2912C77.219 106.028 77.1566 106.064 77.1034 106.118C77.0893 106.132 77.0864 106.152 77.0747 106.167C77.0708 106.171 77.0649 106.172 77.061 106.176C77.0503 106.189 77.0371 106.207 77.0298 106.216C77.041 106.202 77.0074 106.243 76.9986 106.257C76.9981 106.258 76.9971 106.259 76.9966 106.26C76.9796 106.291 76.9635 106.325 76.9547 106.36C76.9503 106.378 76.9469 106.418 76.9469 106.416C76.9459 106.423 76.9401 106.454 76.9396 106.473C76.9381 106.511 76.9484 106.551 76.9547 106.587C76.9547 106.589 76.9552 106.59 76.9557 106.591L76.9562 106.593C76.9571 106.596 76.9966 106.69 76.9981 106.692C77.0005 106.696 77.0605 106.774 77.0635 106.776C77.0693 106.782 77.141 106.836 77.1478 106.841C77.1493 106.842 77.1507 106.843 77.1522 106.844C77.1819 106.863 77.2707 106.894 77.2585 106.89C77.2614 106.891 77.2644 106.892 77.2678 106.893C77.2868 106.897 77.3175 106.899 77.3268 106.901C77.338 106.902 77.3668 106.908 77.3858 106.909C77.3872 106.909 77.3887 106.909 77.3902 106.909H77.3921H77.3941C77.4306 106.904 77.4677 106.899 77.5043 106.894C77.5072 106.893 77.5101 106.893 77.5131 106.892C77.5296 106.885 77.5462 106.877 77.5628 106.871C77.5799 106.864 77.5964 106.856 77.6135 106.849L77.6155 106.848C77.6169 106.847 77.6184 106.846 77.6199 106.845L77.6208 106.845C77.6486 106.823 77.6769 106.801 77.7052 106.78C77.7062 106.779 77.7066 106.779 77.7071 106.778C77.7081 106.777 77.7096 106.776 77.7106 106.775C77.7345 106.747 77.7569 106.717 77.7779 106.688C77.7788 106.686 77.7798 106.685 77.7803 106.683C77.7974 106.649 77.8154 106.614 77.8251 106.576C77.8256 106.575 77.8256 106.574 77.8261 106.572V106.571C77.831 106.534 77.8359 106.497 77.8413 106.46C77.8413 106.459 77.8412 106.458 77.8417 106.457C77.8422 106.454 77.8417 106.45 77.8417 106.447C77.8398 106.444 77.8398 106.443 77.8393 106.441Z" fill="#FFFDFA"/>
<path d="M77.483 106.1C77.4772 106.098 77.4719 106.095 77.4662 106.093C77.4633 106.093 77.4599 106.092 77.457 106.092C77.4657 106.094 77.4743 106.097 77.483 106.1Z" fill="#FFFDFA"/>
<path d="M69.739 103.23C69.7225 103.18 69.6947 103.136 69.6552 103.099C69.6279 103.078 69.6001 103.057 69.5728 103.036C69.5406 103.022 69.5079 103.009 69.4757 102.995C69.4035 102.976 69.3314 102.976 69.2597 102.995C69.2582 102.995 69.2573 102.996 69.2558 102.996C69.188 103.015 69.129 103.049 69.0793 103.098C69.0295 103.148 68.9954 103.207 68.9764 103.275C68.9764 103.276 68.9759 103.277 68.9759 103.278C68.9588 103.333 68.9564 103.387 68.9686 103.44C68.9686 103.477 68.9778 103.511 68.9964 103.543C69.0129 103.593 69.0407 103.637 69.0802 103.673L69.1626 103.737C69.1953 103.75 69.2275 103.764 69.2597 103.778C69.3138 103.795 69.3679 103.797 69.4216 103.785C69.4582 103.785 69.4923 103.776 69.524 103.757C69.5742 103.741 69.6181 103.713 69.6547 103.673C69.6756 103.646 69.6971 103.619 69.7181 103.591C69.7317 103.559 69.7454 103.526 69.759 103.494C69.7761 103.44 69.7785 103.386 69.7664 103.332C69.7668 103.296 69.7576 103.262 69.739 103.23Z" fill="#FFFDFA"/>
<path d="M68.5036 104.578C68.4836 104.507 68.4475 104.445 68.3954 104.392C68.3671 104.37 68.3383 104.348 68.31 104.326C68.2442 104.288 68.1735 104.269 68.0974 104.269C68.0394 104.267 67.9853 104.279 67.935 104.305C67.8829 104.322 67.8375 104.351 67.7995 104.392C67.7585 104.43 67.7292 104.476 67.7122 104.528C67.6858 104.578 67.6736 104.632 67.6761 104.69C67.681 104.728 67.6863 104.765 67.6912 104.802C67.7112 104.873 67.7473 104.935 67.7995 104.988C67.8277 105.01 67.8565 105.032 67.8848 105.054C67.9506 105.092 68.0213 105.111 68.0974 105.111C68.1554 105.113 68.2096 105.102 68.2598 105.075C68.312 105.058 68.3573 105.029 68.3954 104.988C68.4363 104.95 68.4656 104.905 68.4826 104.852C68.509 104.802 68.5212 104.748 68.5187 104.69C68.5134 104.653 68.5085 104.615 68.5036 104.578Z" fill="#FFFDFA"/>
<path d="M70.3049 104.839C70.2844 104.766 70.2473 104.702 70.1937 104.649C70.1644 104.626 70.1351 104.604 70.1059 104.581C70.0386 104.542 69.9659 104.522 69.8874 104.522C69.8279 104.519 69.7723 104.532 69.7207 104.559C69.667 104.576 69.6207 104.606 69.5817 104.648C69.5393 104.687 69.5095 104.734 69.4924 104.787C69.4656 104.839 69.4529 104.894 69.4554 104.954C69.4607 104.992 69.4656 105.03 69.471 105.069C69.4915 105.142 69.5285 105.206 69.5822 105.26C69.6114 105.282 69.6407 105.304 69.6699 105.327C69.7372 105.366 69.8099 105.386 69.8879 105.386C69.9474 105.389 70.003 105.376 70.0547 105.349C70.1083 105.332 70.1546 105.302 70.1937 105.26C70.2356 105.221 70.2658 105.175 70.2829 105.121C70.3102 105.069 70.3224 105.014 70.32 104.954C70.3151 104.916 70.3097 104.878 70.3049 104.839Z" fill="#FFFDFA"/>
<path d="M63.5324 101.706C63.5124 101.635 63.4764 101.573 63.4242 101.52C63.3959 101.498 63.3671 101.476 63.3388 101.454C63.273 101.416 63.2023 101.397 63.1262 101.397C63.0682 101.394 63.0141 101.407 62.9638 101.433C62.9117 101.45 62.8663 101.479 62.8283 101.52C62.7873 101.558 62.758 101.603 62.7415 101.655C62.7151 101.705 62.7029 101.76 62.7054 101.818C62.7103 101.855 62.7156 101.892 62.7205 101.93C62.7405 102.001 62.7766 102.063 62.8288 102.116C62.857 102.138 62.8853 102.159 62.9141 102.181C62.9799 102.219 63.0506 102.239 63.1267 102.239C63.1847 102.241 63.2389 102.229 63.2891 102.203C63.3413 102.186 63.3866 102.157 63.4246 102.116C63.4656 102.078 63.4949 102.033 63.5115 101.98C63.5378 101.93 63.55 101.876 63.5475 101.818C63.5427 101.78 63.5373 101.743 63.5324 101.706Z" fill="#FFFDFA"/>
<path d="M61.4383 102.307C61.4183 102.236 61.3818 102.173 61.3296 102.121C61.3008 102.099 61.2725 102.076 61.2438 102.054C61.1779 102.016 61.1062 101.997 61.0297 101.996C60.9712 101.994 60.917 102.006 60.8663 102.033C60.8136 102.05 60.7683 102.079 60.7298 102.121C60.6883 102.159 60.6591 102.205 60.642 102.257C60.6157 102.308 60.6035 102.362 60.6054 102.421C60.6103 102.458 60.6157 102.496 60.6205 102.533C60.6405 102.605 60.6771 102.667 60.7298 102.72C60.7585 102.742 60.7868 102.764 60.8156 102.787C60.8814 102.825 60.9531 102.844 61.0297 102.845C61.0882 102.847 61.1423 102.835 61.193 102.808C61.2457 102.791 61.291 102.762 61.3296 102.72C61.371 102.682 61.4003 102.637 61.4173 102.584C61.4437 102.533 61.4559 102.479 61.4539 102.421C61.4481 102.383 61.4432 102.345 61.4383 102.307Z" fill="#FFFDFA"/>
<path d="M63.2588 103.291C63.251 103.252 63.2066 103.171 63.2144 103.183C63.1949 103.151 63.172 103.121 63.1451 103.094C63.1154 103.071 63.0861 103.048 63.0564 103.025C63.0554 103.025 63.0539 103.024 63.053 103.023C63.0203 103.008 62.9813 102.987 62.9428 102.977C62.8379 102.952 62.8043 102.96 62.7004 102.976C62.6984 102.977 62.6965 102.977 62.6941 102.978C62.6585 102.99 62.618 103.002 62.5858 103.024C62.557 103.047 62.5278 103.069 62.499 103.091C62.4571 103.13 62.4278 103.176 62.4102 103.229C62.3907 103.262 62.381 103.298 62.381 103.337C62.3683 103.394 62.3707 103.451 62.3888 103.508L62.4322 103.611C62.4546 103.64 62.4771 103.668 62.4995 103.698C62.5127 103.712 62.5322 103.717 62.5473 103.728L62.5634 103.741C62.5658 103.743 62.5673 103.746 62.5702 103.748C62.5843 103.761 62.599 103.772 62.6151 103.783C62.6151 103.783 62.6175 103.784 62.6185 103.784L62.6165 103.783C62.6185 103.784 62.6199 103.785 62.6214 103.786C62.6224 103.787 62.6233 103.787 62.6243 103.788C62.6589 103.803 62.6931 103.818 62.7277 103.832C62.7662 103.837 62.8043 103.842 62.8428 103.847C62.9023 103.85 62.9579 103.837 63.0096 103.81C63.0461 103.8 63.0778 103.782 63.1051 103.755C63.1378 103.736 63.1637 103.71 63.1827 103.677C63.2095 103.65 63.228 103.618 63.2383 103.582C63.2656 103.53 63.2778 103.474 63.2753 103.415C63.2753 103.414 63.2753 103.412 63.2753 103.411C63.2744 103.391 63.2646 103.329 63.2588 103.291Z" fill="#FFFDFA"/>
<path d="M63.2589 103.29L63.2599 103.293C63.2506 103.24 63.2536 103.256 63.2589 103.29Z" fill="#FFFDFA"/>
<path d="M47.8658 100.131C47.8555 100.096 47.838 100.065 47.8116 100.039C47.7819 99.9929 47.7424 99.9568 47.6936 99.9305C47.66 99.9163 47.6263 99.9022 47.5932 99.888C47.5186 99.868 47.444 99.868 47.3694 99.888C47.3318 99.9012 47.2952 99.9183 47.2591 99.9344C47.2552 99.9363 47.2513 99.9378 47.2474 99.9402C47.224 99.9524 47.2031 99.9714 47.1831 99.987C47.1197 100.036 47.1265 100.027 47.068 100.112C47.0655 100.115 47.0631 100.119 47.0612 100.123C47.0592 100.126 47.0573 100.13 47.0553 100.134C47.0402 100.166 47.0251 100.204 47.0119 100.237C47.0109 100.239 47.01 100.241 47.009 100.244C47.0041 100.281 46.9992 100.317 46.9943 100.354C46.9924 100.411 47.0041 100.464 47.0299 100.514C47.0397 100.549 47.0577 100.58 47.0831 100.605C47.1124 100.651 47.1514 100.686 47.1996 100.712L47.2986 100.754C47.3352 100.759 47.3723 100.764 47.4089 100.769C47.4659 100.771 47.5195 100.759 47.5688 100.733C47.6112 100.719 47.6458 100.692 47.679 100.662C47.6727 100.667 47.6663 100.672 47.6605 100.677C47.6668 100.672 47.6731 100.667 47.679 100.662C47.6727 100.667 47.6663 100.672 47.66 100.677C47.6702 100.669 47.6814 100.663 47.6932 100.658C47.7112 100.648 47.7214 100.63 47.737 100.618C47.74 100.616 47.7424 100.614 47.7453 100.612L47.737 100.618C47.7634 100.597 47.7926 100.579 47.8112 100.55C47.8482 100.509 47.8736 100.462 47.8867 100.406C47.8916 100.369 47.897 100.332 47.9019 100.295C47.9043 100.235 47.8921 100.181 47.8658 100.131Z" fill="#FFFDFA"/>
<path d="M47.6367 100.694C47.6448 100.688 47.6524 100.682 47.6605 100.676C47.6524 100.682 47.6443 100.688 47.6367 100.694Z" fill="#FFFDFA"/>
<path d="M48.8891 101.219C48.8701 101.15 48.8354 101.091 48.7857 101.041C48.7584 101.02 48.7316 100.999 48.7043 100.978C48.6414 100.942 48.5736 100.924 48.5009 100.923C48.4453 100.921 48.3936 100.932 48.3458 100.958C48.2961 100.974 48.2527 101.002 48.2161 101.041C48.1766 101.078 48.1493 101.121 48.1327 101.171C48.1074 101.219 48.0962 101.27 48.0981 101.326C48.103 101.361 48.1079 101.397 48.1127 101.433C48.1318 101.501 48.1664 101.56 48.2161 101.611C48.2434 101.632 48.2703 101.653 48.2976 101.674C48.3605 101.71 48.4283 101.728 48.5009 101.729C48.5565 101.731 48.6082 101.719 48.656 101.694C48.7057 101.678 48.7491 101.65 48.7857 101.611C48.8247 101.574 48.8525 101.531 48.8691 101.481C48.8944 101.433 48.9057 101.381 48.9037 101.326L48.8891 101.219Z" fill="#FFFDFA"/>
<path d="M49.969 100.065C49.946 100.035 49.9231 100.006 49.9002 99.9759C49.8456 99.9218 49.7812 99.8842 49.7071 99.8633C49.6681 99.8579 49.6296 99.853 49.5905 99.8477C49.5115 99.8477 49.4379 99.8681 49.3696 99.9076C49.357 99.9154 49.3443 99.9233 49.3316 99.9311C49.2809 99.9584 49.2399 99.9959 49.2092 100.043C49.1707 100.085 49.1448 100.135 49.1312 100.191C49.1131 100.249 49.1102 100.308 49.1234 100.366C49.1258 100.424 49.1434 100.478 49.1751 100.528L49.2433 100.616C49.298 100.67 49.3618 100.708 49.436 100.728C49.4745 100.734 49.5135 100.739 49.552 100.744C49.6305 100.744 49.7042 100.724 49.7724 100.684C49.7856 100.678 49.7988 100.671 49.8124 100.664C49.8636 100.637 49.9046 100.6 49.9353 100.552C49.9738 100.509 50.0002 100.46 50.0138 100.403C50.0319 100.345 50.0348 100.286 50.0216 100.228C50.0182 100.169 50.0007 100.115 49.969 100.065Z" fill="#FFFDFA"/>
<path d="M92.9347 116.976C92.6577 116.062 92.3876 115.146 92.0984 114.236C91.8483 113.449 91.4255 112.805 90.537 112.734C90.1035 112.7 89.6621 112.797 89.2359 112.863C88.7156 112.945 88.1948 113.027 87.6745 113.109C85.7361 113.414 84.0006 113.657 82.0368 113.683C78.8174 113.725 75.6204 111.667 72.6833 110.592C70.3645 109.743 67.9249 109.427 65.5032 109.014C63.1264 108.609 60.8062 107.977 58.5538 107.116C57.2839 106.63 56.04 106.079 54.8213 105.478C53.6841 104.917 52.5348 104.283 51.2381 104.234C51.0465 104.226 50.9133 104.458 51.0162 104.62C51.9857 106.148 52.6703 107.838 53.0312 109.611C53.214 110.51 53.3101 111.425 53.3189 112.343C53.3277 113.242 53.2614 114.141 53.2813 115.041C53.3023 115.982 53.4657 116.89 53.806 117.769C54.2805 118.994 55.5728 119.612 55.7864 119.646C62.8372 120.731 69.8637 119.022 76.8834 118.506C78.6033 118.38 80.3301 118.326 82.0534 118.406C83.8899 118.49 85.6888 118.806 87.5072 119.054C88.4196 119.178 89.3349 119.275 90.2566 119.277C90.7091 119.279 91.1617 119.258 91.6113 119.209C91.9653 119.17 92.3408 119.134 92.6539 118.949C93.3999 118.508 93.1391 117.649 92.9347 116.976Z" fill="#F1EAD6"/>
<path d="M92.4967 116.532C92.4708 116.286 92.4615 116.039 92.4596 115.792C92.4547 115.257 92.4679 114.722 92.3484 114.196C92.1568 113.353 91.5721 112.598 90.6699 112.492C90.1857 112.435 89.702 112.554 89.2377 112.679C88.7242 112.818 88.2083 112.947 87.686 113.049C86.5961 113.264 85.4902 113.372 84.3813 113.423C83.2168 113.477 82.0371 113.425 80.877 113.549C80.799 113.52 80.721 113.491 80.643 113.462C79.3117 112.962 77.9868 112.445 76.6706 111.905C75.3993 111.385 74.148 110.811 72.864 110.322C71.6284 109.851 70.2829 109.422 68.9507 109.569C68.1831 109.243 67.3966 108.963 66.5905 108.749C64.7184 108.251 62.7786 108.102 60.9357 107.481C59.2753 106.922 57.6948 106.153 56.0827 105.473C54.3384 104.737 52.4463 103.957 50.5206 103.973C50.3446 103.974 50.2924 104.259 50.4777 104.291C52.1747 104.583 53.782 105.053 55.3566 105.757C56.9366 106.463 58.4687 107.274 60.0848 107.898C60.9011 108.213 61.7345 108.477 62.5893 108.667C63.5578 108.883 64.5409 109.022 65.5123 109.224C67.3137 109.599 68.9926 110.289 70.6184 111.14C71.5255 111.614 72.4022 112.142 73.2683 112.687C73.7096 112.965 74.1583 113.23 74.5957 113.514C75.0326 113.798 75.451 114.106 75.9245 114.326C76.0835 114.4 76.259 114.209 76.1205 114.072C75.4773 113.434 74.6615 112.943 73.93 112.41C73.1912 111.871 72.4027 111.387 71.6162 110.922C70.9768 110.544 70.318 110.194 69.6441 109.878C70.5916 110.058 71.5201 110.303 72.4291 110.652C73.7223 111.15 74.9736 111.757 76.2434 112.309C78.825 113.431 81.4354 114.479 84.0857 115.428C84.8182 115.691 85.5511 115.954 86.2957 116.179C87.0145 116.396 87.8104 116.659 88.5687 116.587C88.8344 116.562 88.8988 116.205 88.6326 116.116C87.9816 115.898 87.2925 115.804 86.6337 115.605C85.9666 115.403 85.3097 115.165 84.6519 114.934C83.7341 114.61 82.8213 114.274 81.9094 113.934C82.4814 113.96 83.0553 113.959 83.6283 113.956C84.667 113.95 85.7086 113.896 86.7405 113.775C87.7363 113.659 88.6877 113.436 89.6581 113.196C90.1155 113.083 90.6392 112.989 91.0669 113.248C91.4214 113.463 91.6301 113.859 91.734 114.248C91.8808 114.799 91.8583 115.385 91.8881 115.95C91.912 116.404 91.9237 117.035 92.2733 117.37C92.3913 117.484 92.562 117.395 92.5757 117.245C92.5981 117.006 92.5215 116.77 92.4967 116.532Z" fill="#FFFDFA"/>
<path d="M63.5337 115.918C63.3338 115.526 62.8934 115.267 62.5287 115.043C62.1283 114.797 61.705 114.593 61.273 114.409C60.382 114.031 59.455 113.752 58.5407 113.439C57.6381 113.13 56.7403 112.782 55.9372 112.259C55.0672 111.692 54.3947 110.904 53.8705 110.014C53.2585 108.974 52.9089 107.834 52.3934 106.753C52.3101 106.578 52.0492 106.704 52.0906 106.881C52.3325 107.905 52.7499 108.944 53.2312 109.879C53.7111 110.811 54.3338 111.675 55.1599 112.33C56.7067 113.557 58.6797 113.978 60.4903 114.659C60.9936 114.849 61.489 115.062 61.9596 115.323C62.4258 115.582 62.8364 115.988 63.3274 116.187C63.4874 116.252 63.5986 116.045 63.5337 115.918Z" fill="#FFFDFA"/>
<path d="M66.8778 117.577C66.612 117.497 66.3551 117.514 66.08 117.501C65.7596 117.485 65.4446 117.457 65.1296 117.394C64.5278 117.274 63.9427 117.069 63.3897 116.804C62.8503 116.545 62.3412 116.233 61.8433 115.903C61.3186 115.556 60.8144 115.152 60.2448 114.88C60.1215 114.821 60.0083 114.963 60.0995 115.068C60.5218 115.557 61.0724 115.952 61.599 116.321C62.1457 116.706 62.7221 117.056 63.3277 117.34C63.8919 117.603 64.4825 117.813 65.095 117.929C65.6592 118.036 66.398 118.167 66.9158 117.861C67.0324 117.793 67.0061 117.615 66.8778 117.577Z" fill="#FFFDFA"/>
<path d="M33.3062 68.8003L63.6899 79.4798C64.9602 79.9264 66.352 79.2584 66.7986 77.9881L87.2993 19.6632C87.746 18.3929 87.0779 17.0011 85.8076 16.5544L55.4238 5.875C54.1535 5.42832 52.7618 6.0964 52.3151 7.36672L31.8145 65.6916C31.3678 66.9619 32.0358 68.3541 33.3062 68.8003Z" fill="#F1EAD6"/>
<path d="M35.0988 67.4329L63.1457 77.2911C64.3322 77.7081 65.6322 77.0844 66.0492 75.8979L85.4068 20.8257C85.8237 19.6392 85.2 18.3392 84.0135 17.9222L55.9666 8.06399C54.7802 7.64705 53.4801 8.27075 53.0632 9.45719L33.7056 64.5295C33.2887 65.7159 33.9124 67.016 35.0988 67.4329Z" stroke="#FFFDFA" stroke-miterlimit="10" stroke-linecap="round" stroke-linejoin="round"/>
<path d="M63.7918 54.9261C70.5538 52.5839 74.1367 45.2033 71.7945 38.4413C69.4522 31.6793 62.0717 28.0964 55.3097 30.4386C48.5476 32.7809 44.9647 40.1614 47.307 46.9234C49.6493 53.6855 57.0298 57.2684 63.7918 54.9261Z" fill="#F1EAD6"/>
<path d="M58.9671 51.1265C59.1865 50.9836 59.3533 50.7729 59.4513 50.5301C59.5333 50.3277 59.6196 50.1161 59.6615 50.0283C59.8039 49.7298 59.9083 49.4197 60.0389 49.1174C60.1516 48.857 60.373 48.6365 60.6782 48.6755C60.7831 48.6887 60.8718 48.7321 60.9533 48.7862C60.9401 48.6677 60.9308 48.5449 60.964 48.4293C60.9952 48.32 61.0932 48.223 61.1976 48.1782C61.3761 48.1016 61.5711 48.1489 61.7569 48.163C61.9154 48.1752 62.0593 48.1333 62.1958 48.0489C62.7712 47.6924 63.0433 47.0395 63.3803 46.4387C63.194 46.3441 63.017 46.232 62.8634 46.1281C62.5757 45.934 62.3031 45.7414 61.969 45.6336C61.6409 45.5273 61.2976 45.4776 60.9674 45.3776C59.9019 45.0558 59.1017 44.1536 58.8647 43.0735C58.792 42.7424 59.1729 42.5434 59.4352 42.7019C60.6563 43.4397 62.3265 43.4148 63.5183 42.6195C64.3361 42.0738 64.9471 41.2648 65.0724 40.3339C65.6 36.4171 63.5188 32.533 60.5788 29.7598C62.1851 29.8875 63.8055 30.3167 65.367 31.094C70.7106 33.7536 73.5667 39.8687 72.1672 45.6716C70.337 53.2594 62.4347 57.4244 55.261 54.9033C54.1779 54.5224 53.1783 54.0109 52.2712 53.395C54.6929 53.1999 56.996 52.409 58.9671 51.1265Z" fill="#FFFDFA"/>
<path d="M65.0069 50.0827C65.3975 50.6108 66.0637 50.8707 66.7088 50.7908C67.4047 50.7045 67.9572 50.1637 67.9821 49.4512C67.9933 49.1172 67.9265 48.768 67.8133 48.4545C67.707 48.1594 67.551 47.9254 67.3198 47.6981C67.0331 47.4167 66.6596 47.3265 66.3363 47.2865C65.6765 47.2046 65.0567 47.6269 64.7812 48.2067C64.4905 48.8177 64.6124 49.5497 65.0069 50.0827Z" fill="#F1EAD6"/>
<path d="M67.3563 40.7292C67.5948 40.6243 67.8864 40.774 68.1088 40.8676C68.3599 40.973 68.6052 41.0949 68.8417 41.2309C69.3137 41.5016 69.7394 41.839 70.1208 42.2267C70.2681 42.3764 70.5484 42.6076 70.526 42.8411C70.5187 42.9197 70.4714 42.9816 70.3973 43.0045C70.2646 43.046 70.1534 42.9479 70.0652 42.8636C69.8701 42.6768 69.6897 42.4793 69.4825 42.3057C69.2757 42.1326 69.0567 41.9717 68.8319 41.8234C68.5832 41.6596 68.3233 41.5133 68.0522 41.3904C68.0102 41.3714 67.9615 41.3543 67.9142 41.3372C67.9205 41.3626 67.9278 41.388 67.9337 41.4123C67.9629 41.5357 67.9839 41.661 68.0166 41.7839C68.0244 41.8127 68.0322 41.8415 68.0415 41.8693C68.0322 41.842 68.059 41.9136 68.0624 41.921C68.0736 41.9483 68.0858 41.9746 68.0995 42.0009C68.1029 42.0078 68.1434 42.075 68.1249 42.0477C68.1409 42.0716 68.159 42.0946 68.178 42.1165C68.1858 42.1253 68.1941 42.1341 68.2029 42.1428C68.2053 42.1448 68.2058 42.1448 68.2107 42.1482C68.2165 42.1516 68.2155 42.1511 68.2185 42.1531C68.2253 42.156 68.2316 42.1589 68.2385 42.1619C68.2433 42.1638 68.256 42.1677 68.2677 42.1711C68.2726 42.1711 68.2765 42.1682 68.2814 42.1682C68.3067 42.1721 68.3321 42.1779 68.357 42.1843C68.3711 42.1857 68.3862 42.1862 68.3896 42.1867C68.3989 42.1872 68.4077 42.1877 68.417 42.1877C68.4209 42.1877 68.4189 42.1877 68.4204 42.1877C68.4316 42.1853 68.4428 42.1819 68.4457 42.1814L68.4628 42.177C68.4091 42.195 68.4204 42.1911 68.4964 42.1658C68.5023 42.1643 68.5077 42.1628 68.5135 42.1614C68.5354 42.1555 68.5359 42.156 68.5155 42.1623C68.4945 42.1697 68.4955 42.1692 68.5174 42.1619C68.5286 42.158 68.5393 42.1531 68.5501 42.1477C68.6461 42.1033 68.7783 42.1238 68.8461 42.2106C68.91 42.2925 68.9314 42.4257 68.8607 42.512C68.8095 42.5749 68.7549 42.6305 68.6808 42.6671C68.6062 42.7041 68.5247 42.7129 68.4428 42.7153C68.376 42.7178 68.3131 42.7065 68.2477 42.6909C68.1473 42.6671 68.0751 42.6202 68.0229 42.5266C68.0502 42.5588 68.0775 42.5905 68.1044 42.6227C67.8566 42.4764 67.7045 42.2311 67.6206 41.9619C67.5801 41.8322 67.5562 41.6981 67.5343 41.5645C67.5104 41.4192 67.4714 41.2807 67.4358 41.1383C67.4348 41.1344 67.4363 41.1305 67.4353 41.1266C67.3705 41.0827 67.3129 41.0315 67.2724 40.9666C67.2237 40.8862 67.2763 40.7643 67.3563 40.7292Z" fill="#F1EAD6"/>
<path d="M67.4298 38.4338C67.5922 38.2295 67.9964 38.1978 68.2403 38.1705C68.5465 38.1359 68.8547 38.1364 69.16 38.1773C69.4565 38.2168 69.75 38.288 70.0299 38.3934C70.282 38.4884 70.6444 38.6211 70.798 38.8561C70.8501 38.9366 70.8131 39.0863 70.6917 39.0663C70.4361 39.0239 70.1967 38.8517 69.9539 38.7596C69.6891 38.6591 69.4145 38.5899 69.1336 38.5557C68.862 38.5226 68.5846 38.5167 68.3124 38.545C68.1798 38.5587 68.0496 38.5816 67.9189 38.6079C67.7829 38.6357 67.6351 38.6884 67.4995 38.6504C67.4137 38.626 67.3742 38.5036 67.4298 38.4338Z" fill="#F1EAD6"/>
<path d="M59.4595 44.2059C59.5789 44.2254 59.6497 44.3117 59.7404 44.3858C59.8418 44.4692 59.9515 44.5404 60.0544 44.6223C60.2553 44.7823 60.4742 44.9193 60.6991 45.0432C60.9209 45.1651 61.1594 45.2592 61.4022 45.3304C61.5524 45.3743 61.7056 45.3972 61.8587 45.4206C61.8314 45.3689 61.8089 45.3162 61.8036 45.2616C61.7933 45.1573 61.8762 45.0832 61.9786 45.1105C62.1093 45.1456 62.2181 45.266 62.3083 45.3631C62.4087 45.4713 62.5048 45.5835 62.6092 45.6883C62.813 45.8931 63.0481 46.0897 63.3114 46.2135C63.525 46.3145 63.7605 46.3681 63.9965 46.3622C64.2442 46.3559 64.4461 46.2545 64.6651 46.1521C64.7729 46.1014 64.8909 46.2316 64.8182 46.3315C64.4847 46.7894 63.7444 46.7587 63.268 46.589C62.9573 46.4783 62.6828 46.2881 62.4395 46.0682C62.3614 45.998 62.2902 45.9209 62.2166 45.8458C62.1971 45.8575 62.1752 45.8658 62.1503 45.8687C61.8772 45.9048 61.568 45.8258 61.3052 45.7556C61.0209 45.6795 60.7498 45.5674 60.4894 45.4308C60.2373 45.2987 60.0115 45.1314 59.8008 44.9408C59.6935 44.8437 59.6121 44.7374 59.5272 44.6204C59.4541 44.5199 59.3605 44.4161 59.3673 44.2858C59.3692 44.2429 59.4136 44.1986 59.4595 44.2059Z" fill="#F1EAD6"/>
<path d="M61.1333 48.7103C61.3054 48.8805 61.4415 49.1014 61.5897 49.2926C61.7326 49.4769 61.8804 49.6564 62.0315 49.8344C62.1754 50.0036 62.328 50.1669 62.4987 50.3093C62.584 50.3805 62.6728 50.4468 62.7654 50.5073C62.8615 50.5697 62.98 50.6131 63.02 50.7306C63.0497 50.8184 63.0141 50.8916 62.9249 50.9194C62.804 50.9569 62.6972 50.8833 62.5982 50.8213C62.4982 50.7589 62.4026 50.6897 62.3114 50.6151C62.1208 50.4595 61.9467 50.284 61.7858 50.0982C61.6282 49.9163 61.4893 49.7193 61.3522 49.5218C61.203 49.3077 61.0216 49.0917 60.9046 48.8591C60.8309 48.7118 61.027 48.605 61.1333 48.7103Z" fill="#F1EAD6"/>
<path d="M63.7918 54.9261C70.5538 52.5839 74.1367 45.2033 71.7945 38.4413C69.4522 31.6793 62.0717 28.0964 55.3097 30.4386C48.5476 32.7809 44.9647 40.1614 47.307 46.9234C49.6493 53.6855 57.0298 57.2684 63.7918 54.9261Z" stroke="#FFFDFA" stroke-miterlimit="10" stroke-linecap="round" stroke-linejoin="round"/>
<path d="M58.5256 65.8572L26.7418 71.0541C25.413 71.2716 24.1592 70.3704 23.9422 69.0411L13.966 8.02879C13.7485 6.69995 14.6496 5.44622 15.979 5.22922L47.7627 0.032378C49.0916 -0.185112 50.3453 0.71606 50.5623 2.04538L60.5386 63.0581C60.7556 64.3865 59.8544 65.6397 58.5256 65.8572Z" fill="#F1EAD6"/>
<path d="M57.0002 64.1973L27.6605 68.9947C26.4194 69.1976 25.2486 68.3559 25.0457 67.1149L15.6259 9.50488C15.423 8.26382 16.2647 7.09299 17.5057 6.89012L46.8454 2.09267C48.0865 1.88981 49.2573 2.73149 49.4602 3.97255L58.88 61.5825C59.0834 62.8236 58.2417 63.9944 57.0002 64.1973Z" stroke="#FFFDFA" stroke-miterlimit="10" stroke-linecap="round" stroke-linejoin="round"/>
<path d="M52.8309 32.8335C52.0512 32.8501 51.3846 32.3532 50.6872 32.0719C49.8363 31.7286 49.0341 31.8407 48.1612 32.0338C47.7048 32.1348 47.2532 32.2162 46.7861 32.1396C46.2916 32.0587 45.8278 31.847 45.3441 31.7227C45.1373 31.6695 44.8755 31.6271 44.6063 31.6159C44.4522 31.3272 44.281 31.0517 44.0962 30.7859C44.2298 30.6011 44.3552 30.408 44.481 30.2271C44.9886 29.4971 45.6235 28.8627 46.3491 28.3492C46.9977 27.8903 47.873 27.6475 48.4026 27.0403C48.9493 26.4127 48.7937 25.5979 48.7123 24.843C48.6147 23.9408 48.9551 23.0134 49.7856 22.555C50.0562 22.4057 49.9509 21.9674 49.6217 22.0186C48.6508 22.1702 47.6365 22.3511 46.7797 22.8602C46.3774 23.0992 46.0317 23.4044 45.7484 23.778C45.446 24.1769 45.209 24.6065 44.7706 24.8771C44.3581 25.1317 43.8977 25.2907 43.493 25.5628C43.1263 25.809 42.802 26.1182 42.526 26.4625C42.072 27.0296 41.7467 27.726 41.6302 28.4491C41.0333 28.0805 40.3901 27.7879 39.7133 27.5782C40.1375 26.7419 41.3313 26.5444 41.8428 25.7447C42.3519 24.9488 42.2388 23.9818 42.4499 23.0992C42.6674 22.1912 43.3487 21.5168 43.9129 20.8092C44.5078 20.0631 44.9091 19.2794 44.853 18.3022C44.8155 17.6429 44.6453 17.0021 44.6838 16.338C44.7228 15.6606 44.9145 15.015 45.2266 14.4142C45.3392 14.1977 45.0686 14.0343 44.8877 14.0963C42.6138 14.8741 42.1934 17.5264 41.0552 19.3209C39.9507 21.0623 37.788 21.8898 36.9449 23.8277C36.4792 24.8976 36.5065 26.1621 37.0146 27.2105C36.8864 27.2144 36.7586 27.2173 36.6294 27.2271C36.5996 27.1637 36.5723 27.0998 36.5357 27.0389C36.3022 26.6487 35.9208 26.3425 35.7433 25.9197C35.4025 25.1083 35.934 24.1949 35.6746 23.3557C35.42 22.5325 34.6174 22.3282 33.9259 21.9922C32.8911 21.489 32.7628 20.3162 32.7394 19.2829C32.7355 19.1039 32.5946 18.9903 32.419 19.0527C31.5286 19.3697 31.3531 20.4142 31.2784 21.2329C31.2336 21.7269 31.1946 22.2424 31.3545 22.7212C31.5149 23.2011 31.9387 23.5249 32.1021 23.995C32.2567 24.4392 32.087 24.9317 32.0226 25.3779C31.9597 25.8154 31.9855 26.2474 32.1942 26.6448C32.5375 27.2998 33.1564 27.6933 33.8279 27.9425C33.6338 28.0298 33.4436 28.1234 33.2583 28.2248C32.8652 27.941 32.4108 27.9244 31.9685 27.7576C31.4915 27.5777 31.2911 27.0472 31.0302 26.6492C30.7498 26.2211 30.4153 25.8295 30.0432 25.4784C29.3235 24.7996 28.475 24.3222 27.5416 24.0042C26.5483 23.6658 25.6071 23.3796 24.9234 22.5316C24.231 21.6733 23.7453 20.6819 23.0143 19.849C22.8485 19.6603 22.5584 19.8495 22.6481 20.0792C23.0036 20.9872 22.8651 22.0025 22.9148 22.9539C22.9695 24.0033 23.4064 24.8269 23.9516 25.7013C24.5309 26.6307 25.1102 27.5602 25.6891 28.4896C26.1884 29.2908 26.6643 30.1218 27.4304 30.7011C28.0941 31.2029 28.9812 31.6071 29.8345 31.7412C29.8106 31.7876 29.7853 31.8329 29.7624 31.8797C29.4171 31.6671 28.9841 31.5725 28.5925 31.5496C27.7313 31.4998 26.9179 31.7973 26.0743 31.908C25.6057 31.9694 25.1653 31.9329 24.706 31.8275C24.2939 31.7334 23.8833 31.6062 23.4595 31.5784C22.7837 31.534 22.0561 31.7266 21.666 32.3191C21.5485 32.4976 21.6416 32.7819 21.8781 32.7941C23.3201 32.8672 24.4992 33.8805 25.9221 34.0546C26.3323 34.1048 26.7458 34.0629 27.1569 34.0961C27.6079 34.1326 28.0244 34.2994 28.4599 34.4091C28.6252 34.4506 28.8002 34.4784 28.9768 34.4881C28.9407 34.7734 28.9202 35.0621 28.9139 35.3542C27.8615 34.8597 26.5712 35.5434 25.7027 36.2066C25.0668 36.6918 24.4465 37.2658 23.6658 37.5062C23.0714 37.689 21.942 37.495 22.0239 38.4517C22.0405 38.6458 22.2736 38.7438 22.436 38.6712C23.0572 38.3937 23.7638 38.7116 24.3227 38.9969C24.8552 39.2685 25.3794 39.5714 25.9792 39.6645C26.5941 39.7601 27.2329 39.6138 27.7932 39.3587C28.1068 39.2159 28.4018 39.0335 28.6861 38.8399C28.9182 38.6814 29.1957 38.5132 29.3796 38.2884C29.4615 38.5244 29.5541 38.7536 29.6556 38.9784C29.1323 39.0632 28.6203 39.3831 28.297 39.7625C28.0254 40.0809 27.883 40.4696 27.7362 40.8553C27.5738 41.2825 27.3665 41.6351 27.0354 41.9525C26.4327 42.5309 25.7783 43.0005 25.3506 43.7373C24.9273 44.4668 24.7011 45.2939 24.7186 46.1385C24.7255 46.473 25.1556 46.6139 25.3058 46.2804C25.4696 45.9166 25.7442 45.606 26.0879 45.4012C26.4917 45.1607 26.9423 45.1461 27.3929 45.0671C28.2506 44.9164 28.731 44.3839 29.2708 43.7515C29.5205 43.4589 29.7848 43.1872 30.1481 43.041C30.5796 42.8669 31.0322 42.8137 31.4296 42.5543C31.6442 42.4143 31.8373 42.231 32.0104 42.0252C32.1338 42.1247 32.2537 42.228 32.3825 42.3202C31.9173 42.6981 31.5983 43.2521 31.4257 43.8305C31.1253 44.834 31.2428 45.8854 31.2687 46.9153C31.296 47.9969 31.1648 49.0663 30.6479 50.0313C30.4197 50.4571 30.1481 50.8574 29.935 51.2924C29.7092 51.7528 29.5892 52.2477 29.5395 52.7568C29.4824 53.3391 29.4478 53.974 29.5127 54.5567C29.5692 55.0668 29.8106 55.5261 30.291 55.7427C30.4724 55.8246 30.643 55.6466 30.6245 55.4715C30.5167 54.4611 31.5686 53.8326 32.321 53.4146C33.1725 52.9416 33.9371 52.4238 34.2994 51.4772C34.6739 50.499 34.592 49.4442 34.5135 48.4221C34.4696 47.8521 34.4086 47.2615 34.5111 46.6944C34.6096 46.1487 34.9265 45.8108 35.343 45.4738C35.8672 45.0501 36.2792 44.5444 36.5153 43.9533C36.5362 44.4698 36.7454 44.9896 37.0414 45.3948C37.2775 45.7181 37.5935 45.9683 37.8465 46.276C38.0938 46.5764 38.225 46.9368 38.3547 47.2986C38.6034 47.9954 38.9277 48.603 39.4602 49.1258C39.9975 49.6534 40.6281 50.0606 41.264 50.458C41.617 50.6785 41.9486 50.2064 41.638 49.9382C41.0845 49.4603 41.3127 48.6211 41.4868 48.0208C41.6877 47.3274 41.8555 46.6617 41.6292 45.9522C41.519 45.6065 41.323 45.2792 41.2406 44.9262C41.1474 44.5273 41.2011 44.1138 41.2449 43.7124C41.2469 43.6944 41.2493 43.6734 41.2513 43.6549C41.756 44.0499 42.3339 44.3478 42.9546 44.5336C43.4194 44.6726 43.8968 44.7545 44.382 44.7697C44.8589 44.7848 45.3446 44.7433 45.8161 44.8321C46.8241 45.0218 47.2201 46.0853 47.9359 46.6993C48.6611 47.3215 49.6066 47.6141 50.5278 47.7965C51.7235 48.033 52.9523 48.0817 54.0881 48.5621C54.4416 48.7118 54.6825 48.2139 54.3972 47.9891C53.6351 47.3883 52.8826 46.7754 52.1672 46.1195C51.4641 45.4753 50.8906 44.7438 50.3259 43.9797C49.8221 43.2984 49.2716 42.663 48.4836 42.3105C48.0647 42.1232 47.6063 42.0081 47.2303 41.736C46.8587 41.4673 46.5998 41.0748 46.3428 40.7017C46.0268 40.2428 45.6499 39.7581 45.1739 39.468C45.2885 39.466 45.4041 39.4597 45.5211 39.4465C45.9254 39.4012 46.3257 39.3085 46.7329 39.2875C47.1615 39.2656 47.5824 39.3617 47.991 39.4811C48.7269 39.6967 49.473 39.9741 50.2532 39.8752C51.0417 39.7752 51.5884 39.1183 52.3555 38.9915C52.6851 38.9077 52.6154 38.4034 52.2687 38.4615C51.5421 38.6404 50.9437 38.0075 50.3956 37.6325C49.77 37.2053 49.0907 37.2131 48.3865 37.0166C47.5087 36.7713 46.5349 36.2134 45.5704 36.0862C45.5723 36.0549 45.5787 36.0252 45.5801 35.994C45.8352 36.054 46.0936 36.0896 46.3345 36.0847C47.1635 36.0671 47.8325 35.7068 48.4119 35.1323C48.7064 34.8397 48.9819 34.5198 49.3243 34.2804C49.6802 34.0317 50.0928 33.9576 50.518 33.9273C51.387 33.8664 52.2696 33.9639 52.9996 33.3939C53.1981 33.2403 53.1118 32.8277 52.8309 32.8335Z" fill="#FFFDFA"/>
<path d="M33.4301 36.7132C33.0999 36.4002 32.6333 36.1983 32.1744 36.3182C31.9267 36.3831 31.6853 36.5187 31.5439 36.7391C31.4239 36.9263 31.3654 37.1448 31.3824 37.3662C31.3595 37.5554 31.3898 37.7558 31.4697 37.906C31.6799 38.3005 32.1037 38.5209 32.5445 38.5288C33.0136 38.537 33.512 38.3966 33.7275 37.9402C33.926 37.5193 33.7519 37.018 33.4301 36.7132Z" fill="#F1EAD6"/>
<path d="M42.7747 34.8344C42.4143 34.5263 41.9115 34.4726 41.4722 34.615C41.0226 34.7608 40.6388 35.2236 40.7173 35.7127C40.7139 35.7444 40.708 35.7761 40.7075 35.8068C40.7036 36.0916 40.8173 36.3681 41.0645 36.5256C41.2605 36.6504 41.4883 36.6992 41.716 36.728C42.1914 36.788 42.7571 36.6841 43.0351 36.2486C43.1775 36.0253 43.2374 35.7483 43.1784 35.4869C43.1189 35.2246 42.978 35.008 42.7747 34.8344Z" fill="#F1EAD6"/>
<path d="M38.7526 36.4401C38.3961 36.3021 37.9836 36.366 37.6642 36.5698C37.475 36.6908 37.3833 36.8804 37.2165 37.0185C36.8996 37.2798 36.9449 36.7166 36.9527 36.5474C36.9976 35.5609 36.8337 34.5573 36.5241 33.6225C36.2422 32.7711 35.8428 31.8479 35.1806 31.2199C34.6018 30.6713 33.7347 30.3694 32.9818 30.742C32.7546 30.8546 32.9111 31.1911 33.1457 31.0984C34.0844 30.7288 34.9285 31.4222 35.3883 32.1878C35.8726 32.9939 36.1774 33.9185 36.351 34.8397C36.4402 35.3141 36.486 35.7925 36.4982 36.2748C36.5075 36.6361 36.4373 37.078 36.7459 37.3408C36.9907 37.549 37.3262 37.4856 37.5472 37.2769C37.6905 37.1413 37.7929 36.9833 37.9733 36.8912C38.1957 36.7776 38.4195 36.7888 38.659 36.8253C38.8862 36.8609 38.9613 36.5211 38.7526 36.4401Z" fill="#F1EAD6"/>
<path d="M38.1745 38.276C38.137 38.2214 38.0551 38.1965 37.9922 38.2077C37.9273 38.2194 37.8766 38.2472 37.8347 38.2984C37.822 38.314 37.8113 38.3311 37.7991 38.3467C37.7825 38.3682 37.7664 38.3891 37.7498 38.4106C37.7137 38.4457 37.6732 38.4764 37.6313 38.5047C37.6016 38.5213 37.5704 38.5364 37.5382 38.5476C37.4757 38.5622 37.4114 38.57 37.3504 38.59C37.2992 38.6071 37.2641 38.6671 37.2587 38.7178C37.2524 38.7758 37.2787 38.8295 37.3241 38.8641C37.4089 38.9294 37.5323 38.9324 37.6337 38.9265C37.7181 38.9216 37.8044 38.8972 37.8815 38.8636C37.9751 38.8226 38.0536 38.75 38.1209 38.6754C38.155 38.6373 38.1804 38.5959 38.2018 38.5486C38.216 38.5179 38.2282 38.4837 38.2311 38.4501C38.236 38.3828 38.2111 38.3296 38.1745 38.276Z" fill="#F1EAD6"/>
<path d="M40.5883 39.0369C40.4123 38.9452 40.126 39.1286 39.9573 39.1925C39.7584 39.268 39.557 39.3334 39.3482 39.3763C39.162 39.4143 38.9698 39.4436 38.7792 39.4397C38.686 39.4378 38.5914 39.4324 38.4988 39.4212C38.4661 39.4173 38.4329 39.4104 38.3998 39.4041C38.3842 39.2802 38.2871 39.1759 38.1369 39.1959C37.9463 39.2212 37.8443 39.4051 37.6971 39.5075C37.6922 39.5109 37.6927 39.5104 37.6912 39.5119C37.6893 39.5128 37.6898 39.5129 37.6854 39.5153C37.6659 39.5265 37.6459 39.5372 37.6254 39.5475C37.5927 39.5636 37.5596 39.5772 37.5254 39.5899C37.5201 39.5918 37.5113 39.5948 37.5059 39.5967C37.4864 39.6021 37.4669 39.607 37.4474 39.6109C37.4074 39.6192 37.3674 39.6245 37.3265 39.6284C37.3211 39.6289 37.3113 39.6289 37.306 39.6294C37.2909 39.6294 37.2757 39.6289 37.2606 39.6279C37.2226 39.626 37.1846 39.6206 37.147 39.6143C37.1304 39.6113 37.1138 39.6084 37.0973 39.605C37.0909 39.6036 37.0919 39.604 37.0904 39.604C37.0861 39.6021 37.0846 39.6016 37.0739 39.5982C37.0417 39.5875 37.0095 39.5767 36.9778 39.564C36.9583 39.5558 36.9388 39.547 36.9198 39.5377C36.9144 39.5353 36.9149 39.5353 36.9129 39.5343C36.911 39.5333 36.9115 39.5333 36.9076 39.5309C36.8744 39.5119 36.8427 39.4904 36.8125 39.4675C36.7452 39.4168 36.6847 39.3539 36.6033 39.3256C36.4628 39.2768 36.3205 39.3904 36.3234 39.5289C36.202 39.5957 36.081 39.666 35.964 39.7406C35.8547 39.8103 35.7519 39.8883 35.6358 39.9459C35.5241 40.0015 35.41 40.0439 35.2891 40.0736C35.1555 40.1068 34.9921 40.117 34.8707 40.1843C34.7185 40.2687 34.7585 40.4721 34.9233 40.5072C35.0613 40.5364 35.2315 40.4955 35.3676 40.4672C35.509 40.4379 35.6533 40.3989 35.785 40.3384C35.9177 40.278 36.0352 40.1882 36.1546 40.1053C36.2673 40.0273 36.3834 39.9639 36.5101 39.9113C36.5282 39.9034 36.5423 39.8903 36.5565 39.8781C36.7676 40.0483 37.0587 40.1409 37.3123 40.1351C37.5162 40.1302 37.72 40.0849 37.8994 39.9849C37.9897 39.9347 38.0774 39.8766 38.153 39.8054C38.1842 39.7762 38.2189 39.7445 38.2525 39.7118C38.389 39.7806 38.5709 39.8064 38.6967 39.8176C38.9211 39.8371 39.1517 39.8259 39.3721 39.782C39.6067 39.7357 39.8359 39.6625 40.0597 39.5787C40.1714 39.5367 40.2821 39.4919 40.3923 39.4451C40.4986 39.4002 40.6337 39.3378 40.6678 39.2193C40.6922 39.1398 40.661 39.0749 40.5883 39.0369Z" fill="#F1EAD6"/>
<path d="M38.439 40.6974C38.1766 40.8506 37.9099 40.9218 37.6066 40.9374C37.4656 40.9447 37.3242 40.9359 37.1843 40.9188C37.0194 40.8988 36.8205 40.8296 36.663 40.9057C36.5411 40.9647 36.5059 41.1544 36.6313 41.2329C36.719 41.288 36.8244 41.3045 36.9248 41.3275C37.0107 41.347 37.0965 41.365 37.1838 41.3782C37.3545 41.404 37.5271 41.4143 37.6997 41.4065C38.0508 41.3904 38.3965 41.2924 38.6891 41.0949C38.9081 40.9461 38.6711 40.5619 38.439 40.6974Z" fill="#F1EAD6"/>
<path d="M41.2597 29.6962C40.6901 29.4046 40.0298 29.3958 39.4125 29.5123C39.0838 29.5743 38.76 29.6654 38.4479 29.7854C38.1612 29.8961 37.7774 30.0375 37.576 30.2789C37.5029 30.3667 37.576 30.5383 37.7008 30.5115C37.9929 30.4486 38.2738 30.255 38.5518 30.1419C38.8322 30.0278 39.1228 29.9356 39.4193 29.8737C39.9879 29.7552 40.5887 29.7366 41.1202 30.0005C41.3143 30.0975 41.4508 29.7942 41.2597 29.6962Z" fill="#F1EAD6"/>
<path d="M33.8364 32.6116C33.4946 32.5238 33.1406 32.4956 32.79 32.5409C32.4437 32.5858 32.0975 32.7023 31.7981 32.8827C31.5518 33.031 31.1159 33.2972 31.0866 33.6162C31.0817 33.6688 31.1037 33.7356 31.1524 33.7634C31.1637 33.7698 31.1749 33.7761 31.1866 33.782C31.3026 33.8298 31.3919 33.723 31.4709 33.6566C31.5981 33.5494 31.7196 33.4367 31.8576 33.3426C31.8727 33.3324 31.8903 33.3265 31.9054 33.3167C31.9512 33.4157 32.0146 33.5079 32.0751 33.5976C32.1311 33.6805 32.1843 33.7678 32.2487 33.8449C32.3945 34.0204 32.5939 34.1024 32.8192 34.1131C33.0323 34.1233 33.2376 34.0897 33.438 34.0194C33.6355 33.9507 33.8511 33.8351 33.972 33.6596C34.0315 33.5732 34.03 33.4528 33.9623 33.3709C33.8998 33.2953 33.7711 33.2558 33.6814 33.307C33.6004 33.3528 33.5263 33.4079 33.4502 33.4606C33.4439 33.465 33.4151 33.4826 33.4371 33.4694C33.4176 33.4806 33.398 33.4918 33.3781 33.5021C33.3425 33.5211 33.3054 33.5381 33.2683 33.5538C33.1845 33.5884 33.1654 33.5942 33.0738 33.6118C33.0343 33.6196 32.9938 33.6249 32.9538 33.6288C32.9358 33.6308 32.9182 33.6323 32.9002 33.6327C32.8919 33.6332 32.8914 33.6337 32.8914 33.6337C32.886 33.6332 32.8836 33.6332 32.8709 33.6327C32.8358 33.6313 32.8012 33.6303 32.7661 33.6259C32.7134 33.6191 32.73 33.623 32.6885 33.6059C32.6744 33.5991 32.6729 33.5991 32.6841 33.6059C32.6768 33.6011 32.6695 33.5967 32.6622 33.5918C32.648 33.5815 32.6344 33.5713 32.6212 33.5601C32.6378 33.5742 32.6027 33.5411 32.5993 33.5376C32.5876 33.525 32.5759 33.5113 32.5647 33.4982C32.4613 33.3748 32.3662 33.2451 32.2545 33.1295C32.414 33.0612 32.5798 33.0076 32.749 32.9774C33.0494 32.9232 33.3605 32.9315 33.6575 33.0027C33.8135 33.0403 33.9676 33.0973 34.1125 33.1661C34.2622 33.2373 34.3753 33.3309 34.545 33.3358C34.665 33.3392 34.7513 33.2304 34.7035 33.1153C34.5806 32.8164 34.1281 32.6867 33.8364 32.6116Z" fill="#F1EAD6"/>
<path d="M38.8961 31.7841C39.1921 31.5919 39.5188 31.4525 39.8655 31.3837C40.2079 31.3159 40.5736 31.3164 40.9145 31.3915C41.1954 31.4534 41.6932 31.5671 41.8225 31.8601C41.8439 31.9084 41.8439 31.9786 41.8069 32.0211C41.7986 32.0308 41.7898 32.0401 41.7805 32.0493C41.6854 32.1313 41.5669 32.0586 41.4714 32.0211C41.3163 31.9601 41.1651 31.8918 41.0047 31.8465C40.9871 31.8416 40.9686 31.8416 40.951 31.8372C40.9388 31.9455 40.9081 32.0533 40.8793 32.1576C40.8525 32.2542 40.8301 32.3536 40.7935 32.4468C40.7111 32.6594 40.5482 32.8008 40.3381 32.8827C40.1396 32.9603 39.9343 32.9934 39.7217 32.991C39.5125 32.9885 39.2716 32.9481 39.1009 32.8203C39.017 32.7574 38.98 32.6428 39.0185 32.5438C39.0536 32.4521 39.1628 32.3736 39.2643 32.3936C39.3555 32.4117 39.4432 32.4399 39.5325 32.4658C39.5398 32.4677 39.5729 32.4751 39.5476 32.4697C39.5695 32.4746 39.592 32.4785 39.6139 32.4819C39.6539 32.4882 39.6939 32.4931 39.7344 32.4955C39.8251 32.5019 39.8446 32.5014 39.9372 32.4887C39.9772 32.4833 40.0172 32.476 40.0567 32.4668C40.0743 32.4629 40.0918 32.4585 40.1089 32.4536C40.1167 32.4512 40.1167 32.4517 40.1177 32.4517C40.1225 32.4497 40.1245 32.4487 40.1367 32.4439C40.1693 32.4312 40.202 32.419 40.2337 32.4039C40.2815 32.3805 40.2669 32.3897 40.301 32.3605C40.3122 32.3497 40.3137 32.3492 40.3054 32.359C40.3108 32.3522 40.3161 32.3454 40.3215 32.3385C40.3317 32.3244 40.3415 32.3102 40.3503 32.2956C40.339 32.3146 40.3615 32.2717 40.3639 32.2673C40.3712 32.2512 40.3776 32.2351 40.3844 32.2186C40.4434 32.0689 40.4922 31.9152 40.5609 31.7704C40.3878 31.7563 40.2142 31.7587 40.044 31.7836C39.7417 31.828 39.4501 31.9347 39.1906 32.0971C39.0546 32.1825 38.9268 32.2859 38.8112 32.397C38.6918 32.5121 38.6147 32.637 38.4553 32.6955C38.3426 32.7369 38.2261 32.6613 38.2348 32.537C38.2563 32.2151 38.644 31.9479 38.8961 31.7841Z" fill="#F1EAD6"/>
<path d="M38.4814 42.9738C37.7148 43.0011 36.955 43.0538 36.1904 42.9596C35.4628 42.8704 34.7523 42.6812 34.0755 42.4003C32.6833 41.822 31.4983 40.8418 30.6395 39.6051C28.9372 37.1537 28.7338 33.8173 30.3299 31.2659C30.7254 30.6334 31.2081 30.0575 31.768 29.5645C32.358 29.0447 33.0168 28.6648 33.7127 28.3064C33.9785 28.1693 33.7966 27.7973 33.5215 27.8909C32.1727 28.3503 30.9867 29.406 30.1597 30.5432C29.2912 31.7374 28.7392 33.1731 28.6363 34.6492C28.4032 37.9974 30.3231 41.2514 33.3035 42.7568C34.095 43.1566 34.9523 43.4258 35.8271 43.5668C36.7229 43.7111 37.6914 43.7564 38.5677 43.4965C38.8954 43.399 38.8242 42.9616 38.4814 42.9738Z" fill="#F1EAD6"/>
<path d="M45.1777 33.0165C44.6042 31.1157 43.3598 29.5016 41.7018 28.4185C40.806 27.8333 39.8126 27.3398 38.7437 27.1975C38.6043 27.1789 38.5545 27.3876 38.6862 27.4364C39.5376 27.7514 40.3715 28.0937 41.1278 28.6043C41.889 29.1183 42.5395 29.7776 43.1037 30.4978C44.3234 32.0549 45.1289 34.0723 44.6827 36.0609C44.5574 36.6202 44.3507 37.1615 44.119 37.6847C43.8747 38.2373 43.5392 38.761 43.3247 39.3242C43.2047 39.6392 43.6494 39.8874 43.8464 39.6061C44.1654 39.1511 44.3989 38.6083 44.6325 38.1051C44.872 37.5892 45.0856 37.0586 45.2348 36.509C45.5532 35.3372 45.5283 34.1791 45.1777 33.0165Z" fill="#F1EAD6"/>
<path d="M75.2341 87.5158C75.2341 87.4563 74.9361 84.4149 74.9717 83.3416C75.0073 82.2683 75.0073 79.7281 74.0057 76.6272C73.0041 73.5262 69.3267 66.7085 62.7118 63.8465C56.0969 60.984 53.9181 59.4416 53.0121 58.3765C52.1055 57.311 50.6743 55.7847 49.5932 55.0055C48.5121 54.2262 46.0631 52.7793 45.1566 51.3959C44.25 50.0124 42.5487 46.8798 40.6088 46.0211C38.6689 45.1623 36.2361 45.1306 35.0433 45.6553C33.8505 46.18 32.6738 47.5635 32.6738 47.5635C32.6738 47.5635 35.487 52.8871 35.6275 53.7332C35.7679 54.5792 36.6335 55.7208 36.9832 56.1182C37.3328 56.5157 40.8312 59.1075 41.9128 60.5705C42.9939 62.0334 46.1426 65.818 46.4127 68.6327C46.6829 71.4474 46.6351 72.767 47.2076 74.087C47.7801 75.4071 49.4815 78.3646 49.9111 80.0821C50.3403 81.7996 50.2188 83.5961 50.2188 83.5961L75.2341 87.5158Z" fill="#FFFDFA"/>
<path d="M92.6017 117.53C91.6703 115.331 90.1825 113.392 88.8756 111.411C88.206 110.395 87.5721 109.36 87.0074 108.283C86.4193 107.161 85.881 106.015 85.2894 104.895C84.6877 103.755 84.044 102.637 83.3603 101.544C82.702 100.491 81.934 99.4954 81.3312 98.4104C80.2101 96.393 80.4378 93.9601 79.4484 91.893C78.9569 90.867 78.1523 90.0282 77.3784 89.2109C76.6376 88.4283 75.9657 87.631 75.4195 86.7074C75.3361 85.8969 75.3327 85.0786 75.3332 84.2584C75.3341 82.0123 75.1269 79.794 74.572 77.6128C73.5255 73.4995 71.3754 69.5905 68.1423 66.7958C64.6942 63.8153 60.2342 62.6855 56.3423 60.4589C55.3846 59.9107 54.4668 59.2895 53.6427 58.5536C52.685 57.6983 51.8804 56.6889 50.9251 55.8316C49.1861 54.2706 46.9498 53.3334 45.462 51.4876C44.177 49.893 43.37 47.8991 41.7783 46.5585C39.9974 45.0585 37.6811 45.0068 35.4852 45.3375C34.9069 44.9839 34.3105 44.6596 33.6848 44.3968C33.164 44.1778 32.6349 44.0033 32.0815 43.8867C31.5524 43.776 30.9823 43.6687 30.4435 43.755C30.3606 43.7682 30.3259 43.8287 30.3167 43.895C30.0582 44.2105 30.1445 44.746 30.2021 45.1161C30.2796 45.614 30.4517 46.087 30.6556 46.5459C31.0613 47.4568 31.6123 48.3077 32.1322 49.1567C32.6354 49.9779 33.1601 50.7898 33.7599 51.5447C34.0584 51.9207 34.3812 52.2796 34.722 52.6175C34.8049 52.6995 34.8922 52.7765 34.9781 52.856C35.1161 53.1295 35.2468 53.4065 35.3701 53.6899C35.6666 54.3716 35.9592 55.064 36.4034 55.6658C37.249 56.8103 38.4808 57.5623 39.5454 58.4795C41.6257 60.2726 43.3285 62.4704 44.5852 64.9101C45.2611 66.2228 45.8687 67.6409 46.1305 69.1004C46.2773 69.9187 46.288 70.7541 46.3914 71.5777C46.4855 72.3306 46.6635 73.0645 46.9127 73.7809C47.474 75.393 48.3951 76.833 49.091 78.3823C49.2602 78.7597 49.4358 79.1367 49.5957 79.518C49.7815 79.9618 49.8854 80.4245 49.9727 80.8966C50.1409 81.808 50.179 82.6921 50.1429 83.6157C50.137 83.762 50.3609 83.7913 50.3974 83.6503C50.5827 82.9345 50.5525 82.1874 50.4438 81.4598C50.3326 80.7166 50.0478 80.012 49.8366 79.2947C49.4158 77.8649 48.7029 76.5234 48.1079 75.1609C47.4872 73.7399 47.0575 72.3121 46.9332 70.7619C46.8683 69.9563 46.8132 69.1507 46.6245 68.3621C46.4538 67.6477 46.2056 66.9519 45.9325 66.2706C45.166 64.361 44.1214 62.5801 42.8443 60.9743C43.071 60.9202 43.2949 60.8558 43.5109 60.768C43.6889 60.6959 43.8483 60.6134 44.0117 60.5135C44.1668 60.4189 44.336 60.3238 44.4481 60.179C44.495 60.1185 44.5159 60.0444 44.4745 59.9737C44.4374 59.9103 44.3545 59.8742 44.2828 59.8956C44.1063 59.9483 43.9546 60.0531 43.7903 60.1351C43.6406 60.2097 43.485 60.277 43.3324 60.3457C43.0808 60.4589 42.8175 60.5442 42.5502 60.6144C42.2781 60.2872 42.0002 59.9649 41.7085 59.6538C42.2849 59.6099 42.8609 59.4587 43.3987 59.269C43.7479 59.1456 44.0897 58.9993 44.4174 58.8262C44.5784 58.7414 44.7324 58.6477 44.8836 58.5463C45.0387 58.442 45.2142 58.3415 45.3166 58.1811C45.4 58.0509 45.263 57.9002 45.125 57.9319C44.9568 57.9709 44.8139 58.0879 44.6651 58.1728C44.5081 58.263 44.3482 58.3498 44.1882 58.4342C43.8747 58.5995 43.5509 58.7467 43.2178 58.8687C42.619 59.0876 42.0021 59.2012 41.3789 59.3139C40.4836 58.4073 39.5059 57.6139 38.4994 56.8313C37.9649 56.4153 37.4334 55.9847 36.9999 55.461C36.519 54.8797 36.2089 54.1839 35.9022 53.5011C35.8968 53.489 35.8909 53.4773 35.8856 53.4651C35.8895 53.4646 35.8929 53.4621 35.8963 53.4616C36.3635 53.4933 36.8628 53.3856 37.3046 53.271C37.7869 53.1461 38.3228 52.9901 38.7359 52.7029C39.1445 52.4186 39.4132 51.9582 39.6166 51.513C39.8223 51.0624 39.9389 50.4017 39.8106 49.5927C39.7302 49.0865 39.5322 48.6257 39.2201 48.2209C38.5559 47.3602 37.5494 46.7287 36.6682 46.1114C36.4615 45.9665 36.2518 45.8251 36.0402 45.6861C37.6538 45.4906 39.301 45.5398 40.7128 46.3776C42.498 47.4368 43.387 49.4454 44.5213 51.0922C45.1391 51.9894 45.855 52.7804 46.7098 53.4582C47.6247 54.1834 48.6185 54.7997 49.5528 55.4981C50.5515 56.2442 51.3722 57.159 52.2237 58.0621C53.0258 58.914 53.8982 59.6762 54.8652 60.336C58.5323 62.8376 63.0099 63.8344 66.6019 66.4672C70.0091 68.9649 72.3678 72.7207 73.6001 76.7248C74.2277 78.7641 74.5807 80.8849 74.6436 83.0178C74.6827 84.3428 74.6124 85.6721 74.7851 86.9897C74.9445 88.2054 75.3371 89.3724 75.9232 90.4496C76.209 90.9752 76.5382 91.4263 76.9585 91.8511C77.0955 91.9895 77.3003 91.8145 77.2189 91.6502C76.6674 90.5359 76.0359 89.467 75.7013 88.2591C75.6809 88.1844 75.6653 88.1094 75.6467 88.0343C75.9115 88.4078 76.2104 88.7604 76.5103 89.0983C77.1945 89.8712 77.9367 90.6051 78.4965 91.478C79.7469 93.4281 79.5377 95.8307 80.3896 97.9257C80.8489 99.0565 81.6126 100.027 82.2758 101.042C82.9707 102.105 83.6271 103.192 84.2434 104.303C85.4586 106.491 86.4569 108.788 87.8052 110.902C88.5367 112.05 89.3208 113.163 90.0718 114.297C90.8228 115.432 91.5147 116.59 92.1618 117.786C92.3218 118.084 92.726 117.823 92.6017 117.53Z" fill="#F1EAD6"/>
<path d="M51.5924 89.1899C51.3949 88.8476 51.1467 88.5379 50.9497 88.1936C50.7625 87.8664 50.5923 87.5192 50.4357 87.1759C50.1071 86.4562 49.8642 85.6959 49.6901 84.9245C49.4985 84.076 49.3922 83.2094 49.3351 82.3419C49.3068 81.9084 49.2907 81.4744 49.2829 81.0404C49.2742 80.5703 49.3025 80.086 49.2415 79.6194C49.2205 79.4575 48.9591 79.378 48.9235 79.5764C48.7626 80.4659 48.828 81.4432 48.8675 82.3424C48.9075 83.2552 49.0055 84.1672 49.1947 85.0615C49.3649 85.8651 49.6121 86.6512 49.9515 87.3997C50.2714 88.1049 50.7137 88.8988 51.3081 89.4098C51.4588 89.5386 51.6997 89.3762 51.5924 89.1899Z" fill="#F1EAD6"/>
</svg>
