<svg width="418" height="645" viewBox="0 0 418 645" fill="none" xmlns="http://www.w3.org/2000/svg">
<mask id="mask0_141_29186" style="mask-type:alpha" maskUnits="userSpaceOnUse" x="0" y="0" width="418" height="645">
<rect width="418" height="645" transform="matrix(-1 0 0 1 418 0)" fill="#D9D9D9"/>
</mask>
<g mask="url(#mask0_141_29186)">
<path d="M62.4665 284.248L94.9848 259.734C96.1747 258.837 97.8949 259.496 98.1791 260.961L105.944 300.936C106.044 301.448 106.338 301.904 106.768 302.205L140.13 325.557C141.352 326.412 141.256 328.252 139.951 328.975L104.331 348.712C103.874 348.965 103.532 349.386 103.38 349.887L91.4817 388.831C91.0466 390.258 89.2664 390.734 88.1764 389.717L58.3998 361.94C58.0166 361.585 57.5109 361.388 56.989 361.397L16.273 362.115C14.7806 362.141 13.7787 360.597 14.4083 359.244L31.6245 322.339C31.8443 321.864 31.8745 321.325 31.7023 320.829L18.439 282.327C17.9527 280.917 19.1128 279.486 20.592 279.668L61.0103 284.638C61.5253 284.704 62.049 284.564 62.4665 284.248Z" fill="#F1EAD6" stroke="#F1EAD6" stroke-width="2.37795" stroke-miterlimit="10" stroke-linecap="round" stroke-linejoin="round"/>
<path d="M107.994 184.036L114.652 195.581C119.632 204.217 127.828 210.529 137.448 213.138L143.557 214.795L139.095 219.285C132.068 226.355 128.127 235.921 128.132 245.888L128.138 259.215L121.48 247.67C116.5 239.034 108.304 232.722 98.6833 230.113L92.5746 228.456L97.0364 223.966C104.064 216.896 108.004 207.33 108 197.363L107.994 184.036Z" fill="#F1EAD6" stroke="#F1EAD6" stroke-width="2.37795" stroke-miterlimit="10" stroke-linecap="round" stroke-linejoin="round"/>
<path d="M55.7734 411.268L59.0975 417.261C63.1925 424.642 69.7394 430.057 77.2611 432.283L79.7665 433.025L77.9341 434.887C72.4307 440.478 69.3278 448.385 69.3205 456.828L69.3158 463.683L65.9917 457.691C61.8961 450.307 55.3499 444.895 47.8282 442.668L45.3227 441.927L47.155 440.064C52.6585 434.473 55.7614 426.567 55.7688 418.123L55.7734 411.268Z" fill="#F1EAD6" stroke="#F1EAD6" stroke-width="2.37795" stroke-miterlimit="10" stroke-linecap="round" stroke-linejoin="round"/>
<path d="M371.864 381.102L386.602 367.488C387.813 366.368 389.781 367.126 389.933 368.767L391.775 388.743C391.836 389.394 392.211 389.976 392.784 390.295L410.286 400.103C411.724 400.909 411.615 403.013 410.099 403.666L391.668 411.591C391.068 411.85 390.631 412.388 390.503 413.03L386.583 432.707C386.261 434.325 384.226 434.87 383.138 433.63L369.904 418.55C369.472 418.057 368.827 417.809 368.175 417.885L348.252 420.238C346.615 420.43 345.466 418.663 346.308 417.246L356.561 400C356.896 399.438 356.932 398.747 356.66 398.152L348.267 379.931C347.578 378.434 348.904 376.796 350.512 377.158L370.082 381.58C370.714 381.725 371.383 381.546 371.864 381.102Z" fill="#F1EAD6"/>
<path d="M367.26 472.274L370.478 478.327C374.44 485.781 380.887 491.313 388.369 493.674L390.862 494.461L388.996 496.29C383.394 501.782 380.146 509.631 379.987 518.071L379.859 524.925L376.642 518.872C372.68 511.418 366.232 505.885 358.751 503.525L356.258 502.738L358.124 500.909C363.725 495.417 366.974 487.567 367.132 479.128L367.26 472.274Z" fill="#F1EAD6" stroke="#F1EAD6" stroke-width="2.37795" stroke-miterlimit="10" stroke-linecap="round" stroke-linejoin="round"/>
<path d="M556.831 155.646C556.831 155.646 554.245 149.632 540.421 155.225C526.598 160.819 515.467 169.939 510.014 176.858C504.561 183.777 504.219 185.797 504.219 185.797C504.219 185.797 499.465 189.961 495.899 196.856C492.334 203.752 488.12 210.502 488.12 210.502C488.12 210.502 488.476 191.46 490.125 186.523C491.771 181.586 493.551 178.941 495.854 170.458C498.157 161.973 500.999 145.318 502.805 139.775C504.612 134.234 506.012 126.439 503.757 124.749C501.502 123.059 491.214 124.978 486.842 127.836C482.47 130.694 481.217 132.312 481.217 132.312C481.217 132.312 467.119 130.634 456.837 141.095C446.555 151.555 445.344 157.82 445.344 157.82C445.344 157.82 437.441 162.185 433.369 169.458C429.296 176.731 425.542 191.784 423.787 196.912C422.03 202.039 420.467 204.144 420.467 204.144L412.812 212.135C412.812 212.135 416.328 204.731 418.859 195.904C421.391 187.077 423.877 171.64 424.67 166.651C425.46 161.664 426.725 152.455 428.459 147.091C430.193 141.73 432.696 133.304 431.78 132.073C430.865 130.841 418.234 133.068 412.123 141.995C406.012 150.925 405.639 157.499 405.639 157.499C405.639 157.499 398.876 167.017 396.265 175.545C393.653 184.071 393.737 191.274 391.986 192.826C390.233 194.379 374.908 201.297 365.11 211.468C355.312 221.639 321.392 237.495 303.014 247.405C284.635 257.315 238.705 256.414 227.08 263.022C215.456 269.63 196.995 291.554 196.995 291.554C196.995 291.554 170.633 313.307 163.777 335.053C156.92 356.799 161.176 364.891 161.632 370.79C162.087 376.69 163.276 383.516 163.276 383.516C163.276 383.516 151.756 410.925 147.421 428.303C143.087 445.68 133.764 480.392 130.35 494.019C126.936 507.647 115.888 548.498 114.66 567.29C113.435 586.082 114.19 590.698 114.19 590.698C114.19 590.698 156.436 590.776 192.201 583.441C227.965 576.106 250.099 563.432 264.769 561.266C279.442 559.1 289.355 560.631 293.552 554.839C297.748 549.045 295.945 523.255 296.528 503.628C297.111 484.001 299.189 439.552 306.235 413.422C314.934 381.168 328.195 368.946 347.419 355.605C366.644 342.266 408.303 327.58 422.411 320.9C436.52 314.219 449.861 302.306 457.842 300.328C465.82 298.35 484.551 296.746 490.925 290.178C497.299 283.613 501.012 263.714 507.041 250.86C513.07 238.006 523.352 226.359 529.891 213.297C536.995 199.126 550.754 163.404 556.831 155.646Z" fill="#FFFDFA"/>
<path d="M559.743 144.997C559.392 145.096 559.078 145.328 558.956 145.792C558.309 148.257 557.243 150.497 555.948 152.61C555.45 152.177 554.219 151.908 553.082 151.891C547.788 151.807 542.79 152.944 537.881 154.954C532.854 157.013 528.043 159.648 523.645 162.841C519.163 166.09 515.317 169.961 511.447 173.893C509.543 175.829 507.508 177.699 505.819 179.83C504.584 181.387 503.327 183.245 503.114 185.279C497.201 190.253 494.075 198.046 490.368 204.615C489.842 205.546 489.265 206.444 488.718 207.362C489.183 203.465 489.458 199.546 489.764 195.636C489.992 192.722 490.259 189.775 490.894 186.919C491.509 184.152 492.568 181.524 493.676 178.926C495.669 174.246 497.163 169.557 498.033 164.553C498.049 164.539 498.065 164.535 498.078 164.519C500.531 161.868 501.562 157.748 502.355 154.326C503.246 150.49 503.819 146.585 504.977 142.813C506.295 138.526 508.228 134.431 509.246 130.052C510.146 126.179 510.569 121.539 508.759 117.861C508.592 117.524 508.174 116.89 507.915 116.76C507.162 116.386 506.351 116.657 505.764 117.59C504.603 119.43 503.469 121.29 502.344 123.154C502.326 123.152 502.31 123.146 502.292 123.144C497.07 122.463 491.457 124.439 486.968 126.962C484.882 128.134 482.906 129.515 481.078 131.073C481.029 131.047 480.999 130.998 480.946 130.983C478.934 130.404 476.157 131.146 474.149 131.583C471.921 132.069 469.735 132.739 467.626 133.604C463.444 135.316 459.607 137.681 456.193 140.644C453.107 143.322 450.434 146.483 448.252 149.935C446.99 151.933 445.787 154.087 444.909 156.341C441.509 158.084 438.492 161.066 436.064 163.91C433.479 166.942 431.366 170.321 429.707 173.942C426.436 181.074 424.753 188.75 422.327 196.178C421.479 198.773 420.506 201.316 419.363 203.779C419.349 203.788 419.332 203.79 419.318 203.801C418.063 204.752 416.945 205.909 415.898 207.127C418.673 200.982 420.294 194.305 421.691 187.734C423.646 178.535 424.816 169.196 426.511 159.948C426.82 158.261 427.172 156.581 427.522 154.901C428.518 154.218 429.311 153.144 429.821 152.134C430.635 150.522 431.112 148.748 431.663 147.037C432.268 145.161 432.89 143.291 433.5 141.416C434.899 137.117 435.445 132.594 434.921 128.086C434.833 127.337 434.185 127.021 433.828 127.929C433.282 129.311 432.649 130.401 432.457 131.871C431.163 129.578 426.01 131.387 423.555 132.36C419.65 133.909 416.075 136.233 413.117 139.222C409.865 142.503 407.448 146.541 406.02 150.929C405.466 152.631 405.013 154.478 404.745 156.361C404.598 156.418 404.456 156.503 404.333 156.659C400.751 161.228 398.221 166.751 396.212 172.173C395.2 174.901 394.355 177.691 393.675 180.519C392.998 183.34 392.739 186.267 391.986 189.061C391.183 192.036 389.048 193.514 386.466 194.913C383.798 196.359 381.173 197.855 378.631 199.511C373.613 202.78 368.864 206.483 364.467 210.549C361.967 212.861 359.582 215.297 357.313 217.835C355.047 220.37 352.684 223.007 350.878 225.896C350.054 227.212 352.039 228.795 353.075 227.572C355.054 225.235 356.816 222.724 358.823 220.404C360.828 218.085 362.941 215.862 365.148 213.736C369.539 209.505 374.299 205.669 379.375 202.288C381.855 200.636 384.405 199.094 387.007 197.641C388.662 196.715 390.359 195.76 391.738 194.46C391.735 194.951 391.744 195.446 391.8 195.938C391.927 197.073 392.179 198.163 392.604 199.226C392.834 199.799 393.083 200.37 393.396 200.902C393.703 201.425 394.198 201.809 394.643 202.214C395.379 202.884 396.402 202.041 395.982 201.174C395.751 200.697 395.648 200.195 395.393 199.729C395.166 199.315 394.945 198.894 394.764 198.457C394.364 197.486 394.09 196.427 393.937 195.388C393.846 194.774 393.831 194.148 393.846 193.524C394.372 194.456 394.953 195.357 395.591 196.215C396.256 197.105 396.978 197.945 397.761 198.735C398.504 199.486 399.455 200.566 400.534 200.752C401.146 200.856 402.004 200.328 401.701 199.592C401.468 199.029 401.168 198.699 400.742 198.276C400.363 197.898 399.96 197.545 399.579 197.17C398.84 196.44 398.151 195.662 397.486 194.862C396.865 194.115 396.299 193.324 395.776 192.504C395.292 191.745 394.877 190.886 394.337 190.155C394.853 188.434 395.063 186.6 395.383 184.855C395.909 181.993 396.611 179.164 397.48 176.388C398.487 173.156 399.723 170.004 401.176 166.946C402.197 164.797 403.364 162.736 404.533 160.677C404.597 162.122 404.803 163.542 405.237 164.878C405.619 166.053 407.405 165.893 407.43 164.598C407.5 160.744 407.319 157.038 408.318 153.27C409.306 149.541 411.069 145.994 413.549 143.03C416.059 140.031 419.175 137.606 422.689 135.889C424.308 135.098 426.003 134.476 427.748 134.026C428.34 133.872 429.733 133.31 430.324 133.671C430.76 133.938 430.878 134.561 430.628 135.116C429.469 137.664 427.496 139.845 426.339 142.281C425.531 143.98 424.817 145.722 424.164 147.485C423.56 149.117 422.585 151.055 422.743 152.831C422.866 154.209 423.836 155.313 425.106 155.539C424.727 157.416 424.368 159.301 424.049 161.204C422.68 169.353 421.612 177.551 419.987 185.655C418.131 194.924 415.129 203.806 411.335 212.449C411.234 212.68 411.243 212.897 411.317 213.081C410.204 214.625 409.122 216.191 408.108 217.801C404.902 222.895 402.154 228.326 400.066 233.972C392.789 233.947 385.509 234.147 378.256 233.466C375.645 233.221 373.05 232.845 370.485 232.284C367.938 231.728 365.293 230.547 362.69 230.414C361.761 230.368 361.125 231.713 361.89 232.337C363.547 233.688 365.885 234.29 367.92 234.823C370.166 235.41 372.449 235.837 374.747 236.162C379.345 236.813 383.975 237.03 388.617 237.054C398.137 237.1 407.675 236.413 417.166 237.474C421.6 237.97 426.232 238.866 430.081 241.212C428.224 242.104 426.393 243.042 424.606 244.055C421.978 245.545 419.41 247.144 416.882 248.799C415.696 249.574 414.532 250.383 413.375 251.203C412.023 252.164 411.183 252.935 410.167 254.241C409.977 254.487 410.141 254.925 410.5 254.814C411.593 254.482 412.508 254.232 413.48 253.605C414.588 252.889 415.706 252.193 416.819 251.484C418.97 250.113 421.122 248.748 423.328 247.46C427.763 244.874 432.351 242.5 437.171 240.716C446.642 237.208 456.371 236.622 466.302 238.218C471.61 239.073 476.814 240.783 482.165 241.163C482.905 241.216 483.265 240.034 482.555 239.725C481.473 239.254 480.504 238.723 479.358 238.432C478.137 238.121 476.909 237.838 475.682 237.56C474.655 237.329 473.617 237.149 472.588 236.935C472.794 236.897 472.998 236.849 473.203 236.814C474.507 236.6 475.822 236.457 477.126 236.223C478.423 235.992 479.72 235.762 481.018 235.533C481.69 235.414 482.364 235.302 483.023 235.131C483.662 234.964 484.309 234.914 484.781 234.409C485.143 234.021 485.103 233.33 484.602 233.068C483.974 232.739 483.416 232.886 482.742 232.946C482.054 233.005 481.392 233.133 480.714 233.268C479.38 233.534 478.049 233.844 476.729 234.173C475.398 234.505 474.123 234.955 472.818 235.369C472.169 235.575 471.509 235.759 470.859 235.96C470.47 236.079 470.047 236.156 469.701 236.352C469.227 236.265 468.758 236.147 468.28 236.065C467.212 235.881 466.14 235.721 465.063 235.571C472.326 233.726 478.21 227.893 482.535 221.973C488.108 214.347 492.634 206.192 497.184 197.944C499.59 193.582 502.342 189.674 505.769 186.055C505.909 185.907 505.979 185.738 506.021 185.561C506.362 185.384 506.699 185.2 507.045 185.041C507.692 184.744 508.332 184.447 509.002 184.211C509.706 183.963 510.425 183.778 511.148 183.604C511.876 183.426 512.791 183.393 513.349 182.859C513.731 182.493 513.623 181.833 513.178 181.576C512.449 181.155 511.402 181.444 510.617 181.612C509.865 181.774 509.124 182.02 508.407 182.293C507.779 182.532 507.151 182.799 506.55 183.11C507.096 182.216 507.682 181.342 508.449 180.494C510.101 178.666 511.872 176.943 513.597 175.183C517.238 171.473 520.863 167.801 525.088 164.743C529.247 161.733 533.756 159.213 538.536 157.336C543.084 155.549 548.426 153.443 553.32 154.562C553.503 154.604 554.046 154.921 554.288 155.127C550.886 159.773 546.478 163.84 542.914 168.244C539.982 171.865 537.08 175.607 534.608 179.563C533.138 181.917 531.742 186.36 534.326 188.418C534.337 188.466 534.329 188.508 534.344 188.558C534.737 189.792 535.655 190.602 536.769 190.983C535.937 193.794 535.301 196.667 534.384 199.456C533.666 201.645 532.828 203.772 531.93 205.869C531.43 205.427 530.836 205.077 530.233 204.748C529.254 204.216 528.235 203.75 527.185 203.369C525.135 202.626 523.022 202.318 520.792 202.258C519.657 202.228 519.354 204.057 520.515 204.273C522.45 204.633 524.28 205.243 526.066 205.934C526.816 206.225 527.656 206.596 528.461 207.01C528.893 207.232 529.31 207.477 529.733 207.713C530.156 207.95 530.466 208.088 530.771 208.388C530.276 209.454 529.741 210.498 529.209 211.546C528.655 211.021 527.966 210.555 527.296 210.186C526.668 209.837 526.018 209.524 525.36 209.235C525.145 209.142 524.95 209.054 524.712 209.051C524.7 209.052 524.575 209.063 524.544 209.074C524.4 209.054 524.247 208.996 524.112 208.961C523.721 208.859 523.328 208.79 522.921 208.798C522.309 208.809 522.044 209.52 522.439 209.958C522.793 210.351 523.247 210.638 523.691 210.925C523.742 210.998 523.788 211.079 523.845 211.135C524.003 211.29 524.18 211.365 524.37 211.459C524.615 211.581 524.858 211.708 525.099 211.835C525.582 212.093 526.049 212.376 526.518 212.657C526.752 212.796 526.983 212.941 527.211 213.094C527.316 213.164 527.419 213.237 527.521 213.311C527.57 213.347 527.911 213.566 527.655 213.408C527.81 213.502 527.926 213.648 528.051 213.784C522.797 223.641 516.263 232.846 510.7 242.54C508.3 246.723 506.362 251.103 504.889 255.695C503.704 259.395 501.352 267.327 501.194 267.675C498.116 274.388 496.349 281.888 491.316 287.534C485.403 294.17 476.617 295.365 468.292 296.646C467.689 296.738 467.09 296.847 466.489 296.946C467.677 295.959 468.748 294.83 469.672 293.72C471.06 292.056 472.284 290.268 473.506 288.478C474.125 287.572 474.746 286.666 475.399 285.787C476.057 284.905 476.921 284.105 477.286 283.054C477.591 282.179 476.554 281.618 475.852 281.954C474.954 282.386 474.362 283.313 473.766 284.081C473.182 284.835 472.618 285.605 472.066 286.383C470.862 288.084 469.719 289.835 468.454 291.491C467.284 293.023 465.969 294.444 464.485 295.677C463.538 296.462 462.497 297.088 461.414 297.639C462.048 297.038 462.669 296.426 463.252 295.771C464.658 294.185 466.034 292.472 467.159 290.674C468.29 288.867 469.58 286.918 470.122 284.836C470.303 284.14 469.449 283.672 468.94 284.153C467.474 285.538 466.488 287.397 465.3 289.008C464.051 290.704 462.877 292.432 461.479 294.015C460.201 295.465 458.813 296.854 457.298 298.055C456.553 298.646 455.766 299.182 454.998 299.742C454.878 299.829 454.76 299.912 454.642 299.995C451.208 301.383 447.946 303.156 444.82 305.143C437.466 309.817 430.698 315.338 422.843 319.2C414.599 323.253 405.762 325.877 397.2 329.148C388.529 332.462 380.106 336.4 371.929 340.787C364.056 345.011 356.358 349.607 348.919 354.562C341.787 359.311 334.896 364.511 328.808 370.559C322.211 377.112 316.887 384.757 312.511 392.941C311.336 395.142 307.078 404.168 306.498 405.495C304.603 409.834 302.722 414.232 301.31 418.749C300.989 419.775 302.564 420.454 303.062 419.481C303.744 418.149 304.371 416.786 305.002 415.428C303.811 421.063 302.751 426.726 301.761 432.375C299.881 443.128 298.329 453.947 297.196 464.805C294.919 486.611 294.002 508.565 294.421 530.486C294.518 535.637 295.043 540.876 294.755 546.02C294.498 550.618 292.496 554.402 288.162 556.292C284.115 558.056 279.435 558.14 275.098 558.345C269.66 558.603 264.313 559.236 259.007 560.492C247.782 563.151 237.17 567.776 226.364 571.716C215.476 575.687 204.286 578.742 192.932 581.058C170.071 585.721 146.739 587.502 123.496 589.016C120.837 589.189 118.182 589.393 115.525 589.593C115.237 562.829 121.279 536.638 127.817 510.839C134.766 483.426 141.505 455.931 149.145 428.702C152.967 415.075 157.259 401.579 162.078 388.272C162.292 392.69 161.993 397.059 161.763 401.475C161.684 403.001 163.875 403.182 164.317 401.828C166.822 394.179 165.422 385.345 164.357 377.555C163.233 369.348 161.69 361.106 162.08 352.789C162.836 336.666 171.117 322.052 181.184 309.873C184.306 306.097 187.622 302.488 191.026 298.967C192.031 297.927 193.046 296.902 194.06 295.872C193.278 297.529 192.595 299.243 192.035 300.986C191.401 302.965 190.91 304.99 190.571 307.041C190.238 309.06 189.952 311.283 190.238 313.316C190.328 313.955 191.375 313.93 191.495 313.319C191.876 311.354 191.95 309.323 192.28 307.338C192.614 305.341 193.088 303.37 193.701 301.441C194.308 299.525 195.067 297.673 195.924 295.855C196.125 295.429 196.347 295.01 196.576 294.595C198.22 292.884 199.455 290.576 200.857 288.753C202.729 286.319 204.714 283.97 206.795 281.714C210.988 277.168 215.604 272.979 220.497 269.199C221.878 268.132 220.539 265.736 219.093 266.808C213.98 270.603 209.269 274.849 204.969 279.547C202.835 281.876 200.815 284.303 198.898 286.816C198.386 287.487 197.9 288.179 197.403 288.863C194.692 291.094 192.26 293.804 189.845 296.268C186.733 299.443 183.687 302.684 180.785 306.051C175.31 312.407 170.312 319.234 166.483 326.717C162.92 333.679 160.304 341.125 159.288 348.899C158.209 357.14 159.231 365.428 160.401 373.598C160.844 376.692 161.291 379.787 161.634 382.894C161.501 383.015 161.383 383.163 161.302 383.354C150.555 409.25 143.389 436.477 136.446 463.586C132.845 477.638 129.266 491.697 125.682 505.754C122.325 518.923 119.014 532.117 116.508 545.479C113.724 560.327 111.916 575.418 112.233 590.547C112.25 591.384 112.777 591.88 113.404 592.06C113.623 592.528 114.058 592.876 114.759 592.844C138.338 591.742 162.018 590.124 185.301 586.084C196.905 584.07 208.411 581.401 219.624 577.778C230.793 574.168 241.533 569.34 252.754 565.885C258.321 564.172 264.039 562.78 269.843 562.188C274.592 561.703 279.39 561.793 284.104 560.956C288.299 560.211 292.516 558.574 295.181 555.098C298.098 551.293 298.287 546.449 298.132 541.848C297.384 519.604 297.73 497.386 299.599 475.199C301.473 452.947 304.479 430.733 308.886 408.839C309.132 407.616 309.359 406.388 309.595 405.163C310.874 402.265 312.178 399.379 313.64 396.565C317.553 389.037 322.156 381.868 327.926 375.618C339.79 362.764 355.176 353.326 370.368 344.92C378.427 340.459 386.72 336.395 395.275 332.98C403.864 329.551 412.758 326.91 421.213 323.138C429.167 319.591 436.041 314.514 443.211 309.658C446.735 307.272 450.359 305.005 454.248 303.257C458.274 301.449 462.556 300.489 466.894 299.78C475.961 298.293 485.602 297.374 492.464 290.553C497.748 285.299 501.962 273.19 503.235 269.853C504.836 265.657 505.625 261.113 507.017 256.838C508.476 252.36 510.395 248.119 512.728 244.028C516.992 236.551 521.947 229.492 526.268 222.049C530.504 214.752 534.447 207.199 536.989 199.125C537.83 196.45 538.478 193.731 539.298 191.066C541.357 190.502 542.715 188.762 543.856 187.031C546.893 182.431 549.957 177.843 552.911 173.187C555.645 168.882 558.202 164.433 559.84 159.582C561.145 155.717 562.179 150.61 561.256 146.446C560.991 145.229 560.292 144.843 559.743 144.997ZM427.664 237.588C425.74 236.809 423.7 236.27 421.687 235.842C416.941 234.834 412.15 234.301 407.305 234.105C405.817 234.046 404.328 234.014 402.841 233.994C404.943 228.827 407.394 223.835 410.363 219.103C411.882 216.679 413.513 214.322 415.262 212.056C415.814 211.342 416.358 210.606 416.991 209.946C418.904 207.954 420.377 206.422 421.146 205.49C421.311 206.462 421.717 207.481 422.019 208.259C422.58 209.711 423.249 211.123 424.042 212.464C424.811 213.764 425.685 215.005 426.683 216.138C427.167 216.688 427.676 217.218 428.206 217.726C428.813 218.307 429.464 218.67 430.172 219.108C430.841 219.519 431.435 218.612 430.964 218.068C430.472 217.501 430.071 216.912 429.548 216.367C429.039 215.836 428.552 215.285 428.089 214.715C427.22 213.641 426.407 212.517 425.691 211.335C425.121 210.392 424.625 209.405 424.18 208.397C424.714 209.14 425.278 209.865 425.888 210.544C426.852 211.615 427.92 212.559 429.072 213.423C430.218 214.282 431.475 215.235 432.925 215.416C433.747 215.518 434.018 214.414 433.552 213.906C432.685 212.959 431.384 212.404 430.355 211.641C429.3 210.858 428.309 209.961 427.397 209.017C426.501 208.09 425.687 207.092 424.971 206.018C424.238 204.92 423.68 203.7 422.941 202.613C426.81 195.565 426.488 190.715 429.206 182.281C430.734 177.544 432.609 172.903 435.395 168.757C436.922 166.482 438.713 164.389 440.695 162.497C441.698 161.539 442.772 160.675 443.853 159.824C443.758 160.293 443.68 160.766 443.625 161.241C443.503 162.318 445.196 162.738 445.654 161.793C447.32 158.363 448.536 154.8 450.574 151.544C452.616 148.278 455.134 145.327 458.031 142.788C461.184 140.023 464.834 137.794 468.682 136.13C470.663 135.275 472.717 134.571 474.804 134.034C475.905 133.752 477.023 133.514 478.138 133.294C478.37 133.249 478.603 133.211 478.838 133.175C477.866 134.152 476.936 135.167 476.083 136.245C471.502 142.026 468.677 149.15 468.049 156.465C466.737 157.887 465.729 159.637 464.705 161.265C463.624 162.983 462.6 164.727 461.632 166.51C459.686 170.099 457.943 173.791 456.386 177.561C453.228 185.2 450.885 193.186 449.411 201.318C448.726 205.101 448.281 208.918 447.995 212.749C447.187 213.298 446.551 214.064 445.868 214.796C444.886 215.847 443.922 216.915 442.976 217.998C440.975 220.295 439.015 222.627 437.099 224.996C435.28 227.247 433.504 229.532 431.769 231.848C430.908 232.999 430.054 234.157 429.211 235.323C428.686 236.044 428.06 236.776 427.664 237.588ZM483.516 211.466C482.403 211.715 481.272 211.905 480.136 212.002C477.848 212.199 475.555 211.967 473.274 212.098C472.583 212.138 472.143 213.172 472.886 213.519C475.15 214.579 477.782 214.664 480.238 214.432C481.473 214.315 482.695 214.126 483.896 213.821C484.193 213.746 484.502 213.669 484.814 213.583C484.145 214.604 483.486 215.629 482.804 216.639C482.776 216.681 482.747 216.721 482.719 216.763C482.289 216.802 481.853 216.912 481.446 216.981C480.839 217.087 480.231 217.198 479.623 217.288C479.078 217.369 478.43 217.457 477.806 217.548C477.484 217.595 477.178 217.694 476.854 217.741C476.723 217.759 476.569 217.764 476.441 217.798C476.243 217.849 476.123 217.982 475.942 218.05C475.327 218.281 475.354 219.025 475.939 219.269C476.025 219.305 476.11 219.339 476.194 219.376L475.871 219.189C476.216 219.466 476.516 219.548 476.95 219.597C477.279 219.631 477.612 219.707 477.941 219.722C478.684 219.757 479.423 219.667 480.158 219.562C480.416 219.524 480.664 219.448 480.917 219.398C478.956 222.205 476.877 224.931 474.363 227.271C470.271 231.083 465.419 232.873 460.128 234.35C459.77 234.449 459.568 234.714 459.497 235.009C457.52 234.882 455.538 234.817 453.556 234.89C446.125 235.17 438.971 237.21 432.221 240.205C431.425 239.569 430.574 239.022 429.681 238.545C429.999 238.162 430.286 237.735 430.603 237.301C431.522 236.043 432.455 234.793 433.398 233.553C435.211 231.17 437.068 228.821 438.962 226.501C440.783 224.273 442.641 222.076 444.536 219.914C445.541 218.768 446.547 217.625 447.553 216.481C447.713 216.298 447.884 216.117 448.051 215.934C448.086 215.974 448.144 215.978 448.185 216.012C448.26 216.585 448.375 217.152 448.566 217.699C448.955 218.819 449.546 219.84 450.33 220.727C450.997 221.482 451.824 222.102 452.726 222.55C453.215 222.793 453.729 223.002 454.256 223.149C454.503 223.218 454.765 223.293 455.022 223.316C455.48 223.355 455.66 223.117 456.041 222.959C456.391 222.811 456.442 222.224 456.162 221.993C455.932 221.806 455.836 221.542 455.541 221.412C455.325 221.317 455.086 221.277 454.863 221.207C454.507 221.093 454.162 220.954 453.83 220.787C453.086 220.41 452.405 219.918 451.818 219.327C451.198 218.703 450.696 217.948 450.364 217.132C450.263 216.885 450.21 216.621 450.138 216.365C450.581 216.684 451.051 216.969 451.49 217.229C452.493 217.821 453.561 218.316 454.658 218.706C455.733 219.088 456.861 219.312 457.988 219.466C458.568 219.544 459.101 219.532 459.685 219.513C460.287 219.492 460.913 219.485 461.482 219.266C462.053 219.046 462.153 218.195 461.486 218.012C460.951 217.864 460.406 217.86 459.86 217.797C459.36 217.742 458.87 217.622 458.371 217.551C457.34 217.404 456.334 217.134 455.347 216.811C454.394 216.497 453.479 216.117 452.596 215.64C451.792 215.205 451.044 214.608 450.24 214.171C450.999 204.243 452.904 194.457 456.177 185.042C457.847 180.24 459.839 175.558 462.143 171.026C463.318 168.715 464.582 166.446 465.89 164.207C466.524 163.121 467.242 162.06 467.939 160.987C468.034 163.325 468.351 165.658 468.931 167.949C469.29 169.374 471.407 168.783 471.12 167.363C469.217 157.966 470.71 148.194 476.118 140.179C481.348 132.429 490.692 125.838 500.288 125.623C500.474 125.62 500.671 125.621 500.866 125.623C497.456 131.365 494.16 137.181 490.831 142.96C488.684 146.687 486.802 150.782 486.276 155.091C485.82 158.83 486.986 163.163 490.547 165.042C492.279 165.957 494.261 166.049 496.065 165.285C495.033 169.739 493.607 173.925 491.864 178.171C491.776 178.386 491.7 178.606 491.612 178.821C490.934 178.87 490.186 179.147 489.602 179.257C488.683 179.427 487.74 179.473 486.804 179.428C485.894 179.384 484.993 179.229 484.096 179.075C483.142 178.915 482.23 178.591 481.264 178.524C480.753 178.489 480.604 179.117 480.881 179.447C481.564 180.258 482.583 180.67 483.559 181.033C484.583 181.417 485.698 181.546 486.788 181.579C487.855 181.611 488.931 181.512 489.978 181.313C490.198 181.271 490.451 181.22 490.708 181.161C490.316 182.217 489.967 183.283 489.648 184.363C489.089 184.343 488.605 184.615 488.076 184.789C487.526 184.968 486.964 185.094 486.395 185.195C485.36 185.376 484.212 185.455 483.043 185.318C482.852 185.295 482.65 185.396 482.479 185.53C482.335 185.581 482.191 185.63 482.048 185.692C481.748 185.822 481.788 186.22 481.956 186.424C482.055 186.545 482.168 186.635 482.278 186.736C482.39 186.933 482.547 187.095 482.789 187.143C484.14 187.417 485.519 187.493 486.88 187.253C487.51 187.141 488.128 186.951 488.723 186.718C488.844 186.671 488.962 186.615 489.081 186.563C488.51 189.192 488.169 191.861 487.889 194.536C487.326 199.933 486.621 205.324 486.452 210.748C485.468 210.852 484.477 211.25 483.516 211.466Z" fill="#F1EAD6"/>
<path d="M406.159 257.343C404.826 258.048 403.506 258.679 402.274 259.558C401.024 260.45 399.784 261.363 398.597 262.336C397.436 263.287 396.357 264.31 395.269 265.342C394.206 266.354 393.01 267.43 392.248 268.693C391.905 269.26 392.592 269.922 393.154 269.592C394.391 268.864 395.471 267.767 396.556 266.827C397.688 265.844 398.865 264.916 400.018 263.954C401.165 262.997 402.304 262.032 403.474 261.103C404.639 260.178 405.67 259.131 406.791 258.159C407.252 257.757 406.659 257.079 406.159 257.343Z" fill="#F1EAD6"/>
<path d="M399.737 249.199C398.407 248.509 397.018 247.918 395.609 247.41C394.265 246.925 392.894 246.539 391.495 246.252C390.776 246.105 390.054 245.983 389.328 245.882C388.594 245.779 387.923 245.636 387.295 245.93C387.232 245.951 387.17 245.958 387.11 245.992C387.061 246.022 387.024 246.074 386.978 246.113C386.947 246.136 386.914 246.143 386.884 246.168C386.89 246.174 386.894 246.18 386.901 246.185C386.573 246.532 386.411 247.112 386.717 247.51C387.045 247.934 387.322 248.163 387.876 248.236C388.192 248.277 388.508 248.315 388.822 248.366C389.491 248.473 390.155 248.6 390.814 248.746C392.168 249.048 393.512 249.431 394.822 249.885C396.068 250.317 397.275 250.833 398.456 251.418C399.702 252.037 401.013 252.869 402.413 253.029C403.032 253.099 403.356 252.325 403.092 251.852C402.403 250.633 400.944 249.825 399.737 249.199Z" fill="#F1EAD6"/>
<path d="M246.777 308.429C242.418 310.279 238.735 313.798 235.202 316.872C231.588 320.015 228.087 323.284 224.843 326.807C218.681 333.497 212.946 340.65 208.558 348.645C207.383 350.784 206.298 352.975 205.344 355.22C204.432 357.365 203.138 359.878 203.088 362.237C203.068 363.282 204.416 363.534 204.944 362.742C206.035 361.108 206.512 358.927 207.245 357.106C208.084 355.017 209.021 352.964 210.038 350.956C211.946 347.195 214.15 343.589 216.58 340.144C221.829 332.703 228.38 326.283 235.213 320.306C239.248 316.778 243.356 313.218 248.02 310.54C249.426 309.735 248.185 307.83 246.777 308.429Z" fill="#F1EAD6"/>
<path d="M224.237 323.717C221.297 324.846 218.636 327.337 216.204 329.296C213.602 331.389 211.105 333.609 208.717 335.943C204.049 340.502 199.065 345.594 196.04 351.402C195.613 352.226 196.693 353.15 197.373 352.419C198.5 351.211 199.507 350.055 200.521 348.742C201.516 347.456 202.542 346.194 203.595 344.954C205.704 342.476 207.923 340.094 210.246 337.818C212.507 335.602 214.867 333.482 217.308 331.467C218.617 330.388 219.949 329.341 221.307 328.33C222.59 327.375 224.079 326.489 225.162 325.313C225.754 324.674 225.181 323.355 224.237 323.717Z" fill="#F1EAD6"/>
<path d="M200.313 391.349C199.802 390.075 197.841 390.509 198.196 391.916C199.289 396.234 199.193 400.721 199.256 405.143C199.315 409.396 199.371 413.649 199.413 417.904C199.501 426.325 199.589 434.748 199.536 443.169C199.432 459.972 198.875 476.791 197.202 493.519C196.734 498.194 196.205 502.863 195.567 507.519C194.919 512.247 194.066 516.966 193.644 521.72C193.572 522.527 194.794 522.643 195.012 521.91C197.403 513.829 198.292 505.184 199.283 496.836C200.294 488.318 200.953 479.752 201.421 471.187C202.345 454.196 202.454 437.156 202.217 420.147C202.15 415.337 202.065 410.527 201.975 405.719C201.886 400.91 202.14 395.886 200.313 391.349Z" fill="#F1EAD6"/>
<path d="M224.147 402.233C222.023 406.257 220.846 410.954 219.495 415.28C218.088 419.788 216.773 424.325 215.59 428.896C213.245 437.951 211.321 447.113 209.811 456.343C209.4 458.861 209.017 461.384 208.672 463.911C208.307 466.591 207.822 469.311 207.852 472.021C207.863 473.074 209.455 473.346 209.713 472.278C210.79 467.816 211.055 463.102 211.775 458.567C212.502 453.992 213.329 449.435 214.26 444.9C216.121 435.829 218.385 426.832 221.02 417.958C221.743 415.522 222.498 413.094 223.281 410.676C224.114 408.107 225.141 405.527 225.676 402.875C225.856 401.985 224.614 401.348 224.147 402.233Z" fill="#F1EAD6"/>
<path d="M194.908 531.818C194.762 531.658 194.46 531.616 194.279 531.74C193.204 532.467 193.316 533.832 193.143 535.031C192.939 536.447 192.793 537.87 192.645 539.293C192.308 542.52 192.009 545.751 191.754 548.985C191.503 552.122 191.319 555.266 191.164 558.409C191.011 561.521 190.818 564.652 191.301 567.74C191.405 568.402 192.459 568.365 192.592 567.744C193.233 564.778 193.284 561.734 193.441 558.71C193.606 555.567 193.82 552.425 194.044 549.285C194.26 546.241 194.514 543.199 194.8 540.161C194.951 538.547 195.14 536.936 195.264 535.322C195.357 534.125 195.784 532.772 194.908 531.818Z" fill="#F1EAD6"/>
<path d="M234.775 401.693C234.454 401.375 234.024 401.444 233.699 401.698C232.653 402.518 231.635 403.46 230.867 404.545C230.112 405.613 229.368 406.825 229.019 408.095C228.755 409.057 230.137 409.649 230.635 408.77C230.941 408.23 231.193 407.663 231.497 407.118C231.803 406.576 232.137 406.051 232.501 405.544C232.539 405.492 232.577 405.44 232.615 405.391C232.64 405.357 232.642 405.352 232.653 405.339C232.656 405.333 232.653 405.339 232.668 405.32C232.796 405.155 232.933 404.995 233.039 404.814C233.078 404.747 233.115 404.676 233.154 404.609L233.207 404.531C233.174 404.574 233.176 404.571 233.214 404.521C233.302 404.407 233.392 404.294 233.483 404.183C233.887 403.689 234.32 403.218 234.78 402.775C235.076 402.484 235.063 401.978 234.775 401.693Z" fill="#F1EAD6"/>
<path d="M298.378 516.01C297.823 515.592 288.94 515.067 284.893 515.738C278.699 516.765 272.538 518.094 266.402 519.42C253.913 522.122 241.506 525.183 229.12 528.324C204.271 534.628 179.505 541.348 154.299 546.125C141.007 548.642 127.448 551.448 113.906 549.466C113.097 549.348 112.247 550.726 112.169 550.912C110.131 555.892 108.391 561.013 106.6 566.087C105.017 570.571 103.559 575.117 102.946 579.85C102.334 584.593 102.803 589.293 104.616 593.735C106.344 597.97 108.725 602.272 111.517 605.909C113.775 608.852 116.9 611.271 120.806 610.902C125.688 610.44 128.86 606.459 132.018 603.178C135.515 599.543 139.949 597.136 143.871 594.025C144.978 593.147 146 592.174 146.98 591.163C151.512 600.158 160.404 606.948 170.98 605.855C178.413 605.084 183.663 599.916 188.529 594.703C191.09 591.958 193.524 588.999 195.14 585.585C195.248 585.354 195.332 585.117 195.435 584.886C199.966 588.593 206.015 591.093 210.929 592.903C213.461 593.837 216.183 594.602 218.91 594.391C221.713 594.174 224.152 592.939 226.309 591.189C228.466 589.442 230.29 587.282 232.097 585.19C233.976 583.015 235.785 580.75 237.28 578.292C237.435 578.036 237.571 577.761 237.719 577.497C242.773 581.401 249.083 585.37 255.516 582.881C262.725 580.092 265.971 572.325 267.375 565.252C267.441 564.92 267.482 564.584 267.54 564.25C267.618 564.313 267.693 564.382 267.774 564.444C271.267 567.164 274.952 569.852 278.786 572.079C282.743 574.379 286.83 574.813 291.232 573.592C295.253 572.475 299.915 570.992 303.009 568.068C305.91 565.326 306.919 561.365 307.421 557.54C308.031 552.889 308.389 548.133 308.449 543.444C308.571 533.855 306.58 522.163 298.378 516.01Z" fill="#F1EAD6"/>
<path d="M172.157 592.095C171.926 591.738 171.618 591.459 171.233 591.257C170.736 590.971 170.199 590.825 169.627 590.818C169.028 590.818 168.47 590.968 167.952 591.267C167.829 591.322 167.705 591.375 167.582 591.43C167.364 591.599 167.146 591.768 166.928 591.938C166.62 592.229 166.403 592.571 166.275 592.964C166.136 593.208 166.064 593.472 166.06 593.751C165.965 594.17 165.982 594.591 166.112 595.012L166.442 595.802C166.611 596.02 166.781 596.239 166.95 596.457C167.239 596.763 167.583 596.981 167.977 597.11C168.348 597.303 168.747 597.393 169.175 597.382C169.309 597.368 169.442 597.352 169.576 597.338C170.175 597.338 170.733 597.188 171.251 596.89C171.744 596.597 172.135 596.202 172.423 595.706C172.532 595.451 172.638 595.193 172.744 594.936C172.897 594.368 172.898 593.802 172.747 593.232C172.655 592.796 172.455 592.416 172.157 592.095Z" fill="#FFFDFA"/>
<path d="M160.307 582.699C160.024 582.223 159.643 581.845 159.164 581.567C158.917 581.463 158.668 581.36 158.421 581.257C157.872 581.108 157.325 581.107 156.776 581.252C156.353 581.348 155.986 581.54 155.674 581.828C155.33 582.05 155.061 582.349 154.864 582.719C154.642 583.074 154.52 583.456 154.497 583.866C154.404 584.28 154.421 584.694 154.549 585.108C154.658 585.367 154.765 585.629 154.874 585.888C155.157 586.363 155.536 586.742 156.014 587.02C156.261 587.123 156.51 587.227 156.757 587.33C157.307 587.478 157.853 587.48 158.403 587.335C158.825 587.239 159.192 587.047 159.504 586.759C159.848 586.536 160.118 586.238 160.314 585.868C160.537 585.513 160.658 585.13 160.681 584.72C160.775 584.306 160.757 583.893 160.629 583.479C160.525 583.219 160.416 582.96 160.307 582.699Z" fill="#FFFDFA"/>
<path d="M182.237 577.676C181.833 577.277 181.356 577.004 180.81 576.85C180.244 576.696 179.678 576.695 179.11 576.845C178.543 576.999 178.053 577.283 177.64 577.699C177.625 577.718 177.608 577.735 177.593 577.753C177.201 578.154 176.93 578.623 176.781 579.16C176.63 579.718 176.629 580.276 176.777 580.835C176.929 581.393 177.208 581.877 177.618 582.284C178.018 582.676 178.487 582.947 179.025 583.096C179.047 583.105 179.07 583.111 179.092 583.12C179.658 583.273 180.224 583.274 180.792 583.125C181.359 582.97 181.849 582.686 182.262 582.27C182.659 581.866 182.934 581.389 183.085 580.841C183.239 580.275 183.24 579.709 183.09 579.141C182.937 578.579 182.653 578.089 182.237 577.676Z" fill="#FFFDFA"/>
<path d="M206.773 576.971C206.484 576.482 206.093 576.097 205.603 575.812C205.35 575.705 205.096 575.601 204.843 575.494C204.283 575.341 203.722 575.341 203.158 575.49C203.109 575.498 203.059 575.506 203.01 575.515C202.706 575.567 202.421 575.705 202.153 575.863C201.425 576.289 200.89 576.994 200.667 577.807C200.516 578.362 200.513 578.939 200.662 579.497C200.811 580.053 201.102 580.551 201.512 580.958C201.686 581.175 201.905 581.342 202.174 581.463C202.668 581.746 203.2 581.892 203.77 581.897C203.916 581.882 204.063 581.862 204.21 581.84C204.364 581.853 204.511 581.833 204.65 581.781C204.66 581.776 204.672 581.773 204.686 581.769C204.733 581.752 204.78 581.734 204.827 581.717C205.261 581.618 205.636 581.421 205.954 581.127C206.306 580.897 206.582 580.594 206.783 580.215C207.01 579.851 207.137 579.461 207.158 579.041C207.253 578.617 207.236 578.193 207.105 577.77C206.995 577.505 206.883 577.237 206.773 576.971Z" fill="#FFFDFA"/>
<path d="M219.922 583.805C219.634 583.316 219.242 582.931 218.752 582.646C218.5 582.539 218.245 582.435 217.993 582.328C217.43 582.176 216.871 582.175 216.308 582.324C215.874 582.423 215.498 582.619 215.181 582.914C214.829 583.143 214.553 583.446 214.352 583.825C214.124 584.189 213.997 584.58 213.977 584.999C213.881 585.421 213.899 585.847 214.029 586.27C214.14 586.536 214.251 586.801 214.361 587.067C214.65 587.556 215.041 587.941 215.531 588.226C215.784 588.333 216.038 588.437 216.291 588.544C216.851 588.697 217.412 588.697 217.976 588.548C218.409 588.449 218.785 588.253 219.103 587.958C219.455 587.729 219.73 587.426 219.932 587.047C220.159 586.683 220.286 586.292 220.307 585.873C220.402 585.449 220.385 585.025 220.254 584.602C220.146 584.336 220.035 584.07 219.922 583.805Z" fill="#FFFDFA"/>
<path d="M228.788 570.478C228.381 570.08 227.904 569.804 227.355 569.651C227.27 569.627 227.187 569.602 227.101 569.576C226.828 569.538 226.554 569.501 226.281 569.463C225.835 569.445 225.422 569.536 225.035 569.738C224.757 569.813 224.517 569.953 224.313 570.158C223.965 570.384 223.689 570.687 223.49 571.063C223.385 571.315 223.279 571.565 223.175 571.817C223.137 572.091 223.1 572.364 223.062 572.638C223.044 573.083 223.135 573.497 223.337 573.884C223.465 574.29 223.689 574.638 224.012 574.934C224.075 574.995 224.14 575.054 224.204 575.116C224.611 575.514 225.088 575.79 225.637 575.943C226.205 576.096 226.773 576.097 227.341 575.947C227.609 575.836 227.879 575.722 228.147 575.61C228.64 575.318 229.031 574.923 229.32 574.427C229.551 574.06 229.676 573.664 229.698 573.24C229.795 572.813 229.777 572.385 229.644 571.955C229.492 571.385 229.205 570.893 228.788 570.478Z" fill="#FFFDFA"/>
<path d="M256.324 574.035C256.12 573.658 255.843 573.359 255.489 573.133C255.181 572.856 254.82 572.667 254.41 572.571C254.394 572.565 254.378 572.559 254.362 572.554L254.351 572.55C254.229 572.511 254.356 572.551 253.977 572.497C253.448 572.425 253.529 572.405 252.838 572.546C252.824 572.55 252.812 572.551 252.798 572.554C252.787 572.557 252.773 572.559 252.761 572.562C252.754 572.564 252.747 572.566 252.743 572.567C252.6 572.595 252.467 572.651 252.342 572.733C252.064 572.808 251.821 572.949 251.62 573.153C251.378 573.297 251.186 573.491 251.044 573.733C250.849 573.933 250.712 574.167 250.639 574.435C250.445 574.807 250.355 575.206 250.366 575.633C250.403 575.917 250.439 576.2 250.477 576.485C250.587 576.749 250.697 577.012 250.807 577.276C250.976 577.494 251.145 577.712 251.316 577.929C251.533 578.095 251.749 578.259 251.966 578.425C252.327 578.651 252.715 578.776 253.132 578.797C253.411 578.872 253.689 578.874 253.967 578.8C254.26 578.8 254.534 578.727 254.789 578.579C255.067 578.505 255.308 578.364 255.512 578.159C255.862 577.932 256.135 577.63 256.335 577.254C256.44 577.002 256.545 576.752 256.65 576.5C256.687 576.227 256.725 575.953 256.762 575.68C256.726 575.397 256.689 575.113 256.653 574.83C256.544 574.562 256.434 574.298 256.324 574.035Z" fill="#FFFDFA"/>
<path d="M261.004 565.38C261.019 565.105 261.005 564.83 260.921 564.555C260.817 564.305 260.713 564.054 260.607 563.805C260.445 563.597 260.284 563.391 260.126 563.185L260.123 563.183C260.096 563.156 260.084 563.12 260.054 563.093C259.835 562.926 259.615 562.758 259.395 562.591C259.029 562.361 258.636 562.235 258.213 562.213C257.789 562.118 257.36 562.134 256.936 562.267C256.499 562.367 256.121 562.564 255.802 562.859C255.447 563.09 255.17 563.395 254.967 563.777C254.737 564.142 254.612 564.537 254.589 564.959C254.494 565.384 254.513 565.812 254.644 566.237C254.755 566.505 254.866 566.773 254.979 567.038C255.271 567.529 255.662 567.916 256.156 568.205C256.411 568.312 256.666 568.418 256.921 568.524C257.486 568.676 258.05 568.677 258.616 568.528L259.417 568.193C259.798 567.987 260.103 567.704 260.333 567.347C260.613 567.035 260.803 566.669 260.904 566.253C260.956 566.101 260.942 565.948 260.962 565.792C260.963 565.777 260.974 565.764 260.973 565.75C260.988 565.684 260.981 565.622 260.991 565.558C260.991 565.494 261.02 565.429 261.015 565.364L261.004 565.38Z" fill="#FFFDFA"/>
<path d="M244.818 566.836C244.505 566.531 244.138 566.319 243.717 566.2C243.675 566.182 243.631 566.164 243.588 566.149C243.47 566.104 243.389 566.104 243.241 566.087C243.05 566.008 242.861 565.928 242.67 565.848C242.394 565.809 242.12 565.772 241.845 565.735C241.397 565.717 240.981 565.809 240.592 566.011C240.312 566.086 240.069 566.228 239.865 566.433C239.621 566.577 239.429 566.771 239.288 567.016C239.09 567.216 238.954 567.452 238.879 567.723C238.738 567.968 238.666 568.233 238.663 568.515C238.567 568.937 238.587 569.36 238.717 569.783C238.828 570.049 238.938 570.315 239.048 570.578C239.22 570.798 239.39 571.016 239.559 571.236C239.779 571.402 239.996 571.57 240.213 571.736C240.465 571.841 240.72 571.947 240.972 572.052C241.248 572.089 241.522 572.128 241.798 572.165C242.245 572.183 242.662 572.091 243.05 571.889C243.331 571.814 243.573 571.672 243.777 571.468C244.064 571.28 244.288 571.03 244.474 570.744C244.571 570.674 244.666 570.597 244.743 570.505C244.774 570.464 244.805 570.424 244.836 570.384C245.141 570.071 245.353 569.704 245.471 569.283C245.589 568.848 245.589 568.409 245.475 567.972C245.359 567.533 245.14 567.156 244.818 566.836Z" fill="#FFFDFA"/>
<path d="M282.701 557.576C282.564 557.148 282.327 556.778 281.99 556.469C281.761 556.294 281.533 556.122 281.304 555.947C280.789 555.651 280.234 555.502 279.641 555.494C279.341 555.532 279.044 555.57 278.744 555.608C278.157 555.768 277.649 556.062 277.219 556.495C277.176 556.548 277.136 556.6 277.096 556.653C277.093 556.659 277.089 556.662 277.083 556.669C276.91 556.895 276.737 557.123 276.564 557.35C276.569 557.341 276.326 557.896 276.225 558.162C276.214 558.192 276.204 558.221 276.193 558.252C276.058 558.677 276.038 559.106 276.132 559.533C276.152 559.981 276.283 560.396 276.529 560.783C276.702 561.008 276.878 561.231 277.051 561.456C277.462 561.858 277.942 562.135 278.496 562.29C278.509 562.294 278.52 562.296 278.531 562.3C278.597 562.31 278.666 562.318 278.732 562.327C278.813 562.36 278.893 562.393 278.972 562.423C279.233 562.459 279.497 562.497 279.757 562.533L280.571 562.428L281.329 562.112C281.688 561.917 281.976 561.653 282.191 561.315C282.378 561.124 282.508 560.9 282.579 560.642C282.683 560.461 282.714 560.261 282.738 560.06C282.911 559.694 283.001 559.305 282.991 558.889C283.011 558.421 282.913 557.985 282.701 557.576Z" fill="#FFFDFA"/>
<path d="M293.853 564.702C293.558 564.208 293.162 563.814 292.663 563.524C292.406 563.416 292.148 563.308 291.89 563.2C291.319 563.045 290.747 563.043 290.175 563.197C289.735 563.297 289.352 563.496 289.029 563.797C288.671 564.031 288.389 564.34 288.184 564.725C287.954 565.094 287.826 565.493 287.803 565.92C287.706 566.349 287.724 566.781 287.857 567.213L288.194 568.023C288.488 568.521 288.886 568.914 289.385 569.204C289.643 569.312 289.9 569.42 290.158 569.526C290.729 569.681 291.3 569.682 291.872 569.529C292.313 569.428 292.695 569.228 293.019 568.929C293.377 568.695 293.658 568.386 293.863 568.001C294.094 567.632 294.221 567.233 294.244 566.806C294.341 566.376 294.324 565.945 294.191 565.513L293.853 564.702Z" fill="#FFFDFA"/>
<path d="M300.474 553.092C300.344 552.871 300.188 552.674 300.01 552.5C299.932 552.4 299.854 552.3 299.777 552.198C299.481 551.883 299.131 551.662 298.729 551.531C298.351 551.334 297.943 551.242 297.508 551.255C297.055 551.236 296.63 551.33 296.237 551.536C295.821 551.667 295.467 551.898 295.166 552.225C294.851 552.521 294.63 552.87 294.499 553.272C294.302 553.65 294.21 554.059 294.223 554.494C294.26 554.781 294.296 555.072 294.335 555.362C294.489 555.929 294.774 556.421 295.19 556.836C295.413 557.006 295.633 557.173 295.853 557.343C296.35 557.628 296.886 557.773 297.46 557.782C297.75 557.743 298.038 557.708 298.328 557.67C298.767 557.569 299.147 557.371 299.468 557.074C299.664 556.947 299.829 556.792 299.978 556.622C300.172 556.437 300.345 556.228 300.485 555.989C300.737 555.55 300.864 555.077 300.871 554.573C300.869 554.04 300.737 553.548 300.474 553.092Z" fill="#FFFDFA"/>
<path d="M121.205 598.998C121.029 598.774 120.855 598.547 120.679 598.324C120.456 598.152 120.231 597.983 120.009 597.814C119.748 597.706 119.49 597.596 119.23 597.488C118.802 597.354 118.373 597.334 117.943 597.429C117.641 597.429 117.358 597.505 117.096 597.656C116.809 597.733 116.56 597.879 116.35 598.09C116.1 598.238 115.904 598.436 115.757 598.687C115.556 598.891 115.417 599.135 115.338 599.412C115.194 599.665 115.122 599.936 115.118 600.225C115.04 600.512 115.041 600.8 115.115 601.087C115.115 601.39 115.191 601.673 115.342 601.935C115.474 602.355 115.707 602.716 116.037 603.019C116.05 603.033 116.061 603.047 116.073 603.063C116.48 603.462 116.955 603.736 117.503 603.889C117.925 604.022 118.349 604.042 118.772 603.948C119.215 603.93 119.628 603.8 120.011 603.557C120.504 603.265 120.894 602.872 121.182 602.376C121.192 602.359 121.202 602.342 121.212 602.324C121.32 602.064 121.43 601.805 121.538 601.545C121.577 601.261 121.615 600.98 121.656 600.699C121.617 600.406 121.58 600.113 121.541 599.821C121.432 599.542 121.319 599.27 121.205 598.998Z" fill="#FFFDFA"/>
<path d="M135.24 588.115C135.097 587.59 134.835 587.138 134.449 586.754C134.43 586.737 134.407 586.726 134.387 586.706C134.193 586.488 133.977 586.295 133.707 586.153C133.317 585.927 133.189 585.883 132.895 585.824C132.856 585.815 132.817 585.808 132.776 585.799C132.102 585.667 131.601 585.604 130.924 585.808C130.874 585.824 130.826 585.837 130.776 585.852C130.573 585.914 130.375 585.974 130.18 586.054C129.737 586.155 129.353 586.357 129.027 586.656C128.666 586.89 128.383 587.203 128.179 587.59C127.946 587.962 127.817 588.361 127.794 588.791C127.696 589.223 127.714 589.657 127.85 590.091C127.964 590.363 128.077 590.635 128.192 590.907C128.488 591.406 128.887 591.802 129.388 592.093C129.648 592.201 129.907 592.311 130.167 592.419C130.74 592.573 131.315 592.577 131.891 592.422C132.1 592.393 132.302 592.347 132.508 592.299C132.559 592.287 132.608 592.274 132.659 592.263C133.342 592.102 133.744 591.803 134.256 591.353C134.29 591.324 134.322 591.293 134.356 591.264C134.579 591.069 134.699 590.948 134.894 590.574C135.001 590.319 135.107 590.064 135.214 589.809C135.222 589.774 135.219 589.736 135.227 589.702C135.23 589.696 135.234 589.69 135.234 589.682C135.378 589.164 135.379 588.642 135.24 588.115Z" fill="#FFFDFA"/>
<path d="M116.547 586.073C116.389 585.495 116.099 584.992 115.673 584.569C115.371 584.249 115.015 584.022 114.605 583.89C114.219 583.688 113.805 583.595 113.358 583.609C112.976 583.608 112.616 583.689 112.267 583.81C112.055 583.882 111.846 583.955 111.656 584.065L111.651 584.066L111.647 584.067L111.647 584.07C111.409 584.21 111.191 584.379 110.989 584.579C110.982 584.583 110.977 584.589 110.97 584.593C110.65 584.896 110.423 585.252 110.292 585.661C110.09 586.048 109.996 586.462 110.01 586.906C110.047 587.202 110.086 587.496 110.124 587.792C110.282 588.372 110.571 588.873 110.997 589.296C111.129 589.43 111.252 589.577 111.397 589.696C111.737 589.971 112.068 590.262 112.453 590.476C112.91 590.738 113.401 590.872 113.93 590.878C114.479 590.879 114.991 590.741 115.469 590.466C115.921 590.197 116.279 589.835 116.546 589.379C116.808 588.923 116.942 588.431 116.948 587.903C116.918 587.552 116.899 587.195 116.818 586.855C116.796 586.767 116.77 586.678 116.746 586.588C116.697 586.414 116.615 586.244 116.547 586.073Z" fill="#FFFDFA"/>
<path d="M303.024 469.376C299.407 467.921 295.322 469.242 291.918 470.668C287.813 472.391 284.056 474.796 280.063 476.745C275.937 478.759 271.618 479.84 267.04 480.101C258.132 480.612 249.292 479.207 240.382 480.214C221.809 482.315 204.794 490.407 187.415 496.715C179.024 499.761 170.445 502.434 161.604 503.804C157.378 504.458 153.093 504.777 148.817 504.682C144.337 504.585 139.957 503.691 135.495 503.451C131.484 503.233 127.4 503.862 124.18 506.424C121.641 508.443 120.016 511.353 119.105 514.431C117.578 519.591 120.033 524.869 118.793 529.952C118.631 530.623 117.991 531.066 117.585 531.583C115.109 534.77 112.383 537.837 110.966 541.683C109.761 544.95 109.768 548.963 111.583 552.015C113.432 555.121 116.848 556.441 120.343 556.371C124.018 556.297 127.561 555.084 131.247 555.133C135.296 555.186 139.222 556.359 143.058 557.547C146.881 558.731 150.685 559.927 154.647 560.547C158.92 561.214 163.24 561.405 167.556 561.167C186.531 560.118 203.849 551.669 221.503 545.479C239.713 539.093 258.49 534.327 277.541 531.251C282.293 530.485 287.093 529.967 291.835 529.152C295.793 528.47 299.898 526.994 302.765 524.059C305.499 521.261 306.335 517.64 305.731 513.841C305.075 509.711 303.342 505.896 303.038 501.684C302.742 497.615 303.255 493.537 304.576 489.677C305.891 485.844 308.085 482.173 308.085 478.01C308.09 474.447 306.49 470.772 303.024 469.376Z" fill="#F1EAD6"/>
<path d="M304.27 517.593C303.693 519.961 302.942 521.806 301.007 523.388C298.98 525.044 296.469 525.865 293.969 526.51C288.422 527.942 282.736 528.949 277.135 530.151C265.839 532.58 254.551 535.041 243.267 537.525C241.228 537.973 239.195 538.437 237.159 538.896C246.913 533.641 256.858 528.714 267.532 525.605C269.825 524.937 268.87 521.345 266.57 522.015C244.869 528.362 226.468 541.911 206.009 551.068C196.441 555.351 186.272 558.755 175.782 559.702C170.639 560.167 165.427 560.059 160.336 559.148C155.32 558.252 150.455 556.698 145.483 555.6C142.733 554.993 139.939 554.515 137.125 554.349C134.05 554.166 131.044 554.533 128 554.903C122.673 555.55 116.682 555.754 112.602 551.628C112.09 551.111 111.275 551.775 111.612 552.398C113.733 556.308 118.207 557.8 122.435 558.014C128.025 558.296 133.493 556.89 139.107 557.565C144.354 558.194 149.425 559.827 154.534 561.117C159.654 562.411 164.837 563.275 170.129 563.339C191.417 563.597 210.803 553.339 229.009 543.347C230.541 543.082 232.068 542.744 233.558 542.451C236.565 541.859 239.565 541.25 242.566 540.623C248.658 539.353 254.753 538.084 260.846 536.813C266.84 535.564 272.826 534.265 278.815 532.985C281.81 532.346 284.804 531.706 287.799 531.068C290.659 530.457 293.59 529.923 296.34 528.91C298.926 527.959 301.492 526.547 303.256 524.374C304.729 522.558 306.167 520.245 305.916 517.819C305.823 516.94 304.513 516.599 304.27 517.593Z" fill="#FFFDFA"/>
<path d="M307.305 477.338C306.907 476.945 306.331 477.267 306.277 477.764C306.057 479.78 306.478 481.821 306.205 483.861C305.942 485.837 305.252 487.767 304.314 489.52C302.157 493.562 298.583 496.512 294.666 498.772C290.558 501.146 286.138 502.85 281.768 504.67C279.527 505.603 277.282 506.552 275.146 507.713C273.182 508.78 270.685 510.028 269.5 511.998C268.984 512.855 269.839 513.869 270.764 513.646C272.101 513.324 273.238 512.49 274.432 511.838C275.541 511.233 276.678 510.672 277.818 510.131C280.302 508.946 282.836 507.885 285.38 506.839C290.065 504.911 294.802 502.975 298.942 500.002C302.737 497.279 305.931 493.826 307.716 489.463C309.11 486.057 310.286 480.276 307.305 477.338Z" fill="#FFFDFA"/>
<path d="M281.086 476.823C278.584 477.681 276.218 478.969 273.754 479.945C271.362 480.893 268.937 481.765 266.511 482.617C261.453 484.393 256.324 485.962 251.234 487.646C242.275 490.612 233.301 493.953 225.337 499.107C221.04 501.888 216.775 505.109 214.284 509.666C213.932 510.309 214.704 511.262 215.38 510.753C218.933 508.081 222.202 505.041 225.903 502.543C229.672 499.999 233.713 497.882 237.868 496.042C246.963 492.013 256.608 489.426 265.976 486.133C268.719 485.169 271.429 484.13 274.099 482.976C276.751 481.83 279.654 480.703 281.999 478.996C282.996 478.271 282.458 476.355 281.086 476.823Z" fill="#FFFDFA"/>
<path d="M189.319 517.82C188.135 516.929 186.314 516.574 184.91 516.104C183.333 515.574 181.723 515.126 180.135 514.626C176.869 513.593 173.623 512.506 170.394 511.36C163.953 509.075 157.56 506.67 151.265 503.999C149.882 503.412 148.668 505.423 150.077 506.058C156.336 508.873 162.675 511.54 169.131 513.874C172.353 515.04 175.592 516.149 178.852 517.2C180.437 517.711 182.024 518.224 183.623 518.689C185.185 519.142 187.168 519.908 188.788 519.762C189.869 519.664 190.161 518.454 189.319 517.82Z" fill="#FFFDFA"/>
<path d="M162.019 522.913C159.511 521.803 156.694 522.004 154.022 522.084C150.36 522.197 146.697 522.309 143.035 522.424C141.157 522.481 139.266 522.488 137.392 522.634C136.401 522.71 135.411 522.783 134.421 522.864C133.493 522.937 132.735 523.298 131.828 523.485C131.086 523.639 131.033 524.911 131.825 525.026C132.45 525.117 133.027 525.369 133.643 525.472C134.265 525.579 134.956 525.522 135.589 525.534C137.176 525.565 138.754 525.565 140.34 525.522C143.309 525.44 146.281 525.358 149.25 525.276C152.009 525.199 154.802 524.992 157.562 525.097C159.6 525.176 162.876 525.881 163.094 528.45C163.342 531.379 159.262 532.037 157.205 532.17C154.519 532.345 151.814 532.346 149.125 532.252C143.707 532.062 138.302 531.395 133.008 530.241C130.108 529.61 127.257 528.633 124.327 528.163C121.788 527.755 119.264 527.875 117.267 529.656C116.393 530.436 117.526 531.834 118.511 531.255C121.229 529.658 124.3 530.635 127.103 531.486C130.016 532.37 132.961 533.107 135.95 533.68C141.782 534.8 147.723 535.336 153.662 535.275C158.158 535.23 166.368 534.899 166.154 528.467C166.069 525.983 164.217 523.885 162.019 522.913Z" fill="#FFFDFA"/>
<path d="M289.894 250.923C356.181 233.162 395.519 165.027 377.757 98.7397C359.996 32.4526 291.861 -6.88517 225.574 10.8764C159.287 28.638 119.949 96.773 137.71 163.06C155.472 229.347 223.607 268.685 289.894 250.923Z" fill="#FFFDFA" stroke="#F1EAD6" stroke-width="3.56693" stroke-miterlimit="10"/>
<path d="M310.262 80.2519C320.988 103.377 319.069 131.494 302.828 153.423C280.051 184.176 237.426 191.531 205.781 170.914C220.226 202.045 255.35 219.249 289.636 210.062C328.025 199.776 350.805 160.319 340.519 121.93C335.733 104.069 324.63 89.5975 310.262 80.2519Z" fill="#F1EAD6" stroke="#F1EAD6" stroke-width="3.56693" stroke-miterlimit="10" stroke-linecap="round" stroke-linejoin="round"/>
<path d="M289.636 210.059C328.024 199.773 350.805 160.315 340.519 121.927C330.233 83.5395 290.775 60.7586 252.388 71.0445C214 81.3305 191.219 120.788 201.505 159.176C211.791 197.564 251.249 220.345 289.636 210.059Z" stroke="#F1EAD6" stroke-width="3.56693" stroke-miterlimit="10"/>
<path d="M207.594 77.2258C206.233 76.0812 204.875 74.9337 203.514 73.7891C200.719 71.4337 197.925 69.0806 195.13 66.7251C192.408 64.4336 189.667 62.1673 186.932 59.8916C185.563 58.7517 184.193 57.6171 182.803 56.5076C181.441 55.4202 180.12 54.1936 178.557 53.4037C177.976 53.1112 177.132 53.7634 177.582 54.3863C179.532 57.0887 182.509 59.2404 185 61.4284C187.743 63.8372 190.476 66.2537 193.234 68.6461C195.918 70.9723 198.602 73.3007 201.284 75.6274C202.627 76.7914 203.968 77.9536 205.309 79.1182C206.473 80.1282 207.847 81.8084 209.418 82.0497C210.201 82.1697 211.081 81.5671 210.8 80.6749C210.32 79.1417 208.78 78.2274 207.594 77.2258Z" fill="#F1EAD6"/>
<path d="M322.621 46.7197C321.699 47.3853 321.092 48.0599 320.422 48.9878C319.808 49.8391 319.253 50.7362 318.681 51.6157C317.473 53.4807 316.264 55.3457 315.053 57.2113C313.879 59.0226 312.739 60.8594 311.589 62.6865C311.029 63.575 310.472 64.4628 309.915 65.3507C309.378 66.2036 308.574 67.219 308.652 68.2716C308.686 68.74 309.119 69.2074 309.633 69.0303C310.603 68.6991 311.113 67.819 311.693 67.0184C312.31 66.1687 312.889 65.2874 313.487 64.4231C314.754 62.5917 316.036 60.7687 317.276 58.9199L320.891 53.5299C322.099 51.7289 323.547 49.9378 324.027 47.7978C324.194 47.059 323.344 46.1959 322.621 46.7197Z" fill="#F1EAD6"/>
<path d="M251.311 28.4459C251.002 27.561 249.854 27.7603 249.74 28.6477C249.405 31.2288 249.824 33.9697 250.159 36.5315C250.524 39.3287 250.916 42.1335 251.454 44.9019C252.469 50.1321 253.396 55.8069 255.654 60.6695C256.084 61.5956 257.766 61.1745 257.643 60.1366C257.023 54.8547 255.335 49.6571 254.336 44.4323C253.827 41.7598 253.3 39.0946 252.865 36.407C252.443 33.7751 252.194 30.9713 251.311 28.4459Z" fill="#F1EAD6"/>
<path d="M198.128 172.548C196.59 172.483 195.171 173.538 193.856 174.225C192.411 174.979 190.961 175.724 189.506 176.456C186.422 178.004 183.288 179.457 180.109 180.803C176.974 182.131 173.805 183.379 170.594 184.515C169.058 185.059 167.512 185.572 165.964 186.078C164.397 186.589 162.68 186.943 161.4 188.017C160.521 188.755 161.343 189.928 162.235 190.044C163.821 190.246 165.556 189.501 167.049 189.027C168.694 188.505 170.328 187.949 171.953 187.371C175.155 186.23 178.325 184.996 181.448 183.65C184.527 182.323 187.564 180.898 190.555 179.381C192.093 178.599 193.616 177.795 195.119 176.944C196.468 176.181 198.232 175.47 198.984 174.04C199.335 173.367 198.89 172.58 198.128 172.548Z" fill="#F1EAD6"/>
<path d="M190.207 127.955C186.878 127.54 183.556 126.983 180.217 126.575C176.768 126.155 173.329 125.659 169.911 125.041C166.623 124.445 163.351 123.748 160.106 122.946C158.527 122.557 156.949 122.162 155.378 121.746C153.642 121.286 152.09 120.749 150.285 120.856C149.478 120.905 148.75 122.04 149.539 122.651C152.124 124.662 155.827 125.27 158.976 126.051C162.395 126.897 165.845 127.632 169.314 128.249C172.654 128.843 176.012 129.351 179.386 129.703C183.043 130.084 186.532 130.08 190.193 129.978C191.528 129.945 191.473 128.114 190.207 127.955Z" fill="#F1EAD6"/>
<path d="M267.339 39.7868C267.026 41.3651 266.735 42.8167 266.684 44.4332C266.631 46.0844 266.637 47.7397 266.702 49.3889C266.766 50.9868 266.896 52.5744 267.094 54.1607C267.292 55.7546 267.412 57.4876 268.029 58.9839C268.422 59.9348 269.865 59.9002 269.91 58.7435C269.972 57.1735 269.611 55.5714 269.457 54.0102C269.305 52.4801 269.194 50.9442 269.122 49.4099C269.05 47.8733 269.031 46.3324 269.06 44.7958C269.077 44.0035 269.166 43.1945 269.138 42.4042C269.109 41.6046 268.995 40.8204 268.983 40.0159C268.969 39.099 267.53 38.8273 267.339 39.7868Z" fill="#F1EAD6"/>
<path d="M281.868 39.6896C281.453 40.3623 280.946 40.9684 280.622 41.688C280.297 42.4075 279.975 43.1265 279.654 43.8455C278.999 45.3083 278.409 46.8006 277.805 48.2846C277.211 49.751 276.622 51.2186 276.036 52.6878C275.743 53.4236 275.457 54.1574 275.175 54.8976C274.903 55.618 274.523 56.3697 274.395 57.1303C274.15 58.5673 275.941 59.4191 276.784 58.1273C277.215 57.4654 277.454 56.6405 277.756 55.9098C278.057 55.1768 278.358 54.4461 278.651 53.7103C279.237 52.2411 279.831 50.7746 280.426 49.3082C281.023 47.8434 281.64 46.3881 282.204 44.91C282.484 44.1727 282.767 43.4372 283.05 42.7016C283.333 41.966 283.41 41.1796 283.601 40.4121C283.864 39.3642 282.439 38.7687 281.868 39.6896Z" fill="#F1EAD6"/>
<path d="M304.022 23.796C301.593 26.0495 299.631 29.0912 297.82 31.8511C295.931 34.733 294.149 37.6846 292.469 40.6927C290.826 43.6315 289.317 46.6333 287.916 49.6944C287.193 51.2767 286.462 52.8683 285.826 54.4889C285.226 56.0161 284.474 57.5665 284.312 59.2126C284.224 60.0954 285.577 60.6979 286.14 59.9709C287.116 58.7149 287.669 57.1684 288.346 55.734C289.061 54.2153 289.749 52.6844 290.487 51.1768C291.966 48.1611 293.537 45.1848 295.18 42.2558C296.782 39.3967 298.48 36.5907 300.258 33.8394C302.101 30.9871 304.279 28.1807 305.797 25.147C306.362 24.0133 304.978 22.9072 304.022 23.796Z" fill="#F1EAD6"/>
<path d="M298.878 42.6158C298.345 43.1624 298.132 43.9037 297.856 44.6005C297.554 45.3659 297.274 46.14 297.01 46.9197C296.499 48.4303 296.022 49.9468 295.546 51.4678C295.086 52.9401 294.61 54.4091 294.151 55.8814C293.907 56.6631 293.658 57.4436 293.404 58.2231C293.148 59.0108 292.734 59.9465 293.297 60.6892C293.617 61.1106 294.042 61.3388 294.58 61.2144C295.545 60.9928 295.807 60.0955 296.126 59.2664C296.403 58.5448 296.666 57.817 296.929 57.0916C297.491 55.5478 298.004 53.9921 298.495 52.4253C298.971 50.902 299.402 49.376 299.777 47.8278C299.96 47.0772 300.118 46.316 300.244 45.5559C300.38 44.7294 300.619 43.848 300.402 43.0222C300.231 42.3542 299.359 42.1226 298.878 42.6158Z" fill="#F1EAD6"/>
<path d="M315.782 44.5299C314.989 45.1414 314.232 45.7996 313.425 46.39C312.629 46.9727 311.997 47.7574 311.335 48.4838C309.949 50.0097 308.624 51.5883 307.336 53.194C306.074 54.768 304.844 56.3703 303.655 57.9985C302.499 59.5811 301.014 61.3181 300.373 63.1886C299.928 64.4847 301.624 65.1921 302.505 64.4194C303.231 63.7842 303.745 62.8982 304.319 62.1289C304.903 61.3496 305.477 60.5629 306.061 59.7813C307.246 58.1884 308.48 56.6269 309.746 55.0961C310.986 53.5968 312.265 52.1315 313.558 50.6799C314.896 49.1767 316.064 47.6106 317.261 45.9949C317.885 45.1555 316.622 43.8865 315.782 44.5299Z" fill="#F1EAD6"/>
<path d="M216.073 75.417C215.742 74.7079 215.134 74.1199 214.625 73.5326C214.117 72.9499 213.606 72.3678 213.071 71.8121C211.967 70.6702 210.82 69.567 209.647 68.4977C208.483 67.4357 207.297 66.3995 206.037 65.4545C205.437 65.0049 204.832 64.4579 204.174 64.0975C203.86 63.9257 203.498 63.8233 203.172 63.6719C202.766 63.4803 202.446 63.3074 201.992 63.3208C201.494 63.3361 201.091 63.7986 201.231 64.3027C201.42 64.9733 202.027 65.5272 202.475 66.0498C202.972 66.628 203.656 67.0947 204.229 67.5984C205.386 68.6178 206.573 69.6044 207.714 70.6454C208.821 71.6535 209.9 72.6938 210.95 73.764C211.491 74.3133 212.041 74.8526 212.581 75.4048C213.161 76.0001 213.693 76.6504 214.402 77.1005C215.521 77.8148 216.551 76.4409 216.073 75.417Z" fill="#F1EAD6"/>
<path d="M218.91 68.0145C218.121 66.5863 217.254 65.194 216.373 63.8199C215.492 62.4411 214.541 61.1056 213.546 59.8089C213.065 59.1819 212.463 58.6516 211.935 58.0617C211.356 57.4145 210.791 56.7953 210.079 56.2893C209.504 55.8773 208.532 56.5783 208.813 57.2611C209.383 58.6423 210.298 59.9899 211.07 61.2649C211.913 62.6542 212.898 63.9804 213.794 65.3382C214.664 66.656 215.49 68.0005 216.307 69.3521C216.714 70.0259 217.127 70.7031 217.549 71.368C217.984 72.0563 218.394 72.8402 219.011 73.379C219.631 73.9194 220.966 73.6206 220.855 72.6165C220.676 71.02 219.677 69.4045 218.91 68.0145Z" fill="#F1EAD6"/>
<path d="M243.032 38.5154C242.666 37.661 241.344 37.9733 241.131 38.7689C240.705 40.3675 240.852 42.0637 241 43.7029C241.163 45.4588 241.448 47.2289 241.765 48.9633C242.388 52.3635 243.15 55.7413 244.315 58.9963C244.922 60.69 247.453 60.0585 247.044 58.2651C246.289 54.9594 245.471 51.6679 244.896 48.3263C244.608 46.6555 244.382 44.9779 244.124 43.3042C243.872 41.668 243.688 40.0358 243.032 38.5154Z" fill="#F1EAD6"/>
<path d="M239.489 56.3455C238.787 54.6724 238.076 53.0017 237.334 51.3443C235.81 47.9344 234.391 44.3388 232.15 41.3401C231.362 40.2857 229.42 40.8358 229.856 42.2993C230.929 45.8893 232.823 49.1903 234.401 52.5831C235.166 54.2246 235.93 55.8637 236.673 57.5159C237.435 59.2099 238.088 61.1618 239.266 62.6089C239.904 63.3907 241.443 62.7643 241.339 61.7532C241.15 59.8909 240.205 58.0541 239.489 56.3455Z" fill="#F1EAD6"/>
<path d="M228.628 59.6567C227.937 58.089 227.208 56.5364 226.449 54.9992C224.897 51.8528 223.104 48.8155 221.231 45.851C219.422 42.9852 217.479 40.2289 215.378 37.5694C214.264 36.1593 213.124 34.7711 211.951 33.4139C210.88 32.1745 209.676 30.7515 208.206 29.986C207.579 29.6591 206.59 30.2221 206.885 30.9998C207.423 32.4213 208.449 33.6753 209.381 34.8658C210.466 36.2515 211.535 37.649 212.564 39.0766C214.564 41.8446 216.505 44.6701 218.345 47.5475C220.142 50.3575 221.777 53.2528 223.401 56.1655C224.235 57.6581 225.035 59.1669 225.806 60.6912C226.55 62.1657 227.205 63.9128 228.369 65.1051C228.983 65.731 230.195 65.2757 230.158 64.3672C230.095 62.7347 229.277 61.1323 228.628 59.6567Z" fill="#F1EAD6"/>
<path d="M199.386 83.0303C197.748 81.9059 196.076 80.8006 194.38 79.7632C190.982 77.6849 187.543 75.6743 183.949 73.9541C182.997 73.4977 181.8 74.7661 182.742 75.5353C185.868 78.0951 189.193 80.3505 192.54 82.6072C194.184 83.7176 195.9 84.7571 197.61 85.7637C199.27 86.7394 201.067 88.1069 203.029 88.2827C203.814 88.3531 204.259 87.3892 203.902 86.7711C202.945 85.1219 200.922 84.0837 199.386 83.0303Z" fill="#F1EAD6"/>
<path d="M200.689 90.7134C196.469 89.3602 192.162 88.2196 188.003 86.6704C185.998 85.9226 184.024 85.0876 182.063 84.2271C181.045 83.7811 180.035 83.313 179.037 82.8221C178.046 82.337 176.989 81.7191 175.862 81.9521C175.316 82.0639 174.88 82.7692 175.08 83.3063C175.486 84.3966 176.51 84.9568 177.494 85.4957C178.464 86.0308 179.447 86.5455 180.44 87.0376C182.553 88.0887 184.738 88.9853 186.956 89.7994C191.316 91.4006 195.734 92.6465 200.377 92.9757C201.727 93.0718 201.887 91.0964 200.689 90.7134Z" fill="#F1EAD6"/>
<path d="M190.951 120.171C190.24 119.338 189.08 119.19 188.061 118.961C187.073 118.739 186.079 118.545 185.083 118.346C183.02 117.936 180.959 117.529 178.892 117.154C176.821 116.778 174.751 116.403 172.674 116.056C170.767 115.737 168.394 114.977 166.527 115.642C165.997 115.831 165.682 116.551 166.172 116.981C167.676 118.303 169.991 118.481 171.897 118.891C174.022 119.348 176.151 119.772 178.28 120.201C180.414 120.629 182.551 121.019 184.69 121.411C185.689 121.593 186.688 121.776 187.694 121.928C188.759 122.09 189.754 122.311 190.743 121.785C191.376 121.456 191.36 120.65 190.951 120.171Z" fill="#F1EAD6"/>
<path d="M191.959 115.224C190.064 114.262 188.216 113.245 186.269 112.391C184.318 111.535 182.375 110.67 180.414 109.844C178.508 109.042 176.604 108.24 174.698 107.439C173.699 107.017 172.671 106.628 171.634 106.305C170.721 106.02 169.571 105.782 168.612 105.773C168.017 105.768 167.715 106.516 168.13 106.934C168.767 107.575 169.669 108.186 170.449 108.644C171.375 109.188 172.417 109.64 173.406 110.06C175.369 110.89 177.33 111.721 179.293 112.552C181.19 113.356 183.105 114.118 185.013 114.891C187.046 115.715 189.115 116.355 191.188 117.062C192.263 117.427 192.973 115.74 191.959 115.224Z" fill="#F1EAD6"/>
<path d="M196.688 103.587C194.065 101.503 190.089 101.101 186.915 100.261C183.279 99.2974 179.653 98.3045 176.057 97.205C172.552 96.1328 169.051 95.03 165.575 93.8639C163.839 93.2828 162.103 92.7017 160.37 92.1073C158.733 91.5465 156.891 90.6073 155.129 90.7667C154.403 90.8332 154.063 91.6038 154.549 92.1655C155.655 93.447 157.498 93.9946 159.021 94.6329C160.746 95.3572 162.472 96.0642 164.225 96.7269C167.75 98.0571 171.297 99.2976 174.897 100.403C178.404 101.48 181.934 102.491 185.487 103.403C187.353 103.88 189.235 104.299 191.118 104.71C192.847 105.089 194.583 105.414 196.323 104.972C196.881 104.83 197.192 103.986 196.688 103.587Z" fill="#F1EAD6"/>
<path d="M187.645 133.662C186.954 133.572 186.281 133.395 185.583 133.353C184.895 133.311 184.203 133.309 183.514 133.284C182.219 133.238 180.929 133.147 179.643 132.995C178.409 132.848 177.19 132.635 175.965 132.434C175.282 132.322 174.599 132.197 173.915 132.09C173.311 131.996 172.398 131.977 171.806 132.158C171.092 132.376 170.957 133.161 171.397 133.7C171.782 134.171 172.594 134.647 173.157 134.863C173.793 135.106 174.474 135.305 175.131 135.486C176.546 135.873 178.039 136.076 179.492 136.228C180.86 136.371 182.247 136.448 183.622 136.426C184.333 136.416 185.054 136.377 185.76 136.284C186.505 136.186 187.194 135.93 187.91 135.706C189.092 135.34 188.771 133.811 187.645 133.662Z" fill="#F1EAD6"/>
<path d="M186.836 139.105C183.47 139.535 180.078 139.894 176.698 140.217C174.994 140.38 173.288 140.488 171.579 140.579C170.036 140.663 168.02 140.482 166.787 141.558C166.384 141.91 166.383 142.698 166.796 143.042C168.051 144.097 170.019 143.853 171.556 143.783C173.327 143.705 175.097 143.546 176.858 143.35C180.372 142.957 183.729 142.272 187.115 141.276C188.254 140.944 188.119 138.941 186.836 139.105Z" fill="#F1EAD6"/>
<path d="M188.66 149.559C186.16 149.35 183.396 150.345 180.965 150.875C178.523 151.409 176.071 151.894 173.608 152.332C171.147 152.767 168.683 153.182 166.209 153.542C164.88 153.735 163.551 153.936 162.22 154.125C160.994 154.301 159.592 154.259 158.575 155.011C157.912 155.504 157.645 156.723 158.583 157.146C159.743 157.672 160.817 157.48 162.054 157.356C163.346 157.226 164.638 157.087 165.926 156.914C168.592 156.552 171.252 156.127 173.894 155.623C176.536 155.12 179.168 154.56 181.787 153.944C184.182 153.381 187.132 152.933 189.184 151.514C190.055 150.914 189.713 149.649 188.66 149.559Z" fill="#F1EAD6"/>
<path d="M190.004 157.004C186.279 157.746 182.477 158.358 178.712 158.87C176.906 159.115 175.093 159.286 173.278 159.42C171.523 159.548 169.109 159.306 167.695 160.441C166.978 161.017 167.372 162.046 167.969 162.482C168.743 163.048 169.791 162.979 170.721 162.978C171.703 162.978 172.696 162.899 173.674 162.819C175.583 162.665 177.486 162.445 179.382 162.179C181.265 161.913 183.134 161.572 184.993 161.16C186.937 160.728 188.773 160.071 190.655 159.424C192.179 158.902 191.591 156.689 190.004 157.004Z" fill="#F1EAD6"/>
<path d="M192.544 164.538C191.024 164.287 189.448 165.138 188.074 165.708C186.497 166.362 184.928 167.041 183.358 167.715C181.859 168.358 180.367 169.009 178.875 169.672C177.481 170.292 175.577 170.861 174.987 172.415C174.767 172.999 175.243 173.546 175.743 173.739C177.188 174.3 179.064 173.105 180.353 172.533C181.84 171.871 183.322 171.199 184.801 170.517C186.278 169.836 187.759 169.163 189.226 168.464C190.547 167.835 192.301 167.222 193.119 165.939C193.426 165.458 193.144 164.638 192.544 164.538Z" fill="#F1EAD6"/>
<path d="M260.248 99.0148C259.49 95.7812 257.856 92.7233 255.524 90.352C251.229 85.981 244.836 84.0898 238.854 85.2743C237.383 85.565 238.011 87.7331 239.45 87.5001C244.595 86.6706 250.082 88.4327 253.698 92.198C255.644 94.2245 256.948 96.785 257.576 99.5166C257.892 100.887 258.012 102.283 257.987 103.688C257.969 104.638 257.839 105.579 257.739 106.519C256.475 108.546 255.423 110.655 253.919 112.54C252.375 114.475 250.591 116.223 248.67 117.784C244.253 121.373 239.055 123.952 233.9 126.296C231.993 127.162 229.835 127.949 228.556 129.715C227.35 131.38 227.419 133.594 228.805 135.146C232.221 138.967 237.698 135.739 241.457 138.732C243.116 140.053 244.375 141.821 245.818 143.357C247.006 144.621 249.166 146.849 251.079 146.078C251.539 145.893 251.705 145.494 251.504 145.038C251.161 144.251 250.583 143.924 249.93 143.397C249.21 142.814 248.544 142.183 247.904 141.513C246.689 140.243 245.615 138.842 244.355 137.614C243.116 136.407 241.682 135.354 240.006 134.85C237.762 134.176 235.464 134.816 233.21 134.406C232.27 134.234 230.923 133.699 230.62 132.687C230.326 131.708 231.263 130.962 231.97 130.494C233.927 129.197 236.306 128.441 238.417 127.432C242.999 125.239 247.415 122.682 251.282 119.364C254.505 116.6 258.1 112.801 259.556 108.597C259.574 108.573 259.6 108.556 259.619 108.528C261.279 105.875 260.928 101.92 260.248 99.0148Z" fill="#F1EAD6"/>
<path d="M300.284 117.68C299.864 116.488 299.298 115.352 298.592 114.303C297.19 112.224 295.334 110.442 293.145 109.209C290.97 107.985 288.49 107.335 286.001 107.246C284.761 107.201 283.513 107.312 282.296 107.547C281.231 107.753 279.781 108.13 279.019 108.944C278.591 109.404 278.907 110.132 279.523 110.163C280.554 110.215 281.691 109.774 282.712 109.604C283.746 109.433 284.809 109.402 285.855 109.466C287.986 109.599 290.086 110.243 291.925 111.326C293.712 112.381 295.244 113.863 296.371 115.607C296.927 116.47 297.408 117.392 297.785 118.347C297.997 118.884 298.255 119.403 298.44 119.949C298.627 120.5 298.699 121.042 299.145 121.449C299.556 121.826 300.245 121.777 300.53 121.263C301.037 120.351 300.621 118.634 300.284 117.68Z" fill="#F1EAD6"/>
<path d="M247.324 157.809C246.231 157.009 244.982 156.657 243.712 156.226C242.431 155.792 241.175 155.286 239.992 154.628C238.799 153.963 237.746 153.147 236.82 152.145C235.866 151.108 235.016 149.994 233.879 149.144C230.349 146.508 225.391 147.691 222.03 144.796C221.233 144.108 219.925 144.988 220.516 145.972C223.05 150.175 229.047 148.474 232.533 151.164C233.712 152.074 234.546 153.35 235.6 154.387C236.578 155.349 237.717 156.161 238.921 156.816C241.224 158.07 244.292 159.421 246.958 159.163C247.697 159.09 247.921 158.247 247.324 157.809Z" fill="#F1EAD6"/>
<path d="M232.276 159.916C231.988 159.899 231.763 159.913 231.551 159.933C231.248 159.96 231.15 159.988 230.8 159.996C230.565 160 230.33 159.987 230.095 159.966C230.042 159.96 230.025 159.96 230.01 159.959C230.002 159.956 229.986 159.951 229.936 159.94C229.818 159.912 229.7 159.887 229.584 159.857C229.483 159.795 229.403 159.698 229.284 159.659C229.117 159.605 228.942 159.573 228.772 159.52C228.697 159.496 228.624 159.471 228.55 159.444C228.534 159.439 228.47 159.412 228.434 159.397C228.374 159.366 228.278 159.32 228.278 159.32C228.207 159.285 228.138 159.247 228.071 159.208C227.934 159.132 227.801 159.047 227.671 158.958C227.635 158.931 227.598 158.904 227.561 158.877C227.561 158.877 227.455 158.793 227.429 158.77C227.307 158.665 227.192 158.555 227.08 158.44C227.025 158.383 226.97 158.324 226.917 158.265C226.903 158.249 226.863 158.2 226.834 158.166C226.651 157.925 226.488 157.666 226.35 157.397C226.304 157.309 226.264 157.216 226.218 157.127C226.214 157.121 226.215 157.126 226.213 157.119C226.212 157.112 226.213 157.116 226.21 157.107C226.162 156.953 226.103 156.806 226.058 156.651C225.966 156.333 225.882 156.011 225.832 155.685C225.828 155.664 225.827 155.642 225.826 155.617C225.819 155.518 225.812 155.417 225.809 155.317C225.802 155.08 225.77 154.849 225.733 154.618C225.597 153.761 224.152 153.543 223.806 154.364C222.852 156.636 224.097 159.576 225.947 161.031C226.481 161.451 227.038 161.76 227.666 162.017C227.921 162.122 228.18 162.217 228.446 162.281C228.725 162.349 228.997 162.38 229.279 162.312C229.315 162.299 229.312 162.298 229.33 162.293C229.386 162.298 229.441 162.3 229.496 162.303C230.63 162.348 232.045 162.169 232.86 161.308C233.347 160.783 232.975 159.955 232.276 159.916Z" fill="#F1EAD6"/>
<path d="M294.932 130.456C294.402 129.168 293.745 127.928 292.988 126.757C291.446 124.374 289.52 122.256 287.267 120.528C285.204 118.947 282.919 117.715 280.47 116.835C278.244 116.036 275.125 115.116 272.781 115.85C271.793 116.159 271.907 117.376 272.776 117.732C273.838 118.169 275.063 118.239 276.181 118.486C277.083 118.685 277.971 118.965 278.85 119.251C278.575 119.556 278.33 119.892 278.094 120.224C277.621 120.892 277.256 121.601 276.964 122.366C276.361 123.945 276.216 125.774 276.679 127.412C277.13 129.003 278.172 130.402 279.6 131.246C279.945 131.451 280.322 131.618 280.7 131.751C281.124 131.901 281.689 131.85 281.994 131.838C282.632 131.812 283.604 131.8 284.125 131.146C284.514 130.66 284.529 129.908 283.912 129.571C283.59 129.396 283.304 129.333 282.938 129.29C282.89 129.284 282.488 129.189 282.374 129.168C282.31 129.121 282.254 129.06 282.179 129.031C281.991 128.934 281.786 128.868 281.592 128.785C281.739 128.846 281.553 128.77 281.508 128.748C281.36 128.674 281.219 128.596 281.078 128.511C281.001 128.463 280.923 128.412 280.85 128.358C280.835 128.34 280.696 128.225 280.679 128.207C280.577 128.114 280.487 128.015 280.389 127.918C280.212 127.741 280.373 127.92 280.27 127.777C279.899 127.256 279.735 126.852 279.58 126.229C279.318 125.179 279.463 124.03 279.849 122.961C280.201 121.986 280.811 121.138 281.244 120.21C282.77 120.906 284.248 121.721 285.56 122.748C287.504 124.268 289.187 126.124 290.515 128.203C291.198 129.273 291.777 130.396 292.293 131.557C292.742 132.572 292.989 134.138 293.892 134.826C294.58 135.351 295.378 135.152 295.705 134.341C296.191 133.159 295.389 131.565 294.932 130.456Z" fill="#F1EAD6"/>
<path d="M251.031 101.082C250.307 100.308 249.489 99.6264 248.645 98.9859C246.971 97.7186 245.14 96.7272 243.182 95.9693C241.234 95.2159 239.174 94.7684 237.094 94.5946C236.115 94.5124 235.125 94.4944 234.146 94.5697C233.07 94.6536 231.828 94.7305 230.855 95.2152C229.72 95.7829 230.353 97.3931 231.458 97.4639C232.361 97.5196 233.342 97.2568 234.254 97.2166C234.697 97.1965 235.141 97.2375 235.584 97.2445C235.475 97.5468 235.386 97.8661 235.331 98.201C235.086 99.6576 234.911 101.201 235.175 102.664C235.421 104.034 236.236 105.292 237.497 105.927C238.74 106.554 241.089 106.564 241.193 104.71C241.212 104.375 240.993 103.963 240.683 103.818C240.32 103.647 240.037 103.621 239.638 103.637C239.881 103.626 239.611 103.62 239.564 103.618C239.467 103.614 239.366 103.614 239.267 103.621C239.235 103.622 239.233 103.625 239.217 103.627C239.213 103.623 239.218 103.622 239.199 103.617C239.101 103.591 239.002 103.561 238.902 103.537C238.863 103.527 238.852 103.525 238.837 103.524C238.834 103.52 238.836 103.52 238.819 103.512C238.723 103.464 238.633 103.407 238.541 103.357C238.336 103.245 238.56 103.392 238.46 103.301C238.379 103.229 238.304 103.153 238.227 103.077C238.198 103.048 238.188 103.041 238.176 103.032C238.175 103.027 238.177 103.027 238.164 103.006C238.105 102.915 238.052 102.826 238 102.734C237.826 102.407 237.733 101.902 237.708 101.496C237.674 100.929 237.706 100.361 237.75 99.798C237.785 99.3481 237.816 98.8693 237.887 98.5082C237.971 98.0771 238.06 97.8142 238.246 97.4766C239.643 97.7028 241.028 98.0458 242.342 98.5601C243.986 99.2004 245.575 100.104 246.971 101.182C247.716 101.758 248.402 102.404 249.065 103.071C249.746 103.755 250.285 104.536 251.154 104.988C252.03 105.442 252.914 104.691 252.747 103.766C252.552 102.688 251.759 101.861 251.031 101.082Z" fill="#F1EAD6"/>
<path d="M273.921 137.184C271.26 136.383 268.15 137.034 266.26 139.133C263.759 140.362 263.17 143.513 263.182 146.139C263.19 147.824 263.531 149.507 264.57 150.871C265.465 152.042 266.728 152.841 268.135 153.266C269.68 153.733 271.333 153.665 272.899 153.341C274.377 153.034 275.947 152.5 277.238 151.703C278.573 150.88 279.617 149.685 280.038 148.152C280.448 146.658 280.315 144.976 279.89 143.501C279.051 140.563 276.891 138.077 273.921 137.184Z" fill="#F1EAD6"/>
<path d="M228.989 109.942C227.162 108.959 225.071 108.751 223.05 109.148C219.927 109.76 216.881 112.349 216.445 115.508C216.422 115.569 216.394 115.628 216.374 115.69C215.702 117.722 216.011 120.31 217.044 122.17C219.231 126.099 224.287 125.451 227.763 123.916C229.513 123.144 231.128 121.904 232.098 120.231C233.091 118.518 233.298 116.397 232.686 114.515C232.065 112.613 230.769 110.9 228.989 109.942Z" fill="#F1EAD6"/>
<path d="M296.684 125.277C296.446 124.93 296.204 124.586 295.939 124.258C295.44 123.636 294.906 123.041 294.355 122.465C293.251 121.311 291.985 120.306 290.65 119.432C289.919 118.954 289.103 120.044 289.728 120.642C290.814 121.68 291.843 122.773 292.849 123.89C293.322 124.415 293.777 124.956 294.21 125.514C294.69 126.132 295.177 126.937 295.876 127.306C296.384 127.573 297.26 127.252 297.172 126.565C297.108 126.05 296.979 125.706 296.684 125.277Z" fill="#F1EAD6"/>
<path d="M239.969 92.2388C239.92 92.1929 239.87 92.147 239.823 92.1005C239.879 92.1988 239.937 92.2964 239.993 92.3947C239.83 91.9585 239.542 91.8312 239.131 91.6755C238.838 91.5645 238.55 91.4914 238.242 91.436C237.603 91.3216 236.957 91.2339 236.311 91.183C235.091 91.0865 233.743 91.0169 232.547 91.3127C232.55 91.3167 232.556 91.32 232.56 91.324C232.35 91.3852 232.161 91.5268 232.076 91.7319C231.874 92.2117 232.227 92.6909 232.725 92.7223C233.301 92.7576 233.876 92.7093 234.453 92.7198C235.049 92.7299 235.645 92.7672 236.239 92.8345C236.779 92.8941 237.314 92.9796 237.848 93.0901C238.166 93.1551 238.476 93.2099 238.8 93.2437C239.205 93.2853 239.493 93.3018 239.827 93.0228C239.728 93.0787 239.631 93.1368 239.533 93.1927C239.597 93.1754 239.662 93.1606 239.727 93.1479C240.127 93.0581 240.258 92.5085 239.969 92.2388Z" fill="#F1EAD6"/>
<path d="M386.846 262.704C375.029 246.496 361.562 232.199 344.722 221.82C339.419 225.425 315.904 233.363 287.251 241.045C287.23 241.051 287.21 241.056 287.189 241.062C287.168 241.067 287.148 241.073 287.127 241.078C258.619 248.712 234.395 253.583 227.849 253.171C218.468 270.568 213.958 289.669 211.829 309.6C211.689 309.948 211.634 310.277 211.714 310.574C213.209 316.155 253.758 310.138 302.283 297.135C350.808 284.133 388.932 269.068 387.437 263.489C387.353 263.194 387.141 262.935 386.846 262.704Z" fill="#F1EAD6" stroke="#F1EAD6" stroke-width="3.56693" stroke-miterlimit="10" stroke-linecap="round" stroke-linejoin="round"/>
<path d="M231.384 251.763C222.481 266.46 216.963 283.094 215.248 300.188C215.012 302.538 214.855 304.892 214.796 307.254C214.739 309.605 214.464 312.301 215.096 314.586C215.334 315.446 216.681 315.513 216.89 314.59C217.331 312.636 217.14 310.488 217.218 308.493C217.298 306.458 217.433 304.425 217.598 302.397C217.947 298.123 218.544 293.874 219.382 289.669C221.017 281.476 223.535 273.443 226.935 265.808C228.89 261.417 231.13 257.161 233.621 253.054C234.485 251.631 232.246 250.34 231.384 251.763Z" fill="#FFFDFA"/>
<path d="M235.721 250.667C230.069 260.508 225.113 270.834 221.969 281.767C218.971 292.189 217.228 303.939 219.251 314.711C219.461 315.827 221.309 315.595 221.24 314.456C220.911 308.993 220.704 303.615 221.267 298.157C221.825 292.751 222.947 287.392 224.465 282.177C227.561 271.534 232.397 261.514 237.908 251.93C238.722 250.518 236.532 249.256 235.721 250.667Z" fill="#FFFDFA"/>
<path d="M241.156 250.081C236.507 260.027 231.811 270.072 229.11 280.758C226.417 291.416 225.674 303.186 228.24 313.951C228.623 315.552 230.853 314.843 230.645 313.306C229.901 307.829 229.358 302.393 229.584 296.858C229.801 291.494 230.618 286.184 231.958 280.987C234.611 270.712 239.105 261.057 243.571 251.475C244.322 249.858 241.916 248.452 241.156 250.081Z" fill="#FFFDFA"/>
<path d="M375.56 269.373C375.003 268.23 374.383 267.121 373.748 266.018C372.387 263.66 370.919 261.367 369.36 259.134C366.264 254.688 362.804 250.467 359.138 246.481C355.325 242.336 351.297 238.395 347.171 234.562C343.105 230.782 338.984 226.884 334.506 223.596C333.108 222.57 331.627 224.751 332.73 225.926C336.445 229.886 340.703 233.385 344.67 237.091C348.719 240.873 352.675 244.759 356.422 248.839C360.016 252.75 363.435 256.8 366.57 261.087C368.125 263.214 369.608 265.397 371.002 267.63C371.675 268.708 372.318 269.803 372.973 270.891C373.722 272.13 374.73 273.239 375.411 274.504C376.02 275.636 377.579 274.637 377.094 273.516C376.503 272.156 376.218 270.723 375.56 269.373Z" fill="#FFFDFA"/>
<path d="M366.415 242.213C362.818 238.209 358.924 234.422 354.778 230.986C352.474 229.078 350.073 227.281 347.667 225.506C345.426 223.849 342.97 221.531 340.26 220.731C339.397 220.477 338.581 221.503 339.075 222.279C340.598 224.675 343.494 226.361 345.693 228.09C347.93 229.85 350.13 231.648 352.285 233.505C356.309 236.977 360.124 240.649 363.712 244.575C367.317 248.52 370.563 252.731 373.751 257.015C377.005 261.384 379.71 265.96 382.312 270.738C383.117 272.213 385.242 270.913 384.539 269.429C379.863 259.557 373.709 250.333 366.415 242.213Z" fill="#FFFDFA"/>
<path d="M251.792 248.005C248.738 258.311 246.533 268.779 245.534 279.492C245.038 284.817 244.819 290.166 244.884 295.516C244.95 300.823 245.116 306.313 246.256 311.505C246.479 312.521 248.075 312.305 248.065 311.274C248.006 306.028 247.467 300.791 247.418 295.536C247.367 290.276 247.592 285.014 248.086 279.776C249.077 269.269 251.118 258.759 254.41 248.727C254.952 247.065 252.287 246.327 251.792 248.005Z" fill="#FFFDFA"/>
<path d="M345.967 220.449C346.638 222.955 320.35 232.175 287.251 241.044C254.152 249.913 226.775 255.072 226.104 252.566C226.104 252.566 221.049 260.71 221.68 262.617C223.166 267.105 253.497 262.956 290.011 253.172C290.16 253.132 290.307 253.093 290.458 253.05L290.47 253.049L290.481 253.044C290.63 253.004 290.778 252.967 290.927 252.927C327.442 243.143 355.783 231.57 354.826 226.94C354.417 224.974 345.967 220.449 345.967 220.449Z" fill="#F1EAD6" stroke="#F1EAD6" stroke-width="3.56693" stroke-miterlimit="10" stroke-linecap="round" stroke-linejoin="round"/>
<path d="M356.327 225.84C355.692 228.423 353.479 230.089 351.246 231.283C348.796 232.594 346.2 233.674 343.661 234.8C338.419 237.123 333.118 239.306 327.764 241.359C322.493 243.379 317.17 245.249 311.819 247.044C309.05 247.974 306.271 248.868 303.48 249.727C300.699 250.583 297.819 251.266 295.116 252.34C293.899 252.823 294.332 254.529 295.645 254.313C298.698 253.81 301.702 252.766 304.661 251.872C307.642 250.973 310.613 250.041 313.566 249.055C319.29 247.143 324.955 245.051 330.564 242.832C336.091 240.644 341.569 238.322 346.984 235.872C351.5 233.827 357.17 231.828 358.351 226.393C358.639 225.08 356.652 224.519 356.327 225.84Z" fill="#FFFDFA"/>
<path d="M257.339 260.642C255.86 260.49 254.286 261.146 252.848 261.477C251.274 261.839 249.692 262.175 248.106 262.484C244.765 263.135 241.397 263.668 238.017 264.072C234.819 264.451 231.607 264.755 228.39 264.933C225.467 265.094 222.029 265.109 220.111 262.481C219.415 261.528 217.924 262.346 218.503 263.424C219.929 266.083 222.787 267.111 225.658 267.322C229.153 267.579 232.823 267.135 236.298 266.77C239.909 266.394 243.507 265.885 247.079 265.24C248.951 264.904 250.815 264.528 252.672 264.116C254.331 263.748 256.451 263.566 257.86 262.578C258.727 261.972 258.375 260.751 257.339 260.642Z" fill="#FFFDFA"/>
<path d="M286.5 254.658C283.135 255.496 279.762 256.286 276.388 257.079C274.732 257.469 273.077 257.853 271.434 258.291C269.994 258.677 268.008 258.916 266.985 260.106C266.795 260.327 266.766 260.77 267.093 260.907C268.564 261.524 270.362 260.922 271.858 260.625C273.528 260.29 275.183 259.906 276.84 259.521C280.283 258.724 283.721 257.921 287.175 257.168C288.805 256.812 288.129 254.251 286.5 254.658Z" fill="#FFFDFA"/>
<path d="M402.687 202.044C395.702 198.182 383.354 203.054 374.287 211.099C365.219 219.145 347.814 247.575 331.992 254.584C316.169 261.593 303.093 265.821 292.761 272.201C282.43 278.58 260.921 289.405 250.083 307.959C239.245 326.515 232.889 345.801 230.687 352.413C228.485 359.024 223.85 370.163 224.106 375.491C224.362 380.818 225.608 384.239 225.608 384.239L319.992 355.396C319.992 355.396 325.891 344.603 328.321 341.545C330.753 338.485 334.531 335.063 340.303 324.245C346.075 313.427 353.486 296.148 358.201 291.271C362.916 286.396 370.888 280.646 374.581 273.756C378.274 266.865 384.288 252.009 389.97 242.658C395.652 233.312 414.421 208.533 402.687 202.044Z" fill="#FFFDFA"/>
<path d="M409.648 190.116C409.441 190.085 409.018 190.132 408.756 190.202C402.433 191.899 396.839 195.23 391.899 199.434C389.417 199.845 386.929 201.201 384.85 202.278C381.722 203.899 378.833 205.896 376.12 208.14C370.511 212.777 365.842 218.348 361.195 223.911C351.898 235.041 343.191 247.731 329.976 254.549C325.436 256.893 320.541 258.394 315.735 260.083C311.064 261.726 306.497 263.634 302.061 265.83C293.173 270.23 284.725 275.588 276.376 280.922C268.554 285.918 261.174 291.487 255.259 298.703C249.727 305.448 245.405 313.069 241.731 320.956C237.831 329.325 234.568 337.986 231.297 346.615C229.536 351.262 227.747 355.902 226.071 360.58C224.554 364.815 223.234 369.179 223.019 373.703C222.918 375.827 223.114 377.909 223.611 379.976C223.991 381.559 226.274 380.883 226.016 379.332C224.519 370.354 228.684 361.515 231.766 353.316C235.06 344.553 238.307 335.751 242.031 327.158C245.417 319.343 249.274 311.675 254.216 304.716C259.466 297.326 266.033 291.311 273.504 286.219C281.394 280.843 289.65 275.851 297.977 271.188C302.294 268.768 306.676 266.469 311.242 264.549C315.44 262.784 319.81 261.473 324.074 259.884C322.094 261.498 320.139 263.142 318.244 264.851C316.402 266.512 314.505 268.172 312.893 270.064C311.62 271.555 310.159 273.588 310.187 275.641C310.195 276.129 310.835 276.297 311.09 275.887C311.627 275.017 311.979 274.08 312.567 273.231C313.195 272.322 313.835 271.451 314.588 270.639C316.203 268.887 318.014 267.301 319.793 265.719C321.682 264.041 323.603 262.399 325.562 260.805C326.897 259.716 328.317 258.696 329.598 257.54C334.894 254.959 339.678 251.627 344.044 247.532C349.246 242.655 353.81 237.104 358.18 231.484C366.488 220.797 375.105 209.517 387.566 203.492C383.974 207.187 380.783 211.292 377.967 215.439C374.611 220.386 371.84 226.29 373.442 232.38C374.927 238.021 380.057 241.501 385.837 240.849C387.104 240.706 388.372 240.332 389.593 239.788C388.51 241.73 387.46 243.69 386.49 245.703C384.023 250.828 381.932 256.115 379.528 261.266C377.061 266.556 374.282 271.788 370.645 276.377C368.849 278.643 366.86 280.739 364.845 282.81C363.999 282.434 363.037 282.263 362.167 281.992C360.961 281.618 359.763 281.215 358.582 280.769C357.481 280.352 356.393 279.893 355.32 279.407C354.176 278.889 352.994 278.051 351.75 277.875C350.635 277.718 349.954 278.831 350.681 279.727C351.475 280.706 352.838 281.227 353.953 281.777C355.162 282.374 356.399 282.902 357.655 283.383C358.835 283.835 360.029 284.241 361.245 284.58C361.708 284.709 362.214 284.862 362.725 284.996C361.181 286.581 359.643 288.175 358.192 289.844C358.187 289.85 358.179 289.86 358.174 289.866C356.254 289.575 354.312 289.374 352.429 288.87C351.538 288.631 350.662 288.331 349.813 287.971C348.831 287.552 347.888 286.97 346.846 286.732C345.787 286.491 345.205 287.679 345.849 288.459C346.542 289.297 347.612 289.801 348.598 290.238C349.615 290.69 350.674 291.058 351.751 291.338C352.802 291.613 353.873 291.806 354.956 291.885C355.49 291.924 356.005 291.927 356.517 291.898C350.81 299.116 346.861 307.476 342.897 315.752C338.128 325.71 333.077 335.877 324.363 343C322.849 344.238 325.022 346.378 326.53 345.142C337.016 336.545 342.111 324.204 347.818 312.244C347.835 312.599 347.828 312.958 347.817 313.316C347.772 314.81 347.621 316.303 347.506 317.793C347.389 319.324 347.272 320.855 347.156 322.385C347.048 323.802 346.738 325.532 347.154 326.91C347.381 327.657 348.564 327.953 348.941 327.145C349.554 325.834 349.535 324.165 349.634 322.733C349.741 321.202 349.846 319.673 349.952 318.14C350.15 315.268 350.697 312.229 349.495 309.508C349.447 309.403 349.344 309.349 349.261 309.275C351.837 304.051 354.621 298.959 358.142 294.368C361.938 289.416 366.639 285.259 370.67 280.506C374.504 275.985 377.546 270.958 380.257 265.704C382.933 260.521 385.313 255.182 387.786 249.903C390.164 244.825 392.86 239.947 395.763 235.153C395.931 234.877 396.104 234.595 396.273 234.318C398.356 231.893 400.009 228.974 401.601 226.297C403.63 222.883 405.796 219.491 407.397 215.847C410.735 208.254 410.395 199.721 410.804 191.589C410.845 190.687 410.352 190.223 409.648 190.116Z" fill="#F1EAD6"/>
<path d="M311.614 269.348C309.992 270.646 308.555 272.154 307.491 273.943C306.961 274.834 306.512 275.766 306.127 276.729C305.93 277.222 305.887 277.736 305.794 278.258C305.702 278.763 305.62 279.272 305.61 279.787C305.603 280.203 306.147 280.222 306.285 279.88C306.472 279.413 306.625 278.937 306.811 278.471C306.992 278.016 307.248 277.615 307.414 277.15C307.737 276.241 308.141 275.36 308.609 274.515C309.556 272.804 310.676 271.177 312.077 269.807C312.382 269.504 311.932 269.093 311.614 269.348Z" fill="#F1EAD6"/>
</g>
</svg>
