<svg width="222" height="100" viewBox="0 0 222 100" fill="none" xmlns="http://www.w3.org/2000/svg">
<path d="M215.237 50.1622C200.792 39.0898 186.213 27.944 169.797 20.0972C145.234 8.36379 117.024 4.53837 90.1603 8.91468C63.2903 13.291 37.8587 25.7895 17.7032 44.0904C12.3537 50.2479 8.91997 52.5799 1.25684 55.377C4.74258 56.7077 8.16103 58.1919 11.5415 59.7625C11.5648 59.8188 11.5984 59.8733 11.6535 59.9217C13.8521 61.8417 16.4681 63.176 18.8931 64.7846C21.2618 66.3558 23.5632 68.0139 25.7838 69.7889C28.0876 71.6306 30.2831 73.6015 32.6286 75.3918C34.8743 77.1056 37.232 78.67 39.6588 80.1151C49.2929 85.8527 59.8664 89.658 70.544 92.9429C73.5248 93.8598 76.5123 94.7559 79.5029 95.641C82.57 96.548 85.6946 97.2005 88.7396 98.1792C88.7837 98.1933 88.8021 98.1247 88.7586 98.1101C86.1218 97.214 83.5689 96.1031 80.9253 95.2321C78.2818 94.3617 75.6266 93.5281 72.98 92.6675C67.6911 90.947 62.4157 89.1634 57.2473 87.105C52.0227 85.0246 46.9113 82.6369 42.0673 79.7718C39.6435 78.3383 37.3036 76.7622 35.0481 75.0766C32.7051 73.3254 30.5347 71.3895 28.3 69.5067C26.7607 68.2097 25.1833 66.9562 23.5718 65.7492C36.3579 72.4544 48.8822 79.7552 62.3416 84.9462C95.6506 97.7936 134.095 96.7164 166.633 82.0144C179.559 76.1746 191.523 68.3279 204.094 61.8014C203.38 62.5224 202.669 63.2477 201.937 63.9509C199.823 65.9812 197.617 67.9172 195.313 69.7289C190.478 73.5317 185.164 76.8081 179.905 79.9847C174.634 83.1681 169.211 86.1281 163.584 88.6364C157.778 91.2255 151.761 93.2949 145.618 94.9279C142.226 95.8295 138.794 96.5848 135.355 97.2819C133.656 97.6265 131.954 97.9583 130.25 98.279C129.361 98.4467 128.472 98.6119 127.586 98.7962C126.63 98.9951 125.757 99.3721 124.81 99.6041C124.595 99.6568 124.634 100.023 124.863 99.9989C125.627 99.9175 126.389 99.9922 127.145 99.8985C127.954 99.7988 128.761 99.6623 129.564 99.5233C131.188 99.2418 132.811 98.9535 134.433 98.6517C137.57 98.0678 140.698 97.4239 143.804 96.6888C150.054 95.2101 156.219 93.3781 162.173 90.958C167.953 88.6083 173.51 85.7437 178.889 82.5873C184.272 79.4278 189.661 76.1085 194.677 72.3865C197.382 70.3795 199.95 68.2042 202.417 65.9132C203.642 64.7754 204.841 63.6094 206.019 62.4232C206.989 61.4451 207.975 60.4732 208.855 59.4137C211.972 57.9123 215.135 56.51 218.372 55.2656C218.947 55.0392 219.785 55.0086 220.226 55.2901C219.124 53.1797 217.147 51.625 215.237 50.1622ZM111.289 89.1573C90.0501 89.1573 72.8386 71.9397 72.8386 50.7069C72.8386 29.468 90.0501 12.2504 111.289 12.2504C132.528 12.2504 149.739 29.468 149.739 50.7069C149.739 71.9397 132.528 89.1573 111.289 89.1573Z" fill="url(#paint0_linear_141_40182)"/>
<path d="M220.52 55.9163C220.435 55.7021 220.337 55.494 220.227 55.292C220.435 55.4266 220.551 55.6286 220.52 55.9163Z" fill="#B59D66"/>
<path d="M104.94 61.6631C102.589 66.433 99.8779 71.0247 97.5771 75.8221C99.5021 76.8749 101.559 77.7171 103.719 78.3084C105.369 73.2533 106.573 68.0397 107.475 62.7899C106.582 62.5084 105.735 62.1252 104.94 61.6631Z" fill="url(#paint1_linear_141_40182)"/>
<path d="M84.2273 60.0033C85.1001 62.5366 86.3175 64.909 87.8239 67.0654C87.8355 67.0495 87.8446 67.0323 87.8563 67.017C91.1811 62.727 95.375 59.1262 99.7036 55.8259C99.4697 55.2983 99.2843 54.7456 99.1233 54.1831C94.0119 55.7347 89.0731 57.7606 84.2273 60.0033Z" fill="url(#paint2_linear_141_40182)"/>
<path d="M98.6408 51.1966C98.6384 51.1329 98.6286 51.0718 98.6268 51.0075C96.146 50.9457 93.6653 50.7902 91.1833 50.8189C88.3176 50.8526 85.3564 51.103 82.7166 52.2481C82.8047 53.9081 83.0373 55.5288 83.3978 57.1006C88.3556 54.8268 93.4113 52.7617 98.6408 51.1966Z" fill="url(#paint3_linear_141_40182)"/>
<path d="M89.9758 69.1361C89.8852 69.253 89.7701 69.3363 89.6465 69.4048C91.2275 71.2319 93.0276 72.8649 95.0199 74.2439C97.3653 69.3638 100.131 64.6943 102.507 59.8314C102.049 59.3901 101.634 58.906 101.246 58.4004C97.1229 61.5679 93.1512 65.0389 89.9758 69.1361Z" fill="url(#paint4_linear_141_40182)"/>
<path d="M117.166 70.8211C117.446 72.6787 117.753 74.5358 118.184 76.3652C118.342 77.0361 118.519 77.7014 118.718 78.3459C121.411 77.6218 123.948 76.5183 126.265 75.0915C122.718 71.121 120.735 66.0011 117.829 61.5439C117.24 61.9008 116.617 62.2056 115.972 62.4651C116.438 65.2396 116.749 68.0429 117.166 70.8211Z" fill="url(#paint5_linear_141_40182)"/>
<path d="M114.31 71.8416C113.876 68.985 113.56 66.1009 113.08 63.248C112.495 63.3319 111.897 63.376 111.289 63.376C110.991 63.376 110.7 63.3515 110.408 63.3313C109.51 68.6129 108.311 73.8601 106.66 78.9483C108.167 79.1937 109.712 79.326 111.289 79.326C112.809 79.326 114.299 79.2029 115.754 78.974C115.035 76.6549 114.668 74.1925 114.31 71.8416Z" fill="url(#paint6_linear_141_40182)"/>
<path d="M132.088 60.4769C132.522 60.7749 132.945 61.0859 133.362 61.4078C133.066 61.1801 133.425 61.4543 133.459 61.4788C133.578 61.5675 133.696 61.6563 133.814 61.7444C134.419 62.1931 135.029 62.6344 135.64 63.0745C135.997 63.3315 136.356 63.585 136.714 63.8402C138.542 60.3122 139.663 56.3588 139.873 52.1637C138.865 52.2347 137.834 52.1698 136.834 52.13C135.28 52.0688 133.728 51.9794 132.175 51.925C129.42 51.8276 126.649 51.9293 123.913 51.6416C123.827 52.8217 123.578 53.9558 123.189 55.0227C126.123 56.8895 129.217 58.5072 132.088 60.4769Z" fill="url(#paint7_linear_141_40182)"/>
<path d="M130.574 63.0654C127.751 61.1276 124.711 59.5294 121.82 57.7012C121.34 58.421 120.797 59.0955 120.185 59.7027C121.45 61.6093 122.562 63.6211 123.668 65.6275C125.157 68.3274 126.658 71.0982 128.754 73.3751C131.271 71.4336 133.448 69.0784 135.201 66.4183C133.658 65.2927 132.131 64.1341 130.574 63.0654Z" fill="url(#paint8_linear_141_40182)"/>
<path d="M99.6517 24.5605C97.4917 25.5246 95.4712 26.7444 93.6338 28.1871C97.3895 31.952 100.045 36.6796 103.458 40.7572C104.151 40.2119 104.904 39.7406 105.704 39.3476C103.682 34.4198 101.512 29.5508 99.6517 24.5605Z" fill="url(#paint9_linear_141_40182)"/>
<path d="M108.516 38.3609C108.906 38.274 109.3 38.1981 109.703 38.1473C109.528 32.8143 109.503 27.4776 109.501 22.1416C107.051 22.2928 104.687 22.7573 102.443 23.4869C104.302 28.5102 106.479 33.408 108.516 38.3609Z" fill="url(#paint10_linear_141_40182)"/>
<path d="M85.2951 38.7334C83.8377 41.8905 82.9361 45.3573 82.7225 49.0101C87.788 47.229 93.5042 47.8784 98.9125 48.0118C98.9578 47.8025 99.0104 47.5962 99.0661 47.3912C94.6041 44.3069 89.8128 41.7332 85.2951 38.7334Z" fill="url(#paint11_linear_141_40182)"/>
<path d="M100.224 44.5531C100.553 43.9649 100.925 43.4042 101.34 42.8779C97.883 38.7482 95.1979 33.9527 91.3687 30.167C89.5656 31.9163 87.9962 33.9037 86.701 36.0735C91.13 39.0243 95.8289 41.5533 100.224 44.5531Z" fill="url(#paint12_linear_141_40182)"/>
<path d="M97.4108 2.87058C95.4619 3.88662 93.6257 5.10772 91.6769 6.13355C89.6999 7.17407 87.6978 8.17359 85.7912 9.34203C81.9021 11.7261 78.7756 14.9529 76.0648 18.5947C70.6345 25.89 66.252 34.5484 64.8381 43.5954C64.4452 46.1092 64.2671 48.6505 64.4501 51.1912C64.6251 53.6224 65.0064 56.2677 66.1394 58.4522C66.2453 58.6566 66.6235 58.5728 66.5936 58.3292C66.3279 56.1563 65.864 54.0349 65.7814 51.8375C65.6975 49.6127 65.796 47.3664 66.1149 45.1623C66.7582 40.7193 68.1647 36.3913 70.0603 32.3296C71.9131 28.3591 74.2059 24.5306 76.7472 20.9628C79.313 17.3608 82.3244 13.9876 86.0923 11.6171C88.1305 10.3348 90.2979 9.27959 92.442 8.19193C94.5634 7.1153 96.8672 6.07296 98.5835 4.39221C99.3896 3.60263 98.3686 2.37113 97.4108 2.87058Z" fill="#FFFDFA"/>
<path d="M56.7869 59.1817C56.3254 57.7935 56.2366 56.3044 56.2036 54.8489C56.187 54.1254 56.1926 53.4013 56.2048 52.6785C56.2164 52.0046 56.3591 50.9922 55.8492 50.4658C55.6766 50.2877 55.3626 50.2859 55.19 50.4658C54.6813 50.9959 54.8136 52.0003 54.8233 52.6785C54.835 53.4803 54.8576 54.2803 54.9323 55.0784C55.0762 56.6184 55.4667 58.0586 56.1705 59.4412C56.3425 59.7797 56.9075 59.5453 56.7869 59.1817Z" fill="#FFFDFA"/>
<path d="M74.601 6.65832C73.4038 7.04882 72.5959 8.17381 71.7818 9.0858C70.868 10.1098 69.9878 11.1644 69.1377 12.2422C67.3363 14.5259 65.6648 16.9056 64.1321 19.3772C61.0314 24.3784 58.364 29.7879 56.895 35.5077C56.1611 38.3648 55.8863 41.263 56.1317 44.204C56.1666 44.6214 56.7873 44.6349 56.7915 44.204C56.8179 41.6707 57.3804 39.1618 58.0359 36.7245C58.7612 34.0259 59.7828 31.4087 60.9702 28.8814C63.4105 23.6861 66.5535 18.7994 70.1317 14.3172C71.062 13.1512 72.0272 12.0127 73.0317 10.9098C73.9314 9.92126 75.1929 8.98478 75.6428 7.70004C75.8527 7.09838 75.1923 6.46552 74.601 6.65832Z" fill="#FFFDFA"/>
<path d="M48.4429 51.7072C48.3989 51.5278 48.1945 51.3516 48.001 51.3705C47.9606 51.3742 47.919 51.3797 47.8792 51.3871C47.6938 51.4213 47.531 51.6423 47.5426 51.829C47.6393 53.38 48.012 54.9004 48.1638 56.4465C48.2 56.8162 48.749 56.8327 48.752 56.4465C48.7631 54.8728 48.8237 53.2459 48.4429 51.7072Z" fill="#FFFDFA"/>
<path d="M55.0858 16.8342C52.842 20.0176 51.2022 23.6264 49.855 27.2688C48.4032 31.194 47.2709 35.3433 46.9392 39.5292C46.7745 41.6066 46.8816 43.6411 47.2237 45.6964C47.2794 46.03 47.8358 45.9535 47.8156 45.6163C47.7079 43.8278 47.916 42.013 48.1804 40.2441C48.4705 38.3039 48.8684 36.3819 49.3868 34.4894C50.4634 30.5587 51.8951 26.7204 53.7619 23.0945C54.688 21.2956 55.7193 19.5396 56.8951 17.8919C57.6773 16.7944 55.8583 15.7386 55.0858 16.8342Z" fill="#FFFDFA"/>
<path d="M44.8103 21.4714C44.3451 21.7101 44.0017 21.9005 43.6694 22.3179C43.3144 22.7641 42.9747 23.2226 42.6558 23.6951C42.0309 24.6224 41.4782 25.598 40.9787 26.5975C39.8519 28.8506 38.9674 31.2273 38.2568 33.6419C36.7848 38.6425 35.8937 43.9798 36.0687 49.2026C36.1116 50.4879 36.2205 51.7702 36.4066 53.0433C36.5816 54.2436 36.9954 55.3717 37.4269 56.5022C37.5218 56.7507 37.8804 56.6576 37.8278 56.3914C37.6276 55.3692 37.6295 54.3605 37.5328 53.3292C37.4305 52.2434 37.3834 51.1551 37.3871 50.0637C37.3951 47.6197 37.5977 45.1513 37.9496 42.7336C38.667 37.8101 39.9725 32.8523 42.1527 28.3652C42.6785 27.2824 43.2605 26.2248 43.9197 25.2167C44.208 24.7766 44.5085 24.3427 44.8335 23.9277C45.0178 23.6926 45.2479 23.4729 45.412 23.2238C45.5778 22.9716 45.6427 22.6956 45.7627 22.4226C46.0375 21.7971 45.4677 21.1342 44.8103 21.4714Z" fill="#FFFDFA"/>
<path d="M31.6116 51.7709C31.5859 51.4759 31.5565 51.1808 31.5229 50.8864C31.4868 50.5706 31.4506 50.2535 31.4005 49.9401C31.357 49.6672 31.3001 49.3348 31.1495 49.0882C31.1183 49.0098 31.0865 48.9309 31.0546 48.8525C30.9616 48.6242 30.7737 48.4583 30.5117 48.4981C30.2663 48.5348 30.0894 48.7325 30.0827 48.9841C30.0796 49.0869 30.0765 49.1891 30.0729 49.2914C30.0514 49.4064 30.052 49.5184 30.0637 49.6586C30.0771 49.8165 30.0851 49.9756 30.1059 50.133C30.1286 50.3025 30.1561 50.4714 30.1806 50.6403C30.1824 50.6544 30.1959 50.7518 30.1989 50.7707C30.2069 50.8325 30.2155 50.8944 30.2228 50.9568C30.2583 51.2396 30.2901 51.523 30.3177 51.807C30.3348 51.9832 30.3403 52.165 30.374 52.3389C30.3893 52.4166 30.4163 52.4901 30.4548 52.5598C30.4303 52.5347 30.4266 52.5414 30.4426 52.58C30.4597 52.6626 30.4774 52.7453 30.4946 52.8285C30.5503 53.0978 30.8508 53.268 31.1085 53.2288C31.3943 53.186 31.5737 52.9644 31.5939 52.6798C31.5988 52.6063 31.6031 52.5323 31.6092 52.4588C31.6153 52.3841 31.6367 52.3236 31.6398 52.2036C31.6441 52.0604 31.6238 51.9135 31.6116 51.7709Z" fill="#FFFDFA"/>
<path d="M34.4872 27.9895C33.8157 27.5837 33.1192 28.9058 32.9215 29.3202C32.0474 31.1491 31.2505 33.074 30.5864 34.9886C29.8177 37.2037 29.2723 39.4947 29.249 41.8481C29.2448 42.26 29.8936 42.3665 29.9817 41.9472C30.8521 37.817 32.6754 34.1317 34.347 30.2915C34.5355 29.8582 34.792 29.3453 34.7908 28.8642C34.7901 28.6212 34.7296 28.1358 34.4872 27.9895Z" fill="#FFFDFA"/>
<path d="M26.5546 32.9567C26.0845 33.7371 25.8593 34.6693 25.571 35.5286C25.2735 36.4149 24.9828 37.303 24.708 38.1967C24.1994 39.8486 23.7642 41.522 23.4514 43.2224C23.1503 44.856 22.9532 46.5123 22.9306 48.1741C22.9048 50.0905 23.1919 51.8606 23.5971 53.7243C23.6889 54.1479 24.3811 54.0585 24.3579 53.6215C24.1779 50.2067 24.4099 46.6463 25.1517 43.3056C25.5086 41.6989 25.975 40.1168 26.472 38.548C26.7413 37.6985 27.0247 36.8532 27.3142 36.0097C27.6123 35.1394 27.9753 34.2898 28.0915 33.3735C28.1999 32.5179 26.942 32.3134 26.5546 32.9567Z" fill="#FFFDFA"/>
<path d="M17.1136 39.5349C16.1159 41.84 15.502 44.3911 15.0411 46.8571C14.56 49.4315 14.527 51.9532 14.6164 54.5631C14.6341 55.0901 15.4084 55.0883 15.4341 54.5631C15.5534 52.0848 16.0559 49.5839 16.649 47.1772C17.2287 44.8256 18.1535 42.5518 18.6738 40.1923C18.869 39.3048 17.5175 38.6015 17.1136 39.5349Z" fill="#FFFDFA"/>
<path d="M154.672 54.3638C154.432 54.7132 154.248 54.9758 154.103 55.3792C153.962 55.7721 153.849 56.1706 153.751 56.5758C153.555 57.3807 153.411 58.1959 153.267 59.0112C152.979 60.6326 152.552 62.235 152.339 63.8674C152.323 63.9947 152.495 64.0027 152.553 63.9255C153.546 62.6139 153.746 60.8811 154.04 59.3081C154.186 58.5203 154.333 57.7314 154.523 56.9522C154.621 56.5476 154.731 56.1443 154.851 55.7452C154.972 55.3431 155.035 54.9617 155.13 54.5566C155.198 54.2738 154.832 54.1306 154.672 54.3638Z" fill="#FFFDFA"/>
<path d="M148.124 23.6072C144.608 17.683 140.018 12.1719 134.348 8.20322C131.423 6.15523 127.934 4.2523 124.342 3.82936C123.312 3.70817 123.19 5.29038 124.106 5.57622C125.567 6.03221 127.046 6.42454 128.461 7.0158C129.901 7.61686 131.283 8.3642 132.603 9.19478C135.355 10.9269 137.828 13.0686 140.069 15.4189C144.719 20.2959 148.461 26.1247 151.171 32.2858C152.519 35.3474 153.574 38.5498 154.402 41.7882C154.472 42.0624 154.941 42.0153 154.909 41.7197C154.218 35.3333 151.372 29.081 148.124 23.6072Z" fill="#FFFDFA"/>
<path d="M166.135 47.7809C166.061 47.4847 165.611 47.4124 165.466 47.6934C165.081 48.4395 165.061 49.2132 164.996 50.0364C164.923 50.9508 164.873 51.8671 164.784 52.7803C164.627 54.3956 164.374 56.1333 163.519 57.5465C163.436 57.6842 163.436 57.8556 163.496 58.0013C163.486 58.0178 163.477 58.0343 163.467 58.0503C163.321 58.2969 163.648 58.5228 163.851 58.3459C163.867 58.3318 163.882 58.3165 163.899 58.3024C164.094 58.3263 164.269 58.2443 164.402 58.0619C165.427 56.6547 165.714 54.8393 165.927 53.1525C166.042 52.238 166.123 51.3187 166.177 50.3987C166.229 49.5149 166.353 48.6494 166.135 47.7809Z" fill="#FFFDFA"/>
<path d="M166.038 40.761C164.294 35.5547 162.678 30.3374 160.475 25.2958C158.258 20.2217 155.477 15.1739 151.361 11.3821C150.372 10.4714 149.304 9.63467 148.17 8.91181C147.086 8.22017 145.792 7.44898 144.515 7.19925C143.971 7.09275 143.268 7.26472 143.199 7.90617C143.119 8.64739 143.919 8.96692 144.466 9.21848C145.676 9.77424 146.846 10.3594 147.955 11.1036C152.527 14.172 155.672 19.03 158.159 23.839C161.003 29.3415 163.075 35.2125 165.443 40.9256C165.591 41.2806 166.168 41.1472 166.038 40.761Z" fill="#FFFDFA"/>
<path d="M175.092 55.25C175.057 54.7555 174.962 53.7596 174.325 53.6954C173.583 53.6207 173.706 54.6196 173.745 55.0842C173.793 55.646 173.791 56.2067 173.752 56.7692C173.711 57.3451 173.648 57.9199 173.58 58.4934C173.546 58.7823 173.511 59.0681 173.496 59.3589C173.48 59.6729 173.509 59.966 173.521 60.2776C173.54 60.7789 174.268 60.9 174.409 60.3975C174.492 60.1001 174.597 59.8204 174.668 59.5174C174.73 59.253 174.776 58.9879 174.82 58.7199C174.916 58.1292 175.01 57.5373 175.061 56.9405C175.109 56.3787 175.13 55.8131 175.092 55.25Z" fill="#FFFDFA"/>
<path d="M174.269 31.9223C172.855 27.1035 170.722 22.3477 167.814 18.2401C167.111 17.2467 166.358 16.2814 165.534 15.3848C164.784 14.5676 163.913 13.5754 162.77 13.4224C162.348 13.3661 161.928 13.9225 162.092 14.3124C162.456 15.1791 163.265 15.7502 163.917 16.4081C164.631 17.1267 165.296 17.8973 165.913 18.7003C167.317 20.5268 168.524 22.5111 169.594 24.5487C171.833 28.8099 173.546 33.4396 174.347 38.1954C174.716 40.3891 174.926 42.7082 174.587 44.9209C174.523 45.3389 175.115 45.528 175.237 45.1002C176.454 40.8249 175.49 36.0856 174.269 31.9223Z" fill="#FFFDFA"/>
<path d="M184.514 30.8164C183.733 28.3993 182.764 26.0416 181.623 23.7733C181.143 22.8196 179.687 23.6625 180.185 24.613C184.185 32.2321 186.627 41.6084 184.886 50.1897C184.389 52.6398 183.448 54.9387 182.39 57.1948C182.247 57.499 182.653 57.8963 182.897 57.586C185.663 54.0629 186.564 49.225 186.689 44.8402C186.824 40.0942 185.97 35.3218 184.514 30.8164Z" fill="#FFFDFA"/>
<path d="M196.802 46.7521C196.839 46.4718 196.555 46.2153 196.302 46.1847C196.012 46.1498 195.758 46.3182 195.668 46.5985C195.195 48.0718 195.344 49.6962 195.726 51.1731C195.788 51.4094 196.05 51.5526 196.282 51.489C196.541 51.418 196.633 51.1756 196.598 50.9332C196.392 49.5328 196.619 48.1415 196.802 46.7521Z" fill="#FFFDFA"/>
<path d="M195.469 36.112C195.299 35.2533 195.105 34.3958 194.851 33.5578C194.594 32.7101 194.336 31.7553 193.876 30.9951C193.441 30.2765 192.29 30.7429 192.513 31.5698C192.731 32.3802 193.115 33.1618 193.369 33.9655C193.634 34.8016 193.873 35.6425 194.075 36.4958C194.461 38.1288 194.908 39.7636 195.204 41.4144C195.278 41.8275 195.958 41.7333 195.937 41.3152C195.845 39.5598 195.812 37.8454 195.469 36.112Z" fill="#FFFDFA"/>
<path d="M204.421 41.8785C204.208 41.0638 203.629 39.3084 202.562 39.3549C202.109 39.3745 201.816 39.7007 201.777 40.1402C201.735 40.6219 202.191 41.0063 202.403 41.4139C202.598 41.7891 202.729 42.1918 202.835 42.6007C203.108 43.6492 203.172 44.7307 203.206 45.8086C203.243 46.9581 203.173 48.102 203.156 49.2509C203.141 50.2914 203.196 51.3246 203.146 52.3639C203.129 52.7305 203.723 52.8199 203.794 52.4514C204.001 51.3815 204.312 50.3483 204.491 49.2717C204.702 48.0029 204.793 46.6851 204.798 45.3997C204.801 44.227 204.718 43.0175 204.421 41.8785Z" fill="#FFFDFA"/>
<path d="M212.168 45.9277C211.675 45.4448 210.977 45.946 211.083 46.5593C211.152 46.956 211.312 47.3464 211.402 47.7412C211.493 48.1366 211.518 48.4616 211.518 48.9066C211.518 49.78 211.381 50.5605 211.201 51.4143C211.119 51.8042 211.316 52.2124 211.717 52.3232C212.087 52.4248 212.539 52.1983 212.626 51.8072C212.842 50.8279 213.024 49.8229 213.022 48.8167C213.02 47.8612 212.891 46.6346 212.168 45.9277Z" fill="#FFFDFA"/>
<path d="M220.892 51.5703C218.07 49.6778 215.359 47.7436 212.791 45.5108C210.2 43.2584 207.715 40.8872 205.098 38.6654C202.423 36.3946 199.581 34.3227 196.808 32.1749C193.957 29.9672 191.113 27.7534 188.239 25.5762C182.583 21.2911 176.802 17.1737 170.679 13.5753C164.556 9.97633 158.112 7.01883 151.323 4.91086C147.456 3.70997 143.555 2.78083 139.601 1.9276C135.777 1.10192 131.971 0.339883 128.07 0.000795088C127.83 -0.0200154 127.777 0.374165 128.013 0.423743C131.441 1.14109 134.896 1.71828 138.323 2.4448C141.802 3.18235 145.28 4.16841 148.661 5.27136C155.452 7.48645 161.847 10.4525 168.007 14.0638C174.095 17.6334 179.857 21.7404 185.486 25.99C188.33 28.1377 191.139 30.332 193.947 32.5269C196.702 34.6802 199.517 36.7698 202.223 38.9842C205.147 41.3768 207.882 43.9886 210.72 46.4791C213.541 48.9549 216.528 51.5733 219.915 53.2431C221.033 53.7946 221.932 52.2681 220.892 51.5703Z" fill="#B59D66"/>
<path d="M93.7882 1.50076C87.0064 2.23892 80.3152 4.19998 73.8383 6.28653C67.2224 8.41716 60.7228 10.893 54.4154 13.8156C41.7706 19.6744 30.0256 27.2818 19.6797 36.6318C13.2377 42.4532 7.07474 48.5832 0.348067 54.0851C-0.672257 54.9193 0.777146 56.3308 1.78829 55.5253C7.74987 50.7787 13.133 45.3887 18.6827 40.18C23.7849 35.3912 29.1124 30.9084 34.8579 26.906C46.1635 19.0317 58.6002 12.5817 71.6153 8.04198C75.2259 6.78234 78.8818 5.65061 82.5719 4.64742C86.3105 3.63138 90.09 2.78489 93.8206 1.74008C93.9479 1.70458 93.9289 1.48546 93.7882 1.50076Z" fill="#B59D66"/>
<defs>
<linearGradient id="paint0_linear_141_40182" x1="1.25684" y1="53.5793" x2="220.226" y2="53.5793" gradientUnits="userSpaceOnUse">
<stop stop-color="#7F613B"/>
<stop offset="0.0431" stop-color="#876A42"/>
<stop offset="0.1144" stop-color="#9D8455"/>
<stop offset="0.1224" stop-color="#A08757"/>
<stop offset="0.1603" stop-color="#AB9461"/>
<stop offset="0.2221" stop-color="#C5B278"/>
<stop offset="0.2857" stop-color="#D7C687"/>
<stop offset="0.3395" stop-color="#EADB97"/>
<stop offset="0.4454" stop-color="#E5D593"/>
<stop offset="0.6314" stop-color="#CFBC7F"/>
<stop offset="0.7336" stop-color="#B59D66"/>
<stop offset="0.8686" stop-color="#927546"/>
<stop offset="1" stop-color="#826337"/>
</linearGradient>
<linearGradient id="paint1_linear_141_40182" x1="62.1738" y1="69.9857" x2="179.439" y2="69.9857" gradientUnits="userSpaceOnUse">
<stop stop-color="#7F613B"/>
<stop offset="0.0431" stop-color="#876A42"/>
<stop offset="0.1144" stop-color="#9D8455"/>
<stop offset="0.1224" stop-color="#A08757"/>
<stop offset="0.1603" stop-color="#AB9461"/>
<stop offset="0.2221" stop-color="#C5B278"/>
<stop offset="0.2857" stop-color="#D7C687"/>
<stop offset="0.3395" stop-color="#EADB97"/>
<stop offset="0.4454" stop-color="#E5D593"/>
<stop offset="0.6314" stop-color="#CFBC7F"/>
<stop offset="0.7336" stop-color="#B59D66"/>
<stop offset="0.8686" stop-color="#927546"/>
<stop offset="1" stop-color="#826337"/>
</linearGradient>
<linearGradient id="paint2_linear_141_40182" x1="62.1738" y1="60.6242" x2="179.439" y2="60.6242" gradientUnits="userSpaceOnUse">
<stop stop-color="#7F613B"/>
<stop offset="0.0431" stop-color="#876A42"/>
<stop offset="0.1144" stop-color="#9D8455"/>
<stop offset="0.1224" stop-color="#A08757"/>
<stop offset="0.1603" stop-color="#AB9461"/>
<stop offset="0.2221" stop-color="#C5B278"/>
<stop offset="0.2857" stop-color="#D7C687"/>
<stop offset="0.3395" stop-color="#EADB97"/>
<stop offset="0.4454" stop-color="#E5D593"/>
<stop offset="0.6314" stop-color="#CFBC7F"/>
<stop offset="0.7336" stop-color="#B59D66"/>
<stop offset="0.8686" stop-color="#927546"/>
<stop offset="1" stop-color="#826337"/>
</linearGradient>
<linearGradient id="paint3_linear_141_40182" x1="62.1736" y1="53.9583" x2="179.439" y2="53.9583" gradientUnits="userSpaceOnUse">
<stop stop-color="#7F613B"/>
<stop offset="0.0431" stop-color="#876A42"/>
<stop offset="0.1144" stop-color="#9D8455"/>
<stop offset="0.1224" stop-color="#A08757"/>
<stop offset="0.1603" stop-color="#AB9461"/>
<stop offset="0.2221" stop-color="#C5B278"/>
<stop offset="0.2857" stop-color="#D7C687"/>
<stop offset="0.3395" stop-color="#EADB97"/>
<stop offset="0.4454" stop-color="#E5D593"/>
<stop offset="0.6314" stop-color="#CFBC7F"/>
<stop offset="0.7336" stop-color="#B59D66"/>
<stop offset="0.8686" stop-color="#927546"/>
<stop offset="1" stop-color="#826337"/>
</linearGradient>
<linearGradient id="paint4_linear_141_40182" x1="62.1738" y1="66.3223" x2="179.439" y2="66.3223" gradientUnits="userSpaceOnUse">
<stop stop-color="#7F613B"/>
<stop offset="0.0431" stop-color="#876A42"/>
<stop offset="0.1144" stop-color="#9D8455"/>
<stop offset="0.1224" stop-color="#A08757"/>
<stop offset="0.1603" stop-color="#AB9461"/>
<stop offset="0.2221" stop-color="#C5B278"/>
<stop offset="0.2857" stop-color="#D7C687"/>
<stop offset="0.3395" stop-color="#EADB97"/>
<stop offset="0.4454" stop-color="#E5D593"/>
<stop offset="0.6314" stop-color="#CFBC7F"/>
<stop offset="0.7336" stop-color="#B59D66"/>
<stop offset="0.8686" stop-color="#927546"/>
<stop offset="1" stop-color="#826337"/>
</linearGradient>
<linearGradient id="paint5_linear_141_40182" x1="62.1736" y1="69.9453" x2="179.439" y2="69.9453" gradientUnits="userSpaceOnUse">
<stop stop-color="#7F613B"/>
<stop offset="0.0431" stop-color="#876A42"/>
<stop offset="0.1144" stop-color="#9D8455"/>
<stop offset="0.1224" stop-color="#A08757"/>
<stop offset="0.1603" stop-color="#AB9461"/>
<stop offset="0.2221" stop-color="#C5B278"/>
<stop offset="0.2857" stop-color="#D7C687"/>
<stop offset="0.3395" stop-color="#EADB97"/>
<stop offset="0.4454" stop-color="#E5D593"/>
<stop offset="0.6314" stop-color="#CFBC7F"/>
<stop offset="0.7336" stop-color="#B59D66"/>
<stop offset="0.8686" stop-color="#927546"/>
<stop offset="1" stop-color="#826337"/>
</linearGradient>
<linearGradient id="paint6_linear_141_40182" x1="62.1736" y1="71.2878" x2="179.44" y2="71.2878" gradientUnits="userSpaceOnUse">
<stop stop-color="#7F613B"/>
<stop offset="0.0431" stop-color="#876A42"/>
<stop offset="0.1144" stop-color="#9D8455"/>
<stop offset="0.1224" stop-color="#A08757"/>
<stop offset="0.1603" stop-color="#AB9461"/>
<stop offset="0.2221" stop-color="#C5B278"/>
<stop offset="0.2857" stop-color="#D7C687"/>
<stop offset="0.3395" stop-color="#EADB97"/>
<stop offset="0.4454" stop-color="#E5D593"/>
<stop offset="0.6314" stop-color="#CFBC7F"/>
<stop offset="0.7336" stop-color="#B59D66"/>
<stop offset="0.8686" stop-color="#927546"/>
<stop offset="1" stop-color="#826337"/>
</linearGradient>
<linearGradient id="paint7_linear_141_40182" x1="62.1746" y1="57.7408" x2="179.44" y2="57.7408" gradientUnits="userSpaceOnUse">
<stop stop-color="#7F613B"/>
<stop offset="0.0431" stop-color="#876A42"/>
<stop offset="0.1144" stop-color="#9D8455"/>
<stop offset="0.1224" stop-color="#A08757"/>
<stop offset="0.1603" stop-color="#AB9461"/>
<stop offset="0.2221" stop-color="#C5B278"/>
<stop offset="0.2857" stop-color="#D7C687"/>
<stop offset="0.3395" stop-color="#EADB97"/>
<stop offset="0.4454" stop-color="#E5D593"/>
<stop offset="0.6314" stop-color="#CFBC7F"/>
<stop offset="0.7336" stop-color="#B59D66"/>
<stop offset="0.8686" stop-color="#927546"/>
<stop offset="1" stop-color="#826337"/>
</linearGradient>
<linearGradient id="paint8_linear_141_40182" x1="62.1738" y1="65.5379" x2="179.439" y2="65.5379" gradientUnits="userSpaceOnUse">
<stop stop-color="#7F613B"/>
<stop offset="0.0431" stop-color="#876A42"/>
<stop offset="0.1144" stop-color="#9D8455"/>
<stop offset="0.1224" stop-color="#A08757"/>
<stop offset="0.1603" stop-color="#AB9461"/>
<stop offset="0.2221" stop-color="#C5B278"/>
<stop offset="0.2857" stop-color="#D7C687"/>
<stop offset="0.3395" stop-color="#EADB97"/>
<stop offset="0.4454" stop-color="#E5D593"/>
<stop offset="0.6314" stop-color="#CFBC7F"/>
<stop offset="0.7336" stop-color="#B59D66"/>
<stop offset="0.8686" stop-color="#927546"/>
<stop offset="1" stop-color="#826337"/>
</linearGradient>
<linearGradient id="paint9_linear_141_40182" x1="62.1735" y1="32.6588" x2="179.438" y2="32.6588" gradientUnits="userSpaceOnUse">
<stop stop-color="#7F613B"/>
<stop offset="0.0431" stop-color="#876A42"/>
<stop offset="0.1144" stop-color="#9D8455"/>
<stop offset="0.1224" stop-color="#A08757"/>
<stop offset="0.1603" stop-color="#AB9461"/>
<stop offset="0.2221" stop-color="#C5B278"/>
<stop offset="0.2857" stop-color="#D7C687"/>
<stop offset="0.3395" stop-color="#EADB97"/>
<stop offset="0.4454" stop-color="#E5D593"/>
<stop offset="0.6314" stop-color="#CFBC7F"/>
<stop offset="0.7336" stop-color="#B59D66"/>
<stop offset="0.8686" stop-color="#927546"/>
<stop offset="1" stop-color="#826337"/>
</linearGradient>
<linearGradient id="paint10_linear_141_40182" x1="62.174" y1="30.2515" x2="179.439" y2="30.2515" gradientUnits="userSpaceOnUse">
<stop stop-color="#7F613B"/>
<stop offset="0.0431" stop-color="#876A42"/>
<stop offset="0.1144" stop-color="#9D8455"/>
<stop offset="0.1224" stop-color="#A08757"/>
<stop offset="0.1603" stop-color="#AB9461"/>
<stop offset="0.2221" stop-color="#C5B278"/>
<stop offset="0.2857" stop-color="#D7C687"/>
<stop offset="0.3395" stop-color="#EADB97"/>
<stop offset="0.4454" stop-color="#E5D593"/>
<stop offset="0.6314" stop-color="#CFBC7F"/>
<stop offset="0.7336" stop-color="#B59D66"/>
<stop offset="0.8686" stop-color="#927546"/>
<stop offset="1" stop-color="#826337"/>
</linearGradient>
<linearGradient id="paint11_linear_141_40182" x1="62.1736" y1="43.872" x2="179.439" y2="43.872" gradientUnits="userSpaceOnUse">
<stop stop-color="#7F613B"/>
<stop offset="0.0431" stop-color="#876A42"/>
<stop offset="0.1144" stop-color="#9D8455"/>
<stop offset="0.1224" stop-color="#A08757"/>
<stop offset="0.1603" stop-color="#AB9461"/>
<stop offset="0.2221" stop-color="#C5B278"/>
<stop offset="0.2857" stop-color="#D7C687"/>
<stop offset="0.3395" stop-color="#EADB97"/>
<stop offset="0.4454" stop-color="#E5D593"/>
<stop offset="0.6314" stop-color="#CFBC7F"/>
<stop offset="0.7336" stop-color="#B59D66"/>
<stop offset="0.8686" stop-color="#927546"/>
<stop offset="1" stop-color="#826337"/>
</linearGradient>
<linearGradient id="paint12_linear_141_40182" x1="62.1736" y1="37.3603" x2="179.438" y2="37.3603" gradientUnits="userSpaceOnUse">
<stop stop-color="#7F613B"/>
<stop offset="0.0431" stop-color="#876A42"/>
<stop offset="0.1144" stop-color="#9D8455"/>
<stop offset="0.1224" stop-color="#A08757"/>
<stop offset="0.1603" stop-color="#AB9461"/>
<stop offset="0.2221" stop-color="#C5B278"/>
<stop offset="0.2857" stop-color="#D7C687"/>
<stop offset="0.3395" stop-color="#EADB97"/>
<stop offset="0.4454" stop-color="#E5D593"/>
<stop offset="0.6314" stop-color="#CFBC7F"/>
<stop offset="0.7336" stop-color="#B59D66"/>
<stop offset="0.8686" stop-color="#927546"/>
<stop offset="1" stop-color="#826337"/>
</linearGradient>
</defs>
</svg>
