<svg width="192" height="78" viewBox="0 0 192 78" fill="none" xmlns="http://www.w3.org/2000/svg">
<g opacity="0.4">
<path d="M191.363 0.772461V7.75244" stroke="white"/>
<path d="M191.363 10.7046V17.6846" stroke="white"/>
<path d="M191.363 20.6367V27.6167" stroke="white"/>
<path d="M191.363 30.5688V37.5488" stroke="white"/>
<path d="M191.363 40.501V47.481" stroke="white"/>
<path d="M191.363 50.4331V57.4131" stroke="white"/>
<path d="M191.363 60.3652V67.3452" stroke="white"/>
<path d="M1.41211 0.772461V7.75244" stroke="white"/>
<path d="M1.41211 10.7046V17.6846" stroke="white"/>
<path d="M1.41211 20.6367V27.6167" stroke="white"/>
<path d="M1.41211 30.5688V37.5488" stroke="white"/>
<path d="M1.41211 40.501V47.481" stroke="white"/>
<path d="M1.41211 50.4331V57.4131" stroke="white"/>
<path d="M1.41211 60.3652V67.3452" stroke="white"/>
<path d="M7.71094 76.5679H14.6909" stroke="white"/>
<path d="M17.6445 76.5679H24.6245" stroke="white"/>
<path d="M27.5742 76.5679H34.5542" stroke="white"/>
<path d="M37.5078 76.5679H44.4878" stroke="white"/>
<path d="M47.4395 76.5679H54.4194" stroke="white"/>
<path d="M57.3711 76.5679H64.3511" stroke="white"/>
<path d="M67.3047 76.5679H74.2847" stroke="white"/>
<path d="M77.5039 76.5679H84.4839" stroke="white"/>
<path d="M87.4355 76.5679H94.4155" stroke="white"/>
<path d="M97.3672 76.5679H104.347" stroke="white"/>
<path d="M107.301 76.5679H114.281" stroke="white"/>
<path d="M117.232 76.5679H124.212" stroke="white"/>
<path d="M127.164 76.5679H134.144" stroke="white"/>
<path d="M137.098 76.5679H144.078" stroke="white"/>
<path d="M146.982 76.5679H153.962" stroke="white"/>
<path d="M156.914 76.5679H163.894" stroke="white"/>
<path d="M166.848 76.5679H173.828" stroke="white"/>
<path d="M176.779 76.5679H183.759" stroke="white"/>
</g>
</svg>
