<svg width="60" height="82" viewBox="0 0 60 82" fill="none" xmlns="http://www.w3.org/2000/svg">
<path d="M31.5661 13.7073C31.5661 13.7073 33.8228 23.7561 34.4826 26.6947C35.1429 29.6337 45.3635 30.7121 50.0194 39.2876C54.6742 47.8636 47.5629 79.1187 39.5922 80.9094C31.6208 82.7 11.8274 57.4872 12.3683 47.7446C12.9084 38.0023 21.6872 32.6562 21.0273 29.7176C20.3671 26.7789 18.1097 16.7301 18.1097 16.7301L31.5661 13.7073Z" fill="white" stroke="#31344E" stroke-width="1.03792" stroke-miterlimit="10" stroke-linecap="round" stroke-linejoin="round"/>
<path d="M39.1966 79.1485C38.6325 79.2753 36.4226 79.376 31.6717 75.3534C22.8401 67.8738 13.8427 53.7335 14.1698 47.8447C14.4666 42.4933 17.6235 38.4658 19.9299 35.525C21.7763 33.1706 23.2338 31.3111 22.7869 29.3217L20.266 18.0953L30.2003 15.8638L32.7219 27.0905C33.1689 29.0795 35.2822 30.1373 37.9576 31.4758C41.2994 33.1482 45.8763 35.4385 48.4324 40.1491C51.2468 45.3327 49.1604 61.9621 44.375 72.5001C41.8017 78.1682 39.7603 79.0216 39.1966 79.1485Z" fill="white" stroke="#31344E" stroke-width="1.03792" stroke-miterlimit="10" stroke-linecap="round" stroke-linejoin="round"/>
<path d="M31.7743 9.54126C33.4114 10.9804 33.2168 13.4059 32.3683 14.7463C31.5194 16.0863 29.0902 17.6995 25.5718 18.49C22.0533 19.2802 19.1667 18.8609 17.8271 18.0124C16.4871 17.1639 15.274 15.0547 16.1379 13.0537L31.7743 9.54126Z" fill="white" stroke="#31344E" stroke-width="1.03792" stroke-miterlimit="10" stroke-linecap="round" stroke-linejoin="round"/>
<path d="M31.774 9.54115C32.0356 10.7071 28.7478 12.439 24.4299 13.4084C20.1116 14.3782 16.3996 14.2191 16.1376 13.0536C15.876 11.888 19.1638 10.1561 23.481 9.18631C27.7993 8.2165 31.512 8.37595 31.774 9.54115Z" fill="#31344E" stroke="#31344E" stroke-width="1.03792" stroke-miterlimit="10" stroke-linecap="round" stroke-linejoin="round"/>
<path d="M24.2584 12.6416C22.2556 13.0915 19.074 13.0997 18.1955 12.685C17.3182 12.2703 15.1877 5.14775 15.105 4.55411C15.0215 3.96085 18.5844 2.26602 21.7675 1.55111C24.9501 0.836196 28.8956 0.84443 29.0738 1.41636C29.2531 1.98829 30.373 9.33803 29.7573 10.0881C29.1404 10.8386 26.2557 12.1928 24.2584 12.6416Z" fill="white" stroke="#31344E" stroke-width="1.03792" stroke-miterlimit="10" stroke-linecap="round" stroke-linejoin="round"/>
<path d="M15.6462 4.50908C19.153 6.29299 24.9097 4.70783 27.9749 2.64806C28.1433 2.53465 28.0232 2.29098 27.83 2.36621C24.2588 3.75449 19.6014 5.30259 15.6874 4.42486C15.6395 4.41363 15.5942 4.48287 15.6462 4.50908Z" fill="#31344E"/>
<path d="M18.6894 7.28008C18.2747 7.36542 18.0003 7.78314 18.086 8.19824C18.1721 8.61296 18.5891 8.88807 19.0042 8.80236C19.4189 8.71664 19.694 8.2993 19.6079 7.8842C19.5229 7.4691 19.1052 7.19437 18.6894 7.28008Z" fill="#31344E"/>
<path d="M20.4271 6.80853C19.8859 6.92007 20.0596 7.75887 20.5993 7.6477C21.1413 7.53579 20.9684 6.69699 20.4271 6.80853Z" fill="#31344E"/>
<path d="M20.0247 8.54012C19.7245 8.60188 19.8203 9.0675 20.1205 9.00574C20.4203 8.94361 20.3249 8.47798 20.0247 8.54012Z" fill="#31344E"/>
<path d="M18.698 9.92193C18.137 10.0376 18.3166 10.9078 18.8777 10.7918C19.438 10.6765 19.2591 9.80628 18.698 9.92193Z" fill="#31344E"/>
<path d="M19.4799 11.1108C18.8185 11.2467 19.03 12.2723 19.6917 12.136C20.352 11.9998 20.1405 10.9746 19.4799 11.1108Z" fill="#31344E"/>
<path d="M27.1493 4.82786C26.4377 4.97458 26.6649 6.07764 27.3765 5.93092C28.088 5.78419 27.8597 4.68113 27.1493 4.82786Z" fill="#31344E"/>
<path d="M25.9339 7.27518C26.4358 7.17187 26.2753 6.39557 25.7737 6.49925C25.2729 6.60219 25.4331 7.37886 25.9339 7.27518Z" fill="#31344E"/>
<path d="M24.5862 8.1138C24.3478 8.16283 24.149 8.47837 24.3014 8.70519C24.3066 8.71118 24.3107 8.71717 24.3141 8.72316C24.5447 9.06602 25.0002 8.97207 25.0773 8.56595C25.078 8.55922 25.0795 8.5521 25.0814 8.54462C25.1319 8.27587 24.825 8.06477 24.5862 8.1138Z" fill="#31344E"/>
<path d="M23.6962 6.5126C23.2362 6.6073 23.3829 7.32183 23.8441 7.22676C24.3048 7.13169 24.1573 6.41753 23.6962 6.5126Z" fill="#31344E"/>
<path d="M26.5286 9.18236C25.893 9.31374 26.0962 10.3008 26.7329 10.169C27.3689 10.038 27.1652 9.05135 26.5286 9.18236Z" fill="#31344E"/>
<path d="M47.6401 40.5795C46.683 38.8166 45.4108 37.4081 44.0244 36.2448C43.9357 36.1699 43.8458 36.0962 43.7564 36.0232C42.8326 36.8545 42.0702 37.9145 41.5499 39.0333C39.7701 42.9489 39.1042 46.9565 34.8132 48.9571C30.9306 50.7766 28.1754 48.9695 24.1951 48.5851C21.5724 48.3238 18.0719 49.4508 15.709 51.4934C15.7157 51.5125 15.7206 51.5315 15.7277 51.5506C17.9263 58.1952 25.2562 68.7385 32.2556 74.6655C36.9782 78.6645 38.9189 78.2872 38.9987 78.2693C39.0791 78.2517 40.9952 77.7625 43.5542 72.1277C48.1593 61.9857 50.2976 45.4754 47.6401 40.5795Z" fill="#31344E"/>
<path d="M41.5499 39.0328C39.7701 42.9484 39.1042 46.956 34.8132 48.9566C30.9306 50.7761 28.1754 48.969 24.1951 48.5846C21.5724 48.3233 18.0719 49.4503 15.709 51.4929C15.7157 51.512 21.736 53.7211 24.4975 54.9963C28.9667 56.9213 33.3651 56.9258 37.4202 53.955C39.2801 52.642 41.1977 50.6788 42.1491 48.5367C44.1629 44.0046 43.756 36.0227 43.756 36.0227C42.8322 36.854 42.0698 37.914 41.5499 39.0328Z" fill="#31344E"/>
<path d="M29.3679 64.7417C28.5291 64.9296 28.8215 66.2296 29.6595 66.0413C30.4983 65.8534 30.206 64.5535 29.3679 64.7417Z" fill="white"/>
<path d="M33.1314 67.4494C33.5364 67.0987 33.5357 66.4403 33.1812 66.0592C32.8054 65.6565 32.1964 65.6591 31.7907 66.0098C31.7802 66.0184 31.7708 66.0274 31.7604 66.036C31.3554 66.3864 31.3554 67.0455 31.7113 67.4262C32.0864 67.8286 32.695 67.8263 33.1007 67.4756C33.1116 67.4662 33.1221 67.458 33.1314 67.4494Z" fill="white"/>
<path d="M35.3392 63.9236C35.0903 63.9865 34.9489 64.14 34.9144 64.3975C34.8804 64.6464 35.1173 64.868 35.3512 64.8792C35.4882 64.8859 35.6009 64.8354 35.6851 64.7519C36.0654 64.5023 35.8569 63.793 35.3392 63.9236ZM35.593 64.8021C35.5754 64.8085 35.5578 64.8152 35.5402 64.8212C35.5634 64.8152 35.5777 64.8014 35.599 64.7931C35.5971 64.7961 35.5953 64.7987 35.593 64.8021Z" fill="white"/>
<path d="M34.5964 69.0022C34.6133 69.0508 34.6294 69.0987 34.6454 69.147C34.7697 69.5165 35.2791 69.4023 35.2327 69.0149C35.2271 68.9644 35.2219 68.9138 35.2151 68.8633C35.168 68.455 34.465 68.6129 34.5964 69.0022Z" fill="white"/>
<path d="M35.4714 73.0871C35.2622 72.5698 34.359 72.7727 34.3904 73.3296C34.3919 73.3476 34.3934 73.3663 34.3942 73.3843C34.4159 73.7571 34.7052 74.0711 35.1046 73.9813C35.504 73.8914 35.6312 73.4838 35.4913 73.1376C35.4853 73.1211 35.4778 73.1043 35.4714 73.0871Z" fill="white"/>
<path d="M38.389 72.6427C37.9477 72.7416 37.6617 73.193 37.7609 73.6343C37.8601 74.0759 38.3115 74.3615 38.7524 74.2623C39.1948 74.1628 39.48 73.7117 39.3809 73.2701C39.2817 72.8291 38.8306 72.5436 38.389 72.6427Z" fill="white"/>
<path d="M37.7717 68.8546C38.3702 68.7202 38.1613 67.792 37.5632 67.9263C36.9647 68.0611 37.1728 68.9894 37.7717 68.8546Z" fill="white"/>
<path d="M44.9207 49.7868C44.3604 49.9129 43.9981 50.4852 44.1235 51.0456C44.2492 51.6063 44.8219 51.9686 45.3822 51.8425C45.9426 51.7167 46.306 51.144 46.1799 50.5833C46.0545 50.0234 45.4814 49.6607 44.9207 49.7868Z" fill="white"/>
<path d="M43.0885 56.8019C42.4668 56.9412 42.3253 57.649 42.6843 58.1082C42.6914 58.1168 42.6981 58.1254 42.7037 58.1341C43.0481 58.5739 43.8817 58.3867 44.0059 57.8421C44.0074 57.8313 44.0097 57.8208 44.013 57.8099C44.1403 57.241 43.7095 56.6619 43.0885 56.8019Z" fill="white"/>
<path d="M38.8904 56.4401C38.8267 56.4992 38.7953 56.5692 38.7769 56.6426C38.7126 56.75 38.6875 56.8731 38.7268 57.012C38.7713 57.1707 38.8877 57.265 39.0498 57.2841C38.9727 57.2725 38.9963 57.2766 39.1217 57.2983C39.2021 57.3017 39.2785 57.2845 39.3489 57.2471C39.4383 57.1842 39.5057 57.1273 39.5735 57.0393C39.7471 56.8159 39.594 56.5385 39.411 56.3922C39.2632 56.2731 39.0195 56.3199 38.8904 56.4401Z" fill="white"/>
<path d="M24.8714 59.3447C24.6255 59.128 24.2782 59.0729 24.0203 59.3144C23.7714 59.5464 23.7594 60.03 24.0603 60.2303C24.2943 60.4945 24.7655 60.474 24.9845 60.1588C24.9897 60.1498 24.9957 60.1412 25.0021 60.1326C25.1177 59.9657 25.1252 59.7137 25.0242 59.539C24.9815 59.466 24.9351 59.3997 24.8714 59.3447Z" fill="white"/>
<path d="M32.5137 52.6533C32.7986 53.9222 27.4925 55.114 27.2076 53.8451C26.9221 52.5751 27.8788 51.2785 29.3441 50.9495C30.8088 50.6205 32.2281 51.3833 32.5137 52.6533Z" fill="white"/>
<path d="M28.2927 52.1596C28.0487 52.3171 27.8488 52.52 27.7238 52.7843C27.6542 52.9295 27.5999 53.083 27.5838 53.2447C27.5662 53.4153 27.6355 53.5711 27.7103 53.7204C27.8608 54.018 28.3021 53.8963 28.3261 53.5823C28.3313 53.5142 28.368 53.4071 28.3627 53.3424C28.3538 53.2417 28.3496 53.1451 28.3564 53.0444C28.3695 52.8674 28.4645 52.6933 28.581 52.5631C28.7561 52.3662 28.5469 51.9945 28.2927 52.1596Z" fill="#31344E"/>
<path d="M40.983 48.7935C41.1683 49.6174 37.7247 50.3911 37.5394 49.5669C37.3545 48.7426 37.9751 47.9016 38.9266 47.6879C39.8777 47.4749 40.7985 47.9697 40.983 48.7935Z" fill="white"/>
<path d="M38.3841 48.5426C38.0458 48.6605 37.6887 49.0157 37.9065 49.393C37.9754 49.512 38.1087 49.5794 38.2456 49.5483C38.392 49.5154 38.462 49.4004 38.4859 49.2627C38.5125 49.1085 38.4377 48.9228 38.5279 48.7465C38.5747 48.6545 38.5073 48.4995 38.3841 48.5426Z" fill="#31344E"/>
<path d="M41.3734 45.3585C41.4835 45.8466 39.4405 46.3055 39.3309 45.8174C39.2212 45.3282 39.5891 44.8289 40.1528 44.7024C40.7173 44.5755 41.2637 44.8693 41.3734 45.3585Z" fill="white"/>
<path d="M39.655 45.0858C39.5333 45.1757 39.466 45.2558 39.4648 45.413C39.4641 45.532 39.5805 45.6641 39.7115 45.6196C39.8564 45.5698 39.9361 45.5196 40.0087 45.3796C40.1341 45.1379 39.8668 44.929 39.655 45.0858Z" fill="#31344E"/>
<path d="M24.1346 50.2264C24.3375 51.1292 20.5619 51.977 20.359 51.0741C20.1562 50.1702 20.8363 49.2483 21.8787 49.0144C22.9219 48.7797 23.9317 49.3224 24.1346 50.2264Z" fill="white"/>
<path d="M21.2134 49.6684C21.0203 49.7163 20.8803 49.8754 20.7594 50.0225C20.6867 50.1108 20.6415 50.2149 20.5935 50.3182C20.503 50.5154 20.6033 50.6951 20.7253 50.8459C20.8724 51.0301 21.1486 50.9638 21.2703 50.795C21.2983 50.7576 21.2983 50.7572 21.2703 50.7935C21.3391 50.7183 21.4129 50.6142 21.4047 50.5046C21.3987 50.4368 21.3972 50.3713 21.4039 50.3032C21.4065 50.2669 21.4133 50.2448 21.4361 50.1786C21.466 50.0887 21.414 50.2107 21.4556 50.134C21.4675 50.1112 21.4836 50.091 21.4952 50.0685C21.5993 49.8746 21.4529 49.61 21.2134 49.6684Z" fill="#31344E"/>
<path d="M15.8904 51.9765C20.5157 51.5067 24.4566 55.1307 28.9067 55.9238C32.8402 56.6249 37.0028 55.3426 40.1226 52.9025C42.5836 50.9775 43.7335 48.4158 43.8798 45.3271C44.0142 42.4929 43.1222 39.3469 43.9131 36.5789C43.9584 36.421 43.7312 36.3252 43.6485 36.4674C42.6083 38.2532 43.169 40.8197 43.1941 42.7792C43.2424 46.5675 42.3115 50.0466 39.0727 52.3238C35.1732 55.0652 30.679 55.3448 26.2361 53.891C22.8595 52.7865 19.5103 50.7185 15.8665 51.7953C15.7707 51.8238 15.7834 51.9873 15.8904 51.9765Z" fill="white"/>
<path d="M30.0465 39.2952C28.0788 38.5848 23.4659 36.0889 23.2009 33.6148C23.01 32.1214 24.2688 31.6093 25.522 31.7123C26.7759 31.8144 27.9856 32.6944 28.7495 33.5205C29.0868 32.4474 29.8051 31.1343 30.8939 30.5055C31.9839 29.8771 33.3407 29.8015 33.8075 31.2328C34.6246 33.5823 31.5224 37.8115 30.0465 39.2952Z" fill="#31344E"/>
<path d="M30.4083 42.1121C30.8392 43.9799 31.334 45.8323 31.7577 47.7023C31.8202 47.9774 32.2929 47.8711 32.2308 47.5956C31.8067 45.726 31.313 43.8736 30.8815 42.0058C30.8175 41.7307 30.344 41.8374 30.4083 42.1121Z" fill="#31344E"/>
<path d="M30.639 40.9281C30.5641 40.5924 30.4889 40.2562 30.4129 39.9197C30.3515 39.6446 29.8777 39.7509 29.9391 40.026C30.0147 40.3622 30.0903 40.6983 30.1659 41.0344C30.2284 41.3099 30.7015 41.2036 30.639 40.9281Z" fill="#31344E"/>
<path d="M34.1599 38.8055C33.9499 38.6056 33.5891 38.9118 33.8006 39.1128C34.8198 40.0804 35.8697 41.0199 36.8833 41.9923C37.0918 42.1941 37.4537 41.8871 37.2434 41.6858C36.2301 40.713 35.1802 39.7727 34.1599 38.8055Z" fill="#31344E"/>
<path d="M33.5771 38.2439C33.396 38.0687 33.2133 37.8936 33.0307 37.7184C32.8214 37.5174 32.4614 37.8243 32.6706 38.0257C32.8529 38.2012 33.0352 38.3764 33.2167 38.5508C33.4259 38.7522 33.786 38.446 33.5771 38.2439Z" fill="#31344E"/>
<path d="M36.0255 36.1851C35.7598 36.0485 35.4918 36.4258 35.759 36.562C37.4625 37.4371 39.1981 38.2621 40.8966 39.1439C41.1624 39.2817 41.4289 38.9044 41.1631 38.767C39.4646 37.8852 37.7293 37.0591 36.0255 36.1851Z" fill="#31344E"/>
<path d="M34.7805 36.0537C35.0455 36.1914 35.3143 35.8149 35.0485 35.676C34.7435 35.5169 34.4377 35.3582 34.133 35.1995C33.8676 35.061 33.5996 35.4379 33.8657 35.5768C34.1704 35.7359 34.4751 35.895 34.7805 36.0537Z" fill="#31344E"/>
<path d="M42.3089 35.6407C40.644 34.9146 38.9488 34.2442 37.2813 33.5252C37.0062 33.4077 36.7386 33.7827 37.0144 33.9029C38.6823 34.6215 40.3764 35.2919 42.0424 36.018C42.3157 36.1378 42.5852 35.7613 42.3089 35.6407Z" fill="#31344E"/>
<path d="M36.0564 33.4833C36.3293 33.603 36.5988 33.2269 36.3241 33.1056C36.0242 32.9746 35.7248 32.8443 35.425 32.7133C35.1521 32.5939 34.883 32.9694 35.1585 33.0906C35.4575 33.2213 35.7562 33.3523 36.0564 33.4833Z" fill="#31344E"/>
<path d="M26.1177 40.6119C25.6094 41.9223 25.0626 43.2211 24.5621 44.5346C24.4581 44.8067 24.9162 44.9291 25.0192 44.6577C25.52 43.3447 26.068 42.0466 26.574 40.7362C26.6796 40.4637 26.2214 40.3413 26.1177 40.6119Z" fill="#31344E"/>
<path d="M26.6719 39.1464C26.5825 39.3826 26.4934 39.6188 26.4039 39.855C26.2999 40.1275 26.758 40.2502 26.8602 39.9785C26.9504 39.7431 27.0406 39.5069 27.129 39.2703C27.233 38.9982 26.7749 38.8751 26.6719 39.1464Z" fill="#31344E"/>
<path d="M23.3117 39.0409C22.1465 40.5598 20.9308 42.048 19.7724 43.5714C19.5912 43.8094 19.9939 44.0363 20.1736 43.7986C21.3336 42.2744 22.5485 40.787 23.7148 39.2673C23.8971 39.03 23.4936 38.8039 23.3117 39.0409Z" fill="#31344E"/>
<path d="M24.3793 38.3898C24.5885 38.1154 24.7952 37.8411 25.0033 37.5667C25.1844 37.3279 24.7813 37.1018 24.6009 37.3399C24.3924 37.6143 24.1858 37.8879 23.9769 38.163C23.7969 38.4018 24.1996 38.6275 24.3793 38.3898Z" fill="#31344E"/>
<path d="M21.0394 37.173C19.8391 38.5362 18.5934 39.8675 17.399 41.236C17.2006 41.4624 17.6056 41.6878 17.8021 41.4624C18.9954 40.0944 20.2414 38.7637 21.4418 37.4005C21.641 37.1733 21.236 36.9495 21.0394 37.173Z" fill="#31344E"/>
<path d="M22.1279 36.6118C22.3428 36.3655 22.5573 36.1188 22.771 35.8729C22.969 35.6453 22.5651 35.4215 22.3697 35.6461C22.1556 35.8924 21.94 36.1387 21.7259 36.3849C21.5283 36.6121 21.9318 36.8367 22.1279 36.6118Z" fill="#31344E"/>
<path d="M23.0671 21.6856C22.9309 21.3697 22.4458 21.4872 22.4813 21.8338C22.7535 24.5224 23.0465 27.254 24.0156 29.7985C24.2428 30.3925 25.1355 30.1436 25.079 29.5302C24.8338 26.8288 24.1421 24.1702 23.0671 21.6856Z" fill="#31344E"/>
<path d="M22.5729 21.0077C23.3376 20.7352 22.9142 19.5494 22.1506 19.8215C21.3852 20.094 21.8078 21.2802 22.5729 21.0077Z" fill="#31344E"/>
<path d="M11.6908 61.4383C12.0306 61.899 12.4862 62.3186 12.9918 62.7049C12.3814 62.8033 11.769 62.8906 11.1544 62.9605C11.0208 62.9755 11.0275 63.1642 11.1623 63.1679C11.8955 63.1881 12.6269 63.1818 13.3594 63.1638C12.8762 63.7271 12.378 64.28 11.8412 64.7853C11.7712 64.8523 11.8671 64.9589 11.946 64.9125C12.655 64.5023 13.2782 64.0456 13.8643 63.5066C13.8943 64.0123 13.9265 64.5105 13.9482 64.9907C13.9542 65.1045 14.1428 65.1292 14.154 65.0091C14.1952 64.5502 14.2633 64.0775 14.3374 63.5987C14.9277 63.9442 15.5251 64.2489 16.0607 64.5113C16.1872 64.573 16.3078 64.4068 16.2033 64.3091C15.7384 63.8761 15.247 63.4913 14.7469 63.1118C15.4865 63.0609 16.2774 62.9549 16.9014 62.6746C17.0818 62.593 17.1421 62.2621 16.8849 62.2318C16.3018 62.1633 15.6456 62.2385 15.0351 62.3426C15.4914 61.8702 15.9286 61.3675 16.2 60.7963C16.3048 60.5733 16.063 60.3416 15.8474 60.4692C15.3555 60.7604 14.9801 61.1879 14.623 61.6329C14.7372 60.6856 14.787 59.7423 14.6309 58.847C14.5744 58.5255 14.0915 58.5861 14.0275 58.8698C13.7812 59.9729 13.7651 61.186 13.8101 62.3897C13.2378 61.9252 12.7055 61.4005 12.0722 61.0262C11.83 60.8843 11.5186 61.2077 11.6908 61.4383Z" fill="#31344E"/>
<path d="M1.51876 52.973C1.52363 53.0681 1.53111 53.1628 1.53747 53.2578C1.51239 53.296 1.48508 53.3331 1.45925 53.3709C1.11714 52.94 0.744331 52.5365 0.31763 52.2884C0.165664 52.2001 -0.0106317 52.3954 0.085189 52.5392C0.342707 52.9251 0.727495 53.2065 1.06249 53.5236C1.06399 53.5243 1.06511 53.5254 1.06661 53.5266C0.748825 53.6085 0.427302 53.6591 0.0889356 53.6411C-0.0196112 53.6351 -0.0327106 53.8084 0.0713446 53.8283C0.426555 53.8941 0.772778 53.8904 1.12275 53.8481C0.86523 54.1984 0.596861 54.5398 0.31651 54.8718C0.22855 54.9762 0.375647 55.1143 0.47259 55.0163C0.791868 54.6929 1.15718 54.3339 1.50491 53.9529C1.53148 53.9787 1.55918 54.0046 1.58538 54.03C1.59736 54.2228 1.61047 54.4155 1.61571 54.609C1.61833 54.718 1.77441 54.7075 1.7804 54.6031C1.78714 54.4814 1.78938 54.3601 1.79387 54.2389C1.92188 54.3665 2.04989 54.4945 2.17678 54.6229C2.25089 54.6978 2.38863 54.5877 2.32201 54.5039C2.15544 54.2961 1.98476 54.0626 1.80847 53.826C1.80921 53.7923 1.80921 53.7579 1.80996 53.7246C1.95931 53.6913 2.1094 53.6572 2.25875 53.6246C2.53124 53.5662 2.81982 53.5539 3.04403 53.3735C3.12787 53.3054 3.1507 53.1609 3.0328 53.1062C2.75507 52.9775 2.45001 53.0505 2.15993 53.1549C2.38526 52.8423 2.57803 52.5205 2.70267 52.1903C2.77379 52.0017 2.5507 51.8059 2.39612 51.9747C2.17865 52.212 2.00947 52.492 1.84253 52.7716C1.88145 52.373 1.9507 51.9609 1.87023 51.5817C1.8459 51.4657 1.68009 51.4646 1.63031 51.5593C1.41321 51.9755 1.49556 52.5182 1.51876 52.973Z" fill="#31344E"/>
<path d="M55.7242 54.2329C56.212 53.6704 56.5739 53.0037 57.0055 52.3858C57.1664 52.9884 57.3307 53.5888 57.4838 54.1921C57.5299 54.3752 57.8293 54.3216 57.8083 54.1337C57.7327 53.42 57.644 52.7077 57.5613 51.9942C58.1924 52.4992 58.8066 53.0225 59.319 53.6445C59.468 53.8257 59.7622 53.6569 59.6349 53.4443C59.2655 52.8301 58.8268 52.2143 58.3398 51.6274C58.835 51.5436 59.3265 51.4392 59.809 51.282C60.041 51.2063 59.9284 50.8706 59.6963 50.9249C59.1513 51.0518 58.6 51.1131 58.0468 51.151C58.5756 50.5947 59.1352 50.0662 59.6956 49.5448C59.8494 49.4015 59.6244 49.1335 59.4567 49.2615C58.8141 49.7507 58.1905 50.2609 57.5808 50.7883C57.5325 50.7388 57.4834 50.6902 57.4337 50.6408C57.4007 49.8641 57.4063 49.0096 57.0837 48.3591C56.9729 48.1352 56.599 48.1667 56.5065 48.3879C56.3388 48.7854 56.3317 49.2469 56.3886 49.711C56.0401 49.4355 55.6827 49.1791 55.3159 48.9613C55.003 48.7764 54.6084 49.2035 54.8312 49.4962C55.329 50.1542 55.9481 50.7003 56.5937 51.2224C56.5694 51.2243 56.5455 51.2251 56.5211 51.2266C55.734 51.2659 54.7421 51.2868 54.0758 51.751C53.8097 51.9355 53.9093 52.4614 54.2821 52.4019C54.9625 52.2933 55.6217 52.0991 56.2969 51.9516C55.7358 52.5067 55.1838 53.1624 55.0453 53.886C54.973 54.2625 55.4611 54.5369 55.7242 54.2329Z" fill="#31344E"/>
<path d="M10.5237 32.7444C11.011 32.1818 11.373 31.5152 11.8045 30.8972C11.9655 31.4999 12.1298 32.1002 12.2829 32.7036C12.3289 32.8866 12.6284 32.8331 12.6074 32.6452C12.5318 31.9314 12.4427 31.2191 12.3604 30.5057C12.9914 31.011 13.6057 31.5339 14.1181 32.156C14.267 32.3372 14.5612 32.1684 14.434 31.9558C14.0645 31.3415 13.6259 30.7258 13.1389 30.1389C13.6341 30.0551 14.1256 29.9506 14.608 29.7934C14.8401 29.7178 14.7274 29.3821 14.4954 29.4364C13.9504 29.5632 13.399 29.6246 12.8458 29.6624C13.3747 29.1062 13.9343 28.5777 14.4946 28.0563C14.6485 27.913 14.4235 27.645 14.2558 27.773C13.6131 28.2622 12.9896 28.7723 12.3798 29.2997C12.3315 29.2503 12.2825 29.2017 12.2331 29.1523C12.2002 28.3756 12.2058 27.5211 11.8831 26.8705C11.7727 26.6467 11.3984 26.6781 11.306 26.8993C11.1383 27.2969 11.1312 27.7584 11.1888 28.2225C10.84 27.947 10.4829 27.691 10.1157 27.4732C9.80278 27.2882 9.40826 27.7149 9.63097 28.008C10.1288 28.666 10.7479 29.2121 11.3935 29.7343C11.3692 29.7362 11.3453 29.7369 11.3209 29.7384C10.5338 29.7777 9.54226 29.7987 8.87563 30.2628C8.60951 30.4473 8.70907 30.9732 9.08187 30.9137C9.76235 30.8052 10.4215 30.6105 11.0967 30.4634C10.5356 31.0185 9.98356 31.6743 9.84507 32.3978C9.77208 32.7744 10.2605 33.0483 10.5237 32.7444Z" fill="#31344E"/>
<path d="M17.7796 68.6108C18.3148 69.1063 19.1746 69.0741 19.6698 68.5396C20.1657 68.0048 20.1335 67.1457 19.5986 66.6494C19.0641 66.1542 18.2051 66.1864 17.7092 66.7213C17.2136 67.2554 17.2458 68.1148 17.7796 68.6108Z" fill="#31344E"/>
<path d="M11.7746 69.7261C12.1399 70.0649 12.7272 70.0428 13.0648 69.6771C13.4043 69.3125 13.3818 68.7249 13.0165 68.3857C12.6519 68.0474 12.0647 68.0695 11.7255 68.4352C11.3868 68.8001 11.4092 69.3874 11.7746 69.7261Z" fill="#31344E"/>
<path d="M6.32345 48.315C6.74042 47.9384 6.77486 47.2752 6.39831 46.8586C6.02177 46.4412 5.35888 46.4064 4.94116 46.7837C4.52344 47.1603 4.48975 47.8231 4.8663 48.2409C5.24247 48.6574 5.9061 48.6923 6.32345 48.315Z" fill="#31344E"/>
<path d="M55.4746 35.7322C56.0847 35.0596 55.0412 34.1137 54.431 34.786C53.8209 35.4586 54.8645 36.4045 55.4746 35.7322Z" fill="#31344E"/>
<path d="M5.44928 39.2364C6.05864 38.5637 5.0151 37.6179 4.40574 38.2901C3.79563 38.9628 4.83843 39.909 5.44928 39.2364Z" fill="#31344E"/>
<path d="M54.5576 31.6436C55.1707 30.9688 54.1234 30.0195 53.5118 30.6944C52.8995 31.3693 53.9468 32.3189 54.5576 31.6436Z" fill="#31344E"/>
<path d="M52.6164 35.8044C53.228 35.1288 52.1814 34.1792 51.5694 34.8556C50.9571 35.5301 52.0044 36.4793 52.6164 35.8044Z" fill="#31344E"/>
<path d="M54.5423 58.9747C54.8118 58.6768 54.3506 58.2583 54.08 58.5555C53.8098 58.8542 54.2716 59.273 54.5423 58.9747Z" fill="#31344E"/>
<path d="M54.0984 63.8826C54.0939 63.8882 54.0902 63.8938 54.0872 63.8998C53.8293 64.2914 54.4132 64.8206 54.777 64.5249C54.783 64.5212 54.7875 64.5171 54.7924 64.5118C54.9582 64.3786 55.0787 64.1749 54.996 63.9556C54.9346 63.7898 54.8343 63.6805 54.6599 63.6326C54.6516 63.6307 54.6415 63.6281 54.6333 63.6258C54.4061 63.5648 54.2145 63.7048 54.0984 63.8826Z" fill="#31344E"/>
<path d="M23.5599 74.0658C23.8601 74.3443 24.2666 74.1537 24.3845 73.8083C24.3939 73.7806 24.4044 73.7532 24.4133 73.7252C24.5196 73.416 24.1349 73.0597 23.8347 73.1884C23.8073 73.2 23.7804 73.2116 23.7542 73.2229C23.4177 73.3677 23.259 73.7865 23.5599 74.0658Z" fill="#31344E"/>
<path d="M11.3133 54.3019C11.6247 54.647 12.1716 54.6751 12.5167 54.3633C12.8614 54.0523 12.8902 53.505 12.5781 53.1603C12.2678 52.8152 11.7198 52.7871 11.3751 53.0985C11.03 53.4096 11.0015 53.9568 11.3133 54.3019Z" fill="#31344E"/>
<path d="M10.1188 56.8451C10.4373 56.5569 9.9915 56.0632 9.67334 56.3514C9.35444 56.6382 9.79986 57.1319 10.1188 56.8451Z" fill="#31344E"/>
<path d="M8.11379 63.9931C8.60824 64.4516 9.31754 63.6858 8.82421 63.228C8.33089 62.7706 7.62121 63.5365 8.11379 63.9931Z" fill="#31344E"/>
<path d="M42.0425 18.0061C42.2585 18.2995 42.5489 18.566 42.8701 18.8116C42.4819 18.8741 42.093 18.9295 41.7011 18.9744C41.6162 18.9838 41.6207 19.1039 41.706 19.1061C42.1727 19.1193 42.6376 19.1151 43.1036 19.1039C42.7967 19.4621 42.4797 19.8136 42.1383 20.1347C42.0934 20.1774 42.1552 20.2451 42.2049 20.2159C42.6552 19.9551 43.052 19.6646 43.4248 19.3217C43.4439 19.6433 43.4648 19.9603 43.4791 20.2654C43.4817 20.3376 43.6022 20.3533 43.6101 20.277C43.6355 19.985 43.6789 19.6844 43.7257 19.3801C44.1015 19.5999 44.4814 19.7937 44.822 19.9603C44.9025 19.9996 44.9789 19.8937 44.913 19.8319C44.6169 19.5564 44.3044 19.3116 43.9866 19.0702C44.4567 19.038 44.9598 18.9703 45.3562 18.7921C45.4711 18.7405 45.5093 18.5301 45.3461 18.511C44.9751 18.4676 44.5585 18.5155 44.17 18.5814C44.4601 18.2812 44.7382 17.9615 44.9108 17.5981C44.9774 17.4562 44.8235 17.3091 44.6862 17.39C44.3733 17.5753 44.1341 17.8474 43.9076 18.1304C43.9802 17.5281 44.0117 16.9281 43.9125 16.3588C43.8769 16.1544 43.57 16.1926 43.5296 16.373C43.372 17.0745 43.3623 17.8463 43.3911 18.6113C43.0269 18.316 42.6878 17.9821 42.2858 17.7441C42.1312 17.6535 41.9332 17.8594 42.0425 18.0061Z" fill="#31344E"/>
<path d="M47.2525 24.7408C47.7878 25.2364 48.6476 25.2042 49.1428 24.6697C49.6387 24.1344 49.6065 23.2754 49.0716 22.7795C48.5368 22.2843 47.6778 22.3161 47.1818 22.851C46.6862 23.3858 46.7184 24.2452 47.2525 24.7408Z" fill="#31344E"/>
<path d="M41.2471 25.8563C41.6124 26.195 42.1997 26.1729 42.5377 25.8072C42.8768 25.4427 42.8547 24.855 42.4894 24.5159C42.1248 24.1776 41.5372 24.1996 41.198 24.5649C40.8597 24.9303 40.8818 25.5175 41.2471 25.8563Z" fill="#31344E"/>
<path d="M37.5865 20.124C38.0809 20.5825 38.7906 19.8167 38.2969 19.3589C37.8032 18.9015 37.0939 19.667 37.5865 20.124Z" fill="#31344E"/>
</svg>
