<svg width="12" height="13" viewBox="0 0 12 13" fill="none" xmlns="http://www.w3.org/2000/svg">
<path d="M8.41602 9.08057L9.7072 10.3718" stroke="#373737" stroke-width="0.493245" stroke-miterlimit="10" stroke-linecap="round" stroke-linejoin="round"/>
<path d="M2.29199 2.95703L3.58263 4.24766" stroke="#373737" stroke-width="0.493245" stroke-miterlimit="10" stroke-linecap="round" stroke-linejoin="round"/>
<path d="M3.58318 9.08057L2.29199 10.3718" stroke="#373737" stroke-width="0.493245" stroke-miterlimit="10" stroke-linecap="round" stroke-linejoin="round"/>
<path d="M9.7072 2.95703L8.41602 4.24811" stroke="#373737" stroke-width="0.493245" stroke-miterlimit="10" stroke-linecap="round" stroke-linejoin="round"/>
<path d="M11 6.66444C11 6.66444 9.65322 6.35031 8.39652 6.12307C8.02028 6.05498 7.68107 5.88964 7.40177 5.65643C7.67654 5.29489 7.93197 4.9139 8.07124 4.59326C7.75579 4.7302 7.38199 4.97988 7.02576 5.24957C6.81619 4.95413 6.67847 4.60475 6.6399 4.22608C6.5255 3.10334 6.33031 1.83747 6.00005 1C5.66935 1.83857 5.47406 3.10688 5.35977 4.23083C5.31854 4.63647 5.16403 5.00884 4.92849 5.31666C4.4456 4.9728 3.92888 4.59326 3.92888 4.59326C4.05289 4.87886 4.35839 5.30151 4.61669 5.64481C4.33374 5.88665 3.98757 6.05819 3.6026 6.12826C2.35761 6.35496 1 6.66444 1 6.66444C1.75524 6.96231 2.63924 7.1502 3.48555 7.26814C3.88875 7.32439 4.25493 7.48809 4.55678 7.72783C4.29815 8.07267 4.06107 8.43134 3.92888 8.73573C4.23217 8.60398 4.58939 8.36812 4.93313 8.11048C5.17033 8.41985 5.3275 8.79354 5.37071 9.20371C5.48643 10.3008 5.67964 11.5166 6.00017 12.3291C6.32059 11.5166 6.51379 10.3009 6.62951 9.20371C6.67361 8.78591 6.83565 8.4058 7.08036 8.09311C7.41194 8.34103 7.8021 8.61879 8.07135 8.73573C8.07135 8.73573 7.71655 8.24963 7.38077 7.778C7.69367 7.51042 8.08339 7.32838 8.51456 7.26826C9.36065 7.15021 10.2448 6.9622 11 6.66444Z" stroke="#373737" stroke-width="0.493245" stroke-miterlimit="10" stroke-linecap="round" stroke-linejoin="round"/>
</svg>
