<svg width="36" height="42" viewBox="0 0 36 42" fill="none" xmlns="http://www.w3.org/2000/svg">
<path d="M35.2323 35.0475C31.6059 38.7213 26.5697 41 21 41C9.85523 41 0.839678 31.8844 1.00216 20.7025C1.15673 10.0666 9.77692 1.31501 20.4096 1.00852C26.2134 0.841196 31.4783 3.14942 35.2323 6.95241C32.4315 4.97356 29.0158 3.80713 25.3256 3.80713C20.9868 3.80713 17.0251 5.4157 14.0006 8.06781C12.2419 9.60995 11.6732 12.0258 12.2553 14.2914C12.3188 14.5385 12.3186 14.7875 12.2007 15.0846C12.0272 15.5216 11.4318 16.0631 11.4318 16.0631C11.4318 16.0631 11.3776 16.9718 12.261 17.9503C13.1444 18.9289 14.1928 21.6549 14.053 21.9695C13.9132 22.284 13.4938 22.5287 12.3405 22.5287C12.3405 22.5287 11.8861 23.2276 12.2356 23.647C12.5851 24.0662 12.55 24.276 12.2705 24.5556C12.2705 24.5556 13.0008 25.045 12.7405 25.4993C12.4802 25.9536 12.4802 25.9536 12.4802 25.9536C12.4802 25.9536 14.0879 27.8059 13.6685 28.7496C13.2491 29.6931 17.863 41.2062 35.2323 35.0475ZM35.2323 35.0475C34.798 35.3542 34.3473 35.6392 33.8846 35.9056L35.2323 35.0475Z" stroke="#373737" stroke-width="0.439941" stroke-miterlimit="10" stroke-linecap="round" stroke-linejoin="round"/>
<path d="M10.1242 15.8793C10.1242 15.8793 10.0515 16.6747 9.57955 16.832C9.10779 16.9892 7.01733 17.566 7.01733 17.566C7.01733 17.566 8.84558 18.2475 9.47469 18.2475C10.1038 18.2475 9.9947 18.992 9.9947 18.992" stroke="#373737" stroke-width="0.439941" stroke-miterlimit="10" stroke-linecap="round" stroke-linejoin="round"/>
<path d="M9.64575 24.6094C11.6591 25.2719 12.0491 24.8619 12.164 24.7031L12.2706 24.5555" stroke="#373737" stroke-width="0.439941" stroke-miterlimit="10" stroke-linecap="round" stroke-linejoin="round"/>
<path d="M10.0513 17.5497C10.0513 17.9282 9.8577 18.2348 9.61896 18.2348C9.38022 18.2348 9.18665 17.928 9.18665 17.5497C9.18665 17.1713 9.38022 16.8644 9.61896 16.8644C9.8577 16.8644 10.0513 17.1712 10.0513 17.5497Z" stroke="#373737" stroke-width="0.439941" stroke-miterlimit="10" stroke-linecap="round" stroke-linejoin="round"/>
<path d="M10.532 21.5149C10.532 21.5149 10.034 22.7381 11.362 22.7032" stroke="#373737" stroke-width="0.439941" stroke-miterlimit="10" stroke-linecap="round" stroke-linejoin="round"/>
<path d="M6.25098 15.3177C6.43707 15.2284 6.66745 15.0008 7.75293 14.6666C9.71316 14.063 10.3924 14.9079 10.3924 14.9079" stroke="#373737" stroke-width="0.439941" stroke-miterlimit="10" stroke-linecap="round" stroke-linejoin="round"/>
<path d="M12.2354 23.647L12.0083 24.0664C12.0083 24.0664 11.816 23.9266 11.484 24.0664C11.152 24.2061 10.958 24.3526 10.958 24.3526" stroke="#373737" stroke-width="0.439941" stroke-miterlimit="10" stroke-linecap="round" stroke-linejoin="round"/>
<path d="M10.1241 25.272C10.1241 25.272 11.0298 26.0234 11.659 25.9885" stroke="#373737" stroke-width="0.439941" stroke-miterlimit="10" stroke-linecap="round" stroke-linejoin="round"/>
<path d="M9.18675 16.2704C9.18675 16.2704 8.40013 16.3754 7.71852 16.6102C7.03705 16.8448 5.98853 17.1331 5.98853 17.1331" stroke="#373737" stroke-width="0.439941" stroke-miterlimit="10" stroke-linecap="round" stroke-linejoin="round"/>
<path d="M8.89812 23.6471C8.89812 23.6471 8.40084 24.3108 8.5708 24.975" stroke="#373737" stroke-width="0.439941" stroke-miterlimit="10" stroke-linecap="round" stroke-linejoin="round"/>
</svg>
