<svg width="388" height="300" viewBox="0 0 388 300" fill="none" xmlns="http://www.w3.org/2000/svg">
<path d="M309.644 273.008C283.681 280.607 257.471 281.962 231.022 276C205.741 270.299 183.527 258.734 164.753 240.756C163.668 239.716 162.699 238.557 161.265 237.008C163.239 236.587 164.359 236.322 165.487 236.113C181.562 233.17 197.695 230.519 213.699 227.235C244.308 220.959 274.444 212.855 303.956 202.556C304.209 202.468 304.461 202.379 304.713 202.291C304.691 202.118 304.673 201.95 304.673 201.764C304.673 201.596 304.673 201.428 304.673 201.259C304.589 201.007 304.51 200.751 304.421 200.494C304.288 200.1 304.156 199.706 304.023 199.312C276.538 209.102 248.42 216.772 219.864 222.823C200.576 226.908 181.08 230.006 161.694 233.653C159.194 234.122 157.618 233.498 155.994 231.564C137.064 208.978 126.796 183.007 125.663 153.566C124.694 128.356 130.713 104.699 143.159 82.8443C164.098 46.0782 195.522 22.5104 235.89 10.618C244.468 8.09081 253.209 6.10789 262.751 5.96626C261.724 2.9832 259.666 3.02756 257.869 2.70005C226.795 -3.00052 196.562 0.146115 168.152 13.8532C114.678 39.6518 85.2324 82.7072 80.8242 141.895C78.2793 176.076 87.9366 207.465 107.349 235.777C108.052 236.808 108.628 237.928 109.345 239.145C108.539 239.424 108.15 239.654 107.747 239.676C84.1924 241.199 60.6465 241.916 37.1538 238.805C29.5456 237.795 22.0305 236.277 14.9181 233.281C1.15791 227.483 -0.523953 218.963 10.1646 208.42C13.3955 205.234 17.038 202.392 20.7779 199.799C32.8208 191.438 46.072 185.348 59.5091 179.635C60.828 179.072 62.1204 178.444 63.488 177.82C61.8283 175.492 61.7486 175.328 59.2302 176.527C48.7364 181.533 38.0832 186.26 27.9125 191.863C21.3887 195.457 15.3163 200.056 9.59807 204.867C6.31847 207.624 3.64523 211.439 1.60488 215.259C-1.37375 220.831 -0.130019 226.292 4.70307 230.386C7.35862 232.635 10.4877 234.467 13.6655 235.923C20.269 238.946 27.3725 240.376 34.5248 241.451C58.5752 245.076 82.7141 244.421 106.849 242.695C110.628 242.425 112.965 243.208 115.466 246.2C164.691 305.189 250.629 317.32 314.251 274.38C314.866 273.964 315.282 273.247 315.787 272.672C315.65 272.379 315.517 272.092 315.384 271.8C313.472 272.198 311.516 272.463 309.644 273.008Z" fill="#FAF4F0"/>
<path d="M382.482 138.545C380.455 136.885 378.158 135.389 375.745 134.397C371.674 132.724 367.491 131.215 363.225 130.162C350.283 126.975 337.059 126.024 323.781 125.714C299.726 125.161 275.782 126.736 251.909 129.529C246.934 130.109 241.964 130.711 237.007 131.423C235.555 131.631 233.523 131.587 234.143 134.296C235.599 134.296 237.051 134.415 238.48 134.278C254.161 132.782 269.825 131.056 285.523 129.772C305.378 128.153 325.264 128.068 345.109 130.122C354.497 131.091 363.831 132.534 372.607 136.248C375.161 137.328 377.693 138.664 379.897 140.328C385.274 144.382 386.186 149.246 382.663 155.036C381.225 157.399 379.499 159.745 377.414 161.528C373.063 165.25 368.602 168.928 363.8 172.031C360.72 174.023 357.577 175.886 354.39 177.661C354.519 177.944 354.621 178.227 354.727 178.51L354.745 178.502C354.758 178.546 354.767 178.595 354.776 178.639C354.997 179.25 355.174 179.869 355.346 180.489C356.922 179.608 358.493 178.718 360.047 177.793C366.473 173.978 372.528 169.442 378.321 164.706C381.318 162.254 383.801 158.89 385.757 155.505C389.377 149.255 388.05 143.108 382.482 138.545Z" fill="#FAF4F0"/>
<path d="M179.581 144.519C178.28 145.192 177.032 146.015 175.908 146.949C175.443 147.334 175.067 148.272 175.208 148.817C175.345 149.352 176.155 150.016 176.731 150.078C178.32 150.251 179.944 150.136 181.759 150.136C182.316 153.243 182.843 156.15 183.458 159.563C187.366 158 187.486 154.283 189.623 152.278C193.562 151.216 197.599 153.588 202.397 152.105C200.339 149.481 198.692 147.383 197.223 145.506C197.749 142.293 201.547 141.076 201.118 137.504C197.271 136.447 194.337 139.363 190.677 139.469C190.128 138.788 189.513 137.982 188.853 137.217C187.667 135.849 187.256 133.123 184.905 133.658C182.21 134.269 183.029 137.048 182.998 138.912C182.945 141.598 181.896 143.32 179.581 144.519Z" fill="#FAF4F0"/>
<path d="M341.409 184.083C340.799 183.826 340.272 183.932 339.688 184.202C338.603 184.707 338.546 186.296 339.32 187.066C339.652 187.398 340.144 187.601 340.608 187.601C340.812 187.601 340.993 187.561 341.166 187.504C341.228 187.495 341.294 187.495 341.356 187.477C341.493 187.442 341.617 187.393 341.746 187.318C342.622 186.933 342.848 185.627 342.361 184.875C342.126 184.508 341.812 184.251 341.409 184.083Z" fill="#FAF4F0"/>
</svg>
