<svg width="57" height="71" viewBox="0 0 57 71" fill="none" xmlns="http://www.w3.org/2000/svg">
<path fill-rule="evenodd" clip-rule="evenodd" d="M28.0874 2.79227e-05C28.3647 -0.00158571 28.6268 0.0667517 28.869 0.201732L32.3232 2.11792H32.3484L35.4496 3.83241H46.9971C51.9859 3.83241 56.1747 7.70704 56.1747 12.5561V62.2763C56.1747 67.1193 51.9859 71 46.9971 71H9.17755C4.1888 71 0 67.1193 0 62.2763V12.5561C0 7.70704 4.1888 3.83241 9.17755 3.83241H20.7251L23.8516 2.11792L27.3057 0.201732C27.5408 0.0710521 27.8184 0.00198849 28.0874 2.79227e-05ZM46.9972 7.05968H35.4496L32.3484 8.79939L28.869 10.7156C28.631 10.8476 28.3596 10.9171 28.0874 10.9173C27.8152 10.9174 27.5439 10.8473 27.3058 10.7156L23.8516 8.79939L20.7252 7.05968H9.17759C5.84 7.05968 3.22731 9.57908 3.22731 12.5561V62.2763C3.22731 65.2434 5.84 67.7727 9.17759 67.7727H46.9972C50.3348 67.7727 52.9475 65.2434 52.9475 62.2763V12.5561C52.9475 9.57908 50.3348 7.05968 46.9972 7.05968Z" fill="#FFFDFA"/>
<path fill-rule="evenodd" clip-rule="evenodd" d="M44.8665 17.0641C45.0796 17.0609 45.2933 17.1009 45.491 17.1804C45.6888 17.2598 45.8706 17.379 46.0223 17.5286C46.1741 17.6783 46.2958 17.8583 46.3781 18.0549C46.4603 18.2516 46.5031 18.4646 46.5031 18.6778C46.5031 18.8909 46.4603 19.104 46.3781 19.3006C46.2958 19.4973 46.1741 19.6773 46.0223 19.8269C45.8706 19.9766 45.6888 20.0957 45.491 20.1752C45.2933 20.2547 45.0796 20.2944 44.8665 20.2914H22.913C22.6999 20.2946 22.4862 20.2547 22.2884 20.1752C22.0907 20.0957 21.9089 19.9766 21.7571 19.8269C21.6053 19.6773 21.4837 19.4973 21.4014 19.3006C21.3191 19.104 21.2764 18.8909 21.2764 18.6778C21.2764 18.4646 21.3191 18.2516 21.4014 18.0549C21.4837 17.8583 21.6053 17.6783 21.7571 17.5286C21.9089 17.379 22.0907 17.2598 22.2884 17.1804C22.4862 17.1009 22.6999 17.0611 22.913 17.0641H44.8665Z" fill="#FFFDFA"/>
<path fill-rule="evenodd" clip-rule="evenodd" d="M44.8665 27.5693C45.0796 27.566 45.2933 27.606 45.491 27.6855C45.6888 27.765 45.8706 27.8841 46.0223 28.0337C46.1741 28.1834 46.2958 28.3634 46.3781 28.5601C46.4603 28.7567 46.5031 28.9698 46.5031 29.1829C46.5031 29.3961 46.4603 29.6091 46.3781 29.8057C46.2958 30.0024 46.1741 30.1824 46.0223 30.3321C45.8706 30.4817 45.6888 30.6008 45.491 30.6803C45.2933 30.7598 45.0796 30.7996 44.8665 30.7965H22.913C22.6999 30.7998 22.4862 30.7598 22.2884 30.6803C22.0907 30.6009 21.9089 30.4817 21.7571 30.3321C21.6053 30.1824 21.4837 30.0024 21.4014 29.8057C21.3191 29.6091 21.2764 29.3961 21.2764 29.1829C21.2764 28.9698 21.3191 28.7567 21.4014 28.5601C21.4837 28.3634 21.6053 28.1834 21.7571 28.0337C21.9089 27.8841 22.0907 27.765 22.2884 27.6855C22.4862 27.606 22.6999 27.5663 22.913 27.5693H44.8665Z" fill="#FFFDFA"/>
<path fill-rule="evenodd" clip-rule="evenodd" d="M44.8665 38.0819C45.0796 38.0819 45.2933 38.1191 45.491 38.1982C45.6888 38.2773 45.8706 38.3968 46.0223 38.5464C46.1741 38.6961 46.2958 38.8761 46.3781 39.0728C46.4603 39.2694 46.5031 39.4825 46.5031 39.6956C46.5031 39.9087 46.4603 40.1218 46.3781 40.3185C46.2958 40.5151 46.1741 40.6951 46.0223 40.8448C45.8706 40.9944 45.6888 41.1136 45.491 41.193C45.2933 41.2729 45.0796 41.3123 44.8665 41.3092H22.913C22.6999 41.3092 22.4862 41.2729 22.2884 41.193C22.0907 41.114 21.9089 40.9944 21.7571 40.8448C21.6053 40.6951 21.4837 40.5151 21.4014 40.3185C21.3191 40.1218 21.2764 39.9087 21.2764 39.6956C21.2764 39.4825 21.3191 39.2694 21.4014 39.0728C21.4837 38.8761 21.6053 38.6961 21.7571 38.5464C21.9089 38.3968 22.0907 38.2777 22.2884 38.1982C22.4862 38.1183 22.6999 38.079 22.913 38.0819H44.8665Z" fill="#FFFDFA"/>
<path fill-rule="evenodd" clip-rule="evenodd" d="M44.8665 48.5866C45.0796 48.5866 45.2933 48.6237 45.491 48.7028C45.6888 48.7819 45.8706 48.9014 46.0223 49.0511C46.1741 49.2007 46.2958 49.3807 46.3781 49.5774C46.4603 49.774 46.5031 49.9871 46.5031 50.2002C46.5031 50.4134 46.4603 50.6264 46.3781 50.8231C46.2958 51.0197 46.1741 51.1998 46.0223 51.3494C45.8706 51.499 45.6888 51.6182 45.491 51.6976C45.2933 51.7767 45.0796 51.8169 44.8665 51.8139H22.913C22.6999 51.8139 22.4862 51.7775 22.2884 51.6976C22.0907 51.6178 21.9089 51.499 21.7571 51.3494C21.6053 51.1998 21.4837 51.0197 21.4014 50.8231C21.3191 50.6264 21.2764 50.4134 21.2764 50.2002C21.2764 49.9871 21.3191 49.774 21.4014 49.5774C21.4837 49.3807 21.6053 49.2007 21.7571 49.0511C21.9089 48.9014 22.0907 48.7823 22.2884 48.7028C22.4862 48.623 22.6999 48.5836 22.913 48.5866H44.8665Z" fill="#FFFDFA"/>
<path fill-rule="evenodd" clip-rule="evenodd" d="M44.8665 59.0912C45.0796 59.0912 45.2933 59.1284 45.491 59.2075C45.6888 59.2874 45.8706 59.406 46.0223 59.5557C46.1741 59.7054 46.2958 59.8854 46.3781 60.0821C46.4603 60.2787 46.5031 60.4918 46.5031 60.7049C46.5031 60.918 46.4603 61.1311 46.3781 61.3277C46.2958 61.5243 46.1741 61.7045 46.0223 61.8541C45.8706 62.0037 45.6888 62.1229 45.491 62.2024C45.2933 62.2823 45.0796 62.3216 44.8665 62.3185H22.913C22.6999 62.3185 22.4862 62.2823 22.2884 62.2024C22.0907 62.1225 21.9089 62.0037 21.7571 61.8541C21.6053 61.7045 21.4837 61.5243 21.4014 61.3277C21.3191 61.1311 21.2764 60.918 21.2764 60.7049C21.2764 60.4918 21.3191 60.2787 21.4014 60.0821C21.4837 59.8854 21.6053 59.7054 21.7571 59.5557C21.9089 59.406 22.0907 59.287 22.2884 59.2075C22.4862 59.1277 22.6999 59.0882 22.913 59.0912H44.8665Z" fill="#FFFDFA"/>
<path fill-rule="evenodd" clip-rule="evenodd" d="M16.4053 14.7085C16.1982 14.7081 15.9911 14.748 15.799 14.8254C15.6069 14.9027 15.43 15.0175 15.281 15.1613L14.0978 16.2715L12.9145 15.1613C12.7613 15.0126 12.5783 14.8948 12.3795 14.8169C12.1807 14.7389 11.9663 14.701 11.7528 14.706C11.5394 14.7108 11.327 14.7589 11.1321 14.846C10.9371 14.9331 10.7598 15.0594 10.6137 15.2151C10.4676 15.3708 10.3529 15.5559 10.2783 15.7559C10.2038 15.956 10.1695 16.171 10.1781 16.3843C10.1867 16.5977 10.2382 16.8092 10.3285 17.0027C10.419 17.1961 10.5482 17.3712 10.7064 17.5147L11.7396 18.4842L10.7064 19.4536C10.5482 19.597 10.419 19.7722 10.3285 19.9657C10.2381 20.1591 10.1867 20.3706 10.1781 20.584C10.1694 20.7973 10.2038 21.0123 10.2783 21.2124C10.3529 21.4125 10.4676 21.5975 10.6137 21.7532C10.7598 21.9089 10.9371 22.0352 11.1321 22.1223C11.327 22.2094 11.5394 22.2573 11.7528 22.2623C11.9663 22.2672 12.1807 22.2294 12.3795 22.1515C12.5783 22.0735 12.7613 21.9557 12.9145 21.807L14.0978 20.6969L15.281 21.807C15.4342 21.9557 15.6173 22.0736 15.8161 22.1515C16.0149 22.2294 16.2293 22.2673 16.4427 22.2623C16.6562 22.2575 16.8686 22.2095 17.0635 22.1223C17.2584 22.0352 17.4358 21.9089 17.5819 21.7532C17.728 21.5975 17.8427 21.4125 17.9173 21.2124C17.9918 21.0123 18.0261 20.7973 18.0175 20.584C18.0089 20.3706 17.9574 20.1591 17.867 19.9657C17.7766 19.7722 17.6473 19.597 17.4892 19.4536L16.456 18.4842L17.4892 17.5147C17.7277 17.2972 17.8985 17.0066 17.9726 16.6924C18.0466 16.3783 18.0235 16.0419 17.9072 15.7408C17.7909 15.4397 17.5819 15.1752 17.3159 14.9924C17.0499 14.8095 16.7281 14.7092 16.4053 14.7085Z" fill="#FFFDFA"/>
<path fill-rule="evenodd" clip-rule="evenodd" d="M16.4053 57.1795C16.1982 57.1791 15.9911 57.219 15.799 57.2964C15.6069 57.3739 15.43 57.4885 15.281 57.6323L14.0978 58.7424L12.9145 57.6323C12.7613 57.4836 12.5783 57.3658 12.3795 57.2878C12.1807 57.2104 11.9663 57.172 11.7528 57.1769C11.5394 57.185 11.327 57.2302 11.1321 57.317C10.9371 57.4041 10.7598 57.5304 10.6137 57.6861C10.4676 57.8418 10.3529 58.0268 10.2783 58.2269C10.2038 58.4269 10.1695 58.642 10.1781 58.8553C10.1867 59.0687 10.2382 59.2803 10.3285 59.4737C10.419 59.6672 10.5482 59.8423 10.7064 59.9857L11.7396 60.9551L10.7064 61.9246C10.5482 62.068 10.419 62.2432 10.3285 62.4367C10.2381 62.6301 10.1867 62.8416 10.1781 63.0549C10.1694 63.2683 10.2038 63.4833 10.2783 63.6834C10.3529 63.8835 10.4676 64.0685 10.6137 64.2242C10.7598 64.3799 10.9371 64.5062 11.1321 64.5933C11.327 64.6805 11.5394 64.7283 11.7528 64.7333C11.9663 64.7413 12.1807 64.7002 12.3795 64.6225C12.5783 64.545 12.7613 64.4267 12.9145 64.278L14.0978 63.1678L15.281 64.278C15.4342 64.4267 15.6173 64.5446 15.8161 64.6225C16.0149 64.7007 16.2293 64.7383 16.4427 64.7333C16.6562 64.7252 16.8686 64.6809 17.0635 64.5933C17.2584 64.5062 17.4358 64.3799 17.5819 64.2242C17.728 64.0685 17.8427 63.8835 17.9173 63.6834C17.9918 63.4833 18.0261 63.2683 18.0175 63.0549C18.0089 62.8416 17.9574 62.6301 17.867 62.4367C17.7766 62.2432 17.6473 62.068 17.4892 61.9246L16.456 60.9551L17.4892 59.9857C17.7277 59.7682 17.8985 59.4776 17.9726 59.1634C18.0466 58.8493 18.0235 58.5129 17.9072 58.2119C17.7909 57.9107 17.5819 57.6462 17.3159 57.4633C17.0499 57.2805 16.7281 57.1802 16.4053 57.1795Z" fill="#FFFDFA"/>
<path fill-rule="evenodd" clip-rule="evenodd" d="M16.4053 36.4605C16.1982 36.4601 15.9911 36.5 15.799 36.5774C15.6069 36.6548 15.43 36.7695 15.281 36.9133L14.0978 38.0234L12.9145 36.9133C12.7613 36.7646 12.5783 36.6468 12.3795 36.5689C12.1807 36.4906 11.9663 36.453 11.7528 36.458C11.5394 36.466 11.327 36.5112 11.1321 36.5981C10.9371 36.6851 10.7598 36.8114 10.6137 36.9671C10.4676 37.1228 10.3529 37.3078 10.2783 37.5079C10.2038 37.708 10.1695 37.923 10.1781 38.1363C10.1867 38.3497 10.2382 38.5613 10.3285 38.7547C10.419 38.9481 10.5482 39.1233 10.7064 39.2668L11.7396 40.2361L10.7064 41.2056C10.5482 41.3491 10.419 41.5242 10.3285 41.7177C10.2381 41.9111 10.1867 42.1226 10.1781 42.336C10.1694 42.5494 10.2038 42.7643 10.2783 42.9644C10.3529 43.1645 10.4676 43.3495 10.6137 43.5052C10.7598 43.6609 10.9371 43.7872 11.1321 43.8743C11.327 43.9615 11.5394 44.0093 11.7528 44.0143C11.9663 44.0224 12.1807 43.9812 12.3795 43.9034C12.5783 43.826 12.7613 43.7077 12.9145 43.559L14.0978 42.4488L15.281 43.559C15.4342 43.7077 15.6173 43.8256 15.8161 43.9034C16.0149 43.9817 16.2293 44.0193 16.4427 44.0143C16.6562 44.0062 16.8686 43.9619 17.0635 43.8743C17.2584 43.7872 17.4358 43.6609 17.5819 43.5052C17.728 43.3495 17.8427 43.1645 17.9173 42.9644C17.9918 42.7643 18.0261 42.5494 18.0175 42.336C18.0089 42.1226 17.9574 41.9111 17.867 41.7177C17.7766 41.5242 17.6473 41.3491 17.4892 41.2056L16.456 40.2361L17.4892 39.2668C17.7277 39.0492 17.8985 38.7586 17.9726 38.4444C18.0466 38.1302 18.0235 37.7939 17.9072 37.4928C17.7909 37.1918 17.5819 36.9272 17.3159 36.7444C17.0499 36.5616 16.7281 36.4612 16.4053 36.4605Z" fill="#FFFDFA"/>
<path fill-rule="evenodd" clip-rule="evenodd" d="M16.8933 24.6219C16.6057 24.6113 16.3157 24.6793 16.0629 24.8168C15.8101 24.9542 15.5953 25.1607 15.4478 25.4078L13.839 28.0199C13.7206 27.8795 13.5781 27.7596 13.4196 27.6669C13.2611 27.5742 13.0867 27.509 12.9063 27.4747C12.726 27.4404 12.5397 27.4373 12.3583 27.4653C12.1769 27.4934 12.0003 27.5528 11.8387 27.64C11.5156 27.8144 11.2554 28.1025 11.1146 28.4417C11.0443 28.6112 11.0032 28.7929 10.9936 28.9763C10.9841 29.1596 11.0061 29.3446 11.0585 29.5206L11.8411 32.2637C11.9265 32.5625 12.1004 32.8355 12.3351 33.0392C12.5698 33.2428 12.8645 33.3765 13.1723 33.419C13.4802 33.4614 13.8001 33.4125 14.0812 33.2799C14.3622 33.1473 14.6035 32.9317 14.7666 32.6671L18.1955 27.1001C18.347 26.8618 18.4343 26.5831 18.4459 26.3009C18.4575 26.0188 18.3934 25.7339 18.262 25.4839C18.1307 25.2339 17.9324 25.0195 17.6935 24.869C17.4545 24.7186 17.1755 24.6324 16.8933 24.6219Z" fill="#FFFDFA"/>
<path fill-rule="evenodd" clip-rule="evenodd" d="M16.8922 45.9298C16.6046 45.9193 16.3146 45.9878 16.0619 46.1252C15.8092 46.2628 15.5944 46.4694 15.4472 46.7166L13.8371 49.3343C13.7186 49.1942 13.576 49.0746 13.4175 48.9823C13.2589 48.89 13.0846 48.8249 12.9043 48.7909C12.724 48.7571 12.5379 48.7538 12.3567 48.7821C12.1754 48.8103 11.999 48.8698 11.8377 48.9571C11.5149 49.1315 11.255 49.4196 11.1145 49.7585C11.0442 49.9279 11.0032 50.1095 10.9936 50.2927C10.9841 50.4759 11.006 50.6607 11.0583 50.8366L11.8409 53.5797C11.9263 53.8786 12.1003 54.1516 12.3351 54.3553C12.5699 54.559 12.8647 54.6927 13.1726 54.7351C13.4806 54.7778 13.8006 54.7271 14.0817 54.5957C14.3627 54.463 14.604 54.247 14.7669 53.9823L18.1959 48.4072C18.3473 48.1688 18.4345 47.8901 18.4459 47.6079C18.4574 47.3257 18.3932 47.0407 18.2616 46.7908C18.1301 46.5409 17.9317 46.3265 17.6926 46.1762C17.4535 46.0258 17.1744 45.94 16.8922 45.9298Z" fill="#FFFDFA"/>
</svg>
