<svg width="64" height="48" viewBox="0 0 64 48" fill="none" xmlns="http://www.w3.org/2000/svg">
<path d="M43.5653 38.5164H5.11286C5.01615 38.5164 4.93935 38.4396 4.93935 38.3457V4.74522C4.93935 4.64851 5.01615 4.57171 5.11286 4.57171H58.4736C58.5675 4.57171 58.6464 4.64851 58.6464 4.74522V8.18128C59.189 8.21044 59.6882 8.24884 60.0622 8.29933L60.4782 8.35124C61.6594 8.50271 62.7253 8.71461 63.5843 9.2515C63.5843 6.63889 63.5843 4.70113 63.5843 3.9694C63.5843 0.539019 61.7703 7.02004e-07 59.8923 7.02004e-07C58.0093 7.02004e-07 34.4161 7.02004e-07 34.4161 7.02004e-07H31.795C31.795 7.02004e-07 5.57721 7.02004e-07 3.6942 7.02004e-07C1.81474 -0.000710405 0 0.538308 0 3.96869V39.8604C0 42.5498 2.41847 43.5581 3.69349 43.5581C4.97348 43.5581 31.7893 43.5581 31.7893 43.5581H33.0003C33.0003 43.5581 37.9262 43.5581 43.5638 43.5581V38.5164H43.5653ZM31.795 1.95412C32.1619 1.95412 32.4627 2.25563 32.4627 2.62399C32.4627 2.99234 32.1612 3.291 31.795 3.291C31.4245 3.291 31.1259 2.99234 31.1259 2.62399C31.1259 2.25634 31.4238 1.95412 31.795 1.95412Z" fill="#FFFDFA"/>
<path d="M59.6798 10.3528C58.2753 10.1651 54.7518 10.1672 54.7518 10.1672H54.5036C54.5036 10.1672 50.9794 10.1651 49.5806 10.3528C47.1287 10.6863 45.2578 10.6472 45.2578 15.3796C45.2578 16.9811 45.2578 40.9816 45.2578 43.3496C45.2578 45.7197 47.2525 47.2771 49.8821 47.2771C52.5118 47.2771 54.5036 47.2771 54.5036 47.2771H54.7518C54.7518 47.2771 56.7486 47.2771 59.3783 47.2771C62.0051 47.2771 63.9997 45.7197 63.9997 43.3496C63.9997 40.9816 63.9997 16.9804 63.9997 15.3796C63.9997 10.6472 62.131 10.6863 59.6798 10.3528ZM60.2778 11.5788C60.5772 11.5788 60.8197 11.8206 60.8197 12.1221C60.8197 12.4165 60.5772 12.6611 60.2778 12.6611C59.9813 12.6611 59.7388 12.4165 59.7388 12.1221C59.7388 11.8206 59.9813 11.5788 60.2778 11.5788ZM52.7593 11.3512H56.2935C56.4172 11.3512 56.5203 11.4522 56.5203 11.5809C56.5203 11.7046 56.4165 11.8085 56.2935 11.8085H52.7593C52.6327 11.8085 52.5317 11.7046 52.5317 11.5809C52.5317 11.4522 52.6334 11.3512 52.7593 11.3512ZM56.728 45.7005C56.728 45.8932 56.5701 46.054 56.3774 46.054H52.8851C52.6903 46.054 52.5317 45.8925 52.5317 45.7005V45.1985C52.5317 45.0058 52.6903 44.8472 52.8851 44.8472H56.3774C56.5701 44.8472 56.728 45.0058 56.728 45.1985V45.7005ZM62.547 42.332H46.5456V14.3244H62.547V42.332Z" fill="#FFFDFA"/>
</svg>
