<svg width="61" height="62" viewBox="0 0 61 62" fill="none" xmlns="http://www.w3.org/2000/svg">
<path d="M51.7598 9.5688C46.158 3.53204 38.5241 0.13492 30.2619 0.00241892C22.4172 -0.0989521 14.8791 2.98847 9.11688 8.76822C3.3515 14.5512 0.11481 22.2242 0.00306206 30.373C-0.23081 47.4345 12.9618 61.6185 29.4095 61.9928C29.6322 61.9984 29.8524 62 30.0728 62C46.2139 62 59.5805 48.6006 60.0091 31.8209C60.2247 23.4351 57.2945 15.5337 51.7598 9.5688ZM56.9944 37.9192C55.1673 36.1687 53.6563 35.9389 51.3607 37.0156C48.6301 38.2943 46.3592 40.4606 44.4188 43.6383C44.2471 43.9176 44.2352 44.2353 44.2216 44.5426C44.2176 44.6568 44.2128 44.7757 44.1985 44.8946L44.1394 45.3488L44.5784 45.4047C45.6887 45.5491 46.1093 44.8156 46.3903 44.3335C46.447 44.2353 46.5028 44.1387 46.5635 44.0525C48.132 41.8295 49.6988 40.3465 51.4964 39.3855C52.202 39.0087 52.9299 38.7357 53.602 38.5985C54.512 38.4117 55.3038 38.9042 55.4746 39.7718C55.7204 41.0178 55.5584 42.2438 54.9318 43.742C54.1432 41.9477 53.2508 41.08 51.4724 41.4185C49.7763 41.7449 48.4065 43.1937 48.4193 44.6488L48.4249 45.2921L49.0092 45.0702C49.1369 45.0215 49.2614 44.9784 49.3835 44.9369C49.6717 44.8379 49.9447 44.7438 50.2097 44.5977C50.4228 44.4812 50.6223 44.3359 50.8203 44.1906C51.0254 44.0397 51.2202 43.8969 51.4205 43.8011C51.7239 43.6558 52.1429 43.5177 52.4422 43.6806C52.7368 43.8434 52.8581 44.28 52.9092 44.6176C52.9786 45.0862 52.9379 45.6202 52.7982 46.0823C51.9138 49.0077 50.0532 51.2922 47.2683 52.8726C46.4542 53.3348 45.7134 53.4002 45.181 53.0586C44.6175 52.6978 44.3198 51.8956 44.3613 50.8588C44.378 50.4134 44.4499 49.9536 44.5185 49.509C44.5513 49.2999 44.5832 49.0923 44.6103 48.888L44.6414 48.6557L44.4754 48.4953C44.1282 48.16 43.7874 48.0259 43.4617 48.0954C43.0131 48.192 42.7825 48.6286 42.6476 48.9487C41.5756 51.4989 42.519 54.0284 44.9958 55.2648C44.9679 55.2832 44.94 55.3023 44.912 55.3199C44.4818 55.6048 44.0763 55.8738 43.6557 56.1021C43.1927 56.3543 42.8288 56.4286 42.5478 56.3272C42.2612 56.225 42.0026 55.9113 41.7791 55.3965C41.2707 54.22 41.3944 52.9468 41.566 51.7448C41.6099 51.4399 41.6307 51.1325 41.6546 50.7702L41.7695 49.2911L41.0256 49.7764C39.0668 51.0535 38.8689 54.2575 40.502 57.5069C39.4763 58.0338 38.3956 58.4616 37.2797 58.8064L37.3866 58.5997C38.0108 57.3976 37.8951 56.3719 37.7921 55.4668C37.7458 55.0573 37.7019 54.6701 37.7386 54.3149C37.7969 53.7434 37.8137 53.1647 37.8304 52.6052C37.8552 51.7775 37.8783 50.9952 38.022 50.233C38.1952 49.3198 38.5472 48.4059 38.888 47.5215C39.0078 47.2086 39.1283 46.8949 39.2424 46.5812C39.3757 46.2108 39.5865 45.862 39.8092 45.4933C40.2945 44.6887 40.8452 43.7763 40.6928 42.425L40.6129 41.7234L40.0287 42.0906C39.9385 42.1472 39.8387 42.1959 39.7397 42.2454C39.4651 42.3827 39.1523 42.5383 38.9535 42.8345C36.6531 46.25 35.6218 49.3406 35.708 52.5613C35.7184 52.9189 35.7128 53.2805 35.7088 53.6461C35.6905 55.1219 35.6705 56.795 36.6148 58.6005L36.7952 58.9445C31.2844 60.5082 24.9276 59.9414 19.4104 57.5915L19.6164 57.1869C19.6691 57.0839 19.7249 56.9937 19.7752 56.9131C19.9189 56.68 20.0682 56.4389 19.9915 56.146C19.8997 55.7876 19.4607 55.442 19.0872 55.4356C18.9187 55.4396 18.7551 55.5138 18.6027 55.6767C18.5484 55.735 18.2778 56.0446 18.2985 56.3911C18.3153 56.6784 18.5029 56.866 18.6849 57.048C18.7503 57.1134 18.8246 57.1877 18.8988 57.2755L19.0305 57.4303C16.5106 56.312 14.1727 54.8298 12.1955 52.9907C12.4414 53.0729 12.6888 53.16 12.9355 53.2462C13.9947 53.6181 15.089 54.002 16.2153 54.0883C19.2101 54.3181 21.1721 52.8439 22.0389 49.711C22.7748 47.0482 22.252 44.4644 21.7947 42.7531C21.4738 41.5502 21.0012 40.4191 20.4625 39.1716C20.3156 38.8331 19.9788 38.699 19.6802 38.5793C19.5892 38.5434 19.4974 38.5074 19.4208 38.4651L18.9395 38.2025L18.7934 38.7437C18.7703 38.8283 18.736 38.9161 18.7032 39.0031C18.5995 39.2761 18.4813 39.585 18.5548 39.9163C18.6402 40.3098 18.7966 40.669 18.9483 41.0154C19.0257 41.1942 19.1039 41.373 19.171 41.555C20.1639 44.2752 20.4489 46.4256 20.0945 48.5288C19.867 49.8778 19.2979 50.8907 18.4502 51.459C17.5969 52.0313 16.4595 52.1542 15.1592 51.8158C13.5309 51.3912 11.9808 50.5714 10.1346 49.1594C6.22182 46.167 3.84479 42.3476 2.86939 37.4826C2.70656 36.67 2.57884 35.863 2.47588 35.0568C2.57006 35.3562 2.81751 35.539 3.01945 35.6834C3.0833 35.7297 3.14796 35.7752 3.20144 35.8239L3.53429 36.1272L3.82403 35.7792C3.87113 35.7225 3.9278 35.6683 3.98287 35.614C4.15688 35.444 4.374 35.2317 4.44025 34.9275C4.51368 34.5899 4.5464 34.2515 4.57753 33.9234C4.61186 33.5618 4.64538 33.221 4.72839 32.9025C5.08359 31.5384 5.74529 31.0746 7.08147 31.2478C7.61148 31.3165 8.19656 31.5184 8.82075 31.8489C10.2056 32.5808 11.3734 33.7103 12.4956 35.4041C12.7239 35.7489 12.977 36.0753 13.2292 36.4026L13.7688 37.1122L14.7458 36.6668L14.7849 36.4266C14.7945 36.3707 14.8128 36.31 14.8304 36.2493C14.8966 36.0187 14.9788 35.7313 14.8344 35.4559C12.9538 31.8609 10.6909 29.8526 7.71285 29.1374C6.1835 28.7686 4.61904 29.2659 3.52631 30.464C2.79356 31.2686 2.37531 32.2711 2.29469 33.3184C2.16618 31.5919 2.17656 29.8686 2.32183 28.1253C2.37531 28.2107 2.43597 28.2929 2.49743 28.3679C2.5549 28.4398 2.61956 28.5196 2.68022 28.6098L3.02025 29.1166L3.38663 28.6298C3.45367 28.5396 3.52471 28.4613 3.58777 28.3911C3.77455 28.1812 3.96771 27.9649 3.931 27.6536C3.89508 27.3495 3.67796 27.1603 3.50396 27.0086C3.45926 26.9703 3.41456 26.932 3.37784 26.8921L3.06575 26.5584L2.75046 26.8881C2.71374 26.9264 2.66904 26.9631 2.62514 27.0006C2.5573 27.0589 2.48386 27.1252 2.41601 27.1994C2.43996 26.9847 2.45832 26.7708 2.48705 26.5552C2.63791 25.3915 3.18548 24.6316 4.31812 24.0154C5.72295 23.2507 7.3329 23.0631 9.38826 23.4247C9.4585 23.4375 9.52955 23.4558 9.60059 23.4742C9.95259 23.562 10.7715 23.7687 11.0629 22.7335L11.1355 22.4717L10.9471 22.2817C9.52077 20.8497 7.53805 20.7236 3.74581 21.8626C4.22154 15.7325 13.0121 6.43669 20.9342 3.83217L21.4347 4.28155L21.3548 4.95603C21.1513 6.67933 21.3093 7.02256 22.3917 8.37631C25.3219 12.044 30.4974 13.3754 34.6672 13.3754C36.096 13.3754 37.4066 13.219 38.4682 12.9468C38.813 12.8582 39.0517 12.5868 39.264 12.3481C39.3366 12.2651 39.4101 12.1813 39.4867 12.1111L39.699 11.9171L39.4061 10.9433L39.1012 10.9266C38.9727 10.9202 38.8433 10.9042 38.714 10.8882C38.386 10.8499 38.046 10.8084 37.6963 10.8786C35.4079 11.3328 32.9726 11.269 30.4583 10.6863C26.7235 9.81943 24.3194 8.12965 22.8938 5.36789C22.7796 5.14679 22.5968 5.02466 22.3853 4.88258C22.3526 4.86103 22.3079 4.82672 22.2712 4.80118L23.0797 3.15528L23.7542 2.96531C23.7391 3.02198 23.7223 3.07866 23.7071 3.13533C23.4078 4.21929 23.0335 5.56823 24.5652 6.65059L25.0561 6.99702L25.2317 6.41034C25.2764 6.26267 25.3243 6.13017 25.369 6.00885C25.4696 5.73267 25.5629 5.47246 25.5669 5.18271C25.5901 3.18961 26.2773 2.38264 28.019 2.30681C29.7662 2.23178 31.4792 2.27727 33.1298 2.43691C32.196 2.45607 31.2724 2.64683 30.3665 3.03076C29.0886 3.57194 28.4452 4.47312 28.4508 5.71033C28.458 7.08882 29.0998 8.17436 30.3074 8.85043C30.4319 8.91908 30.5581 8.94382 30.6898 8.94382C30.8422 8.94382 31.0003 8.91029 31.1623 8.87676C31.2868 8.85042 31.4289 8.82089 31.5885 8.80174L32.3404 8.71395L31.5598 7.60843C31.3682 7.33386 31.2126 7.10955 31.0458 6.89484C30.6036 6.31934 30.4224 5.85241 30.5237 5.5451C30.6259 5.2338 31.0505 4.97279 31.7522 4.7908C33.0844 4.44598 34.4301 4.57129 35.7575 5.16515C35.8493 5.20586 35.9451 5.29207 36.0457 5.39663C35.9379 5.41339 35.823 5.42296 35.7016 5.43254C35.1437 5.47724 34.379 5.53871 33.9983 6.56199L33.8602 6.93157L34.197 7.12152C35.4622 7.83591 37.0761 7.79681 37.9478 7.02735C38.6925 6.37123 38.8338 5.4557 38.3253 4.57849C38.0412 4.09079 37.5766 3.65017 37.0833 3.40034C36.5421 3.12576 36.0026 2.91344 35.4654 2.7546C38.1665 3.25108 40.779 4.22967 43.2462 5.6792C43.2023 6.31217 42.8168 6.67135 42.1199 7.10876C40.609 8.05462 38.9407 8.22862 36.8726 8.18472C36.3809 8.17594 35.8924 8.10652 35.3752 8.03309C34.9753 7.97641 34.5754 7.91973 34.1747 7.891C33.7213 7.86386 33.256 8.03547 32.8241 8.40264L32.3636 8.79297L32.8617 9.13139C35.0663 10.628 37.4936 10.45 39.596 10.1659C41.5772 9.89847 43.7738 9.28944 45.2281 6.86931C45.375 6.97707 45.5211 7.08322 45.6663 7.18858C46.3504 7.68586 46.9969 8.156 47.5796 8.6892C47.7185 8.81691 47.7544 9.40038 47.7712 9.68853C47.78 9.82821 47.7305 10.007 47.6786 10.197C47.6347 10.3574 47.5916 10.5187 47.5676 10.6815C47.5357 10.9146 47.6467 11.0798 47.7536 11.2402C47.7959 11.3041 47.8494 11.3839 47.9101 11.4901L48.1862 11.9698L49.5568 10.6639C53.8542 14.5232 56.7142 20.6486 57.5906 26.9942C57.4908 26.9136 57.3839 26.8402 57.2506 26.8003C57.0239 26.7301 56.7836 26.837 56.5418 27.118C56.3638 27.3247 56.3143 27.5282 56.3949 27.7238C56.5083 27.9928 56.7094 28.237 56.9481 28.3943L56.9505 28.3959C57.0335 28.4502 57.1133 28.4725 57.1891 28.4725C57.3895 28.4725 57.5659 28.3177 57.7151 28.1868C57.7175 28.1844 57.7215 28.1812 57.7239 28.1788C58.056 31.4993 57.8452 34.8413 56.9944 37.9192Z" fill="#F88C73"/>
<path d="M16.8102 25.2767C16.5396 25.0253 16.2331 24.8441 15.937 24.6684C15.8125 24.595 15.688 24.5208 15.5682 24.4426L15.3296 24.2861L14.4587 24.8752L14.5481 25.1961C14.5713 25.2799 14.5864 25.3701 14.604 25.4603C14.6535 25.734 14.7102 26.043 14.9161 26.2904C15.1651 26.5881 15.4485 26.8412 15.7223 27.0862C15.9091 27.2538 16.0974 27.4206 16.2706 27.6018C21.1061 32.656 23.9541 37.8826 24.979 43.5817C25.7476 47.8641 25.0021 50.9627 22.6331 53.3325C22.4583 53.5057 22.4519 53.738 22.4439 53.9559L22.4223 54.0988L22.4862 54.2281C22.6929 54.6472 23.0114 54.9042 23.3842 54.9505C23.4241 54.9553 23.4648 54.9577 23.5047 54.9577C23.8312 54.9577 24.1505 54.7948 24.3963 54.4987L24.5607 54.3007C25.236 53.4898 25.936 52.6509 26.3455 51.6619C27.5372 48.782 27.7423 45.6299 26.9537 42.2927C25.43 35.8472 22.0185 30.1218 16.8102 25.2767Z" fill="#F88C73"/>
<path d="M37.299 17.5733C40.0472 17.3706 42.4984 16.2036 44.5339 15.0893C44.8204 14.9321 45.356 14.6392 45.4574 14.078C45.5276 13.6933 45.3831 13.291 45.0136 12.8488L44.7941 12.5862L44.4907 12.7363C41.3211 14.3135 38.4644 15.6113 35.1782 15.5243C31.5256 15.4254 28.4733 14.6854 25.8465 13.263C22.7008 11.5605 20.4171 9.28964 18.863 6.31954L18.6858 5.97949L18.3322 6.10801C17.8501 6.28282 17.542 6.5526 17.4159 6.9086C17.2946 7.25182 17.356 7.64136 17.5995 8.0676C18.0936 8.92885 18.6419 9.83241 19.3076 10.6027C23.3561 15.2865 28.6936 17.6523 35.2005 17.6523C35.887 17.6523 36.587 17.626 37.299 17.5733Z" fill="#F88C73"/>
<path d="M52.5795 29.6874C53.0999 29.6012 53.8877 29.4727 54.1016 28.4869L54.1711 28.1636L53.8941 27.9968C52.9458 27.4229 52.8269 27.4022 51.7869 27.6145C46.9729 28.6003 42.7273 31.1521 38.8082 35.4169C37.0537 37.3246 35.6992 39.5763 34.7829 42.1066C34.7581 42.1736 34.7278 42.2423 34.6975 42.3125C34.4859 42.7962 34.0932 43.6966 35.3408 44.4724L35.7559 44.731L35.9634 44.2777C36.056 44.0757 36.1382 43.885 36.2172 43.703C36.3721 43.3462 36.5118 43.0237 36.6826 42.7204C36.9516 42.2407 37.2062 41.749 37.4616 41.2565C38.0547 40.1111 38.6685 38.9258 39.4579 37.9504C43.0322 33.5307 47.3625 30.7658 52.328 29.7305C52.4103 29.7146 52.4949 29.701 52.5795 29.6874Z" fill="#F88C73"/>
<path d="M17.3774 42.038C17.3088 41.9414 17.213 41.8065 17.0829 41.6046L16.6878 40.994L16.3365 41.6325C16.24 41.8081 16.1474 41.9566 16.0644 42.0883C15.8848 42.3756 15.7291 42.6239 15.6709 42.9272C15.6062 43.2584 15.5902 43.5873 15.5743 43.9058C15.5583 44.2195 15.5431 44.5156 15.4849 44.7918C15.3244 45.5461 15.077 46.009 14.7497 46.1679C14.4313 46.3203 13.9571 46.227 13.3377 45.8925C10.8865 44.5675 9.37228 42.4531 8.83909 39.6067C8.62757 38.4813 8.67066 37.7844 8.97238 37.4133C9.28049 37.0373 9.96773 36.8689 11.1155 36.9016C11.3287 36.904 11.4787 36.7539 11.541 36.6829L11.7326 36.5153L11.6886 36.2598C11.5785 35.6005 11.3614 35.1735 11.007 34.9157C10.6502 34.6555 10.1809 34.5908 9.53432 34.7066C7.55319 35.0642 6.37026 36.9152 6.65681 39.2076C7.06389 42.4547 8.47511 45.0352 10.8513 46.8767C11.7709 47.5895 12.929 48.4874 14.2429 48.4874C14.8064 48.4874 15.3979 48.323 16.0125 47.9087C18.0551 46.531 17.7877 44.1189 17.6097 42.5209C17.5889 42.3373 17.5051 42.2176 17.3774 42.038Z" fill="#F88C73"/>
<path d="M51.4266 32.4546C48.1556 33.3805 44.3227 35.8669 43.8326 38.2694L43.7432 38.7077L44.1654 38.805C44.3242 38.8417 44.4719 38.8585 44.6084 38.8585C45.3515 38.8585 45.7738 38.3716 46.0683 38.0316C46.1505 37.9366 46.2311 37.8424 46.3181 37.761C48.8963 35.3624 51.3995 34.2314 54.1979 34.201C54.6601 34.1954 55.0959 34.0621 55.5581 33.9201C55.7664 33.8562 55.9835 33.79 56.2142 33.7325L56.9382 33.5529L56.4345 32.9862C55.5445 31.9812 53.7685 31.7921 51.4266 32.4546Z" fill="#F88C73"/>
<path d="M15.9239 32.43L15.8408 32.1307C15.8153 32.0397 15.7993 31.9407 15.7818 31.8425C15.7315 31.5552 15.674 31.2295 15.4577 30.9749L15.0067 30.4377C14.1271 29.3881 13.218 28.3034 12.209 27.3447C10.9607 26.1586 9.29402 25.4674 7.11415 25.2319C6.36943 25.1505 4.97977 25.0012 4.45376 26.5154L4.35718 26.794L4.56551 26.9967C4.62378 27.0542 4.66927 27.1069 4.70839 27.1516C4.81774 27.2761 4.95264 27.4309 5.17693 27.4565H5.17853C5.51537 27.494 5.84581 27.4996 6.1595 27.4732C8.20369 27.2984 9.98447 28.0024 11.6032 29.6188C12.0271 30.041 12.427 30.5168 12.8141 30.9773C13.0974 31.315 13.3816 31.6518 13.6777 31.9758C13.9116 32.2313 14.1734 32.4436 14.4264 32.6487C14.5334 32.7357 14.6404 32.8227 14.7449 32.9121L15.0131 33.1428L15.9239 32.43Z" fill="#F88C73"/>
<path d="M18.4516 12.0107L17.8865 11.3203L17.6894 12.2015C17.5345 12.8936 17.4427 13.5952 17.8099 14.0398C19.9491 16.6204 22.5879 18.4251 25.6514 19.4021C25.7184 19.4236 25.7839 19.4332 25.8493 19.4332C26.0952 19.4332 26.3322 19.2951 26.6164 19.1291C26.7824 19.0325 26.9836 18.9144 27.2326 18.7946L28.1194 18.3684L27.2214 17.9685C23.4364 16.2803 20.6483 14.6959 18.4516 12.0107Z" fill="#F88C73"/>
<path d="M12.0996 39.7438C12.4236 40.439 12.6056 40.8844 12.3398 41.3873C11.8106 41.4008 11.5975 41.0672 11.2128 40.3895C10.9821 39.9832 10.7203 39.5227 10.3076 39.1603L9.95083 38.8474L9.67146 39.2369C9.61559 39.3152 9.55412 39.3846 9.49825 39.4492C9.3402 39.6304 9.15982 39.8364 9.14784 40.1253C9.11751 40.8613 9.5198 41.788 10.1959 42.5423C10.7945 43.2104 11.4898 43.6055 12.1036 43.6278C12.1235 43.6286 12.1443 43.6294 12.1658 43.6294C12.7621 43.6294 13.4685 43.3309 13.87 42.9047C14.7767 41.9396 14.5939 40.6825 14.3776 39.8196C14.1462 38.8993 13.8301 37.6381 12.2041 37.2654L11.7891 37.1704L11.6845 37.5966C11.4826 38.4228 11.8106 39.1252 12.0996 39.7438Z" fill="#F88C73"/>
<path d="M16.5191 35.0288C16.5382 35.0304 16.5574 35.0311 16.5774 35.0311C16.9485 35.0311 17.3971 34.6728 17.4618 34.3056C17.5128 34.0166 17.3684 33.7868 17.2279 33.5649C17.1792 33.4882 17.1241 33.402 17.073 33.3046L16.7745 32.7363L16.3602 33.2201C16.2908 33.3007 16.2206 33.3701 16.1583 33.4324C15.9747 33.6136 15.7863 33.8011 15.7736 34.0941C15.76 34.4644 16.1184 34.9841 16.5191 35.0288Z" fill="#F88C73"/>
<path d="M42.585 39.881L42.395 39.4141L41.9664 39.6615C41.9336 39.6807 41.8945 39.6966 41.8538 39.7142C41.671 39.7948 41.3941 39.9161 41.3382 40.2298C41.2951 40.4661 41.3533 40.6824 41.41 40.8915C41.4308 40.9682 41.4539 41.052 41.4731 41.1446L41.6136 41.819L42.1563 41.4167C42.2369 41.3577 42.3168 41.3082 42.3854 41.2643C42.5914 41.135 42.8484 40.9737 42.8404 40.6497C42.834 40.4046 42.7334 40.1963 42.652 40.0287C42.6297 39.9792 42.6049 39.9305 42.585 39.881Z" fill="#F88C73"/>
</svg>
