<svg width="65" height="62" viewBox="0 0 65 62" fill="none" xmlns="http://www.w3.org/2000/svg">
<path d="M65 31C65 13.9066 50.4205 0 32.5 0C31.1497 0 29.786 0.080921 28.447 0.240442C26.9841 0.414949 25.5151 0.689371 24.0811 1.0567C9.90257 4.68705 0 17.0001 0 31C0 44.9995 9.90257 57.3126 24.0811 60.943C25.5147 61.3103 26.9837 61.5847 28.4467 61.7592C29.7874 61.9191 31.151 62 32.5 62C50.4205 62 65 48.0934 65 31ZM55.5534 31C55.5534 45.8711 43.9092 58.5245 28.464 60.4401C13.0189 58.5242 1.37466 45.8711 1.37466 31C1.37466 16.1289 13.0189 3.47549 28.464 1.5599C43.9092 3.47549 55.5534 16.1289 55.5534 31Z" fill="#F88C73"/>
</svg>
