<svg width="84" height="94" viewBox="0 0 84 94" fill="none" xmlns="http://www.w3.org/2000/svg">
<path d="M75.9503 45.6139C60.2495 42.211 48.0699 29.7037 45.2292 13.891C44.3566 9.03253 43.2421 4.46189 41.8226 0.861328C40.3995 4.46821 39.2842 9.04876 38.4107 13.9172C35.5654 29.775 23.3217 42.2949 7.56763 45.6662C3.65935 46.5028 1 47.1092 1 47.1092C3.68102 48.1668 6.56146 49.0547 9.52854 49.7992C24.5255 53.564 35.7323 66.0117 38.5776 81.2098C39.425 85.7381 40.4889 89.9748 41.8226 93.3561C43.1564 89.9748 44.2203 85.7381 45.0676 81.2098C47.9129 66.0117 59.1198 53.564 74.1167 49.7992C77.0838 49.0538 79.9642 48.1668 82.6452 47.1092C82.6452 47.1092 79.9344 46.4775 75.9503 45.6139Z" stroke="#E4C3BB" stroke-width="0.902397" stroke-miterlimit="10" stroke-linecap="round" stroke-linejoin="round"/>
</svg>
