<svg width="423" height="300" viewBox="0 0 423 300" fill="none" xmlns="http://www.w3.org/2000/svg">
<path d="M210.629 300C188.646 299.747 157.317 288.976 130.773 265.714C123.185 259.066 116.554 258.414 107.476 260.252C86.8537 264.428 66.0785 268.237 45.1893 270.367C35.2952 271.376 24.578 269.612 14.9867 266.569C1.33016 262.244 -3.44045 250.846 2.53096 237.364C6.50002 228.407 11.9546 219.397 18.8488 212.73C33.7952 198.272 49.6429 184.683 66.018 171.978C74.0167 165.775 77.9752 160.064 78.2317 149.019C79.6854 86.9035 107.65 40.7035 162.156 14.8868C216.575 -10.8907 268.832 -2.78519 315.549 36.0468C323.896 42.9837 330.409 44.4196 340.136 41.4837C367.161 33.3176 394.645 26.997 423.041 27.9625C431.524 28.2511 440.41 29.573 448.259 32.7048C459.407 37.1549 463.776 47.4908 458.83 58.7317C454.448 68.6935 448.851 79.1577 441.094 86.2515C421.733 103.955 401.204 120.377 380.383 136.246C372.021 142.62 367.175 148.288 366.608 160.096C362.878 238.102 299.177 299.786 210.629 300ZM109.442 221.331C167.343 214.444 324.278 144.248 350.853 113.351C337.411 59.8148 294.488 21.2963 239.046 13.0198C187.915 5.38448 134.593 32.8722 107.152 80.3228C78.1391 130.485 87.1495 193.131 109.442 221.331ZM354.516 153.551C284.046 195.472 211.94 228.343 135.47 253.287C167.735 287.334 228.187 299.9 277.672 276.456C324.267 254.377 357.32 203.264 354.516 153.551ZM44.3771 201.949C34.5506 212.574 26.4272 220.594 19.2159 229.412C14.4274 235.269 8.88715 242.199 12.6353 250.501C16.3229 258.67 25.1303 259.572 32.3843 259.358C47.9826 258.902 63.9159 258.61 79.0439 255.143C96.9617 251.039 114.651 246.396 132.117 241.216C228.671 212.584 318.292 167.603 401.183 107.255C413.471 98.3082 424.423 87.2562 435.297 76.4357C440.243 71.5118 444.28 65.1627 447.315 58.7459C451.327 50.2663 448.836 44.9967 440.449 41.669C436.958 40.2866 433.174 39.2107 429.465 38.9719C404.201 37.3437 379.891 42.2675 356.084 50.6332C362.084 51.3636 367.973 50.6296 373.845 50.7401C380.835 50.8719 387.996 50.879 394.752 52.4574C407.728 55.4894 412.548 65.5582 406.563 77.7682C403.217 84.5947 398.635 91.4498 392.992 96.2703C378.038 109.043 362.999 122.034 346.585 132.598C280.126 175.374 208.808 207.165 133.278 228.307C113.094 233.958 91.9345 237.361 71.0524 238.479C45.6954 239.848 39.2465 230.591 44.3771 201.949ZM399.366 65.1805C379.339 59.8291 362.226 60.7127 344.323 66.994C350.707 80.8715 356.533 93.5376 363.142 107.907C377.059 95.4687 392.247 86.8643 399.366 65.1805ZM95.1981 223.879C90.1673 211.002 85.6532 199.444 80.7649 186.932C68.2806 196.762 56.5408 205.209 52.2831 220.419C63.068 228.446 73.4716 229.344 95.1981 223.879Z" fill="#FAF4F0"/>
</svg>
