<svg width="28" height="32" viewBox="0 0 28 32" fill="none" xmlns="http://www.w3.org/2000/svg">
<path d="M20.349 22.083L23.7429 25.477" stroke="#E4C3BB" stroke-width="0.902397" stroke-miterlimit="10" stroke-linecap="round" stroke-linejoin="round"/>
<path d="M4.25391 5.98572L7.6464 9.37821" stroke="#E4C3BB" stroke-width="0.902397" stroke-miterlimit="10" stroke-linecap="round" stroke-linejoin="round"/>
<path d="M7.64785 22.083L4.25391 25.477" stroke="#E4C3BB" stroke-width="0.902397" stroke-miterlimit="10" stroke-linecap="round" stroke-linejoin="round"/>
<path d="M23.7429 5.98572L20.349 9.37938" stroke="#E4C3BB" stroke-width="0.902397" stroke-miterlimit="10" stroke-linecap="round" stroke-linejoin="round"/>
<path d="M27.1413 15.7315C27.1413 15.7315 23.6012 14.9058 20.2979 14.3085C19.309 14.1296 18.4174 13.6949 17.6832 13.0819C18.4054 12.1316 19.0769 11.1302 19.4429 10.2873C18.6138 10.6473 17.6312 11.3036 16.6948 12.0125C16.144 11.2359 15.782 10.3176 15.6806 9.3222C15.3799 6.37102 14.8668 3.04361 13.9987 0.842285C13.1295 3.04652 12.6161 6.38031 12.3157 9.33469C12.2073 10.4009 11.8012 11.3797 11.1821 12.1888C9.91276 11.285 8.55454 10.2873 8.55454 10.2873C8.88051 11.0381 9.68352 12.149 10.3625 13.0514C9.61873 13.6871 8.7088 14.138 7.69689 14.3222C4.42439 14.918 0.855835 15.7315 0.855835 15.7315C2.84101 16.5145 5.16464 17.0084 7.38922 17.3184C8.44906 17.4663 9.41158 17.8966 10.205 18.5267C9.52518 19.4332 8.90201 20.3759 8.55454 21.176C9.35174 20.8297 10.2907 20.2097 11.1943 19.5325C11.8177 20.3457 12.2309 21.328 12.3445 22.4061C12.6486 25.2899 13.1565 28.4857 13.999 30.6214C14.8413 28.4857 15.3491 25.2902 15.6533 22.4061C15.7692 21.3079 16.1951 20.3088 16.8384 19.4869C17.7099 20.1385 18.7355 20.8687 19.4432 21.176C19.4432 21.176 18.5106 19.8983 17.628 18.6586C18.4505 17.9552 19.4749 17.4767 20.6082 17.3187C22.8322 17.0084 25.1561 16.5142 27.1413 15.7315Z" stroke="#E4C3BB" stroke-width="0.902397" stroke-miterlimit="10" stroke-linecap="round" stroke-linejoin="round"/>
</svg>
