<svg width="42" height="42" viewBox="0 0 42 42" fill="none" xmlns="http://www.w3.org/2000/svg">
<path d="M20.9998 29.5851C25.7427 29.5851 29.5875 25.7402 29.5875 20.9974C29.5875 16.2545 25.7427 12.4097 20.9998 12.4097C16.257 12.4097 12.4121 16.2545 12.4121 20.9974C12.4121 25.7402 16.257 29.5851 20.9998 29.5851Z" stroke="#373737" stroke-width="0.434783" stroke-miterlimit="10" stroke-linecap="round" stroke-linejoin="round"/>
<path d="M26.1617 19.8595C26.1617 19.8595 25.8296 19.7436 25.6748 19.5117C25.5198 19.2798 24.9443 19.0248 24.4573 19.0248C23.9704 19.0248 23.3948 19.2799 23.2399 19.5117C23.0849 19.7436 22.7529 19.8595 22.7529 19.8595" stroke="#373737" stroke-width="0.434783" stroke-miterlimit="10" stroke-linecap="round" stroke-linejoin="round"/>
<path d="M24.9837 19.5514C24.9837 19.8422 24.748 20.078 24.4571 20.078C24.1663 20.078 23.9304 19.8423 23.9304 19.5514C23.9304 19.2606 24.1661 19.0248 24.4571 19.0248C24.748 19.0249 24.9837 19.2606 24.9837 19.5514Z" stroke="#373737" stroke-width="0.434783" stroke-miterlimit="10" stroke-linecap="round" stroke-linejoin="round"/>
<path d="M22.5898 19.3441C22.5898 19.3441 23.2334 18.7701 23.5291 18.5962C23.8248 18.4223 24.646 18.3353 24.9832 18.4919C25.3205 18.6484 25.9465 19.3441 25.9465 19.3441" stroke="#373737" stroke-width="0.434783" stroke-miterlimit="10" stroke-linecap="round" stroke-linejoin="round"/>
<path d="M22.312 22.5438C22.312 22.5438 22.712 22.8916 22.625 23.3612C22.538 23.8308 22.0685 23.7786 21.738 23.7961C21.4075 23.8134 21.2336 24.2309 20.8684 24.2134C20.5031 24.2308 20.3292 23.8134 19.9987 23.7961C19.6682 23.7786 19.1988 23.8308 19.1117 23.3612C19.0247 22.8916 19.4248 22.5438 19.4248 22.5438" stroke="#373737" stroke-width="0.434783" stroke-miterlimit="10" stroke-linecap="round" stroke-linejoin="round"/>
<path d="M20.4681 23.4831C20.4681 23.4831 20.1203 23.3266 20.2594 22.7005C20.3985 22.0744 20.5899 22.2136 20.5899 21.2221C20.5899 20.2308 20.5899 19.0249 20.5899 19.0249" stroke="#373737" stroke-width="0.434783" stroke-miterlimit="10" stroke-linecap="round" stroke-linejoin="round"/>
<path d="M22.8339 25.578C22.8339 25.578 22.3996 25.6286 22.1209 25.6156C21.8421 25.6026 21.7189 25.5259 21.5102 25.5345C21.0928 25.552 21.1121 25.6911 20.8686 25.6997C20.6252 25.691 20.6445 25.5518 20.2271 25.5345C20.0184 25.5258 19.8951 25.6025 19.6164 25.6156C19.3377 25.6286 18.9033 25.578 18.9033 25.578" stroke="#373737" stroke-width="0.434783" stroke-miterlimit="10" stroke-linecap="round" stroke-linejoin="round"/>
<path d="M21.9294 25.2745C21.9294 25.2745 21.4946 25.0483 21.3729 25.0831C21.2512 25.1179 20.8685 25.3961 20.8685 25.3961C20.8685 25.3961 20.4859 25.1179 20.3641 25.0831C20.2423 25.0483 19.8076 25.2745 19.8076 25.2745" stroke="#373737" stroke-width="0.434783" stroke-miterlimit="10" stroke-linecap="round" stroke-linejoin="round"/>
<path d="M22.1905 25.8658C22.1905 25.8658 21.4078 26.3876 20.8687 26.3876C20.3295 26.3876 19.5469 25.8658 19.5469 25.8658" stroke="#373737" stroke-width="0.434783" stroke-miterlimit="10" stroke-linecap="round" stroke-linejoin="round"/>
<path d="M22.1902 17.5176C22.1902 17.5176 23.6686 16.0567 26.3122 17.5176" stroke="#373737" stroke-width="0.434783" stroke-miterlimit="10" stroke-linecap="round" stroke-linejoin="round"/>
<path d="M15.8369 19.8596C15.8369 19.8596 16.169 19.7438 16.3238 19.5118C16.4788 19.2799 17.0544 19.0249 17.5413 19.0249C18.0282 19.0249 18.6038 19.28 18.7588 19.5118C18.9137 19.7438 19.2457 19.8596 19.2457 19.8596" stroke="#373737" stroke-width="0.434783" stroke-miterlimit="10" stroke-linecap="round" stroke-linejoin="round"/>
<path d="M17.0146 19.5515C17.0146 19.8423 17.2504 20.0782 17.5413 20.0782C17.8321 20.0782 18.0678 19.8424 18.0678 19.5515C18.0678 19.2607 17.8321 19.0249 17.5413 19.0249C17.2504 19.025 17.0146 19.2607 17.0146 19.5515Z" stroke="#373737" stroke-width="0.434783" stroke-miterlimit="10" stroke-linecap="round" stroke-linejoin="round"/>
<path d="M19.4075 19.3439C19.4075 19.3439 18.764 18.77 18.4683 18.5961C18.1726 18.4222 17.3513 18.3352 17.0141 18.4917C16.6768 18.6483 16.0508 19.3439 16.0508 19.3439" stroke="#373737" stroke-width="0.434783" stroke-miterlimit="10" stroke-linecap="round" stroke-linejoin="round"/>
<path d="M19.8075 17.5175C19.8075 17.5175 18.3291 16.0565 15.6855 17.5175" stroke="#373737" stroke-width="0.434783" stroke-miterlimit="10" stroke-linecap="round" stroke-linejoin="round"/>
<path d="M22.1861 12.4928C22.0589 9.26977 21.7579 6.06303 21.284 2.89796L20.9998 1L20.7156 2.89796C20.2417 6.06303 19.9407 9.26964 19.8135 12.4928C20.2015 12.4393 20.597 12.4093 20.9997 12.4093C21.4026 12.4094 21.7982 12.4393 22.1861 12.4928Z" stroke="#373737" stroke-width="0.434783" stroke-miterlimit="10" stroke-linecap="round" stroke-linejoin="round"/>
<path d="M19.8154 29.5073C19.9426 32.7304 20.2436 35.9371 20.7175 39.1022L21.0017 41.0002L21.2859 39.1022C21.7598 35.9371 22.0608 32.7305 22.188 29.5073C21.8 29.561 21.4045 29.5909 21.0017 29.5909C20.5989 29.5909 20.2033 29.561 19.8154 29.5073Z" stroke="#373737" stroke-width="0.434783" stroke-miterlimit="10" stroke-linecap="round" stroke-linejoin="round"/>
<path d="M29.5068 22.1858C32.73 22.0586 35.9367 21.7577 39.1017 21.2837L40.9997 20.9996L39.1017 20.7153C35.9367 20.2414 32.73 19.9404 29.5068 19.8132C29.5605 20.2012 29.5904 20.5969 29.5904 20.9995C29.5904 21.4023 29.5605 21.7978 29.5068 22.1858Z" stroke="#373737" stroke-width="0.434783" stroke-miterlimit="10" stroke-linecap="round" stroke-linejoin="round"/>
<path d="M12.4929 19.8147C9.26977 19.9419 6.06303 20.2429 2.89796 20.7168L1 21.0009L2.89796 21.2852C6.06303 21.7591 9.26965 22.0601 12.4929 22.1873C12.4393 21.7993 12.4093 21.4038 12.4093 21.0011C12.4094 20.5983 12.4393 20.2027 12.4929 19.8147Z" stroke="#373737" stroke-width="0.434783" stroke-miterlimit="10" stroke-linecap="round" stroke-linejoin="round"/>
<path d="M17.5423 9.90441C16.3198 9.31867 15.1482 8.01186 14.8846 6.74672C14.6209 5.4817 14.2329 3.63646 12.4939 3.69496C12.4939 3.69496 13.9766 4.66158 13.9254 6.30243C13.8899 7.44455 13.3908 8.85005 14.2988 9.81654C15.2068 10.7832 16.0524 11.6862 16.0524 12.7455C16.0524 13.6828 15.6871 14.2509 15.6871 14.2509L15.6938 14.2481C16.8611 13.3289 18.2717 12.7063 19.8141 12.4931C19.8141 12.4931 19.0902 10.6462 17.5423 9.90441Z" stroke="#373737" stroke-width="0.434783" stroke-miterlimit="10" stroke-linecap="round" stroke-linejoin="round"/>
<path d="M24.4581 9.90441C25.6806 9.31867 26.8522 8.01186 27.1158 6.74672C27.3795 5.4817 27.7675 3.63646 29.5065 3.69496C29.5065 3.69496 28.0237 4.66158 28.075 6.30243C28.1105 7.44455 28.6096 8.85005 27.7016 9.81654C26.7936 10.7832 25.948 11.6862 25.948 12.7455C25.948 13.6828 26.3133 14.2509 26.3133 14.2509L26.3067 14.2481C25.1393 13.3289 23.7287 12.7063 22.1863 12.4931C22.1863 12.4931 22.9102 10.6462 24.4581 9.90441Z" stroke="#373737" stroke-width="0.434783" stroke-miterlimit="10" stroke-linecap="round" stroke-linejoin="round"/>
<path d="M24.4574 32.0819C25.6799 32.6676 26.8515 33.9746 27.1151 35.2396C27.3787 36.5046 27.7667 38.3498 29.5058 38.2913C29.5058 38.2913 28.023 37.3247 28.0742 35.6839C28.1097 34.5417 28.6089 33.1362 27.7009 32.1697C26.7929 31.2031 25.9473 30.3001 25.9473 29.2408C25.9473 28.3035 26.3126 27.7354 26.3126 27.7354L26.3059 27.7382C25.1386 28.6574 23.728 29.28 22.1855 29.4932C22.1855 29.4932 22.9094 31.34 24.4574 32.0819Z" stroke="#373737" stroke-width="0.434783" stroke-miterlimit="10" stroke-linecap="round" stroke-linejoin="round"/>
<path d="M17.5416 32.0819C16.3191 32.6676 15.1475 33.9746 14.8838 35.2396C14.6202 36.5046 14.2322 38.3498 12.4932 38.2913C12.4932 38.2913 13.976 37.3247 13.9247 35.6839C13.8892 34.5417 13.3901 33.1362 14.2981 32.1697C15.2061 31.2031 16.0516 30.3001 16.0516 29.2408C16.0516 28.3035 15.6864 27.7354 15.6864 27.7354L15.693 27.7382C16.8603 28.6574 18.271 29.28 19.8134 29.4932C19.8134 29.4932 19.0895 31.34 17.5416 32.0819Z" stroke="#373737" stroke-width="0.434783" stroke-miterlimit="10" stroke-linecap="round" stroke-linejoin="round"/>
<path d="M15.8229 14.1461C13.4539 11.9568 10.9736 9.90229 8.40044 7.99941L6.85742 6.85828L7.99844 8.4013C9.90131 10.9745 11.956 13.4547 14.1452 15.8238C14.3817 15.5115 14.6403 15.2106 14.925 14.9259C15.2099 14.6411 15.5106 14.3825 15.8229 14.1461Z" stroke="#373737" stroke-width="0.434783" stroke-miterlimit="10" stroke-linecap="round" stroke-linejoin="round"/>
<path d="M26.1768 27.8539C28.5458 30.0431 31.0261 32.0976 33.5992 34.0005L35.1423 35.1417L34.0013 33.5986C32.0984 31.0255 30.0437 28.5452 27.8545 26.1761C27.618 26.4884 27.3594 26.7893 27.0747 27.0741C26.7898 27.3588 26.489 27.6175 26.1768 27.8539Z" stroke="#373737" stroke-width="0.434783" stroke-miterlimit="10" stroke-linecap="round" stroke-linejoin="round"/>
<path d="M27.854 15.8227C30.0432 13.4536 32.0978 10.9734 34.0006 8.4002L35.1418 6.85718L33.5988 7.99819C31.0256 9.90107 28.5453 11.9557 26.1763 14.145C26.4886 14.3814 26.7894 14.64 27.0742 14.9248C27.3591 15.2095 27.6177 15.5104 27.854 15.8227Z" stroke="#373737" stroke-width="0.434783" stroke-miterlimit="10" stroke-linecap="round" stroke-linejoin="round"/>
<path d="M14.1464 26.1765C11.9572 28.5456 9.90266 31.0258 7.99978 33.599L6.85864 35.142L8.40166 34.001C10.9748 32.0981 13.4551 30.0435 15.8242 27.8542C15.5119 27.6178 15.211 27.3592 14.9262 27.0744C14.6414 26.7895 14.3828 26.4888 14.1464 26.1765Z" stroke="#373737" stroke-width="0.434783" stroke-miterlimit="10" stroke-linecap="round" stroke-linejoin="round"/>
<path d="M32.0887 17.5355C32.6745 16.313 33.9813 15.1414 35.2464 14.8777C36.5114 14.6141 38.3567 14.2261 38.2982 12.4871C38.2982 12.4871 37.3315 13.9699 35.6907 13.9186C34.5486 13.8831 33.1431 13.384 32.1766 14.292C31.21 15.2 30.3069 16.0455 29.2476 16.0455C28.3104 16.0455 27.7422 15.6803 27.7422 15.6803L27.745 15.6869C28.6642 16.8542 29.2868 18.2649 29.5 19.8073C29.5 19.8073 31.347 19.0835 32.0887 17.5355Z" stroke="#373737" stroke-width="0.434783" stroke-miterlimit="10" stroke-linecap="round" stroke-linejoin="round"/>
<path d="M32.0887 24.452C32.6745 25.6745 33.9813 26.8461 35.2464 27.1097C36.5114 27.3734 38.3567 27.7614 38.2982 29.5004C38.2982 29.5004 37.3315 28.0176 35.6907 28.0689C34.5486 28.1044 33.1431 28.6035 32.1766 27.6955C31.21 26.7875 30.3069 25.9419 29.2476 25.9419C28.3104 25.9419 27.7422 26.3072 27.7422 26.3072L27.745 26.3006C28.6642 25.1332 29.2868 23.7226 29.5 22.1802C29.5 22.1802 31.347 22.9039 32.0887 24.452Z" stroke="#373737" stroke-width="0.434783" stroke-miterlimit="10" stroke-linecap="round" stroke-linejoin="round"/>
<path d="M9.91101 24.451C9.32526 25.6735 8.01846 26.8451 6.75331 27.1088C5.48829 27.3724 3.64305 27.7604 3.70155 29.4994C3.70155 29.4994 4.66817 28.0168 6.30902 28.0679C7.45114 28.1034 8.85664 28.6025 9.82313 27.6945C10.7898 26.7865 11.6928 25.941 12.7521 25.941C13.6894 25.941 14.2575 26.3062 14.2575 26.3062L14.2547 26.2996C13.3355 25.1323 12.7129 23.7216 12.4997 22.1792C12.4997 22.1792 10.6527 22.903 9.91101 24.451Z" stroke="#373737" stroke-width="0.434783" stroke-miterlimit="10" stroke-linecap="round" stroke-linejoin="round"/>
<path d="M9.91101 17.5349C9.32526 16.3124 8.01846 15.1407 6.75331 14.8771C5.48829 14.6135 3.64305 14.2255 3.70155 12.4865C3.70155 12.4865 4.66817 13.9693 6.30902 13.918C7.45114 13.8825 8.85664 13.3834 9.82313 14.2914C10.7898 15.1994 11.6928 16.0449 12.7521 16.0449C13.6894 16.0449 14.2575 15.6797 14.2575 15.6797L14.2547 15.6863C13.3355 16.8536 12.7129 18.2643 12.4997 19.8067C12.4997 19.8067 10.6527 19.0829 9.91101 17.5349Z" stroke="#373737" stroke-width="0.434783" stroke-miterlimit="10" stroke-linecap="round" stroke-linejoin="round"/>
</svg>
