<svg width="532" height="45" viewBox="0 0 532 45" fill="none" xmlns="http://www.w3.org/2000/svg">
<path d="M-3.11894e-08 22.2096C-1.39847e-08 21.816 0.319946 21.4961 0.713562 21.4961L531.287 21.4961C531.68 21.4961 532 21.816 532 22.2096C532 22.6032 531.68 22.9232 531.287 22.9232L0.713562 22.9231C0.318848 22.9243 -0.00115972 22.6043 -3.11894e-08 22.2096Z" fill="#B58B65"/>
<path d="M430.136 21.5581C430.133 19.0481 429.154 16.6934 427.381 14.9199C425.611 13.1499 423.256 12.1717 420.746 12.1682C418.236 12.1717 415.883 13.1511 414.109 14.9246C412.339 16.6946 411.361 19.0492 411.356 21.5581C411.36 24.0681 412.339 26.4217 414.109 28.1917C415.883 29.9652 418.237 30.9434 420.746 30.948C423.256 30.9445 425.611 29.9663 427.381 28.1963C429.154 26.4205 430.134 24.067 430.136 21.5581ZM413.05 21.5581C413.047 19.5016 413.849 17.5692 415.301 16.1168C416.757 14.661 418.691 13.8577 420.746 13.8623C422.803 13.8589 424.735 14.661 426.187 16.1134C427.643 17.5692 428.447 19.5026 428.442 21.5581C428.445 23.6147 427.643 25.547 426.187 27.0029C424.736 28.4541 422.803 29.2574 420.746 29.2539C418.689 29.2574 416.757 28.4552 415.301 26.9994C413.85 25.5458 413.046 23.6136 413.05 21.5581Z" fill="#B58B65"/>
<path d="M100.674 22.7503C100.677 25.2603 101.656 27.6138 103.43 29.3872C105.2 31.1573 107.555 32.1355 110.064 32.1401C112.574 32.1367 114.928 31.1585 116.702 29.385C118.472 27.615 119.45 25.2603 119.453 22.7503C119.45 20.2402 118.472 17.8855 116.702 16.1155C114.928 14.342 112.574 13.3638 110.064 13.3604C107.553 13.3638 105.2 14.3432 103.43 16.1133C101.654 17.8867 100.676 20.2414 100.674 22.7503ZM117.759 22.7503C117.763 24.8069 116.961 26.7392 115.508 28.1916C114.052 29.6474 112.119 30.4507 110.064 30.4461C108.007 30.4495 106.075 29.6474 104.622 28.195C103.166 26.7392 102.363 24.8057 102.368 22.7503C102.364 20.6937 103.166 18.7614 104.622 17.3056C106.073 15.8543 108.007 15.051 110.064 15.0545C112.12 15.051 114.052 15.8531 115.508 17.3089C116.958 18.7613 117.763 20.6937 117.759 22.7503Z" fill="#B58B65"/>
<path d="M444.847 33.3141C441.881 30.3483 440.248 26.4043 440.247 22.2094C440.247 18.0157 441.88 14.0716 444.847 11.1047C447.812 8.13892 451.758 6.50472 455.951 6.50472C460.145 6.50472 464.089 8.13781 467.056 11.1047C470.022 14.0705 471.655 18.0145 471.656 22.2094C471.657 26.4043 470.023 30.3472 467.056 33.3141C464.09 36.2799 460.146 37.913 455.951 37.9141C451.757 37.913 447.813 36.2799 444.847 33.3141ZM466.046 12.1152C463.349 9.41871 459.764 7.93291 455.951 7.93407C452.137 7.93406 448.554 9.41874 445.857 12.1152C443.161 14.8117 441.675 18.3966 441.675 22.2105C441.675 26.0245 443.16 29.6083 445.856 32.3048C448.553 35.0012 452.138 36.487 455.951 36.487C459.765 36.487 463.35 35.0012 466.047 32.3048C468.743 29.6083 470.229 26.0234 470.228 22.2106C470.228 18.3966 468.742 14.8117 466.046 12.1152Z" fill="#D7B36E"/>
<path d="M464.89 22.2098C464.89 27.147 460.889 31.1486 455.951 31.1486C451.014 31.1486 447.013 27.147 447.013 22.2098C447.013 17.2726 451.014 13.271 455.951 13.271C460.889 13.271 464.891 17.2738 464.89 22.2098Z" fill="#31344E"/>
<path d="M62.7802 33.3091C59.9365 30.4653 58.1745 26.5398 58.1745 22.2102C58.1745 13.5511 65.2189 6.5067 73.8791 6.50555C82.5382 6.50555 89.5838 13.5511 89.5838 22.2102C89.5838 30.8693 82.5382 37.9149 73.8791 37.9149C69.5496 37.9149 65.624 36.1529 62.7802 33.3091ZM83.9699 12.1195C81.3851 9.53461 77.8163 7.93376 73.8791 7.93261C66.0072 7.93261 59.6027 14.3372 59.6027 22.2091C59.6027 30.081 66.0072 36.4855 73.8791 36.4855C81.751 36.4855 88.1556 30.0809 88.1556 22.209C88.1567 18.2742 86.5548 14.7043 83.9699 12.1195Z" fill="#D7B36E"/>
<path d="M67.7002 22.2467C67.7037 17.3107 71.7052 13.3091 76.6413 13.3057C77.9763 13.3103 79.2434 13.6014 80.3747 14.1274C77.303 15.5418 75.1704 18.6434 75.1739 22.249C75.1739 25.8489 77.3076 28.9586 80.3747 30.3707C79.2434 30.8966 77.9762 31.1878 76.6424 31.1913C71.7052 31.1843 67.7037 27.1828 67.7002 22.2467Z" fill="#31344E"/>
</svg>
