<svg width="254" height="119" viewBox="0 0 254 119" fill="none" xmlns="http://www.w3.org/2000/svg">
<path d="M253.838 56.9716C253.581 56.6512 253.115 56.6014 252.796 56.8577C236.162 70.2974 214.339 82.235 189.303 91.6345C189.313 91.5989 189.32 91.5632 189.32 91.5241C189.32 91.3016 189.14 91.1201 188.918 91.1201C188.697 91.1201 188.516 91.3016 188.516 91.5241C188.516 91.6647 188.589 91.7893 188.697 91.8605C187.161 92.4336 185.614 92.996 184.057 93.5496C184.034 93.546 184.009 93.5424 183.984 93.5424C183.862 93.5424 183.754 93.5976 183.681 93.6831C182.907 93.9572 182.131 94.2277 181.352 94.4965C179.435 85.2625 171.273 78.3051 161.522 78.3051C152.57 78.3051 144.959 84.1733 142.289 92.2788C136.042 92.6329 125.951 93.7507 125.701 97.257C125.513 99.9037 131.223 102.006 136.047 103.303C137.922 103.807 139.982 104.275 142.179 104.706C142.236 104.887 142.292 105.069 142.353 105.247C141.566 105.412 140.778 105.574 139.991 105.731C139.874 105.546 139.67 105.421 139.435 105.421C139.111 105.421 138.841 105.658 138.788 105.97C115.706 110.521 93.0268 112.276 72.9117 111.142C72.4227 109.294 70.7521 107.933 68.7608 107.933C67.0015 107.933 65.4903 108.995 64.826 110.515C61.0134 110.136 57.3072 109.648 53.732 109.045C41.7894 107.025 32.0649 103.581 24.8278 98.8073C23.9526 98.2306 23.1182 97.6361 22.3262 97.0257C22.5317 96.9651 22.6806 96.7765 22.6806 96.5504C22.6806 96.2745 22.4591 96.0521 22.1845 96.0521C21.9205 96.0521 21.7079 96.2585 21.692 96.5202C20.8912 95.8776 20.133 95.2173 19.4225 94.541C25.9581 92.7593 30.7805 86.7487 30.7805 79.6257C30.7805 71.1037 23.88 64.1711 15.3974 64.1711C14.8535 64.1711 14.3149 64.2014 13.7852 64.2566C14.1856 63.3204 14.6285 62.3788 15.1192 61.4301C15.4381 60.8125 15.7818 60.1967 16.1379 59.5791L17.2487 60.1985L16.3647 62.1029L17.8936 60.6701L19.4225 62.1029L18.5385 60.1985L20.3668 59.1786L18.2905 59.4349L17.8901 57.372L17.4897 59.4349L16.3027 59.289C20.3969 52.2763 26.789 45.2316 35.3531 38.3115C36.6659 37.2507 38.03 36.2095 39.4331 35.186C40.1808 35.8197 41.1463 36.2023 42.2004 36.2023C44.5762 36.2023 46.5002 34.2676 46.5002 31.8826C46.5002 31.4163 46.424 30.9678 46.2876 30.5459C58.1487 23.0901 72.3093 16.8534 87.2159 12.2453L84.9889 16.0365L89.8503 13.1549L91.2588 18.6457L92.6672 13.1549L97.5286 16.0365L94.6603 11.1525L100.126 9.73751L98.0813 9.20889C109.165 6.4323 120.443 4.58125 131.312 3.80879C131.291 3.97966 131.278 4.15229 131.278 4.3285C131.278 6.71351 133.204 8.64823 135.578 8.64823C137.952 8.64823 139.878 6.71351 139.878 4.3285C139.878 4.0188 139.844 3.71799 139.782 3.4261C147.779 3.28015 155.454 3.76963 162.54 4.96748C165.457 5.46051 168.158 6.08879 170.64 6.83811C170.695 6.90931 170.779 6.95734 170.874 6.95734C170.908 6.95734 170.936 6.94846 170.966 6.93778C172.199 7.31868 173.378 7.73162 174.497 8.1748C171.659 10.9799 169.896 14.8796 169.896 19.1851C169.896 27.7071 176.797 34.6414 185.281 34.6414C185.988 34.6414 186.681 34.5898 187.363 34.4954C186.794 35.6559 186.119 36.8253 185.338 38L185.281 37.7028L185.177 38.2385C185.086 38.372 184.992 38.5055 184.9 38.639L184.128 38.5446L184.732 38.881C182.179 42.4924 178.645 46.1518 174.175 49.7631C171.891 51.6088 169.381 53.3673 166.695 55.0297C165.933 54.3445 164.932 53.9244 163.83 53.9244C161.454 53.9244 159.53 55.8591 159.53 58.2442C159.53 58.5005 159.557 58.7497 159.6 58.9935C139.458 69.1619 112.681 74.3804 92.9843 71.0485C83.5273 69.4502 77.5658 65.6645 76.1963 60.3907C74.8269 55.117 78.1876 48.8892 85.6604 42.8519C98.2567 32.6764 121.47 26.5893 137.412 29.284C138.586 29.4833 139.672 29.7343 140.668 30.0351C140.469 30.5317 140.358 31.071 140.358 31.6387C140.358 34.0255 142.284 35.9585 144.658 35.9585C145.768 35.9585 146.778 35.5313 147.54 34.8372C147.708 35.1824 147.843 35.5402 147.94 35.9087C148.789 39.1747 146.67 43.0637 141.974 46.8584C135.808 51.8402 125.643 55.2771 116.664 55.8147C116.857 55.7079 117.05 55.5815 117.249 55.4267C117.392 55.3145 117.52 55.2042 117.642 55.0867C117.769 54.9603 117.897 54.8233 118.019 54.6791C118.025 54.6738 118.026 54.6667 118.03 54.6596C118.039 54.6471 118.044 54.6364 118.051 54.6221C118.062 54.6026 118.069 54.583 118.076 54.5616C118.08 54.5492 118.083 54.5349 118.085 54.5225C118.088 54.4993 118.087 54.478 118.085 54.4548C118.083 54.4424 118.083 54.4281 118.08 54.4157C118.072 54.389 118.062 54.3641 118.048 54.3409C118.044 54.3338 118.042 54.3249 118.039 54.3178L118.035 54.3143L118.033 54.3089C118.012 54.2804 117.986 54.2573 117.957 54.2377C117.95 54.2324 117.941 54.2306 117.934 54.227C117.911 54.2146 117.885 54.2039 117.858 54.1968C117.846 54.195 117.833 54.195 117.821 54.1932C117.798 54.1914 117.775 54.1896 117.752 54.1932C117.738 54.195 117.725 54.1985 117.711 54.2021C117.699 54.2057 117.688 54.2057 117.676 54.211C117.304 54.3694 116.907 54.4157 116.467 54.3498C116.101 54.2947 115.698 54.1648 115.202 53.9387C114.816 53.7643 114.412 53.5542 114.022 53.3495L113.852 53.2606C113.418 53.0416 112.928 52.7925 112.419 52.5878C111.935 52.3867 111.422 52.2211 110.931 52.1108C110.412 51.9986 109.928 51.947 109.445 51.947C108.901 51.9488 108.359 52.0218 107.792 52.1731C107.873 52.1108 107.955 52.0449 108.038 51.9826C108.433 51.6818 108.8 51.4255 109.156 51.1977C109.528 50.9592 109.909 50.7421 110.316 50.532C110.727 50.3202 111.142 50.1316 111.535 49.9536L111.758 49.8521C112.515 49.5068 113.298 49.1509 113.983 48.5813C114.187 48.4104 114.366 48.2324 114.527 48.0402C114.71 47.8248 114.862 47.6006 114.995 47.3514C115.142 47.0791 115.259 46.789 115.348 46.4882C115.443 46.1482 115.505 45.7923 115.532 45.431C115.532 45.4238 115.53 45.4167 115.53 45.4096C115.53 45.3953 115.528 45.3811 115.527 45.3669C115.523 45.3455 115.518 45.3241 115.511 45.3046C115.505 45.2921 115.5 45.2796 115.493 45.2672C115.482 45.2476 115.468 45.2298 115.454 45.2138C115.445 45.2031 115.436 45.1942 115.426 45.1853C115.406 45.1693 115.383 45.1551 115.358 45.1444C115.349 45.1408 115.344 45.1337 115.337 45.1301L115.332 45.1284L115.326 45.1248C115.293 45.1141 115.257 45.1105 115.224 45.1105C115.218 45.1105 115.213 45.1141 115.206 45.1141C115.176 45.1177 115.147 45.1248 115.119 45.1355C115.108 45.1408 115.1 45.1479 115.089 45.1533C115.069 45.1657 115.05 45.1782 115.032 45.1942C115.022 45.2031 115.015 45.2156 115.006 45.2262C114.999 45.2369 114.988 45.2441 114.981 45.2547C114.772 45.6036 114.478 45.8741 114.083 46.0806C113.907 46.1731 113.714 46.2514 113.489 46.3226C113.287 46.3867 113.068 46.4437 112.816 46.4953C112.58 46.5451 112.338 46.5861 112.091 46.6252L111.33 46.7445C110.761 46.8299 110.238 46.9313 109.774 47.0435C109.507 47.1111 109.251 47.1841 109.019 47.2606C108.794 47.3336 108.55 47.4262 108.293 47.5383C107.831 47.7394 107.393 47.9904 106.993 48.2841C106.615 48.5617 106.259 48.8928 105.937 49.2666C105.889 49.3217 105.841 49.3804 105.795 49.4392C105.823 49.3413 105.85 49.2452 105.88 49.1473C106.027 48.6596 106.172 48.236 106.323 47.8515C106.484 47.4386 106.663 47.0382 106.872 46.627C107.079 46.2159 107.304 45.8154 107.519 45.4381L107.639 45.2262C108.05 44.5 108.474 43.7472 108.693 42.8822C108.757 42.6241 108.798 42.3749 108.817 42.124C108.839 41.8427 108.832 41.5633 108.794 41.291C108.754 40.9848 108.681 40.6822 108.575 40.385C108.452 40.0522 108.297 39.7283 108.109 39.4221C108.105 39.415 108.1 39.4114 108.095 39.4061C108.086 39.3954 108.077 39.3847 108.068 39.3758C108.052 39.3598 108.034 39.3438 108.017 39.3314C108.006 39.3242 107.995 39.3171 107.983 39.3117C107.962 39.3011 107.939 39.2957 107.917 39.2904C107.905 39.2886 107.893 39.2851 107.88 39.2833C107.854 39.2815 107.827 39.2851 107.8 39.2904C107.792 39.2922 107.785 39.2904 107.776 39.2922L107.77 39.2939L107.763 39.2957C107.73 39.3064 107.7 39.3242 107.673 39.3456C107.668 39.3509 107.664 39.3563 107.659 39.3616C107.637 39.3812 107.618 39.4025 107.604 39.4256C107.597 39.4363 107.593 39.4488 107.588 39.4595C107.579 39.4808 107.57 39.5022 107.567 39.5253C107.565 39.5396 107.563 39.5538 107.563 39.5681C107.563 39.5805 107.56 39.593 107.56 39.6054C107.593 40.0112 107.513 40.4028 107.315 40.8051C107.226 40.9831 107.117 41.161 106.977 41.3515C106.853 41.5205 106.707 41.6968 106.534 41.889C106.371 42.0688 106.199 42.245 106.025 42.4212L105.2 43.247C105.108 43.3414 105.015 43.4393 104.923 43.5354C104.723 43.749 104.557 43.9305 104.392 44.1263C104.215 44.3363 104.052 44.5464 103.906 44.7475C103.763 44.9468 103.619 45.1657 103.481 45.3989C103.228 45.8261 103.015 46.3013 102.865 46.7694C102.721 47.2161 102.627 47.6931 102.585 48.1897C102.579 48.2574 102.576 48.3304 102.571 48.3998C102.539 48.309 102.505 48.2182 102.475 48.1256C102.305 47.6273 102.177 47.2108 102.075 46.8157C101.965 46.3938 101.873 45.9507 101.8 45.4986C101.726 45.0394 101.671 44.5659 101.626 44.1566L101.612 44.0338C101.566 43.6244 101.518 43.2026 101.449 42.7843C101.355 42.2361 101.238 41.7947 101.077 41.3942C100.866 40.8727 100.588 40.4331 100.225 40.0486C100.019 39.8315 99.7821 39.6303 99.5217 39.4506C99.2541 39.2673 98.9476 39.1017 98.5827 38.9451C98.5756 38.9415 98.5685 38.9433 98.5614 38.9398C98.5472 38.9344 98.5349 38.9327 98.5207 38.9309C98.4977 38.9273 98.4764 38.9238 98.4533 38.9255C98.4409 38.9255 98.4286 38.9273 98.4161 38.9291C98.3931 38.9326 98.3701 38.9415 98.3488 38.9504C98.3382 38.9558 98.3258 38.9593 98.3151 38.9664C98.2921 38.9807 98.2727 38.9985 98.2532 39.0198C98.2478 39.027 98.239 39.0287 98.2337 39.0359L98.2319 39.0412L98.2283 39.0448C98.2071 39.0733 98.1929 39.1053 98.1841 39.1391C98.1823 39.148 98.1823 39.1569 98.1805 39.164C98.1752 39.1907 98.1717 39.2174 98.1752 39.2441C98.177 39.2566 98.1805 39.269 98.1823 39.2815C98.1876 39.3028 98.1929 39.326 98.2036 39.3456C98.2089 39.358 98.2177 39.3705 98.2248 39.383C98.2319 39.3936 98.2355 39.4043 98.2425 39.4132C98.5083 39.7229 98.673 40.0877 98.7474 40.5292C98.8094 40.8958 98.8094 41.307 98.751 41.8641C98.7067 42.2734 98.6394 42.6882 98.5685 43.126C98.4728 43.7169 98.3736 44.3292 98.3311 44.9414C98.3205 45.0749 98.3116 45.2049 98.3081 45.3366C98.3027 45.4701 98.301 45.6018 98.301 45.7335C98.3028 46.0325 98.3134 46.2799 98.3382 46.5095C98.3913 47.0471 98.4923 47.5294 98.6429 47.9833C98.7917 48.4336 98.9937 48.875 99.2453 49.2932C99.2807 49.3537 99.3197 49.4143 99.3587 49.473L99.1212 49.3093C98.712 49.0209 98.3541 48.7504 98.0299 48.4834C97.2982 47.8836 96.6534 47.1948 96.1148 46.5985L95.9536 46.4223C95.392 45.8065 94.8126 45.1711 94.0597 44.6923C93.5955 44.3986 93.1119 44.2082 92.5857 44.1085C92.2934 44.0533 91.9922 44.0302 91.6609 44.0409C91.4944 44.0462 91.3225 44.0604 91.1436 44.0836C90.9664 44.1103 90.7857 44.1459 90.6015 44.1903C90.5979 44.1903 90.5962 44.1939 90.5926 44.1939C90.5643 44.2011 90.5395 44.2117 90.5164 44.2277C90.5129 44.2295 90.5094 44.2331 90.5058 44.2348C90.4828 44.2509 90.4633 44.2704 90.4456 44.29C90.4403 44.2971 90.4349 44.306 90.4296 44.3132C90.4172 44.331 90.4066 44.3506 90.3977 44.3719C90.3889 44.3933 90.3853 44.4182 90.3818 44.4413C90.38 44.452 90.3765 44.4591 90.3765 44.4698V44.4751C90.3765 44.4751 90.3747 44.4787 90.3747 44.4823C90.3747 44.5178 90.3818 44.5517 90.3942 44.5837C90.3977 44.5908 90.4031 44.5979 90.4066 44.6051C90.419 44.63 90.4314 44.6531 90.4491 44.6745C90.458 44.6834 90.4668 44.6923 90.4774 44.6994C90.4952 44.7136 90.5129 44.7279 90.5324 44.7386C90.5448 44.7457 90.5572 44.751 90.5714 44.7546C90.582 44.7582 90.5926 44.7653 90.6032 44.7688C90.9983 44.8614 91.3438 45.0571 91.6627 45.3704C91.9284 45.632 92.1764 45.9756 92.4475 46.449C92.6583 46.8192 92.8621 47.2286 93.0605 47.6255L93.1455 47.7946C93.39 48.2733 93.6327 48.7397 93.9109 49.1864C93.98 49.2986 94.0508 49.4107 94.1235 49.5193C94.1979 49.6297 94.2741 49.7382 94.3503 49.845C94.5221 50.0817 94.6762 50.2739 94.8339 50.4519C95.1918 50.856 95.555 51.187 95.9412 51.4647C96.3256 51.7423 96.7473 51.9808 97.1937 52.1713C97.261 52.1998 97.3301 52.2264 97.3992 52.2531L97.1016 52.2603C96.8713 52.2638 96.641 52.2638 96.4107 52.2603C96.1839 52.2567 95.9607 52.2478 95.7357 52.2336C94.7932 52.1784 93.8684 52.0022 93.0835 51.8349L92.8426 51.785C92.0294 51.6177 91.1879 51.4433 90.2985 51.5002C89.7493 51.5376 89.2479 51.6676 88.7643 51.8954C88.5021 52.0182 88.2434 52.1784 87.9759 52.3867C87.8324 52.4988 87.7048 52.6091 87.5826 52.7266C87.455 52.8512 87.3293 52.99 87.2052 53.1342C87.1999 53.1395 87.1982 53.1467 87.1946 53.1538C87.1858 53.1662 87.1805 53.1787 87.1734 53.1911C87.1627 53.2107 87.1556 53.2303 87.1486 53.2517C87.145 53.2641 87.1415 53.2784 87.1397 53.2926C87.1379 53.3157 87.1379 53.3371 87.1397 53.3602C87.1415 53.3727 87.1415 53.3869 87.145 53.3994C87.1521 53.4261 87.1627 53.451 87.1769 53.4741C87.1805 53.4813 87.1822 53.4884 87.1858 53.4955L87.1893 53.4991L87.1928 53.5044C87.2141 53.5329 87.2389 53.556 87.269 53.5756C87.2761 53.5809 87.285 53.5827 87.2938 53.5863C87.3169 53.5988 87.3417 53.6094 87.3665 53.6148C87.3806 53.6183 87.393 53.6183 87.4072 53.6183C87.4285 53.6201 87.4497 53.6201 87.471 53.6183C87.4852 53.6165 87.4993 53.613 87.5135 53.6076C87.5241 53.6041 87.5366 53.6041 87.5472 53.5987C87.9192 53.4403 88.3161 53.394 88.7554 53.4599C89.1221 53.5151 89.5243 53.645 90.0204 53.871C90.4048 54.0455 90.807 54.2555 91.195 54.4566L91.3703 54.5474C91.893 54.8126 92.3306 55.0298 92.8036 55.2202C93.2873 55.4213 93.801 55.585 94.2918 55.6972C94.8002 55.8075 95.2768 55.8609 95.7481 55.8609C95.7587 55.8609 95.7693 55.8609 95.7782 55.8609C96.3221 55.8609 96.8642 55.7862 97.4311 55.6349C97.3496 55.6972 97.2681 55.7631 97.1849 55.8254C96.7898 56.1262 96.4248 56.3824 96.067 56.6102C95.6931 56.8487 95.314 57.0659 94.9065 57.276C94.4937 57.4878 94.0615 57.6853 93.6876 57.8544L93.4644 57.9558C92.7079 58.3011 91.9249 58.6571 91.2393 59.2267C91.0355 59.3975 90.8584 59.5738 90.6936 59.7678C90.5111 59.9831 90.3587 60.2074 90.2259 60.4548C90.0788 60.7289 89.9619 61.0172 89.8733 61.3198C89.7776 61.6597 89.7157 62.0157 89.6891 62.377C89.6891 62.3842 89.6908 62.3913 89.6908 62.3984C89.6908 62.4126 89.6926 62.4268 89.6944 62.4411C89.6979 62.4624 89.7015 62.4838 89.7103 62.5034C89.7157 62.5158 89.721 62.5283 89.728 62.5408C89.7387 62.5603 89.7528 62.5781 89.767 62.5942C89.7759 62.6048 89.7847 62.6138 89.7936 62.6227C89.8131 62.6387 89.8361 62.6529 89.8609 62.6636C89.8698 62.6671 89.8751 62.6742 89.8822 62.6778L89.8875 62.6796L89.8928 62.6814C89.9212 62.6903 89.9477 62.6938 89.9761 62.6938C89.9761 62.6938 89.9796 62.6956 89.9832 62.6956H89.9885C90.0151 62.6956 90.0399 62.6903 90.0647 62.6832C90.0735 62.6814 90.0824 62.676 90.0912 62.6725C90.1089 62.6654 90.1249 62.6582 90.1408 62.6493C90.1497 62.644 90.1586 62.6369 90.1656 62.6315C90.1798 62.6208 90.1922 62.6084 90.2029 62.5959C90.2099 62.587 90.217 62.58 90.2241 62.5693C90.2277 62.5639 90.233 62.5586 90.2365 62.5532C90.4456 62.2044 90.7397 61.9338 91.1347 61.7274C91.3119 61.6348 91.505 61.5565 91.7282 61.4853C91.9284 61.4212 92.1481 61.3643 92.4014 61.3126C92.6371 61.2628 92.8798 61.2219 93.1261 61.1827L93.8878 61.0635C94.4565 60.9781 94.9792 60.8766 95.4434 60.7645C95.7109 60.6968 95.966 60.6239 96.1981 60.5473C96.4231 60.4761 96.6675 60.3818 96.9244 60.2696C97.3868 60.0685 97.8244 59.8176 98.2248 59.5239C98.6022 59.2463 98.9583 58.9152 99.2807 58.5414C99.3286 58.4863 99.3746 58.4275 99.4224 58.3688C99.3941 58.4667 99.3657 58.5628 99.3374 58.6607C99.1904 59.1483 99.0451 59.5719 98.8945 59.9564C98.735 60.364 98.5508 60.7769 98.3453 61.1827C98.138 61.5939 97.913 61.9943 97.7004 62.3717L97.5799 62.5853C97.1689 63.3115 96.7455 64.0625 96.5258 64.9276C96.462 65.1856 96.4213 65.4348 96.4018 65.6858C96.3805 65.967 96.3876 66.2465 96.4248 66.5188C96.4656 66.8249 96.5382 67.1275 96.6445 67.4247C96.7668 67.7576 96.9227 68.0815 97.1105 68.3876C97.1122 68.3912 97.1158 68.3947 97.1158 68.3947C97.1211 68.4019 97.1282 68.409 97.1335 68.4161C97.1459 68.4321 97.1601 68.4464 97.176 68.4588C97.1831 68.466 97.1919 68.4713 97.2008 68.4766C97.2167 68.4873 97.2345 68.4962 97.2522 68.5033C97.261 68.5069 97.2699 68.5105 97.2788 68.514C97.3053 68.5211 97.3319 68.5265 97.3585 68.5265H97.3638C97.3904 68.5265 97.4169 68.5229 97.4453 68.5158L97.4506 68.514L97.4577 68.5122C97.4914 68.5015 97.5215 68.4837 97.548 68.4624C97.5534 68.4588 97.5569 68.4517 97.5622 68.4464C97.5835 68.4268 97.603 68.4054 97.6171 68.3823C97.6224 68.3716 97.6278 68.3591 97.6313 68.3485C97.6402 68.3271 97.649 68.3058 97.6526 68.2826C97.6543 68.2684 97.6561 68.2541 97.6561 68.2399C97.6561 68.2274 97.6597 68.215 97.6597 68.2025C97.626 67.7967 97.7057 67.4052 97.9041 67.0029C97.9927 66.8249 98.1026 66.6469 98.2425 66.4565C98.3666 66.2874 98.5101 66.1112 98.6854 65.919C98.8484 65.7392 99.0203 65.563 99.1957 65.3868L100.021 64.5609C100.113 64.4666 100.205 64.3687 100.298 64.2708C100.498 64.0572 100.664 63.8739 100.827 63.6799C101.005 63.4699 101.167 63.2598 101.313 63.0587C101.456 62.8594 101.6 62.6405 101.738 62.4073C101.991 61.9801 102.204 61.5067 102.354 61.0368C102.498 60.59 102.592 60.113 102.634 59.6182C102.64 59.5506 102.643 59.4776 102.649 59.4082C102.68 59.499 102.714 59.5898 102.744 59.6823C102.916 60.1825 103.042 60.5972 103.145 60.9923C103.254 61.4141 103.347 61.8573 103.419 62.3094C103.494 62.7686 103.549 63.2421 103.593 63.6514L103.607 63.7742C103.653 64.1836 103.701 64.6054 103.77 65.0237C103.864 65.5719 103.981 66.0133 104.142 66.4137C104.353 66.9352 104.631 67.3749 104.994 67.7593C105.2 67.9765 105.437 68.1776 105.698 68.3574C105.963 68.5407 106.272 68.7062 106.637 68.8628C106.64 68.8646 106.642 68.8629 106.645 68.8646C106.681 68.8789 106.716 68.886 106.752 68.886C106.798 68.886 106.842 68.8753 106.881 68.8557C106.895 68.8486 106.906 68.8344 106.92 68.8255C106.943 68.8095 106.966 68.797 106.984 68.7739L106.987 68.7685L106.991 68.765C107.012 68.7365 107.026 68.7044 107.035 68.6706C107.037 68.6617 107.037 68.6546 107.039 68.6457C107.044 68.619 107.048 68.5905 107.044 68.5638C107.042 68.5514 107.039 68.5389 107.037 68.5265C107.032 68.5033 107.026 68.482 107.016 68.4606C107.01 68.4482 107.001 68.4357 106.994 68.4233C106.987 68.4126 106.984 68.4019 106.977 68.393C106.711 68.0833 106.546 67.7184 106.472 67.277C106.41 66.9103 106.41 66.4992 106.468 65.9421C106.513 65.5327 106.58 65.118 106.651 64.6801C106.746 64.0892 106.846 63.477 106.888 62.8647C106.899 62.7312 106.908 62.6013 106.911 62.4696C106.916 62.3361 106.918 62.2044 106.918 62.0727C106.916 61.7736 106.906 61.5262 106.883 61.2966C106.828 60.7591 106.729 60.2768 106.578 59.8229C106.429 59.3726 106.227 58.9312 105.976 58.5129C105.94 58.4524 105.901 58.3937 105.862 58.3332L106.1 58.4969C106.511 58.787 106.867 59.0558 107.191 59.3228C107.921 59.9208 108.568 60.6096 109.106 61.2076L109.273 61.391C109.834 62.0068 110.414 62.6422 111.167 63.121C111.633 63.4147 112.114 63.6052 112.641 63.7048C112.885 63.7529 113.138 63.776 113.409 63.776C113.461 63.776 113.512 63.776 113.565 63.7742C113.734 63.7689 113.906 63.7546 114.083 63.7315C114.26 63.7066 114.442 63.6692 114.625 63.6247C114.634 63.6229 114.639 63.6176 114.648 63.614C114.662 63.6087 114.676 63.6034 114.689 63.5962C114.708 63.5873 114.724 63.5749 114.74 63.5624C114.751 63.5535 114.761 63.5446 114.77 63.5339C114.784 63.5179 114.797 63.5001 114.807 63.4806C114.814 63.4681 114.821 63.4574 114.827 63.4449C114.836 63.42 114.841 63.3951 114.844 63.3684C114.846 63.3595 114.85 63.3524 114.85 63.3435V63.3381L114.852 63.3328C114.852 63.2972 114.845 63.2634 114.832 63.2313C114.829 63.2224 114.823 63.2171 114.82 63.21C114.807 63.1851 114.795 63.1619 114.777 63.1406C114.768 63.1317 114.759 63.1245 114.749 63.1157C114.731 63.1014 114.713 63.0872 114.694 63.0765C114.682 63.0694 114.669 63.0641 114.655 63.0605C114.644 63.057 114.634 63.0498 114.623 63.0462C114.228 62.9537 113.883 62.7561 113.564 62.4447C113.298 62.183 113.048 61.8395 112.779 61.366C112.568 60.9958 112.364 60.5865 112.166 60.1896L112.081 60.0205C111.834 59.5399 111.592 59.0736 111.315 58.6286C111.246 58.5165 111.175 58.4044 111.103 58.2958C111.03 58.1855 110.952 58.0769 110.876 57.9701C110.704 57.7351 110.55 57.5429 110.392 57.3631C110.323 57.2866 110.256 57.2154 110.187 57.1424C120.608 58.3759 134.961 54.4335 142.904 48.0153C148.082 43.8326 150.38 39.399 149.375 35.5295C149.193 34.8247 148.904 34.159 148.516 33.5325C148.796 32.9594 148.957 32.3169 148.957 31.6334C148.957 29.2466 147.032 27.3137 144.658 27.3137C143.398 27.3137 142.268 27.8619 141.481 28.7287C140.317 28.3531 139.041 28.0452 137.656 27.812C121.355 25.055 97.6136 31.2792 84.7303 41.6879C76.7756 48.1149 73.2359 54.8891 74.7613 60.7645C76.2867 66.6398 82.6716 70.8118 92.7381 72.5133C112.651 75.8808 139.697 70.6356 160.104 60.3907C160.847 61.6865 162.236 62.5604 163.83 62.5604C166.206 62.5604 168.13 60.6256 168.13 58.2406C168.13 57.502 167.944 56.806 167.62 56.1973C170.305 54.5296 172.816 52.7675 175.103 50.9182C179.646 47.2482 183.254 43.5104 185.887 39.8012L185.992 39.8991L185.922 39.7514C186.645 38.728 187.294 37.7081 187.868 36.69C187.907 36.8146 188.017 36.9054 188.153 36.9054C188.319 36.9054 188.456 36.7683 188.456 36.601C188.456 36.4337 188.319 36.2967 188.153 36.2967C188.125 36.2967 188.1 36.3056 188.075 36.3127C188.472 35.5847 188.833 34.8603 189.152 34.1377C195.767 32.4095 200.664 26.3579 200.664 19.1779C200.664 10.6559 193.762 3.72156 185.279 3.72156C181.676 3.72156 178.361 4.97637 175.736 7.06771C172.022 5.52457 167.687 4.31961 162.783 3.49019C155.44 2.24785 147.471 1.76015 139.166 1.94704C138.397 0.774109 137.077 -0.00012207 135.574 -0.00012207C133.932 -0.00012207 132.506 0.925387 131.781 2.28698C119.809 3.10216 107.327 5.22198 95.1386 8.43998L94.655 8.31538L97.5232 3.43145L92.6619 6.31303L91.2534 0.822159L89.845 6.31303L84.9836 3.43145L87.8519 8.31538L82.3864 9.73039L86.7163 10.8517C71.7442 15.4829 57.5162 21.7427 45.5843 29.2253C44.7976 28.2107 43.5734 27.5558 42.1933 27.5558C39.8176 27.5558 37.8936 29.4904 37.8936 31.8755C37.8936 32.6639 38.1062 33.3991 38.4729 34.0362C37.0786 35.0561 35.7216 36.0902 34.4159 37.1457C23.1766 46.2248 15.6064 55.5601 12.0206 64.5431C5.15024 66.088 0.00012207 72.2606 0.00012207 79.6222C0.00012207 88.1441 6.90063 95.0767 15.3832 95.0767C16.1468 95.0767 16.898 95.018 17.6332 94.9094C24.9979 102.376 37.231 107.762 53.4716 110.508C57.0379 111.112 60.7052 111.603 64.4593 111.989C64.4539 112.074 64.4468 112.16 64.4468 112.247C64.4468 114.634 66.3726 116.567 68.7466 116.567C70.9789 116.567 72.8125 114.858 73.0251 112.671C77.0308 112.9 81.1232 113.016 85.2972 113.016C99.814 113.016 115.286 111.624 131.303 108.864L131.873 109.835L129.962 110.33L131.873 110.825L130.871 112.534L132.571 111.526L133.064 113.447L133.557 111.526L135.257 112.534L134.255 110.825L136.166 110.33L134.255 109.835L135.238 108.161C137.773 107.691 140.322 107.187 142.882 106.649C146.036 114.02 153.395 119 161.509 119C169.285 119 176.434 114.463 179.787 107.425C189.636 106.968 197.117 105.377 197.33 102.394C197.559 99.1722 189.296 96.7623 183.176 95.4256C211.14 85.6417 235.503 72.7234 253.714 58.0092C254.044 57.7601 254.093 57.2919 253.838 56.9716ZM99.2116 47.7999C99.0752 47.387 98.9848 46.9474 98.9352 46.4543C98.914 46.2408 98.9034 46.0183 98.9016 45.7353C98.9016 45.6125 98.9034 45.4879 98.9069 45.3615C98.9104 45.2369 98.9193 45.1141 98.9299 44.9877C98.9707 44.4022 99.0663 43.8041 99.1602 43.2257C99.2293 42.7985 99.3002 42.3589 99.348 41.9317C99.4029 41.4156 99.4065 41.008 99.3657 40.6413C99.4756 40.8157 99.5748 40.9955 99.6545 41.1842C99.9008 41.7644 99.9557 42.2646 99.9752 42.5903C99.9947 42.9267 99.9823 43.2506 99.9344 43.6422C99.9096 43.8504 99.8777 44.0516 99.8476 44.2491C99.8281 44.3719 99.8104 44.4929 99.7927 44.6122C99.736 45.0002 99.713 45.3366 99.7165 45.6659C99.7218 46.0699 99.7732 46.4775 99.8742 46.9118C100.032 47.5935 100.262 48.179 100.466 48.6632C100.62 49.0227 100.767 49.3449 100.895 49.619C100.716 49.6919 100.54 49.772 100.374 49.8646C100.129 49.5567 99.9256 49.2683 99.759 48.9889C99.5287 48.6098 99.3445 48.2093 99.2116 47.7999ZM93.7444 45.196C94.43 45.6303 94.9579 46.2105 95.5178 46.8246L95.6843 47.0061C96.2353 47.6166 96.9014 48.3268 97.6614 48.9497C97.9963 49.2256 98.3648 49.5051 98.79 49.8041L99.5323 50.3167C99.5659 50.3398 99.5996 50.363 99.6333 50.3861C99.4295 50.5605 99.2453 50.7599 99.0734 50.9699C98.8024 50.8204 98.4746 50.6388 98.1203 50.4253C97.6916 50.1672 97.1884 49.845 96.6994 49.4196C96.0245 48.8341 95.6861 48.2858 95.4221 47.7821L95.1989 47.3496C95.1245 47.2019 95.0465 47.0524 94.9632 46.8993C94.8339 46.6644 94.6248 46.3084 94.3184 45.9311C94.088 45.6498 93.7125 45.2387 93.1207 44.8756C93.3298 44.9593 93.5371 45.0643 93.7444 45.196ZM96.2902 50.9805C95.9394 50.7278 95.6081 50.4252 95.2786 50.055C95.1333 49.8913 94.9898 49.7115 94.8304 49.4926C94.7577 49.3929 94.6869 49.2915 94.6178 49.19C94.5504 49.0868 94.4831 48.9818 94.4158 48.8732C94.1501 48.446 93.9144 47.9903 93.6753 47.5258L93.592 47.3603C93.39 46.9563 93.181 46.5398 92.9631 46.1571C92.7115 45.7139 92.4706 45.3758 92.2172 45.0981C92.4085 45.1746 92.5946 45.2601 92.7717 45.3669C93.3085 45.689 93.6469 46.0628 93.8542 46.3155C94.0668 46.5772 94.2475 46.8477 94.4388 47.193C94.5186 47.339 94.5929 47.4813 94.6656 47.6255L94.8924 48.0616C95.1705 48.592 95.5567 49.2221 96.3079 49.8717C96.8305 50.3256 97.3602 50.6655 97.812 50.9361C98.1486 51.1372 98.4569 51.3098 98.7191 51.4558C98.6163 51.6213 98.5189 51.7921 98.4374 51.9684C98.06 51.8651 97.727 51.7512 97.4276 51.6231C97.0219 51.4486 96.6392 51.2333 96.2902 50.9805ZM90.341 52.0965C91.1507 52.0449 91.916 52.2033 92.7274 52.3706L92.9684 52.4204C93.7709 52.5913 94.7241 52.7729 95.7056 52.8298C95.9376 52.8441 96.1715 52.853 96.4053 52.8565C96.641 52.8601 96.8784 52.8601 97.1193 52.8565L98.1398 52.8298C98.1185 52.9153 98.1026 52.9953 98.0902 53.0737C98.0512 53.2855 98.0317 53.4635 98.0246 53.6272C97.7146 53.6664 97.3496 53.7108 96.9386 53.7482C96.439 53.7927 95.8437 53.8283 95.2006 53.7749C94.3095 53.7002 93.7178 53.4563 93.2093 53.2054L92.7753 52.9882C92.6282 52.9117 92.4794 52.837 92.3217 52.764C91.9302 52.5807 91.5954 52.456 91.2339 52.3599C90.8832 52.2692 90.3393 52.157 89.6483 52.2104C89.8698 52.1499 90.1001 52.1126 90.341 52.0965ZM95.7835 55.2718C95.3441 55.2718 94.8995 55.2255 94.4264 55.1223C93.9693 55.019 93.4892 54.866 93.0339 54.6756C92.5804 54.4922 92.1534 54.2804 91.6467 54.0224L91.4731 53.9316C91.0763 53.7251 90.667 53.5133 90.2702 53.3318C89.806 53.1217 89.4127 52.9882 89.0442 52.9135C89.2462 52.8619 89.4481 52.8209 89.6536 52.8014C90.2773 52.7462 90.768 52.8494 91.0834 52.9313C91.4076 53.0167 91.7123 53.1306 92.0702 53.2979C92.2207 53.3691 92.3625 53.4421 92.5077 53.5151L92.9453 53.734C93.4786 53.9992 94.1589 54.2804 95.1493 54.3641C95.3955 54.3854 95.6347 54.3925 95.865 54.3925C96.2742 54.3925 96.6534 54.3659 96.9882 54.3374C97.3762 54.3018 97.7217 54.2608 98.0228 54.2234C98.0264 54.284 98.0299 54.3409 98.037 54.3783C98.0406 54.4513 98.0529 54.5243 98.0636 54.5973C98.0689 54.6346 98.076 54.6702 98.0849 54.7343L98.099 54.7984C97.2681 55.1205 96.5276 55.2718 95.7835 55.2718ZM91.1542 60.1593C91.296 59.992 91.4501 59.8372 91.6272 59.6894C92.2491 59.1715 92.9631 58.8476 93.7178 58.5041L93.941 58.4026C94.3201 58.2317 94.7595 58.0306 95.1829 57.8117C95.6063 57.5945 96.0032 57.3685 96.3929 57.1193C96.7632 56.8826 97.1423 56.6174 97.5498 56.3077C97.7837 56.1333 98.0105 55.9535 98.2425 55.7737C98.2833 55.7417 98.324 55.7097 98.3648 55.6776C98.3718 55.6919 98.3789 55.7079 98.3842 55.7221L98.4037 55.7649C98.409 55.7773 98.4144 55.7915 98.4197 55.804C98.4356 55.8467 98.4551 55.8894 98.464 55.9036C98.5455 56.0798 98.6429 56.2419 98.7368 56.3931C98.5083 56.6085 98.2408 56.8577 97.9307 57.13C97.5534 57.4593 97.0945 57.8401 96.54 58.1765C95.8331 58.6073 95.2485 58.7746 94.5929 58.8921C94.476 58.9116 94.3573 58.9312 94.2386 58.9508C94.0367 58.9828 93.8312 59.0148 93.6186 59.0576C93.3068 59.1199 92.9329 59.2053 92.506 59.3709C92.1694 59.5026 91.6662 59.7321 91.1365 60.186C91.1401 60.1807 91.1471 60.1682 91.1542 60.1593ZM98.8449 58.1552C98.5508 58.4969 98.2284 58.796 97.8864 59.0469C97.5215 59.3157 97.1228 59.5435 96.7012 59.7268C96.4603 59.8318 96.2353 59.9172 96.028 59.9849C95.8083 60.0578 95.5656 60.1255 95.314 60.1896C94.8676 60.2982 94.3626 60.3942 93.8099 60.4779L93.0463 60.5989C92.7912 60.6381 92.5396 60.6826 92.2934 60.7342C92.0206 60.7912 91.7814 60.8535 91.5617 60.9229C91.3757 60.9816 91.2109 61.0492 91.0532 61.1222C91.1861 60.9602 91.3278 60.809 91.4855 60.6701C91.9585 60.2572 92.4174 60.0489 92.7204 59.9315C93.103 59.782 93.4467 59.7037 93.7319 59.6467C93.9375 59.6076 94.1359 59.5755 94.3308 59.5435C94.453 59.5239 94.5735 59.5043 94.6957 59.483C95.4203 59.353 96.0617 59.1697 96.8483 58.6909C97.4418 58.3296 97.9254 57.9291 98.3223 57.5838C98.6163 57.3257 98.8715 57.0873 99.0929 56.8808C99.1301 56.9253 99.162 56.9663 99.2028 57.0143C99.2896 57.1086 99.3835 57.203 99.4862 57.2991C99.2701 57.6248 99.0593 57.906 98.8449 58.1552ZM97.0042 65.7641C97.0042 65.7534 97.0042 65.7427 97.0042 65.7338C97.0201 65.5167 97.0555 65.3013 97.1122 65.0753C97.3124 64.2886 97.6986 63.6051 98.1061 62.8807L98.2266 62.6672C98.4427 62.2863 98.6713 61.8787 98.8856 61.4551C99.0982 61.0332 99.2913 60.6025 99.4579 60.1789C99.6138 59.7802 99.7644 59.3424 99.9167 58.8387C99.9876 58.6091 100.053 58.3794 100.119 58.1516L100.205 57.8508C100.438 57.9932 100.686 58.1107 100.939 58.2104C100.879 58.5201 100.81 58.8796 100.717 59.2872C100.604 59.7748 100.455 60.3551 100.202 60.9549C99.8813 61.722 99.5057 62.2008 99.0433 62.6832C98.96 62.7686 98.875 62.854 98.79 62.9394C98.6447 63.0854 98.4976 63.2331 98.3506 63.3933C98.1362 63.6265 97.8829 63.9166 97.6349 64.3046C97.44 64.6072 97.1689 65.0895 97.0042 65.7641ZM102.053 59.5737C102.014 60.024 101.929 60.4583 101.8 60.8624C101.664 61.2913 101.469 61.722 101.238 62.1118C101.109 62.3307 100.976 62.5336 100.843 62.717C100.705 62.9074 100.549 63.105 100.383 63.3061C100.227 63.4912 100.067 63.6674 99.8742 63.8721C99.7856 63.9665 99.697 64.0608 99.6085 64.1498L98.7864 64.9738C98.6039 65.1572 98.425 65.3405 98.2567 65.5274C98.0689 65.7356 97.9112 65.9279 97.7766 66.1112C97.6597 66.2696 97.5658 66.4226 97.4789 66.5757C97.4931 66.3657 97.5215 66.1593 97.5675 65.9528C97.7093 65.3387 97.9573 64.9009 98.1327 64.625C98.3559 64.2762 98.5862 64.011 98.7829 63.7974C98.9246 63.6443 99.0681 63.5001 99.2081 63.3595C99.2949 63.2723 99.3817 63.1851 99.4667 63.0961C99.977 62.5639 100.39 62.0353 100.748 61.1845C101.017 60.5438 101.175 59.9333 101.293 59.4189C101.38 59.0362 101.447 58.6945 101.506 58.3955C101.692 58.4418 101.878 58.4809 102.067 58.5041C102.087 58.8956 102.082 59.248 102.053 59.5737ZM101.462 49.4339C101.329 49.1509 101.171 48.8109 101.01 48.4318C100.817 47.9708 100.599 47.4155 100.45 46.7783C100.36 46.3867 100.314 46.0201 100.308 45.6588C100.303 45.3615 100.326 45.0554 100.377 44.6976C100.393 44.5784 100.413 44.4609 100.43 44.3399C100.462 44.1352 100.494 43.9269 100.519 43.7133C100.553 43.4481 100.592 43.0388 100.563 42.5529C100.54 42.1898 100.478 41.638 100.213 40.9919C100.335 41.1842 100.441 41.3924 100.531 41.6202C100.675 41.9798 100.783 42.382 100.868 42.8857C100.935 43.2862 100.981 43.7009 101.028 44.1014L101.042 44.2242C101.088 44.6389 101.143 45.1212 101.219 45.5947C101.295 46.0646 101.391 46.5273 101.504 46.9669C101.61 47.3763 101.742 47.8071 101.917 48.3214C101.993 48.5475 102.075 48.7735 102.154 48.996L102.259 49.2914C101.995 49.3128 101.727 49.3644 101.462 49.4339ZM114.081 47.6575C113.941 47.8248 113.785 47.9779 113.61 48.1274C112.988 48.6454 112.274 48.9693 111.519 49.3128L111.296 49.4142C110.917 49.5869 110.476 49.788 110.054 50.0052C109.629 50.2223 109.234 50.4501 108.844 50.6975C108.474 50.9325 108.095 51.1995 107.687 51.5092C107.453 51.6836 107.226 51.8634 106.996 52.0431C106.955 52.0752 106.915 52.1072 106.874 52.1392C106.867 52.1232 106.86 52.109 106.853 52.093L106.833 52.0503C106.828 52.0378 106.823 52.0236 106.817 52.0111C106.8 51.9684 106.782 51.9257 106.773 51.9114C106.691 51.7352 106.594 51.5733 106.5 51.422C106.729 51.2066 106.996 50.9574 107.306 50.6851C107.682 50.3558 108.142 49.9749 108.697 49.6385C109.404 49.2078 109.988 49.0405 110.646 48.923C110.764 48.9016 110.883 48.8839 111.004 48.8643C111.206 48.8323 111.409 48.8002 111.622 48.7575C111.934 48.6952 112.308 48.6098 112.734 48.4443C113.071 48.3125 113.574 48.0829 114.104 47.6291C114.097 47.6362 114.09 47.6468 114.081 47.6575ZM106.392 49.6617C106.686 49.3199 107.009 49.0209 107.35 48.7699C107.715 48.5012 108.114 48.2734 108.536 48.0901C108.777 47.985 109.002 47.8996 109.209 47.832C109.43 47.759 109.671 47.6913 109.923 47.6273C110.369 47.5187 110.874 47.4226 111.427 47.339L112.191 47.2179C112.446 47.1788 112.697 47.1342 112.944 47.0826C113.215 47.0257 113.454 46.9652 113.675 46.894C113.861 46.8353 114.028 46.7676 114.185 46.6964C114.053 46.8566 113.911 47.0097 113.753 47.1485C113.28 47.5614 112.821 47.7697 112.518 47.8889C112.136 48.0384 111.792 48.1167 111.507 48.1737C111.303 48.2129 111.105 48.2449 110.91 48.277C110.787 48.2965 110.665 48.3161 110.543 48.3375C109.818 48.4674 109.175 48.6507 108.39 49.1295C107.797 49.4908 107.313 49.8913 106.916 50.2366C106.621 50.4964 106.367 50.7314 106.146 50.9396C106.109 50.8951 106.077 50.8542 106.036 50.8061C105.949 50.7118 105.855 50.6175 105.752 50.5231C105.967 50.1921 106.178 49.9091 106.392 49.6617ZM108.233 42.051C108.233 42.0616 108.233 42.0705 108.233 42.0812C108.217 42.2984 108.181 42.5155 108.125 42.7398C107.924 43.5265 107.538 44.2099 107.129 44.9361L107.009 45.1497C106.792 45.5306 106.564 45.9382 106.35 46.3618C106.133 46.7907 105.946 47.209 105.777 47.638C105.621 48.0367 105.471 48.4745 105.318 48.9782C105.249 49.2078 105.182 49.4374 105.116 49.6652L105.028 49.966C104.796 49.8236 104.55 49.7062 104.296 49.6065C104.356 49.2968 104.426 48.9355 104.518 48.5297C104.631 48.042 104.78 47.4618 105.033 46.8619C105.354 46.0966 105.729 45.616 106.192 45.1337C106.275 45.0482 106.358 44.9628 106.443 44.8774C106.589 44.7315 106.736 44.5837 106.885 44.4235C107.099 44.1904 107.352 43.9003 107.6 43.5123C107.797 43.2079 108.068 42.7273 108.233 42.051ZM103.182 48.2431C103.221 47.7928 103.306 47.3585 103.435 46.9545C103.572 46.5256 103.766 46.0948 103.997 45.705C104.126 45.4879 104.257 45.2832 104.392 45.0999C104.53 44.9094 104.684 44.7118 104.852 44.5107C105.008 44.3256 105.168 44.1494 105.361 43.9447C105.45 43.8504 105.54 43.7561 105.627 43.6671L106.449 42.843C106.631 42.6597 106.81 42.4764 106.978 42.2895C107.166 42.0812 107.324 41.8908 107.459 41.7057C107.576 41.5473 107.669 41.3942 107.756 41.2429C107.742 41.4529 107.714 41.6594 107.668 41.8658C107.526 42.4799 107.276 42.9178 107.102 43.1936C106.879 43.5425 106.647 43.8077 106.451 44.0213C106.309 44.1761 106.165 44.3185 106.025 44.4591C105.938 44.5463 105.852 44.6335 105.767 44.7208C105.256 45.2529 104.844 45.7816 104.486 46.6323C104.216 47.2731 104.059 47.8836 103.94 48.398C103.853 48.7806 103.786 49.1223 103.728 49.4214C103.541 49.3751 103.355 49.336 103.166 49.3128C103.15 48.9195 103.155 48.5688 103.182 48.2431ZM104.702 66.1948C104.558 65.8353 104.45 65.4331 104.365 64.9294C104.298 64.5289 104.252 64.1142 104.206 63.7119L104.192 63.5891C104.146 63.1744 104.091 62.692 104.015 62.2186C103.938 61.7487 103.843 61.286 103.729 60.8481C103.625 60.4388 103.494 60.0081 103.316 59.4937C103.24 59.2676 103.159 59.0415 103.079 58.8191L102.975 58.5236C103.242 58.5023 103.511 58.4489 103.775 58.3795C103.908 58.6625 104.066 59.0024 104.227 59.3815C104.42 59.8407 104.638 60.3978 104.787 61.0332C104.877 61.4248 104.923 61.7915 104.929 62.1528C104.934 62.45 104.911 62.7562 104.86 63.1139C104.844 63.2332 104.824 63.3524 104.806 63.4716C104.775 63.6763 104.743 63.8846 104.718 64.0981C104.666 64.52 104.652 64.8884 104.674 65.2586C104.697 65.6217 104.759 66.1753 105.024 66.8196C104.899 66.6292 104.792 66.4209 104.702 66.1948ZM106.027 60.0169C106.164 60.4298 106.254 60.8695 106.303 61.3625C106.325 61.5761 106.335 61.7986 106.337 62.0816C106.337 62.2044 106.335 62.3289 106.332 62.4553C106.326 62.5799 106.319 62.7028 106.309 62.8291C106.268 63.4147 106.172 64.0127 106.078 64.5912C106.009 65.0183 105.938 65.458 105.891 65.8851C105.836 66.4013 105.832 66.8089 105.873 67.1773C105.763 67.0011 105.664 66.8231 105.584 66.6345C105.338 66.056 105.283 65.5541 105.264 65.2266C105.244 64.8902 105.256 64.5662 105.304 64.1747C105.329 63.9664 105.361 63.7653 105.391 63.5677C105.409 63.4449 105.428 63.3239 105.446 63.2029C105.503 62.8149 105.526 62.4785 105.522 62.1492C105.517 61.7452 105.465 61.3376 105.366 60.9033C105.209 60.2216 104.978 59.636 104.775 59.1519C104.622 58.7924 104.473 58.4702 104.346 58.1961C104.525 58.1232 104.7 58.0449 104.867 57.9505C105.113 58.2584 105.315 58.5468 105.481 58.8262C105.708 59.2053 105.891 59.6058 106.027 60.0169ZM111.493 62.6209C110.807 62.1866 110.279 61.6063 109.719 60.9941L109.553 60.8125C109.002 60.2003 108.336 59.4919 107.575 58.8689C107.241 58.593 106.872 58.3136 106.447 58.0146L105.703 57.502C105.669 57.4788 105.637 57.4557 105.604 57.4343C105.807 57.2599 105.992 57.0606 106.164 56.8505C106.436 57.0001 106.762 57.1816 107.117 57.3952C107.544 57.6533 108.047 57.9736 108.537 58.399C109.212 58.9846 109.551 59.5328 109.815 60.0365L110.04 60.469C110.114 60.6167 110.192 60.7663 110.275 60.9175C110.405 61.1525 110.614 61.5085 110.922 61.8858C111.152 62.167 111.528 62.5782 112.12 62.943C111.907 62.8558 111.7 62.7508 111.493 62.6209ZM110.407 58.3243C110.479 58.424 110.55 58.5254 110.619 58.6286C110.686 58.7318 110.754 58.8369 110.821 58.9454C111.085 59.3726 111.322 59.8265 111.562 60.2928L111.645 60.4583C111.847 60.8624 112.056 61.2789 112.274 61.6615C112.525 62.1047 112.766 62.4429 113.02 62.7205C112.828 62.644 112.642 62.5586 112.465 62.4518C111.928 62.1296 111.59 61.7559 111.383 61.5031C111.17 61.2415 110.989 60.9709 110.798 60.6256C110.718 60.4797 110.644 60.3373 110.571 60.1931L110.345 59.7571C110.066 59.2267 109.68 58.5966 108.929 57.9451C108.405 57.4895 107.875 57.1513 107.425 56.8808C107.088 56.6797 106.782 56.5071 106.52 56.3629C107.356 56.6459 108.162 56.8417 108.83 56.9538C108.941 56.9734 109.057 56.9876 109.168 57.0054C109.439 57.2225 109.7 57.4699 109.958 57.7618C110.104 57.9256 110.247 58.1054 110.407 58.3243ZM114.896 55.7203C114.088 55.7719 113.319 55.6135 112.508 55.4462L112.269 55.3964C111.466 55.2256 110.513 55.044 109.531 54.987C109.299 54.9728 109.065 54.9639 108.832 54.9603C108.716 54.9585 108.601 54.9568 108.486 54.9568C108.364 54.9568 108.242 54.9585 108.118 54.9603L107.097 54.987C107.118 54.9016 107.134 54.8215 107.147 54.7432C107.186 54.5332 107.205 54.3534 107.212 54.1897C107.522 54.1505 107.887 54.106 108.298 54.0686C108.796 54.0259 109.391 53.9885 110.036 54.0419C110.926 54.1167 111.519 54.3605 112.028 54.6115L112.462 54.8304C112.609 54.9051 112.758 54.9817 112.915 55.0547C113.158 55.1686 113.534 55.3341 114.003 55.4587C114.29 55.5334 114.706 55.6242 115.229 55.6242C115.344 55.6242 115.466 55.6189 115.59 55.6082C115.367 55.6652 115.137 55.7043 114.896 55.7203ZM115.583 55.012C114.961 55.0671 114.467 54.9639 114.154 54.882C113.828 54.7966 113.525 54.6826 113.167 54.5153C113.016 54.4441 112.874 54.3712 112.729 54.2982L112.292 54.0793C111.758 53.8141 111.078 53.5329 110.088 53.4492C109.4 53.3922 108.771 53.4296 108.249 53.4759C107.861 53.5115 107.515 53.5525 107.216 53.5898C107.212 53.5293 107.209 53.4723 107.202 53.435C107.198 53.362 107.186 53.289 107.173 53.2161C107.168 53.1805 107.161 53.1431 107.152 53.079L107.138 53.0149C107.969 52.6946 108.711 52.5432 109.453 52.5432C109.886 52.545 110.337 52.5913 110.812 52.6928C111.269 52.796 111.749 52.9491 112.205 53.1395C112.692 53.3353 113.172 53.5792 113.592 53.7928L113.76 53.8799C114.157 54.0864 114.57 54.3 114.969 54.4833C115.433 54.6934 115.826 54.8268 116.194 54.9034C115.991 54.9514 115.789 54.9924 115.583 55.012ZM185.288 33.7461C177.55 33.7461 171.209 27.6216 170.814 19.9451C172.378 20.2797 173.429 20.8866 173.934 21.7587C174.341 22.4653 174.327 23.2182 174.313 24.0138C174.295 25.0087 174.274 26.139 175.092 27.2781C175.808 28.2748 176.786 28.7767 177.305 28.9868C178.253 29.3694 178.987 29.3338 179.693 29.2965C180.384 29.2609 181.035 29.2288 181.959 29.5563C183.005 29.9265 183.688 30.5245 183.935 30.763C184.918 31.7206 185.308 32.9078 185.462 33.7408C185.405 33.7425 185.347 33.7461 185.288 33.7461ZM191.081 32.5287C190.6 32.7405 190.107 32.9291 189.6 33.0875C189.023 33.2691 188.428 33.4115 187.822 33.5183C187.342 33.6037 186.854 33.6642 186.36 33.7016C186.199 32.7387 185.758 31.2917 184.555 30.1223C184.197 29.7752 183.423 29.1291 182.257 28.7144C181.166 28.3264 180.36 28.3674 179.649 28.4047C178.981 28.4386 178.404 28.4688 177.638 28.1591C177.291 28.0185 176.421 27.602 175.814 26.7566C175.169 25.8578 175.185 24.9714 175.202 24.0316C175.218 23.147 175.236 22.2322 174.703 21.3102C174.045 20.1711 172.733 19.4039 170.798 19.0266C170.823 16.622 171.43 14.3563 172.486 12.3646C174.111 12.2845 176.903 12.4696 178.933 14.3189C180.404 15.6591 181.18 17.5618 181.384 18.1135C181.662 18.8682 181.791 19.5001 181.915 20.1124C182.119 21.118 182.314 22.0684 183.141 23.1541C183.825 24.0494 184.571 24.5656 185.065 24.9055C186.082 25.6068 186.844 25.8488 187.517 26.0606C188.187 26.2724 188.716 26.4398 189.384 27.0182C189.436 27.0627 189.478 27.109 189.526 27.1535C190.166 27.7515 190.559 28.4136 190.784 28.9155C190.858 29.0811 190.917 29.2306 190.959 29.3516C191.388 30.594 191.278 31.7331 191.081 32.5287ZM182.459 4.90339C183.375 4.72006 184.321 4.62219 185.288 4.62219C193.28 4.62219 199.784 11.1543 199.784 19.1851C199.784 21.8994 199.038 24.441 197.746 26.6196C196.644 26.3864 194.875 25.7652 193.54 24.1046C193.468 24.0138 191.755 21.8477 191.96 19.0302C192.006 18.4001 192.132 17.7843 192.265 17.1311C192.382 16.5633 192.501 15.9742 192.563 15.3779C192.729 13.7654 192.361 12.402 191.523 11.5423C190.539 10.5313 189.049 10.3231 188.017 10.2572C187.79 10.243 187.561 10.2323 187.333 10.2216C186.395 10.1789 185.511 10.138 184.711 9.81051C183.447 9.29435 182.85 8.15874 182.645 7.67818C182.158 6.54263 182.308 5.47828 182.459 4.90339ZM175.408 8.54324C175.812 8.16413 176.235 7.80636 176.682 7.47531C178.111 6.41095 179.741 5.60823 181.502 5.12766C181.378 5.85919 181.353 6.91818 181.835 8.0395C182.076 8.6055 182.806 9.99201 184.376 10.6328C185.318 11.0172 186.321 11.0635 187.292 11.108C187.515 11.1187 187.737 11.1294 187.958 11.1436C188.846 11.2024 190.116 11.3714 190.887 12.1617C191.764 13.0623 191.758 14.5022 191.677 15.2818C191.62 15.8353 191.508 16.3764 191.391 16.9477C191.259 17.5992 191.12 18.272 191.071 18.9608C190.842 22.0738 192.64 24.4072 192.846 24.6617C194.223 26.3739 196 27.1037 197.236 27.4151C195.916 29.3427 194.146 30.9357 192.081 32.041C192.198 31.2027 192.183 30.165 191.799 29.0544C191.67 28.6806 191.42 28.0932 190.984 27.4721C190.718 27.093 190.383 26.7014 189.964 26.3383C189.834 26.2262 189.71 26.1319 189.588 26.0429C188.943 25.5748 188.376 25.3932 187.781 25.2045C187.138 25.0016 186.473 24.7916 185.566 24.1651C185.092 23.8376 184.443 23.3891 183.844 22.606C183.141 21.684 182.983 20.9097 182.783 19.929C182.657 19.3132 182.516 18.6172 182.214 17.7985C181.995 17.1987 181.148 15.1287 179.529 13.6532C177.491 11.7968 174.813 11.4426 173.009 11.4533C173.682 10.3836 174.488 9.40469 175.408 8.54324ZM28.0256 86.7612C28.0185 86.7576 28.0114 86.7541 28.0043 86.7505C27.6624 86.5886 26.4683 86.0795 24.3849 86.5262C23.375 86.7434 22.7904 87.0478 22.2483 87.2649C21.1003 87.7259 19.3198 88.1245 16.6623 87.6814C16.9848 87.9626 17.5358 88.3631 18.3082 88.5749C18.4535 88.614 18.6962 88.6994 19.1125 88.7083C19.9664 88.7261 20.8186 88.6087 21.669 88.5286C22.5194 88.4485 23.3857 88.404 24.2254 88.5642C24.5231 88.6336 24.9624 88.7742 25.4301 89.075C25.6622 89.2228 25.8518 89.3811 26.0095 89.5324C25.6481 89.924 25.2636 90.2942 24.8614 90.6431C24.1935 90.2159 23.5097 89.9561 22.7798 89.8511C22.1739 89.7638 21.8497 89.819 21.4387 89.8902C21.1552 89.9382 20.8345 89.9934 20.3278 90.0183C19.0771 90.0789 17.8139 89.835 16.6747 89.3117C16.4781 89.221 16.3629 89.164 16.2531 89.1088C16.0724 89.018 15.9005 88.9309 15.4115 88.7226C15.2592 88.6568 14.8907 88.5036 14.4248 88.3328C14.0385 88.1904 13.5886 88.0356 13.1315 87.9056C12.8905 87.838 12.6425 87.7757 12.3892 87.7205C11.5901 87.5425 10.7274 87.4251 9.83445 87.3681C10.5289 87.0406 11.2004 86.7879 11.8541 86.601C12.3661 86.4533 12.8657 86.3483 13.3511 86.2877C14.1289 86.1898 14.873 86.1969 15.5781 86.3233C15.7198 86.3482 15.8828 86.3821 16.0635 86.4195C17.0928 86.6313 18.8166 86.9855 20.8399 86.6419C21.5556 86.5209 22.344 86.3091 22.351 86.3073C23.0119 86.124 23.6532 85.8712 24.275 85.6274C24.7853 85.4263 25.3132 85.218 25.8412 85.0543C27.0317 84.6841 28.0663 84.6164 28.9238 84.8514C28.6687 85.5117 28.3675 86.1507 28.0256 86.7612ZM26.3532 70.1141C26.6756 70.4879 26.9803 70.8795 27.2638 71.2853C27.1787 71.2924 27.0937 71.2959 27.0051 71.3048C26.5977 71.3458 26.2256 71.4134 25.8979 71.4882C25.2583 71.6857 24.6453 71.9829 23.9845 72.0915C22.8914 72.2731 21.7841 71.9278 20.6768 71.9064C19.4526 71.8815 18.2231 72.2678 17.2292 72.9868C18.4942 72.5917 19.8513 73.22 21.1729 73.131C21.9985 73.0758 22.8099 72.7412 23.6284 72.8569C24.4221 72.9708 24.8721 73.2805 25.4053 73.5315C26.1477 73.8803 27.2549 74.2238 28.8423 74.2024C29.0372 74.6883 29.2055 75.1867 29.349 75.6975C28.6439 75.9147 27.9866 75.9378 27.3931 75.7687C26.8864 75.6228 26.6898 75.4501 26.3638 75.1618C26.1317 74.9571 25.8412 74.7008 25.3611 74.3929C24.0005 73.519 22.2749 73.3072 20.7442 73.8269C20.3261 73.9693 19.931 74.1615 19.5483 74.3466C19.1674 74.5317 18.8078 74.7062 18.4286 74.8361C17.7926 75.0532 17.0521 74.9892 16.2247 74.6421C15.5161 74.3448 15.1228 73.8928 14.7755 73.4923C14.6852 73.3891 14.6001 73.2912 14.5151 73.2022C13.8224 72.4742 12.8161 72.0008 11.5175 71.7818C11.1525 71.7196 10.7663 71.675 10.3535 71.6537C10.7894 71.4917 11.2039 71.376 11.6043 71.2959C12.5716 71.1019 13.4344 71.1393 14.1785 71.4223C14.3592 71.4917 14.531 71.5718 14.7135 71.6572C15.2503 71.91 15.8049 72.1716 16.6074 72.1164C17.3621 72.0648 17.7448 71.764 18.1151 71.4739C18.4003 71.2497 18.6962 71.0165 19.217 70.8528C20.2038 70.5431 21.0613 70.7638 21.8922 70.9774C22.7833 71.207 23.6231 71.4223 24.3796 70.8385C24.4274 70.8029 24.4752 70.762 24.5266 70.7192C24.741 70.5413 24.9837 70.3419 25.3947 70.212C25.6941 70.1159 26.0148 70.0838 26.3532 70.1141ZM11.6433 65.5648C11.8523 65.5078 12.0649 65.458 12.2775 65.4099C12.4263 65.5576 12.6106 65.7036 12.8374 65.8175C12.9331 65.8656 13.0252 65.9012 13.1173 65.9297C14.2015 66.2732 15.0696 65.3726 16.8749 65.5292C18.0265 65.6306 18.2054 66.0453 19.6334 66.0863C19.9983 66.0969 20.3331 66.0809 20.6272 66.0507C21.4156 66.3586 22.1721 66.7306 22.8878 67.1666C22.654 67.2182 22.4237 67.2841 22.2022 67.3731C21.754 67.5528 21.4794 67.7469 21.2597 67.9018C21.0188 68.0726 20.8717 68.1758 20.6007 68.2025C19.9841 68.2648 19.3747 67.8608 18.8574 67.4568L18.744 67.366C18.2019 66.9388 17.5871 66.4547 16.8359 66.3621C16.1167 66.2749 15.4665 66.5544 14.8358 66.8267C14.5771 66.9388 14.3326 67.0439 14.0828 67.1257C13.6187 67.277 13.1262 67.3304 12.639 67.2966C12.134 67.261 11.6344 67.1329 11.1756 66.9193C10.7451 66.7199 10.35 66.4458 10.0169 66.1094C10.5431 65.8994 11.087 65.7143 11.6433 65.5648ZM0.900104 79.6293C0.900104 79.5118 0.905428 79.3961 0.908971 79.2786C1.16586 79.1523 1.45817 79.0099 1.78946 78.8497C2.80992 78.3602 3.03493 78.2517 3.31485 78.2339C3.91544 78.1929 4.48589 78.4848 5.07762 78.5934C6.40812 78.8372 7.77051 78.152 9.10632 78.3656C9.326 78.4012 9.53683 78.4599 9.74411 78.5347C10.2756 78.7215 10.7787 79.0081 11.289 79.2572C11.3014 79.2626 11.312 79.2679 11.3244 79.2733C12.0242 79.6132 12.8037 79.8909 13.562 79.7307C12.6956 79.5314 11.8878 79.0971 11.2323 78.4955C11.048 78.3264 10.8744 78.1466 10.7167 77.9526C10.373 77.529 10.0807 77.036 9.64665 76.7245C9.5811 76.6765 9.51203 76.6337 9.43939 76.5946C8.69176 76.203 7.78999 76.454 6.94846 76.4949C5.46384 76.5679 4.38667 75.8257 3.84278 75.5444C3.17665 75.2009 2.81878 74.9037 2.63276 74.7364C2.37587 74.5068 2.17214 74.2736 2.00738 74.0583C2.18631 73.6258 2.38652 73.2039 2.60443 72.7928C3.57705 74.0245 4.60635 74.457 5.17151 74.6082C5.76855 74.7666 6.43115 74.7934 6.75004 74.8041C7.42326 74.8307 7.79885 74.7738 8.13192 74.7239C8.41538 74.6812 8.6386 74.6474 8.9947 74.6741C9.23741 74.6919 9.46594 74.7329 9.68031 74.788C10.311 74.9464 10.8177 75.2276 11.149 75.4537C11.2092 75.4946 11.2642 75.5338 11.312 75.5694C11.8116 75.9449 11.9817 76.2119 12.1766 76.5216C12.3466 76.7922 12.5415 77.0983 12.9649 77.4649C13.7143 78.1146 14.8021 78.419 16.1911 78.3709C16.9812 78.3442 17.4879 78.298 17.9361 78.2588C18.4198 78.2161 18.8007 78.184 19.3818 78.1823C20.0674 78.184 20.7637 78.2926 21.467 78.5061C20.9497 78.5061 20.4377 78.556 19.9363 78.6557C19.8778 78.6664 19.8211 78.677 19.7609 78.6859C19.3924 78.7447 18.8893 78.8265 17.6757 79.437C17.4153 79.5687 17.1548 79.7076 16.8944 79.8464C15.8367 80.4106 14.7436 80.9944 13.5797 81.0514C12.8958 81.0852 12.2191 80.9321 11.5512 80.7025C11.0073 80.5156 10.4687 80.2771 9.93899 80.0404L9.92834 80.0351L9.73524 79.9496C7.83428 79.1006 6.70044 79.0988 5.59317 79.0971C4.16169 79.0953 2.59556 79.615 0.942627 80.6367C0.916053 80.3039 0.900104 79.9692 0.900104 79.6293ZM0.999315 81.3041C2.65048 80.2362 4.18473 79.6898 5.60203 79.6934C6.6845 79.6951 7.70496 79.6969 9.49254 80.4943L9.69626 80.585C9.81142 80.6367 9.92659 80.6883 10.0417 80.7399C10.5785 80.9784 11.126 81.2044 11.6858 81.3753C12.2368 81.5426 12.7984 81.6548 13.3813 81.6548C13.4557 81.6548 13.5301 81.653 13.6063 81.6494C14.9013 81.5854 16.0547 80.9695 17.1708 80.375C17.4277 80.238 17.6828 80.1009 17.9397 79.9728C19.0717 79.4032 19.504 79.332 19.853 79.2769C19.9204 79.2662 19.9859 79.2555 20.0497 79.243C21.1269 79.0294 22.2536 79.065 23.4016 79.3445C23.5469 79.3801 23.6939 79.3035 23.7471 79.1647C23.802 79.0259 23.7453 78.8692 23.616 78.7963C22.1952 77.9989 20.7708 77.5931 19.3818 77.5913C18.7865 77.5931 18.3613 77.6269 17.883 77.6696C17.4436 77.7088 16.944 77.7533 16.1698 77.78C14.9314 77.8227 13.9854 77.5664 13.3511 77.0182C12.9933 76.7085 12.8392 76.4647 12.6762 76.2066C12.4689 75.8773 12.2527 75.5374 11.6646 75.096C11.537 75.0016 11.3687 74.8859 11.1703 74.7684C10.7964 74.5477 10.3022 74.3235 9.71754 74.19C9.49962 74.1402 9.27462 74.101 9.03368 74.0832C8.61203 74.053 8.33566 74.0939 8.04157 74.1384C7.73331 74.1847 7.38606 74.2381 6.76953 74.2131C6.4719 74.2025 5.85358 74.1775 5.32032 74.0369C4.80123 73.8981 3.83037 73.4798 2.91798 72.2321C3.37683 71.4543 3.90656 70.7228 4.49652 70.0465C4.62939 70.1123 4.77643 70.1764 4.94651 70.2298C5.54709 70.4202 6.06265 70.3811 6.37977 70.3455C7.72799 70.1853 8.71478 69.6406 9.58288 69.4004C9.84331 69.3274 10.1551 69.2687 10.513 69.242C10.9453 69.2099 11.4502 69.2295 12.0366 69.3417C12.3732 69.4057 12.7329 69.5001 13.1226 69.6335C12.8958 69.3345 12.6319 69.0551 12.3112 68.8593C12.2704 68.8344 12.2279 68.813 12.1872 68.7917C11.7407 68.5567 11.227 68.4766 10.7185 68.4499C10.6866 68.4481 10.6547 68.4464 10.6228 68.4446C10.0382 68.4197 9.44645 68.4481 8.87067 68.3396C8.12127 68.1989 7.62878 67.7291 7.40378 67.4906C8.04511 67.0634 8.72363 66.6879 9.42874 66.3657C9.85925 66.8498 10.3996 67.2307 10.9931 67.4942C11.4555 67.6988 11.948 67.8305 12.4494 67.8821C13.0588 67.9444 13.6771 67.8893 14.26 67.6988C14.5346 67.6098 14.8039 67.4924 15.0626 67.3803C15.6454 67.1293 16.1946 66.8908 16.7562 66.9584C17.3444 67.0296 17.8653 67.4425 18.3702 67.8395L18.4853 67.9302C19.0469 68.3698 19.7149 68.8094 20.4607 68.8094C20.5245 68.8094 20.5883 68.8059 20.6521 68.8005C21.0772 68.7578 21.327 68.5816 21.5928 68.3947C21.7983 68.2488 22.0304 68.0851 22.4148 67.932C22.794 67.7807 23.1997 67.6899 23.6231 67.6597C24.415 68.2096 25.1467 68.8379 25.8128 69.5321C25.6073 69.5517 25.4036 69.5873 25.2105 69.6478C24.6896 69.8133 24.3742 70.0732 24.1439 70.2636C24.0979 70.301 24.0554 70.3384 24.0128 70.3704C23.4849 70.778 22.8435 70.6124 22.0321 70.4042C21.164 70.1799 20.1808 69.9272 19.0328 70.2885C18.4092 70.4843 18.0548 70.7637 17.743 71.0093C17.3905 71.287 17.1354 71.4882 16.5613 71.5273C15.9112 71.57 15.4488 71.3529 14.958 71.1233C14.7738 71.0361 14.5824 70.9471 14.3805 70.8706C13.5938 70.5733 12.7027 70.5092 11.7195 70.673C11.2057 70.7584 10.6671 70.9061 10.1038 71.1179C9.68034 71.2763 9.2445 71.4668 8.79274 71.6964C8.66695 71.7605 8.60317 71.9028 8.64038 72.0381C8.67581 72.1734 8.80337 72.266 8.94155 72.2589C9.28348 72.2411 9.60945 72.2375 9.92126 72.2428C10.4598 72.2517 10.9577 72.2944 11.413 72.371C12.5805 72.5685 13.4734 72.985 14.0775 73.6204C14.1572 73.7041 14.2352 73.7949 14.3202 73.891C14.6905 74.3182 15.1511 74.8485 15.9926 75.201C16.9529 75.6032 17.8334 75.6726 18.6094 75.4074C19.0239 75.2668 19.4172 75.0746 19.7964 74.8912C20.179 74.7043 20.5422 74.53 20.9249 74.4C22.266 73.9444 23.841 74.1384 25.0333 74.9037C25.4744 75.1885 25.7349 75.4163 25.9634 75.6192C26.3107 75.9254 26.587 76.1692 27.2213 76.3507C27.5366 76.4415 27.8644 76.486 28.2027 76.486C28.6155 76.486 29.0443 76.4184 29.4872 76.2831C29.7405 77.3599 29.8787 78.483 29.8787 79.6364C29.8787 80.3732 29.822 81.0976 29.7175 81.806C28.0433 81.0834 26.3726 80.7417 24.7427 80.7969C23.4211 80.8414 22.9569 80.9677 20.9993 81.5052C20.5387 81.6316 19.9948 81.7811 19.3357 81.9573C17.7342 82.3862 15.8704 82.8348 14.0385 82.7316C13.6098 82.7067 13.1687 82.6533 12.7399 82.5999C12.4777 82.5678 12.2137 82.5358 11.948 82.5091C11.4342 82.4575 10.9169 82.4325 10.4014 82.4735C10.0914 82.4984 9.78308 82.5464 9.47659 82.6337C8.74136 82.8401 8.32502 83.0857 7.84136 83.3687C7.60219 83.5093 7.35416 83.6553 7.03881 83.812C5.55772 84.5506 3.81091 84.8923 1.84793 84.8425C1.43514 83.7158 1.14105 82.534 0.999315 81.3041ZM17.4347 94.0444C17.192 93.8575 16.8873 93.651 16.5224 93.4588C16.3895 93.3894 16.2584 93.3271 16.1291 93.2702C14.1023 92.3927 12.3537 93.0387 9.30474 92.5066C9.01774 92.4567 8.65101 92.3838 8.22404 92.2752C7.08843 91.6238 6.04846 90.8246 5.13252 89.9009C5.40536 89.9543 5.67111 90.0255 5.928 90.118C6.39394 90.2889 6.66501 90.4793 6.95379 90.6822C7.16993 90.8335 7.39313 90.9901 7.69076 91.129C8.8813 91.6807 10.1976 91.7305 11.4413 91.7003C14.237 91.6344 14.3539 91.6576 14.9155 91.7662L14.9226 91.768L15.0626 91.7946C16.2974 92.026 17.4879 92.7095 18.6058 93.8272C18.2196 93.9144 17.8316 93.9874 17.4347 94.0444ZM16.8466 91.7857C16.2992 91.5098 15.7411 91.3159 15.1706 91.2091L15.0271 91.1824C14.8145 91.1414 14.6586 91.1112 14.4283 91.0934C13.9943 91.0578 13.2944 91.0631 11.4254 91.1058C10.2543 91.1325 9.0195 91.0898 7.93703 90.5879C7.68723 90.4722 7.49412 90.3369 7.29038 90.1946C6.99806 89.9881 6.66678 89.7567 6.1282 89.5592C5.61266 89.3705 5.06698 89.2619 4.5036 89.2227C3.52212 88.0996 2.70893 86.8235 2.1048 85.4352C2.14555 85.4352 2.18809 85.4388 2.23061 85.4388C4.13689 85.4388 5.84473 85.0685 7.31341 84.3352C7.64648 84.1679 7.91578 84.0113 8.15141 83.8725C8.61735 83.5984 8.98406 83.383 9.64665 83.1961C9.9496 83.1107 10.2561 83.0679 10.5679 83.0484C11.0781 83.0163 11.599 83.0555 12.1358 83.116C12.3147 83.1356 12.4937 83.157 12.6762 83.1801C13.1138 83.2335 13.5655 83.2904 14.0137 83.3153C15.9359 83.4239 17.8511 82.963 19.4969 82.5233C20.1578 82.3471 20.7034 82.1976 21.1641 82.0713C23.1129 81.5373 23.5186 81.4251 24.7711 81.3842C26.3549 81.3308 27.9831 81.6779 29.6201 82.4041C29.496 83.0501 29.3277 83.6784 29.1205 84.2907C28.1425 84.0095 26.9821 84.0736 25.6622 84.4847C25.1148 84.6556 24.5762 84.8674 24.0554 85.0721C23.4495 85.3106 22.8223 85.558 22.1898 85.7324C22.1827 85.7342 21.4156 85.9389 20.7389 86.0528C18.8255 86.3768 17.2328 86.0492 16.1804 85.8339C15.9927 85.7965 15.8261 85.7609 15.6791 85.736C14.857 85.59 13.9907 85.5847 13.0854 85.7182C12.6053 85.7876 12.1128 85.8979 11.6114 86.0474C10.6246 86.3393 9.59707 86.7772 8.53054 87.3681C8.41184 87.434 8.35336 87.571 8.38702 87.7028C8.42069 87.8345 8.53762 87.927 8.67403 87.927C10.1321 87.9305 11.537 88.1032 12.7576 88.4253C12.8267 88.4431 12.8994 88.4609 12.9667 88.4805C13.7409 88.6994 14.5222 89.0038 14.9261 89.1693C15.0448 89.2174 15.1316 89.2548 15.1759 89.2726C15.6454 89.4737 15.8102 89.5556 15.982 89.6428C16.0954 89.6998 16.2159 89.7603 16.4214 89.8546C17.6456 90.417 19.0044 90.6804 20.3491 90.6146C20.893 90.5879 21.2473 90.5274 21.5308 90.4793C21.9188 90.4135 22.1756 90.369 22.6894 90.4437C22.9233 90.4775 23.5593 90.5736 24.3707 91.0489C22.8772 92.2378 21.1463 93.1367 19.2613 93.6617C18.4942 92.8412 17.6863 92.2111 16.8466 91.7857ZM132.715 108.625L132.582 109.143L131.943 108.764C132.199 108.719 132.458 108.671 132.715 108.625ZM133.81 110.033L134.99 110.339L133.81 110.645L134.43 111.699L133.381 111.076L133.076 112.261L132.772 111.076L131.723 111.699L132.343 110.645L131.163 110.339L132.343 110.033L131.723 108.979L132.772 109.602L133.037 108.568C133.062 108.563 133.087 108.559 133.112 108.554L133.381 109.6L134.43 108.979L133.81 110.033ZM133.569 109.143L133.404 108.5C134.001 108.394 134.598 108.289 135.195 108.178L133.569 109.143ZM161.52 79.1985C165.813 79.1985 169.783 80.6117 172.997 82.995C169.636 83.6304 166.234 83.6589 162.868 83.0644C160.089 82.5732 157.413 81.6654 154.898 80.3715C156.963 79.6132 159.194 79.1985 161.52 79.1985ZM153.232 81.0745C156.166 82.7298 159.325 83.8653 162.625 84.4474C164.332 84.7482 166.048 84.8994 167.763 84.8994C169.983 84.8994 172.201 84.6467 174.402 84.1412C175.415 85.0507 176.333 86.0635 177.137 87.1652C177.077 87.183 177.018 87.2026 176.958 87.2204C172.41 88.5802 167.547 89.0572 162.836 88.5944C157.947 88.1156 153.103 86.617 148.778 84.2533C148.723 84.2231 148.669 84.1928 148.614 84.1626C149.992 82.9238 151.546 81.879 153.232 81.0745ZM148.107 84.6396C152.6 87.1599 157.661 88.7564 162.773 89.2566C163.961 89.3722 165.161 89.431 166.362 89.431C170.141 89.431 173.941 88.8543 177.537 87.733C178.381 88.9771 179.082 90.3263 179.623 91.7537C174.274 93.6101 168.52 94.4092 162.897 94.0639C156.605 93.6777 150.373 91.8587 144.822 88.808C145.728 87.272 146.833 85.8695 148.107 84.6396ZM142.843 93.514C142.891 93.3413 142.939 93.1669 142.99 92.9961C143.051 92.9249 143.088 92.8359 143.095 92.738C143.097 92.7202 143.099 92.7006 143.097 92.6828C143.097 92.6774 143.095 92.6739 143.095 92.6685C143.224 92.2716 143.366 91.8801 143.518 91.4938C144.493 92.026 145.488 92.5226 146.498 92.9818C147.241 93.32 147.994 93.6368 148.752 93.9358C152.015 95.2173 155.422 96.1322 158.882 96.643C160.156 96.8316 161.435 96.9669 162.718 97.0453C163.159 97.072 163.6 97.0915 164.041 97.1058C164.516 97.12 164.992 97.1289 165.467 97.1289C169.033 97.1289 172.619 96.7071 176.106 95.883C176.884 95.6997 177.658 95.4932 178.425 95.2689C179.111 95.0678 179.791 94.8525 180.466 94.6211C180.514 94.8489 180.554 95.0785 180.595 95.3081C180.595 95.3472 180.599 95.3864 180.606 95.4238C180.613 95.4594 180.618 95.4968 180.631 95.5324C180.632 95.5377 180.636 95.5413 180.638 95.5466C180.673 95.7673 180.701 95.9898 180.73 96.2105C180.822 96.9403 180.873 97.6806 180.882 98.4318C180.712 98.478 180.544 98.5243 180.374 98.5688C174.632 100.076 168.734 100.653 162.827 100.279C155.938 99.8432 149.266 98.1381 142.982 95.2155C142.822 95.1408 142.663 95.0661 142.501 94.9913C142.597 94.4929 142.711 93.9999 142.843 93.514ZM142.381 95.6676C148.835 98.7165 155.695 100.493 162.785 100.943C163.967 101.018 165.148 101.055 166.328 101.055C171.232 101.055 176.109 100.402 180.879 99.1188C180.859 99.9802 180.783 100.842 180.65 101.687C180.586 101.692 180.526 101.698 180.462 101.703C175.34 102.134 168.569 102.088 161.396 101.573C154.223 101.059 147.515 100.137 142.505 98.9782C142.386 98.9497 142.271 98.923 142.154 98.8963C142.152 98.8162 142.151 98.7361 142.151 98.6578C142.152 97.6397 142.23 96.643 142.381 95.6676ZM141.263 98.6774C136.427 97.4439 135.139 96.3618 135.172 95.8919C135.206 95.4238 136.659 94.5125 141.809 93.9821C141.456 95.4843 141.263 97.047 141.263 98.656C141.263 98.6631 141.263 98.6703 141.263 98.6774ZM161.52 118.115C156.435 118.115 151.663 116.07 148.125 112.678C151.221 114.032 154.467 114.993 157.831 115.533C159.908 115.866 162.014 116.031 164.126 116.031C166.567 116.031 169.012 115.807 171.42 115.367C168.474 117.127 165.065 118.115 161.52 118.115ZM174.279 113.279C168.998 114.7 163.417 115.004 158.053 114.143C153.737 113.45 149.622 112.05 145.783 109.974C145.067 108.979 144.443 107.91 143.924 106.779C150.536 109.647 157.466 111.104 164.546 111.104C164.642 111.104 164.737 111.104 164.831 111.104C169.154 111.081 173.47 110.496 177.681 109.38C176.717 110.839 175.571 112.146 174.279 113.279ZM178.193 108.557C177.987 108.614 177.78 108.668 177.573 108.723C173.395 109.835 169.113 110.417 164.826 110.442C157.72 110.485 150.759 109.034 144.124 106.147C143.954 106.073 143.784 106 143.614 105.923C143.616 105.866 143.612 105.809 143.6 105.751C143.561 105.565 143.456 105.414 143.316 105.309C143.267 105.174 143.219 105.039 143.171 104.902C148.502 105.897 154.609 106.664 160.999 107.121C165.162 107.42 169.398 107.577 173.44 107.577C175.271 107.577 177.061 107.543 178.786 107.477C178.6 107.844 178.402 108.203 178.193 108.557ZM196.453 102.339C196.288 104.658 187.683 106.575 174.405 106.68C170.357 106.712 165.875 106.575 161.063 106.229C156.354 105.891 151.799 105.386 147.602 104.745C143.4 104.102 139.557 103.326 136.272 102.442C127.12 99.9802 126.543 97.8996 126.583 97.3211C126.683 95.9346 130.199 94.1565 139.55 93.3662C134.405 94.1583 134.315 95.3846 134.283 95.8278C134.038 99.2558 150.325 101.675 161.33 102.465C165.271 102.748 169.092 102.89 172.593 102.89C175.502 102.89 178.189 102.792 180.535 102.595C188.892 101.892 189.005 100.288 189.042 99.7595C189.074 99.3164 189.156 98.09 184.179 96.5718C193.321 98.688 196.552 100.952 196.453 102.339ZM188.156 99.6954C188.123 100.172 186.665 101.073 181.561 101.6C181.701 100.628 181.775 99.6421 181.775 98.656C181.775 98.0349 181.743 97.4226 181.688 96.8157C186.847 98.09 188.19 99.2184 188.156 99.6954Z" fill="#EFDBD5"/>
</svg>
