<svg width="336" height="462" viewBox="0 0 336 462" fill="none" xmlns="http://www.w3.org/2000/svg">
<g filter="url(#filter0_d_141_37602)">
<g clip-path="url(#clip0_141_37602)">
<path d="M267.548 425.201L43.0953 390.592C42.6387 390.522 42.3262 390.096 42.3966 389.639L99.942 16.4338C100.012 15.9783 100.439 15.6648 100.895 15.7351L325.349 50.3441C325.804 50.4144 326.118 50.8409 326.048 51.2975L268.502 424.504C268.431 424.959 268.004 425.272 267.548 425.201Z" fill="#31344E"/>
<path d="M80.3237 376.394C71.7374 375.07 65.8276 367.008 67.1517 358.421L114.144 53.6578C115.468 45.0716 123.531 39.162 132.118 40.4861L288.128 64.5416C296.715 65.8656 302.624 73.9296 301.3 82.5159L254.308 387.279C252.984 395.865 244.92 401.774 236.334 400.45L80.3237 376.394Z" stroke="#F88C73" stroke-width="0.611146" stroke-miterlimit="10"/>
<path d="M240.953 387.944C241.105 386.963 240.433 386.046 239.452 385.895C238.472 385.744 237.555 386.416 237.404 387.396C237.253 388.377 237.925 389.293 238.905 389.445C239.884 389.596 240.802 388.924 240.953 387.944Z" fill="#E9E6DB"/>
<path d="M83.4851 363.664C83.6363 362.683 82.9643 361.766 81.984 361.615C81.0037 361.464 80.0867 362.136 79.9356 363.116C79.7844 364.097 80.4564 365.014 81.4367 365.165C82.417 365.316 83.334 364.644 83.4851 363.664Z" fill="#E9E6DB"/>
<path d="M72.5418 346.807L117.659 54.2004C118.686 47.5422 124.916 42.9767 131.574 44.0034L287.585 68.0589C294.243 69.0856 298.809 75.3158 297.783 81.974L252.665 374.58C252.52 375.524 251.637 376.171 250.693 376.025L73.9859 348.779C73.0424 348.633 72.3963 347.75 72.5418 346.807Z" fill="#E9E6DB"/>
<mask id="mask0_141_37602" style="mask-type:luminance" maskUnits="userSpaceOnUse" x="72" y="43" width="226" height="334">
<path d="M72.5368 346.807L117.654 54.2004C118.681 47.5422 124.911 42.9767 131.569 44.0034L287.58 68.0589C294.238 69.0856 298.804 75.3158 297.778 81.974L252.66 374.58C252.515 375.524 251.632 376.171 250.688 376.025L73.9809 348.779C73.0374 348.633 72.3913 347.75 72.5368 346.807Z" fill="white"/>
</mask>
<g mask="url(#mask0_141_37602)">
<path d="M244.266 -9.55796L124.008 450.47" stroke="#31344E" stroke-width="0.183291" stroke-miterlimit="10"/>
<path d="M414.151 280.585L-45.8763 160.327" stroke="#31344E" stroke-width="0.183291" stroke-miterlimit="10"/>
<path d="M64.0116 15.2936L304.265 425.617" stroke="#31344E" stroke-width="0.183291" stroke-miterlimit="10"/>
<path d="M389.3 100.329L-21.0235 340.582" stroke="#31344E" stroke-width="0.183291" stroke-miterlimit="10"/>
<path d="M152.697 -15.1989L215.582 456.111" stroke="#31344E" stroke-width="0.183291" stroke-miterlimit="10"/>
<path d="M419.793 189.013L-51.5161 251.899" stroke="#31344E" stroke-width="0.183291" stroke-miterlimit="10"/>
<path d="M-4.72913 76.0555L373.005 364.855" stroke="#31344E" stroke-width="0.183291" stroke-miterlimit="10"/>
<path d="M328.538 31.5897L39.7388 409.322" stroke="#31344E" stroke-width="0.183291" stroke-miterlimit="10"/>
<path d="M196.604 -16.9601L171.673 457.872" stroke="#31344E" stroke-width="0.183291" stroke-miterlimit="10"/>
<path d="M421.554 232.921L-53.2789 207.99" stroke="#31344E" stroke-width="0.183291" stroke-miterlimit="10"/>
<path d="M25.0746 43.7627L343.203 397.149" stroke="#31344E" stroke-width="0.183291" stroke-miterlimit="10"/>
<path d="M360.829 61.3921L7.44354 379.52" stroke="#31344E" stroke-width="0.183291" stroke-miterlimit="10"/>
<path d="M105.779 -4.0022L262.499 444.914" stroke="#31344E" stroke-width="0.183291" stroke-miterlimit="10"/>
<path d="M408.597 142.095L-40.3199 298.816" stroke="#31344E" stroke-width="0.183291" stroke-miterlimit="10"/>
<path d="M-29.9857 117.149L398.264 323.763" stroke="#31344E" stroke-width="0.183291" stroke-miterlimit="10"/>
<path d="M287.444 6.3308L80.8295 434.581" stroke="#31344E" stroke-width="0.183291" stroke-miterlimit="10"/>
</g>
<mask id="mask1_141_37602" style="mask-type:luminance" maskUnits="userSpaceOnUse" x="72" y="43" width="226" height="334">
<path d="M72.5368 346.807L117.654 54.2004C118.681 47.5422 124.911 42.9767 131.569 44.0034L287.58 68.0589C294.238 69.0856 298.804 75.3158 297.778 81.974L252.66 374.58C252.515 375.524 251.632 376.171 250.688 376.025L73.9809 348.779C73.0374 348.633 72.3913 347.75 72.5368 346.807Z" fill="white"/>
</mask>
<g mask="url(#mask1_141_37602)">
<path d="M235.925 80.4754C235.603 82.174 235.858 83.9753 236.638 85.5183C237.418 87.0601 238.719 88.3342 240.277 89.0805C239.532 95.1686 242.341 101.505 247.452 104.898C251.401 107.518 256.267 108.599 261.006 108.504L267.684 65.1924L265.758 64.8955C265.758 64.8955 264.316 68.2232 256.867 67.7257C256.867 67.7257 255.59 82.9498 235.925 80.4754Z" fill="#31344E" stroke="#F88C73" stroke-width="0.611146" stroke-miterlimit="10"/>
<path d="M261.625 104.496C260.13 104.705 258.621 104.664 257.015 104.404C255.56 104.169 254.129 103.736 252.797 103.107C250.784 102.156 249.081 100.512 248.187 98.4738C247.293 96.4353 247.251 94.0101 248.203 91.9972C249.155 89.9853 251.12 88.451 253.326 88.1497C255.532 87.8482 257.897 88.8523 259.107 90.7215C259.629 91.5272 259.938 92.4839 259.89 93.4414C259.842 94.3989 259.499 95.4624 258.756 96.0677C258.148 96.5629 257.398 96.8468 256.619 96.9287C255.914 97.0028 255.153 96.908 254.51 96.6132C253.867 96.3174 253.23 95.7357 253.073 94.9572" stroke="#E9E6DB" stroke-width="0.488917" stroke-miterlimit="10"/>
<path d="M249.153 96.2687C249.7 98.4579 251.236 100.378 253.251 101.393" stroke="#E9E6DB" stroke-width="0.488917" stroke-miterlimit="10"/>
<path d="M248.403 84.685C250.859 83.3596 253.757 82.8717 256.512 83.3169C259.267 83.7632 262.433 85.4558 264.056 88.7275" stroke="#E9E6DB" stroke-width="0.488917" stroke-miterlimit="10"/>
<path d="M259.238 80.1653C261.42 80.5318 263.46 81.694 264.887 83.383" stroke="#E9E6DB" stroke-width="0.488917" stroke-miterlimit="10"/>
<path d="M261.135 78.2979C262.105 78.5453 263.035 78.953 263.877 79.4975" stroke="#E9E6DB" stroke-width="0.488917" stroke-miterlimit="10"/>
<path d="M238.342 80.713C238.066 82.5529 238.884 84.5164 240.386 85.6152" stroke="#E9E6DB" stroke-width="0.488917" stroke-miterlimit="10"/>
<path d="M255.618 98.138C254.185 98.2255 252.718 97.5125 251.933 96.3459C251.149 95.1796 251.08 93.6087 251.76 92.4017C251.942 92.0784 252.175 91.7791 252.462 91.5364C253.187 90.9219 254.26 90.7112 255.19 90.9997C256.119 91.288 256.871 92.067 257.1 92.978" stroke="#E9E6DB" stroke-width="0.488917" stroke-miterlimit="10"/>
<path d="M273.041 123.207C271.776 126.041 271.091 129.185 271.47 132.265C271.85 135.345 273.371 138.348 275.888 140.193C275.313 142.06 275.636 144.247 276.771 145.846C277.905 147.444 279.806 148.482 281.773 148.576C280.717 149.38 280.046 150.944 280.434 152.211C280.537 152.544 280.699 152.857 280.894 153.147C281.35 153.83 281.984 154.396 282.716 154.775C279.67 155.734 277 158.036 275.585 160.88C274.17 163.724 273.885 167.078 274.65 170.162C275.416 173.246 277.202 176.052 279.58 178.181C280.556 179.055 281.628 179.818 282.696 180.579L291.201 125.419C291.201 125.419 286.288 125.807 281.639 125.091C276.988 124.374 273.041 123.207 273.041 123.207Z" fill="#F88C73" stroke="#31344E" stroke-width="0.611146" stroke-miterlimit="10"/>
<path d="M284.321 134.54C285.069 134.931 286.033 134.711 286.675 134.162C287.739 133.251 287.936 131.536 287.221 130.33C286.507 129.124 285.021 128.475 283.627 128.618C282.233 128.76 280.966 129.627 280.185 130.791C279.344 132.048 279.042 133.652 279.368 135.128C279.693 136.604 280.642 137.932 281.934 138.717C281.521 139.853 281.544 141.276 282.178 142.306C282.813 143.334 283.934 144.047 285.134 144.187" stroke="#E9E6DB" stroke-width="0.488917" stroke-miterlimit="10"/>
<path d="M274.597 125.403C273.497 127.598 272.987 130.011 273.32 132.445C273.652 134.878 275.03 136.846 276.806 138.374" stroke="#E9E6DB" stroke-width="0.488917" stroke-miterlimit="10"/>
<path d="M282.823 176.838C280.621 175.547 278.814 173.563 278.093 171.231" stroke="#E9E6DB" stroke-width="0.488917" stroke-miterlimit="10"/>
<path d="M284.179 153.747C283.651 154.061 283.258 154.591 283.109 155.187C282.961 155.783 283.061 156.436 283.379 156.961" stroke="#E9E6DB" stroke-width="0.488917" stroke-miterlimit="10"/>
<path d="M282.877 149.326C282.354 148.702 282.119 147.845 282.253 147.041" stroke="#E9E6DB" stroke-width="0.488917" stroke-miterlimit="10"/>
<path d="M277.683 127.227C276.614 128.393 275.974 129.944 275.908 131.525" stroke="#E9E6DB" stroke-width="0.488917" stroke-miterlimit="10"/>
<path d="M285.487 130.982C285.173 130.71 284.761 130.55 284.344 130.541C284.076 130.535 283.803 130.59 283.565 130.717C283.011 131.014 282.722 131.67 282.705 132.3C282.695 132.681 282.792 133.097 283.096 133.326" stroke="#E9E6DB" stroke-width="0.488917" stroke-miterlimit="10"/>
<path d="M289.619 133.865C289.307 135.368 288.121 136.656 286.649 137.092C285.178 137.528 283.482 137.094 282.401 136.004" stroke="#E9E6DB" stroke-width="0.488917" stroke-miterlimit="10"/>
<path d="M204.002 54.8601C203.479 58.3864 205.084 62.0325 207.714 64.4388C210.344 66.845 213.88 68.1015 217.427 68.4561C217.372 71.2434 219.176 74.0403 221.675 75.2766C224.174 76.5129 227.146 76.5274 229.842 75.8203C232.391 79.4603 236.715 81.4584 241.111 82.105C245.585 82.7638 250.337 82.1126 254.2 79.7597C258.062 77.4069 260.909 73.2428 261.155 68.727C262.903 69.1051 264.64 68.9474 266.341 68.3974C268.042 67.8463 269.773 66.6067 270.742 65.1046L204.002 54.8601Z" fill="#F88C73" stroke="#31344E" stroke-width="0.611146" stroke-miterlimit="10"/>
<path d="M229.947 75.7388C229.881 75.8308 229.739 75.7412 229.67 75.6511C227.879 73.3216 227.282 70.1221 228.112 67.3038" stroke="#E9E6DB" stroke-width="0.488917" stroke-miterlimit="10"/>
<path d="M235.627 68.2379C236.534 66.5211 238.427 65.3721 240.368 65.3598C242.31 65.3465 244.218 66.4713 245.147 68.1759C245.721 69.2282 245.926 70.5191 245.514 71.645C245.102 72.7709 244.009 73.6661 242.809 73.667C241.611 73.6682 240.45 72.6393 240.47 71.441" stroke="#E9E6DB" stroke-width="0.488917" stroke-miterlimit="10"/>
<path d="M233.363 76.0997C236.389 78.7056 240.575 79.9109 244.524 79.3131" stroke="#E9E6DB" stroke-width="0.488917" stroke-miterlimit="10"/>
<path d="M249.395 78.4339C253.647 77.2951 257.014 73.3885 257.512 69.0136" stroke="#E9E6DB" stroke-width="0.488917" stroke-miterlimit="10"/>
<path d="M216.884 66.6091C217.175 67.7941 218.171 68.7771 219.36 69.0528" stroke="#E9E6DB" stroke-width="0.488917" stroke-miterlimit="10"/>
<path d="M206.01 55.1702C205.837 57.17 206.328 59.2218 207.388 60.9271C208.448 62.6324 210.071 63.9807 211.942 64.7108" stroke="#E9E6DB" stroke-width="0.488917" stroke-miterlimit="10"/>
<path d="M223.858 72.8802C223.893 72.9382 223.962 72.9639 224.027 72.9846C225.361 73.4159 226.831 73.4106 228.162 72.9699" stroke="#E9E6DB" stroke-width="0.488917" stroke-miterlimit="10"/>
<path d="M218.425 57.0424C218.677 58.1869 219.422 59.1851 220.353 59.8969C221.284 60.61 222.391 61.058 223.52 61.3739C225.205 61.8454 226.721 61.9963 228.452 61.7389C230.183 61.4814 231.974 60.623 232.787 59.3504" stroke="#E9E6DB" stroke-width="0.488917" stroke-miterlimit="10"/>
<path d="M246.857 63.0052C248.575 63.8933 249.943 65.4356 250.619 67.2472C251.295 69.0588 251.271 71.1214 250.554 72.9169" stroke="#E9E6DB" stroke-width="0.488917" stroke-miterlimit="10"/>
<path d="M243.244 68.3896C242.242 67.2787 240.534 66.8672 239.137 67.4017C237.738 67.936 236.74 69.3788 236.733 70.8757C236.727 72.3726 237.713 73.8247 239.108 74.3707" stroke="#E9E6DB" stroke-width="0.488917" stroke-miterlimit="10"/>
<path d="M252.976 65.3031C253.644 66.1636 254.077 67.2069 254.213 68.2874" stroke="#E9E6DB" stroke-width="0.488917" stroke-miterlimit="10"/>
<path d="M212.675 56.3193C212.835 58.1641 214.099 59.8709 215.818 60.5615" stroke="#E9E6DB" stroke-width="0.488917" stroke-miterlimit="10"/>
<path d="M257.43 63.0767C253.889 66.7695 251.752 71.9133 252.17 77.0129C252.588 82.1124 255.75 87.0237 260.445 89.0605C258.764 90.7463 257.848 94.2969 258.115 96.6623C258.382 99.0276 259.772 101.24 261.787 102.508C257.912 108.447 258.968 117.932 264.087 122.84C269.205 127.748 277.297 128.947 283.929 126.436C283.805 127.243 283.704 128.927 284.319 130.148C285.481 132.456 287.575 133.354 290.185 133.408L300.017 69.6432L257.43 63.0767Z" fill="#31344E" stroke="#31344E" stroke-width="0.611146" stroke-miterlimit="10"/>
<path d="M261.438 103.119C259.711 106.86 259.992 112.099 261.989 115.649C263.986 119.197 267.597 121.699 271.515 122.397C273.314 122.717 275.191 122.683 276.949 122.142C280.009 121.202 282.935 118.976 283.93 115.226C284.926 111.468 283.668 107.956 281.349 105.726C279.029 103.496 275.34 102.886 272.488 104.381C269.635 105.877 267.887 109.44 268.543 112.659" stroke="#E9E6DB" stroke-width="0.488917" stroke-miterlimit="10"/>
<path d="M273.884 65.7205C271.342 69.3793 270.15 74.0759 271.175 78.4126C272.199 82.7493 275.612 86.5666 279.95 87.5826C279.183 89.5434 278.881 92.0692 279.8 93.9644C280.793 96.0119 282.732 97.3521 284.823 97.6004C284.441 100.081 284.925 102.825 287.002 104.762C288.817 106.455 292.06 107.068 294.319 106.565" stroke="#E9E6DB" stroke-width="0.488917" stroke-miterlimit="10"/>
<path d="M297.537 73.7673C296.77 72.6369 295.137 72.0284 293.759 72.2166C292.38 72.4038 291.165 73.3081 290.519 74.4913C289.872 75.6746 289.591 77.0763 289.937 78.3816C290.239 79.5187 291.423 80.7779 292.785 80.9878" stroke="#E9E6DB" stroke-width="0.488917" stroke-miterlimit="10"/>
<path d="M280.451 111.923C280.773 114.281 279.356 116.739 277.198 117.741C275.039 118.744 272.316 118.282 270.532 116.707" stroke="#E9E6DB" stroke-width="0.488917" stroke-miterlimit="10"/>
<path d="M261.165 85.5431C260.917 86.5955 260.843 87.7059 261.093 88.7576C261.342 89.8103 261.936 90.8013 262.831 91.4099" stroke="#E9E6DB" stroke-width="0.488917" stroke-miterlimit="10"/>
<path d="M263.291 100.821C262.271 101.735 262.089 103.441 262.893 104.549" stroke="#E9E6DB" stroke-width="0.488917" stroke-miterlimit="10"/>
<path d="M276.82 124.779C271.764 126.07 265.997 124.603 261.25 118.911" stroke="#E9E6DB" stroke-width="0.488917" stroke-miterlimit="10"/>
<path d="M288.156 126.095C288.081 126.828 288.298 127.585 288.75 128.168C289.202 128.749 289.883 129.147 290.612 129.254" stroke="#E9E6DB" stroke-width="0.488917" stroke-miterlimit="10"/>
<path d="M287.157 71.6245C285.412 74.1093 284.908 77.4228 285.838 80.3146C286.767 83.2065 289.107 85.6056 291.974 86.6074C291.365 88.2939 291.058 90.2935 291.7 91.9677C292.341 93.6418 294.075 95.062 295.853 95.2825" stroke="#E9E6DB" stroke-width="0.488917" stroke-miterlimit="10"/>
<path d="M268.299 64.9428C266.34 67.7719 264.999 71.0872 264.826 74.5237C264.654 77.9602 265.724 81.513 268.053 84.0458" stroke="#E9E6DB" stroke-width="0.488917" stroke-miterlimit="10"/>
<path d="M283.17 126.705C285.712 125.715 288.264 123.256 289.163 120.76" stroke="#E9E6DB" stroke-width="0.488917" stroke-miterlimit="10"/>
<path d="M279.59 83.6591C279.331 85.3425 279.689 87.0556 280.801 88.2372C281.384 88.8557 282.184 89.3067 283.161 89.6498" stroke="#E9E6DB" stroke-width="0.488917" stroke-miterlimit="10"/>
<path d="M294.804 103.437C292.741 104.088 290.36 103.611 288.706 102.217" stroke="#E9E6DB" stroke-width="0.488917" stroke-miterlimit="10"/>
<path d="M265.355 64.4878C264.108 65.7644 263.212 67.3798 262.788 69.1131" stroke="#E9E6DB" stroke-width="0.488917" stroke-miterlimit="10"/>
<path d="M261.035 63.6327C258.996 65.3631 257.055 67.9864 256.261 70.5394C255.679 72.4127 255.309 74.3704 255.391 76.331C255.472 78.2916 256.023 80.259 257.152 81.8632" stroke="#E9E6DB" stroke-width="0.488917" stroke-miterlimit="10"/>
<path d="M257.43 63.0765C253.888 66.7693 251.751 71.9132 252.169 77.0128C252.587 82.1123 255.75 87.0236 260.444 89.0604C258.764 90.7461 257.848 94.2968 258.115 96.6621C258.382 99.0274 259.772 101.24 261.786 102.508C257.911 108.447 258.968 117.932 264.086 122.84C269.205 127.748 277.297 128.947 283.929 126.436C283.804 127.243 283.704 128.927 284.319 130.148C285.48 132.456 287.575 133.354 290.185 133.408L300.017 69.6431L257.43 63.0765Z" stroke="#F88C73" stroke-width="0.611146" stroke-miterlimit="10"/>
</g>
<mask id="mask2_141_37602" style="mask-type:luminance" maskUnits="userSpaceOnUse" x="72" y="43" width="226" height="334">
<path d="M72.5368 346.807L117.654 54.2004C118.681 47.5422 124.911 42.9767 131.569 44.0034L287.58 68.0589C294.238 69.0856 298.804 75.3158 297.778 81.974L252.66 374.58C252.515 375.524 251.632 376.171 250.688 376.025L73.9809 348.779C73.0374 348.633 72.3913 347.75 72.5368 346.807Z" fill="white"/>
</mask>
<g mask="url(#mask2_141_37602)">
<path d="M136.394 337.571C136.716 335.873 136.461 334.071 135.681 332.528C134.902 330.987 133.6 329.713 132.042 328.966C132.788 322.878 129.978 316.542 124.867 313.149C120.918 310.529 116.052 309.447 111.313 309.543L104.634 352.854L106.56 353.151C106.56 353.151 108.003 349.823 115.452 350.321C115.452 350.321 116.73 335.097 136.394 337.571Z" fill="#31344E" stroke="#F88C73" stroke-width="0.611146" stroke-miterlimit="10"/>
<path d="M110.695 313.55C112.19 313.341 113.7 313.382 115.306 313.641C116.76 313.876 118.192 314.309 119.523 314.938C121.536 315.889 123.24 317.533 124.134 319.571C125.028 321.61 125.069 324.035 124.118 326.048C123.166 328.06 121.2 329.594 118.994 329.895C116.789 330.197 114.423 329.193 113.214 327.324C112.693 326.518 112.383 325.561 112.431 324.604C112.478 323.646 112.822 322.583 113.565 321.977C114.172 321.482 114.923 321.198 115.702 321.116C116.406 321.042 117.167 321.137 117.811 321.432C118.454 321.728 119.089 322.309 119.248 323.089" stroke="#E9E6DB" stroke-width="0.488917" stroke-miterlimit="10"/>
<path d="M123.163 321.776C122.617 319.587 121.081 317.667 119.066 316.652" stroke="#E9E6DB" stroke-width="0.488917" stroke-miterlimit="10"/>
<path d="M123.918 333.361C121.462 334.687 118.564 335.175 115.809 334.729C113.054 334.283 109.888 332.59 108.265 329.319" stroke="#E9E6DB" stroke-width="0.488917" stroke-miterlimit="10"/>
<path d="M113.082 337.881C110.9 337.514 108.861 336.352 107.433 334.663" stroke="#E9E6DB" stroke-width="0.488917" stroke-miterlimit="10"/>
<path d="M111.183 339.747C110.213 339.499 109.283 339.092 108.441 338.547" stroke="#E9E6DB" stroke-width="0.488917" stroke-miterlimit="10"/>
<path d="M133.975 337.333C134.251 335.493 133.433 333.53 131.932 332.431" stroke="#E9E6DB" stroke-width="0.488917" stroke-miterlimit="10"/>
<path d="M116.704 319.907C118.137 319.82 119.604 320.533 120.389 321.699C121.173 322.866 121.243 324.436 120.562 325.643C120.38 325.967 120.147 326.266 119.861 326.509C119.135 327.123 118.062 327.334 117.133 327.046C116.204 326.757 115.453 325.978 115.223 325.068" stroke="#E9E6DB" stroke-width="0.488917" stroke-miterlimit="10"/>
<path d="M99.2823 294.841C100.547 292.007 101.232 288.864 100.853 285.784C100.474 282.704 98.9522 279.7 96.4355 277.855C97.0103 275.988 96.6867 273.801 95.5525 272.202C94.4182 270.604 92.5163 269.566 90.5505 269.472C91.6061 268.668 92.277 267.104 91.8889 265.837C91.7865 265.505 91.6242 265.192 91.4293 264.902C90.9727 264.219 90.339 263.653 89.6065 263.274C92.6534 262.315 95.3227 260.014 96.7379 257.169C98.1532 254.325 98.4382 250.972 97.6728 247.887C96.9074 244.802 95.121 241.998 92.7427 239.869C91.7665 238.994 90.6947 238.231 89.6268 237.47L81.1218 292.629C81.1218 292.629 86.0342 292.24 90.6847 292.957C95.3352 293.674 99.2823 294.841 99.2823 294.841Z" fill="#F88C73" stroke="#31344E" stroke-width="0.611146" stroke-miterlimit="10"/>
<path d="M88.0052 283.508C87.2576 283.117 86.2931 283.337 85.6519 283.886C84.5873 284.797 84.3906 286.512 85.1051 287.718C85.8195 288.924 87.3053 289.573 88.6995 289.431C90.0936 289.288 91.3608 288.422 92.141 287.257C92.9827 286 93.2848 284.397 92.959 282.921C92.6332 281.444 91.684 280.116 90.3921 279.331C90.8059 278.195 90.7824 276.772 90.1482 275.743C89.5138 274.714 88.3924 274.001 87.1923 273.861" stroke="#E9E6DB" stroke-width="0.488917" stroke-miterlimit="10"/>
<path d="M97.7314 292.646C98.8306 290.45 99.3413 288.037 99.0084 285.604C98.6756 283.17 97.2996 281.202 95.5216 279.674" stroke="#E9E6DB" stroke-width="0.488917" stroke-miterlimit="10"/>
<path d="M89.5045 241.211C91.7068 242.502 93.5145 244.486 94.2347 246.818" stroke="#E9E6DB" stroke-width="0.488917" stroke-miterlimit="10"/>
<path d="M88.1453 264.302C88.673 263.988 89.0663 263.457 89.2152 262.861C89.363 262.265 89.2637 261.613 88.945 261.088" stroke="#E9E6DB" stroke-width="0.488917" stroke-miterlimit="10"/>
<path d="M89.4515 268.722C89.9754 269.346 90.2095 270.204 90.0759 271.007" stroke="#E9E6DB" stroke-width="0.488917" stroke-miterlimit="10"/>
<path d="M94.6427 290.82C95.7122 289.654 96.3521 288.103 96.4176 286.522" stroke="#E9E6DB" stroke-width="0.488917" stroke-miterlimit="10"/>
<path d="M86.8364 287.067C87.1512 287.339 87.563 287.497 87.9794 287.507C88.2482 287.513 88.5209 287.459 88.7587 287.331C89.3128 287.034 89.602 286.378 89.6184 285.749C89.6288 285.368 89.5329 284.951 89.2276 284.722" stroke="#E9E6DB" stroke-width="0.488917" stroke-miterlimit="10"/>
<path d="M82.7064 284.184C83.0188 282.681 84.2048 281.393 85.6764 280.957C87.148 280.521 88.8442 280.955 89.9248 282.045" stroke="#E9E6DB" stroke-width="0.488917" stroke-miterlimit="10"/>
<path d="M168.323 363.188C168.847 359.662 167.242 356.016 164.613 353.61C161.983 351.203 158.447 349.947 154.9 349.592C154.955 346.805 153.15 344.008 150.651 342.772C148.152 341.535 145.18 341.52 142.484 342.228C139.936 338.588 135.612 336.59 131.216 335.943C126.741 335.285 121.989 335.936 118.127 338.289C114.264 340.641 111.417 344.806 111.171 349.321C109.423 348.942 107.686 349.101 105.985 349.651C104.284 350.202 102.554 351.442 101.585 352.944L168.323 363.188Z" fill="#F88C73" stroke="#31344E" stroke-width="0.611146" stroke-miterlimit="10"/>
<path d="M142.384 342.309C142.45 342.217 142.592 342.307 142.661 342.397C144.452 344.727 145.049 347.926 144.219 350.745" stroke="#E9E6DB" stroke-width="0.488917" stroke-miterlimit="10"/>
<path d="M136.705 349.811C135.798 351.528 133.905 352.677 131.963 352.689C130.022 352.702 128.114 351.578 127.184 349.873C126.611 348.821 126.406 347.53 126.818 346.404C127.23 345.278 128.323 344.383 129.522 344.382C130.721 344.381 131.881 345.41 131.862 346.608" stroke="#E9E6DB" stroke-width="0.488917" stroke-miterlimit="10"/>
<path d="M138.967 341.949C135.942 339.343 131.755 338.138 127.807 338.735" stroke="#E9E6DB" stroke-width="0.488917" stroke-miterlimit="10"/>
<path d="M122.934 339.614C118.681 340.753 115.315 344.66 114.817 349.034" stroke="#E9E6DB" stroke-width="0.488917" stroke-miterlimit="10"/>
<path d="M155.447 351.44C155.156 350.255 154.16 349.272 152.971 348.996" stroke="#E9E6DB" stroke-width="0.488917" stroke-miterlimit="10"/>
<path d="M166.319 362.879C166.492 360.879 166.001 358.827 164.941 357.122C163.881 355.417 162.258 354.068 160.387 353.338" stroke="#E9E6DB" stroke-width="0.488917" stroke-miterlimit="10"/>
<path d="M148.471 345.169C148.436 345.111 148.366 345.085 148.302 345.064C146.968 344.633 145.498 344.637 144.167 345.079" stroke="#E9E6DB" stroke-width="0.488917" stroke-miterlimit="10"/>
<path d="M153.902 361.007C153.65 359.862 152.905 358.864 151.974 358.152C151.043 357.439 149.936 356.991 148.807 356.674C147.122 356.203 145.606 356.052 143.875 356.309C142.144 356.567 140.353 357.425 139.54 358.698" stroke="#E9E6DB" stroke-width="0.488917" stroke-miterlimit="10"/>
<path d="M125.473 355.043C123.756 354.155 122.387 352.613 121.711 350.801C121.035 348.99 121.059 346.927 121.776 345.133" stroke="#E9E6DB" stroke-width="0.488917" stroke-miterlimit="10"/>
<path d="M129.086 349.659C130.088 350.77 131.796 351.181 133.193 350.646C134.592 350.112 135.59 348.668 135.596 347.173C135.602 345.676 134.616 344.223 133.222 343.678" stroke="#E9E6DB" stroke-width="0.488917" stroke-miterlimit="10"/>
<path d="M119.356 352.746C118.688 351.886 118.256 350.842 118.119 349.762" stroke="#E9E6DB" stroke-width="0.488917" stroke-miterlimit="10"/>
<path d="M159.653 361.729C159.493 359.885 158.229 358.178 156.51 357.487" stroke="#E9E6DB" stroke-width="0.488917" stroke-miterlimit="10"/>
<path d="M114.894 354.971C118.436 351.278 120.573 346.134 120.155 341.035C119.737 335.935 116.574 331.024 111.88 328.987C113.56 327.302 114.478 323.751 114.209 321.386C113.942 319.02 112.553 316.807 110.538 315.539C114.413 309.601 113.357 300.116 108.238 295.208C103.119 290.3 95.0276 289.101 88.3954 291.612C88.5199 290.805 88.6206 289.121 88.0051 287.9C86.8438 285.592 84.7496 284.693 82.1393 284.64L72.3071 348.406L114.894 354.972L114.894 354.971Z" fill="#31344E" stroke="#31344E" stroke-width="0.611146" stroke-miterlimit="10"/>
<path d="M110.886 314.928C112.613 311.187 112.332 305.948 110.335 302.398C108.338 298.848 104.727 296.348 100.809 295.65C99.0101 295.33 97.1331 295.364 95.3747 295.904C92.3147 296.844 89.3895 299.069 88.3944 302.82C87.3981 306.577 88.6563 310.089 90.975 312.319C93.2948 314.55 96.984 315.16 99.8363 313.664C102.689 312.169 104.437 308.606 103.781 305.386" stroke="#E9E6DB" stroke-width="0.488917" stroke-miterlimit="10"/>
<path d="M98.4405 352.327C100.983 348.669 102.174 343.972 101.15 339.635C100.125 335.299 96.7122 331.481 92.3743 330.465C93.1419 328.505 93.4422 325.979 92.5245 324.083C91.5315 322.036 89.5925 320.695 87.501 320.448C87.8834 317.967 87.3998 315.223 85.3228 313.285C83.5079 311.593 80.264 310.98 78.0051 311.483" stroke="#E9E6DB" stroke-width="0.488917" stroke-miterlimit="10"/>
<path d="M74.7874 344.28C75.5543 345.411 77.1874 346.018 78.5658 345.831C79.9442 345.644 81.1592 344.739 81.8058 343.556C82.4524 342.373 82.7341 340.971 82.3874 339.666C82.0857 338.529 80.9013 337.269 79.54 337.06" stroke="#E9E6DB" stroke-width="0.488917" stroke-miterlimit="10"/>
<path d="M91.8699 306.125C91.5479 303.767 92.9649 301.309 95.1234 300.306C97.2809 299.303 100.005 299.765 101.788 301.34" stroke="#E9E6DB" stroke-width="0.488917" stroke-miterlimit="10"/>
<path d="M111.156 332.504C111.404 331.452 111.477 330.342 111.228 329.29C110.979 328.237 110.385 327.245 109.49 326.638" stroke="#E9E6DB" stroke-width="0.488917" stroke-miterlimit="10"/>
<path d="M109.033 317.226C110.053 316.312 110.235 314.606 109.43 313.498" stroke="#E9E6DB" stroke-width="0.488917" stroke-miterlimit="10"/>
<path d="M95.5027 293.269C100.558 291.978 106.326 293.445 111.073 299.137" stroke="#E9E6DB" stroke-width="0.488917" stroke-miterlimit="10"/>
<path d="M84.1655 291.953C84.2409 291.22 84.0236 290.462 83.5718 289.88C83.1199 289.298 82.4389 288.9 81.7098 288.792" stroke="#E9E6DB" stroke-width="0.488917" stroke-miterlimit="10"/>
<path d="M85.1637 346.422C86.9093 343.937 87.4128 340.623 86.4832 337.732C85.5536 334.841 83.2139 332.441 80.3469 331.439C80.9561 329.753 81.2634 327.753 80.6211 326.079C79.9799 324.405 78.2465 322.985 76.4679 322.764" stroke="#E9E6DB" stroke-width="0.488917" stroke-miterlimit="10"/>
<path d="M104.023 353.104C105.982 350.275 107.324 346.96 107.496 343.523C107.668 340.087 106.599 336.534 104.27 334.001" stroke="#E9E6DB" stroke-width="0.488917" stroke-miterlimit="10"/>
<path d="M89.153 291.343C86.6107 292.333 84.0589 294.792 83.1604 297.288" stroke="#E9E6DB" stroke-width="0.488917" stroke-miterlimit="10"/>
<path d="M92.7289 334.388C92.9885 332.705 92.6295 330.991 91.518 329.81C90.9353 329.192 90.1356 328.741 89.1581 328.397" stroke="#E9E6DB" stroke-width="0.488917" stroke-miterlimit="10"/>
<path d="M77.5183 314.61C79.5807 313.959 81.9624 314.436 83.616 315.83" stroke="#E9E6DB" stroke-width="0.488917" stroke-miterlimit="10"/>
<path d="M106.968 353.56C108.215 352.283 109.111 350.667 109.535 348.934" stroke="#E9E6DB" stroke-width="0.488917" stroke-miterlimit="10"/>
<path d="M111.286 354.415C113.325 352.683 115.266 350.061 116.06 347.508C116.643 345.635 117.012 343.677 116.931 341.717C116.849 339.756 116.299 337.789 115.17 336.184" stroke="#E9E6DB" stroke-width="0.488917" stroke-miterlimit="10"/>
<path d="M114.895 354.971C118.436 351.278 120.573 346.134 120.155 341.035C119.737 335.935 116.574 331.024 111.88 328.987C113.561 327.302 114.478 323.751 114.21 321.386C113.943 319.02 112.553 316.807 110.538 315.539C114.413 309.601 113.357 300.116 108.238 295.208C103.12 290.3 95.0278 289.101 88.3957 291.612C88.5201 290.805 88.6208 289.121 88.0054 287.9C86.844 285.592 84.7498 284.693 82.1395 284.64L72.3073 348.406L114.894 354.972L114.895 354.971Z" stroke="#F88C73" stroke-width="0.611146" stroke-miterlimit="10"/>
</g>
<mask id="mask3_141_37602" style="mask-type:luminance" maskUnits="userSpaceOnUse" x="72" y="43" width="226" height="334">
<path d="M72.5368 346.807L117.654 54.2004C118.681 47.5422 124.911 42.9767 131.569 44.0034L287.58 68.0589C294.238 69.0856 298.804 75.3158 297.778 81.974L252.66 374.58C252.515 375.524 251.632 376.171 250.688 376.025L73.9809 348.779C73.0374 348.633 72.3913 347.75 72.5368 346.807Z" fill="white"/>
</mask>
<g mask="url(#mask3_141_37602)">
<path d="M193.698 52.9487C190.524 58.4829 183.685 61.4964 177.575 61.2526C171.464 61.0088 165.934 57.5419 162.182 52.7138C160.142 54.6502 156.86 55.1058 154.436 53.678C151.437 58.789 146.363 62.6409 140.633 64.1546C134.904 65.6684 127.865 64.583 122.522 61.3663C122.214 59.9876 123.622 58.969 124.176 57.6704C125.18 55.3164 124.493 54.0423 124.765 51.4969C125.037 48.9526 120.876 43.8853 119.458 41.755L193.698 52.9487Z" fill="#F88C73" stroke="#31344E" stroke-width="0.611146" stroke-miterlimit="10"/>
<path d="M132.214 61.8158C137.222 62.6859 142.821 61.3851 146.241 57.9423" stroke="#E9E6DB" stroke-width="0.488917" stroke-miterlimit="10"/>
<path d="M149.635 53.9015C149.305 54.7811 148.724 55.5662 147.979 56.139" stroke="#E9E6DB" stroke-width="0.488917" stroke-miterlimit="10"/>
<path d="M168.51 49.2771C169.751 51.6871 171.68 53.7833 174.112 54.9781C176.544 56.173 179.489 56.4036 181.987 55.3543" stroke="#E9E6DB" stroke-width="0.488917" stroke-miterlimit="10"/>
<path d="M190.38 52.6901C188.087 56.3218 183.757 58.5682 179.467 58.3505" stroke="#E9E6DB" stroke-width="0.488917" stroke-miterlimit="10"/>
<path d="M125.862 55.9535C126.492 56.7168 127.369 57.2464 128.292 57.6037C129.216 57.961 130.191 58.1597 131.161 58.3555" stroke="#E9E6DB" stroke-width="0.488917" stroke-miterlimit="10"/>
<path d="M124.064 59.3907C124.85 60.1609 125.859 60.7012 126.936 60.9296" stroke="#E9E6DB" stroke-width="0.488917" stroke-miterlimit="10"/>
<path d="M136.017 50.8174C136.931 50.1364 137.176 48.759 136.678 47.7334C136.179 46.7078 135.056 46.0629 133.919 45.9896C132.331 45.8877 130.749 46.8622 130.057 48.2942C129.366 49.7263 129.565 51.5267 130.492 52.8193C131.016 53.5513 131.744 54.1202 132.528 54.5644C133.939 55.3644 135.581 55.7842 137.198 55.6467C138.815 55.5092 140.394 54.7921 141.484 53.589C142.93 54.3031 144.76 54.0878 146.163 53.2898C147.566 52.4917 148.611 51.1723 149.354 49.7407C150.499 50.333 151.892 50.3415 153.132 49.9879C154.372 49.6343 155.465 48.794 156.125 47.6869" stroke="#E9E6DB" stroke-width="0.488917" stroke-miterlimit="10"/>
<path d="M132.57 48.726C131.916 49.1356 131.618 50.0329 131.896 50.7527C132.174 51.4725 132.997 51.9358 133.758 51.7995" stroke="#E9E6DB" stroke-width="0.488917" stroke-miterlimit="10"/>
<path d="M137.114 44.5642C138.119 45.2179 138.867 46.2562 139.172 47.4163C139.476 48.5763 139.331 49.8488 138.775 50.9106" stroke="#E9E6DB" stroke-width="0.488917" stroke-miterlimit="10"/>
<path d="M140.603 45.2225C141.695 46.2558 142.214 47.8584 141.935 49.3358" stroke="#E9E6DB" stroke-width="0.488917" stroke-miterlimit="10"/>
<path d="M118.972 43.5305C123.158 44.2007 126.719 47.3263 128.505 51.1701C130.291 55.0139 130.45 59.4739 129.582 63.6228C132.763 64.5593 135.287 67.6079 135.793 70.8846C136.3 74.1615 135.252 77.5372 133.484 80.3419C136.699 84.536 137.415 90.1543 136.574 95.3723C135.718 100.683 133.278 105.838 129.226 109.376C125.175 112.913 119.432 114.65 114.223 113.312C114.027 115.429 113.226 117.343 111.992 119.075C110.758 120.807 108.732 122.324 106.681 122.885L118.972 43.5305Z" fill="#31344E" stroke="#F88C73" stroke-width="0.611146" stroke-miterlimit="10"/>
<path d="M133.355 80.4265C133.483 80.385 133.432 80.1923 133.355 80.0815C131.354 77.2168 127.94 75.3925 124.446 75.3243" stroke="#E9E6DB" stroke-width="0.488917" stroke-miterlimit="10"/>
<path d="M122.813 84.1811C120.542 84.5948 118.56 86.3297 117.851 88.5272C117.141 90.7247 117.732 93.2904 119.333 94.9556C120.321 95.9836 121.712 96.6784 123.136 96.6142C124.559 96.5501 125.967 95.6304 126.398 94.272C126.829 92.9137 126.077 91.2291 124.711 90.8207" stroke="#E9E6DB" stroke-width="0.488917" stroke-miterlimit="10"/>
<path d="M132.539 84.4298C134.411 88.795 134.277 93.9738 132.184 98.237" stroke="#E9E6DB" stroke-width="0.488917" stroke-miterlimit="10"/>
<path d="M129.444 103.45C126.629 107.864 120.993 110.282 115.853 109.28" stroke="#E9E6DB" stroke-width="0.488917" stroke-miterlimit="10"/>
<path d="M127.682 62.3422C128.921 63.0974 129.679 64.5778 129.566 66.0248" stroke="#E9E6DB" stroke-width="0.488917" stroke-miterlimit="10"/>
<path d="M118.605 45.9153C120.935 46.4357 123.087 47.7281 124.64 49.5417C126.193 51.3554 127.142 53.6785 127.299 56.0602" stroke="#E9E6DB" stroke-width="0.488917" stroke-miterlimit="10"/>
<path d="M132.293 72.4996C132.346 72.5604 132.35 72.6482 132.351 72.7288C132.363 74.395 131.829 76.0621 130.853 77.4126" stroke="#E9E6DB" stroke-width="0.488917" stroke-miterlimit="10"/>
<path d="M116.278 60.6652C117.486 61.3607 118.351 62.5642 118.826 63.8741C119.3 65.1852 119.412 66.6024 119.366 67.9965C119.298 70.0759 118.926 71.8494 118.013 73.7191C117.101 75.5888 115.486 77.3147 113.751 77.78" stroke="#E9E6DB" stroke-width="0.488917" stroke-miterlimit="10"/>
<path d="M112.859 95.0409C113.25 97.3071 114.511 99.4108 116.322 100.826C118.134 102.241 120.481 102.953 122.774 102.784" stroke="#E9E6DB" stroke-width="0.488917" stroke-miterlimit="10"/>
<path d="M120.26 92.8744C119.359 91.3397 119.505 89.2573 120.611 87.8623C121.716 86.4683 123.712 85.853 125.411 86.3815C127.11 86.9099 128.403 88.5492 128.524 90.3245" stroke="#E9E6DB" stroke-width="0.488917" stroke-miterlimit="10"/>
<path d="M113.268 102.802C114.005 103.868 115.033 104.731 116.209 105.273" stroke="#E9E6DB" stroke-width="0.488917" stroke-miterlimit="10"/>
<path d="M117.519 53.8871C119.554 54.7295 121.037 56.774 121.203 58.9701" stroke="#E9E6DB" stroke-width="0.488917" stroke-miterlimit="10"/>
</g>
<mask id="mask4_141_37602" style="mask-type:luminance" maskUnits="userSpaceOnUse" x="72" y="43" width="226" height="334">
<path d="M72.5368 346.807L117.654 54.2004C118.681 47.5422 124.911 42.9767 131.569 44.0034L287.58 68.0589C294.238 69.0856 298.804 75.3158 297.778 81.974L252.66 374.58C252.515 375.524 251.632 376.171 250.688 376.025L73.9809 348.779C73.0374 348.633 72.3913 347.75 72.5368 346.807Z" fill="white"/>
</mask>
<g mask="url(#mask4_141_37602)">
<path d="M264.055 304.226C257.976 305.552 253.165 311.027 251.597 316.781C250.028 322.535 251.628 328.696 255.015 333.604C252.615 334.932 251.228 337.851 251.843 340.524C246.209 341.811 241.137 345.399 238.047 350.282C234.956 355.165 233.897 362.031 235.319 367.944C236.51 368.635 237.872 367.625 239.242 367.491C241.726 367.249 243.224 369.127 244.935 370.944C247.13 373.274 250.386 377.559 252.372 378.398L264.055 304.226Z" fill="#F88C73" stroke="#31344E" stroke-width="0.611146" stroke-miterlimit="10"/>
<path d="M237.746 358.798C238.408 353.885 241.262 349.061 245.469 346.892" stroke="#E9E6DB" stroke-width="0.488917" stroke-miterlimit="10"/>
<path d="M250.222 344.923C249.307 344.971 248.407 345.28 247.655 345.805" stroke="#E9E6DB" stroke-width="0.488917" stroke-miterlimit="10"/>
<path d="M260.066 328.729C258.189 326.869 256.807 324.458 256.411 321.846C256.014 319.233 256.665 316.427 258.374 314.412" stroke="#E9E6DB" stroke-width="0.488917" stroke-miterlimit="10"/>
<path d="M263.32 307.389C259.268 308.454 255.908 311.821 254.85 315.874" stroke="#E9E6DB" stroke-width="0.488917" stroke-miterlimit="10"/>
<path d="M242.39 365.156C241.746 364.437 241.363 363.514 241.153 362.571C240.943 361.629 240.895 360.66 240.847 359.695" stroke="#E9E6DB" stroke-width="0.488917" stroke-miterlimit="10"/>
<path d="M237.606 367.088C237.121 366.13 236.915 365.033 237.019 363.965" stroke="#E9E6DB" stroke-width="0.488917" stroke-miterlimit="10"/>
<path d="M249.09 358.493C249.992 357.843 251.346 358.02 252.153 358.785C252.96 359.55 253.231 360.783 252.964 361.863C252.593 363.369 251.221 364.554 249.687 364.777C248.152 364.999 246.536 364.284 245.606 363.043C245.079 362.339 244.763 361.497 244.581 360.638C244.251 359.09 244.343 357.44 244.947 355.977C245.551 354.515 246.681 353.257 248.119 352.597C247.88 351.042 248.618 349.403 249.772 348.334C250.925 347.264 252.459 346.679 254.01 346.409C253.796 345.17 254.197 343.873 254.889 342.823C255.582 341.775 256.685 341.005 257.908 340.716" stroke="#E9E6DB" stroke-width="0.488917" stroke-miterlimit="10"/>
<path d="M250.025 362.312C249.452 362.799 248.53 362.814 247.942 362.343C247.355 361.873 247.165 360.97 247.515 360.304" stroke="#E9E6DB" stroke-width="0.488917" stroke-miterlimit="10"/>
<path d="M255.229 359.308C254.916 358.181 254.171 357.18 253.181 356.557C252.19 355.933 250.966 355.694 249.815 355.899" stroke="#E9E6DB" stroke-width="0.488917" stroke-miterlimit="10"/>
<path d="M255.644 355.871C255.004 354.553 253.666 353.6 252.211 353.424" stroke="#E9E6DB" stroke-width="0.488917" stroke-miterlimit="10"/>
<path d="M250.859 376.481C251.466 372.392 249.605 368.163 246.555 365.372C243.505 362.581 239.404 361.124 235.29 360.713C235.354 357.48 233.261 354.237 230.363 352.804C227.465 351.37 224.017 351.352 220.889 352.173C217.934 347.952 212.919 345.635 207.82 344.885C202.631 344.121 197.12 344.875 192.64 347.605C188.16 350.333 184.859 355.163 184.572 360.401C182.546 359.962 180.531 360.145 178.557 360.783C176.584 361.422 174.577 362.86 173.453 364.603L250.859 376.481Z" fill="#31344E" stroke="#F88C73" stroke-width="0.611146" stroke-miterlimit="10"/>
<path d="M220.773 352.266C220.85 352.159 221.014 352.264 221.094 352.369C223.17 355.07 223.864 358.782 222.901 362.05" stroke="#E9E6DB" stroke-width="0.488917" stroke-miterlimit="10"/>
<path d="M214.187 360.966C213.135 362.957 210.94 364.29 208.687 364.304C206.435 364.319 204.223 363.015 203.145 361.038C202.479 359.817 202.242 358.32 202.72 357.015C203.197 355.709 204.466 354.671 205.857 354.669C207.247 354.668 208.592 355.862 208.57 357.252" stroke="#E9E6DB" stroke-width="0.488917" stroke-miterlimit="10"/>
<path d="M216.811 351.849C213.301 348.826 208.446 347.429 203.866 348.123" stroke="#E9E6DB" stroke-width="0.488917" stroke-miterlimit="10"/>
<path d="M198.213 349.141C193.28 350.462 189.376 354.994 188.799 360.067" stroke="#E9E6DB" stroke-width="0.488917" stroke-miterlimit="10"/>
<path d="M235.924 362.856C235.586 361.481 234.432 360.342 233.053 360.022" stroke="#E9E6DB" stroke-width="0.488917" stroke-miterlimit="10"/>
<path d="M248.534 376.123C248.735 373.803 248.164 371.423 246.934 369.445C245.705 367.468 243.823 365.904 241.654 365.057" stroke="#E9E6DB" stroke-width="0.488917" stroke-miterlimit="10"/>
<path d="M227.835 355.583C227.795 355.516 227.713 355.486 227.639 355.462C226.092 354.961 224.386 354.967 222.843 355.479" stroke="#E9E6DB" stroke-width="0.488917" stroke-miterlimit="10"/>
<path d="M234.136 373.951C233.844 372.623 232.98 371.466 231.899 370.639C230.82 369.813 229.535 369.292 228.226 368.925C226.272 368.378 224.513 368.203 222.506 368.502C220.499 368.801 218.42 369.796 217.478 371.273" stroke="#E9E6DB" stroke-width="0.488917" stroke-miterlimit="10"/>
<path d="M201.161 367.035C199.168 366.006 197.581 364.216 196.798 362.115C196.015 360.014 196.042 357.622 196.873 355.54" stroke="#E9E6DB" stroke-width="0.488917" stroke-miterlimit="10"/>
<path d="M205.35 360.79C206.513 362.079 208.492 362.555 210.114 361.936C211.735 361.317 212.894 359.642 212.901 357.907C212.909 356.172 211.764 354.486 210.148 353.854" stroke="#E9E6DB" stroke-width="0.488917" stroke-miterlimit="10"/>
<path d="M194.065 364.371C193.29 363.372 192.79 362.164 192.632 360.909" stroke="#E9E6DB" stroke-width="0.488917" stroke-miterlimit="10"/>
<path d="M240.801 374.79C240.615 372.65 239.149 370.671 237.156 369.87" stroke="#E9E6DB" stroke-width="0.488917" stroke-miterlimit="10"/>
</g>
<mask id="mask5_141_37602" style="mask-type:luminance" maskUnits="userSpaceOnUse" x="72" y="43" width="226" height="334">
<path d="M72.5368 346.807L117.654 54.2004C118.681 47.5422 124.911 42.9767 131.569 44.0034L287.58 68.0589C294.238 69.0856 298.804 75.3158 297.778 81.974L252.66 374.58C252.515 375.524 251.632 376.171 250.688 376.025L73.9809 348.779C73.0374 348.633 72.3913 347.75 72.5368 346.807Z" fill="white"/>
</mask>
<g mask="url(#mask5_141_37602)">
<path d="M174.1 286.913C214.499 293.142 252.299 265.443 258.528 225.044C264.757 184.645 237.057 146.846 196.658 140.616C156.259 134.387 118.46 162.087 112.231 202.486C106.002 242.885 133.702 280.684 174.1 286.913Z" fill="#31344E" stroke="#F88C73" stroke-width="0.916665" stroke-miterlimit="10"/>
<path d="M176.364 272.225C208.65 277.203 238.86 255.065 243.838 222.779C248.816 190.492 226.679 160.283 194.392 155.305C162.105 150.326 131.896 172.464 126.918 204.751C121.939 237.037 144.077 267.246 176.364 272.225Z" stroke="#E9E6DB" stroke-width="0.30552" stroke-miterlimit="10"/>
<path d="M192.402 168.222C167.25 164.344 143.715 181.59 139.837 206.742C135.959 231.894 153.205 255.429 178.357 259.307C203.509 263.185 227.044 245.939 230.922 220.787C234.8 195.635 217.554 172.1 192.402 168.222ZM180.852 243.126C164.636 240.626 153.517 225.454 156.018 209.237C158.518 193.021 173.69 181.902 189.907 184.403C206.123 186.903 217.242 202.075 214.741 218.292C212.241 234.508 197.067 245.627 180.852 243.126Z" fill="#E9E6DB"/>
<path d="M180.938 213.079C180.56 215.532 182.242 217.828 184.695 218.206C187.147 218.584 189.443 216.902 189.821 214.449C190.199 211.996 188.517 209.701 186.064 209.323C183.612 208.944 181.316 210.627 180.938 213.079Z" fill="#E9E6DB"/>
<path d="M183.7 224.653C189.713 225.58 195.339 221.457 196.266 215.444C197.194 209.431 193.071 203.804 187.057 202.877C181.044 201.95 175.418 206.073 174.491 212.086C173.564 218.099 177.687 223.726 183.7 224.653Z" stroke="#E9E6DB" stroke-width="0.916665" stroke-miterlimit="10"/>
<path d="M176.398 280.575C181.012 280.557 184.737 276.802 184.719 272.188C184.701 267.574 180.946 263.848 176.332 263.867C171.718 263.885 167.993 267.64 168.011 272.254C168.029 276.868 171.784 280.593 176.398 280.575Z" fill="#F88C73" stroke="#E9E6DB" stroke-width="0.611146" stroke-miterlimit="10"/>
<path d="M193.119 163.56C197.679 164.263 201.946 161.136 202.649 156.576C203.352 152.016 200.225 147.75 195.665 147.046C191.105 146.343 186.839 149.47 186.136 154.03C185.432 158.59 188.559 162.857 193.119 163.56Z" fill="#E9E6DB" stroke="#E9E6DB" stroke-width="0.611146" stroke-miterlimit="10"/>
<path d="M146.25 165.409C146.866 161.413 150.605 158.673 154.601 159.29C154.959 159.345 155.303 159.433 155.639 159.537C154.535 158.65 153.195 158.027 151.694 157.796C147.133 157.093 142.867 160.219 142.164 164.779C141.461 169.34 144.587 173.606 149.147 174.309C150.648 174.541 152.114 174.351 153.434 173.838C153.082 173.835 152.727 173.816 152.37 173.761C148.373 173.144 145.633 169.406 146.25 165.409Z" fill="#F88C73"/>
<path d="M158.676 167.325C159.148 164.266 157.891 161.344 155.638 159.537C155.301 159.433 154.957 159.345 154.599 159.289C150.604 158.673 146.864 161.414 146.248 165.409C145.632 169.405 148.372 173.144 152.368 173.76C152.726 173.816 153.081 173.835 153.433 173.837C156.125 172.792 158.204 170.385 158.676 167.325Z" fill="#E9E6DB"/>
<path d="M155.638 159.537C154.534 158.65 153.193 158.027 151.692 157.796C147.132 157.093 142.866 160.219 142.163 164.779C141.46 169.34 144.586 173.606 149.146 174.309C150.647 174.541 152.113 174.351 153.433 173.838C156.126 172.793 158.204 170.385 158.676 167.326C159.148 164.266 157.891 161.344 155.638 159.537Z" stroke="#E9E6DB" stroke-width="0.611146" stroke-miterlimit="10"/>
<path d="M237.26 179.443C236.644 183.44 232.906 186.18 228.909 185.563C228.551 185.508 228.207 185.42 227.871 185.316C228.975 186.203 230.315 186.826 231.816 187.057C236.376 187.76 240.643 184.634 241.346 180.073C242.049 175.513 238.923 171.247 234.362 170.544C232.862 170.312 231.396 170.502 230.076 171.015C230.428 171.018 230.782 171.037 231.14 171.092C235.137 171.709 237.876 175.448 237.26 179.443Z" fill="#F88C73"/>
<path d="M224.834 177.527C224.362 180.587 225.619 183.509 227.871 185.316C228.208 185.42 228.552 185.508 228.91 185.563C232.907 186.18 236.645 183.439 237.261 179.444C237.877 175.448 235.138 171.709 231.141 171.092C230.783 171.037 230.429 171.018 230.077 171.015C227.385 172.061 225.305 174.468 224.834 177.527Z" fill="#E9E6DB"/>
<path d="M227.872 185.317C228.976 186.204 230.317 186.826 231.817 187.058C236.378 187.761 240.644 184.634 241.347 180.074C242.05 175.514 238.924 171.247 234.364 170.544C232.863 170.313 231.397 170.503 230.077 171.016C227.384 172.061 225.306 174.468 224.834 177.528C224.362 180.587 225.62 183.509 227.872 185.317Z" stroke="#E9E6DB" stroke-width="0.611146" stroke-miterlimit="10"/>
<path d="M141.84 249.372C141.224 253.367 137.484 256.107 133.489 255.491C133.131 255.436 132.787 255.348 132.45 255.244C133.554 256.131 134.895 256.754 136.396 256.985C140.956 257.688 145.223 254.562 145.926 250.002C146.629 245.441 143.502 241.175 138.942 240.472C137.441 240.24 135.975 240.43 134.655 240.943C135.007 240.946 135.362 240.965 135.72 241.02C139.717 241.637 142.456 245.376 141.84 249.372Z" fill="#E9E6DB"/>
<path d="M129.413 247.455C128.941 250.515 130.198 253.437 132.451 255.244C132.787 255.348 133.132 255.436 133.49 255.492C137.486 256.108 141.225 253.367 141.841 249.372C142.457 245.376 139.716 241.637 135.721 241.021C135.363 240.965 135.008 240.946 134.656 240.943C131.963 241.988 129.885 244.396 129.413 247.455Z" fill="#F88C73"/>
<path d="M142.888 242.212C141.784 241.325 140.444 240.703 138.943 240.471C134.382 239.768 130.116 242.894 129.413 247.455C128.71 252.015 131.836 256.281 136.396 256.984C137.897 257.216 139.363 257.026 140.683 256.513C143.376 255.468 145.455 253.06 145.926 250.001C146.398 246.942 145.141 244.02 142.888 242.212Z" stroke="#E9E6DB" stroke-width="0.611146" stroke-miterlimit="10"/>
<path d="M216.174 260.832C216.79 256.836 220.529 254.096 224.525 254.712C224.883 254.767 225.227 254.856 225.563 254.959C224.459 254.072 223.118 253.45 221.618 253.218C217.057 252.515 212.791 255.642 212.088 260.202C211.385 264.762 214.511 269.028 219.071 269.732C220.572 269.963 222.038 269.773 223.358 269.26C223.006 269.257 222.651 269.238 222.294 269.183C218.298 268.568 215.557 264.828 216.174 260.832Z" fill="#E9E6DB"/>
<path d="M228.6 262.748C229.071 259.688 227.815 256.766 225.562 254.959C225.225 254.855 224.881 254.767 224.523 254.712C220.527 254.095 216.788 256.836 216.172 260.832C215.556 264.827 218.296 268.567 222.292 269.183C222.65 269.238 223.005 269.257 223.357 269.26C226.049 268.215 228.128 265.808 228.6 262.748Z" fill="#F88C73"/>
<path d="M215.125 267.991C216.229 268.878 217.57 269.5 219.071 269.732C223.631 270.435 227.897 267.308 228.601 262.748C229.304 258.188 226.177 253.922 221.617 253.218C220.116 252.987 218.65 253.177 217.33 253.69C214.638 254.735 212.559 257.143 212.087 260.202C211.615 263.261 212.873 266.183 215.125 267.991Z" stroke="#E9E6DB" stroke-width="0.611146" stroke-miterlimit="10"/>
<path d="M118.664 203.477C117.96 208.037 121.087 212.304 125.647 213.007L128.193 196.494C123.634 195.791 119.367 198.917 118.664 203.477Z" fill="#F88C73"/>
<path d="M128.192 196.493L125.646 213.006C130.206 213.71 134.473 210.583 135.176 206.023C135.879 201.463 132.752 197.196 128.192 196.493Z" fill="#E9E6DB"/>
<path d="M132.139 198.235C131.035 197.348 129.694 196.725 128.193 196.494C123.633 195.791 119.367 198.917 118.664 203.477C117.96 208.038 121.087 212.304 125.647 213.007C127.148 213.239 128.614 213.049 129.934 212.536C132.627 211.491 134.705 209.083 135.177 206.024C135.649 202.964 134.392 200.042 132.139 198.235Z" stroke="#E9E6DB" stroke-width="0.611146" stroke-miterlimit="10"/>
<path d="M252.093 224.052C252.796 219.492 249.669 215.225 245.109 214.522L242.563 231.035C247.123 231.739 251.39 228.612 252.093 224.052Z" fill="#F88C73"/>
<path d="M242.564 231.036L245.11 214.523C240.55 213.819 236.284 216.946 235.581 221.506C234.877 226.066 238.004 230.333 242.564 231.036Z" fill="#E9E6DB"/>
<path d="M249.058 216.263C247.954 215.376 246.613 214.754 245.112 214.522C240.552 213.819 236.286 216.946 235.582 221.506C234.879 226.066 238.006 230.333 242.566 231.036C244.067 231.267 245.533 231.077 246.853 230.564C249.545 229.519 251.624 227.112 252.096 224.052C252.567 220.993 251.311 218.071 249.058 216.263Z" stroke="#E9E6DB" stroke-width="0.611146" stroke-miterlimit="10"/>
<path d="M152.259 211.867L143.442 210.508L149.001 203.726L152.259 211.867Z" stroke="#F88C73" stroke-width="0.611146" stroke-miterlimit="10"/>
<path d="M218.706 215.083L227.523 216.443L221.963 223.224L218.706 215.083Z" stroke="#F88C73" stroke-width="0.611146" stroke-miterlimit="10"/>
<path d="M194.991 180.702L186.174 179.343L191.733 172.561L194.991 180.702Z" stroke="#F88C73" stroke-width="0.611146" stroke-miterlimit="10"/>
<path d="M185.964 174.853L196.54 176.484" stroke="#F88C73" stroke-width="0.611146" stroke-miterlimit="10"/>
<path d="M175.804 246.833L184.62 248.192L179.062 254.973L175.804 246.833Z" stroke="#F88C73" stroke-width="0.611146" stroke-miterlimit="10"/>
<path d="M174.317 250.421L184.893 252.052" stroke="#F88C73" stroke-width="0.611146" stroke-miterlimit="10"/>
<path d="M189.905 184.402L180.85 243.126" stroke="#E9E6DB" stroke-width="0.30552" stroke-miterlimit="10"/>
<path d="M214.739 218.292L156.015 209.237" stroke="#E9E6DB" stroke-width="0.30552" stroke-miterlimit="10"/>
<path d="M170.162 193L200.594 234.528" stroke="#E9E6DB" stroke-width="0.30552" stroke-miterlimit="10"/>
<path d="M206.142 198.548L164.614 228.98" stroke="#E9E6DB" stroke-width="0.30552" stroke-miterlimit="10"/>
<path d="M167.801 194.722L172.51 191.271" stroke="#E9E6DB" stroke-width="0.30552" stroke-miterlimit="10"/>
<path d="M198.127 236.102L202.835 232.651" stroke="#E9E6DB" stroke-width="0.30552" stroke-miterlimit="10"/>
<path d="M204.283 196.17L207.734 200.878" stroke="#E9E6DB" stroke-width="0.30552" stroke-miterlimit="10"/>
<path d="M162.903 226.494L166.354 231.202" stroke="#E9E6DB" stroke-width="0.30552" stroke-miterlimit="10"/>
<path d="M166.011 210.778C166.257 209.185 165.164 207.693 163.571 207.448C161.978 207.202 160.487 208.295 160.241 209.888C159.995 211.481 161.088 212.972 162.681 213.218C164.276 213.463 165.766 212.371 166.011 210.778Z" stroke="#E9E6DB" stroke-width="0.611146" stroke-miterlimit="10"/>
<path d="M191.411 194.01C191.656 192.417 190.564 190.925 188.971 190.68C187.377 190.434 185.886 191.527 185.64 193.12C185.395 194.713 186.488 196.204 188.081 196.45C189.674 196.696 191.165 195.603 191.411 194.01Z" stroke="#E9E6DB" stroke-width="0.611146" stroke-miterlimit="10"/>
<path d="M186.589 186.959C186.344 188.552 187.436 190.044 189.03 190.289C190.623 190.535 192.114 189.442 192.36 187.849" stroke="#E9E6DB" stroke-width="0.611146" stroke-miterlimit="10"/>
<path d="M184.943 197.646L190.714 198.535" stroke="#E9E6DB" stroke-width="0.611146" stroke-miterlimit="10"/>
<path d="M206.023 219.9L206.913 214.13L211.352 217.768L206.023 219.9Z" stroke="#E9E6DB" stroke-width="0.611146" stroke-miterlimit="10"/>
<path d="M205.309 213.45L204.289 220.065" stroke="#E9E6DB" stroke-width="0.611146" stroke-miterlimit="10"/>
<path d="M188.205 236.023C187.339 235.89 187.221 236.654 186.355 236.52C185.488 236.387 185.606 235.623 184.739 235.489C183.871 235.355 183.753 236.119 182.885 235.985C182.018 235.852 182.136 235.088 181.269 234.954C180.4 234.82 180.283 235.584 179.413 235.45C178.543 235.316 178.661 234.552 177.79 234.418C176.919 234.283 176.802 235.047 175.931 234.913" stroke="#E9E6DB" stroke-width="0.611146" stroke-miterlimit="10"/>
<path d="M187.831 238.451C186.965 238.318 186.847 239.082 185.981 238.948C185.115 238.815 185.232 238.051 184.365 237.917C183.497 237.783 183.38 238.547 182.512 238.413C181.645 238.28 181.763 237.516 180.896 237.382C180.027 237.248 179.909 238.012 179.04 237.878C178.17 237.744 178.288 236.98 177.416 236.845C176.545 236.711 176.429 237.475 175.557 237.341" stroke="#E9E6DB" stroke-width="0.611146" stroke-miterlimit="10"/>
<path d="M157.119 238.856L159.715 240.94C158.675 242.235 158.881 244.128 160.177 245.168C161.473 246.208 163.365 246.002 164.406 244.706L167.001 246.79" stroke="#F88C73" stroke-width="0.611146" stroke-miterlimit="10"/>
<path d="M168.161 245.347L158.279 237.411" stroke="#F88C73" stroke-width="0.611146" stroke-miterlimit="10"/>
<path d="M149.69 222.614L154.729 225.66L153.069 231.31" stroke="#F88C73" stroke-width="0.611146" stroke-miterlimit="10"/>
<path d="M154.729 225.66L145.487 229.252" stroke="#F88C73" stroke-width="0.611146" stroke-miterlimit="10"/>
<path d="M149.372 230.607L147.438 225.627" stroke="#F88C73" stroke-width="0.611146" stroke-miterlimit="10"/>
<path d="M215.065 186.505C215.895 185.472 215.73 183.96 214.697 183.13C214.005 182.575 213.097 182.465 212.325 182.764C212.325 182.764 210.065 183.432 206.053 188.07C209.716 183.15 209.88 180.8 209.88 180.8C210.006 179.981 209.702 179.12 209.01 178.563C207.976 177.733 206.465 177.897 205.635 178.931" stroke="#F88C73" stroke-width="0.611146" stroke-miterlimit="10"/>
<path d="M223.569 192.652C222.681 194.555 222.537 196.801 223.357 198.915C224.178 201.027 225.802 202.586 227.742 203.391" stroke="#F88C73" stroke-width="0.611146" stroke-miterlimit="10"/>
<path d="M217.647 207.314C218.535 205.411 218.68 203.165 217.859 201.051C217.039 198.939 215.415 197.38 213.475 196.575" stroke="#F88C73" stroke-width="0.611146" stroke-miterlimit="10"/>
<path d="M222.749 196.125L216.454 198.572" stroke="#F88C73" stroke-width="0.611146" stroke-miterlimit="10"/>
<path d="M224.791 201.383L218.494 203.83" stroke="#F88C73" stroke-width="0.611146" stroke-miterlimit="10"/>
<path d="M173.828 171.474C172.919 173.367 172.747 175.612 173.542 177.733C174.338 179.855 175.943 181.433 177.874 182.26" stroke="#F88C73" stroke-width="0.611146" stroke-miterlimit="10"/>
<path d="M169.558 185.38C170.468 183.486 170.64 181.242 169.844 179.12C169.049 176.998 167.444 175.42 165.513 174.592" stroke="#F88C73" stroke-width="0.611146" stroke-miterlimit="10"/>
<path d="M175.994 176.815L167.4 180.039" stroke="#F88C73" stroke-width="0.611146" stroke-miterlimit="10"/>
<path d="M212.968 235.724C213.771 236.369 214.944 236.24 215.588 235.438C216.233 234.635 216.105 233.462 215.302 232.817C214.5 232.172 213.326 232.301 212.681 233.104C212.036 233.906 212.165 235.079 212.968 235.724Z" stroke="#F88C73" stroke-width="0.611146" stroke-miterlimit="10"/>
<path d="M215.301 232.817C215.301 232.817 219.016 235.055 219.002 238.821" stroke="#F88C73" stroke-width="0.611146" stroke-miterlimit="10"/>
<path d="M216.467 239.006C215.665 238.361 214.491 238.49 213.846 239.292C213.201 240.095 213.33 241.268 214.133 241.913C214.936 242.558 216.109 242.429 216.754 241.626C217.397 240.825 217.269 239.651 216.467 239.006Z" stroke="#F88C73" stroke-width="0.611146" stroke-miterlimit="10"/>
<path d="M214.132 241.913C214.132 241.913 210.415 239.676 210.431 235.91" stroke="#F88C73" stroke-width="0.611146" stroke-miterlimit="10"/>
<path d="M157.222 194.447L152.275 190.473C151.324 189.71 151.137 188.365 151.857 187.469C152.576 186.573 153.929 186.466 154.88 187.229C155.96 188.096 157.029 189.053 158.113 189.916C159.027 190.643 160.061 191.41 161.226 191.329C162.012 191.275 162.755 190.801 163.134 190.112C163.387 189.653 163.477 189.077 163.25 188.605C163.024 188.133 162.427 187.833 161.945 188.038C161.721 188.134 161.548 188.319 161.399 188.511C160.573 189.576 160.31 190.955 159.866 192.227C159.349 193.708 158.558 195.093 157.546 196.292" stroke="#F88C73" stroke-width="0.611146" stroke-miterlimit="10"/>
<path d="M152.278 190.473C152.278 190.473 150.619 189.477 149.453 190.466" stroke="#F88C73" stroke-width="0.611146" stroke-miterlimit="10"/>
<path d="M202.3 242.71L205.221 248.76C205.782 249.922 205.462 251.239 204.506 251.701C203.55 252.162 202.321 251.594 201.759 250.431C201.122 249.11 199.539 245.671 198.897 244.352" stroke="#F88C73" stroke-width="0.611146" stroke-miterlimit="10"/>
<path d="M198.839 244.38L201.761 250.432C202.322 251.594 202.002 252.911 201.046 253.372C200.091 253.834 198.861 253.265 198.3 252.103C197.662 250.782 195.744 246.649 195.102 245.329" stroke="#F88C73" stroke-width="0.611146" stroke-miterlimit="10"/>
<path d="M205.219 248.761C205.219 248.761 206.319 250.484 207.702 250.158" stroke="#F88C73" stroke-width="0.611146" stroke-miterlimit="10"/>
<path d="M197.929 251.344C197.929 251.344 198.666 253.243 197.963 253.923C197.752 254.128 197.338 254.142 197.088 253.988C196.838 253.833 196.669 253.577 196.526 253.319C195.649 251.73 195.521 249.802 195.896 248.025C196.271 246.249 197.113 244.605 198.084 243.072" stroke="#F88C73" stroke-width="0.611146" stroke-miterlimit="10"/>
<path d="M200.642 114.203L200.69 120.35L204.507 118.772L201.852 121.937L207.7 123.833L201.552 123.882L203.13 127.699L199.966 125.044L198.068 130.892L198.021 124.744L194.204 126.322L196.858 123.158L191.011 121.26L197.158 121.213L195.58 117.396L198.745 120.05L200.642 114.203Z" fill="#F88C73" stroke="#31344E" stroke-width="0.30552" stroke-miterlimit="10"/>
<path d="M172.516 296.611L172.564 302.758L176.381 301.18L173.726 304.345L179.574 306.241L173.426 306.288L175.005 310.106L171.84 307.451L169.943 313.299L169.895 307.152L166.078 308.729L168.733 305.565L162.885 303.668L169.032 303.621L167.455 299.804L170.619 302.458L172.516 296.611Z" fill="#31344E" stroke="#F88C73" stroke-width="0.30552" stroke-miterlimit="10"/>
</g>
<mask id="mask6_141_37602" style="mask-type:luminance" maskUnits="userSpaceOnUse" x="75" y="43" width="213" height="314">
<path d="M75.2783 329.037L117.764 53.4972C118.731 47.2273 124.598 42.9282 130.868 43.8949L277.779 66.5474C284.048 67.5142 288.349 73.381 287.382 79.6509L244.896 355.191C244.759 356.079 243.927 356.689 243.039 356.552L76.6382 330.894C75.7497 330.757 75.1413 329.925 75.2783 329.037Z" fill="white"/>
</mask>
<g mask="url(#mask6_141_37602)">
<path d="M175.421 107.047L175.419 108.764L176.432 108.345L175.728 109.185L177.366 109.701L175.649 109.7L176.067 110.714L175.227 110.009L174.711 111.647L174.712 109.93L173.698 110.348L174.403 109.508L172.765 108.992L174.482 108.993L174.064 107.98L174.904 108.684L175.421 107.047Z" fill="#F88C73"/>
<path d="M181.684 89.9705L181.683 91.6873L182.696 91.2687L181.992 92.1078L183.629 92.6246L181.912 92.6241L182.331 93.6375L181.491 92.9331L180.975 94.5706L180.975 92.8536L179.962 93.2722L180.667 92.432L179.029 91.9153L180.746 91.9157L180.327 90.9034L181.168 91.6078L181.684 89.9705Z" fill="#F88C73"/>
<path d="M154.274 97.4399L154.274 99.1569L155.286 98.7381L154.582 99.5783L156.22 100.095L154.502 100.094L154.921 101.107L154.082 100.403L153.565 102.04L153.565 100.323L152.553 100.742L153.257 99.9017L151.619 99.3858L153.337 99.3864L152.918 98.373L153.757 99.0773L154.274 97.4399Z" fill="#F88C73"/>
<path d="M155.161 76.4049L155.161 78.1218L156.174 77.7032L155.47 78.5423L157.107 79.0591L155.39 79.0587L155.809 80.072L154.969 79.3676L154.452 81.005L154.454 79.2882L153.44 79.7068L154.145 78.8666L152.507 78.3498L154.224 78.3502L153.805 77.338L154.646 78.0424L155.161 76.4049Z" fill="#F88C73"/>
<path d="M219.828 133.731L219.827 135.448L220.84 135.029L220.136 135.869L221.773 136.386L220.056 136.386L220.475 137.398L219.635 136.694L219.119 138.331L219.119 136.614L218.106 137.033L218.81 136.194L217.173 135.677L218.89 135.677L218.471 134.664L219.312 135.368L219.828 133.731Z" fill="#F88C73"/>
<path d="M240.626 119.856L240.625 121.573L241.638 121.154L240.933 121.995L242.571 122.511L240.854 122.51L241.272 123.523L240.433 122.819L239.916 124.456L239.917 122.739L238.904 123.158L239.608 122.318L237.97 121.802L239.687 121.802L239.269 120.789L240.109 121.494L240.626 119.856Z" fill="#F88C73"/>
<path d="M245.616 152.394L245.616 154.111L246.629 153.692L245.925 154.532L247.562 155.048L245.845 155.048L246.264 156.061L245.424 155.357L244.907 156.994L244.908 155.277L243.895 155.696L244.599 154.856L242.962 154.339L244.679 154.34L244.26 153.327L245.1 154.031L245.616 152.394Z" fill="#F88C73"/>
<path d="M238.405 134.241L238.405 135.958L239.417 135.539L238.713 136.379L240.35 136.895L238.633 136.895L239.052 137.908L238.212 137.204L237.696 138.841L237.696 137.124L236.683 137.543L237.387 136.703L235.75 136.186L237.467 136.186L237.048 135.174L237.888 135.879L238.405 134.241Z" fill="#F88C73"/>
<path d="M223.11 112.446L223.109 114.163L224.122 113.744L223.417 114.585L225.055 115.101L223.338 115.1L223.757 116.113L222.916 115.409L222.401 117.046L222.401 115.329L221.388 115.748L222.092 114.908L220.455 114.392L222.172 114.392L221.753 113.379L222.593 114.084L223.11 112.446Z" fill="#F88C73"/>
<path d="M163.963 114.699L163.963 116.416L164.976 115.997L164.271 116.836L165.909 117.353L164.191 117.352L164.611 118.366L163.771 117.661L163.254 119.299L163.254 117.582L162.242 118L162.946 117.16L161.309 116.644L163.026 116.644L162.607 115.632L163.446 116.336L163.963 114.699Z" fill="#F88C73"/>
<path d="M200.376 97.5622L200.376 99.2792L201.389 98.8606L200.684 99.6995L202.322 100.216L200.604 100.216L201.024 101.229L200.184 100.525L199.667 102.162L199.668 100.445L198.655 100.864L199.36 100.024L197.722 99.5072L199.439 99.5076L199.021 98.4953L199.86 99.1996L200.376 97.5622Z" fill="#F88C73"/>
<path d="M209.317 87.8013L209.316 89.5182L210.329 89.0995L209.624 89.9396L211.262 90.4564L209.545 90.4549L209.963 91.4683L209.124 90.764L208.608 92.4014L208.608 90.6844L207.595 91.103L208.3 90.263L206.662 89.7471L208.38 89.7477L207.96 88.7342L208.8 89.4386L209.317 87.8013Z" fill="#F88C73"/>
<path d="M225.052 99.0121L225.051 100.729L226.064 100.31L225.36 101.15L226.997 101.667L225.28 101.666L225.699 102.679L224.859 101.975L224.343 103.612L224.343 101.895L223.33 102.314L224.034 101.474L222.397 100.958L224.114 100.958L223.695 99.945L224.535 100.649L225.052 99.0121Z" fill="#F88C73"/>
<path d="M259.349 137.47L259.349 139.187L260.362 138.769L259.658 139.608L261.295 140.125L259.578 140.124L259.997 141.138L259.157 140.433L258.64 142.071L258.642 140.354L257.628 140.772L258.333 139.932L256.695 139.415L258.412 139.416L257.994 138.404L258.834 139.108L259.349 137.47Z" fill="#F88C73"/>
<path d="M134.527 115.868L134.527 117.585L135.539 117.166L134.835 118.006L136.472 118.523L134.755 118.523L135.174 119.535L134.335 118.831L133.818 120.468L133.818 118.751L132.805 119.17L133.509 118.331L131.872 117.814L133.589 117.814L133.17 116.801L134.01 117.505L134.527 115.868Z" fill="#F88C73"/>
<path d="M133.839 147.732L133.838 149.449L134.852 149.03L134.147 149.871L135.785 150.386L134.068 150.386L134.486 151.399L133.646 150.695L133.129 152.332L133.13 150.615L132.118 151.034L132.822 150.194L131.185 149.677L132.901 149.678L132.483 148.665L133.322 149.369L133.839 147.732Z" fill="#F88C73"/>
<path d="M265.966 155.532L265.965 157.249L266.979 156.83L266.274 157.67L267.912 158.186L266.195 158.186L266.613 159.199L265.773 158.495L265.256 160.132L265.258 158.415L264.245 158.834L264.949 157.994L263.312 157.477L265.028 157.478L264.61 156.465L265.45 157.169L265.966 155.532Z" fill="#F88C73"/>
<path d="M264.328 181.427L264.327 183.144L265.34 182.725L264.635 183.565L266.273 184.081L264.556 184.081L264.974 185.094L264.135 184.39L263.619 186.027L263.619 184.31L262.606 184.729L263.31 183.889L261.673 183.372L263.389 183.373L262.971 182.36L263.811 183.064L264.328 181.427Z" fill="#F88C73"/>
<path d="M145.173 129.069L145.171 130.786L146.185 130.367L145.48 131.207L147.117 131.724L145.4 131.723L145.819 132.736L144.979 132.031L144.463 133.669L144.464 131.952L143.45 132.37L144.155 131.531L142.517 131.015L144.234 131.015L143.816 130.002L144.656 130.706L145.173 129.069Z" fill="#F88C73"/>
<path d="M179.834 127.564L179.833 129.281L180.846 128.862L180.141 129.702L181.779 130.219L180.062 130.218L180.48 131.231L179.641 130.526L179.124 132.164L179.125 130.447L178.112 130.865L178.816 130.026L177.178 129.509L178.895 129.51L178.477 128.497L179.317 129.201L179.834 127.564Z" fill="#F88C73"/>
<path d="M113.955 154.227L113.955 155.944L114.967 155.525L114.263 156.365L115.9 156.882L114.183 156.881L114.602 157.894L113.763 157.189L113.246 158.827L113.246 157.11L112.233 157.528L112.938 156.689L111.3 156.172L113.018 156.173L112.598 155.16L113.439 155.864L113.955 154.227Z" fill="#F88C73"/>
<path d="M109.108 238.12L109.108 239.837L110.12 239.418L109.416 240.258L111.054 240.775L109.336 240.774L109.755 241.787L108.916 241.083L108.399 242.72L108.4 241.003L107.387 241.422L108.092 240.582L106.453 240.066L108.171 240.066L107.753 239.053L108.592 239.757L109.108 238.12Z" fill="#F88C73"/>
<path d="M101.618 222.464L101.616 224.181L102.63 223.762L101.925 224.601L103.563 225.118L101.846 225.117L102.264 226.131L101.424 225.426L100.909 227.064L100.909 225.347L99.8956 225.765L100.6 224.925L98.9627 224.409L100.68 224.409L100.261 223.397L101.101 224.101L101.618 222.464Z" fill="#F88C73"/>
<path d="M246.751 274.001L246.751 275.718L247.764 275.299L247.06 276.139L248.697 276.655L246.98 276.655L247.399 277.668L246.559 276.963L246.042 278.601L246.043 276.883L245.03 277.303L245.734 276.463L244.097 275.946L245.814 275.946L245.395 274.934L246.235 275.639L246.751 274.001Z" fill="#F88C73"/>
<path d="M258.299 260.135L258.299 261.852L259.311 261.433L258.606 262.273L260.245 262.79L258.527 262.79L258.946 263.802L258.106 263.098L257.59 264.735L257.59 263.018L256.578 263.437L257.282 262.598L255.645 262.081L257.362 262.082L256.943 261.068L257.782 261.772L258.299 260.135Z" fill="#F88C73"/>
<path d="M267.27 232.489L267.27 234.207L268.282 233.788L267.578 234.628L269.216 235.145L267.498 235.144L267.917 236.156L267.078 235.452L266.561 237.09L266.561 235.373L265.549 235.791L266.253 234.952L264.616 234.435L266.333 234.436L265.914 233.423L266.753 234.128L267.27 232.489Z" fill="#F88C73"/>
<path d="M104.564 188.072L104.563 189.789L105.577 189.37L104.871 190.21L106.51 190.727L104.792 190.726L105.211 191.739L104.371 191.035L103.854 192.672L103.855 190.955L102.843 191.374L103.547 190.534L101.909 190.018L103.626 190.018L103.208 189.005L104.047 189.709L104.564 188.072Z" fill="#F88C73"/>
<path d="M124.481 138.426L124.48 140.143L125.493 139.724L124.788 140.564L126.427 141.08L124.709 141.079L125.127 142.093L124.288 141.389L123.772 143.026L123.772 141.309L122.76 141.728L123.464 140.888L121.826 140.371L123.544 140.372L123.125 139.359L123.964 140.063L124.481 138.426Z" fill="#F88C73"/>
<path d="M119.161 123.957L119.16 125.674L120.174 125.255L119.468 126.094L121.107 126.611L119.389 126.611L119.808 127.624L118.968 126.92L118.451 128.557L118.452 126.84L117.439 127.259L118.144 126.419L116.507 125.902L118.223 125.902L117.805 124.89L118.644 125.594L119.161 123.957Z" fill="#F88C73"/>
<path d="M261.465 163.291L261.465 165.008L262.477 164.589L261.773 165.429L263.41 165.945L261.693 165.945L262.112 166.958L261.273 166.254L260.756 167.891L260.757 166.174L259.744 166.593L260.449 165.753L258.81 165.236L260.528 165.237L260.11 164.224L260.949 164.928L261.465 163.291Z" fill="#F88C73"/>
<path d="M272.67 197.479L272.67 199.196L273.682 198.777L272.978 199.616L274.616 200.133L272.898 200.133L273.317 201.146L272.478 200.442L271.961 202.079L271.961 200.362L270.949 200.781L271.654 199.941L270.016 199.424L271.733 199.424L271.314 198.412L272.154 199.116L272.67 197.479Z" fill="#F88C73"/>
<path d="M272.67 197.479L272.67 199.196L273.682 198.777L272.978 199.616L274.616 200.133L272.898 200.133L273.317 201.146L272.478 200.442L271.961 202.079L271.961 200.362L270.949 200.781L271.654 199.941L270.016 199.424L271.733 199.424L271.314 198.412L272.154 199.116L272.67 197.479Z" fill="#F88C73"/>
<path d="M176.08 69.3352L176.078 71.052L177.091 70.6334L176.387 71.4736L178.024 71.9904L176.308 71.9889L176.726 73.0022L175.886 72.2978L175.37 73.9353L175.371 72.2183L174.357 72.637L175.062 71.7968L173.424 71.2811L175.141 71.2815L174.723 70.2682L175.563 70.9725L176.08 69.3352Z" fill="#F88C73"/>
<path d="M202.756 320.073L202.756 318.356L201.743 318.774L202.447 317.934L200.81 317.419L202.527 317.419L202.108 316.406L202.948 317.11L203.465 315.473L203.464 317.189L204.477 316.771L203.773 317.611L205.41 318.128L203.693 318.126L204.112 319.14L203.272 318.435L202.756 320.073Z" fill="#F88C73"/>
<path d="M186.827 322.647L186.827 320.93L185.814 321.348L186.518 320.508L184.881 319.992L186.598 319.993L186.179 318.979L187.019 319.684L187.536 318.046L187.536 319.763L188.548 319.345L187.843 320.185L189.481 320.702L187.764 320.7L188.183 321.713L187.343 321.009L186.827 322.647Z" fill="#F88C73"/>
<path d="M237.677 332.842L237.678 331.126L236.665 331.544L237.37 330.704L235.732 330.187L237.449 330.188L237.03 329.175L237.871 329.88L238.386 328.242L238.386 329.959L239.399 329.541L238.695 330.38L240.332 330.897L238.615 330.896L239.034 331.909L238.194 331.205L237.677 332.842Z" fill="#F88C73"/>
<path d="M219.454 343.254L219.454 341.537L218.441 341.956L219.145 341.116L217.508 340.599L219.225 340.6L218.806 339.587L219.646 340.292L220.163 338.654L220.162 340.371L221.175 339.953L220.471 340.792L222.108 341.308L220.391 341.308L220.81 342.321L219.97 341.617L219.454 343.254Z" fill="#F88C73"/>
<path d="M155.58 296.893L155.581 295.176L154.568 295.594L155.273 294.755L153.635 294.238L155.352 294.238L154.934 293.226L155.773 293.93L156.289 292.293L156.289 294.01L157.301 293.591L156.597 294.43L158.234 294.947L156.517 294.947L156.936 295.959L156.097 295.256L155.58 296.893Z" fill="#F88C73"/>
<path d="M133.06 307.665L133.06 305.947L132.048 306.366L132.752 305.527L131.114 305.01L132.832 305.011L132.413 303.998L133.252 304.703L133.769 303.065L133.769 304.782L134.782 304.364L134.077 305.203L135.715 305.719L133.997 305.719L134.417 306.731L133.577 306.027L133.06 307.665Z" fill="#F88C73"/>
<path d="M131.004 278.393L131.005 276.676L129.992 277.095L130.696 276.254L129.059 275.739L130.776 275.739L130.357 274.726L131.197 275.43L131.713 273.793L131.713 275.51L132.726 275.091L132.022 275.931L133.659 276.448L131.942 276.447L132.361 277.46L131.521 276.755L131.004 278.393Z" fill="#F88C73"/>
<path d="M137.928 296.084L137.928 294.367L136.915 294.786L137.619 293.945L135.982 293.429L137.699 293.43L137.28 292.417L138.12 293.121L138.637 291.484L138.636 293.201L139.649 292.782L138.945 293.622L140.582 294.138L138.865 294.138L139.284 295.151L138.444 294.446L137.928 296.084Z" fill="#F88C73"/>
<path d="M147.582 318.228L147.582 316.511L146.57 316.93L147.274 316.09L145.637 315.573L147.354 315.575L146.935 314.561L147.774 315.265L148.291 313.628L148.291 315.345L149.303 314.926L148.599 315.766L150.237 316.282L148.519 316.282L148.938 317.295L148.099 316.591L147.582 318.228Z" fill="#F88C73"/>
<path d="M225.84 317.124L225.841 315.407L224.828 315.826L225.533 314.987L223.895 314.47L225.612 314.47L225.194 313.457L226.032 314.162L226.549 312.524L226.549 314.242L227.561 313.822L226.857 314.662L228.495 315.179L226.777 315.179L227.196 316.191L226.357 315.487L225.84 317.124Z" fill="#F88C73"/>
<path d="M169.842 328.539L169.844 326.822L168.83 327.241L169.535 326.402L167.897 325.885L169.614 325.885L169.196 324.872L170.036 325.577L170.551 323.939L170.551 325.656L171.564 325.237L170.86 326.078L172.497 326.594L170.78 326.594L171.199 327.606L170.359 326.902L169.842 328.539Z" fill="#F88C73"/>
<path d="M163.554 341.546L163.554 339.829L162.542 340.248L163.246 339.409L161.609 338.892L163.326 338.892L162.907 337.879L163.746 338.583L164.263 336.946L164.262 338.663L165.276 338.244L164.571 339.084L166.209 339.601L164.492 339.601L164.911 340.613L164.07 339.909L163.554 341.546Z" fill="#F88C73"/>
<path d="M147.428 334.502L147.428 332.785L146.415 333.204L147.119 332.365L145.482 331.848L147.199 331.848L146.78 330.836L147.62 331.541L148.137 329.902L148.136 331.62L149.149 331.201L148.445 332.041L150.082 332.557L148.365 332.557L148.784 333.569L147.944 332.865L147.428 334.502Z" fill="#F88C73"/>
<path d="M120.159 291.275L120.159 289.558L119.146 289.977L119.85 289.138L118.213 288.621L119.929 288.622L119.511 287.608L120.351 288.313L120.868 286.675L120.866 288.392L121.88 287.973L121.175 288.814L122.813 289.33L121.096 289.33L121.514 290.342L120.674 289.638L120.159 291.275Z" fill="#F88C73"/>
<path d="M242.704 306.395L242.705 304.677L241.692 305.096L242.396 304.257L240.759 303.74L242.476 303.741L242.057 302.728L242.897 303.433L243.413 301.795L243.413 303.512L244.426 303.093L243.722 303.933L245.359 304.449L243.642 304.449L244.061 305.461L243.221 304.757L242.704 306.395Z" fill="#F88C73"/>
<path d="M212.178 328.188L212.179 326.471L211.166 326.89L211.87 326.05L210.232 325.533L211.949 325.534L211.532 324.521L212.371 325.225L212.888 323.588L212.887 325.305L213.899 324.886L213.195 325.726L214.833 326.242L213.116 326.242L213.534 327.255L212.695 326.551L212.178 328.188Z" fill="#F88C73"/>
<path d="M109.425 278.656L109.425 276.939L108.412 277.358L109.116 276.517L107.479 276.001L109.196 276.002L108.777 274.989L109.617 275.693L110.134 274.056L110.134 275.773L111.146 275.354L110.442 276.194L112.079 276.71L110.362 276.71L110.781 277.723L109.942 277.019L109.425 278.656Z" fill="#F88C73"/>
<path d="M238.608 296.268L238.609 294.552L237.596 294.969L238.3 294.13L236.663 293.613L238.38 293.614L237.961 292.601L238.801 293.306L239.317 291.668L239.316 293.385L240.33 292.967L239.626 293.806L241.263 294.323L239.546 294.322L239.965 295.334L239.124 294.631L238.608 296.268Z" fill="#F88C73"/>
<path d="M204.514 304.282L204.515 302.566L203.502 302.984L204.206 302.145L202.569 301.628L204.286 301.629L203.867 300.615L204.707 301.32L205.223 299.682L205.223 301.399L206.236 300.981L205.532 301.821L207.169 302.338L205.452 302.337L205.871 303.349L205.031 302.645L204.514 304.282Z" fill="#F88C73"/>
<path d="M253.695 288.694L253.695 286.977L252.683 287.396L253.387 286.555L251.75 286.04L253.467 286.04L253.048 285.027L253.887 285.731L254.404 284.094L254.403 285.811L255.416 285.392L254.711 286.232L256.35 286.749L254.632 286.747L255.051 287.761L254.211 287.056L253.695 288.694Z" fill="#F88C73"/>
<path d="M218.608 293.185L218.608 291.468L217.595 291.885L218.299 291.046L216.662 290.529L218.379 290.53L217.96 289.518L218.8 290.222L219.317 288.585L219.316 290.301L220.329 289.883L219.625 290.722L221.262 291.239L219.545 291.238L219.964 292.251L219.124 291.547L218.608 293.185Z" fill="#F88C73"/>
<path d="M115.793 269.77L115.794 268.053L114.782 268.472L115.486 267.631L113.849 267.115L115.565 267.116L115.147 266.103L115.986 266.807L116.503 265.17L116.502 266.887L117.516 266.468L116.811 267.308L118.449 267.824L116.732 267.823L117.15 268.837L116.31 268.132L115.793 269.77Z" fill="#F88C73"/>
<path d="M190.309 336.405L190.31 334.688L189.296 335.107L190.001 334.267L188.363 333.751L190.08 333.751L189.662 332.738L190.502 333.442L191.019 331.805L191.018 333.522L192.03 333.103L191.326 333.943L192.963 334.46L191.246 334.46L191.665 335.472L190.826 334.768L190.309 336.405Z" fill="#F88C73"/>
<path d="M188.72 294.501L188.72 296.218L189.732 295.799L189.028 296.64L190.665 297.156L188.948 297.155L189.367 298.168L188.528 297.464L188.011 299.101L188.011 297.384L186.998 297.803L187.702 296.963L186.065 296.447L187.782 296.447L187.363 295.434L188.203 296.139L188.72 294.501Z" fill="#F88C73"/>
<path d="M103.21 261.113L103.211 259.396L102.198 259.814L102.902 258.974L101.264 258.458L102.981 258.459L102.563 257.445L103.403 258.15L103.92 256.512L103.918 258.229L104.932 257.811L104.227 258.651L105.865 259.168L104.148 259.166L104.566 260.179L103.726 259.475L103.21 261.113Z" fill="#F88C73"/>
</g>
<path d="M72.5418 346.807L117.659 54.2004C118.686 47.5422 124.916 42.9767 131.574 44.0034L287.585 68.0589C294.243 69.0856 298.809 75.3158 297.783 81.974L252.665 374.58C252.52 375.524 251.637 376.171 250.693 376.025L73.9859 348.779C73.0424 348.633 72.3963 347.75 72.5418 346.807Z" stroke="#F88C73" stroke-width="1.22229" stroke-miterlimit="10"/>
<path d="M187.697 52.6555C185.84 64.6958 194.096 75.9615 206.136 77.818C218.176 79.6745 229.442 71.4189 231.299 59.3786L187.697 52.6555Z" fill="#31344E" stroke="#F88C73" stroke-width="1.22229" stroke-miterlimit="10"/>
<path d="M207.342 64.7923L206.043 61.0963C206.01 61.0195 205.969 60.9326 205.922 60.8356C205.884 60.7312 205.841 60.6349 205.791 60.5466C205.742 60.4584 205.682 60.3819 205.612 60.3173C205.55 60.2539 205.479 60.2162 205.401 60.204L205.421 60.0727L207.286 60.3602L207.265 60.4916C207.213 60.4835 207.146 60.509 207.065 60.5683C206.993 60.6289 206.949 60.7117 206.933 60.8168C206.923 60.8781 206.932 60.942 206.957 61.0087L208.016 63.9954L209.774 61.5774C209.778 61.5512 209.795 61.5269 209.825 61.5047C209.849 61.4636 209.874 61.4226 209.898 61.3815C209.932 61.333 209.953 61.2869 209.96 61.2431C209.981 61.103 209.946 61.0081 209.856 60.9582C209.766 60.8996 209.708 60.8682 209.682 60.8642L209.702 60.7328L211.16 60.9576L211.14 61.0889C210.991 61.066 210.833 61.1269 210.668 61.2716C210.512 61.409 210.383 61.5504 210.28 61.6958L208.206 64.5087L209.659 68.6856C209.691 68.7712 209.73 68.8624 209.778 68.9594C209.826 69.0564 209.879 69.1497 209.937 69.2393C209.995 69.3289 210.054 69.4054 210.116 69.4687C210.188 69.5247 210.264 69.5587 210.343 69.5708L210.322 69.7022L208.458 69.4146L208.478 69.2833C208.53 69.2914 208.588 69.2645 208.652 69.2025C208.715 69.1406 208.754 69.0615 208.769 68.9652C208.778 68.9039 208.764 68.821 208.727 68.7166L207.541 65.3339L205.417 68.2063C205.383 68.2548 205.347 68.312 205.31 68.378C205.282 68.4454 205.263 68.5097 205.253 68.571C205.232 68.7111 205.287 68.7912 205.418 68.8115L205.398 68.9428L203.966 68.7221L203.986 68.5908C204.048 68.6002 204.12 68.5935 204.205 68.5706C204.29 68.539 204.377 68.4986 204.465 68.4495C204.554 68.4003 204.639 68.3418 204.721 68.2738C204.803 68.2058 204.872 68.1401 204.926 68.0768L207.342 64.7923Z" fill="#E9E6DB"/>
<path d="M101.702 361.595C101.489 361.562 101.295 361.624 101.118 361.782C100.941 361.94 100.809 362.122 100.723 362.326L96.3415 371.456L95.0623 363.218L91.3588 370.704L89.9145 360.676C89.8925 360.466 89.8271 360.254 89.7183 360.041C89.6201 359.83 89.4859 359.711 89.3156 359.685L89.3402 359.525L91.6068 359.875L91.5822 360.034C91.4439 360.013 91.3178 360.053 91.204 360.156C91.1024 360.249 91.0386 360.381 91.0123 360.551C91.0041 360.604 91.0041 360.675 91.0122 360.764L92.0437 367.851L95.7877 360.421L97.0264 368.603L100.174 362.176C100.178 362.155 100.19 362.113 100.21 362.051C100.243 361.98 100.263 361.923 100.269 361.88C100.292 361.731 100.268 361.608 100.196 361.509C100.125 361.401 100.047 361.34 99.9623 361.326L99.9869 361.167L101.727 361.435L101.702 361.595ZM107.448 372.939L107.528 372.952C107.603 372.963 107.676 372.947 107.748 372.904C107.822 372.85 107.886 372.784 107.942 372.705C108.01 372.617 108.062 372.527 108.098 372.435C108.136 372.332 108.161 372.238 108.174 372.152L108.844 367.811L103.736 367.023L103.066 371.365C103.053 371.45 103.049 371.547 103.054 371.657C103.06 371.756 103.078 371.852 103.108 371.943C103.137 372.035 103.174 372.117 103.217 372.189C103.271 372.263 103.341 372.306 103.426 372.319L103.506 372.331L103.481 372.491L101.246 372.146L101.271 371.987L101.351 371.999C101.425 372.011 101.498 371.995 101.571 371.951C101.644 371.897 101.709 371.831 101.765 371.752C101.833 371.665 101.885 371.575 101.921 371.482C101.958 371.379 101.984 371.285 101.997 371.2L103.309 362.692C103.32 362.618 103.323 362.531 103.316 362.432C103.31 362.333 103.292 362.237 103.262 362.146C103.233 362.054 103.19 361.977 103.135 361.914C103.081 361.84 103.011 361.797 102.926 361.783L102.846 361.771L102.871 361.611L105.105 361.956L105.081 362.116L105.001 362.103C104.916 362.09 104.836 362.111 104.763 362.165C104.691 362.208 104.627 362.269 104.571 362.348C104.526 362.428 104.486 362.514 104.449 362.607C104.413 362.699 104.39 362.783 104.378 362.857L103.822 366.465L108.93 367.252L109.486 363.645C109.498 363.57 109.5 363.483 109.493 363.384C109.487 363.285 109.469 363.19 109.44 363.098C109.41 363.007 109.368 362.929 109.312 362.866C109.258 362.792 109.188 362.749 109.103 362.736L109.023 362.724L109.048 362.564L111.283 362.909L111.258 363.068L111.178 363.056C111.093 363.043 111.014 363.063 110.94 363.117C110.868 363.161 110.804 363.222 110.748 363.3C110.703 363.38 110.663 363.467 110.627 363.559C110.591 363.652 110.567 363.735 110.555 363.81L109.244 372.317C109.231 372.403 109.226 372.5 109.231 372.61C109.248 372.71 109.272 372.807 109.301 372.898C109.331 372.99 109.367 373.072 109.41 373.144C109.464 373.218 109.529 373.26 109.603 373.272L109.683 373.284L109.658 373.444L107.424 373.099L107.448 372.939ZM111.009 373.488L111.089 373.501C111.174 373.514 111.252 373.499 111.324 373.455C111.398 373.401 111.463 373.335 111.519 373.256C111.585 373.18 111.636 373.095 111.672 373.002C111.719 372.911 111.749 372.823 111.762 372.738L113.079 364.199C113.09 364.124 113.087 364.037 113.07 363.936C113.064 363.837 113.04 363.741 113 363.647C112.971 363.556 112.928 363.478 112.873 363.415C112.819 363.341 112.749 363.298 112.664 363.285L112.584 363.273L112.609 363.113L118.754 364.061L118.525 365.545L118.366 365.52C118.382 365.272 118.319 365.045 118.177 364.838C118.036 364.62 117.785 364.483 117.423 364.427L114.215 363.933L113.592 367.971L116.242 368.38C116.486 368.417 116.7 368.374 116.883 368.25C117.076 368.127 117.188 367.964 117.219 367.762L117.379 367.787L117.071 369.782L116.912 369.757C116.941 369.566 116.887 369.389 116.748 369.226C116.61 369.063 116.413 368.962 116.158 368.922L113.508 368.514L112.762 373.35L116.258 373.889C116.46 373.92 116.643 373.9 116.807 373.827C116.971 373.754 117.11 373.661 117.226 373.548C117.354 373.426 117.45 373.294 117.516 373.152C117.594 373 117.641 372.871 117.657 372.765L117.817 372.79L117.529 374.657L110.984 373.648L111.009 373.488ZM118.756 374.683L118.836 374.695C118.921 374.708 119 374.693 119.072 374.65C119.145 374.596 119.21 374.53 119.266 374.451C119.332 374.374 119.383 374.289 119.419 374.197C119.466 374.106 119.496 374.018 119.509 373.933L120.826 365.393C120.837 365.319 120.834 365.231 120.817 365.13C120.811 365.031 120.788 364.935 120.747 364.842C120.718 364.75 120.675 364.673 120.62 364.61C120.566 364.536 120.496 364.493 120.411 364.48L120.331 364.467L120.356 364.308L126.501 365.255L126.272 366.74L126.113 366.715C126.129 366.467 126.066 366.239 125.924 366.032C125.783 365.814 125.532 365.678 125.17 365.622L121.962 365.127L121.339 369.166L123.989 369.574C124.234 369.612 124.447 369.569 124.63 369.444C124.823 369.321 124.935 369.159 124.966 368.957L125.126 368.981L124.818 370.977L124.659 370.952C124.688 370.761 124.634 370.583 124.496 370.42C124.357 370.257 124.16 370.156 123.905 370.117L121.255 369.708L120.51 374.545L124.005 375.084C124.207 375.115 124.39 375.094 124.554 375.021C124.718 374.949 124.858 374.856 124.973 374.743C125.101 374.621 125.197 374.489 125.263 374.346C125.341 374.195 125.388 374.066 125.404 373.959L125.564 373.984L125.276 375.852L118.731 374.843L118.756 374.683ZM126.503 375.877L126.583 375.89C126.668 375.903 126.747 375.888 126.819 375.844C126.893 375.79 126.957 375.724 127.013 375.646C127.079 375.569 127.131 375.484 127.167 375.391C127.213 375.301 127.243 375.213 127.256 375.127L128.573 366.588C128.585 366.513 128.582 366.426 128.565 366.325C128.558 366.226 128.535 366.13 128.495 366.036C128.465 365.945 128.423 365.867 128.367 365.804C128.313 365.731 128.243 365.687 128.158 365.674L128.079 365.662L128.103 365.502L130.402 365.857L130.377 366.016L130.297 366.004C130.212 365.991 130.133 366.011 130.059 366.065C129.987 366.109 129.923 366.17 129.867 366.248C129.812 366.327 129.76 366.411 129.714 366.502C129.678 366.595 129.654 366.678 129.643 366.753L128.262 375.707L131.757 376.246C131.96 376.278 132.143 376.257 132.306 376.184C132.47 376.111 132.611 376.013 132.728 375.889C132.857 375.757 132.955 375.614 133.022 375.461C133.102 375.299 133.152 375.149 133.174 375.01L133.333 375.035L133.023 377.046L126.479 376.037L126.503 375.877ZM145.073 367.955C145.903 368.083 146.625 368.347 147.239 368.747C147.854 369.136 148.352 369.616 148.733 370.187C149.126 370.748 149.394 371.378 149.537 372.075C149.692 372.764 149.715 373.465 149.605 374.178C149.482 374.976 149.219 375.687 148.818 376.311C148.427 376.937 147.94 377.451 147.355 377.851C146.77 378.251 146.116 378.537 145.393 378.708C144.681 378.871 143.942 378.893 143.176 378.775C142.357 378.649 141.64 378.386 141.026 377.986C140.423 377.588 139.93 377.109 139.548 376.549C139.177 375.991 138.918 375.373 138.772 374.697C138.625 374.021 138.606 373.337 138.712 372.645C138.817 371.964 139.043 371.313 139.389 370.69C139.738 370.058 140.186 369.517 140.735 369.068C141.294 368.62 141.939 368.289 142.669 368.075C143.399 367.861 144.201 367.821 145.073 367.955ZM143.47 378.248C144.188 378.326 144.835 378.263 145.411 378.058C146 377.843 146.509 377.541 146.94 377.149C147.373 376.748 147.716 376.288 147.97 375.772C148.234 375.257 148.408 374.734 148.49 374.202C148.58 373.616 148.565 373.009 148.444 372.381C148.323 371.752 148.102 371.168 147.782 370.628C147.464 370.078 147.051 369.611 146.544 369.228C146.049 368.836 145.461 368.587 144.78 368.482C144.12 368.38 143.506 368.438 142.939 368.656C142.373 368.863 141.869 369.166 141.426 369.566C140.993 369.968 140.638 370.436 140.359 370.971C140.081 371.505 139.9 372.044 139.816 372.587C139.726 373.172 139.747 373.78 139.878 374.41C140.011 375.03 140.238 375.609 140.558 376.149C140.878 376.689 141.281 377.148 141.767 377.528C142.264 377.91 142.831 378.15 143.47 378.248ZM152.431 379.875L152.511 379.888L152.487 380.047L150.204 379.695L150.229 379.536L150.308 379.548C150.394 379.561 150.472 379.546 150.544 379.503C150.618 379.449 150.683 379.382 150.738 379.304C150.805 379.227 150.856 379.142 150.892 379.05C150.928 378.957 150.952 378.868 150.966 378.783L152.282 370.244C152.294 370.169 152.296 370.082 152.29 369.983C152.283 369.884 152.265 369.789 152.236 369.697C152.206 369.605 152.159 369.527 152.092 369.463C152.038 369.389 151.969 369.345 151.884 369.332L151.804 369.32L151.828 369.16L157.958 370.105L157.729 371.59L157.569 371.565C157.607 371.321 157.555 371.095 157.412 370.887C157.282 370.671 157.042 370.536 156.69 370.482L153.418 369.977L152.796 374.016L155.445 374.424C155.69 374.462 155.904 374.419 156.086 374.295C156.28 374.172 156.392 374.009 156.423 373.807L156.583 373.832L156.275 375.827L156.115 375.802C156.145 375.611 156.09 375.434 155.952 375.271C155.814 375.108 155.617 375.007 155.362 374.967L152.712 374.559L152.035 378.948C152.022 379.033 152.019 379.125 152.025 379.224C152.032 379.324 152.05 379.419 152.079 379.511C152.119 379.604 152.166 379.687 152.22 379.761C152.276 379.824 152.346 379.862 152.431 379.875ZM168.066 382.286L168.146 382.298L168.121 382.458L165.839 382.106L165.863 381.946L165.943 381.959C166.028 381.972 166.107 381.957 166.179 381.913C166.253 381.859 166.317 381.793 166.373 381.715C166.439 381.638 166.49 381.553 166.527 381.46C166.563 381.368 166.587 381.279 166.6 381.194L167.917 372.654C167.929 372.58 167.931 372.493 167.925 372.394C167.918 372.295 167.9 372.2 167.871 372.108C167.841 372.016 167.793 371.938 167.727 371.873C167.673 371.8 167.603 371.756 167.518 371.743L167.438 371.731L167.463 371.571L173.593 372.516L173.364 374.001L173.204 373.976C173.242 373.731 173.189 373.505 173.047 373.298C172.917 373.082 172.676 372.947 172.325 372.893L169.053 372.388L168.43 376.427L171.08 376.835C171.325 376.873 171.538 376.83 171.721 376.705C171.914 376.583 172.026 376.42 172.058 376.218L172.217 376.243L171.91 378.238L171.75 378.213C171.779 378.022 171.725 377.844 171.587 377.681C171.449 377.518 171.252 377.417 170.996 377.378L168.347 376.969L167.67 381.359C167.657 381.444 167.653 381.536 167.66 381.635C167.666 381.734 167.684 381.83 167.714 381.921C167.754 382.015 167.801 382.098 167.855 382.172C167.911 382.235 167.981 382.273 168.066 382.286ZM179.382 373.246C180.212 373.374 180.934 373.637 181.548 374.037C182.164 374.426 182.662 374.906 183.042 375.477C183.435 376.038 183.703 376.668 183.846 377.366C184.001 378.054 184.024 378.755 183.914 379.468C183.791 380.266 183.528 380.977 183.127 381.602C182.736 382.228 182.249 382.741 181.664 383.141C181.079 383.541 180.425 383.827 179.702 383.999C178.99 384.161 178.251 384.183 177.485 384.065C176.666 383.939 175.949 383.676 175.335 383.276C174.732 382.878 174.24 382.399 173.857 381.839C173.486 381.281 173.227 380.663 173.081 379.987C172.935 379.311 172.915 378.627 173.021 377.935C173.126 377.254 173.352 376.603 173.699 375.981C174.047 375.348 174.495 374.807 175.044 374.358C175.603 373.91 176.248 373.579 176.978 373.365C177.708 373.151 178.51 373.111 179.382 373.246ZM177.779 383.539C178.497 383.617 179.144 383.553 179.72 383.348C180.309 383.133 180.819 382.831 181.249 382.44C181.682 382.038 182.025 381.579 182.279 381.062C182.543 380.547 182.717 380.024 182.799 379.492C182.889 378.907 182.874 378.3 182.753 377.671C182.632 377.042 182.411 376.458 182.091 375.918C181.773 375.368 181.36 374.901 180.853 374.518C180.358 374.126 179.77 373.877 179.089 373.772C178.429 373.671 177.815 373.728 177.248 373.946C176.682 374.153 176.178 374.456 175.735 374.857C175.303 375.258 174.947 375.727 174.669 376.261C174.39 376.795 174.209 377.334 174.125 377.877C174.035 378.462 174.056 379.07 174.187 379.7C174.321 380.32 174.547 380.9 174.867 381.439C175.187 381.979 175.59 382.439 176.076 382.819C176.573 383.2 177.14 383.44 177.779 383.539ZM186.693 385.158L186.772 385.17L186.748 385.33L184.497 384.983L184.522 384.823L184.602 384.836C184.676 384.847 184.75 384.826 184.824 384.772C184.897 384.718 184.962 384.652 185.018 384.573C185.084 384.496 185.135 384.412 185.171 384.319C185.209 384.216 185.235 384.122 185.248 384.037L186.56 375.529C186.571 375.454 186.573 375.368 186.567 375.269C186.56 375.169 186.537 375.073 186.497 374.98C186.468 374.888 186.425 374.811 186.369 374.748C186.315 374.674 186.251 374.632 186.177 374.62L186.097 374.608L186.122 374.448L188.899 374.876C189.963 375.04 190.75 375.374 191.261 375.878C191.782 376.383 191.981 377.04 191.856 377.849C191.794 378.253 191.669 378.599 191.484 378.886C191.31 379.165 191.094 379.398 190.836 379.587C190.58 379.766 190.287 379.9 189.957 379.991C189.639 380.073 189.305 380.119 188.955 380.131L189.833 382.064C190.044 382.532 190.262 382.996 190.485 383.455C190.71 383.904 190.927 384.368 191.136 384.847C191.195 384.964 191.257 385.089 191.324 385.219C191.402 385.351 191.481 385.472 191.562 385.582C191.654 385.694 191.748 385.791 191.845 385.871C191.953 385.942 192.066 385.987 192.184 386.005L192.159 386.164L191.473 386.059C191.047 385.993 190.711 385.838 190.466 385.593C190.233 385.339 190.047 385.06 189.909 384.755C189.538 383.979 189.169 383.192 188.802 382.395C188.445 381.599 188.087 380.814 187.727 380.039C187.612 380.011 187.485 379.98 187.349 379.948C187.224 379.907 187.105 379.867 186.992 379.828L186.317 384.202C186.304 384.287 186.3 384.384 186.305 384.494C186.311 384.593 186.329 384.688 186.359 384.78C186.399 384.873 186.44 384.956 186.484 385.028C186.538 385.102 186.607 385.145 186.693 385.158ZM187.698 375.247L187.073 379.301L187.153 379.313C187.236 379.337 187.367 379.368 187.547 379.407C187.738 379.436 187.972 379.473 188.249 379.515C188.472 379.55 188.711 379.554 188.966 379.528C189.233 379.493 189.485 379.412 189.723 379.285C189.972 379.149 190.187 378.959 190.366 378.714C190.556 378.471 190.682 378.147 190.745 377.743C190.807 377.339 190.778 376.996 190.658 376.716C190.548 376.438 190.367 376.203 190.113 376.011C189.87 375.821 189.561 375.67 189.186 375.558C188.811 375.446 188.395 375.354 187.937 375.284L187.698 375.247ZM197.18 386.775L197.26 386.788L197.235 386.947L194.969 386.598L194.993 386.438L195.073 386.45C195.158 386.464 195.238 386.443 195.311 386.389C195.385 386.335 195.45 386.269 195.506 386.19C195.572 386.113 195.623 386.029 195.659 385.936C195.697 385.833 195.722 385.739 195.735 385.654L197.109 376.747L195.257 376.461C195.087 376.435 194.932 376.449 194.793 376.504C194.654 376.559 194.533 376.638 194.429 376.742C194.328 376.836 194.245 376.948 194.181 377.08C194.119 377.201 194.078 377.325 194.058 377.453L193.899 377.429L194.167 375.689L201.334 376.794L201.066 378.534L200.906 378.509C200.926 378.381 200.924 378.25 200.901 378.116C200.88 377.971 200.835 377.839 200.766 377.719C200.699 377.589 200.608 377.477 200.491 377.383C200.375 377.289 200.232 377.228 200.062 377.202L198.178 376.912L196.805 385.819C196.792 385.904 196.788 386.001 196.792 386.111C196.799 386.21 196.817 386.305 196.846 386.397C196.886 386.49 196.928 386.573 196.972 386.645C197.026 386.719 197.095 386.762 197.18 386.775ZM202.208 376.929L204.475 377.278L204.45 377.438L204.37 377.425C204.285 377.412 204.206 377.433 204.132 377.487C204.06 377.53 203.991 377.59 203.925 377.667C203.869 377.746 203.823 377.831 203.787 377.924C203.751 378.016 203.727 378.1 203.716 378.174L202.744 384.479C202.68 384.894 202.663 385.284 202.694 385.648C202.725 386.012 202.822 386.338 202.985 386.624C203.148 386.911 203.382 387.154 203.689 387.354C203.998 387.543 204.392 387.675 204.87 387.749C205.402 387.831 205.841 387.811 206.187 387.69C206.532 387.569 206.811 387.389 207.022 387.149C207.235 386.898 207.394 386.607 207.5 386.275C207.606 385.942 207.684 385.611 207.735 385.281L208.712 378.945C208.723 378.87 208.726 378.783 208.719 378.684C208.713 378.585 208.69 378.489 208.649 378.396C208.62 378.304 208.577 378.227 208.522 378.164C208.468 378.09 208.404 378.047 208.329 378.036L208.249 378.023L208.274 377.864L210.014 378.132L209.989 378.292L209.909 378.279C209.824 378.266 209.745 378.287 209.671 378.341C209.61 378.386 209.546 378.447 209.479 378.524C209.424 378.602 209.378 378.688 209.342 378.78C209.306 378.873 209.282 378.956 209.271 379.031L208.301 385.32C208.194 386.011 208.021 386.568 207.782 386.988C207.545 387.398 207.257 387.708 206.92 387.918C206.582 388.127 206.204 388.248 205.785 388.282C205.377 388.317 204.949 388.3 204.502 388.231C204.023 388.157 203.584 388.035 203.186 387.865C202.796 387.707 202.472 387.477 202.213 387.176C201.955 386.874 201.774 386.492 201.671 386.03C201.57 385.557 201.571 384.985 201.674 384.314L202.646 378.009C202.658 377.935 202.66 377.848 202.654 377.749C202.647 377.65 202.624 377.554 202.584 377.46C202.554 377.369 202.512 377.291 202.456 377.228C202.402 377.155 202.338 377.112 202.263 377.101L202.184 377.088L202.208 376.929ZM211.606 389L211.686 389.012L211.661 389.172L209.89 388.898L209.914 388.739L209.994 388.751C210.068 388.763 210.143 388.741 210.216 388.687C210.301 388.635 210.371 388.569 210.426 388.491C210.482 388.412 210.528 388.327 210.564 388.234C210.612 388.133 210.643 388.04 210.656 387.954L211.968 379.447C211.979 379.372 211.982 379.285 211.975 379.186C211.979 379.089 211.967 378.994 211.937 378.903C211.908 378.811 211.86 378.733 211.794 378.668C211.729 378.593 211.644 378.547 211.537 378.53L211.457 378.518L211.482 378.359L213.094 378.607L217.481 388.631L218.736 380.49C218.747 380.416 218.744 380.328 218.727 380.227C218.721 380.128 218.697 380.032 218.657 379.939C218.628 379.847 218.585 379.77 218.53 379.707C218.476 379.633 218.406 379.59 218.321 379.576L218.241 379.564L218.266 379.405L220.054 379.68L220.029 379.84L219.949 379.828C219.864 379.814 219.785 379.835 219.711 379.889C219.639 379.932 219.57 379.992 219.503 380.069C219.448 380.148 219.402 380.233 219.366 380.326C219.33 380.418 219.306 380.502 219.294 380.576L217.823 390.122L216.833 389.969L212.467 379.916L211.215 388.041C211.202 388.126 211.197 388.223 211.202 388.333C211.209 388.432 211.227 388.527 211.256 388.619C211.296 388.712 211.343 388.796 211.397 388.869C211.451 388.943 211.521 388.987 211.606 389ZM219.953 390.287L220.033 390.299C220.118 390.312 220.197 390.297 220.269 390.254C220.342 390.2 220.407 390.133 220.463 390.055C220.529 389.978 220.58 389.893 220.616 389.801C220.663 389.71 220.693 389.622 220.706 389.537L222.023 380.997C222.034 380.923 222.032 380.835 222.014 380.734C222.008 380.635 221.985 380.539 221.944 380.446C221.915 380.354 221.872 380.277 221.817 380.214C221.763 380.14 221.693 380.096 221.608 380.083L221.528 380.071L221.553 379.911L227.698 380.859L227.469 382.343L227.31 382.319C227.326 382.071 227.263 381.843 227.121 381.636C226.98 381.418 226.729 381.281 226.367 381.226L223.159 380.731L222.536 384.769L225.186 385.178C225.431 385.216 225.644 385.172 225.827 385.048C226.02 384.925 226.132 384.763 226.163 384.561L226.323 384.585L226.015 386.58L225.856 386.556C225.885 386.364 225.831 386.187 225.693 386.024C225.554 385.861 225.357 385.76 225.102 385.721L222.452 385.312L221.707 390.149L225.202 390.688C225.405 390.719 225.587 390.698 225.751 390.625C225.915 390.552 226.055 390.459 226.17 390.347C226.298 390.225 226.394 390.092 226.46 389.95C226.538 389.799 226.585 389.67 226.601 389.563L226.761 389.588L226.473 391.455L219.929 390.446L219.953 390.287Z" fill="#E9E6DB"/>
</g>
</g>
<defs>
<filter id="filter0_d_141_37602" x="0.232643" y="0.642314" width="335.494" height="461.311" filterUnits="userSpaceOnUse" color-interpolation-filters="sRGB">
<feFlood flood-opacity="0" result="BackgroundImageFix"/>
<feColorMatrix in="SourceAlpha" type="matrix" values="0 0 0 0 0 0 0 0 0 0 0 0 0 0 0 0 0 0 127 0" result="hardAlpha"/>
<feOffset dx="-16.2431" dy="10.8288"/>
<feGaussianBlur stdDeviation="18.0479"/>
<feComposite in2="hardAlpha" operator="out"/>
<feColorMatrix type="matrix" values="0 0 0 0 0.478483 0 0 0 0 0.423458 0 0 0 0 0.386774 0 0 0 0.69 0"/>
<feBlend mode="normal" in2="BackgroundImageFix" result="effect1_dropShadow_141_37602"/>
<feBlend mode="normal" in="SourceGraphic" in2="effect1_dropShadow_141_37602" result="shape"/>
</filter>
<clipPath id="clip0_141_37602">
<rect x="107.62" y="25.9094" width="210.715" height="361.227" rx="12.7433" transform="rotate(8.76553 107.62 25.9094)" fill="white"/>
</clipPath>
</defs>
</svg>
