<svg width="158" height="419" viewBox="0 0 158 419" fill="none" xmlns="http://www.w3.org/2000/svg">
<path d="M134.745 334.192C134.745 329.897 136.245 325.858 138.712 322.484C162.223 290.683 157.869 225.037 153.708 194.821C150.08 168.491 150.467 87.5573 150.37 62.2497C150.37 57.5971 146.79 52.4334 142.388 52.4334C138.131 52.4334 133.439 56.0634 133.439 62.2497L128.988 158.879L127.15 29.3753C127.102 24.3649 123.377 20.2747 118.636 19.968C113.653 19.6612 109.348 23.7513 109.106 29.0174L102.769 155.3L101.656 13.5771C101.656 6.62393 97.4471 1 90.868 1C84.4823 1 80.4672 6.31717 80.1769 13.0148L72.6787 155.811L71.6144 36.124C71.6144 29.1708 67.3573 23.5468 60.7781 23.5468C54.3925 23.5468 50.0387 29.7843 49.7968 36.533L42.5405 195.843C38.6704 139.553 15.7886 132.753 5.19424 133.929C2.09818 134.287 -0.0304061 137.252 1.51762 140.115C14.6759 164.094 14.3857 204.484 14.1438 227.389C14.0471 235.211 15.982 242.982 19.9488 249.629C24.0124 256.48 25.3187 269.568 29.866 286.644C35.2357 306.942 43.5563 317.627 48.539 322.637C51.9253 326.063 53.7153 330.92 53.7153 335.879V404.491C53.7153 408.019 55.9406 411.086 59.1334 412.007C72.0981 415.79 102.575 422.488 129.956 412.569C132.713 411.547 134.406 408.53 134.406 405.411L134.745 334.192Z" stroke="#B58B65" stroke-miterlimit="10" stroke-linejoin="round"/>
<path d="M52.1172 209.392C52.1172 209.392 102.573 232.655 88.9312 311.083" stroke="#B58B65" stroke-miterlimit="10" stroke-linecap="round" stroke-linejoin="round"/>
<path d="M42.3455 193.594C42.3455 193.594 42.6841 209.904 42.3455 216.806" stroke="#B58B65" stroke-miterlimit="10" stroke-linecap="round" stroke-linejoin="round"/>
<path d="M54.8748 202.439C54.8748 202.439 103.638 208.983 142.435 260.877" stroke="#B58B65" stroke-miterlimit="10" stroke-linecap="round" stroke-linejoin="round"/>
<path d="M67.6464 177.387C67.6464 177.387 102.235 211.54 146.547 205.2" stroke="#B58B65" stroke-miterlimit="10" stroke-linecap="round" stroke-linejoin="round"/>
<path d="M99.8177 186.692C103.349 215.016 105.913 259.905 98.705 318.497" stroke="#B58B65" stroke-miterlimit="10" stroke-linecap="round" stroke-linejoin="round"/>
<path d="M61.2617 335.521C61.2617 335.521 101.269 344.571 127.198 335.521" stroke="#B58B65" stroke-miterlimit="10" stroke-linecap="round" stroke-linejoin="round"/>
<path d="M63.6796 157.652C63.6796 157.652 70.8875 156.22 80.853 157.652" stroke="#B58B65" stroke-miterlimit="10" stroke-linecap="round" stroke-linejoin="round"/>
<path d="M94.4471 157.294C94.4471 157.294 102.429 156.68 110.701 158.163" stroke="#B58B65" stroke-miterlimit="10" stroke-linecap="round" stroke-linejoin="round"/>
<path d="M121.682 159.492C121.682 159.492 128.89 158.316 135.759 160.873" stroke="#B58B65" stroke-miterlimit="10" stroke-linecap="round" stroke-linejoin="round"/>
<path d="M53.957 67.72C53.957 67.72 59.085 68.3846 66.4865 67.72" stroke="#B58B65" stroke-miterlimit="10" stroke-linecap="round" stroke-linejoin="round"/>
<path d="M52.8436 108.11C52.8436 108.11 58.4068 108.826 66.534 108.11" stroke="#B58B65" stroke-miterlimit="10" stroke-linecap="round" stroke-linejoin="round"/>
<path d="M111.477 63.9878C111.477 63.9878 116.604 64.6524 124.006 63.9878" stroke="#B58B65" stroke-miterlimit="10" stroke-linecap="round" stroke-linejoin="round"/>
<path d="M109.879 105.81C109.879 105.81 115.442 106.526 123.569 105.81" stroke="#B58B65" stroke-miterlimit="10" stroke-linecap="round" stroke-linejoin="round"/>
<path d="M134.695 120.994C134.695 120.994 139.533 121.608 146.499 120.994" stroke="#B58B65" stroke-miterlimit="10" stroke-linecap="round" stroke-linejoin="round"/>
<path d="M136.873 89.5515C136.873 89.5515 140.501 90.0117 145.726 89.5515" stroke="#B58B65" stroke-miterlimit="10" stroke-linecap="round" stroke-linejoin="round"/>
<path d="M84.3868 52.7913C84.3868 52.7913 89.5147 53.4559 96.9162 52.7913" stroke="#B58B65" stroke-miterlimit="10" stroke-linecap="round" stroke-linejoin="round"/>
<path d="M80.9514 102.179C80.9514 102.179 87.4337 102.997 96.9154 102.179" stroke="#B58B65" stroke-miterlimit="10" stroke-linecap="round" stroke-linejoin="round"/>
<path d="M21.9802 179.227C21.9802 179.227 37.6057 178.767 39.6858 174.268" stroke="#B58B65" stroke-miterlimit="10" stroke-linecap="round" stroke-linejoin="round"/>
<path d="M124.974 280.049C123.088 279.384 121.104 279.333 119.266 279.691C119.75 279.793 120.282 279.895 120.765 280.049C126.038 281.889 128.893 287.922 127.103 293.444C125.361 299.017 119.653 302.033 114.428 300.141C113.944 299.988 113.461 299.732 113.025 299.477C114.283 300.959 115.879 302.135 117.766 302.8C123.716 304.896 130.15 301.471 132.134 295.182C134.117 288.894 130.924 282.145 124.974 280.049Z" fill="#31344E"/>
<path d="M83.2262 365.021C81.7265 364.97 80.2268 364.714 78.9206 363.896C77.6629 363.078 76.6954 361.596 76.7438 360.011C76.7922 358.324 78.0016 356.79 79.4528 356.125C80.9041 355.409 82.5972 355.409 84.1936 355.665C92.2724 356.892 98.3194 364.152 106.35 365.532C107.946 365.788 110.026 365.635 111.333 364.612C113.122 363.232 113.655 360.062 112.397 358.17C111.091 356.279 108.333 355.512 106.108 355.614C103.883 355.716 101.754 356.636 99.7706 357.71C94.159 360.675 89.9504 365.226 83.2262 365.021Z" fill="#31344E"/>
<path d="M127.15 179.227C127.15 176.057 124.731 173.45 121.683 173.45C118.684 173.45 116.217 176.006 116.217 179.227C116.217 182.397 118.635 185.005 121.683 185.005C124.731 184.953 127.15 182.397 127.15 179.227Z" fill="#31344E"/>
<path d="M47.5723 120.636C47.5723 120.636 58.0215 124.062 70.8411 120.636" stroke="#B58B65" stroke-miterlimit="10" stroke-linecap="round" stroke-linejoin="round"/>
<path d="M47.5723 127.283C47.5723 127.283 58.0215 130.709 70.8411 127.283" stroke="#B58B65" stroke-miterlimit="10" stroke-linecap="round" stroke-linejoin="round"/>
<path d="M80.8066 32.9031C80.8066 32.9031 90.4335 34.6925 100.012 32.9031" stroke="#B58B65" stroke-miterlimit="10" stroke-linecap="round" stroke-linejoin="round"/>
<path d="M131.939 133.009C131.939 133.009 140.647 134.799 148.726 133.265" stroke="#B58B65" stroke-miterlimit="10" stroke-linecap="round" stroke-linejoin="round"/>
<path d="M91.0615 111.331L86.8044 117.211L91.0615 123.039L86.8044 128.919L91.0615 134.798L86.8044 140.678L91.0615 146.558" fill="#31344E"/>
<path d="M91.0617 60.614L86.8046 66.2891L91.0617 71.913L86.8046 77.5881L91.0617 83.3142L86.8046 88.9893L91.0617 94.7155" fill="#31344E"/>
<path d="M117.765 44.2018C118.486 44.2018 119.071 43.5837 119.071 42.8213C119.071 42.059 118.486 41.4409 117.765 41.4409C117.044 41.4409 116.459 42.059 116.459 42.8213C116.459 43.5837 117.044 44.2018 117.765 44.2018Z" fill="#B58B65"/>
<path d="M117.765 53.0467C118.486 53.0467 119.071 52.4287 119.071 51.6663C119.071 50.9039 118.486 50.2859 117.765 50.2859C117.044 50.2859 116.459 50.9039 116.459 51.6663C116.459 52.4287 117.044 53.0467 117.765 53.0467Z" fill="#B58B65"/>
<path d="M117.765 83.672C118.486 83.672 119.071 83.0539 119.071 82.2916C119.071 81.5292 118.486 80.9111 117.765 80.9111C117.044 80.9111 116.459 81.5292 116.459 82.2916C116.459 83.0539 117.044 83.672 117.765 83.672Z" fill="#B58B65"/>
<path d="M117.765 98.2432C118.486 98.2432 119.071 97.6252 119.071 96.8628C119.071 96.1005 118.486 95.4824 117.765 95.4824C117.044 95.4824 116.459 96.1005 116.459 96.8628C116.459 97.6252 117.044 98.2432 117.765 98.2432Z" fill="#B58B65"/>
<path d="M117.765 120.636C118.486 120.636 119.071 120.018 119.071 119.256C119.071 118.493 118.486 117.875 117.765 117.875C117.044 117.875 116.459 118.493 116.459 119.256C116.459 120.018 117.044 120.636 117.765 120.636Z" fill="#31344E"/>
<path d="M117.765 129.788C118.486 129.788 119.071 129.17 119.071 128.408C119.071 127.645 118.486 127.027 117.765 127.027C117.044 127.027 116.459 127.645 116.459 128.408C116.459 129.17 117.044 129.788 117.765 129.788Z" fill="#31344E"/>
<path d="M84.1919 175.546C86.7033 175.546 88.7392 173.394 88.7392 170.74C88.7392 168.086 86.7033 165.934 84.1919 165.934C81.6805 165.934 79.6445 168.086 79.6445 170.74C79.6445 173.394 81.6805 175.546 84.1919 175.546Z" fill="#31344E"/>
<path d="M79.6439 390.226C81.7545 390.226 83.4656 388.418 83.4656 386.187C83.4656 383.957 81.7545 382.148 79.6439 382.148C77.5332 382.148 75.8223 383.957 75.8223 386.187C75.8223 388.418 77.5332 390.226 79.6439 390.226Z" fill="#31344E"/>
<path d="M30.8334 220.845C32.9441 220.845 34.6552 219.036 34.6552 216.806C34.6552 214.575 32.9441 212.767 30.8334 212.767C28.7228 212.767 27.0118 214.575 27.0118 216.806C27.0118 219.036 28.7228 220.845 30.8334 220.845Z" fill="#31344E"/>
<path d="M111.381 402.19C112.556 402.19 113.509 401.183 113.509 399.94C113.509 398.698 112.556 397.691 111.381 397.691C110.205 397.691 109.252 398.698 109.252 399.94C109.252 401.183 110.205 402.19 111.381 402.19Z" fill="#31344E"/>
</svg>
